<svg xmlns="http://www.w3.org/2000/svg" xmlns:xlink="http://www.w3.org/1999/xlink"
    viewBox="0 0 1400 1400" enable-background="new 0 0 1400 1400">
    <style type="text/css">.st0{fill:none;} .st1{fill:none;stroke:#000000;stroke-width:3.5;} .st2{clip-path:url(#SVGID_2_);} .st3{fill:none;stroke:#FFFFFF;stroke-miterlimit:10;}</style>
    <path class="st0" d="M1278.7 100h-1157.4v1200h1157.5v-1200h-.1z"/>
    <path class="st1" d="M165 474.9c-3.8 5.9-1 14.9 6.3 20.8 7.1 5.7 16.1 6.5 21.1 2.2"/>
    <path class="st1"
        d="M183.8 488.7c1.4-1.7.7-4.6-1.7-6.5-2.3-1.9-5.3-2.1-6.7-.3-1.4 1.7-.6 4.6 1.7 6.5 2.3 1.9 5.3 2 6.7.3zM192.1 498.4c1.4-1.7 2.1-3.8 2.2-5.9M161.8 481.7c-.4 5.6 2.8 11.7 8 15.8 7.8 6.2 17.8 6.6 22.4.9"/>
    <path class="st1"
        d="M183.8 650.5c1.4-1.7.7-4.7-1.7-6.5-2.3-1.9-5.3-2-6.7-.3-1.4 1.7-.7 4.7 1.6 6.5 2.4 1.9 5.4 2.1 6.8.3zM165 636.8c-3.8 5.9-1 14.9 6.3 20.8 7.1 5.7 16.1 6.5 21.1 2.2"/>
    <path class="st1"
        d="M1216.2 766.6c1.4-1.7.6-4.6-1.7-6.5-2.3-1.9-5.3-2-6.7-.3-1.3 1.8-.6 4.7 1.7 6.5 2.3 1.9 5.3 2.1 6.7.3zM1197.4 752.8c-3.8 5.9-1 15 6.3 20.8 7.1 5.7 16 6.5 21.1 2.2M1224.5 776.4c4.4-5.6 2.2-14.7-4.8-21M1215.3 752.4c-7.4-4-15-3.2-18.9 1.4-4.6 5.7-2.1 15.4 5.7 21.7 7.7 6.2 17.8 6.6 22.4.9M194.4 492.6c.4-5.6-2.7-11.6-7.9-15.8-7.8-6.2-17.8-6.7-22.4-.9-1.4 1.7-2.1 3.8-2.2 5.9M1226.8 932.4c.4-5.6-2.7-11.6-7.9-15.8-7.8-6.2-17.8-6.7-22.4-1-1.3 1.8-2.1 3.8-2.3 6M1224.5 938.3c1.4-1.7 2.1-3.7 2.2-5.9M1194.2 921.6c-.4 5.6 2.8 11.5 8 15.7 7.7 6.3 17.8 6.7 22.4.9M1241.6 904.1c2.3 6.8 8.6 12.4 15.6 14.3M1266 434.2c0-5.3-3.1-10.9-7.9-14.7-2.6-2.2-5.6-3.7-8.4-4.4M138.9 116.1c-6.3-1.7-11.8 0-14.6 4.1M1248 782.6c-5.9-1.7-11.1-.2-14 3.4-1.6 2-2.3 4.4-2.3 6.9M1231.7 910.6c0 5.3 3.1 10.9 7.9 14.7 2.6 2.1 5.6 3.6 8.4 4.4M150.3 101.9c-5.4-1.4-10.2-.4-13.2 2.5M1277.4 420c0-5.3-3.1-10.8-7.9-14.7-2.7-2.2-5.6-3.6-8.4-4.4M154.6 628.1c1.6-1.9 2.3-4.4 2.3-6.8M140.5 631.6c5.9 1.6 11.2.1 14.1-3.5M156.8 503.5c0-5.4-3.1-10.8-7.9-14.7-2.7-2.2-5.6-3.7-8.4-4.4M192.1 660.3c4.7-5.8 2.2-15.4-5.6-21.7-7.8-6.2-17.8-6.7-22.4-.9-4.4 5.5-2.3 14.7 4.8 20.9M173.2 661.7c7.4 4 15.1 3.3 18.9-1.4M122.6 979.9c0 5.3 3.1 10.7 7.9 14.7 2.7 2.2 5.6 3.6 8.4 4.4M1249.7 1298.1c5.4 1.5 10.2.4 13.2-2.5"/>
    <path class="st1"
        d="M1216.2 928.5c1.4-1.7.6-4.6-1.7-6.5-2.3-1.9-5.3-2.1-6.7-.3-1.4 1.7-.6 4.6 1.7 6.5 2.3 1.9 5.3 2 6.7.3zM1197.4 914.7c-3.8 5.9-1 15 6.3 20.8 7.1 5.7 16 6.5 21.1 2.2M179.6 500l-1.5 1.8M192.8 497.5l-.4.4M183.9 484.3l-4.3 5.4M179.6 661.8l-1.5 1.9M179.6 651.6l4.3-5.4M156.8 620.7l-2.1.2M192.8 659.3l-.4.5M149.7 620.2l-18-4.8M1277.4 941.8l-2.3 2.8M1277.4 941.8l-2.3-.7M1275.1 944.6v-21.3M1216.3 762.3l-4.3 5.3M1210.5 779.8l1.5-1.9M1225.1 775.4l-.4.4M1231.7 910.6l9.1-11.3M1266 1287.8l11.4-14.2M1257.2 918.4l-9.2 11.4M1257.2 918.4l17.9 4.9M1231.7 792.9l8.6-10.6M1277.4 420.1l-11.4 14.1M1261.1 401l-11.4 14.1M138.9 116.1l11.4-14.2M1266 434.2v353.2M138.9 116.1l1110.8 299M1248 782.6l18 4.8M1231.7 910.6v-117.7M1266 934.6l-18-4.8M1261.1 401l-1110.8-299.1M140.6 631.6l9.1-11.4M140.6 631.6l-18-4.9M156.8 503.5v117.7M122.6 479.5l18 4.9M1249.7 1298.1l-1110.8-299.1M1212 929.5l4.3-5.3M1210.5 941.7l1.5-1.9M1225.1 937.3l-.4.4M173.2 661.7c-3-1.9-1.6-.8-4.4-3.1M1241.6 904.1l-.6-2.4c-.3-1.9-.3-4.1-.3-5.9v-113.5M1219.7 755.4c-2.8-2.2-1.4-1.2-4.4-3.1M1264.2 1293.9l1-1.8c1-2.5.8-5.3.8-7.9v-349.6l2.3-2.8 4.5-5.7 2.3-2.8M137.1 104.4l-2.3 2.8-8.2 10.2c-1.5 1.8-2.5 2.6-3.3 4.7-1 2.6-.8 5.3-.8 8v349.6M1266 787.4l2.3-2.8 4.6-5.7 2.2-2.8v-21.3l2.3-2.9v-331.8M149.7 620.2c3.4.6 1.7.5 5 .6M122.6 979.9v-353.20000000000005l2.2-2.8 4.6-5.7 2.3-2.8M1277.4 941.8v328.20000000000005c0 2.7.2 5.4-.8 7.9-.9 2.1-1.8 2.9-3.3 4.7l-8.3 10.1-2.2 2.8M1262.1 786.4v22.4M1245.4 782v128.7M1250.1 915l1.1-3.5 8.2-26c1.2-3.6 2.2-7.1 2.6-10.9.3-2.6.2-5.2.2-7.8v-32.7M1264.3 809.5c-2.6-.6-6.4 5-8.5 12.7-2 7.7-1.6 14.5 1 15.1l.1.1M1259.4 808.1c-2.7-.6-6.5 5-8.5 12.7-2.1 7.6-1.6 14.5 1 15.2h.1M1265.5 811.7c-2.3-.6-5.7 4.3-7.5 11s-1.4 12.7.9 13.3 5.7-4.3 7.5-11c1.3-4.6 1.4-8.9.7-11.3M1266.9 812.9c-.4-.7-.8-1.2-1.4-1.3M1262.3 813.5l-1.7-1.9-4.9-1.3M1252 836l2.5.6c1.4.4 2.8 1.2 4.3.3l2-1.4M1267.2 813.7l-.3-.8-1.3-2.4c-.7-1.3-2.5-1.4-3.8-1.8l-2.4-.6"/>
    <defs>
        <path id="SVGID_1_" d="M121.3 1300z"/>
    </defs>
    <clipPath id="SVGID_2_">
        <use xlink:href="#SVGID_1_" overflow="visible"/>
    </clipPath>
    <path class="st3" d="M121.3 1300l12.7-12.7"/>
    <path class="st0" d="M121.3 1300z"/>
</svg>
