<svg xmlns="http://www.w3.org/2000/svg" xmlns:xlink="http://www.w3.org/1999/xlink"
    viewBox="0 0 1400 1400" enable-background="new 0 0 1400 1400">
    <style type="text/css">.st0{fill:none;} .st1{fill:none;stroke:#000000;stroke-width:2;} .st2{clip-path:url(#SVGID_2_);} .st3{fill:none;stroke:#FFFFFF;stroke-miterlimit:10;}</style>
    <path class="st0" d="M1120.2 100h-840.4v1200h840.4v-1200z"/>
    <path class="st1"
        d="M1017.1 824.2l-128.2 158.7M1018.1 826l-129.2 160.1M1018.1 841.3l-129.2 160M314.3 526.4v.2M770.5 664.9v429.5l-456.2-122.8M770.5 1093l-455.2-122.5M314.3 543v428.6M752 644.3l-420-113.1M314.6 526.5l-.3-.1M848.7 1035.9l-41.1 50.7M847.7 1033.9l-40.1 49.6M807.6 1086.6v-430.1M795.8 665.7v450.8M848.7 1051.1l-52.9 65.4M289 529.3v450.7M795.8 1116.5l-506.8-136.5M1097.1 725.2l2 .6M816.6 630.4l275.3-340.9M1094.4 263.5l-280.9 347.9M587.6 127.1l-280.6 347.4M336.2 476.5l273.2-338.3M327 489.2l.7.2M759.2 623.4l-434.4-117M343.3 493.6l421.4 113.5M609.8 138.9l-272.6 337.4M327.4 488.6l-.5.5M1065.9 260.8l-274.7 340M636.8 133.3l415.5 111.8M640.1 116.3l433.6 116.7M1050 245.6l-412.4-111M315.3 544.1v424.5c0 2.4.4 1.4-1 3.1M1111 276.6v447.9c0 2.5.3 1.4-1.2 3.4l-50.3 62.3-1.2 1.4M1097.1 303.6v419.7c0 2.5.3 1.3-1.2 3.3l-36.4 45-1.2 1.5M1058.3 776.3l1.2-1.5 38.5-47.7c1.6-1.9 1.2-.8 1.2-3.3v-424M592 120.2l-.7.4M612.1 150.5l-.4.6M633.4 123.4l-.2-.4-.2-.1M620.3 147.7c0-.8-1.2-1.5-2.6-1.5s-2.5.6-2.5 1.5l.5.9M619.7 148.6l.6-.9M630.7 112c-1.2-1.9-2.8-3.7-4.5-5M631.5 112.1h-1M627.5 132.8l-.1.6M627.2 134.5c.1-.2.2-.6.2-1M642.2 143.1c0-.8-1.1-1.5-2.5-1.5s-2.6.7-2.6 1.5l.6.9M641.7 144l.5-.9M611.9 142.2l.3.9M620.1 148.2c-.3-.6-1.3-1-2.4-1-1.1 0-2.1.4-2.4 1M612.1 140.2l-.4.5M627.8 132.3c-4.2-1.2-9.2-.1-11.1 2.3M642 143.6c-.3-.6-1.3-1-2.4-1-1.2 0-2.1.4-2.4 1M617.4 135.6c0-.4-.3-.8-.8-1M617.4 135.6c-.1.4.1.8.4.9M607.3 132.6l-.2.1-.3.4M590.7 120.8l-.6.4"/>
    <path class="st1"
        d="M590.8 120.8h-.1.1zM621 147.2c0-1-1.5-1.9-3.3-1.9s-3.3.8-3.3 1.9c0 1 1.5 1.9 3.3 1.9s3.3-.9 3.3-1.9zM611.9 141.4l-.1.2.5.3.5-.1M627.4 133.9c-3.7-1-8.2-.1-10 2.1"/>
    <path class="st1"
        d="M638.2 136.4zM637.6 136.6l.6-.3M633 122.9c-1.2 1.4-1.2 3-.3 4.3M633.4 123.4c-.6.8-.9 1.7-.8 2.5M623.2 125.1c2.2-1 4-2.3 5.1-3.6M631.6 112l-1.1-.1"/>
    <path class="st1"
        d="M642.9 142.5c0-1-1.5-1.8-3.3-1.8s-3.3.8-3.3 1.8 1.5 1.9 3.3 1.9 3.3-.8 3.3-1.9zM647.8 143.4l-.4-.2M638.2 136M637.5 136.3h.2l.5-.3M627.4 133.5c-3.7-1-8.2-.1-10 2.1M611.9 141.2l.6.4.1-.1M611.9 141.2l-.2-.5M606.8 133c-.8-1.4-2.6-2.5-4.8-3.1M627.2 134.5c-1-.3-1.9-.4-2.9-.4-2.8 0-5.2.9-6.4 2.3M612.8 142.8l-.4.2M612.8 141.5c0-.4-.3-1-.7-1.3M607.3 132.6c-1-1.5-2.8-2.6-5.1-3.2M600.3 125.3c7.1 3.1 17.1 2.8 23.6-.6M592 120.2c1.3 1.5 3.3 2.9 5.5 3.9M598 124.2c3.7 2.2 8.6 3.3 13.5 3.3 10 0 18.1-4.4 18.9-10.1M631 114.7c0-.6-.1-1.3-.3-1.8M630.5 117.4c.4-.9.5-1.9.5-2.8M644.7 147.4l-.1-.4-.2-.2M626.3 107c-3.6-3-7.8-4.8-12-5.4M630.9 112c-1.3-2-2.9-3.7-4.6-5M608.8 101.3c-5.4.3-10.8 2.5-14.6 5.9M594 107.3c-6.6 5.6-9.7 14.3-8.6 22.4M606.8 134.2c-.8-1.4-2.6-2.5-4.8-3M611.3 142.1c0-.4-.2-1-.4-1.4M611.3 142.1l.2.9.3.7M591.3 120.6l-3.8 4.8M611.7 151.1v1.2M640.7 114.7v1.8M640.7 116.5v-1.8M640.7 114.7l-.2-.1M640.7 114.7h-.2M640.7 114.7l-.2.3M633.4 123.4v1.1M631.6 112l-.1.1M639.9 114.4l-8.4-2.3M627.4 133.5v-.1M616.6 134.6l-4.5 5.6M638.4 137.4l6.8 1.8M606.8 133v1.2M603.7 126.4l-.2.1M617.4 136l-4.6 5.8M637.6 136.6l-10.2-2.7M633.4 123.4l7.1-8.8M644.9 139.3l2.4 3.8M627.4 133.5l10.1 2.8M612.7 141.5l4.7-5.9M606.8 133l4.9 7.7M586.8 125.9l15.2 4.1M617.9 136.5l-5.1 6.3M607.3 132.6l4.8 7.6M600.3 125.2l-2.3-1-.5-.2M630.5 112l.3.8M644.7 148.6v-1.2M594 107.3h.2M602 131.1l-14.3-3.8M610.9 140.6l-4.1-6.4M591.3 120.6h-.1l-.2.1M586.4 128.6v-2.4l1.2-1.5 1.8-2.1 1.1-1.5.4-.3M590.1 121.3l.5-.1M609.2 146.9l.4-.1M632.7 126.6c-.1-.6-.1-.3-.1-.8M638.4 137.3l-.2-.9M619.1 145.5c-.4 1.3-.4.6-.4 1.9M640.7 142.8c0-1.3-.1-.7.3-1.9M627.9 121.8c.6-.7 1.1-1.3 1.5-2.1M627.5 132.8l.3-.5M611.9 142.2v-.4M637.9 135l-.3-.1-1.8-.5-6.2-1.6-1.8-.4"/>
    <path class="st1"
        d="M638.4 137.3zM638.2 137.5l.3-.1-.3.1zM629.2 120.1c.5-.9.9-1.7 1.3-2.7M618.4 152.3v1.8M586.1 128.9v-2.8l1.2-1.4 1.6-2.1 1.2-1.4M609.1 147.1l1 1.5.5.9 1.1 1.6 1.8.5 3.1.9 1.8.4 1.8-.3 22.7-4.8 1.8-.4 1.2-1.4.8-1.1 1.1-1.4M647.3 143.1l-1.2 1.5-.6.8-1.2 1.4-1.8.4-22.2 4.7-1.9.4-1.8-.6-2.7-.7-1.8-.5-1-1.6-.5-.6-1-1.6M602.2 129.4c-.3.5-.2 1.2-.2 1.8M633 122.9l1.1-1.5 4.6-5.6c.8-1 .7-1.6 1.5-1.5M638.2 137.5l-.7-.8v-1.8c-1.6-2.6-3.3-5.1-4.8-7.7M632.6 126.2c.2-1.2 1.3-2.2 2-3.1l4.3-5.4 1.2-1.5M640.5 115v-.4l-.1-.2-1.8-.5-5.1-1.4-1.8-.5M630.8 116.7c-1.7-.3-3.3-.4-5.1-.4-4.7.1-9.3.9-13.9 2.1-5.1 1.3-10.1 3.1-14.9 5.4M612.3 143l-1.1 1.4-.8 1-1.2 1.5-.1.1v1.2l1 1.6.5.9 1.1 1.6 1.8.4 3.1.9 1.8.5 1.8-.4 22.7-4.8 1.8-.3 1.2-1.5.8-1 1.1-1.5v-1.2000000000000002l-.9-1.6-.6-.9-1-1.5-.1-.2h-.2l-17.8-4.7M612.8 141.5v1.3l-1.2 1.5-.8.9-1.2 1.5M587 125.6c.7-.6 1.2 0 2.3.2l11.1 3 1.8.5M586.1 126.1l.7.1M592 120.2c-1.1.2-1.5 1.1-2.2 1.9l-1.8 2.1c-.8 1-1.2 1.1-1.2 2.1M633 127.4l-.3-.1h-.1M632.7 126.5c.4.9.9 1.6 1.4 2.4l2.8 4.5c.4.6 1.2 1.5 1.3 2.3v.7M608.8 101.3c1.8-.1 3.6 0 5.5.3M1049.4 245.7c-.4.1-.8.3-.9.6M1063.3 254.9l-.7.2M1057.7 261.3l.4.3.1-.1M1057.7 261.7l.4.3h.1M1057.3 262.9l-.3-.6M1050.5 264.2c-.4-.6-1.4-1-2.5-1s-2.1.4-2.4 1M1064 242.6c1.4-.5 2.5-1.1 3.3-1.7M1062.7 254.3c0-1.6-1.6-3-4-3.7M1062.6 255l.1-.7M1064.1 252.8c0-1.9-2-3.6-4.9-4.3M1063.3 254.9c.5-.7.8-1.4.8-2.1M1084.7 302.5l-.5-.3M1084.5 308.4c.4-.7.7-1.9.7-2.7"/>
    <path class="st1" d="M1085.9 304.7zM1084.5 309.6c.5.2 1.2-.8 1.6-2.2.3-1.4.2-2.6-.2-2.7"/>
    <path class="st1"
        d="M1086.7 304.1c-.6-.1-1.5 1.2-1.9 2.9-.4 1.8-.4 3.3.2 3.5.6.2 1.4-1.1 1.9-2.9.5-1.7.4-3.3-.2-3.5zM1096.5 294.2h-.2l-.4.1M1096.5 294.2c.7.3 1.4.2 1.7-.2M1088.9 297.5l.1.6M1087.8 295.6c.4.1.9-.4 1.1-1M1087.7 295.6c-.4-.1-1 .3-1.2 1"/>
    <path class="st1"
        d="M1087.8 295.6zM1093.7 309c-.6-.1-1.5 1.2-1.9 2.9-.4 1.8-.4 3.3.2 3.5.6.1 1.5-1.1 1.9-2.9.4-1.7.3-3.3-.2-3.5zM1091.4 313.3c.4-.8.7-1.9.7-2.7"/>
    <path class="st1"
        d="M1092.8 309.6zM1091.4 314.5c.5.1 1.2-.9 1.6-2.2.3-1.4.2-2.6-.2-2.7M1096.8 290.3c-.6-.2-1.4.3-2.2 1.3M1098.2 294c0-2.2-.5-3.5-1.4-3.7M1100.4 281c1.1.4 2.6-.3 3.9-1.7M1100 280.8c.4.4 1.5.2 2.6-.5l.7-.5M1095 276.7l.6-.1M1099.5 258.5c0-.3-.4-.5-.9-.6"/>
    <path class="st1"
        d="M1099.5 258.5zM1079.6 257.9c-2.5-.7-5.2-.7-7.5-.2M1058.8 260.4c-.4 0-.9.2-1 .5M1089 298l.9-.4"/>
    <path class="st1"
        d="M1095.8 291zM1096.7 292.2c-.2-.7-.6-1.1-1-1.2M1096.6 303.5c.7.3 1.3 0 1.6-.7M1097 303.4c.5.1 1-.2 1.3-.7M1096.5 303.2c-.2 0-.5.4-.6.9M1097.7 272.1c-.2 5.6 1.1 9 3.1 9.6 1.5.4 3.4-.8 5.1-3.1M1095.9 294.3c0-1.5-.4-2.6-.9-3M1088.2 297.4c-.4.1-.7.4-.9.8M1088.9 297.5l-.7-.1M1088.9 297.5l.6-.5M1099.5 257.7l-.5.3M1099.8 258.3l-.3-.5M1073 242.7c-1.4 3.4-.2 6.8 2.9 9.5M1054.1 266.8l-.1-.3-.2-.3M1050.6 263.8c0-.9-1.2-1.5-2.6-1.5-1.4 0-2.5.6-2.5 1.4l.5.9M1050.4 264.4l.2-.6M1047.3 261.3c-1.5.2-2.5 1-2.5 1.9 0 1 1.5 1.9 3.3 1.9 1.3 0 2.5-.5 3-1.1M1051.3 263.2c.1-1-1.3-1.8-3-1.9-.4-.1-.8 0-1.1 0M1050.4 264.4c.6-.3.9-.7.9-1.2M1058.3 262.1v-.6M1057.3 262.9c.6-.2.9-.5 1-.8M1058.9 261.1l-.6.4M1079.3 258.5c-2.4-.6-4.9-.6-7.1-.2M1040.7 265.9l-.4.6M1058.9 261.1l-.1-.7M1073.8 241.4l-.3-.4-.2-.1M1073.8 241.4c-1.3 1.5-1.8 3-1.8 4.5"/>
    <path class="st1" d="M1098.3 256.7l-.1-.2.1.2zM1098.1 257l.2-.4-.2.4zM1089.9 297.6l.2-.5"/>
    <path class="st1"
        d="M1089.8 297.7l.1-.1-.1.1zM1081.9 315.2l.4-.1.2-.2M1087.8 298.6l-.4-.4M1097.8 275.2c.2 2.5.8 4.3 1.5 5.2"/>
    <path class="st1"
        d="M1112.8 240.2zM1110.9 245c1.9-2.6 2.5-4.2 1.9-4.8M1077.4 253.3c2.4 1.3 5.2 2.2 8.2 2.7M1063.1 253.6c0-1.7-1.8-3.2-4.3-3.9M1063.1 254.2v-.6M1063.1 253.8c-.1-1.7-1.8-3.1-4.3-3.8M1042.7 251.1c0-.8-1.2-1.4-2.6-1.4-1.4 0-2.5.6-2.5 1.4l.5 1M1042.1 252.1l.5-1M1042.5 251.6c-.3-.6-1.3-1-2.4-1s-2.1.4-2.4 1M1059.2 248.4c-.2.3-.4 1.1-.3 1.6"/>
    <path class="st1"
        d="M1043.3 250.6c0-1-1.5-1.9-3.3-1.9s-3.3.8-3.3 1.9c0 1 1.4 1.9 3.3 1.9 1.8 0 3.3-.9 3.3-1.9zM1061 261.8h-.2c-.6.2-1.1.7-1 1.1M1079.3 259.6c-2.4-.6-4.9-.7-7.1-.1M1098.7 279.1c.9 1.3 2.2 1.6 3.6 1.1"/>
    <path class="st1"
        d="M1098.4 257.1l-.3-.1.3.1zM1098.6 257.9l-.1-.7M1074.3 251c1.2 1.2 2.7 2.2 4.4 3M1076.9 237.8c-3.6 2.1-5.4 4.9-5.4 7.6 0 5.8 7.6 10.5 17.5 11M1090.3 256.5c2.3.2 4.6.2 6.7 0M1098.8 257l-.4-.5M1118.8 257c.1-2.8-.3-5.6-1.1-8M1117.6 248.8c-2.1-6.4-6.8-11.8-12.5-14.6M1101.1 232.5c-1.3-.4-2.7-.7-4-.8M1104.8 234c-1.2-.6-2.5-1.1-3.7-1.5M1062.8 243c2.5-.6 4.5-1.6 5.5-3M1049.5 245.8c-.4.2-.9.7-.9 1.1"/>
    <path class="st1"
        d="M1048.8 247.2l-.1-.3.1.3zM1047.7 247.7c.6 0 1.1-.2 1.1-.5M1058.5 263.8c.4-.1.9-.3 1.1-.6M1047.7 247.7v-.1M1057.3 262.9v1.2M1042.4 251.9v-.1M1047.7 247.7l10.9 3M1042.4 251.8l.6-.4M1063.3 254.9l-4.5 5.5M1075.1 231.4l8.2 2.2M1099.6 280.5l-.3-.3M1100.2 281l.5.1M1084.2 302.1l-1.3-.4M1087.8 298.6l.5-.7M1089.5 292.5l-2.8 3.6M1090.3 321l-8.4-5.8M1090.8 320.6l-8.2-5.6M1089.2 293.7l-1.5 1.9M1088.9 294.6l.8-2.3M1095.5 291h.1M1095.3 291.1l.2-.1M1098.2 294v8.7M1090.1 297.1l4.6-5.5M1093.7 276.4l1.3.3M1079.6 257.9l14.7 3.9M1058.8 260.4l13.2-2.7M1096.5 303.2l.5.2M1054.1 268v-1.2M1050.4 264.4v.1M1072.2 258.3l-13.3 2.8M1094.6 262.5l-15.3-4M1040.3 267.6v-1.1M1072 246v-.1M1094.3 261.8l3.8-4.8M1080.7 314.9l1.2.3M1086.1 297.8l1.3.3M1085.5 255.9l3.5.5M1072.2 259.5l-11.2 2.3M1093.7 263.5l-14.4-3.9M1098.4 256.4l-1.4.1M1117.6 248.8l.1.3M1104.8 234l.3.1M1068.3 240l6.9-8.5M1049.5 245.8l13.3-2.8M1060.6 261.9l-1.1 1.3M1074.2 250.8c-.6-.7-1.1-1.3-1.5-2.2M1072.2 259.5c0-.6.1-1.2-.1-1.8M1072.8 248.9c-.5-1-.3-.5-.6-1.6M1045.1 262.4c.9 1 .7.4.7 1.7M1064.1 242.6l-3.2.7-9.7 1.9-1.8.4h-.1M1037.1 249.8c.9.9.6.4.6 1.7M1048.3 247.2l-.4.3"/>
    <path class="st1"
        d="M1048.4 247.1l-.2.2.2-.2zM1068.3 240h-.2l-.2.2M1062.8 254.7c.2-.4.1-.2.3-.7M1049.3 245.7h.1l1.8.5 6.2 1.7 1.8.5M1074.7 251.3l-.6-.5M1096.1 303.8l.2-.2M1087.2 305.6l-.9.2-1-.2M1082.6 309.2h-.3c-.6-.1-1.1-.2-1.6-.4"/>
    <path class="st1"
        d="M1094.6 291.9l.1-.3-.1.3zM1094.9 291.6c-1.7 1.9-3.3 4-4.9 6M1080.7 314.9v-6.1l.6-1.8 1.1-3.5.5-1.8 1.2-1.4.8-1 1.2-1.5.4-1.2M1095.6 291c.8.8.9 2.1.9 3.2v9.2l.1.2M1095.3 291.1l-.5.5M1092.3 310.4c1.3.4.6.4 1.9.1M1089.5 297l.6.2M1099.5 257.7l-.7-.1M1079.3 259.6c0-.6-.1-1.3.2-1.8M1098.8 256.8c0 .8-.9 1.6-1.3 2.1l-1.8 2.2-1.1 1.4M1100 280.8l-.4-.2-.1-.1M1092.5 283.2c.6.1 1.3.3 1.8.5M1089 298l-.5-.1v-.6M1096.7 292.2c.3 1.3.2 2.6.2 4v7.300000000000001l.1.2"/>
    <path class="st1"
        d="M1096.6 303.5l-.3.1.3-.1zM1105 283.9c-1.4 2.1-2.2 4.2-2.9 6.5l-3.3 10.6-.6 1.7M1098.2 302.7l.6-1.8 3.4-10.6c.8-2.5 1.6-4.9 3.2-7M1094.6 262.9c0-.4-.1-.7-.3-1.1M1097.7 272.1c.1-1.6.3-3.3.5-4.9M1090.7 320.9c.6-.9 1.3-1.7 1.9-2.5l1.2-1.5.5-1.8 1-3.1.6-1.8v-16M1080.7 314.9l1.5 1.1 5.3 3.7c.7.4 1.9 1.6 3 1.4h.2l1.2-1.5.8-1c1.5-1.9 1-.8 1.7-3.2l1.1-3.4.6-1.8v-6.199999999999999M1087.4 298.1l-1.2 1.5-.8 1-1.2 1.5-.6 1.7-1.1 3.6-.6 1.7v6.1M1099 258l-1.2 1.5-1.8 2.2-1.1 1.5v11.8c0 1.2 0 2.3-.1 3.4-.2 2.1-.8 4.1-1.4 6.1l-3.4 10.7-.6 1.8M1097.9 269.6c.2-2 .4-4.1.8-6.2.3-1.7.7-3.4 1.1-5.2M1094.6 262.9l1 .4M1072.1 247.4c-.1-.6-.2-1-.2-1.6M1050.1 264.7l.3-.3M1030.8 251.2l.4-.2M1057.3 262.9l-1.2 1.5-.8 1-1.2 1.4-1.9.4-3.3.7-1.9.5-1.7-.5-3.2-.9-1.8-.5-1-1.6-7.5-11.9-1.1-1.6M1067.2 240.9c.7-.7 1.2-1.4 1.9-2.2l4.8-5.8 1.1-1.5.2.1c2.6.8 5.3 1.5 7.9 2.1M1072 245.9c.1-.7.1-.9.3-1.6.7-2.4 2.4-4.3 4.1-5.9M1105 284c1.9-2.6 4-5.2 6.1-7.7 1.4-1.8 1.2-.9 1.2-2.8M1090.1 297.1l.6-1.8 3.4-10.7c.7-2.2 1.3-4.4 1.5-6.7v-14.799999999999999l1.2-1.5 1.5-1.9 1.2-1.5.3-.2M1082.6 315v-5.8l.6-1.8 1-3.2.6-1.8 1.2-1.4.8-1 1.1-1.5.3-.5M1110.9 245c-3.6 4.7-7.8 8.6-12.1 12.6M1048.5 246.6l.2.3 1.8.4 6.6 1.8 1.8.5M1090.3 256.5c-3.7-4.6-7.3-9.2-10.4-14.2-.8-1.2-1.6-2.5-2.1-3.9-.1-.4-.4-.9-.1-1.3M1048.6 246.3l-.1.4v.4l.2.2 1.8.5 6.6 1.7 1.8.5"/>
    <path class="st1"
        d="M1040.9 245.9zM1062.8 254.7l-.2.4-1.2 1.4-2.4 2.9-1.1 1.5-.2.5-.1.5-.4.4-.2.1-1.2 1.5-.8 1-1.2 1.4-1.8.4-3.1.6-1.8.4-1.8-.5-2.8-.8-1.8-.5-1-1.6-7.4-11.7-1-1.6"/>
    <path class="st1" d="M1034.3 247.3l-.2-.1.2.1zM1058.9 250l-.2.7M1047 269.5c0-.7 0-1.2.1-1.8"/>
    <path class="st1"
        d="M1059.7 262.9l-.2.3.2-.3zM1109.9 275.8c-2.3 2-4.9 3.4-7.6 4.5M1090.3 256.5l-1.3-.1M1094.6 262.9l1.1-1.4 1.8-2.2 1.1-1.5.2-.2v-.6M1118.8 257c0 4.1-1.2 8-3.1 11.6-.6 1.3-1.5 2.5-2.4 3.7-.9 1.1-1.8 2.1-2.9 3.1l-1 .7c-.4-.1-.9-.3-1.3-.6-.8-.6-1.5-1.2-2.2-1.8-2.7-2.4-5.1-5.1-7.5-7.6M1075.8 238.8c.6-.6 1.2-1.3 1.9-1.8 1.2-.9 2.4-1.8 3.7-2.5 4.7-2.7 10.3-3.7 15.6-2.9M1031.3 251l1.1-1.5.7-.8 1.2-1.4 1.8-.4 3-.7 1.8-.3 1.8.4 3.1.9 1.9.5M1058.5 263.8l-1.2.3-1.2 1.4-.8 1-1.2 1.5-1.9.4-3.4.7-1.8.4-1.8-.5-3.1-.9-1.8-.5-1-1.5-7.5-12-1-1.6c-.4-1.2.5-1.9 1.2-2.7l.9-1c1.5-1.9.5-1.3 3-1.8l3.4-.7 1.8-.4 1.8.5 3.1.8 1.8.5h.2M337 537l-.1-.5"/>
    <path class="st1"
        d="M336.9 537zM324.1 519.7h.2l.4-.1M316.4 502.3c-.2.2-.2.6-.2 1M315.5 502.5l.7.4M320.7 535.7c-.6.7-1 1.8-1 2.9M318.3 547.6c.4.5.9.6 1.3.4M309.3 537.1c-1.5-1.8-3.4-3.1-5.4-3.7M287.7 528.2l.4.5M302.6 528c6.1 1.6 11.4.1 14.4-3.5M304.4 528.1c5.6 1 10.5-.7 13.1-4.3M335.5 533.9c.5.6 1.1.8 1.3.5M341 542.2c-.3.9.1 2 1 2.7 1 .8 2.2.9 2.9.4M326.1 551.6c-.3.9.1 2 1 2.8.9.7 2.1.9 2.9.4"/>
    <path class="st1"
        d="M320 547.5zM320.6 548.1c-.2-.4-.4-.7-.6-.6M318.5 547.6c.7.4 1.3.4 1.5-.1M309.4 537c-1.8-2-4-3.4-6.3-4M316.7 524.8c.9-1 1.5-2.2 1.9-3.3M315.8 504.1l-.8.1M337.5 482.6c-.4.5-.6 1.1-.7 1.6M321.9 499c1.5-9.5-.9-16.8-5.9-19.1M315.7 501.8l.7.4M337.5 482.2c-.5.7-.7 1.3-.7 2M342.2 476.8c.1.1.4.1.9 0M342.2 476.3c0-.3-.4-.6-.9-.7h-.1M320.4 478.2c2.4.7 5.1.7 7.5.2M320.6 478.1c2.4.7 5 .7 7.3.2M342.2 475.9c-.2-.3-.6-.4-1.1-.3"/>
    <path class="st1"
        d="M342.3 476.2l-.1-.3.1.3zM324.8 519.6c0 2.1.9 4.2 2.5 6M336.3 536.2l.6.3M337.2 536.1M338.1 536.5c-.4-.3-.7-.5-.9-.3M316 503.5h-.9M354.3 477c-.3-.7-1.3-1-2.4-1-1.1 0-2 .4-2.4 1M338.6 486.6c.7.4 1.5.7 2.4 1M362.3 489.6c-.3-.6-1.3-1-2.4-1s-1.9.3-2.3.9M366.1 492.4l-.1-.3-.2-.3M336.6 481.2c-.5.7-.7 1.4-.7 2 0 1.9 1.9 3.6 4.8 4.5M362.4 489.1c0-.8-1.2-1.5-2.5-1.5-1.4 0-2.6.6-2.6 1.5l.6.9M361.9 490l.6-.9M337.5 482.6l.2.4.3.1M337.5 482c-.1-.4-.4-.7-.9-.8M337.5 482.6v-.6"/>
    <path class="st1"
        d="M350.8 490.2l-.3.1.3-.1zM351.5 491.4v-.4c0-.4-.4-.8-.8-.8M337.2 493.1c-2.6.6-4.5 1.6-5.5 2.9M354.5 476.5c0-.8-1.1-1.5-2.6-1.5-1.3 0-2.5.7-2.5 1.5l.6.9M353.9 477.4l.5-.9"/>
    <path class="st1"
        d="M363.1 488.6c0-1-1.5-1.9-3.3-1.9s-3.3.9-3.3 1.9 1.5 1.9 3.3 1.9c1.9-.1 3.3-.9 3.3-1.9zM351.2 491.5c0 .4.4.6 1 .6M351.2 491l-.6-.1M351.2 491.5v-.5M337.3 493.7c-2.4.6-4.2 1.6-5.2 2.8"/>
    <path class="st1"
        d="M325 505.3zM324.1 506.4h.1c.5-.4.9-.9.7-1M328 490.9c0-3.3-2.7-6.3-6.9-8.3M327.6 493.2c.3-.7.4-1.6.4-2.3M324.1 519.7c0 2.2 1 4.5 2.7 6.4"/>
    <path class="st1" d="M337.2 536.5l-.1-.2.1.2zM335.8 536.6c.1.3.4.6.8.6.4-.1.7-.4.6-.7"/>
    <path class="st1"
        d="M344.7 545.7c.7-.8.3-2.2-.8-3.1-1-.9-2.5-1-3.2-.1-.6.8-.3 2.2.8 3.1 1.2.8 2.6.9 3.2.1zM323.1 534.3c-1.7.6-2.6 2.1-2.6 3.9M326.1 534c-2.7-.7-5.2 0-6.5 1.6-.7.9-1.1 2.1-1.1 3.3"/>
    <path class="st1"
        d="M329.8 555.1c.7-.7.3-2.2-.7-3-1.1-.9-2.5-.9-3.3-.2-.6.8-.2 2.2.9 3.1 1 .9 2.5.9 3.1.1zM317 523.5c.9-1.2 1.6-2.4 2.1-3.7M304.4 528.1c5.5.5 9.9-1.3 12.6-4.6M338 534.8l-.8-.6"/>
    <path class="st1"
        d="M330 555.9c.9-1 .4-2.8-1-3.9s-3.3-1.2-4.1-.1c-.8 1-.4 2.8 1.1 3.9 1.4 1.1 3.2 1.2 4 .1zM320.9 535.5c-.6.7-1 1.8-.9 2.8"/>
    <path class="st1"
        d="M345 546.5c.9-1 .4-2.8-1-3.9-1.5-1.2-3.3-1.2-4-.2-.9 1.1-.4 2.8 1 4 1.3 1.1 3.2 1.1 4 .1zM320.6 538.2h-.2l-.4.1M318.5 538.9c.4 0 .9 0 1.2-.2M319.1 519.5c.2-1.4.2-3-.1-4.3M332.1 496.5l-.3-.4-.2-.1"/>
    <path class="st1"
        d="M355.2 475.9c0-1.1-1.5-1.9-3.3-1.9s-3.2.8-3.2 1.9c0 1 1.4 1.9 3.2 1.9s3.3-.8 3.3-1.9zM369.2 488.4l-.5-.3M349.8 493.1l.6.4M349.8 492.9c-.1-.4-.6-.5-1.2-.4"/>
    <path class="st1"
        d="M349.8 493.1v-.2.2zM337.3 494.9c-2.4.5-4.2 1.5-5.2 2.8M328 491.3c0-2.9-2.2-5.6-5.6-7.6M304.9 474.5l-.4.2"/>
    <path class="st1"
        d="M305.1 474.6l-.2-.1.2.1zM292.7 481.8c-7.6 4.9-7.7 18.2-.3 30 5.8 9.1 14.5 14.6 21.8 14.3M318 522c.4-.6.8-1.4 1-2.1M314.2 526c1.7-1.1 3-2.5 3.8-4M317.1 525c2.8-3.4 3.1-8.2 1.3-13M297.1 526.4c7.7 4.3 15.9 3.6 20-1.4M327.4 492.8c.5-3.8-2.5-7.8-8-11.2M304.5 477.9c-3.7.1-7.7 1.5-10.6 3.1-6.2 3.5-10.7 9.6-12.2 16.3-1 4.2-.8 9 .4 12.8 1.5 5.1 4.5 9.4 8.3 12.4M296.7 526.3c6.7 2.8 16-3.9 21.5-15.4-.5-2-1.4-4-2.5-5.6M316 503.2l-.7.2-.3.7"/>
    <path class="st1"
        d="M316 503.3zM328.4 490.6c0-4.2-4.1-7.8-10.3-9.7M322.8 498.4c3.8-2.2 5.6-5 5.6-7.9M315.7 501.8c2.7-.8 5-1.9 6.7-3.1M315.7 501.8l-.3.6v.1M350.3 493.5l.7-.1M338 483.1c-.6.7-.8 1.6-.6 2.4M337 536.9l.8.2M303.3 533.1l-15.1-4M318.5 547.6h-.2M309.3 537.1l.1-.1M324.8 519.6l.6-.7M305.7 474.3l-3.2 3.8M320.6 478.2h-.2M354.2 477.1l.7-.4M354.2 477.1v.2M324.9 505.3l-8.7-2.4M331.5 561.2l17.7-11.2M325 559.6l.1-.1M320.6 554.2l-.3-.1M319.6 548l.3-.4M309.3 537.1l9 10.5M335.5 533.9l-1.9-2.2M309.4 537l9.1 10.6M288.4 529l14.8 3.9M315.8 504.1l8.3 2.3M324.7 504.5l-8.3-2.2M336.9 484.7l.2.3M368.7 488.1l-9.4-14.9M342.2 476.3v.5M327.9 478.4l13.3-2.8M341.1 475.6l-13.3 2.7M342.3 476.7v-.5M324.8 519.6v-13.7M336.3 536.2l-9-10.6M337.2 536.1l-.3.4M316 503.5l8.8 2.4M362.2 489.7v.2M362.2 489.7l.6-.3M341 487.5l9.9 2.7M366.1 492.4v1.2M340.7 487.7l9.8 2.6M341.2 475.6l-4.6 5.6M337.2 493.1l13.3-2.8M324.7 504.5l6.9-8.5M346 472.8l6.9-1.4M337.3 493.7l13.3-2.8M324.9 505.3l7.2-8.8M305 474.5l-3 3.7M321.1 482.6h-.2M324.1 519.7v-13.3M335.8 536.6l-9-10.6M318.5 538.9v8.7M335.8 536.6l-9.7-2.6M337.2 534.2l-1.7-.4M319.7 538.6l.3-.3M319 514.5l.1.6M332.1 496.5v1.1M337.3 494.9l11.3-2.4M352.9 471.4l6.5 1.7M301.7 478.3l2.8-3.6M314.9 504.1l.8 1.2M324.9 505.6l-8.9-2.3M322.4 498.7l.4-.3M350.3 493.5l-2.8-.8M349.8 493l-1.6-.4M336.3 536.2l-.5.4"/>
    <path class="st1"
        d="M288.2 521.1l.3.3-.3-.3zM288.6 520.9c-.4.7-.2 1.6-.2 2.4v5.6M288.3 520.6c-.3.6-.1 1.9-.1 2.4v6M303.9 533.4l-.6-.3-.1-.2M319.8 547.7l.3.2M326.2 534.5l-.1-.4M323.2 534.2h1.8M323.2 534.2c-.5.2-.9.3-1.4.6M324.9 534.2c1.1.1 2.1.4 3.1.7l6.5 1.8 1.8.4M318.4 522c.4-1 .7-1.9.8-3M316.2 503.3l-.4.9M350.6 490.9l-.1-.6"/>
    <path class="st1"
        d="M351.5 491.3l-.3.3.3-.3zM336.9 484.7c-.1-.4-.1-.1-.1-.7M337.1 484.9c.3.6.1.3.5.7M349 475.1c.8 1 .6.4.6 1.7M319.7 538.5v9.200000000000001l-.1.2M287.7 520.5l.5.3M288 528.7v-6.1c0-.7-.1-1.5 0-2.3M287.7 520c-.1.8 0 1.5 0 2.3v5.8M302.6 528l-.9-.3M302.3 528.6l.2-.6"/>
    <path class="st1"
        d="M288.2 529.1l.3-.1-.3.1zM337.2 534.2h-.1l-.3.1M327.8 524.8c-.4.5-.6.9-1 1.2M342.4 547.1c.4-1.1.1-.6.8-1.5M328.3 555c-.7.9-.4.3-.7 1.6M321.8 534.7c-.4.3-.8.6-1.2 1M344.7 539c.3-.5.6-.9.9-1.3M350.4 543.3c-.4.5-.6.9-1.2 1M349.7 550.1h-.1l-.4-.1M320 547.8l.6.3M337.8 537.1c.3-.4.6-.8 1-1.2M342.2 476.6v.2l-1.1 1.4-2.4 3-1.2 1.4M327.6 493.1c-.5 1-.2.6-.8 1.5M324.9 505.3l-.2-.8"/>
    <path class="st1" d="M340.7 487.7l.3-.1-.3.1zM359 493.2v1.8"/>
    <path class="st1"
        d="M351.2 491.2l.3-.3-.3.3zM352.3 491.4l-.8-.1M352.3 493.2v-1.8M342.3 476.2l-.1.1-1.1 1.5-2.4 2.9-1.2 1.5M343.1 476.8h-.5l-.3-.1M322.8 498.4c1-.8 2-1.5 2.9-2.5M305.6 474.1v.1l1.8.5 11.2 3 1.8.5M320.6 478.1l-15-4-3.4 4.1M326.2 495.4l.1-.1.5-.7M326.7 495.2h-.30000000000000004l-.7.8M349.8 550.1v-6.1l-1.2-1.4-2.4-2.8-1.2-1.4-1.8-.5-3.1-.8-1.8-.5-.2-.1M337.5 485.6c.3.4.8.6 1.2 1M356.9 487.8c.7.8.7.5.7 1.7l-.1.1M337.3 494.9c0-.6.1-1.2-.1-1.8"/>
    <path class="st1"
        d="M352.9 471.5zM352.3 492.1l1.8.5 3.1.9 1.8.4 1.9-.4 3.3-.7 1.9-.4 1.2-1.5.7-.9 1.2-1.5M320.6 538.2v16l1.2 1.4 2.1 2.5 1.2 1.4 1.7.5 2.9.7 1.8.5"/>
    <path class="st1"
        d="M331.7 561.4l-.2-.3.2.3zM349.2 550v-5.8l-1.2-1.5-2.1-2.4-1.2-1.4-1.8-.5-3.2-.9-1.8-.5-.2-.1-.5-.2M297 526.4c2.4 1 4.9 1.5 7.5 1.7M320.3 548v6.1l1.2 1.4 2.4 2.7c1.6 1.9.6 1.3 3 1.9l3.1.8 1.8.5h.1l1.6-1 14.7-9.4c.3-.1 2.1-1.1 2.2-1.8v-6l-1.2-1.4-2.4-2.8-1.3-1.4-1.8-.5-3.1-.9-1.8-.4-.9-1M320 538.3v9.200000000000001l-.1.1M325.4 506.6c0-1.3-.1-.6 1.2-2.1l4.3-5.4 1.2-1.4M351.5 491.2l1.8.5 4 1 1.7.5 1.9-.3 3-.7 1.8-.4 1.1-1.5.8-.7 1.1-1.5M342.8 476.7l1.2-1.5.8-1 1.2-1.4h.3M319.2 515.6c-.3-1.5-.6-3.2-1-4.7M327.4 492.8v.5l-.1.4M304.5 477.9c1.9-.1 3.8-.1 5.7.3 3.3.5 6.4 1.7 9.2 3.4M296.7 526.3c-1.1-.5-1.7-.7-2.7-1.3-1.2-.7-2.4-1.5-3.5-2.4M315.7 503.1l-.2-.6M338 483.1l1.1-1.5 5.9-7.4 1.2-1.4 1.8-.4 3-.6 1.8-.4 1.8.5 2.8.7 1.8.5h.3l.9 1.6 7.7 12.1c.4.6 1.5 1.8 1 2.8l-1.2 1.5-.8 1-1.2 1.5-1.8.4-3.3.7-1.9.4-6.7-1.8-1.2.3M1026.5 795.6c.2-.3.3-.7.3-1.2M1049.3 767.2c.2-.3.3-.7.3-1.1"/>
    <path class="st1"
        d="M1022.9 797.1c-.3-.1-.7.5-1 1.4-.2.9-.2 1.6.1 1.7.3.1.8-.6 1-1.5.2-.8.2-1.6-.1-1.6zM1034.4 806.5l.2.6M1023 823.1c.5.2 1 .3 1.5.1M1023 821.8l.9.3M1049.4 769.9c1.6.4 3.6 0 4.3-1"/>
    <path class="st1"
        d="M1054.4 758c-.3-.1-.7.6-1 1.4-.2.9-.2 1.6.1 1.7.3 0 .7-.6 1-1.4.2-.8.2-1.6-.1-1.7zM1053.9 754c-1.6-.4-3.4.8-5.2 3.1"/>
    <path class="st1"
        d="M1056.4 790.6c-.3-.1-.7.6-.9 1.4-.2.9-.2 1.6.1 1.8.3.1.7-.6 1-1.4.1-.9 0-1.7-.2-1.8zM1052.2 764.7c-.8-.2-1.6.3-2.5 1.4M1053.8 768.9c0-2.5-.6-4-1.6-4.3M1025.3 796.8l-1.3 3.1"/>
    <path class="st1"
        d="M1038.7 774.5c-.3-.1-.7.6-1 1.4-.2.9-.2 1.6.1 1.7.3.1.7-.5 1-1.4.2-.9.2-1.6-.1-1.7zM1020.9 834.5c-.3-.1-.7.6-1 1.4-.2.9-.2 1.6.1 1.8.3.1.7-.6 1-1.5s.2-1.7-.1-1.7zM1043.3 801.7c-1.1-.3-2.3-.1-2.8.6M1049.4 803.4c1.6.4 3.6 0 4.3-1M1055 754.3c-1.6-.4-3.5.7-5.4 3.1M1058.3 763.4c0-5.4-1.2-8.5-3.3-9.1M1055.8 791.1l.8.2M1054.6 758.7l-.8-.2M1022.3 797.5l.8.2M1033.1 788l1.3.3M1026.8 785.7l-1-.3M1023.9 822.1l.6 1.1M1018.1 813.1l-1-.2M1026.9 820.3l-2.4 2.9M1034.4 788.3l-10.7 13.3M1023.9 822.1l2.1-2.7M1040.5 778.1v24.2M1024.9 798.2l8.2-10.2M1049.4 769.9l-1.8-.6M1043.3 801.7v-27.1M1048.6 757.1l1 .3M1053.9 754l1 .3M1053.8 768.9v33.5M1021.1 835.2l-.8-.3M1017.1 846.3l1 .3M1023 824.1l.6-.8M1040.5 802.3l-4.1 5.1M1049.4 803.4l-6.1-1.7M1038.9 775.2l-.9-.2M1049.1 767.4l.6-.5M1025.5 796.9c.6-1 1.3-1.9 2.1-2.8l20.5-25.4 1.2-1.5M1022.7 807.5l.3-.6M1049.4 803.4v-31.7c0-1.3.2-2.9-.4-4.2M1017.1 827.3v-13.8c0-1.5 0-2.9.1-4.2.4-4.3 1.4-8.7 2.8-12.8 1-3.1 2.4-6 4-8.8.9-1.3 1.9-2.6 2.8-3.8l20.5-25.4 1.2-1.4M1025.3 796.8c.3-.6.7-1.3 1.1-1.9l.4-.5 1.2-1.4 20.5-25.4 1.2-1.4M1022.7 841v-31.599999999999998c0-1.2 0-2.3.1-3.4.1-2 .6-4 1.2-6M1023 820.6l1.1-1.4 9.1-11.3 1.2-1.4v-18.2M1025.7 796.7c-1.4 2.6-2.2 5.4-2.6 8.2-.2 1.2-.1 2.4-.1 3.6v31.599999999999998l-.1.4c-.2.6-1.3 1.7-1.4 1.9l-2.2 2.7-1.2 1.4M1058.3 763.4v33.5l-1.2 1.4-2.1 2.7-1.2 1.4M1018.1 846.6v-32.699999999999996c0-5.4.9-10.6 2.5-15.8 1-3.1 2.2-6.2 3.9-9.1 1-1.7 2.2-3.2 3.5-4.8l20.5-25.3 1.2-1.5M1057.4 671.4c.4-.7.7-1.8.7-2.5M1018 720.2c.4-.7.7-1.8.7-2.6M1037.8 699.3c.3-.8.7-1.8.7-2.6M1016.4 716.3c-.5 1-.9 2.1-1.3 3M1027.7 712.7c1-.6 2-2.5 2.6-4.7.3-1.3.4-2.5.4-3.4"/>
    <path class="st1"
        d="M1039.3 695.9c-.4-.1-1 .8-1.4 2.1-.3 1.3-.2 2.4.2 2.5s1-.8 1.3-2c.4-1.4.3-2.5-.1-2.6zM1059 668c-.4-.1-1.1.8-1.3 2.1-.3 1.2-.3 2.4.1 2.5.4.1 1-.8 1.4-2.1.3-1.3.2-2.4-.2-2.5zM1061.6 660.9c-.5 0-1.1.4-1.6 1M1045.4 688.3c0 1.4.3 2.3.9 2.4 1 .3 2.5-1.9 3.3-4.9.3-1.3.5-2.5.5-3.4M1027.3 710.7c0 1.5.3 2.3.9 2.4 1 .3 2.5-1.9 3.3-4.9.3-1.2.6-2.4.6-3.4M1045.7 690.2c1-.6 2.1-2.4 2.6-4.7.3-1.3.5-2.5.5-3.5M1060.7 660.6c-.4-.1-1 .1-1.6.6"/>
    <path class="st1"
        d="M1062 661zM1063.5 665.1c0-2.4-.6-3.9-1.5-4.1M1058.5 685.3c.9-1.2 1.2-2.7 1.1-4M1014.6 738.7c.9-.4 1.6-1 2.2-1.7"/>
    <path class="st1"
        d="M1019.6 716.8c-.4-.1-1 .8-1.4 2.1-.3 1.2-.2 2.3.2 2.4.4.1 1-.8 1.3-2.1.4-1.2.4-2.3-.1-2.4zM1059.4 669.1l-1.2-.4M1050.1 674.1l-1.2-.4M1013.9 737.9l4-4.8M1013.9 726.5l-1.2-.3M1013.9 737.9l-1.2-.3M1018.8 717.5l1.2.3M1017.9 714.1l-1.3-.4M1027.3 702.4l-1.3-.4M1030.7 704.5l1.3.4M1038.4 696.6l1.3.4M1030.7 696.1l1.3.4M1045.4 679.9l-1.3-.3M1017.9 733.1v1.4M1048.9 682.1l1.2.3M1059.6 662.4l-1.3-.4M1061.6 660.9l.3.1M1045.4 679.9v8.4M1027.3 710.7v-8.3M1061.9 661l-1.2-.4M1016.8 736.9l41.7-51.6M1016.4 716.3c.7-1.4 1.6-2.4 2.5-3.7l7.1-8.8 1.2-1.4M1013.9 737.9v-9.5c0-1.3 0-2.7.2-4.1.2-1.7.6-3.4 1.1-5M1044.1 679.6l-1.1 1.4-11.1 13.7-1.2 1.4v8.4M1012.7 737.6v-9.6c0-1.1-.1-2.2 0-3.4.3-3 1.1-6 2.5-8.7.7-1.4 1.6-2.5 2.6-3.7l7.1-8.8 1.2-1.4M1016.3 735c-.3.8-.7 1.3-1.4 1.9M1059.6 682.8l-1.2 1.4-39.4 48.8-1.1 1.4-.2.7c-.2.6-.5 1.2-.9 1.7M1050.1 682.4v-8.3l1.2-1.5 7.1-8.8 1.2-1.4.4-.5M1045.4 679.9l-1.2 1.4-11 13.7-1.2 1.5v8.4M1059 661.2l-1.9 2.2-7.1 8.8-1.1 1.4v8.4M1059.6 681.3l1.1-1.4 1.7-2 1.1-1.4v-11.4M1009.6 731.4c.3-.6.4-1.2.5-1.9"/>
    <path class="st1"
        d="M1011.1 728.3c-.4-.1-1.1.8-1.4 2.1-.4 1.2-.3 2.4.1 2.5.4.1 1.1-.8 1.4-2 .4-1.4.3-2.5-.1-2.6zM1009.7 794c.2-.5.3-1.1.4-1.6M1008.5 764c.2-.5.3-1.1.4-1.5"/>
    <path class="st1"
        d="M1011.1 791.1c-.4-.1-1.1.8-1.4 2.1-.4 1.2-.3 2.3.1 2.4.4.2 1.1-.7 1.4-2 .4-1.3.3-2.4-.1-2.5zM1045.5 752.6c0 .7.1 1.2.4 1.2.4.1 1-.8 1.3-2 .2-.6.2-1.2.2-1.6M1027.4 775c-.1.7.1 1.2.3 1.3.4.1 1-.8 1.3-2.1.2-.6.3-1.2.3-1.6"/>
    <path class="st1"
        d="M1009.8 761.2c-.4-.1-1 .7-1.3 2-.3 1.2-.2 2.3.1 2.4.4.1 1.1-.8 1.4-2.1.4-1.1.3-2.2-.2-2.3zM1012.7 784.8c0 .7.2 1.1.4 1.2l.7-.4M1057.7 670.9c.2-.6.3-1.1.4-1.6M1063.7 664.4c.2-.6.3-1 .4-1.6M1065 661.6c-.4-.1-1 .7-1.3 2.1l-.2.6M1063.5 665.7l.2.3c.4.1 1.1-.7 1.4-2 .3-1.2.2-2.3-.2-2.4M1064.9 694.3c.2-.5.3-1.1.4-1.5M1045.6 684c.3-.6.4-1.2.6-1.8"/>
    <path class="st1"
        d="M1066.2 691.5c-.4-.1-1 .8-1.3 2-.3 1.3-.3 2.4.1 2.5.4.1 1.1-.8 1.4-2.1.3-1.3.3-2.3-.2-2.4zM1047.1 680.9c-.4-.1-1 .8-1.4 2.1-.3 1.2-.3 2.4.2 2.5.4.1 1-.8 1.3-2.1.4-1.3.3-2.4-.1-2.5zM1029 703.3c-.4-.1-1 .8-1.4 2-.3 1.3-.2 2.4.2 2.5.4.1 1-.8 1.3-2.1.4-1.2.3-2.3-.1-2.4zM1018.3 719.7c.2-.5.3-1.1.4-1.6M1037.9 699c.2-.5.4-1.2.5-1.8M1065.4 725.4c0-.4-.1-.9-.3-1M1051.3 722.6c.3-.2.4-.7.5-1.1.1-.4.2-.8.2-1.1M1065 655.7c-1 .2-2.2.9-3.3 2.1M1005.9 793.1c0 4.7 1.1 7.5 2.8 8.2M1064.7 655.5c-1.1-.3-2.3.2-3.5 1.3"/>
    <path class="st1"
        d="M1064.9 655.6l-.2-.1.2.1zM1068.9 664.1c0-4.6-1-7.5-2.8-8.2M1008.8 801.2c1.1.4 2.4 0 3.7-1.2M1004.7 792.7c0 4.7 1 7.5 2.8 8.2M1027.5 706.4c.2-.6.4-1.2.5-1.9M1011.5 729.3l-1.2-.3M1009.6 731.4l-.1.2M1005.9 742.1l-1.2-.4M1004.7 792.7l1.2.4M1011.5 792.2l-1.2-.4M1012.7 785.3l1.1.3M1012.7 785.1l6.9-8.6M1012.7 785.1l6.9-8.6M1027.4 775.2h-.2M1010.3 762.2l-1.2-.3M1012.7 771.2l.9-1.2M1012.7 770.6l.8-1M1029.2 772.8h.2M1045.4 752.8h.1M1047.3 750.3l.2.1M1013.8 785.6l7-8.6M1012.5 716.7l1.3.4M1045.5 684.3h-.1M1065.4 662.5l-1.3-.2M1063.7 664.4l-.2.3M1061 693.4v-13.7M1066.6 692.5l-1.2-.3M1046.3 681.6l1.2.3M1045.6 684l-.1.2M1028.2 704l1.2.3M1037.9 699l-.1.3M1061 679.7v13.7M1052 720.4v-27.1M1018.7 763.2l32.6-40.6M1062.3 678.1v22.1M1059.8 658.2l1.3.4M1066.2 655.9l-1.3-.3M1007.5 800.9l1.3.3M1027.5 706.4l-.1.2M1027.4 706.8l-.1-.1M1010.2 729.1l-.1.4M1010.1 792.4l.1-.5M1009.5 794.5l.2-.5M1009 762.5v-.5M1008.3 764.6l.2-.6M1027.5 774.8l-.1.3M1045.5 752.7l.2-.3M1012.7 733.1c-.1.9 0 1.6 0 2.5v49.199999999999996M1057.7 670.9l-.3.5M1058.1 668.9v.4M1064.1 662.3v.5M1065.3 692.8v-.6M1064.7 694.9l.2-.6M1055.1 697.2c-.7.1-1.4.4-2.1.7-.5.2-.6.3-1 .5M1046.2 681.6v.6M1018.7 718.1l.1-.5M1018 720.2l.3-.5M1038.4 696.7v.5"/>
    <path class="st1"
        d="M1051.3 722.6l.1.4-.1-.4zM1052.3 720.2l-.3.2.3-.2zM1052.3 693v27.2c0 .9-.3 1.8-.7 2.6M1065 655.7c.8 0 .4 0 1.2.2M1005.9 793.1v-49.099999999999994c0-1.5 0-3.1.1-4.7.3-4.2 1.3-8.4 2.7-12.3 1-2.7 2.1-5.5 3.7-7.9.8-1.2 1.6-2.3 2.5-3.4l44.9-55.6 1.2-1.5.7-.7M1061.2 656.8c-1 1-1.7 1.9-2.5 3l-44.9 55.6c-.9 1.1-1.8 2.2-2.6 3.4-1.5 2.5-2.7 5.2-3.7 7.9M1012.4 800c.9-.9 1.8-1.9 2.5-2.9l44.9-55.7c.9-1.1 1.8-2.2 2.6-3.4 1.5-2.4 2.7-5.1 3.7-7.9 1.3-4 2.3-8.2 2.7-12.4.1-1.5.1-3.1.1-4.7v-49.099999999999994M1007.5 726.6c-1.1 3.6-2.1 7.1-2.5 10.9-.3 2-.3 4.1-.3 6.1v49.099999999999994M1028.1 704.1v.4M1056.4 688h.4c1.7-.3 2.9-1.2 2.9-2.1M1057.6 718.5c.5-2.7.5-5.2.1-7.2M1026.7 775.9c1.8-2.2.8-6-2.1-8.5-1.7-1.3-3.6-1.9-5.3-1.9M1012.8 767.1c.3.9 1.8 1.2 3.5.9s3-1.2 2.9-2.1M1014.7 741.3l-.1-.4M1012.7 743.3c1.3-.4 2-1.2 2-1.9M1014.8 737.4c-.1.7-.2 1.6-.2 2.4M1014.6 768.1c.9 4.6 2.8 7 5.1 6.8M1014.7 772c2 3 5.4 3.7 8.1 2.1M1023.7 773.4c.9-1 .6-2.8-.7-4-.9-.9-2-1.2-2.9-1.1"/>
    <path class="st1"
        d="M1023.3 773.7l.4-.3-.4.3zM1016.5 773.8c.4.6 1.1 1.2 1.6 1.6 3 2.4 6.8 2.6 8.6.4M1064.5 729c1.8-2.3.8-6-2.2-8.4-3-2.5-6.9-2.6-8.7-.4M1059.3 718.8c.6-2.2.6-4.5.2-6.3M1063.5 721.7c1-3.8 1.2-8.1.6-11.5M1057.7 711.5c.3.8 1.8 1.2 3.5.9 1.7-.3 3-1.2 2.9-2.1M1057.6 718.5v.2M1020.1 768.4l.3.2M1020.3 768.5l.1.1M1020.3 768.5l.2.1M1020.3 768.5l.2.1M1019.2 765.5h.1M1019.4 766.5l-.2-.8M1019.2 765.9l-4.5-24.5M1012.7 743.3M1014.6 768.1l-1.9-10.8M1023.3 773.7l-.5.3M1065.3 725.3l-37.8 46.8M1064.5 729l-37.8 46.9M1018.8 763.5l34.9-43.3M1059.3 718.8v.2M1055.2 689.4l4.3 23.1M1057.7 711.5l-3.8-20.5M1019.9 768l-.4-1.1M1019.8 767.9l.5.6M1020.2 768.4c.3 0 .1 0 .5-.1M1014.8 737.4l.2-.8M1014.6 741c-.1-.4-.1-.8-.1-1.3M1014.7 772c-1.2-1.8-1.7-3.8-2.1-5.9M1059.2 684.2c.3 1.1.5 2.3.7 3.4l3.8 20.8.3 1.8M887.7 881.6c.3-.7.6-1.8.6-2.6M848.3 930.4c.4-.7.7-1.8.7-2.6M868 909.5c.4-.7.7-1.8.7-2.6M846.6 926.5c-.5 1-.9 2-1.2 3M857.9 922.9c1-.6 2-2.4 2.6-4.7.3-1.3.5-2.5.5-3.4"/>
    <path class="st1"
        d="M869.5 906.1c-.4-.1-1 .8-1.4 2.1-.3 1.2-.2 2.4.2 2.5s1.1-.9 1.4-2.1c.3-1.3.3-2.4-.2-2.5zM889.2 878.2c-.4-.1-1 .8-1.3 2.1-.4 1.2-.3 2.3.1 2.4.4.1 1.1-.8 1.4-2.1.3-1.2.2-2.3-.2-2.4zM891.8 871.2c-.5 0-1.1.3-1.6 1M875.6 898.5c0 1.5.3 2.3.9 2.5 1 .2 2.6-1.9 3.4-4.9.3-1.3.4-2.5.4-3.5M857.5 921c0 1.5.3 2.3.9 2.4 1 .3 2.5-1.9 3.3-4.9.4-1.2.5-2.4.5-3.4M876 900.4c.9-.6 2-2.5 2.5-4.7.3-1.3.5-2.5.5-3.4M890.9 870.8c-.5-.1-1.1.1-1.6.6"/>
    <path class="st1"
        d="M892.3 871.2zM893.8 875.3c0-2.4-.6-3.9-1.5-4.2M888.7 895.5c.9-1.2 1.3-2.6 1.1-3.9M844.8 948.8c.9-.3 1.7-1 2.2-1.6"/>
    <path class="st1"
        d="M849.9 927c-.5-.1-1.1.9-1.4 2.1-.3 1.3-.3 2.4.2 2.5.4.1 1.1-.8 1.3-2 .4-1.4.2-2.4-.1-2.6zM879.1 883.9l1.2.3M889.6 879.2l-1.2-.2M874.3 889.8l1.3.3M869.9 907.1l-1.2-.3M861 914.7l1.2.4M856.2 912.2l1.3.4M848.1 924.2l-1.3-.3M850.2 928.1l-1.2-.4M842.9 947.8l1.2.4M848.1 943.3l-4 4.9M844.1 936.7l-1.2-.3M862.2 906.7l-1.2-.4M848.1 943.3v1.4M879.1 892.3l1.2.3M889.8 872.6l-1.2-.4M891.8 871.2h.4M875.6 890.1v8.4M857.5 921v-8.4M892.2 871.2l-1.3-.4M847 947.2l41.7-51.7M846.6 926.5c.7-1.4 1.6-2.5 2.7-3.7l7.1-8.8 1.2-1.5M844.1 948.2v-9.6c0-1.4 0-2.8.1-4.2.2-1.6.6-3.3 1.2-5M874.3 889.8l-1.1 1.4-11 13.7-1.2 1.4v8.4M842.9 947.8v-9.5c0-1.1-.1-2.3 0-3.4.3-3 1.1-6.1 2.5-8.7.7-1.4 1.6-2.5 2.5-3.7l7.2-8.9 1.1-1.4M846.5 945.1c-.2.8-.7 1.4-1.3 1.9M889.8 893l-1.1 1.4-39.4 48.8-1.2 1.4-.1.7c-.2.7-.6 1.2-.9 1.8M880.3 892.6v-8.4l1.2-1.4 7.2-8.8 1.1-1.4.4-.5M875.6 890.1l-1.2 1.5-11 13.6-1.2 1.5v8.4M889.3 871.4c-.7.7-1.3 1.5-1.9 2.2l-7.1 8.8-1.2 1.4v8.4M889.8 891.6l1.2-1.5 1.6-2 1.2-1.4v-11.4M895.6 935.7c0-.5-.1-.9-.3-1M839.9 941.6c.3-.6.4-1.3.5-1.9"/>
    <path class="st1"
        d="M841.3 938.5c-.4-.1-1.1.7-1.4 2.1-.3 1.2-.3 2.3.1 2.4.4.1 1-.7 1.4-2s.3-2.4-.1-2.5zM875.8 962.8c0 .7.1 1.2.4 1.3.4.1 1-.8 1.3-2.1.2-.6.2-1.2.2-1.6M838.7 974.3c.2-.5.4-1.1.5-1.6M840 1004.2c.2-.6.3-1.1.4-1.6"/>
    <path class="st1"
        d="M840.1 971.4c-.5-.1-1.1.8-1.4 2-.3 1.3-.3 2.4.1 2.5.4.1 1-.8 1.4-2.1.4-1.2.3-2.3-.1-2.4zM842.9 995c0 .7.1 1.1.4 1.2l.8-.4M895 904.8c.2-.6.4-1.2.5-1.9M887.8 881.4c.2-.6.4-1.3.5-1.8M893.9 874.6c.2-.4.3-1 .4-1.5"/>
    <path class="st1"
        d="M896.4 901.6c-.4-.1-1 .8-1.3 2.1s-.3 2.4.1 2.5c.4.1 1.1-.8 1.4-2.1.3-1.3.3-2.4-.2-2.5zM877.3 891.1c-.4-.1-1.1.8-1.4 2.1-.3 1.2-.2 2.3.2 2.4.4.1 1-.8 1.3-2.1.4-1.2.4-2.3-.1-2.4zM859.2 913.5c-.4-.1-1.1.9-1.3 2.1-.4 1.2-.3 2.3.1 2.4.4.2 1-.8 1.4-2 .3-1.3.3-2.4-.2-2.5zM875.9 894.2c.3-.6.4-1.2.5-1.9M895.2 871.7c-.4-.1-1 .8-1.3 2.1l-.2.6M893.8 875.9l.2.3c.4.1 1.1-.8 1.4-2 .3-1.3.3-2.4-.2-2.5M881.6 932.9c.1-.2.3-.7.4-1.2.1-.3.2-.8.2-1M857.6 985.2c0 .7.1 1.2.4 1.2.4.1 1-.7 1.4-2 .1-.6.2-1.2.1-1.6"/>
    <path class="st1"
        d="M841.3 1001.3c-.5-.1-1.1.8-1.4 2.1-.3 1.3-.3 2.4.2 2.5.4.1 1-.8 1.3-2.1.4-1.2.3-2.3-.1-2.5zM836.2 1003.3c0 4.7 1.1 7.5 2.8 8.2M896.2 866c-1.1-.3-2.3.2-3.5 1.3"/>
    <path class="st1"
        d="M896.4 866.1h-.2.2zM868.1 909.2c.2-.6.4-1.2.5-1.9M848.4 930.1c.3-.6.4-1.2.5-1.8M894.9 865.7c-1.1-.3-2.3.3-3.5 1.3"/>
    <path class="st1"
        d="M895.1 865.7l-.2-.1.2.1zM899.2 874.3c0-4.7-1.2-7.6-2.8-8.2M838.9 1011.5c1.1.4 2.4-.1 3.7-1.3M834.9 1003c0 4.7 1.1 7.5 2.8 8.2M857.8 916.6c.3-.5.4-1.2.5-1.8M895.6 902.4l1.2.3M840.5 939.2l1.2.3M839.9 941.6l-.2.3M836.2 952.3l-1.3-.3M877.6 960.6h.1M875.6 963h.2M857.6 985.5l-.1-.1M842.9 995.3l6.9-8.6M859.4 983l.2.1M839.3 972.1l1.2.3M842.9 995.4l7-8.7M842.9 995.5l1.2.3M841.7 1002.3l-1.2-.3M843.8 980.1l-.9 1.4M842.9 980.8l.8-1.1M844.1 995.8l6.9-8.6M844.1 927.3l-1.3-.3M859.6 914.6l-1.2-.4M895 904.8l-.1.2M875.6 894.5h.2M891.2 894.9v-5M891.2 903.6v-13.7M887.7 881.6l.1-.2M893.8 874.9l.1-.3M895.6 872.8l-1.2-.3M891.3 868.8l-1.3-.3M892.5 910.4v-22.1M876.5 891.7l1.2.4M875.9 894.2l-.1.3M891.2 903.6v-13.7M882.3 930.6v-27.1M848.9 973.4l32.7-40.5M834.9 1003l1.3.3M868 909.5l.1-.3M848.3 930.4l.1-.3M896.4 866.1l-1.3-.4M837.7 1011.1l1.2.4M857.8 916.6l-.2.2M857.6 916.9h-.1"/>
    <path class="st1"
        d="M881.6 932.9v.3-.3zM882.6 930.5l-.3.2.3-.2zM840.4 939.2v.6M875.8 963l.1-.4M839.2 972.7v-.5M838.5 974.8l.2-.5M840.4 1002.6v-.5M839.7 1004.7l.3-.5M857.8 985l-.2.4M842.9 943.3c-.1.9 0 1.7 0 2.6v49.199999999999996M882.3 908.6c.3-.2.5-.3.9-.4.7-.3 1.3-.6 2.1-.8M895.5 902.5v.4M888.3 879.5v-.5M894.3 873v-.5M881.8 933c.3-.9.6-1.7.7-2.6v-27.200000000000003M876.5 891.8l-.1.6M892.7 867.3c-1 .9-1.8 1.9-2.5 2.9l-45 55.7c-.9 1.1-1.8 2.2-2.5 3.4-1.5 2.5-2.7 5.1-3.7 7.9-1.3 3.9-2.4 8.1-2.7 12.3-.1 1.6-.1 3.1-.1 4.7v49.199999999999996M868.6 907.4l.1-.6M848.9 928.3v-.5M891.4 867c-.9.9-1.7 1.9-2.5 2.9l-44.9 55.7c-.9 1.1-1.8 2.2-2.6 3.4-1.6 2.5-2.7 5.1-3.7 7.9M842.6 1010.2c1-.9 1.7-1.9 2.5-2.8l45-55.7c.8-1.1 1.8-2.2 2.5-3.4 1.5-2.4 2.7-5.1 3.7-7.9 1.3-3.9 2.3-8.2 2.7-12.3.2-1.5.2-3.1.2-4.7v-49.1M837.7 936.8c-1.2 3.6-2.1 7.2-2.6 10.9-.2 2-.3 4-.3 6.1v49.1M858.4 914.3l-.1.5M886.5 898.2h.4c1.7-.3 2.9-1.3 2.8-2.1M887.8 928.7c.5-2.7.5-5.2.1-7.2M856.9 986c1.8-2.2.8-6-2.2-8.4-1.6-1.3-3.6-2-5.3-1.9M843 977.3c.3.8 1.8 1.2 3.5.9 1.8-.3 3-1.2 3-2.2M844.9 951.6l-.1-.4M843 953.5c1.2-.4 1.9-1.2 1.9-1.9M845 947.6c-.1.8-.2 1.7-.2 2.4M844.8 978.3c.9 4.6 2.9 7 5.2 6.8M844.9 982.2c2 3 5.3 3.7 8.2 2M853.9 983.5c.9-1 .6-2.7-.7-4-.9-.9-2-1.3-2.9-1.2"/>
    <path class="st1"
        d="M853.6 983.8l.4-.3-.4.3zM846.7 984c.5.7 1 1.2 1.6 1.7 3 2.4 6.9 2.5 8.6.3M894.8 939.2c1.8-2.2.9-5.9-2.2-8.4-3-2.4-6.9-2.6-8.7-.3M889.6 929c.5-2.2.5-4.5.2-6.3M893.8 931.9c1-3.7 1.2-8.1.5-11.4M888 921.7c.3.9 1.8 1.3 3.5.9 1.6-.3 3-1.3 2.8-2.2M887.8 928.7v.1M850.4 978.5l.2.3M850.5 978.7l.1.1M850.5 978.7l.2.1M850.5 978.7l.2.1M849.4 975.7h.1M849.6 976.7l-.2-.8M849.5 976l-4.6-24.4M842.9 953.5h.1M844.8 978.3l-1.9-10.8M853.6 983.8l-.5.4M895.6 935.5l-37.8 46.8M894.8 939.2l-37.9 46.8M849 973.6l34.9-43.1M889.6 929l-.1.2M885.5 899.6l4.2 23.1M888 921.7l-3.9-20.5M850.1 978.2l-.4-1.1M850.1 978l.4.8M850.4 978.6c.3-.1.2 0 .6-.2M845 947.6l.2-.9M844.8 951.2v-1.3M844.9 982.2c-1.2-1.8-1.7-3.8-2.1-5.9M889.4 894.4c.3 1.1.6 2.3.7 3.4l3.9 20.8.3 1.8M853.6 1032.8c.5.3 1.1.3 1.5.2"/>
    <path class="st1"
        d="M851.5 1044.2c-.3 0-.8.6-1 1.4-.2.9-.2 1.7.1 1.7.3.1.8-.6 1-1.4s.2-1.6-.1-1.7zM880.1 979.6c.4.2.9.2 1.3.2 1.3 0 2.4-.4 3-1.1M865 1016.2l.2.6"/>
    <path class="st1"
        d="M853.5 1006.8c-.3-.1-.7.6-1 1.4-.2.9-.1 1.6.1 1.8.3.1.7-.6 1-1.4.2-.9.1-1.7-.1-1.8zM879.9 977c.2-.3.3-.7.3-1.1M853.6 1031.6l.9.3M857 1005.3c.2-.3.3-.7.3-1.1"/>
    <path class="st1"
        d="M885 967.8c-.3 0-.7.6-1 1.5-.2.8-.2 1.6.1 1.6.3.1.7-.5 1-1.4.2-.9.2-1.6-.1-1.7zM869.2 984.3c-.3-.1-.8.6-1 1.4-.3.9-.1 1.6.1 1.8.3 0 .8-.6 1-1.5s.2-1.7-.1-1.7zM886.9 1000.4c-.3-.1-.7.5-1 1.4-.2.9-.1 1.6.1 1.7.3 0 .7-.6 1-1.4.3-.9.2-1.6-.1-1.7zM882.8 974.4c-.8-.2-1.7.4-2.6 1.5M884.3 978.7c0-2.6-.6-4-1.5-4.3M855.9 1006.6c-.5 1-.9 2.1-1.3 3.1M884.5 963.8c-1.6-.3-3.5.8-5.3 3.1M874 1011.5c-1.1-.2-2.4 0-2.9.6M880.1 1013.1c.4.1.9.2 1.3.2 1.3 0 2.4-.4 3-1.1M885.5 964.1c-1.6-.4-3.5.7-5.3 3M888.9 973.1c0-5.4-1.3-8.5-3.4-9.1M887.2 1001.1l-.8-.3M856.3 995.1l1.1.3M854.4 1031.9l.6 1.1M850.9 1044.8l.9.2M848.7 1056.4l-1-.3M865 1016.2l-11.4 14.2M863.7 997.8l-8.2 10.1M884.4 968.3l.8.2M880.1 979.6l-2-.4M863.7 997.8l1.3.3v18.1M852.9 1007.3l.8.2M848.7 1022.9l-1-.3M871.1 987.9v24.2M879.9 977l-22.9 28.3M874 1011.5v-27.1M854.4 1031.9l1.2-1.6M865 998.1l-10.7 13.2M879.2 966.9l1 .2M884.3 978.7v33.5M884.5 963.8l1 .3M853.6 1033.8l.6-.8M871.1 1012.1l-4.2 5.1M880.1 1013.1l-6.1-1.6M869.4 985l-.8-.3M853.5 1016.6l-.3.7M880.1 1013.1v-31.5c0-1.3.1-2.9-.4-4.2M879.6 977.2l.7-.6M856.1 1006.6l.9-1.3M855.9 1006.6l1.1-1.9.4-.5 1.1-1.4 20.5-25.4 1.2-1.5M853.2 1050.7v-31.599999999999998c0-1.2 0-2.4.1-3.4.1-2.1.6-4 1.2-6M847.7 1037.1v-13.8c0-1.4 0-2.8.1-4.2.4-4.3 1.4-8.6 2.8-12.7 1-3.1 2.4-6.1 4-8.8.9-1.4 1.8-2.6 2.9-3.9l20.5-25.4 1.2-1.4M856.2 1006.5c-1.3 2.5-2.2 5.3-2.5 8.2-.1 1.2-.1 2.4-.1 3.6v31.7l-.1.4c-.2.7-1.2 1.8-1.4 1.9l-2.2 2.7-1.2 1.5M888.9 973.1v33.5l-1.2 1.5-2.2 2.7-1.2 1.4M848.7 1056.4v-32.8c0-5.4.9-10.6 2.6-15.8 1-3.1 2.2-6.2 3.9-9.1.9-1.7 2.1-3.3 3.4-4.8l20.5-25.4 1.2-1.5M587.6 660.8c0 1.2.3 2.4.9 2.8M540.8 637.7c-.3.8.1 1.8.9 2.4.8.7 1.9.8 2.5.4M497.4 617.6c-3-.8-5.6-.1-7.1 1.6M507.6 643.4c-.3.7.1 1.7.9 2.3.9.6 1.9.9 2.5.4M492.6 617.1c-1.3.7-2.3 1.8-3 3.2M498 616.8c-2.2-.6-4.1-.4-5.5.3M497.4 636.5c-.1 2.5.5 4.3 1.5 4.6M587 660.6c-.1 3.1.7 4.9 2.1 4.6M581.8 663.4c-.2.8.3 1.8 1 2.4.8.6 1.9.8 2.5.4M586.7 669.1c.9.2 1.9.2 2.5 0M501.4 641.8c-.3 2.3 1.6 4.8 4.2 5.5"/>
    <path class="st1"
        d="M501.8 626.2c.6-.8.2-2-.7-2.8-1-.8-2.4-.9-3-.1-.6.7-.2 2 .8 2.8 1 .7 2.3.8 2.9.1zM510.8 646.6c.5-.6.4-1.6-.3-2.4M507.5 643.4l-.3.3c-.6.7-.3 2 .7 2.8 1 .9 2.3.9 2.9.1M596 650.8c0-4.2-3.7-8.6-8.4-9.9M585.2 666.6c.5-.6.3-1.6-.3-2.4M581.8 663.4l-.3.3c-.6.7-.3 1.9.8 2.8 1 .8 2.3.8 2.9.1M595.4 651.5c0-4.2-3.7-8.6-8.4-9.8M548 656.6c.5-.7.3-1.6-.3-2.4M544.6 653.4l-.3.3c-.5.7-.2 2 .8 2.8 1 .7 2.3.8 2.9.1M544.7 653.4c-.2.7.2 1.7 1 2.3.8.7 1.8.8 2.5.4M518.3 630.6c0 1.7 1 3.4 2.4 4.6 2.3 1.8 5.1 2.1 6.7.6M498.5 622.9c-.3.8.2 1.8.9 2.4.9.7 1.9.8 2.5.4M527.2 636.3c.5-.6.7-1.4.7-2.2M517.7 631.3c0 1.7 1 3.4 2.5 4.6 2.4 1.9 5.5 2.1 7 .3"/>
    <path class="st1"
        d="M544 641c.6-.8.3-2-.7-2.8s-2.3-.8-2.9-.1c-.6.7-.3 2 .7 2.8s2.3.8 2.9.1zM557.1 641.1c0 1.7 1 3.4 2.5 4.6 2.2 1.8 5.1 2 6.6.6M582.9 646.1c0 .7.4 1.4 1 1.9.8.7 1.8.8 2.5.4M566 646.7c.5-.6.7-1.3.7-2.2M556.5 641.8c0 1.6 1 3.4 2.5 4.6 2.4 2 5.5 2.1 7 .3M586.3 648.9c.6-.7.2-2-.7-2.8-1-.9-2.3-.9-2.9-.1l-.3.9M582.3 647.1c.1.7.4 1.3 1 1.6 1 .9 2.3.9 2.9.1M596 650.8l-.6.7M595.4 662.9l-8.4-2.3M587.6 640.9l-.6.8M497.4 617.6l.6-.8M489 634.2l8.4 2.3M497.8 624.1l.6-.7M544.6 653.8l-.6.7M540.1 638.9l.6-.7M557.1 632.7l-28.6-7.7M497.4 617.6l20.3 5.3M517.7 631.3l.6-.7M507.5 643.8l-.6.7M535.2 650.9l-24.1-5.2M518.3 622.2l-20.3-5.4M588.4 665.2l-89.5-24.1M581.2 664.5l.6-.7M497.4 638l89.6 24.1M505.6 647.3l81.1 21.8M556.5 633.4l-28.6-7.7M587.6 640.9l-20.3-5.5M595.4 651.5v11.4M566.7 636.2l20.3 5.5M557.1 641.1l-.6.7M518.3 622.2v8.4M557.1 641.1v-8.4M489.6 620.3c-.2.5-.3.6-.4 1.2-.3 1-.2 2.1-.2 3.2v9.5M595.4 662.9c1-1.2.6-.4.6-2.5v-9.6M517.7 631.3v-6.5c0-2.2-.4-1.4.6-2.6M528.5 625c-1 1.2-.6.4-.6 2.6v6.5M566.7 644.5v-6.3999999999999995c0-2.2-.4-1.4.6-2.7M557.1 632.7c-1 1.3-.6.4-.6 2.6v6.5M582.3 647.1c0-.6 0 .1.6-1l.1-.5M521.8 697.3c0 .6.4 1.4 1.1 1.9.8.7 1.9.8 2.5.4M525.2 700.1c.6-.7.3-2-.7-2.8s-2.4-.9-2.9-.1l-.4.9M521.3 698.3c.1.6.5 1.2 1 1.6 1 .9 2.3.9 2.9.2M486.8 624c.6-.7.3-1.9-.7-2.8s-2.3-.9-2.9-.1l-.3.9M482.9 622.3c.1.6.5 1.2 1 1.6 1 .8 2.3.9 2.9.1M483.6 620.8c-.3.8.1 1.7.9 2.4s1.9.8 2.6.4M545 653.5c.1.6.5 1.3 1.1 1.7.7.6 1.5.8 2.2.6M541.3 637.6c0 .9.7 1.8 1.6 2.2M521.9 628.3c-.2.7.2 1.7 1 2.3.8.7 1.9.8 2.5.4"/>
    <path class="st1"
        d="M525.2 631.5c.6-.8.3-2-.7-2.8-1-.7-2.3-.9-2.9-.1-.6.8-.3 2 .7 2.8 1 .8 2.3.9 2.9.1zM499 622.7c.1.7.4 1.3 1.1 1.8.6.6 1.3.7 2 .7M507.9 643.5c0 .7.4 1.3 1 1.8.7.6 1.6.7 2.2.6M480.9 651.6c-.2.7.2 1.7 1 2.3.8.7 1.9.9 2.5.4"/>
    <path class="st1"
        d="M484.2 654.7c.6-.7.3-1.9-.7-2.8-1-.9-2.3-.9-2.9-.1-.6.7-.3 2 .7 2.8 1 .9 2.3.9 2.9.1zM489.6 680.8c0 1.3 1.1 2.5 2.6 2.9M483.6 683.6c-.3.7.1 1.8.9 2.4.8.7 1.9.8 2.6.4"/>
    <path class="st1"
        d="M486.8 686.9c.6-.7.3-2-.7-2.8s-2.3-.9-2.9-.1c-.6.7-.3 1.9.7 2.8 1 .8 2.3.8 2.9.1zM507.4 643.4c-.4.7 0 1.8.9 2.5s2 .8 2.7.3M490.2 680c0 .8.5 1.7 1.3 2.3.4.3.8.5 1.3.6M498.5 622.9c-.3.8.2 1.8.9 2.4.9.7 1.9.8 2.5.4M544.6 653.4c-.4.8 0 1.9.9 2.6.9.6 2 .8 2.7.3M594.1 710.2c.7.2 1.4.1 1.8-.2M560.8 707.3c-.3.7.1 1.7.9 2.4.9.6 1.9.8 2.6.4"/>
    <path class="st1"
        d="M564 710.5c.6-.8.3-2.1-.7-2.8s-2.3-.9-2.9-.1c-.6.7-.3 2 .7 2.8s2.3.8 2.9.1zM594.1 710.2c.7.2 1.4 0 1.9-.3M599.1 652.4c0 .6.4 1.3 1 1.9.8.6 1.9.8 2.6.4M595.6 710.4c.3-.3.4-.7.4-1M593.5 710.9c1 .3 1.7 0 2.2-.5M601.7 684c-.2.8.1 1.8 1 2.4.8.7 1.9.8 2.5.5M594.5 708.5c.4-1.3.4-2.7.1-3.9"/>
    <path class="st1"
        d="M605 687.3c.6-.7.3-1.9-.7-2.8-1-.8-2.3-.8-2.9-.1-.6.7-.3 2 .7 2.8 1.1.7 2.3.8 2.9.1zM599.2 714.8c-.3.8.1 1.8.9 2.4.8.7 1.9.8 2.6.4"/>
    <path class="st1"
        d="M602.4 718c.6-.7.3-2-.8-2.8-1-.9-2.3-.9-2.9-.1-.6.7-.3 1.9.7 2.8 1.1.8 2.4.9 3 .1zM594.8 700.5l.2-.7M592.9 700.8c.7.4 1.6.3 1.9-.3M583.5 645.5c0 .6.4 1.3 1 1.8s1.3.7 2 .6M581.7 663.5c-.4.7 0 1.8.9 2.5s1.9.8 2.7.3M602.4 655.2c.6-.8.3-2-.8-2.8-1-.8-2.3-.9-2.9-.1l-.3.9M598.5 653.4c.1.6.5 1.2 1 1.6 1 .8 2.4.9 3 .1M595.1 700.7l.2-.6M593.5 701.5c.7 0 1.3-.3 1.7-.7M608.1 720.2c1.6-2 2.3-4.5 2.3-7M610.4 662.3c0-8.4-7.6-17.2-16.9-19.8M492.1 615.2c-6.2-1.6-11.7 0-14.6 3.7M582.2 663.5c.1.7.5 1.3 1 1.8.7.6 1.5.7 2.2.6M603.8 647.2c-3-2.7-6.4-4.5-9.7-5.4M488.4 613.8c-1.1-.1-2.1 0-2.9.1-6.1 1-10.3 6.1-10.3 11.9M475.2 676.9c0 8.4 7.6 17.2 16.9 19.7M597.9 724.6c1 .1 2 0 2.9-.1 6-1 10.3-6.1 10.2-12M611 661.6c0-5.2-2.8-10.4-7.2-14.4M583 645.6c-.3.8.1 1.8.9 2.4.8.7 1.8.8 2.5.4M560.7 639.3c0 .6.4 1.3 1 1.9.9.6 1.9.8 2.6.4M540.8 637.7c-.3.8.1 1.8.9 2.4.8.7 1.9.8 2.5.4M564 642c.6-.7.3-2-.7-2.8s-2.3-.9-2.9-.1l-.3.9M560.1 640.2c.1.6.5 1.2 1 1.7 1 .8 2.3.8 2.9.1M499 622.7l-.6.7M492.7 614.5l-.6.7M544.9 653.5l-.5.6M544.3 640.1l-.4-.1M521.8 628.7l-.6.8M540.7 638.2l.5-.6M507.3 644l.4-.6M480.3 652.8l.6-.8M489.6 680.8l.6-.8M482.9 684.8l.6-.7M492.7 682.9l-.6.8M498 659.6l.1 11.3M492.1 683.7l6.6 1.8M489.6 634.4v46.4M497.6 664.7v4.8M492.7 682.9l5.5 1.6M490.2 634.6v45.4M525.8 637.2l-6-1.6M558.6 646.1l6 1.5M593.8 702.3l-.3-.8M594.1 710.2l-.6.7M611 712.5l-.6.7M581.7 706.9l12.4 3.3M560.1 708.5l.6-.8M594.1 710.2l-12.4-3.4M601.1 685.3l.6-.8M598.5 716l.6-.8M595.4 662.9v.5M610.4 662.3l.6-.7M594.1 641.8l-.6.7M580.7 707.5l12.8 3.4M594.5 703.9l.2.7M592.9 700.8l-2.2-.6M595 676.9v22.9M582.1 663.5l-.5.6M583.5 645.5l-.6.6M595.4 700.1v-27.1M590.2 700.6l3.3.9M610.4 662.3v50.9M492.1 615.2l101.4 27.3M475.2 676.9v-51M611 661.6v50.9M521.3 698.3c-.1-.6-.1.1.5-1l.1-.4M482.9 622.3c-.1-.6-.1-.2.6-1M544.3 640h-.4M490.2 654.5c.6-.6 1.2-1.2 1.9-1.6M495.9 679c-1.2 1.2-2.2 2.5-3.2 4M593.7 701l.1.5M594.2 703.1l-.4-.8-.2-.5M596 701.2l-.1-.3-.5-.8M594.5 703.9l-.3-.8-.3-.5M596 709.4v-49.199999999999996c0-.9.1-1.7-.1-2.5M594.3 703.2l.4 1.3M594.5 708.5l-.4 1.7M595 678l1 .6M598.5 653.4l.6-1 .1-.5M488.4 613.8c1.3 0 1.6 0 2.9.3 1 .1 2.2.5 3.3.8l97.7 26.3 1.8.5M597.9 724.6c-1.3-.1-1.6 0-2.9-.3-1.1-.2-2.3-.5-3.3-.8l-97.7-26.3-1.8-.5M560.1 640.2c0-.6 0 .1.6-1l.1-.5M582.3 697.4c1.8-.2 3.3-1.1 4.1-2.4M587.2 692.5c-.1.9 1.3 1.6 3.1 1.7 1.8.2 3.2-.3 3.4-1.1M589.3 665.7c-.1-.4-.4-.9-.6-1.2M589.4 666.7c-.1.8 1.3 1.6 3.1 1.7 1.7.1 3.3-.4 3.4-1.1M595.6 667.8c.1-1.7-.2-3.4-1-5M590.8 700c1.5-1.8 2.4-4 2.6-6.3M590.8 700c1.8-1.9 2.7-4.4 2.9-6.9M590.1 700.7l.7-.7M582.9 697.2c-.6-.1-1.5 1.2-1.9 3-.5 1.8-.4 3.4.2 3.5h.1M583.8 694c-1.2-.2-3 2.4-4 6l-.1.1c-1 3.7-.7 7 .6 7.3v.1c1 .1 2.4-1.4 3.3-3.9M498.7 678.2l-.1.1c-1 3.7-.8 7 .5 7.3h.1M502.7 672.2c-1.3-.2-3.1 2.4-4 6M585 696.5c0-1.3-.4-2.1-1-2.4M497.6 669.7c.5 1.7 1.5 3.3 2.7 4.5M491.4 671.3c1 3.9 3.6 7.3 6.8 9.5M490.9 666.6c-.1.8 1.3 1.6 3.1 1.8 1.8.1 3.3-.4 3.4-1.2M497.2 667.7c-.2 2.5 1 5.1 2.9 7"/>
    <path class="st1"
        d="M499.5 641.3zM493 640.7c-.1.8 1.4 1.6 3.1 1.8 1.8.1 3.4-.4 3.4-1.2M592.8 696.6l.4-1M579.2 703.4l-81.2-21.8M594.6 662.8l-.1-.1M593.5 693.7l2.1-25.9M582.9 697.2l.5-.1M499.2 685.7l81.1 21.9M497.4 667.2l2.1-25.8M493 640.7l-2.1 25.9M583.3 697.1l1.1-.3M587 693.7c-.1.5-.4 1-.6 1.5M587 693.7c.2-1 .3-1.9.4-3l1.9-22.1c0-1 .3-1.9 0-2.9M593.7 693.1l.1-1.8 1.9-22.2.1-1.8v-.9c0-1.2-.2-2.4-.7-3.5M590.7 700.1l-1.3 1.3c-1.3 1.1-3 1.7-4.6 2.1-.7.2-1.5.2-2.3.3l-1-.1M584 694.1l-.2-.1-1.8-.5-77.5-20.9-1.8-.4M490.9 666.6c-.1 1.6 0 3.1.4 4.7M497.6 669.7c-.1-.8-.2-1.6-.2-2.5M499.4 641.2c-.3.8-.3 1.7-.3 2.5l-1.8 22.1-.1 1.8M493 640.7c.2-1.8.8-3.4 2.1-4.8M740.6 644.9l-.1.4.1.2M795.2 657.9l-.3-.8M795.2 657.9l.7-.2-.2-.8M756.4 668.4c0 .7.4 1.5 1.1 2 1 .8 2.2 1 2.9.4"/>
    <path class="st1"
        d="M787.6 595.6l-.3.1.3-.1zM788.2 596l-.6-.4M768.4 624h1M767.3 608.8l-.1.1-.2.4M768.2 624.6h1M768.2 625l-.4.8M809.9 617l-.2-.4h-.2M794 604.7c.9.7 2 1.3 3.3 1.8M783.3 601.5l-.7.2M790.7 592.6l-.4-.3M819.1 632.8v-.6l-.1-.1M811.9 659.1c.4-.7.7-1.8.7-2.7M806.3 655.6l.6-.3M756.8 641.3l.1.6M758.2 640.6c.9-1 1.2-2.3 1.2-3.7M756.9 641.9c.5-.4 1-.8 1.3-1.3M809.4 664.5h.4l.2-.2"/>
    <path class="st1"
        d="M797.1 657.4zM796.5 657.6l.2.1.4-.3M764.6 658.6l.6.4M764.6 658.6c0-.8-.1-1.6-.4-2.3"/>
    <path class="st1"
        d="M745.3 653.7c.7-.8.3-2.2-.8-3.1-1.1-.9-2.5-1-3.1-.1-.6.8-.3 2.2.8 3.1 1 .9 2.5.9 3.1.1zM760.3 671.2c.6-.8.3-2.2-.8-3.1-1.1-.9-2.5-.9-3.2-.2l-.3 1M756 669.2c.1.7.5 1.3 1.1 1.8 1.1.9 2.5.9 3.2.2M777.3 661.4c-.9 0-1.6.3-2.2.6"/>
    <path class="st1"
        d="M760.5 672c.8-1 .4-2.8-1.1-3.9-1.3-1.1-3.2-1.2-4-.1-.9 1-.4 2.8 1 3.9 1.5 1.1 3.3 1.2 4.1.1zM765 638.5c.6 5.4 4 10.7 9 14.3M747.3 647.2l.1.6.2.1M764.1 656.3c-1-2.7-3.6-4.9-6.4-5.8M784.6 593c-.3-.6-1.3-1-2.4-1s-2 .4-2.4 1M762.9 597.1c0-.8-1.2-1.5-2.5-1.5-1.4 0-2.6.7-2.6 1.5l.5.9M762.4 598l.5-.9M784.8 592.5c0-.8-1.1-1.4-2.5-1.4s-2.5.6-2.5 1.4l.5.9M784.3 593.4l.5-.9M762.8 597.6c-.3-.7-1.4-1-2.4-1-1.2 0-2.1.4-2.5 1"/>
    <path class="st1"
        d="M763.6 596.6c0-1.1-1.4-1.9-3.2-1.9-1.9 0-3.3.8-3.3 1.9 0 1 1.4 1.8 3.3 1.8 1.8 0 3.2-.8 3.2-1.8zM785.5 591.9c0-1-1.5-1.8-3.3-1.8s-3.3.8-3.3 1.8 1.5 1.9 3.3 1.9 3.3-.8 3.3-1.9zM767.9 610.8c0-.7-.2-1.3-.6-2M767 613.2c.6-.8.9-1.6.9-2.4M821.3 628.6l-.2-.5M810.7 658.5l.3-.1.1-.2M792.7 603.5c1 1.5 2.8 2.6 5.1 3.2M787.9 595.9h-.5"/>
    <path class="st1"
        d="M813.5 611.4zM813.8 612.2l-.2-.7M810.3 658.5c.5.1.8 0 .9-.3M780.5 661.7c-1.2-.3-2.3-.4-3.2-.3"/>
    <path class="st1"
        d="M813.3 655.3zM812 660.3c.5.2 1.2-.9 1.6-2.2.3-1.3.2-2.6-.3-2.7M808.4 616.5l.7-.5-.2-.3-.3-.1M772.2 603.9c1.2.3 2.4.4 3.6.4 3.3 0 6.2-1.1 7.6-2.8M762.4 601.2l-.3.1-.2.3M767.4 611.4c.1-.7-.1-1.4-.5-2.1M755 599.8l-.4.6"/>
    <path class="st1" d="M761.4 602.2l.2.2.1-.4v-.1l-.3.3zM762.2 601l-.4.6"/>
    <path class="st1"
        d="M762.4 601h-.3.3zM772.4 603.7c3 .8 6.5.4 8.8-.9M768.7 626.3l-.9-.5M807.9 615.9l.7-.4M813.1 610.9l-.6-.1"/>
    <path class="st1"
        d="M813.1 611zM820.3 633.3zM818.9 638.2c.5.1 1.2-.9 1.5-2.2.4-1.4.3-2.6-.2-2.7"/>
    <path class="st1"
        d="M814.1 654.9c-.6-.1-1.5 1.1-1.9 2.9-.5 1.8-.3 3.2.3 3.4.6.1 1.4-1.2 1.9-2.9.4-1.8.3-3.3-.3-3.4zM818.9 637c.4-.7.7-1.8.7-2.7M775.7 612.1c-2 1.1-3.6 2.5-4.5 3.8M765.3 631.5c-.5 12.6 7.7 23.4 19.2 26.2M781.2 609.4c-6.7 1.6-11.1 5.2-11.7 9.2M764 637.3l.2.1.4-.2"/>
    <path class="st1"
        d="M745.6 654.5c.8-1 .3-2.8-1-3.9-1.4-1.2-3.2-1.2-4-.2-.9 1-.4 2.8 1 3.9 1.3 1.2 3.1 1.3 4 .2zM764.6 667.6l.2.5.8-.1M741.6 650.3c-.4.9.1 2 1 2.8.9.7 2.1.9 2.9.4M764.6 667.7l.5.2M780.5 661.4c-2.4-.6-4.7-.4-6.3.6M795.3 665.5l.6.1M806.5 655.1c-.6-.1-1.2.1-1.9.6M806.9 655.2l-.4-.1"/>
    <path class="st1"
        d="M821.1 632.8c-.6-.1-1.5 1.2-1.9 2.9-.5 1.7-.3 3.3.3 3.4.6.1 1.4-1.2 1.9-2.8.4-1.8.3-3.4-.3-3.5zM764.7 636.3c-.4 5.8 2.9 12 8.3 16.3 2.5 2.1 5.4 3.5 8 4.2M765.2 659c0-3.7-3.4-7.7-7.6-8.9M747.7 647l.1.6M767.4 645c1.5 2.9 3.8 5.6 6.2 7.6M758.3 639.8c.3-.5.6-1 .7-1.5M756.8 641.3c.6-.4 1.1-.9 1.5-1.5M783.3 608.8c-6.1 1.6-11 5.5-14.1 10.6M789.5 608c-2.2 0-4.3.3-6.2.8M799.6 656.2c9.9-4.3 15.7-14.3 15-24.7-.3-5.5-2.5-10.6-5.8-14.5M787.3 658.2c3 .3 5.6-.2 7.8-1.2M765.2 632.3c-3 6.3.3 15 7.3 20.7 4.6 3.8 10.1 5.5 14.8 5.2M768.7 626.3c-1.8 1.7-3 3.7-3.5 6M768.7 626.3l.2-.6M769 624.9l.4-.7M784.4 608.5c-1.3.3-2.7.7-3.8 1.2-7.6 2.9-12.6 8.5-11.6 12.8M761.7 601.7l-.2.1-.1.4M747.9 646l-6.7-1.8M749.3 645.4l.2.1M747.3 647.4l-6.7-1.8-4.6 2.9M808.2 657.7v-.3M808.1 664.2v-6.1M811.6 666.1l-2.2-1.6M795.2 665.4v-7.5M805.5 655.4h.1M805.6 655.4l.2-.1M796 657.5l-.1.2M812.1 665.7l-2.1-1.5M795.9 665.7v-8M753.7 674.9v.1M780.5 661.7v-.3M760.1 676.6l4.6-2.8M764.7 667.9v5.9M760.6 670.2l.3.6M745.6 652.8l.4.5M755.9 669l-.9.2M736 654.2l-.2-.1M790.3 592.4l-2.6 3.2M790.9 592.8l-2.7 3.2M768.4 624l-8.3-2.3M766.9 610.5v-1.1M767.2 612.2l.2-.4M768.2 624.6l-8.8-2.4M814.7 629l-.2-.2M809 616.4l.5.1M762.1 604.3l1 .3M767.4 611.3v.5M790.3 592.4l-2.4-3.8M797.9 606.7h-.2M819.6 627.7l-2.4 3M818.2 631.5l2.7-3.5M821.3 628.6l2.1 1.5M805.6 655.4l.7.2M757.4 640.5l-.6.8M759.5 623.6v13.3M797.1 665v-7.5M810 664.2v-5.7M808.1 664.2l1.3.3M796.5 657.6l-.5-.1M765.3 668.1v5.7M774 652.8l.3.3M747.3 647.2l.4-.4M757.7 650.6l-10.1-2.7M765.4 631.3l-.1 1.6M821.3 628.6l-2.6 3.2M805.3 655.5l.3-.1M797.7 606.7l14.8 4M787.9 595.9l4.8 7.6M813.5 611.4l-.4-.1M780.5 661.7l15.2 4M813.1 611l-4.1 5M809 616.4v-.4M762.4 601.2l9.8 2.7M766.9 609.4l-4.9-7.7M754.6 601.6v-1.2M761.8 601.6l-.1.4M772.4 603.7l-10-2.7M812.5 610.7l-3.9 4.8M764.7 636.3v.9M764.6 667.7v-9.1M795.3 665.5l-14.8-4.1M811.1 658.2l-4.2-3M747.8 647.6l9.7 2.6M769 624.9l-.2.2M784.9 608.4l-.5.1M747.8 646.6l-.4.1-6.7-1.8M747.4 647.1l.4-.5M747.3 647.3c-.1-.5.2-1 .6-1.3l.8-.5.1-.1.4-.1.5.1M741.2 644.2c-1 1.2-.4.6-2.2 1.7l-3.2 2"/>
    <path class="st1"
        d="M749.3 645.2l-.2.4.2-.4zM736 648.5l-.3-.4M809.4 658.3v6.199999999999999M808.7 657.8l-.8-.1h-.2M804.8 655.8l.6-.3"/>
    <path class="st1"
        d="M760.1 676.6l.2.3-.2-.3zM765.2 673.8l-.5-.1M741.5 650.9c-.7.9-.3.6-1.4.8M760.1 676.6l-1.8-.5-2.8-.7-1.8-.5-1.2-1.4-15.3-17.9-1.2-1.4v-5.7M751.6 644.2l-1 .6c-.4.3-.9.7-1.4.8M783.3 592.1c0-1.3-.1-.6.3-1.9M768.2 625c0-.4 0-.7.2-1M761.8 602.1v-.5h.1l.1.1M761.7 601.6l-1.8-.5-3.1-.8-1.8-.5-1-1.6-.5-.7-1-1.6-.4.2M782.3 602c-.4.4-.8.6-1.2.9M761.5 596.7c0-1.2-.1-.6.3-1.9"/>
    <path class="st1"
        d="M755.6 592.3h-.2.2zM809.5 617.8c.3-.9.9-1.4 1.6-2.2l1.5-1.9 1.2-1.5M814.2 628.3c.1.4.1.2.3.6M815 629.6l-.3-.7M820.2 638.6c-.8-.9-.3-.7-1.3-.9M808.7 657.8l-.1-.1-1-.7M807.7 657v.7l.1.1.3.3c.6.2 1.1.4 1.7.3M756.9 641.9l-1.6 1-5.9 3.7c-1.3.9-1.3.5-1.7 1.3"/>
    <path class="st1" d="M759.2 636.6l.3.2-.3-.2zM796.5 665.6v-6.1c0-1-.1-1.9.1-2.8"/>
    <path class="st1"
        d="M814.6 638.5l.1-.4-.1.4zM797.2 656.6l-.1.7M774.7 662.3l-.5-.2M757.7 650.6l-.2-.4M741.2 644.2l-3.3 2.1c-1.5 1-1.3.6-2.1 1.7v6.199999999999999l1.2 1.4 15.5 18.1 1.2 1.4 1.8.5 3.1.9 1.8.5.1-.1 3.2-2c.2-.2 2-1 2.2-1.8v-5.3M756 669.2c-.1-.6-.1 0 .5-.8v-.3l.1-.4M766.9 613c.3-.6.1-.3.3-.8M767.3 608.8l-1-1.5-2.8-4.5-1.1-1.6v-.2M759.5 622l.3-.3h.2c2.4-2.8 4.6-5.7 6.9-8.5M766.9 612.9l-.3.4h-.1M788.1 588.5h-.1l-6.5-1.7-1.8.4-22.3 4.7-1.8.4-1.2 1.4-.6.8-1.2 1.5M792.7 603.5c.4 0 .4.1.6.5l.7.8M813.5 611.4l-1.1 1.5-1.8 2.2c-.6.8-1.2 1.3-1.6 2.2M814 639.2c.5-.9 1.2-1.6 1.8-2.5l2.2-2.8 1.1-1.4-.1-.5-1.5-1.1-1.3-.8-1.5-1.1M813.9 639.5c.5-.9 1.2-1.7 1.8-2.4l2.4-2.9 1.1-1.4.1-.1-1.5-1.1-1.2-.9c-1-.7-1.7-1-2.2-2M797.2 606.5c5.2 1.5 10.4 2.8 15.7 4.2M810.7 658.5l-1.6-1-1.2-.8c-.4-.3-1.3-1.1-1.9-1.2M811.7 645.1c-.3 1.2-.5 2.4-.6 3.7v9.4M819.6 627.7l1.3.3.1.1 1.1.7 1.1.8.2.2v5.8999999999999995l-.6 1.8-7.2 22.7-.6 1.8-1.1 1.5-.8.9c-.3.3-.8 1.5-1.5 1.6l-1.3-.4-2.3-1.5M782.3 602l.3-.3 1.2-1.5 2.3-2.9 1.2-1.5M813.8 626.5c-.1-1-.1-1.9-.1-2.9v-11.5M811.3 658.2v-7.1c0-2.1 0-4.2.6-6.2M809.4 658.3l.9.2M813.3 660.7c-.8-.9-.3-.7-1.3-.9M759.4 622.6l1.8.5 5.4 1.4 1.8.5.4.1c.9.1 1.8.2 2.7.4 1.9.3 3.9.8 5.9 1.3 8 1.8 15.9 4.3 23.5 7.2 3.3 1.2 6.7 2.6 9.8 4.3.7.4 1.5.9 2.2 1.5.3.2.6.5.6.9M783.3 601.5c1.5-1.9 3-3.7 4.6-5.6.7 0 1.1 1.3 1.4 1.7l2.8 4.6 1 1.6M761.4 602.2l-1.8-.5-3.2-.8-1.8-.5-.9-1.6-.6-.9-1-1.6"/>
    <path class="st1"
        d="M772.4 603.7l-.2.2.2-.2zM768.9 625.7c-.8-.6-1.8-.7-2.7-.9l-5.2-1.4-1.8-.5M759.2 623c.1 1 .9.7 2 1l4.8 1.3 1.8.5M808.7 616.8c.5-.6 1-1.2 1.5-1.9l1.7-2.2c1.2-1.6 1.2-.8 1.2-1.8M761.4 603.4l-1.8-.4-3.1-.9-1.8-.5-1-1.6-.6-.9-1-1.5c-.4-1.2.5-1.9 1.2-2.8l.8-1 1.2-1.5 1.8-.4 22.6-4.8 1.8-.4 1.8.5 3 .8 1.8.5h.1l1 1.6.5.9c.5.7 1.5 1.8 1.1 2.9l-2.2 2.7M774.2 662.1l-1.6 1-5.9 3.7-1.5 1.1h-.1M796 657c.1.7 0 1.6 0 2.4v4.2c0 1.9.4 1.3-.1 2.1M804.7 655.7l-1.8 2.2-4.6 5.6-1.2 1.4-.1.3M796 665.4l.5.2.3-.2 1.2-1.5 4.7-5.8c.7-.9 1.3-1.8 2.1-2.4M788.5 658.2c-1.7-.1-3.3-.4-4.9-.7M765.2 659v8.8c.6.5 1.3-.4 1.9-.9l6-3.7 1.6-1 .5-.3M767 613.2h-.30000000000000004l-1.2 1.4-4.7 5.9-1.2 1.5-.1.2v.4l-.2.4v11.8c0 1.3.1 2.4-.3 3.6M767.4 645c-.9-1.5-1.5-3.1-1.9-4.8-.4-1.2-.7-2.4-.7-3.7 0-1.5.1-2.8.4-4.2M787.3 658.2c-1.3-.2-2.8-.3-4.1-.7-3.5-.9-6.8-2.6-9.6-4.9M747.5 647.1l.2-.1 1.6-1 6-3.7 1.6-1M808.9 617c-3.5-4.1-8.2-7-13.3-8.3-1.9-.5-4-.7-6-.7M795.1 657l.5-.1.5.1 1.2-.4c.5 0 .4.1 1 0 .5 0 1-.3 1.5-.5M768.8 625.1l.1.6M769 622.5l.2.8.2.7v.1M767.4 611.8c-.2-1.1-1-2-1.5-2.9l-2.1-3.4-1-1.5-.3-.3-.2.7-.4-.3c-.6-1-.4-.4-.4-1.9M767.8 1262.8h.7M764 1249.2l.7-.1M757.7 1232.2l-.2.6M757.9 1231.7l.4-.9"/>
    <path class="st1"
        d="M745.3 1221.7c.7-.8.3-2.2-.8-3.1s-2.5-.9-3.1-.1c-.6.9-.3 2.2.8 3.1 1 .8 2.5.9 3.1.1zM765.4 1218.2l-.7-.1"/>
    <path class="st1"
        d="M810.9 1208.6l-.3-.1.3.1zM811.2 1209.1l-.3-.6M818.9 1205.4c.4-.8.7-1.9.7-2.7"/>
    <path class="st1"
        d="M820.3 1201.7zM818.9 1206.6c.5.1 1.2-.9 1.5-2.2.4-1.3.3-2.5-.2-2.7M811.8 1220.9c.5 0 1-.4 1.6-1.1M808.6 1211.3c.2-.7.1-1.3-.4-1.5M807.7 1208.9c0 .4.3.8.6.9"/>
    <path class="st1"
        d="M821.1 1201.2c-.6-.2-1.5 1.1-1.9 2.8-.5 1.7-.3 3.3.3 3.5.6.1 1.4-1.1 1.9-2.8.4-1.8.3-3.4-.3-3.5zM811.5 1220.4c.4 0 .8-.3 1.2-.7"/>
    <path class="st1"
        d="M814.1 1196.3c-.6-.1-1.5 1.2-1.9 2.9-.5 1.7-.3 3.3.3 3.4s1.4-1.2 1.9-2.9c.4-1.7.3-3.2-.3-3.4zM811.9 1221.1c.6.2 1.3-.3 2-1.1"/>
    <path class="st1"
        d="M813.3 1196.8zM812 1201.8c.5.1 1.2-.9 1.6-2.2.3-1.3.2-2.5-.3-2.7M804 1229.1l-.1-.4-.2-.1M796.5 1245.2l.2.1.4-.2M814.7 1220.9l-.4-.7-.4-.2M813 1219.3c0 .3.3.5.8.6M811.9 1200.6c.4-.7.7-1.9.7-2.7M811.1 1218.4c0 3.8 1.6 4.9 3.6 2.5M795.7 1246.1l.2-.7M767.9 1263h.8M748 1228.7c0-.1-.2-.5-.7-.8"/>
    <path class="st1"
        d="M747.9 1228.7zM747.7 1229c-.1.3-.1.9.1 1.3M759.5 1247.3c0-2.2-1-4.5-2.6-6.3"/>
    <path class="st1"
        d="M763.9 1230.1l.1-.2-.1.2zM757.9 1231.7c2.6.6 4.8 0 6-1.6M756.6 1208.8c-.3.8 0 1.9 1 2.7 1 .8 2.2 1 2.9.4M763.8 1229.5c.4-.6.7-1.3.8-2M758.3 1230.9c2.3.6 4.3 0 5.4-1.3M747.6 1228.8c-.4.2-.4.9-.2 1.4l.2.2"/>
    <path class="st1"
        d="M747.9 1228.7l-.3.1.3-.1zM764 1230.1l.1-.2-.1.2zM758.1 1231.4c2.4.7 4.6.1 5.8-1.3M795.2 1245.5l.7-.1"/>
    <path class="st1"
        d="M808 1231.2zM809.6 1232.5c-.5-.7-1-1.2-1.6-1.3M810.6 1235.1c-.2-1.1-.6-2.1-1-2.7M795.1 1246l.1-.5"/>
    <path class="st1"
        d="M794.9 1246.2zM776.3 1237.9c-6 .6-10.1 4.3-11.4 9.5M769.6 1239.8c-3.6 2.2-5.2 6.1-4.9 10.5M778 1238c-2.1-.2-4 0-5.6.5M772.7 1238.5c-1.5.3-2.8 1-3.8 1.8M741.6 1218.2c-.4.9.1 2 1 2.7.9.8 2.1.9 2.9.4M764.6 1218.5l.6.9M774.2 1230c1.8 2.1 4 3.4 6.3 4M808.5 1230.9c-2.3-.6-5.2 2.3-7.7 7.3M811.5 1236.6c-.4-3.4-1.5-5.3-3-5.7M797.2 1245.7M796.6 1245.9l.6-.1M774.7 1229.5c1.7 1.9 3.9 3.3 6 3.8M765.4 1218.2l.2.7M765.6 1218c.2-.3.1-.8-.3-1.4"/>
    <path class="st1"
        d="M765.4 1218.2l.1-.2-.1.2zM784.7 1239.8c-2.6-1.2-5.1-1.7-7.4-1.8M759.2 1246.5c-.1-1.3-.6-2.6-1.2-3.8M753.8 1203.1l-.1.4v.2"/>
    <path class="st1"
        d="M745.6 1222.5c.8-1 .3-2.8-1-3.9-1.4-1.2-3.2-1.2-4-.2-.9 1.1-.4 2.8 1 3.9 1.3 1.1 3.1 1.3 4 .2zM760.5 1213c.8-1 .4-2.7-1.1-3.9-1.3-1.1-3.2-1.2-4-.1-.9 1-.4 2.8 1 3.9 1.5 1.1 3.3 1.2 4.1.1zM760.3 1212.3c.6-.9.3-2.2-.8-3.1s-2.5-.9-3.2-.1c-.6.9-.3 2.2.8 3.1 1 .8 2.4.9 3.2.1zM770.2 1240c-.1 5.9 2 12.2 5.4 17.7 7.4 11.6 19.5 17.2 27.1 12.6M787.3 1241c-7.9-4.8-16.5-4.2-20.8 1-2.7 3.5-3.1 8.3-1.3 13M767.1 1218.4c-.1.3.1.9.5 1.4M767.1 1218.4c.3-.3.1-.9-.3-1.5M764 1231.4c.8-.9 1.1-2.1 1.1-3.3M757.5 1232.9c2.8.7 5.2.1 6.5-1.5M764.6 1227.7l.6.4M765.2 1217.8l-.5.5M765.6 1218l-.4-.2M788.9 1241.7l-1-.5M794 1245.3c-1.7-1.5-3.4-2.7-5.1-3.6M795 1246.2l.7-.2.3-.7"/>
    <path class="st1"
        d="M818.9 1214.1l-.3-.1.3.1zM819.3 1215.4c.1-.5 0-1-.3-1.3M809.4 1207.4c-.2.9.2 1.4.9 1.4"/>
    <path class="st1"
        d="M810.4 1208.8zM810.5 1209.5l-.1-.7M815.1 1190.9l-.1-.6M818.1 1213c-.2.4-.2.9 0 1M819.2 1215.3v-.4c0-.4-.3-.7-.6-.8M813.6 1241.5c-.6-2-4-2.9-8.9-2.8M813.7 1242l-.1-.5M770.6 1249.4c-3.9 2.6-5.5 4.9-5.2 6.7M807.2 1231.6c-.4-.1-.9-.1-1.2 0M808.2 1232.1l-1-.5M814.2 1253.7c1.5-8-1-16.1-6-21.6M803.7 1269.7c2.5-1.6 5-4.2 6.6-6.5M795.7 1273.3c2.5-.6 5-1.6 7.1-3M786.4 1273.9c3.3.4 6.4.1 9.2-.6M772.8 1267.6c3.8 3.5 8.8 5.7 13.7 6.3M765.8 1257.3c1.4 4.1 4 7.7 7 10.3M764.7 1251.1c0 1.6.2 3.1.6 4.5M767.2 1241.9c-1.3 1.6-2.1 3.9-2.4 6.4M809.9 1234.1c-.5-1.6-1.2-2.6-2.2-3M746 1221.2l-.4-.5M753.7 1203.8l-17.7 11.2M759.5 1260.6l8.3 2.2.1.2M735.8 1214.4l18-11.3M757.5 1232.8v.1M760.9 1211.8l-.3-.5M811.9 1221.1l-.2-.2M811.6 1220.7l.2.2M808 1231.2h-.5M808.6 1211.3l-1 3.1M815.1 1190.9l8.3 5.7M813 1219.3l-.3.4M808 1231.2l-.5-.1M802.3 1228.2l1.3.4M796 1245.1l.5.1M818.1 1213l-5.1 6.3M819.2 1215.3l-4.5 5.6M747.2 1228l.1-.1M767.9 1263l-8.7-2.3M747.7 1230.4l.1-.1M735.8 1220.7h.2M747.7 1229l.2-.3M756.9 1241l-9.1-10.7M759.5 1260.6v-13.3M758.1 1231.4l-10.2-2.7M796 1245.1l-.1.3M795.2 1238v7.5M774.2 1230l-9-10.6M795.2 1238l-14.7-4M780.6 1233.4l15.3 4.1M765.6 1219l9.1 10.5M740.6 1226.1l-.1.1M753.8 1203.1l.5-.7M767.6 1219.9l2.9 3.3M757.5 1232.9l-9.7-2.6M765.2 1219.4v8.7M795 1246.2l-1-.9M818.2 1213.9l.5.1M818.5 1214.1l-.4-.1M802.8 1270.3l.9-.6M809.9 1234.1v.1M808.2 1209.8v2.9"/>
    <path class="st1"
        d="M759.2 1260.7l.3-.1-.3.1zM768.2 1263.1l.7.1M758 1242.7c-.4-.6-.8-1.2-1.3-1.8M757.9 1231.7l-.2.4M740.1 1219.6c1.1-.2.7 0 1.4-.8M764.7 1216.9l.3 1M810 1207.4l-.2.1-1.7-.4M810.1 1208.2l-.1-.1M820.2 1206.9c-.8-.9-.3-.7-1.3-.9"/>
    <path class="st1"
        d="M809.9 1208.7l.3-.3-.3.3zM810.3 1208.8l.3-.3-.3.3zM810.1 1208.2l.6.2M806.9 1223.1c-.6-.3-1.3-.4-1.8-.5M811.7 1220.8l-.3-.6M813.3 1202.1c-.8-.9-.3-.6-1.3-.9M810 1201.3h-.2c-.6 0-1.1-.3-1.7-.4M818.3 1213.9h-.1l-1.2 1.5-2.4 3-1.2 1.5M811.1 1209.7l-.6-.2"/>
    <path class="st1"
        d="M818.2 1213.9l-.1-.3.1.3zM806.2 1231.5c.6-.3.3-.2 1-.3M807.7 1231.2c-.6 0-.3-.1-.7 0M811.5 1220.3c-.2-.7-.2-1.4-.2-2.1M796 1237.3l1.1.3M813.8 1220l1.2-1.5 2.4-3 1.1-1.4.2-.1M805.2 1232.2c.4-.3.7-.5 1.2-.7M805.2 1232.2c-.6.5-1.2 1.1-1.7 1.7M811.1 1218.4l.2-.1v-9M795.9 1237.5l-.7.5M796 1237.3c-.6.7-.1.1-.1 2.1v6.1M780.5 1234c.1-.6.4-.9.8-1.3M764.7 1216.9c.6-.1.7-.4 1.2-1M759.4 1260.8l.2.2 1.8.4 5.1 1.4 1.8.5M768.2 1263.1v.2l.8.1M759.2 1247.1v13.600000000000001M759.5 1247.3c-.4-.1-.3-.4-.3-.9M747.6 1228.8l-.4-.8M753.7 1203.8l1.8.5 2.8.8 1.8.4 1.2 1.4 2.2 2.5 1.2 1.4v7.3999999999999995M753.8 1203.1l1.8.6 3.1.7 1.8.6 1.2 1.4 2.3 2.7 1.3 1.4M755 1210.2c1.2-.3.7.1 1.4-.8M764 1230.1c.3-.6.1-.3.4-1M747.5 1229l.2-.1 1.8.5 6.6 1.8 1.8.5M736 1215v5.7l1.2 1.4 2.2 2.5 1.2 1.5 1.8.4 14.2 3.8 1.7.6M747.7 1230.4l9 10.6h.2M818.1 1213.6v-.6M765.6 1219l-.5.4M764.7 1210.8l.6-.3M811.3 1209.3l-.1.4-.6 1.8-3.4 10.7c-.6 2.1-1.3 4.1-2.5 5.9-.5.9-1.2 1.7-1.8 2.5l-4.6 5.6-1.2 1.4v5.699999999999999c0 .3-.3 1.8.1 2.4M797.2 1245.7c1-2.6 2.1-5.2 3.6-7.6M796 1245.5l.6.4M813.5 1190l-1.2 1.4-.8 1-1.1 1.4-.6 1.8-1.1 3.6-.6 1.8v6.199999999999999c0 .6-.4 1.1-.4 1.6v5.6M811.3 1209.3l-.1-.2M765.9 1209.8c-1 1.2-.6.4-.6 2.5v4.2M735.8 1214.5l.3.4M764.4 1229.2c.1-.5.2-1 .2-1.6M774.2 1230c.5-.3.7-.7 1.1-1.2M754.3 1202.4l1.8.5 3.2.9 1.8.4 1.2 1.4 2.4 2.8 1.2 1.4v6.1l.8 1M760.1 1205.5c.3-.4.6-.9 1-1.3M747.3 1228l-1.9-.4-3.1-.9-1.8-.5-1.2-1.4-2.3-2.6c-1.6-1.9-1.2-.8-1.2-3.3v-2.4c0-1.3-.3-1.9.6-2.7l1.5-1 14.8-9.3 1.6-1M764.7 1218.2l-.1.2v9.200000000000001M787.9 1241.3c-1.1-.5-2.3-1.1-3.5-1.6M796 1237.3c0 2.7.1 5.4 0 8M819.3 1215.4l-.6 1.8-3.3 10.6c-.6 2.1-1.2 4-1.4 6.1-.1 1.3-.1 2.5-.1 3.9v4.6M810.4 1193.9c.4.1 1.5.1 1.7.8M809.4 1207.4v-6.1l.5-1.8 1.2-3.5.5-1.8 1.2-1.4.8-1.1 1.2-1.4M796.6 1245.9c-.3-.6-.1-2-.1-2.5v-6l1.2-1.5 4.7-5.8c.7-.9 1.4-1.6 1.9-2.6 1.1-1.8 1.8-3.6 2.4-5.5l3.4-10.7.5-1.7M815.1 1190.9l-1.1 1.5-.7.7-1.2 1.5-.5 1.8-1 3.1-.6 1.8v6.8M818.1 1213l1.2-1.5.9-1 1.2-1.4.5-1.8 1-3.1.5-1.8v-6.1l-.1-.1-1.5-1.1-5.3-3.6c-1.8-1.3-1.2-1-3-1.5M813.8 1242.2v-4.5c0-1.4 0-2.7.1-4.1.2-2 .8-3.9 1.4-5.8l3.3-10.7.5-1.8M800.2 1239.1c1.5-.2 3-.3 4.5-.4M770.6 1249.4c5.5-3.6 11.6-6 17.9-7.9M810.3 1263.1c1.1-1.6 2.1-3.3 2.8-5.1.5-1.4.9-2.8 1.2-4.3M765.3 1255.6l.1.5.4 1.2M764.8 1248.2c-.1.9-.1 1.9-.1 2.8M1023.3 840.1v-5.3M1023 835.3l.3-.5M1023 834.7l.3.1M1018.1 841.3l-129.2 160M1019.1 855.3l-129.2 160M759.2 1258.9l-434.4-117M750.5 1233.7l-417.1-112.4M748.8 1231.7l-413.8-111.4M770.5 1224.6v-99.7M315.3 1002.3v97.8M314.3 1101.1v-99M770.5 1124.9l-456.2-122.8M853.9 1044.6l-.3.5M853.9 1044.6l-.3-.2M289 1101v-121l506.8 136.5M1088.6 880.2l-269.7 333.9M807.6 1231.2v.1M1094.6 898.8l-280.1 346.8M853.9 1049.9v-5.3M1090.6 881l-272.2 336.9M807.7 1231.2l-.1.1M1097.1 853.5v-94.7M1099.1 756.2l-39.8 49.4M1058.3 791.5l52.7-65.2M1111 848v-121.7M1099.1 756.2v98.3M848.7 1051.1l-1.1 1.4-50.5 62.5c-1.6 1.9-1.2.9-1.2 3.4v119.10000000000001M807.6 1218.8v-99.8c0-2.5-.3-1.3 1.2-3.3l38.7-48 1.1-1.4M1105.3 855.9l-.2-.3-.2-.1M1102.7 856.9c.4 0 1-.2 1.4-.6M1103.3 857.5c.5-.1 1.2-.4 1.7-1.1M1090.8 849.6l-.4-.4M1095.9 853.5l.6.6M1092.9 872.7l.4.5M1094.7 874.3c-.1-.5-.6-1-1.3-1.1M1093.8 883.2l.5-.3M1094.6 884.6c-.1-.7-.5-1.2-.8-1.5M1095 887.1l.6-.1M1095.3 884.5c-.2-.7-.4-1.2-.7-1.5M1090.1 879.9c-.1-.3-.6-.6-1-.7M1088.5 879h-.5M1084.3 876.7c.4-.8.7-1.9.7-2.7M1091.3 854.7c.4-.8.7-1.9.7-2.7"/>
    <path class="st1"
        d="M1093.5 850.4c-.6-.1-1.5 1.1-1.9 2.8-.4 1.8-.3 3.3.2 3.5.6.2 1.4-1.1 1.9-2.8.5-1.8.4-3.4-.2-3.5zM1085.8 873zM1084.3 877.9c.5.1 1.2-.9 1.6-2.2.3-1.4.2-2.6-.2-2.7M1084.3 883.4l.4-.4M1092.9 872.7c1-1.2 1.8-3 2.4-5.1.4-1.5.6-3.1.6-4.3M1096.5 863.2l-.2-.1-.4.2M1096.5 863.2c.7.2 1.4.1 1.7-.2M1081.9 881.7h.4l.2-.2M1093.8 845.9l-.3-.6M1108.5 857.1c-1.9 1-3.9 3.6-5.7 7.1M1111.7 855.8c-1-.1-2.1.4-3.1 1.3M1118.7 869.5c-.2-1.5-.4-3-.9-4.2M1117.7 879.9c1.1-3.6 1.4-7.2 1-10.4M1117.8 865.1c-1.1-3.7-3.1-7.2-5.6-9.8M1098.4 890.8c3.3-3.3 6.1-7.6 8-12.1M1108 874.3c2.2-6.7 2.4-12.9 1.1-17.6M1088.7 879.1l-.2.6M1096.8 853.3l-.3.5M1098.2 854.3l-.1-.3-.2-.2M1097.6 867.6c.2-1.1.4-2.2.5-3.1M1089.4 880.2h.4l.2-.3"/>
    <path class="st1"
        d="M1086.6 872.5c-.6-.2-1.5 1.1-1.9 2.8-.5 1.8-.4 3.3.2 3.5.6.2 1.4-1.1 1.9-2.8.5-1.8.3-3.4-.2-3.5zM1092.7 850.9zM1091.3 855.9c.5.1 1.2-.9 1.6-2.2.3-1.4.3-2.6-.2-2.7"/>
    <path class="st1"
        d="M1112 846.7zM1112.3 847.1l-.3-.4M1114 887.1c1.7-2.3 2.9-4.8 3.7-7.2M1110.7 890.9c1.3-1.2 2.5-2.5 3.4-3.7M1100.5 896.5c3.8-1 7.3-3.1 10-5.5M1107 858.4l-.2.1M1106.8 858.6l.5-.5M1103.7 855.1l1.2.4M1102.3 856.8l.4.1M1089 848.9l1.3.3M1112.8 856.7l-.7-.9M1093.8 845.9l2.1 1.5M1111.8 846.6v-.3M1111.8 846.6v-.3M1084.2 883.4l-2.3-1.7M1084.7 882.9l-2.1-1.4M1093.8 883.2l-1.3-.4M1093.8 883.2l-4.3-3M1095 887.1l-1.3-.3M1087.8 879h.1M1111.8 846.3l-.8-.3M1094.6 900.7v.4l-1.5-.4M1092.9 872.7l-8.2 10.2M1081.9 881.7l-1.2-.3M1092.2 845l1.3.3M1112.1 855.9l-.4-.1M1117.8 865.1v.2M1088.5 879.7v.2M1097.3 853.5l-.5-.2M1111 846.1l.8.2M1111.6 846.6l.4.1M1111.6 846.6l.2-.3M1110.5 891l.2-.1M1084.3 877.4c1 .3.6 0 1.4.9M1108.5 857.1l-1.3 1.1M1104.1 856.3c.7-.7 1.3-1.5 1.9-2.3l4.7-5.8 1.2-1.5M1103.3 857.5h-.3c-.7-.2-1.4-.8-2.1-1.3l-1.1-.8-1.5-1M1112.3 847.4c-2.5 3-4.8 6-7.3 8.9M1102.4 857.2l-.2-.5M1098 853.8l1.6 1 1.2.9 1.5 1.1h.1M1080.7 875.3c.4.1 1.3.5 1.9.4M1091.3 855.3c1 .3.6 0 1.4.9M1095.9 853.5l.1-.3M1098.2 854.3h-.3c-.4 0-.9-.1-1.4-.2M1096.8 853.3l-.8-.3M1095 900.8v-11.8c0-1.5 0-3-.4-4.4M1095.3 884.5c.3 1.4.2 2.8.2 4.3v11.5M1090.1 879.9l1.5 1.1 1.2.7 1.5 1.1.3.3M1088.5 879h.1l.5.2M1087.4 879.8c.6.2 1.1.2 1.5.6l1.4 1M1097.3 853.5c-.7.4-.3 2.4-.3 2.5v5.5c0 1 .1 2.1-.1 3.1-.2 2.4-.8 4.7-1.9 6.8-.6 1.2-1.5 2.3-2.4 3.4l-2.4 3c-.1.2-1.6 1.5-1.3 2.3M1095.9 863.3v-16.000000000000004l-.1-.3-1.1-.7-1.1-.8M1084.3 883.4l-1.4-.5-2.2-1.5M1093.8 845.9l-1.2 1.5-.6.7-1.2 1.5-.6 1.8-7.1 22.5-.5 1.8v5.8M1094.8 900.7l-.2.4-.1.1-1.6-.3M1102.8 864.2c-2.4 5-4 10.2-4.8 15.6-.4 3.3-.6 6.7.1 10M1081.9 881.7v-6.1l.6-1.7 7.3-23 .5-1.7 1.2-1.4.8-1.1 1.2-1.4M1108 874.3c-.4 1.5-1 2.9-1.6 4.3M1096.5 853.9v7.5c0 1 0 2.1-.1 3.1-.2 2.7-1 5.5-2.4 7.8-.6.9-1.2 1.6-1.8 2.4l-2.4 3-1.1 1.5M1097.9 853.8c-.4-.2-.7-.3-1.2-.4M1098.1 864.5c.1-1.1.1-2.1.1-3.3v-6.8M1090.1 879.9l1.2-1.5 2.2-2.7 1.9-2.4c1-1.8 1.7-3.8 2.3-5.7M1087.5 879.5c.6.2 1.3.3 1.9.7M1094.6 900.7l.4.1.4-.1 1.2-1.4 1.7-2.1c.6-.8 1.3-1.3 1.6-2.3-.3-.5-.7-1.1-.9-1.7-.6-1.3-.7-2.8-.9-4.3M1112.3 847.1v5.8c0 1 .1 1.9-.2 2.9M1080.7 881.4v-6.1l.6-1.8 7.2-22.9.5-1.7 1.2-1.5.8-1 1.2-1.4M1117.7 879.9c0-.4-.2-.7-.5-.9-.9-.8-1.9-1.3-2.9-1.9-1.8-.9-3.7-1.7-5.6-2.5-2.8-1.2-5.7-2.3-8.6-3.3M1098.3 897c.7-.1 1.5-.3 2.3-.5M1106.8 858.5c-.6.7-1.2 1.3-1.7 2M1034.5 973.2c3.9-.6 8.2-5 12.2-11.6M1034.4 975.5c4.1-1.9 8.2-6.2 11.7-12.1M1046.7 961.6c1.9-3.1 3.4-6.2 4.9-9.6M1034.4 975.5c-.8.4-1.6.8-2.5 1M1052.4 951.1c-1.7 4.2-3.8 8.3-6.2 12.3M774.1 1286.3c1.4.2 3-.3 4.6-1.5M770.8 1282.5c.7 1.6 2.1 2.7 3.4 2.8M736.9 1287.3c1.5 2.2 3.4 3.7 5.3 4.4M732.8 1271c.2 7.6 1.8 13 4 16.3M735.6 1275.5c.7 9.7 3.4 15.3 7.3 16.5M732.8 1269.1c.1 1 1.2 1.9 2.7 2.4M759.2 1277.7c2.3.6 5.1.1 6.2-1.3M765.4 1278.4c.3 9.9 2.9 15.5 6.7 16.6 4.6 1.2 10.3-4 15.6-13.3M759.3 1281.9c.7 11.3 4.2 16.9 9.2 16.8 1.9.2 4.1-.3 5.9-1.3 4.2-1.9 8.2-6.3 11.7-12M769.1 1271.8c0 8.6 2.1 13.7 5.3 14.6 3.9 1.1 8.8-3.7 13.1-11.9M769.5 1269.5c-.3 9.4 1.8 15 5.2 16 3.7 1 8.3-3.4 12.4-11M778.8 1284.7l-.2.1M774.2 1285.4l.8.2M742.2 1291.7l.7.3M732.8 1269.1v1.9M766.6 1298.4l-23.7-6.4M759.2 1277.7l-23.7-6.3M787.9 1274l-.4.6M787.4 1274l-.3.6M769.5 1271.3l-.4-.1M735.6 1275.5c0-2.1-.1-4.2 0-6.2.1-5.5.9-10.9 1.8-16.2M732.8 1269.1c0-2.1.1-4.3.3-6.5.3-3.5.7-7 1.4-10.4M765.4 1278.4c-.1-5.2.3-10.4 1.1-15.6M791.6 1274c-1.1 2.7-2.4 5.2-3.8 7.7M759.3 1281.9c-.1-2.8-.2-5.6 0-8.5.1-4 .7-8.1 1.3-12.1M791.9 1273.9c-1.7 3.9-3.6 7.7-5.8 11.4M769.1 1271.8c0-2.6.2-5.1.5-7.6M769.5 1269.5c.1-1.7.2-3.3.4-5M288.4 1109l.3.9M326.8 1125.1l.4.1M324.1 1130.1h.2l.4-.2M315 1140.6l.8.5M326.8 1125.1c-1.8 1.1-2.7 2.9-2.7 5M340.8 1110.3c-.4.8.1 2 1 2.7 1 .8 2.1.9 2.9.4M320.6 1107.3c0 3.1 2.8 6.4 6.3 7.4M325.1 1087.7v.7M320.6 1107.3l-.6.1M318.5 1107.9c.4.1.9 0 1.2-.2M326.2 1126.1c-.9 1.1-1.4 2.4-1.4 3.9M335.8 1119.4h.6M318.5 1107.9c0 3.7 3.4 7.7 7.6 8.9M318.4 1098.6l.1.4v.1M337.2 1118.6l-.4-.6"/>
    <path class="st1"
        d="M336.9 1119l.3-.3-.3.3zM320 1107.4c0 2.2 1.3 4.5 3.3 6.1 1.1.9 2.3 1.5 3.5 1.8"/>
    <path class="st1" d="M319.2 1097.8l-.2.2.2-.2zM320 1098.1l-.1-.1-.6-.2"/>
    <path class="st1"
        d="M344.5 1113.8c.6-.8.3-2.2-.8-3.1-1.1-.9-2.5-1-3.2-.1-.7.8-.3 2.2.8 3.1 1.1.8 2.5.9 3.2.1zM325.8 1092.8c-.4.8.1 1.9 1 2.7 1 .7 2.2.9 2.9.4M319.1 1127.2c-.2-1.6-.7-3.1-1.3-4.6M318.5 1134.7c2.9-6.3-.3-15-7.3-20.7-4.7-3.8-10.1-5.5-14.9-5.3"/>
    <path class="st1"
        d="M329.5 1096.3c.6-.9.3-2.2-.7-3.1-1.1-.9-2.5-1-3.3-.2-.6.9-.3 2.2.9 3.1 1 1 2.5 1 3.1.2zM309.3 1104.2v.6l.1.1M326.3 1115.9l-.2.7M326.5 1115.5l.3-.9"/>
    <path class="st1"
        d="M329.8 1097.1c.8-1 .3-2.8-1-3.9-1.4-1.1-3.3-1.2-4.1-.1-.8 1-.4 2.8 1 3.9 1.4 1 3.2 1.1 4.1.1zM288.2 1109c.1.5.3.9.5.8M295.8 1108.7c-2.7-.1-5.1.3-7.1 1.2M318.2 1123.6c-3-7.8-11.1-13.8-19.1-14.6M287.7 1108.1c0 .5.1 1 .4 1h.1M303.4 1104.9c2.3.6 4.4.3 5.9-.7M319.7 1098.5l-.2-.4h-.6l-.1.1M319.7 1107.6c0 3.4 3 6.9 6.8 7.9M337.1 1118.7l-.4-.4"/>
    <path class="st1" d="M337.1 1118.7zM336.4 1119.5l.1-.1c.4-.2.6-.5.6-.6"/>
    <path class="st1"
        d="M344.7 1114.6c.8-1 .4-2.8-1-3.9-1.4-1.2-3.2-1.2-4-.2-.9 1-.4 2.8 1 3.9s3.2 1.2 4 .2zM318.5 1099.1l.6-.2c.4-.2.8-.5 1-.8M303.2 1105.5c2.5.7 4.7.4 6.3-.6M288.2 1100.8l.1.7M281.1 1118.3c-.1 2.8.3 5.6 1.1 8M282.3 1126.5c2 6.4 6.8 11.7 12.5 14.7M295.1 1141.3c2.5 1.3 5.2 2.1 7.7 2.4M303.1 1143.7c2.2.3 4.5.3 6.5 0M315 1140.6l.4.6M316.3 1139.2c1.1-1.4 1.8-2.9 2.1-4.5M315 1140.6c.5-.4 1-.9 1.3-1.4M325.1 1088.4l-4.5 2.9M288.4 1109v-7.5M345.2 1113.3l-.4-.5M324.8 1130l.6-.8M319.3 1128.3l-.2-1.1M316.2 1141.4l.1.2M315.8 1141.1l8.3 2.3M324.6 1143.7l.3.1M324.9 1143.4v.4M315.9 1141.3l-.1-.2M325.4 1142.1M325.1 1087.7l-4.8 3.1M329.8 1095.3l.4.6M326.8 1114.7l17.9 4.7M320.6 1097.4v9.9M325.1 1087.7l.6-.7M319.7 1107.7l.3-.3M324.8 1143.6v-13.6M326.1 1116.8l9.7 2.6M318.5 1099.1v8.8M349.2 1116.6l-4.5 2.8M326.7 1115.3l10.1 2.8M320 1098.1v9.3M319.1 1127.4v-.2M309.3 1104.2l.6-.7M326.1 1116.6v.2M303.4 1104.9l-15.2-4.1M319.7 1107.6v-9.1M336.6 1118.3l-10.1-2.8M309.4 1104.9l9.1-5.8M288.3 1101.4l14.9 4.1M288.4 1100.5l-.2.3M282.3 1126.5l-.1-.3M295.1 1141.3l-.2-.1M303.1 1143.7h-.3M325.4 1142.1M319.1 1131.1l.2-.7v-1M339.2 1111.7c1.2-.2.7 0 1.4-.8M350.4 1109.8c-.4.6-.6.9-1.2 1M349.2 1116.6l.6.1M319 1132.3l.3-1.9M336.3 1119.5l-1.6.9-5.9 3.8c-1 .7-2 1.2-2.8 2.1M319.6 1129.6c-.5-.2-.3-.7-.3-1.4M326.2 1142.3l-1.3 1.6-1.8-.5-5.1-1.3c-.8-.2-1.9-.3-2.6-1M331.5 1090.1l.9-1.3M320.3 1090.9l.3.4M320.3 1096.8c-.4.3-.7.6-1 1M349.2 1116.6v-5.8l-1.3-1.4-15.2-17.9-1.2-1.4-1.8-.4-2.9-.8-1.7-.5M344.9 1119.7l-1.8-.5-3.2-.8c-.8-.2-1.6-.1-2.1-.7M338.1 1117.9l-.9.7M326.8 1125.1l1.6-1 5.9-3.8 1.6-1 .2-.3.7-1 1-.4M324.6 1143.6l-.4-.3v-13.3M320.6 1097.4c-.7-.5-.3-1.4-.3-2.2v-4.2l.1-.1.6-.8 1.5-1 3.2-2.1M325.8 1093.5c-.7.9-.3.6-1.4.8M320.3 1096.5c-.4.2-.7.4-1.1.8l-1.1 1c-1.1.9-2.5 1.6-3.7 2.4M303.9 1104.1c-.4.5-.7.8-.8 1.4M287.7 1108.1l.4.3M288.1 1109c-.3-.7-.1-2-.1-2.5v-6.1l1-1.3M349.8 1116.6v-6.1l-1.2-1.4-15.5-18.1-1.3-1.4-1.8-.5-3.1-.9-1.8-.5M325.7 1087l1.8.5 3.1.9 1.8.4 1.3 1.4 15.5 18.1 1.2 1.4v6.1l-.6.7-3.2 2.1-1.6 1h-.1l-.2-.3"/>
    <path class="st1"
        d="M326.5 1115.5l-.2.3.2-.3zM287.2 1135.2c.8.4 1.8.1 2.6-.2 1.8-.7 3.5-1.7 5.2-2.7 7-4.3 13.2-9.7 19.2-15.2"/>
    <path class="st1"
        d="M288.2 1108.8l.3.2-.3-.2zM288.2 1109v-7.999999999999999M299.1 1109l-3.3-.3M289 1098.8l-1.3 1.6v7.699999999999999M288.4 1100.5l-.7-.1M318.8 1098.2c-.6.5-1.3.9-2 1.4l-5.9 3.7-1.6 1M320 1098.1l.6-.7v-6.1M281.1 1118.3c0-4.7 1.5-9.4 4.1-13.3.7-1.2 1.5-2.2 2.5-3.2M316.7 1141.7c-2.2 1-4.7 1.7-7.1 2M318.2 1135.7c-3.9-3.7-7.5-7.7-11-11.7-4.2-4.9-8.2-10-11.9-15.2M315.4 1141.1c.7.3 1.5.5 2.3.7l5.1 1.3 1.8.4h.1l.2-.3M319.1 1131.5c-.2 1.1-.4 2.1-.7 3.2M402.5 1183.4c.8 1.5 2.1 2.6 3.4 2.8M405.8 1187.1c1.3.3 3-.3 4.6-1.4M410.4 1164.9c.3 1.2 1.1 1.8 2.1 1.8M401.2 1170.4c-.3 9.4 1.8 15 5.2 16 3.7 1 8.3-3.4 12.5-11M400.8 1172.7c0 8.6 2.1 13.7 5.4 14.6 3.8 1 8.7-3.7 13-11.9M397 1177.3c0 10.9 2.7 17.4 6.8 18.5 4.3 1.2 9.6-3.4 14.6-11.5M390.9 1180.7c.4 10.8 3.1 17.2 7.4 18.5M368.6 1188.2c1.3 2.1 3.3 3.6 5.3 4.4M364.6 1171.9c.2 7.5 1.7 13 4.1 16.3M367.3 1176.3c.7 9.7 3.4 15.2 7.3 16.4M400.3 1199.5c1.9.1 4.1-.3 5.9-1.3 4.1-1.9 8.1-6.3 11.6-12.1M364.6 1169.9c0 1 1.1 1.8 2.7 2.3M390.8 1178.6c2.4.6 5.1 0 6.2-1.3M411.3 1165.2c.6 1.9 1.9 2.1 3.4.9M405.9 1186.3l.8.2M410.5 1185.6l-.1.1M401.2 1172.2l-.4-.2M373.9 1192.6l.7.2M364.6 1169.9v2M390.8 1178.6l-23.6-6.4M401.2 1170.4c.1-2.6.4-5.2.7-7.7M422.2 1168.1c-.9 2.5-2.1 4.9-3.3 7.3M400.8 1172.7c0-3.4.3-6.8.9-10.1M422.5 1168.2c-1 2.5-2.1 4.9-3.3 7.2M418.4 1184.3c2.8-4.8 5.2-10 7.2-15.3M392.7 1160.2c-.9 4.6-1.5 9.3-1.8 14-.1 2.2-.1 4.3-.1 6.5M367.3 1176.3c0-2.1-.1-4.2 0-6.3.1-5.5.8-10.9 1.8-16.2M400.3 1199.5c-1.3-.1-2.5-.4-3.9-.9l-20-5.4-1.8-.5M425.9 1169.1c-2.2 6-4.8 11.6-8.1 17.1M364.6 1169.9c0-2.2 0-4.3.2-6.5.3-3.5.8-7 1.4-10.4M398.5 1161.8c-.5 3-.9 6-1.2 9.1-.1 2.1-.2 4.3-.3 6.5M858.4 1085.9c-.1-1.8-1.7-3.4-3.8-3.7M877.9 1057.6l.2-.6"/>
    <path class="st1" d="M877.8 1057.8l.1-.2-.1.2zM865.1 1073.6l.1-.6"/>
    <path class="st1" d="M864.9 1073.7zM878.4 1057l.1-.6"/>
    <path class="st1" d="M878.3 1057.1zM872.2 1049.4l.1-.4M865.5 1073l.1-.6"/>
    <path class="st1"
        d="M865.4 1073.2l.2-.1-.2.1zM854.5 1082.2zM854.2 1083l.3-.9M854.4 1090.8c-.3 0-.7.6-1 1.5-.1.7-.1 1.2 0 1.5M853.5 1093.9c.4.1.8-.5 1-1.4s.2-1.6-.1-1.8M870.1 1074.4c-.3-.1-.7.5-.9 1.4-.2.7-.2 1.3-.1 1.6M869.3 1077.5c.4.1.8-.6 1-1.4.2-.9.1-1.6-.2-1.7M876.7 1033.5c-.4-.1-.8.2-1.2.6"/>
    <path class="st1"
        d="M876.8 1033.5zM860.5 1062.7l-.3 1.5c-.8 5.1.3 9.5 2.4 9.8 1.7.3 3.5-2.2 4.7-5.9M864.5 1047.8c-.4.4-.7 1.1-1 1.9"/>
    <path class="st1"
        d="M852.5 1058.2c-.3-.1-.7.6-1 1.4-.2.9-.2 1.6.1 1.8.3.1.7-.6 1-1.4.3-.9.1-1.7-.1-1.8zM854.2 1083c0 4.4 1.9 5.6 4.2 2.8M871.9 1032.1c-1.1-.1-2.3.7-3.3 2.5"/>
    <path class="st1"
        d="M872.1 1032.1zM880.3 1042.2c-.7-.1-1.5 1.2-1.8 2.9-.3 1.7.1 3.2.8 3.4.8.1 1.5-1.2 1.8-3 .3-1.7-.1-3.2-.8-3.3zM864.6 1061.7c-.7-.1-1.5 1.2-1.8 2.9-.3 1.7.1 3.2.8 3.3s1.5-1.2 1.8-2.9c.3-1.7-.1-3.2-.8-3.3zM878.3 1054.5c2.2.3 4.6-3.6 5.3-8.6.7-4.6-.1-8.6-1.8-9.6M865.4 1049.1c.6 2.5 1.6 3.9 3 4 2.3.3 4.7-3.1 6.1-8.2M867.4 1031.5c-1.1-.2-2.3.7-3.3 2.4"/>
    <path class="st1"
        d="M867.5 1031.5zM871.5 1050.2c1.6-1.3 3-4.5 3.6-7.9.5-3.2.1-6.2-.7-8.1M870.4 1034.4c-.1-.4-.5-.8-1-.9"/>
    <path class="st1"
        d="M886 1051.8c-.3-.1-.7.5-1 1.4-.2.9-.2 1.6.1 1.7.3 0 .8-.6 1-1.4.2-.9.2-1.6-.1-1.7zM855.7 1028.8h-.4M858 1033.2c.3-2.2-.7-4.2-2.3-4.4M854.5 1048.8c0-.4-.3-.8-.6-1.1M854.2 1049.5l.3-.8M849.7 1088.6c0 9.2 3.9 11.9 8.6 6.1M868.5 1017.9l-1.2-.6"/>
    <path class="st1"
        d="M887.9 1014.4c-.3-.1-.7.6-1 1.4-.2.9-.1 1.6.1 1.7.3.1.7-.6 1-1.4.3-.9.3-1.7-.1-1.7zM872.6 1033.2c-1.9-.3-4.1 3.3-4.8 8-.8 4.7.3 8.8 2.2 9.1 2 .3 4.2-3.3 4.9-8 .7-4.7-.3-8.8-2.3-9.1zM855.3 1073.3l-.8 1.1M878.1 1057l.5-.6M878.1 1057v-1.3M865 1072.6h.2M865.7 1072.4l-.5.6M865.2 1072.6v.4M878.6 1056.4v-.9M880.7 1053.1h.2M862.4 1047.5l2.1.3M853.6 1041.4l2.8.7M856.5 1042.9l-2.9-.8M861.2 1048.9l-1-5.8M874.9 1036.2l.3-.3M874.2 1033.9l1.3.2M865.7 1071.9v.5M854.5 1048.7v33.5M853.5 1093.8l.1.1M869.2 1077.4l.1.1M874.7 1035.2l.8-1.1M867.3 1068.1l11-13.6M865 1047.2l-.5.6M871.5 1051.4h-.2M854.2 1033l-.6.8M872.1 1010.9l-5.2 6.3M889.9 1005.4l-1-.3M854.2 1049.5v33.5M860.8 1049.7l-1.1-6M860.2 1043.1l-1.4-.3M860.2 1043.1l-.5.6M872.6 1027.8l.5-.7M872.6 1027.8l-1.3-.4M857.8 1043.2l1.9.5M873.1 1027.1l-1.9-.5M869.4 1033.5l-4.6-.7M873.1 1027.1l1.1 6.1M873.6 1033.1l-1-5.3M858 1033.2l11.7-14.4M854.7 1083.6l.1.6M854.5 1082.2c0 .5 0 1 .1 1.5M877.6 1058l.7-.9M862 1048.1c.3-.5.6-.9.9-1.3M875.2 1039.4c.1-1.2 0-2.3 0-3.5M881.2 1057.6l-.1-1M865.4 1073.2l-.7.8M861.2 1075.2l-1.2 1.5-3.5 4.3c-.6.7-1.2 1.6-2 2.2M885.3 1044.5l-.4.4M863.5 1049.7c-.3.9-.5 1.8-.7 2.8l-1.8 8.4-.4 1.9M867.3 1052.7l.8-.4M858.4 1085.9l1.1-1.4 20.6-25.4c.8-1 1.6-2.1 2.3-3.2 1.6-3 2.6-6.4 3-9.8v-35.1M881.8 1036.3l-3.1-1.8-1.6-1-.2-.1-2.3-.3-.7.3M874.3 1034.2l-.6-1c-1-1.2-2.1-1.1-3.5-1.3l-1-.1-1.8-.3M889.9 1005.4l-1.2 1.4-2.2 2.7c-.5.7-1 1.3-1.6 1.8M858.8 1042.8l-.2-1.9-.6-4.2-.2-1.9.2-1.6M849.7 1088.6v-33.5l1.1-1.4 2.3-2.7 1.1-1.5M889.9 1005.4v32.699999999999996c0 5.4-.9 10.6-2.5 15.8-1 3.1-2.3 6.2-3.9 9.1-1 1.7-2.2 3.3-3.4 4.8l-20.6 25.4-1.1 1.5M868.5 1017.9c.4.3.9.6 1.2.9l.6.6.2 1.9.7 5 .3 1.9M865 1016.8c.8.1 1.5.2 2.3.5M1041.7 839.6l.1-.4"/>
    <path class="st1"
        d="M1039.6 864.6c-.3 0-.7.6-1 1.5-.2.8-.2 1.6.1 1.7.3.1.7-.6 1-1.4.3-1 .2-1.8-.1-1.8zM1053.1 835.6c.7-.1 1.3-.5 1.6-.9M1047.3 847.8l.1-.6"/>
    <path class="st1"
        d="M1047.3 848l.1-.2-.1.2zM1021.9 848.5c-.3-.1-.7.5-1 1.3-.2.9-.2 1.7.1 1.8s.7-.6 1-1.4c.2-.9.2-1.6-.1-1.7zM1036.9 842.9c.7-.3 1.3-.9 1.9-1.6M1047.9 837.2c.5-1 .7-2.6.6-3.7M1032.2 856.6c.4-1 .7-2.4.5-3.5M1026.2 823.2c0-.6-.1-1.3-.3-1.7M1047.8 847.2l.2-.6"/>
    <path class="st1"
        d="M1047.7 847.4zM1045.8 848.3c.6.1 1.1 0 1.4-.3M1046.2 823.6c-.4 0-.9.2-1.2.7"/>
    <path class="st1" d="M1046.3 823.7zM1050.6 847.8c0-1.2-.9-2.4-2.2-3.1M1034.4 863.9l.2-.6"/>
    <path class="st1" d="M1034.3 864zM1039.7 824.7c0-.4-.4-.9-.9-.9"/>
    <path class="st1"
        d="M1055.4 842c-.3-.1-.7.6-1 1.4-.2.9-.2 1.6.1 1.8.3.1.7-.6 1-1.4.2-.9.1-1.7-.1-1.8zM1047.8 844.7c2.2.3 4.5-3.5 5.3-8.6.7-4.6-.1-8.6-1.8-9.6M1035 863.2l.1-.6"/>
    <path class="st1" d="M1034.8 863.4zM1032.7 864.2c.7.2 1.3.1 1.6-.2"/>
    <path class="st1"
        d="M1023.9 881.1c-.3-.1-.8.5-1 1.4s-.1 1.6.1 1.7c.3 0 .8-.6 1-1.4.2-.9.2-1.7-.1-1.7zM1029.9 852.9c-.1.6-.2 1.1-.3 1.5-.7 5 .3 9.2 2.3 9.8M1033.9 838c-.4.5-.7 1.2-1 1.9M1027.8 876.1c0-1.3-1.1-2.7-2.5-3.3-.4-.2-.9-.3-1.3-.3M1018.1 878.6c0 5.4 1.3 8.6 3.4 9.1"/>
    <path class="st1"
        d="M1049.7 832.4c-.7-.1-1.5 1.2-1.8 2.9-.3 1.8 0 3.2.8 3.3.7.1 1.5-1.2 1.8-2.9s-.1-3.2-.8-3.3zM1034 851.9c-.7-.1-1.5 1.2-1.8 2.9-.3 1.8.1 3.2.8 3.3s1.5-1.2 1.8-2.9c.3-1.7-.1-3.2-.8-3.3zM1024 872.5zM1023.7 873.2l.3-.8M1023.7 873.2c0 4.4 1.8 5.7 4.1 2.8M1031.4 838.3c-.4.6-.6 1.4-.8 2.2M1027.9 852.6c-.1.5-.2 1-.3 1.6-.7 4.9.3 9.2 2.3 9.7M1032.3 864.3c1.7 0 3.4-2.4 4.5-5.9M1019.1 878.9c0 9.3 3.9 12 8.7 6M1024 839c0-.4-.2-.7-.6-1.1M1023.7 839.7l.3-.7M1025.2 819h-.4M1027.5 823.4c.3-2.2-.7-4.2-2.3-4.4M1034.6 838.5c.5 3 1.7 4.8 3.1 4.9 2.3.4 4.8-3.1 6.1-8.2M1041.4 822.4c-1.4-.2-2.8 1.3-3.9 3.8"/>
    <path class="st1"
        d="M1041.5 822.4zM1037.5 826.1c-.6 1.4-1.1 3-1.4 4.6-.9 5.4.1 10.1 2.5 10.6.4 0 1-.1 1.4-.3M1040 841c1.9-.8 3.7-4.3 4.3-8.4.5-3.3.3-6.2-.6-8M1043.7 824.4c-.3-.7-.8-1.3-1.2-1.6M1036.8 821.7c-2.2-.3-4.6 3.6-5.4 8.8-.4 2.8-.3 5.6.3 7.4"/>
    <path class="st1"
        d="M1036.9 821.7zM1057.4 804.6c-.3-.1-.7.6-1 1.4-.2.9-.2 1.6.1 1.8.3.1.7-.6 1-1.5.2-.8.2-1.7-.1-1.7zM1042.1 823.4c-2-.3-4.2 3.3-4.9 8-.7 4.8.3 8.8 2.2 9.1 1.9.3 4.1-3.3 4.9-8 .8-4.7-.3-8.8-2.2-9.1zM1040.5 802.3l-4.1 5.1M1024 861.8l4.7 1.3M1039.9 865.3l-.9-.2M1034.6 838.5l1-1.2M1033.3 835.8l2.1.4M1032.7 840.8l-2.1-.3M1033.9 838l-2.1-.3M1029.9 852.9l-2-.3M1035.3 840.7l3.1.6M1040.9 841.7l-2.1-.4M1054.7 842.6l.9.2M1048.1 838l1.5.2M1048 835l.5.1M1044.3 826.4l.2-.3M1021.3 849l.8.2M1025.7 862.4l-1.7 2.2M1048 846.6l-.5.6M1043.6 824.2l1.3.2M1043 823.4l-1-5.4M1047.5 847.2v-2.2M1032.5 853.6v2.3M1023.2 881.5l.9.2M1019.1 878.9l-1-.3M1034.6 862.8v.4M1036.7 843l.2-.1M1023.6 823.3l-.6.8M1043.7 823.4l-1.2-6M1042 818l-1.3-.3M1041.5 817.1v-15.4M1032.1 856.7l.1-.1M1032.3 857.5l1.6.2M1029.1 834l1.4 7.1M1029.1 834l.5-.6-6.6-1.8M1025.9 824.9l1.3.2M1044.3 802v21.4M1056.7 805.1l.9.2M1050.4 826v-22.5M1048 846.6v-1.9M1047.3 848l.4-.6M1045.1 848.1l.7.2M1044.9 824.4l-.8 1M1023 832.4l6.1 1.6M1034.6 863.2l.5-.5M1034.2 823.1l4.6.7M1035.1 862.7v-.6M1034.3 864l.5-.6M1035.4 836.2l-1.5 1.8M1021.5 887.7l1 .2M1018.1 856.6v22M1029.6 833.4l1.2 6.4M1024 872.4v-33.5M1039.1 809l-11.6 14.4M1059.3 795.7l-1-.3M1023.7 839.7v33.5M1042.5 817.4l-.5.6M1042.5 817.4l-1.9-.5M1027.9 852.6l2.7-12.1M1032.3 864.3l-2.5-.4M1047.8 844.7l-11.1 13.7M1040 841M1043.7 824.4v.1M1035.4 836.2l.2 1.1M1044.5 826.1c.1 1.2.2 2.4.1 3.5M1024 873.4c.9-.6 1.4-1.4 2.1-2.2l4.5-5.6 1.2-1.4M1024 872.4c0 .6 0 1.1.1 1.6M1024.2 874.5l-.2-.7M1027 832.7l-.3-1.9-.5-4-.3-1.9.3-1.7M1051.3 826.6l-3.1-1.8-1.6-1h-.2l-2.3-.4-.7.3M1033 839.9c-.3.9-.5 1.8-.7 2.8l-1.9 8.5-.4 1.8M1027.8 876.1l1.2-1.4 20.5-25.4c.9-1.1 1.6-2 2.3-3.1 1.7-3 2.7-6.5 3-9.9.1-1.1.1-2.2.1-3.4v-31.7M1031.4 838.3c.5-.9 1.3-1.6 1.9-2.5M1034.4 807c1.5.1 3.1.7 4.3 1.7l1 1 .3 1.8 1.2 9 .2 1.8M1059.3 795.7l-1.2 1.5-2.2 2.7c-.5.7-1 1.3-1.6 1.8M1027.8 884.9l1.2-1.5 20.5-25.4c1.3-1.5 2.5-3.1 3.4-4.8 1.6-2.9 2.9-6 3.9-9.1 1.6-5.1 2.5-10.4 2.5-15.7l.1-30.9v-1.9M1023.7 839.7l-1.2 1.5-2.2 2.8-1.2 1.4v33.5M1027.5 823.4l-.3 1.7.3 1.8.6 4.3.2 1.9M1036.9 821.7l1.8.3.9.1c1 .1 1.9.1 2.8.7M864.1 1074.8l.1-.5"/>
    <path class="st1" d="M864 1075l.1-.2-.1.2zM877 1058.8l.1-.6"/>
    <path class="st1"
        d="M876.8 1059l.1-.2-.1.2zM869.2 1075.5c-.3 0-.8.6-1 1.4-.3.9-.1 1.7.1 1.7.3.1.8-.6 1-1.4.2-.8.2-1.5-.1-1.7zM880.2 1058.8c0-1-.7-2.1-1.6-2.8M848.7 1089.9c0 5.4 1.3 8.5 3.4 9.1M877.4 1058.2l.1-.6"/>
    <path class="st1"
        d="M877.3 1058.4zM875.4 1059.3c.6.1 1.1 0 1.4-.3M864.6 1033.3c-1.7 1.3-3 4.6-3.6 8.2-.3 1.9-.4 3.7-.2 5.2M864.2 1049.4c.5 3 1.7 4.7 3.1 5 1.8.2 3.7-1.8 5.1-5.2M869.3 1035.7l-.4-.7-.5-.2"/>
    <path class="st1"
        d="M885 1053c-.3-.1-.7.5-1 1.4-.2.9-.2 1.6.1 1.7.3.1.7-.5 1-1.4.2-.8.2-1.6-.1-1.7zM864.5 1074.2l.1-.6"/>
    <path class="st1" d="M864.4 1074.4zM862.2 1075.2c.8.2 1.3.1 1.7-.2"/>
    <path class="st1"
        d="M853.5 1092c-.3-.1-.7.6-1 1.4-.2.9-.1 1.6.1 1.7.3.1.7-.5 1-1.4.2-.8.1-1.6-.1-1.7zM859.6 1063.9c-.1.5-.2 1.1-.3 1.5-.7 5 .3 9.2 2.3 9.8M862.9 1050c-.3.6-.5 1.2-.7 1.8M857.4 1063.6c-.1.5-.2 1.1-.3 1.5-.7 5 .3 9.2 2.3 9.8M861.9 1075.3c1.6 0 3.4-2.4 4.4-5.9"/>
    <path class="st1"
        d="M879.3 1043.4c-.7-.1-1.5 1.2-1.8 2.9s.1 3.3.8 3.4 1.5-1.2 1.7-3c.4-1.7.1-3.2-.7-3.3zM863.6 1062.9c-.7-.1-1.5 1.2-1.8 3-.3 1.7.1 3.2.8 3.3.7.2 1.5-1.2 1.8-2.9.2-1.8-.1-3.3-.8-3.4zM853.2 1084.2c0 4.5 1.9 5.7 4.2 2.8M881.7 1056.4c.5-1 1-2.1 1.3-3.1M852.1 1098.9c1.6.4 3.4-.8 5.3-3.1M847.7 1089.6c0 5.4 1.3 8.6 3.4 9.1M871.2 1050.6l.1-.4"/>
    <path class="st1"
        d="M851.5 1059.5c-.3-.1-.8.6-1 1.4-.2.9-.2 1.7.1 1.7.3.1.8-.6 1-1.4.2-.9.2-1.7-.1-1.7zM855.8 1034.2c.1-.7 0-1.3-.3-1.7M875.8 1034.7l-1.1.5"/>
    <path class="st1"
        d="M876.1 1034.8l-.3-.1.3.1zM877.3 1055.8c2.2.3 4.5-3.6 5.3-8.6.7-4.6-.1-8.6-1.8-9.7M874 1011.5c-1.1-.2-2.4 0-2.9.6M880.1 1013.1c1.6.4 3.5.1 4.3-.9M854.7 1030h-.4M857 1034.4c.4-2.2-.7-4.2-2.3-4.5M869.7 1052c.9-.5 1.9-1.6 2.6-3M869.2 1034c-1.7 1.4-3 4.6-3.6 8.2-.7 5.3.3 9.8 2.5 10.1h.6"/>
    <path class="st1"
        d="M886.9 1015.6c-.3-.1-.7.6-1 1.5-.2.9-.1 1.6.1 1.6.3.1.7-.5 1-1.4.3-.9.2-1.6-.1-1.7zM871.7 1034.4c-1.9-.3-4.1 3.3-4.9 7.9-.7 4.8.3 8.8 2.3 9.1s4.2-3.2 4.9-8c.6-4.6-.4-8.7-2.3-9zM884.9 1053.7l.3.1M853.6 1033.8l.6-.8M855.6 1035.9l1.2.2M853.6 1043.6l5.1 1.4M860.4 1050.7l-1.2-6.4M872.1 1028.4l.8 4.1M860 1052.1l-1.3-7.1M866.6 1052.1l1.4.1M861.4 1048.7l2.1.3M861.2 1048.7v.2M862.2 1051.8l-2-.3M865.2 1048.3l-1 1.1M862.9 1046.8l2.1.4M847.7 1056.1l1 .3M853.3 1092.7l.4.1M848.7 1089.9l-1-.3M855.3 1073.3l-.8 1.1M869.4 1076.3l-.2-.1M864.2 1074.2v-.4M864.2 1074.2l.4-.6M877.1 1058.2l.5-.6M857.4 1063.6l2.2.3M858.4 1074.1l-3.9-.9M877.1 1058.2v-2.2M870.3 1027.9l1.8.5M871.1 1025.6v-13.5M868.7 1020l-11.7 14.4M872.2 1032.2l-.6-3.2M851.4 1060.1l.4.1M854.6 1083.4l6.6-8.2M877.6 1057.6v-1.8M876.8 1059l.5-.6M874.6 1059.1l.8.2M874 1011.5v20.1M868.4 1034.8l-4.6-.7M864.6 1073.6v-.4M864 1075l.4-.6M862.2 1051.8l-2.6 12.1M871.6 1029l.5-.6M871.6 1029l-1.2-.4M861.9 1075.3l-2.5-.4M877.3 1055.8l-11 13.6M859.2 1044.3l-.5.7M859.2 1044.3l-5.6-1.5M880.1 1035.2v-22.1M886.8 1016.2l.4.1M851.1 1098.7l1 .2M847.7 1067.5v22.1M880.8 1037.5l-4.7-2.7M871.1 1012.1l-4.2 5.1M880.1 1013.1l-6.1-1.6M888.9 1006.6l-4.6 5.6M857.2 1086.1l.2 1M853.2 1084.2l.3-.4M865 1047.2l.2 1.1M848.7 1089.9v-33.5l1.2-1.5 2.1-2.7 1.2-1.5M884.3 1045.7l-.7.6M865 1047.2c-.7.9-1.6 1.8-2.1 2.8M864 1018c1.5.2 3.1.7 4.3 1.6l1 1 .2 1.8 1 7.6.3 1.9M857.4 1063.6l.4-1.8 1.9-8.4c.3-1.3.5-2.8 1.2-4 .5-.9 1.2-1.7 1.9-2.5M853.2 1084.2v-33.4l.1-.2.2-.6M881.7 1056.4c-.3.7-.7 1.3-1.1 1.9l-.4.4-1.2 1.5-20.5 25.4-1.1 1.4M884.3 1012.2v31.6c0 1.1.1 2.3 0 3.4-.2 2.1-.6 4-1.3 6M857.4 1095.9l1.1-1.4 20.5-25.4c1.3-1.5 2.5-3 3.5-4.8 1.6-2.8 2.8-6 3.8-9.1 1.7-5.1 2.6-10.4 2.6-15.8v-32.7M855.8 1034.2l-.2 1.7.2 1.9.5 4 .3 1.9M857.9 1044l-.3-1.9-.6-4.2-.2-1.8.2-1.7M868.7 1052.3l1-.3"/>
    <defs>
        <path id="SVGID_1_" d="M279.8 1300z"/>
    </defs>
    <clipPath id="SVGID_2_">
        <use xlink:href="#SVGID_1_" overflow="visible"/>
    </clipPath>
    <path class="st3" d="M279.8 1300l13.2-13.2"/>
    <path class="st0" d="M279.8 1300z"/>
</svg>
