<svg xmlns="http://www.w3.org/2000/svg" xmlns:xlink="http://www.w3.org/1999/xlink"
    viewBox="0 0 1200 1200" enable-background="new 0 0 1200 1200">
    <style type="text/css">.st0{fill:none;} .st1{fill:none;stroke:#000000;stroke-linecap:round;stroke-width:4} .st2{clip-path:url(#SVGID_2_);} .st3{fill:none;stroke:#FFFFFF;stroke-miterlimit:10;}</style>
    <path class="st0" d="M1132.1 0h-1064.2v1200h1064.1l.1-1200z"/>
    <path class="st1"
        d="M312.7 1151.1c32.7-42 12.5-112.1-44.1-156.4-42.9-33.4-94.6-42.7-132.3-26.7M118.1 978.9c-4.5 3.7-8.7 7.8-11.7 11.7-32.9 42-13 112.1 43.9 156 57.1 44.4 129.6 46.5 162.3 4.5"/>
    <path class="st1"
        d="M350.1 1156.3c41.5-51.9 18.8-139.8-51.1-196.2-70.1-56.5-160.5-60.4-202.5-8.7-41.8 51.9-19 139.8 51.1 196.2 69.9 56.3 160.5 60.4 202.5 8.7zM773.1 13.8c-39.6 10.2-69.7 31.9-89.1 60.2M784.3 859.2c80.9-100.2 36.6-269.4-98.2-378.7-133.1-107.5-305.5-116.1-387.5-20.5M781.5 862.9l2.8-3.7M1059.6 427.6c66.2-81.6 30.1-220.3-80.5-309.6-110.3-89.4-253.4-95.4-319.6-13.8-34 41.8-40.7 98.2-25.3 155.4M1052.9 435.3c2.6-2.6 5-5.2 6.7-7.8M1098.1 379.5c57.1-83.7 18-215.3-87.4-300.8-75.3-60.7-165.6-83-237.6-64.9M913.3 484.7c55.4 4.8 108.4-15.4 139.6-49.3M1007.6 356.6c18.2-59.1-13-132.9-74-182.6-77-62.3-176.6-66.4-222.6-9.3l-1.7 2.2M834.8 706.7c66.6-82 30.7-221.6-80.1-310.9-111-89.6-254.9-95.2-321.1-13-3.7 4.5-7.1 9.1-9.7 13.4M823.7 719c4.1-3.9 8.2-8.2 11-12.3M598.3 848.4c41.1-51.9 18.2-139.1-51.5-195.2-69.9-56.7-160.5-60.4-202.5-8.7l-.6.9M577.3 874.4c41.8-51.3 19-139.1-51.3-195.6-69.9-56.7-160.5-60.4-202.1-8.9-3.9 4.5-6.9 9.5-9.5 14.1M565.4 886.5c4.8-3.7 8.4-8 11.9-12.1M629 797.8c12.1-46.5-6.1-96.3-45.4-140M586.2 860.9c22.7-18.8 36.8-40.9 42.8-63.2M381.5 607.4c-20.3 12.1-36.1 30.3-46.1 51.1M583.6 657.8c-63.8-66-144.8-83.7-202.1-50.4M556.5 900.1c41.8-51.5 19-139.3-51.3-196-69.9-56.5-160.1-60.2-201.9-8.7-3.9 4.5-6.9 9.5-9.5 13.8M545 912.2c4.3-3.9 8.2-8 11.5-12.1M536.2 925.6c41.3-51.5 18.6-139.6-51.3-195.8-69.9-56.5-160.5-60.6-202.3-8.7-3.7 4.8-6.7 9.3-9.3 13.8M524.1 937.5c4.5-3.5 8.9-8 12.1-11.9M494.6 977.1c41.8-52.1 18.8-139.6-50.8-196.2-70.1-56.7-160.8-60.4-202.5-8.7-3.7 4.8-6.9 9.5-9.3 13.8M482.9 988.8c4.8-3.9 8.2-8 11.7-11.7M515.2 951.4c42-51.7 18.8-139.3-51.1-196s-160.3-60.4-202.3-8.7c-3.5 4.5-6.7 9.5-9.1 13.8M503.5 963.1c4.3-3.7 8.4-7.8 11.7-11.7M453.5 1028c41.5-51.7 18.8-139.3-51.1-195.8-70.3-56.5-160.8-60.4-202.5-8.7-3.7 4.5-6.7 9.5-9.3 13.8M441.8 1040.1c4.3-4.1 8.2-8.2 11.7-12.1M474.1 1002.7c41.5-51.9 18.8-139.8-51.1-196.2-69.9-56.3-160.5-60.4-202.3-8.7-3.7 4.8-6.9 9.3-9.3 13.8M462.4 1014.6c4.3-3.9 8.4-8 11.7-11.9M432.7 1053.7c41.8-51.7 18.8-139.6-51.3-196-70.1-56.7-160.3-60.4-202.1-8.9-3.9 4.5-6.9 9.7-9.3 14.1M421.1 1065.4c4.5-3.5 8.4-7.6 11.7-11.7M411.8 1079c42.2-51.7 19-139.1-50.8-196-70.1-56.5-160.5-59.9-202.3-8.7-3.7 4.5-6.7 9.7-9.3 14.3M400.3 1091.2c4.3-3.9 8.7-8 11.5-12.1M391.4 1104.6c41.8-51.3 18.6-139.3-51.3-195.8s-160.1-60.4-202.3-8.7c-3.5 4.8-6.7 9.3-8.9 13.8M379.7 1116.5c4.3-3.5 8.4-8 11.7-11.9M370.6 1130.3c41.8-51.7 19-139.3-51.1-196-69.9-56.5-160.5-60.2-202.3-8.7-3.7 4.5-6.9 9.5-9.1 14.1M359 1142.4c4.5-3.9 8.7-8 11.7-12.1M298.6 460l-54.5 69.5M715.3 939.7l66.2-76.8M697.6 57.3l-31.6 39.4M1052.9 435.3l45.2-55.8M581 325.4l128.3-158.6M118.1 978.9c13.6-9.5 7.4-6.1 18.2-10.8M860.1 550.5l40.9-50.6 49.8-61.7c24.5-30.7 42.8-48.3 56.9-81.6M235.4 539.2c-53 66.2-52.6 161.8-7.6 251.2M481.9 993.4c102.6 25.7 191.5-.6 242.1-62.7 80.9-100.8 37.2-270.2-97.8-378.4-27-21.9-55.8-39.2-82.9-51.5M255.8 518c-7.8 6.9-14.9 14.3-20.3 21.2M543.3 500.7c-119.4-55.2-237.8-38.9-301 33.3"/>
    <defs>
        <path id="SVGID_1_" d="M67.9 1200z"/>
    </defs>
    <clipPath id="SVGID_2_">
        <use xlink:href="#SVGID_1_" overflow="visible"/>
    </clipPath>
    <path class="st3" d="M67.9 1200l76.4-75.9"/>
    <path class="st0" d="M67.9 1200z"/>
</svg>
