<svg xmlns="http://www.w3.org/2000/svg" xmlns:xlink="http://www.w3.org/1999/xlink"
    viewBox="0 0 1400 1400" enable-background="new 0 0 1400 1400">
    <style type="text/css">.st0{fill:none;} .st1{fill:none;stroke:#000000;stroke-linecap:round;stroke-linejoin:round;stroke-width:2.5;} .st2{clip-path:url(#SVGID_2_);} .st3{fill:none;stroke:#FFFFFF;stroke-miterlimit:10;}</style>
    <path class="st0" d="M1286.9 100h-1173.8v1200h1173.9l-.1-1200z"/>
    <path class="st1"
        d="M713.8 329.6l.6.1M670 271.6l60 16.1M728.8 316.9l1.2-29.2M669.3 272.3l59.9 16.2M728.4 280.8l2.5.7M732 279.3l-1.1 2.2M672.7 318.5l-.3-.1"/>
    <path class="st1"
        d="M642.5 344c0 1.7.4 3.3 1.3 4.7 2.1 3.2 6.6 5.1 10 2.7.5-.4.9-.8 1.2-1.3.4-.5.6-1.1.8-1.6.3-.9.4-1.9.3-2.8-.1-1-.4-2-.8-2.9-.6-1.2-1.5-2.3-2.6-3.1-1.4-1-2.9-1.5-4.5-1.6-.8.1-1 .1-1.8.3-2.5 1-3.7 3.2-3.9 5.6zM654.8 350.3c-.7.4-1.4.4-2.2.5-1.7-.1-3.2-.5-4.5-1.6-3-2.2-4.8-7.3-2.1-10.6M716.5 323.9l4.2 1.2h.1c2.9.8 5.8 1.2 8.1 3.3 1.6 1.5 2.9 3.7 4 5.4l12.3 17.9c2.1 3 4.2 5.8 5.4 9.2 2.2 6.1 1.9 13.3-2.1 18.6-1.2 1.7-2.7 2.8-4.3 4s-3.2 2.3-5.1 3c-1.8.7-3.5.9-5.4 1.1-3.3-.1-6.5-.6-9.5-2-1.9-.9-3.6-2-5.1-3.4l-1.5-1.4-4.3-1.1-51-13.7-4.3-1.2c-1.8.6-3.5.9-5.4 1.1-3.3-.1-6.5-.7-9.5-2.1-9.7-4.8-16.1-16.8-12.6-27.3.8-2.4 2.1-4.6 3.7-6.3 1.2-1.3 1.7-1.5 3.1-2.6l1.8-1.4 3.7-2.4 14.5-9.7 3.6-2.5c3-2 6.1-.8 9.3.1l3.4.9"/>
    <path class="st1"
        d="M677 314.1c3.2-5.2 9.7-6.6 15.3-5 6.8 1.8 12.6 7.3 14.9 13.9 2 5.8.8 12.7-4.7 16-1.9 1.2-4 1.6-6.2 1.8-1.8 0-3.5-.1-5.3-.6-6.2-1.7-11.6-6.4-14.3-12.2-1.9-4.3-2.3-9.6.3-13.9zM718.2 324.3c.4-3.5-.5-7.1-2-10.4-3-6.6-8.8-12-15.7-14.5-2.6-1-5.2-1.3-8-1.4-1.7.1-2.1.1-3.8.5-3 .7-5.5 2.1-7.6 4.3-2.2 2.2-4.5 4.4-6.2 7.1-1.6 2.7-2.3 6-2.3 9.1.1 10.1 7.8 19.4 17.2 22.8 4.3 1.5 9.1 1.9 13.5.5 1.7-.6 3.5-1.5 4.9-2.6 1.8-1.4 3.3-3.2 4.8-4.9M672.4 318.4c-.1 2.2-.2 4.2.2 6.3 1.3 7.9 6.5 15 13.5 18.7 7.1 3.7 16.1 3.8 22.3-1.8.9-.8 1.8-1.8 2.5-2.8 2-2.8 2.9-5.8 3.5-9.2M713.8 329.6c.2-1.3.3-2.6.3-4M742.5 384.9c1.5-1.1 2.8-2.2 3.9-3.7 4-5.3 4.3-12.5 2.1-18.6-1.3-3.4-3.3-6.3-5.4-9.2l-12.3-17.8c-1.1-1.7-2.4-3.9-4-5.4-2.3-2.1-5.2-2.5-8.1-3.3l-.2-.1-4.3-1.1M714 327.5c-.1-2-.3-3.8-.8-5.8-2.5-8.7-10.1-16-18.9-18.4-1.9-.5-3.8-.7-5.8-.8-3.1.2-5.9.7-8.6 2.4-1.3.8-1.6 1.1-2.7 2.2M708.4 339.7c1.1-1 1.4-1.2 2.4-2.4 1.8-2.3 2.7-4.9 3.2-7.7M714.1 325.6l2.4-1.7M708.5 341.6c-3.1 2-6.5 2.7-10.2 2.8-1.8-.1-2.2-.1-4-.5-3.3-.7-6.3-2.3-9.1-4.2M730 287.7c-1.8 1.9-.7.4-.9 5.2l-1.2 29.7-.2 4.4M730.9 281.5c-.4-.7-.7-1.3-1.6-1.4-.9.2-1.2 1-1.5 1.8-.5 1.8-.2 3.5.3 5.2M667.7 310.8l.2-4.4 1.2-29.6c.2-4.7-.8-3.3.9-5.2M673.2 314.5l-4.2-1.1c-2.2-.6-4.1-1.3-6.3-1.4-.9 0-1.1 0-2 .3-1.9.5-4 2.3-5.4 3.3l-14.5 9.6-3.6 2.5M732 279.3c-.6-1.2-1.2-2.2-2.5-2.5-1.4 0-2.2 1.2-2.7 2.4-.9 2.3-1.1 5.1-.5 7.5M729.5 276.7c-16.5-4.5-33-8.9-49.4-13.3-1 .1-1.8 1.4-2.4 2.2-1.6 2.2-2.9 4.6-4 7"/>
    <path class="st1"
        d="M723.5 364.9c-.2 1.7 0 3.2.7 4.7 1.2 2.4 3.5 4.3 6.2 4.6 4 .5 7-2.8 6.7-6.7-.1-1-.4-1.9-.8-2.9-.6-1.2-1.5-2.3-2.6-3.1-1.3-1-2.8-1.5-4.5-1.5-.8.1-1 0-1.8.3-2.2.8-3.4 2.5-3.9 4.6zM735.8 372.2c-.7.3-1.4.4-2.2.4-1.7-.1-3.2-.5-4.5-1.5-3-2.3-4.8-7.3-2.1-10.6M637.1 265.6v62.1M630.4 267.1v70M770 314.7v2.5M770.3 299.8l-40.4-10.9M770.3 301.5l-40.4-10.9M720.3 383.1l-54.8-14.7M659 367.4l-3-.7M722.4 384.6l-.5-.2M737.1 309.8v29.9M729 315.3l3 .8M733.6 309.6v-1.5M666 298.4l-3-.8M727.1 369v-8.6M591.6 269.9c-2 2.5-1.1.8-1.1 5.8v70.4c0 5.1.1 10 1.5 15.1 4.3 15.8 16.7 29 31.1 36.3 5 2.5 10.3 4.1 15.7 5.5l107.4 29c4.3 1.1 8.4 2.3 12.9 2.7 10.3.9 21.6-1.7 28.5-9.9M669.2 274.3l-4.2-1.2-23.6-6.3c-2.1-.6-4.1-1.3-6.2-1.4-1.3 0-2.5.2-3.7.8-1.6.9-3 3.2-3.9 4.3-1.4 1.8-2.7 3.8-4.4 5.4-1.6 1.5-3.9 2-6.1 2.1-2.8-.1-5.2-.9-7.9-1.6l-14.5-3.9-4.3-1.2M591.6 269.9l4.3 1.2 14.5 3.9c3.1.8 6.7 2.3 9.8.7 1.6-.9 3.1-3.3 3.9-4.4 1.4-1.8 2.7-3.8 4.4-5.4 1.6-1.5 4-2 6.2-2.1 2.7 0 5.3.9 7.9 1.6l22.5 6 4.2 1.2M765.9 398.9c-.6.7-.7.9-1.5 1.6-1.9 1.6-4.3 2.1-6.8 2.2-2.9-.1-5.4-.9-8.3-1.7l-107.4-28.9c-2.3-.6-4.8-1.1-7-2.1-5.2-2.4-9.8-7.2-11-12.9-.5-2.2-.3-4.7-.3-7v-74.80000000000001M766.7 397.1c.2-1.4.1-.7.2-2.2M736.1 387.3l4.3 1.2 15.7 4.2c3.7 1 6.9 2 10.8 1.4M766.9 395.1v-74.5c0-1.7-.6-4.8.7-6.5l2.8-3.4M770.3 314.4c-.3.4-.6.7-.7 1.1-.4 1.3.7 2.2 1.7 2.8 1.6.7 4.2 1.2 5.4 1.6l9 2.4 4.3 1.2M766.9 316.2c.7 3.7 6 4.2 8.7 5l10 2.7 4.3 1.1M771.3 320.1v79.20000000000002l-.1 1.7c-.5 5-3.6 9.2-8.2 11.1-2.2.9-4.6 1.1-6.9 1.2-3.5-.2-6.6-1.1-10-2l-107.4-28.9c-2.7-.7-5.5-1.4-8.1-2.5-7.5-3.2-14-9.8-16.3-17.8-1-3.2-.8-6.4-.8-9.8v-74.80000000000001M630.7 349c.6 2.3 1.5 4.5 3 6.4M745.6 382.5l4.2 1.1 8.4 2.3c2.7.7 5.8 2 8.7 1.3M766.3 398.1c-.5 1-.2.5-.9 1.5M766.7 396.9l-.2.6-.4 1M600.2 289.6c-.8 3 3 5.6 5.7 4.6"/>
    <path class="st1"
        d="M605.9 293.5c-.2-2.4-2.2-4.1-4.5-4.3-.5.1-.9.1-1.3.3-1.3.7-1.4 2.2-.9 3.4.6 1.3 1.8 2.3 3.2 2.7 1.8.6 3.4-.2 3.5-2.1zM610.2 375.1c-.8 3 3 5.7 5.7 4.6"/>
    <path class="st1"
        d="M615.9 379c-.2-2.3-2.2-4-4.5-4.2-.5 0-.9.1-1.3.3-1.3.7-1.4 2.3-.9 3.5.6 1.3 1.8 2.3 3.2 2.7 1.8.4 3.4-.4 3.5-2.3zM695.8 408.4c-.4.2-.8.2-1.3.3-2.3-.2-5-2.3-4.3-4.9"/>
    <path class="st1"
        d="M692.9 403.8c1.1.5 2.1 1.3 2.7 2.5.6 1.2.4 2.8-.9 3.5-.4.2-.8.3-1.3.3-1.8-.1-3.4-1.1-4.2-2.8l-.3-.9v-.9c.3-2 2.4-2.2 4-1.7zM770 418.1c-.8 3 3 5.7 5.7 4.7"/>
    <path class="st1"
        d="M775.8 422.1c-.2-2.4-2.2-4.1-4.5-4.3-.5 0-.8.1-1.3.3-1.3.7-1.4 2.3-.9 3.5.6 1.3 1.8 2.3 3.2 2.7 1.8.4 3.4-.3 3.5-2.2zM780.1 338c-.8 3 3 5.7 5.7 4.6"/>
    <path class="st1"
        d="M785.8 341.9c-.2-2.4-2.2-4.1-4.5-4.2-.5 0-.9.1-1.3.3-1.3.7-1.4 2.2-.9 3.5.6 1.3 1.8 2.3 3.2 2.7 1.8.4 3.3-.4 3.5-2.3zM657.2 365.1l-1.3 1.6v5.4l.1.9c.3 1.6 2 1.4 3.6 1.8h.4c.4-.1.6-.4.8-.6 1.9-2.3 3.8-4.7 5.7-7.1M659.6 374.8c-.6-.4-.7-1.2-.7-1.9v-5.4l1.6-2M722 384.2l-.1.1v5.4c0 2.2 1.3 2.8 3.8 2.8.4 0 .8-.4 1-.7l3.6-4.5M724.9 385.8v4.8c0 .7 0 1.5.6 1.9M737.5 340.3v-27.200000000000003c0-2.3.9-5.1-1.5-6.3-.4-.2-.7-.3-1.1-.4l-2.9-.8-2.8-.7M729.2 306.9l2.2.6 2.2.6c.3.1.7.3.6.7l-.1.1-2.6 3.2-2.6 3.2-.5 4.3-.4 3.3-.5 4.4M730.5 330.1l.5-4.4.6-5.2.5-4.4 5.1-6.3c.2-.4.4-.7.4-1.1M668.5 290.8l-.3.4-5.2 6.4-.5 4.3-.5 4.9-.5 4.4M664.7 310.3l.5-4.3.3-3.2.5-4.4 2.4-2.9M631.4 1004.3v38.6M626.7 1006.3l.8-.6M638.1 1035.1v-30M631.4 1050.2v33.2M638.1 1059.6v22.3M767.8 1116.9l-37.6-10.2M770.9 1033.4l-1.2 1.4M659.9 1034.3l-3-.8M659.1 1034.1v4.7M672.1 1014.3v9.9M673.6 1024.6v-9.9M662.1 1040.4v-8.8M659.9 1034.3l2.2-2.7M725.8 1052l-3-.7M725 1051.8v4.1M738 1032v27.4M738.4 1059.7v-27.5M728 1056.1v-6.8M725.8 1052l2.2-2.7M729.9 1102.8l3 .8M731.8 1096.5l1.1 7.1M729.9 1102.8l-.7-5M738 1093.2v4M667 1085.8l-.5-3.1M663.4 1081.6l.6 3.4M667 1085.8l-3-.8M669 1083.3l-2 2.5M728 1071.8h-.2M669.4 1090.4l-4.2-1.1-22.8-6.1c-2.1-.6-4.1-1.3-6.2-1.4-1.3 0-2.5.1-3.6.7-1.6.9-3.1 3.2-3.9 4.4-1.4 1.8-2.7 3.8-4.4 5.4-1.7 1.5-4 1.9-6.2 2.1-2.8 0-5.1-.8-7.9-1.6l-14.4-3.9-4.2-1.1M596.3 991.5c-2.9 4.2-4.5 9.3-4.8 14.3l-.1 2.6v79.20000000000002M772.2 1136.3v-74.80000000000001c0-3.3.1-6.6-.8-9.8-2.3-7.9-8.8-14.5-16.3-17.8-2.6-1.2-5.4-1.8-8.1-2.5l-107.4-28.9c-3.4-.9-6.5-1.7-10-1.9-2.4.1-4.7.3-6.9 1.2-4.6 1.9-7.7 6.1-8.2 11.1l-.1 1.8v79.20000000000002M767.6 1051c.3 2.2.2 4.3.2 6.6v74.80000000000001c0 2.2 2.7 3.4 4.4 3.9l4.3 1.1 9.1 2.5 4.3 1.1M767.7 1051.4c-.4-1.7-.9-3.2-1.7-4.7M752.4 1035.9c.4.2.8.2 1.3.4 1.4.5 2.7 1.1 4 1.9 3.5 2.1 6.2 5 8.2 8.5M636.6 1004.8c1.1.7 2.7.7 4.4 1.2l107.4 28.9 4.3 1.1M636.8 1004.8c-1.3-.3-2.6-.5-3.9-.6h-1.3M628.2 1005.1c1.3-.5.7-.3 1.8-.7M627 1006c1.1-.8.5-.4 1.6-1M629.7 1004.6c1.5-.3.7-.2 2.3-.4M624.6 1091.7v-74.80000000000001c0-3-.4-6.2 1.1-9 .4-.9.6-1 1.2-1.8M599.9 1071.9c.1-1.8 1.7-2.7 3.5-2.2 1.4.4 2.6 1.4 3.2 2.7.5 1.2.4 2.8-.9 3.4-.4.2-.8.3-1.3.3-1.8-.1-3.5-1.1-4.2-2.8-.1-.2-.5-1.1-.3-1.4l1.1-1.4M611 990.4l-1.1 1.4v.5c.1.7.4 1.3.9 1.8.8 1.1 2.2 1.9 3.6 1.9 2.4 0 3-2.4 1.9-4.3-.4-.6-.9-1.1-1.5-1.5-.7-.5-1.5-.7-2.5-.8-1.4.1-2.3.9-2.5 2.3M695.9 1005.6c1.1 1.2 1.5 3.6-.3 4.5-.4.2-.9.2-1.3.3-1.7-.1-3.4-1.2-4.2-2.8-.5-1.1-.5-2.6.7-3.3M770.6 1033c-2.3 2.1.3 5.3 2.6 5.9.9.2 2 .2 2.7-.5M780.9 1118.9l-1.1 1.4v.5c.1.7.4 1.3.8 1.8.9 1.1 2.2 1.9 3.6 1.9 2.4 0 3-2.4 1.9-4.3-.4-.6-.9-1.1-1.5-1.5-.7-.5-1.5-.7-2.4-.8-1.4.1-2.4.9-2.5 2.3M666.4 1012.8l-2.8 3.4-2.1 2.6-2.8 3.4-.3.4c-2.1 3.2-1.6 7.3-1.6 11M659.9 1034.3c0-3.6-.5-7.7 1.6-10.9l.2-.4 2.8-3.4 2.1-2.6 2.7-3.4M732.3 1030.5l-2.8 3.4-2 2.6-2.8 3.4-.3.4c-2.1 3.2-1.6 7.3-1.6 11M725.8 1052c0-3.6-.5-7.7 1.6-10.9l.3-.4 2.8-3.5 2.1-2.6 2.7-3.4M738.4 1093v3.2c0 .4-.1.7-.4 1l-2.5 3.2-2.6 3.2M728.1 1072.1l-.1-.3v-2.2M714.7 1092.9l.5.1M673.7 1081.8l-.4-.1M673.8 1080.9l-.5.8M730.2 1124.4l-1.2-26.5M730.1 1126.1l3.4 1M730.1 1127.7l2.3.6M670.3 1108.3l59.9 16.1M730.3 1129.6l-1.4 1.9M669.1 1083.4l1.2 24.9M659.1 1044.1l2.2-3.9M720.9 1056.2l-2.3 3.9M666.6 1028.4l56.5 15.2M666.6 1028.2l56.5 15.3"/>
    <path class="st1"
        d="M729.3 1078.9c1.8.9 3.9 1.7 6 1.3 1.8-.3 3-1.6 2.7-3.4-.2-1.3-1-2.5-1.8-3.4-2.1-2.3-5.1-3.6-8.3-3.7-.6 0-.8 0-1.4.3-1.8.6-2.4 2.2-1.9 3.9.7 2.2 2.7 3.8 4.7 5zM726.7 1069.8c.3 1.1 1 2.1 1.8 2.8 2.2 2.4 6 4.4 9.3 3.6M715.1 1095.7l8.7 2.4c1.5.4 3.2.6 4.7.1l.7-.3 3.9-2.1 9.6-5c1.8-1 4.4-2 6-3.6 1.1-1.1 1.8-2.6 2.5-3.9l1.2-2c2-4-.2-9-2.7-12.4-5.8-7.9-15.8-13-25.5-13.1-2.2.1-1.1 0-3.2.4l-4.3-1.1-51-13.7-4.3-1.1-1.7-1.1c-1.8-1.1-3.6-2-5.5-2.8-3.6-1.5-7.2-2.2-11.1-2.2-2.9.2-5.8.8-7.9 2.9-1.1 1.1-1.8 2.6-2.5 3.9-1.1 1.9-2 3.4-1.9 5.7.1 3.2 1.6 6.2 3.5 8.7 2 2.8 4.7 5 7.2 7.2l15.2 13.7c1.6 1.4 3.2 3.2 5.1 4.3 2.5 1.6 5.3 2.2 8.1 2.9l4 1.1"/>
    <path class="st1"
        d="M676.3 1087.9c1.3 7.6 8.1 13.8 15.1 16.3 2.7 1 5.7 1.5 8.6 1.1 1.5-.2 3-.6 4.3-1.4.8-.4 1.6-1 2.2-1.7 4.8-5 2-12.6-1.8-17.2-2.1-2.5-4.6-4.6-7.5-6.2-3.3-1.8-6.8-2.7-10.6-2.9-1.6.1-3.1.3-4.6.8-4.4 2.1-6.4 6.5-5.7 11.2zM678 1072.4c-1.2 1.7-2.5 3.4-3.4 5.3-2.6 5.8-.3 12.7 3.2 17.6 1 1.4 1.4 1.7 2.5 3M680.4 1098.4c1.4 1.4 2.9 2.7 4.5 3.9 6.7 4.6 16.1 7.2 23.6 3 3.7-2.1 5.7-5.8 8.1-9.1M715.1 1095.7c0-.7-.1-1.4-.2-2.1l-.2-.8.4-.7M673.3 1081.7c-.1-1.4-.2-2.7.2-4.1 1.8-6.5 10-7.2 15.5-6.3 2.1.4 4.1.9 6 1.6 9 3.3 18.2 10.3 20.3 20.1M714.7 1092.9c.5-.8-.3-2.6-.5-3.4M712.7 1101.6c1.5-2.3 2.2-4.5 2.3-7.2M675.4 1076.1c.1-1.4 0-.7.3-2.2M680.5 1071.5c-1.6.8-2.9 1.8-4 3.1M673.6 1109.2l.1 3.8.2 3.8 1.1 3.2c.2.5.4 1 .7 1.5 1.4 2.2 3.7 2.1 6.1 2.8l41.6 11.2 4.2 1.1.6-.4c.5-.5.9-1.1 1.3-1.6 1.6-2.4 2.9-4.9 3.9-7.5l-1.1 1.3-.5 1c-.3.8-.7 1.5-1.1 2.2-.4.6-.9 1.7-1.6 2-.4-.1 0-1.1.1-1.3 1.2-3.4 1-1.7.8-5.2l-.1-2.6M730 1102.8l.2 4.4.5 11.7c.2 4.8 1 3.2-.5 5.5M727.7 1136.5c-.2-.1-.2-.4-.2-.6.1-.6.3-1.2.5-1.8l.9-2.6-.4-7.6M750 1085.3c.4-1.1.5-1.3.7-2.4.5-4.3-1.9-8.4-4.6-11.5-6-7-15.1-11.5-24.4-11.7-2.1.1-1.1 0-3.2.4l-4.3-1.2-51-13.7-4.3-1.1-1.7-1.2c-1.8-1.1-3.6-2-5.6-2.8-3.6-1.4-7.2-2.1-11.1-2.2-2.9.3-5.8.8-7.9 2.9-.8.8-.8 1.1-1.4 2"/>
    <path class="st1"
        d="M643.4 1050.7c.1-.5 0-.7.3-1.1.8-1.8 3.2-1.9 4.9-1.6 3 .5 6 2.3 7.6 5 1.1 1.6 1.4 4-.6 5-.7.4-1.4.4-2.1.5-2.8 0-5.5-1.2-7.6-3.1-1.3-1.3-2.4-2.8-2.5-4.7zM656.9 1054.4l-1.1.2c-3.1-.1-6.2-1.5-8.3-3.8-.7-.8-1.5-1.8-1.7-2.8M667.2 1041.8l-.2-4.4-.2-4.5c-.1-2.6-.6-5.2.4-7.7.3-.6.6-1.6 1.4-1.8h.4l4.3 1.1 48.3 13 4.3 1.1M615.4 230.3l-8.4 10.4M113.9 293.2v-168.9M1286.2 431.9l-2.9 3.4M1283.3 431.1l2.9.8M783.7 288.2l8.4-10.3M122.5 993.2l1.3.4M630.2 255.3l-2.8-.8M617.6 1113.5l9.8-12.1M617.6 256.5v19.8M770.3 297.6v20M630.2 255.3l-2.8 3.5M627.4 244.3v14.5M630.2 264.8v-9.5M591.1 270.6v-31.9M1277.8 1115.7l-1159.2-312.1M773.9 1037.6l.7-.8M627.4 1101.4v-13.2M136.2 101.3l-5.6 6.9c-1.8 2.3-3.7 4.3-4.8 6.9-2.6 6-2.8 12.9-1.8 19.2l.6 2.9.8 2.7v163.8M617.6 256.5l2.8-3.4 4.2-5.3 2.8-3.4-.2-1.7c-.2-1.2-.6-2.4-1.2-3.6-1.8-3.6-5-6.6-8.8-8.1l-1.9-.7-4.2-1.1-470.8-126.8c-2.8-.7-5.1-1.4-8-1.6-1.4.2-2 .1-3.3.6-2.9 1.1-4.6 4-6.4 6.3-2.2 2.7-4.8 5.4-6.6 8.4-2.1 3.5-2.9 8.2-1.5 12.2.5 1.5 1.3 2.9 2.2 4.2 1.1 1.5 2.3 2.8 3.7 4 .9.7 3.8 3 4.9 3.4l4.3 1.2 450.2 121.2 4.3 1.1M591.1 238.7l4.2 1.1 8.5 2.3 4.2 1.2 2 1.1c3.1 1.9 5.6 4.8 6.8 8.2.6 1.6.5 2.1.7 3.8M117.2 114.6c.9-1.1 1.1-1.4 2.3-2.1 4-2.4 8.5-.7 12.6.4l470.7 126.7 4.3 1.1M608.1 243.3l-1.1-2.6M796.9 294.1c-3.5 6.1-5.8 12.8-6.7 19.7-.4 3.1-.3 6.2-.3 9.3v84.8c0 4.7 0 9.3-1.3 13.8-2.6 8.8-9.5 15.7-18.1 18.7-3 1.1-6.3 1.7-9.6 2l-5.2.1-5.3-.5c-3.3-.5-6.6-1.5-9.8-2.3l-107.4-28.9-4.2-1.1M770.3 297.6c.1-1.5.1-2.1.7-3.5 1.5-3.2 5.4-5.1 8.9-4.5l4.2 1.1 8.5 2.3 4.3 1.1M771.9 292.7l2.8-3.4 4-5 2.8-3.4 1-1.2c1.6-1.6 3.8-2.2 6-2.3 2.7 0 5.4.9 8 1.6l470.7 126.7c2.7.7 5.5 1.3 8 2.7 1.2.7 2.4 1.5 3.3 2.5 2.4 2.2 4.3 5.1 4.8 8.3l.1 1.8v14.4M745 1018.8c3.7 1.2 7.3 2.4 10.8 4.1 9.7 4.8 18.3 12.1 24.5 21 3.7 5.3 6.7 11.2 8.3 17.5 1.2 4.8 1.3 9.6 1.3 14.5v84.8c0 3.3-.3 6.9.7 10.1.3 1 1 2.5 2 2.9l4.3 1.1 454.9 122.5c1.9.6 4.3 1.3 6.4 1.6 4.7.9 9.7-.5 13.3-3.7 1.8-1.6 3.3-3.8 4.8-5.6l2.9-3.7c1.7-2.1 3.4-3.6 3.9-6.3l.1-1.7v-14.4l2.8-3.4v-828.1999999999999M1283.3 1278l-5.6 7c-1.8 2.1-3.3 4.5-5.7 5.8-2.9 1.6-6.1 1.8-9.3 1.9-3-.3-5.7-.7-8.6-1.7l-2.9-1.1-2.7-1.4-4.3-1.1-450.2-121.2-4.2-1.1M1273.6 1293l.8-1.4c.9-2.4.6-5.3.6-7.7v-164.8l2.8-3.5v-518.5M1248.6 606.1c7.6 1.7 16.4 1.7 23.3-2.8 2.4-1.6 4.1-3.9 5.9-6.2M1271.4 406.9c-3.2 4-6.6 7.9-9.6 12-3.2 4.3-5.9 8.9-8.5 13.6-1.3 2.5-2.6 5-3.7 7.5l-1 2.2v163.8M1275 600.6v-169.3l-.1-1.8c-.9-5.2-5.2-9.6-9.9-11.6l-1.9-.7-4.3-1.1-470.8-126.7-4.2-1.2-3.9 1.3M789.9 318.8l4.2 1.1 450.2 121.2 4.3 1.2c.8.1 4.8-.5 5.6-.6 6.8-1.2 14.3-4 19.5-8.9l1.3-1.4 2.8-3.4 5.6-7M125.4 822.3l4.3 1.1 1114.7 300.1c3.2.9 6.4 1.8 9.7 2.1 6 .5 12.7-.4 17.8-3.8 1.6-1.1 1.8-1.4 3.1-2.7M586.9 1118.2l-4.3-1.1-454.5-122.3-4.3-1.1c-.7-.2-.2-1.9-.2-2.3.2-1 .6-2.2.9-3.2l.8-2v-163.8M113.9 811.8v164.20000000000002c0 2.1-.2 4.7.2 6.8.8 4.5 4 9.1 8.6 10.4M584.1 1109.6l-4.3-1.1-450.2-121.2-4.3-1.1h-2.5c-2.8-.2-6.5-.8-8.2-3.3-.7-1-.6-1.3-.7-2.4M1256.2 1298.4l-1.5-.7c-2.4-1.6-4-4.2-5.1-6.8l-1-2.5v-163.8M627.4 1101.4l-.2 1.6c-.5 2.6-2.2 4.3-3.9 6.4l-4.5 5.6-2.8 3.5M601.1 289.3c-.7 2.5 2.6 4.7 4.8 3.9M611.1 374.8c-.7 2.5 2.6 4.7 4.8 3.9M695.9 407.4c-.7.3-.3.2-1.1.3-1.8-.3-4.3-1.9-3.7-4.1M771 417.9c-.7 2.5 2.7 4.7 4.8 3.9M786.6 426.7c-1.8 1.6-4 2.9-6.2 3.9M785.8 341.6c-.7.3-.3.2-1.1.2-1.8-.3-4.3-1.9-3.7-4.1M591.1 238.7c-3.6 6-5.8 12.7-6.7 19.7-.4 3.1-.3 6.2-.3 9.3v84.8c0 4.9.1 9.7 1.3 14.5 3.6 13.9 13.4 25.9 25.2 33.9 4 2.8 8.4 5.1 13 6.9l5.5 1.8M114.2 291.7c-.2 1.4-.4 1.8 0 3.2 1.2 5 6.8 7.6 11.3 8.9l4.3 1.1 1114.7 300.1 4.3 1.1M118.6 300.7v502.9l-2.8 3.5c-.8 1-1.3 1.9-1.7 3.1-.7 3 .7 5.8 2.9 7.8 1.1 1 2.3 1.8 3.6 2.5 1.9 1 2.7 1.1 4.7 1.8M594.4 993l-.4.7-.8 2.1c-.8 2.2-1.5 4.3-1.8 6.6-.5 3-.4 6.3-.4 9.3v105.2M745 1018.8l-4.3-1.1-107.4-28.9c-3.2-.9-6.5-1.8-9.7-2.3l-5.4-.6-5.2.1c-3.2.2-6.5.9-9.6 2-8.6 3-15.5 9.9-18.1 18.7-1.3 4.5-1.3 9.2-1.3 13.8v89.2l.1 2.2.2 1.9c.4 2.1 1.6 5.5 4.4 4.7 1-.3 1.5-.8 2.3-1.4M617.6 1094.2v14.9c0 3.7.5 7.8-2.7 10.5l-1.4.9-1.6.7c-1.5.4-2.2.3-3.9.3l-17-4.6M601.7 1069.6c-.4.4-.6.8-.7 1.3-.3 1.8 1.4 3.4 3 3.9 1 .2 2.5.1 2.9-1.1M616.8 993.5c-.2.9-1.2 1.1-2.1 1.2-1.9-.3-4.6-2.2-3.6-4.5l.5-.7M696.8 1007.9c-.3.9-1.3 1.1-2.1 1.2-.7-.1-.8-.1-1.5-.4-1.4-.7-3-2.7-2-4.3M790.6 1170.7l-4.2-1.1-2.3-.6-4.2-1.1c-1-.4-3-1.7-3.8-2.4-2.7-2.2-4.9-5.4-5.6-8.8-.3-1.8-.2-4.9-.2-6.3v-14.700000000000001M771.1 1033.4c-.5 1.7.6 3.3 2.1 4 .6.3 1.5.6 2.2.4M781.6 1118.1c-.3.4-.6.7-.7 1.3-.3 1.7 1.4 3.4 2.9 3.8 1 .3 2.5.1 2.9-1.1"/>
    <defs>
        <path id="SVGID_1_" d="M113.1 1300z"/>
    </defs>
    <clipPath id="SVGID_2_">
        <use xlink:href="#SVGID_1_" overflow="visible"/>
    </clipPath>
    <path class="st3" d="M113.1 1300l8.2-8.2"/>
    <path class="st0" d="M113.1 1300z"/>
</svg>
