<svg xmlns="http://www.w3.org/2000/svg" xmlns:xlink="http://www.w3.org/1999/xlink"
    viewBox="0 0 1400 1400" enable-background="new 0 0 1400 1400">
    <style type="text/css">.st0{fill:none;} .st1{fill:none;stroke:#000000;stroke-width:2;} .st2{clip-path:url(#SVGID_2_);} .st3{fill:none;stroke:#FFFFFF;stroke-miterlimit:10;}</style>
    <path class="st0" d="M1178.4 100h-956.8v1200h956.9l-.1-1200z"/>
    <path class="st1"
        d="M900 517.9c-1-.2-1.9 0-2.3.6M834.9 511.1c.8-.9 1.4-2.3 1.8-3.9.4-1.1.6-2.3.6-3.2M838.4 496.1c-.8.9-1.1 2.6-1.1 3.9M807.4 529.7c0-1.3-1.1-2.6-2.6-3M809.6 532.5l-.6.2M837.2 503.9c-2.6-.7-5.8 0-7 1.5M867.1 548.1l-.6.2M877.3 559.6c3-.3 5.6-1.5 6.8-3.2M804.8 526.6c-.5.7-.8 1.3-.8 2 0 1.9 1.9 3.5 4.7 4.3M838.4 496.1c-1.1-.3-2.4-.4-3.4-.4-3.3 0-6.1 1.1-7.4 2.7M900.7 515.9c0-1.9-1.9-3.6-4.7-4.3M900 517.9c.5-.6.8-1.4.8-2M866.3 548.4c4.1 1 9 0 10.9-2.3M871.3 558.1c1.3.4 2.6.5 3.9.5 4.1 0 7.7-1.5 9.2-3.7M787.3 531.6c-.2 2.3 2.1 4.3 5.5 5.3M807.4 529.7c-.4.5-.5.9-.5 1.3M837.2 500c-2.6-.8-5.8-.1-7 1.4M897.9 518.3c0-1.2-1.3-2.3-3.1-2.8M896 511.6c-.8.9-1.3 2.6-1.1 3.9M830.2 505.4c0 2.4 2.2 4.9 4.8 5.6M830.2 501.5c0-1.3-1.2-2.7-2.6-3.1M867.1 547.9c2.3.6 4.8.4 6.6-.5"/>
    <path class="st1"
        d="M875.2 546.4l-.3.4.3-.4zM877.3 546.2c-.9-.3-1.6-.2-2.1.2M917.5 512.4c-.2-2.1-2.4-3.9-5.5-4.7M833.5 486.5c-1.4-.4-2.8-.5-4.1-.5-3.8 0-7.1 1.3-8.7 3.2M787.3 533.3c0 .8.4 1.8 1 2.4M916.7 516.2v-1.2M835 511l-18.8 23.3M837.2 500v3.9M807.4 531.6v-1.9M808.7 532.9l.2-.2M830.2 505.4l-21.6 26.7M866.3 548.4l.1-.2M884.1 556.5l.3-.4M884.1 556.5v-1.1M808.7 532.9l57.6 15.5M827.6 498.4l-22.8 28.2M896 511.6l-57.6-15.5M877.2 546.2l22.8-28.3M792.7 536.9l78.6 21.2M830.2 501.5l-22.8 28.2M894.7 515.5l-57.5-15.5M835 511l56.4 15.3M830.2 501.5v3.9M874.5 547l.4-.2M833.5 486.5l78.4 21.2M807.4 531.6l1.1.5M807.5 531.6l-.5-.5M807 531.1l-.2-.4M896.4 520.1c-.9-.6-2.4-.8-3.4-1.1l-53.9-14.5-1.9-.6M889 549.2l1.3-1.5 25.2-31.1c.6-.8 1.4-1.7 1.8-2.5l.2-1.1M897.9 518.2l-.2.3-1.2 1.4-20.4 25.2-1.2 1.6M894.7 515.5c0 1.7.2 3.3 0 4.9-.1.8-.2 1.5-.4 2.3M808.5 532.1c.9.4 1.9.6 2.9.9l53.8 14.5 1.9.5M873.6 547.5l1.2-.6M917.5 512.4v1.8c-.1 1.4-1.3 2.6-2.1 3.6l-24 29.7-1.2 1.5M787.2 533.4v-1.8c.1-1.4 1.4-2.6 2.1-3.6l30.1-37.3 1.3-1.5M501.3 124.2l-.4-.5M498.3 112.1c-1.2-1.8-2.6-3.4-4.1-4.7M492.9 124.9c1.3-.8 2.4-1.8 3.2-2.7M479.2 152.3l-.3.6M495.5 133.4c-.3.4-.4 1.1-.4 1.7M501.3 124.3c-.6.8-.9 1.7-.8 2.5M510.2 145.1c-.4-.6-1.4-1-2.5-1-1.2 0-2.1.5-2.4 1M487.6 149.9c-.3-.6-1.3-1-2.5-1s-2.1.4-2.4 1M510.3 144.7c0-.8-1.1-1.5-2.6-1.5-1.4 0-2.6.7-2.6 1.5l.6.9M509.8 145.6l.5-.9M458.6 120.9l-.8.5M473.9 134.3c-.8-1.5-2.7-2.6-4.9-3.2M474.4 133.8c-.9-1.5-2.9-2.7-5.3-3.4M480 142.9l-.2-.8-.4-.6M474.4 133.7l-.3.1-.2.4"/>
    <path class="st1"
        d="M511.1 144.1c0-1.1-1.5-1.9-3.4-1.9-1.8 0-3.3.9-3.3 1.9s1.5 1.9 3.3 1.9c1.9 0 3.4-.9 3.4-1.9zM494.9 135.8c-3.6-1-8-.1-9.6 2M478.6 143.7c0 .4.2 1.1.4 1.5M478.6 143.8l-.2-.9-.3-.7M473.9 135.4c-.9-1.5-2.7-2.6-5-3.1M457.3 121.6l-.7.4M479 143.3l.5.2.4-.2M495.1 135.1c-3.9-1-8.4 0-10.1 2.1M505.6 138h.2l.5-.3M479.1 142.9l.4.2.4-.2M495.1 134.7c-1-.3-2.2-.4-3.2-.4-3 0-5.7 1.1-6.9 2.6M506.2 137.3M505.7 137.6h.1l.4-.3M467.1 126.1c7.4 3.3 17.6 3 24.4-.4M484.8 136.8l-.4-.8-.4-.2M484.9 136.8c-.1.5.1.8.4.9M499.4 112.6h-1M500.9 123.7c-1.1 1.5-1.2 3.1-.3 4.5M508.6 115.1l-.6-.1"/>
    <path class="st1"
        d="M508.6 115.2zM487.8 149.4c0-.8-1.2-1.5-2.7-1.5s-2.6.6-2.6 1.5l.6.9M487.2 150.3l.6-.9"/>
    <path class="st1"
        d="M488.5 148.8c0-1.1-1.5-2-3.4-2-1.8 0-3.4.9-3.4 2s1.5 1.9 3.4 1.9c1.9.1 3.4-.8 3.4-1.9zM513 149v-.4l-.3-.2M516.3 145l-.5-.4h-.1M480.1 144.3l-.5.2"/>
    <path class="st1"
        d="M505.7 136.1h-.1.1zM506.2 137.7v-.5c0-.6-.3-1.1-.6-1.1M495.5 133.4c-1.1-.3-2.4-.5-3.7-.5-3.4 0-6.4 1.2-7.8 2.9M479.3 141.6l-.3.1-.1.5M479 142.9l-.1-.6M479 142.9c0 .6.2 1.2.5 1.7M498.9 115.4c0-.7-.1-1.4-.2-1.9M498.3 118.2c.4-1 .6-1.9.5-2.8M464.8 125.1c3.8 2.3 8.8 3.4 13.9 3.4 10.3 0 18.8-4.6 19.6-10.4M459.6 122.7c1 .9 2.3 1.7 3.6 2.4M458.4 120.9l-.9.5M460.7 107.7c-6.9 5.8-10 14.7-8.9 23.1M478.1 101.4c-6.4-.1-12.4 2.1-16.9 5.8M498.8 112.5c-4-5.9-10.4-9.7-17.1-10.7M501.3 124.3v1.2M508.8 115.4l-.2-.1M498.5 112.5l-.4-.7M508.6 115.6l.2-.4M470.5 127.4h.1M478.9 154.1v-1.2M501.3 124.3l7.3-9.1M513.2 140.7l2.6 4M453.8 126.3l4.1-4.9M468.8 131.1l-15.6-4.3M478.9 142.1l-5-7.9M479.3 141.6l-4.9-7.9M473.9 135.4v-1.2M476.8 148.3l8.5-10.5M473.9 135.4l4.2 6.7M454 128.2l14.8 4.1M457.4 121.6h-.1M484.8 137.2l-4.8 6.1M505.7 138l-10.6-2.9M484.8 136.8l-4.8 6.1M505.7 137.6l-10.6-2.9M467.1 126.1l-2.3-.9M499.4 112.6l8.6 2.4-7.1 8.7M508.6 115.6v-.4M513 149v1.3M506.2 137.7v.1M495.5 133.4l10 2.7M479.3 141.6l4.7-5.8M479.1 142.8l-.1-.1M508.8 115.2h-.2M498.6 113.3l-.3-.8M460.7 107.6l-.1.1M457.9 121.4l-.2-.1-.2.2M499.5 112.6l-.8-.1h-.4M509.2 142.3c-.4 1.3-.3.6-.3 1.9M500.6 127.5l.3.9M476.4 148.5l.4-.2M486.6 147c-.4 1.3-.4.7-.4 2M506.5 138.6v.2M508.8 115.2v1.9M515.8 144.7l-1.3 1.4-.6.9-1.3 1.5-1.9.3-22.9 4.9-1.9.4-1.9-.5-2.9-.8-1.9-.5-1-1.7-.4-.6-1-1.7M493.3 124.6c-.8.6-1.6 1-2.4 1.4M468.8 132.3l.3-1.9M495.1 135.1l-.2.6M508.4 115c-3-.9-6-1.7-8.9-2.4h-.1M495.6 122.6s1.1-1.3 1.6-2.2M485.8 156l.1-1.9M500.6 128.2c.8 0 1.5 1.8 1.5 1.8l2.8 4.7 1.1 1.6M453.2 127.2l-.7-.1M469.1 130.4c-5.1-1.3-10.2-2.7-15.3-4.1l-.5.2M480 144.3v-1.4M498.3 118.1c-.4.9-.8 1.9-1.3 2.8M494.9 135.7l1.8.5 7.7 2.1 1.8.5h.3c2.3.5 4.6 1.1 7 1.8M498.5 117.3c-1.7-.3-3.4-.4-5.1-.4-4.8.2-9.6 1-14.4 2.2-5.3 1.4-10.3 3.2-15.4 5.6M452.5 130v-2.9l1.1-1.5 1.7-2.1s.8-1.7 1.8-1.5M452.8 129.6v-2.5l1.2-1.5 1.8-2.2 1.2-1.5.4-.3M506.5 138.6l-.3-1M500.6 128.2l1 1.6 2.9 4.7 1 1.6v.2l.1 1.1.3 1.1.3.3 1.9.5 3.3.9 1.8.5h.3l2.7 4.2M500.4 126.7l.2.9M508.2 116.9l-1.1 1.5-4.5 5.5c-.8.9-1.9 2-2 3.3M476.3 148.7l1 1.6.5 1 1.1 1.6 1.8.5 3.3.9 1.8.5 1.9-.4 23.4-5 1.9-.4 1.2-1.4.8-1.1 1.3-1.5M479.5 144.5l-1.1 1.5-.9 1-1.1 1.5-.1.1v1.3l1 1.6.5.9 1.1 1.7 1.8.5 3.3.8 1.8.6 1.9-.4 23.4-5 1.9-.3 1.2-1.6.8-1 1.3-1.5v-1.2M462.8 124.2l2 1M458.4 120.9h.1l.9.8M453.2 127.2c0-1 .4-1 1.3-2.1l1.7-2.2 1.2-1.5M481.6 101.8c-1.4-.2-2.6-.3-3.9-.4M1145.6 350.8l.1.6M1154.4 347.6c.5.2 1 0 1.2-.2M1154.3 347.7c-.6-.2-.9-.2-1.1 0M1146.1 351l.1.5M1146.1 351.5h.6"/>
    <path class="st1"
        d="M1143.9 357.9c-.7-.1-1.6 1.1-2.2 2.9-.5 1.8-.5 3.4.1 3.6.7.1 1.6-1.1 2.1-2.9.6-1.8.5-3.4 0-3.6zM1145 352.1l-.6-.4M1141.7 356.2l-.6-.4M1157.5 333.8c.7.4 2.2 0 3.5-1.1M1153.3 347.7c0-1.6-.3-2.6-.8-3M1153.2 344.2M1154.2 345.6c-.2-.8-.6-1.3-1-1.3M1148.7 367.2c.4-.8.7-1.9.7-2.8M1138.9 369.3l.4-.1.2-.2M1152.3 329.5l.2.1.4-.2M1113.8 313.7l.5.2h.2M1130.3 293l-.5-.4M1105.2 297.6l-.6.3M1113.8 314.1l.5.2h.2"/>
    <path class="st1"
        d="M1150.2 363.4zM1148.6 368.5c.6.2 1.3-.8 1.7-2.3.4-1.5.4-2.7-.1-2.8M1113.4 315.3l-.2-.4-.2-.2M1098.1 303.7c-.4-.6-1.3-1.1-2.4-1.1-1.1 0-2.1.4-2.4.9M1115.2 300.7l-.2.8M1114.8 302.6l.2-1M1119.4 305.7c0-1.8-1.8-3.4-4.4-4.1M1119.4 306.3v-.6M1119.4 306.1c0-1.7-1.8-3.2-4.3-4M1106.5 316.2c0-.9-1.2-1.6-2.7-1.6s-2.6.7-2.6 1.6l.6.9M1106 317.1l.6-.9M1130.4 294.5c-1.7 2-2.4 4.1-2.1 6.1M1110.1 319.3l-.2-.3-.2-.2M1142.9 358.4M1141.4 363.6c.6.1 1.3-.9 1.7-2.3.4-1.4.4-2.6-.1-2.8M1141.5 362.3c.4-.8.7-1.9.7-2.8M1154.4 343.6c-.7-.2-1.5.3-2.3 1.3M1155.8 347.5c0-2.3-.5-3.6-1.3-3.9"/>
    <path class="st1"
        d="M1151 362.9c-.6-.2-1.6 1.1-2.1 2.9s-.5 3.4.1 3.6c.7.2 1.6-1.1 2.1-3 .6-1.7.5-3.4-.1-3.5zM1154 357.2c.7.3 1.4 0 1.7-.8M1151.6 334.8c.4-1.3.6-2.5.7-3.6M1146.1 351l.7-.6M1145.5 350.8c-.4 0-.8.3-1.1.9M1129.6 294.5c-1.5 3.6-.2 7.1 3.1 9.9M1106.3 316.6c-.4-.6-1.4-1-2.5-1s-2.1.5-2.5 1"/>
    <path class="st1"
        d="M1155.8 308.8l-.1-.2.1.2zM1155.6 309.2l.2-.4-.2.4zM1131 303.1c1.3 1.3 2.9 2.2 4.6 3M1147 351.2l.3-.6"/>
    <path class="st1"
        d="M1147 351.2zM1133.7 289.4c-3.7 2.2-5.5 5.1-5.5 7.9 0 5.9 7.9 10.8 18 11.3M1144.9 349c.4 0 .9-.5 1.1-1.1M1144.8 349c-.6-.2-1.1.4-1.3 1.1"/>
    <path class="st1"
        d="M1144.9 349zM1147.6 375.3l.4-.4M1154 356.9c-.3-.1-.6.4-.7.9M1154 356.9M1154.3 357l.9-.2.4-.4M1136.2 311.9c-2.4-.6-5.1-.6-7.4-.2M1117.2 314.2c-.6.1-1.2.6-1.2 1M1114.6 316.3h.2c.8-.2 1.2-.7 1.2-1.1M1155.9 331.9c.9 1.5 2.3 1.7 3.7 1.2M1136.2 310.7c-2.4-.6-5.1-.6-7.3-.2M1115.1 313.4l-.7.5"/>
    <path class="st1"
        d="M1114.5 314.4l-.1-.4.1.4zM1113.3 315.4c.7-.3 1.1-.6 1.1-1M1135 305.7c2.6 1.4 5.7 2.3 8.7 2.6"/>
    <path class="st1"
        d="M1107.2 315.5c0-1-1.5-2-3.4-2-1.8 0-3.3.9-3.3 2s1.5 2 3.3 2c1.9 0 3.4-.9 3.4-2zM1120.2 294.3c1.4-.4 2.6-.9 3.4-1.7M1103.5 299.6c.6-.1 1.1-.2 1.1-.4M1105.4 297.6c-.6.3-.9.7-.9 1.1M1119.1 294.7c2.6-.6 4.6-1.7 5.7-3M1098.3 303.1c0-.9-1.2-1.6-2.6-1.6-1.5 0-2.8.7-2.8 1.6l.6.9M1097.7 304l.6-.9M1119.6 306.9l-.7.2M1096.3 318.5l-.4.6M1119 306.6c.1-1.7-1.6-3.2-4.1-4M1118.9 307.3l.1-.7"/>
    <path class="st1"
        d="M1099 302.5c0-1-1.5-1.9-3.3-1.9-1.9 0-3.5.9-3.5 1.9 0 1.1 1.5 2 3.5 2 1.8 0 3.3-.8 3.3-2zM1120.4 304.8c0-2-2.1-3.8-5-4.5M1119.6 306.9c.6-.6.9-1.4.9-2.1M1147.4 308.7c2.4.2 4.8.2 6.9 0M1156.3 309l-.4-.4"/>
    <path class="st1"
        d="M1155.9 309.3l-.3-.1.3.1zM1156.1 310.1l-.2-.8M1157.8 333.9c1.3.4 2.8-.3 4.1-1.7M1157 310.7l-.5-.6"/>
    <path class="st1"
        d="M1171.2 292.4zM1168.4 298.1c2.6-3.1 3.4-5.1 2.8-5.8M1136.3 310.1c-2.5-.7-5.3-.8-7.7-.2M1114.9 312.6c-.9.1-1.3.6-1.2 1.3M1176.9 309.5c.1-3-.3-5.8-1.1-8.3M1175.7 300.5c-2.2-6.7-7.1-12.1-13.1-15M1158.1 283.7c-1.4-.4-2.8-.8-3.9-.9M1162.1 285.3c-1.4-.6-2.8-1.2-4-1.5M1154.8 325.7c-.1 5.1 1.1 8.2 3 8.7 1.6.5 3.5-.6 5.4-3M1157.4 310.5l-.4-.5"/>
    <path class="st1"
        d="M1157.4 310.5zM1146.7 345.9l-2.9 3.6M1146.4 347.1l-1.6 1.9M1157.8 333.9l.4.1M1156.7 333.1l.5.4M1145.6 351.4l.5.1M1152.8 344.3l-.1.1M1143.1 351.4l1.3.3M1139.9 355.3l1.2.4M1151.9 345.2l.3-.4M1153.3 357.9v-10.2M1152.8 344.3l.2-.1M1138.8 369.3l8.7 6M1139.5 369l8.5 5.9M1138.8 369.3l-1.2-.3M1151 329.1l1.3.4M1103.5 299.5v.1M1113.8 313.8l-.8.9M1115.7 315.6l1.2-1.4M1104.5 297.9l-.1.2M1105.3 297.5l-.1.1M1098 303.9v-.1M1118.9 307.2l.2-.5M1113.3 315.3v1.2M1106.3 316.9v-.1M1106.9 316.4l-.6.4M1115 301.6v-.1M1110.1 320.6v-1.2M1155.6 347.4v9M1147.3 350.6l4.7-5.8M1145.6 350.8l.5.2M1151.6 314.2l4-5.1M1146.1 347.9l.7-2.2M1154.4 357.1l-.4-.2M1136.2 311.9l14.8 4M1117.2 314.2l11.6-2.5M1136.2 310.7l15.6 4.2M1115.1 313.4l13.7-2.9M1098 303.8l.7-.5M1104.5 298.8v.4M1119.1 294.7l-13.8 2.9M1131.9 282.9l-7.1 8.8M1095.9 320.2v-1.2M1115.4 300.3l-10.2-2.7M1114.9 312.7l4.7-5.8M1155.8 308.6l-1.4.1M1156.1 310.1l.4.1M1136.4 310.1l15.2 4.1M1114.9 312.7l13.8-2.8M1175.7 300.7l.1.2M1162.5 285.4l.2.1M1147 351.2l-.3.2M1142.3 359.3c1.4.4.7.4 2.1.2M1147.3 350.6l-.6-.2M1149.5 364.3c1.3.4.7.4 2 0M1137.6 362.7l1.9.3M1153.5 357.6l.2-.4M1157.5 333.8l-.3-.3-.1-.1M1145.5 351.4l-.5.7M1152.7 344.4l-.6.4M1154.1 345.5c.4 1.5.3 2.7.3 4.1v7.6l.1.1M1145.2 351.6l-.2.5-1.3 1.5-.8 1-1.2 1.6-.6 1.8-1 3.2-.6 1.8v6M1114.9 312.7l.2.7M1089.6 299.2l-.2-.1M1086 303.1l.5-.2M1103.7 299.4l.5-.4M1124.3 291.8l.5-.1M1096.5 297.6v.1M1128.7 299.2c.4 1.1.2.5.7 1.5M1130.8 302.7s-1.1-1.4-1.5-2.2M1128.8 311.7l-.1-1.8M1128.6 297.6l.1 1.7M1156.2 332.1c-.5-1.3-.8-2.7-.9-4.2M1154 357.2v-9.7c0-1.1-.1-2.5-1-3.3M1152 344.8c-.1.8-1.3 1.8-1.3 1.8l-2.3 3-1.2 1.4M1151.6 314.2l.2.7M1130.8 302.7l.6.6M1136.2 311.9l.2-1.8M1140.1 285.1l-1.8-.4-4.5-1.3-1.9-.5-.2-.1M1100.8 314.8c.8 1 .6.4.6 1.7M1119.1 306.8l.3-.8M1123.7 292.6c.8-.8 1.3-1.4 1.9-2.3l4.9-6 1.2-1.5 8.6 2.3M1115.3 300.7l.1-.4M1115 301.6l-1.9-.5-6.7-1.8-1.9-.5-.2-.4M1104.4 298l-.1.4v.6l.2.2 1.9.5 6.7 1.9 1.9.4M1149.7 336.2l2 .6M1154 357.2h-.2M1162.7 337.1c-1.4 2-2.3 4.3-3 6.6l-3.4 10.9-.6 1.8M1156.3 309.2l-1.4 1.9-1.8 2.3c-1.3 1.6-1.2.8-1.2 1.9M1152.2 331.2c.1-1.3.1-2.3.1-3.6v-10.3c0-2.5-.4-1.4 1.1-3.4l1.8-2.2 1.2-1.5.4-.2M1146.7 350.4l.6-1.8 3.5-11.1.6-1.8.2-.9M1138.8 369.3v-6.300000000000001l.6-1.8 1.2-3.6.5-1.9 1.3-1.5.8-1 1.2-1.5M1151.8 315.3l1.1.4M1134.5 288.7c-1.6 1.5-3.4 3-4.5 5-.7 1.3-1.4 2.6-1.4 4.2M1159.8 333.2c2.8-1.1 5.6-2.6 7.9-4.5M1147.3 350.6l.6-1.8 3.5-11c.8-2.3 1.3-4.5 1.5-6.9.1-1.1.1-2.3.1-3.4v-11.8l1.1-1.5 1.7-2 1.2-1.5.4-.2M1137.6 369v-6.300000000000001l.5-1.9 1.2-3.6.6-1.9 1.2-1.4.8-1 1.2-1.5.4-1.4M1147.6 375.3c-2.1-.6-1.1-.1-3.1-1.5l-5.4-3.8-1.6-1.1M1153.3 357.9v6.300000000000001l-.6 1.8-1 3.2-.6 1.9-1.2 1.5-.6.8-1.3 1.5M1170.2 326.4v1.3l-1.2 1.5-4.7 5.8c-.6.8-1.4 1.7-1.9 2.6-1.2 1.8-1.9 4-2.6 6.1l-3.5 11-.6 1.8M1086.7 305.7l1 1.5 7.1 11.3 1.1 1.7 1.8.5 3.2.8 2 .6 1.8-.4 3.5-.8 1.9-.3 1.3-1.6.7-1 1.2-1.5 1.3-.2M1096.5 297.6l-1.9.4-3.3.6-1.9.5-1.2 1.4-.9 1.1-1.3 1.5v.2l1 1.6 7.8 12.5 1.1 1.6 1.8.5 3.2.9 2 .5 1.8-.4 3.5-.8 1.9-.3 1.3-1.6.7-1 1.2-1.5M1113.8 314l-.5.5-.3.2-1.2 1.6-.9.9-1.2 1.6-1.9.3-3 .7-1.9.4-1.9-.6-2.9-.7-1.8-.5-1-1.6-7.8-12.2-1-1.7M1105.2 297.6c.1-.1.1-.1 2-.4l10-2.2c1.1-.2 2.2-.4 3.3-.7M1096.5 297.6l1.8.5 3.3.9 1.9.5.2-.1M1102.9 322.1v-1.9M1114.7 302.6c-6.1-1.7-12.2-3.3-18.3-4.9l-1.9.4-3.2.6-1.9.4-1.2 1.5-.7.8-1.2 1.5M1113.9 313.2l.1-.1 1.3-1.4 2.3-3.1 1.3-1.4M1093.1 303.7l.1-.3c.1-1.1.1-.8-.7-1.7M1147.4 308.7c-1.6-.1-3.4-.4-4.9-.6M1156.3 309.9v-.8M1156.8 333.3l-.8-1.8M1151.8 315.3l1.2-1.6 1.8-2.2 1.2-1.5.2-.2c1.1-1.1 2.4-2.2 3.6-3.3 2.9-2.8 5.7-5.8 8.3-8.9M1176.9 309.1c0 4.2-1.2 8.3-3.1 12-.7 1.3-1.5 2.6-2.5 3.7-.9 1.1-2 2.2-3 3.2l-1 .8-1.4-.7c-.8-.6-1.6-1.2-2.3-1.8-2.8-2.4-5.3-5.2-7.8-8M1147.4 308.7c-3.7-4.7-7.5-9.5-10.7-14.6-.7-1.1-1.4-2.4-2-3.6l-.4-1.7.4-.4 1.1-.9c1.3-1 3-1.9 4.5-2.6 1.7-.8 3.6-1.4 5.4-1.7 3-.5 5.8-.7 8.8-.3M1157.3 310.5c-.8 3.2-1.3 6.5-1.7 9.8-.2 1.4-.3 2.9-.4 4.3l-.1 1.1v.1M1156.3 309.9l.6.1M229.7 436.5l.5.5M279.2 442.3c.5.6 1.1.8 1.3.5M258.8 411.7l-.9.1M280.7 445.5l-.1-.5"/>
    <path class="st1"
        d="M280.6 445.5zM263.7 444.4c-.6.8-.8 1.9-.8 2.8M266.3 442.7c-1.8.7-2.6 2.3-2.6 4.1M269.7 442.5c-2.8-.9-5.3-.2-6.8 1.4-.7.9-1.1 2.1-1.2 3.3M259.8 432.9c.9-1.1 1.5-2.2 1.9-3.4M259 411l-.9-.1M268.1 427.7c0 2.2 1 4.3 2.6 6.2M280 444.8l.6.3"/>
    <path class="st1"
        d="M280.9 444.7l-.3.4.3-.4zM282 445.1c-.5-.4-.9-.6-1.1-.4M258.5 410l.7.3M282.4 393.5c.8.4 1.6.8 2.5 1M313.9 395.4l-.5-.3M267.3 427.9c.1 2.3 1.2 4.5 2.9 6.5M279.5 445.1l.5.6"/>
    <path class="st1"
        d="M273.2 464.3c.7-.9.3-2.3-.8-3.2-1.1-1-2.6-1-3.3-.2-.6.8-.3 2.3.8 3.2 1.2.9 2.7 1 3.3.2zM269.5 460.7c-.4.9.1 2 1 2.8 1.1.8 2.2.9 3 .4M293.2 459h.6M263.1 456.4h-.1M263.6 457c-.2-.5-.5-.8-.6-.6M261.5 456.5l.3.2c.4.2.8.2.9 0M252.1 445.3c-1.9-2-4.3-3.3-6.6-3.9M267.4 427.7h.2l.4-.2M281.1 400.8c-2.5.5-4.4 1.6-5.4 2.8M295.3 398.2l-.5-.3"/>
    <path class="st1"
        d="M295.4 398.2zM295.4 398.3c-.1.6.3 1 1.1.9M280.9 400.2c-2.6.6-4.6 1.7-5.7 3M271.4 397.9c0-3.4-2.8-6.4-7.1-8.5"/>
    <path class="st1"
        d="M268.3 412.8zM267.4 414l.2-.1c.6-.4.9-.8.8-1M281.3 389.3c-.5.6-.7 1.1-.8 1.7M281.2 389c-.6.7-.8 1.4-.8 2.1M298.6 383.6c-.5-.6-1.5-1-2.6-1s-2.1.4-2.4 1M275.5 403.8l-.4-.5M298.7 383.1c0-.8-1.1-1.5-2.6-1.5s-2.6.7-2.6 1.5l.5.9M298.2 384l.6-.9M286 383.4h.9M286 382.9c0-.4-.4-.7-.9-.7h-.1M263.6 384.8c2.5.7 5.3.8 7.7.2M271.9 397.7c0-4.4-4.3-8.2-10.6-10.1M266 405.7c3.9-2.3 5.9-5.1 5.9-8.1M284.9 450.9c-.4.9.1 2.1 1 2.9 1 .8 2.3.9 3 .4M263.6 446.8h-.2l-.5.2M261.6 447.4c.4.2.9 0 1.2-.2"/>
    <path class="st1"
        d="M288.7 454.5c.7-.8.4-2.3-.8-3.2-1.2-.9-2.6-1-3.3-.1-.7.8-.3 2.3.8 3.2 1.1.9 2.5 1 3.3.1zM261.4 456.5c.4.5.8.6 1.1.5M252.1 445.6c-1.5-1.8-3.5-3.1-5.5-3.8"/>
    <path class="st1" d="M280.9 444.8zM280.1 445.7l.6-.3.2-.6"/>
    <path class="st1"
        d="M273.5 465.1c.9-1.1.4-2.9-1.1-4.1-1.4-1.1-3.3-1.3-4.1-.2-.9 1-.5 2.9.9 4.1 1.6 1.2 3.4 1.3 4.3.2zM259.5 409.8c-.2.2-.3.6-.2 1M245 436.3c6.2 1.7 11.8.2 14.8-3.5M281 402.1c-2.5.5-4.4 1.5-5.5 2.8M293.9 400c-.2-.3-.6-.5-1.2-.4"/>
    <path class="st1"
        d="M293.9 400.1v-.1.1zM293.9 400l.5.6M306.9 396.7c-.4-.6-1.4-1-2.5-1s-2.2.4-2.5 1"/>
    <path class="st1"
        d="M307.7 395.6c0-1.1-1.5-2-3.4-2s-3.3.9-3.3 2 1.4 1.9 3.3 1.9c1.8 0 3.4-.8 3.4-1.9zM281.7 389.9c-.7.8-.8 1.7-.6 2.4M294.5 400.6h.8M310.7 399.6l-.1-.4-.2-.3"/>
    <path class="st1"
        d="M294.9 397.3l-.3.1.3-.1zM295.7 398.4v-.2c0-.5-.4-.9-.8-.9M280.4 388c-.6.7-.9 1.4-.9 2.1 0 1.9 2.1 3.7 5.1 4.5M306.9 396.2c0-.9-1.1-1.5-2.6-1.5s-2.7.6-2.7 1.5l.6.9M306.4 397l.5-.9M281.3 389.4l.2.4.3.1M281.2 388.8c-.1-.4-.4-.7-.9-.8M281.2 389.4v-.6M258.7 409.3l.7.4M265 405.8c1.2-9.9-1.6-17.3-6.7-19.5M263.7 384.8c2.4.6 5.2.7 7.5.2M286 382.4c-.2-.3-.7-.4-1.1-.4"/>
    <path class="st1" d="M286.2 382.8l-.1-.4.1.4zM271.3 398.8c.1-3-2.1-6-5.6-8.1"/>
    <path class="st1"
        d="M299.4 382.6c0-1.1-1.5-2-3.4-2-1.8 0-3.3.8-3.3 2 0 1 1.5 1.9 3.3 1.9 2 0 3.4-.9 3.4-1.9zM258.4 409.6c2.9-.8 5.2-1.9 6.9-3M258.8 409.3l-.3.6v.1M259.8 432c1-1.1 1.7-2.5 2.2-3.8M246.7 436.4c5.6.6 10.2-1.1 13.1-4.4M247.1 436.4c5.8 1 10.9-.8 13.4-4.4M281.7 443.3l-.9-.6M264 444c-.8.8-1.2 1.9-1.2 3.1"/>
    <path class="st1"
        d="M288.9 455.3c.9-1 .4-2.8-1-4-1.4-1.1-3.3-1.2-4.1-.2-.9 1.1-.4 2.9 1 4s3.3 1.3 4.1.2zM256.9 434.4c2.5-1.5 4.2-3.7 5.2-6.2M234.7 388.8c-7.8 5.1-7.8 19 0 31 6.1 9.4 15.2 14.9 22.7 14.4M260.2 433.3c2.8-3.6 3.2-8.6 1.4-13.5M239.5 434.7c8 4.5 16.5 3.8 20.7-1.4M262.3 427.4c.2-1.5.2-3.1-.1-4.5M270.8 400.4c.6-3.9-2.5-8.1-8.1-11.6M247.3 384.6c-3.8.1-7.9 1.3-11 3M236.1 387.9c-6.4 3.6-10.9 10-12.4 16.9M223.8 404.5c-1.2 4.3-1.1 9.2.1 13.3M224.1 418c1.5 5.2 4.7 9.7 8.6 12.8M238.8 434.4c6.9 3 16.5-3.8 22.4-15.6M261.3 418.5c-.6-2.1-1.5-4.1-2.6-5.8M259 410.7l-.8.2-.4.6v.1M259 410.7M298.5 383.7l.6-.4M298.5 383.7v.2M229.7 428.6v7.9M261.6 456.5h-.2M263.4 463.2h.3M279.1 442.3l-1.9-2.2M268.3 468.8v.2M267.4 414l-8.6-2.3M263.7 446.8v10.2M275 470.6l18.2-11.6M261.6 447.4v9.1M279.4 445.2l-9.9-2.7M268.1 413.4l-9-2.4M280.6 391.6l.2.3M268.1 427.5v-14.1M280 444.8l-9.4-10.9M268.3 412.8l-9.1-2.5M284.9 394.5l10.2 2.8M292.2 399.7l1.7.4M267.4 427.7v-13.7M279.4 445.2l-9.3-11M293.9 459.1l-18.6 11.7M252.1 445.6l.1-.1M245.8 441.6l-15.6-4.2M262.8 456.7l.2-.3M252.2 445.5l9.4 11M230.6 437.3l15.2 4.1M268.6 426.8l-.5.7M275.5 403.8l-7.2 9M294.8 398l-13.8 2.9M280.8 400.2l13.8-2.9M268 412.1l7.1-8.9M248.4 380.8l-3.3 4M264.3 389.5l-.2-.1M271.4 398.2v-.2M297.1 377.7l6.8 1.9M303.7 379.6l9.7 15.5M306.7 396.9l.7-.5M306.7 396.9M275.5 404.9v-1.1M286 382.9v.5M271.3 385.1l13.7-2.9M247.7 381.1l-3.1 3.8M262.8 447.3l.2-.4M252.1 445.6l9.3 10.9M292.6 399.6l-11.6 2.5M291.5 399.9l3 .7M310.7 400.7v-1.1M284.6 394.6l10 2.7M285 382.2l-4.7 5.8M268 412.1l-8.6-2.3M263.6 384.8v.1M284.9 382l-13.7 3M286.2 383.3v-.5M280.9 442.7l-1.8-.4M257.9 411.7l.8 1.1M268.3 413.2l-9.2-2.5M295.7 398.3l-.3.3M295.4 398.2l.3-.3M296.5 398.4v1.9M230.2 437.4l.4-.1M230.6 429.5l-.4-.3M230.2 437.4v-6.199999999999999c0-.8-.2-1.8.2-2.5M263.3 456.8l-.4-.2M263.7 457h-.1l-.5-.3M263 456.5l-.3.4M281.6 445.7l-.8-.4M265.1 443.3l-1.3.9M280.9 442.7h-.1l-.3.1M268.3 442.7h-1.9l-1.5.5M281.6 445.7l.9-1.3M270.9 465.8c.4-1.3 0-.8.8-1.6M280 444.8l-.6.4M263 456.5v-9.6M287.1 454.4c-.7.9-.5.4-.8 1.7M280.7 445.5l1.8.4 4.2 1.2 1.9.5 1.2 1.5 2.2 2.5 1.2 1.5v5.8999999999999995M288.6 447.6l1-1.3M262.3 426.9c-.2 1.1-.4 2.1-.8 3.2M280.7 391.8l.6.7M301.9 396.4c0-1.3.2-.6-.6-1.7M290 379.3h.1M284.6 394.6l.2-.1M293.9 459v-6.3l-1.3-1.4-2.4-2.8-1.3-1.5-1.8-.5-3.3-.9-1.8-.5M280.6 391.6l-.1-.7M295.7 398.4h.8M294.6 397.3l.2.7M286.7 383.3l1.2-1.5.8-1 1.2-1.5 1.9-.4 3.4-.7 1.9-.5M269.5 402.6l.5-.2M275.2 470.8l-.2-.2M230 436.9v-6.199999999999999c0-.8-.1-1.7.1-2.4M246.5 441.8l-.7-.2v-.2M269.5 442.9c-.8-.2-.4-.1-1.3-.2M263.7 457v6.199999999999999l1.3 1.6 2.2 2.5 1.1 1.5 1.9.5 2.9.7 1.9.6M230.3 428.8h-.3l-.2-.8M245.1 436.3l-.2.6M313.9 395.5l-1.2 1.5-.9 1.1-1.1 1.5-1.9.4-3.5.6-1.9.5-6.9-1.9M271.4 398c0 .8-.2 1.6-.5 2.4M270.2 401.9c.6-1 .3-.5.8-1.7M293.7 383.4c0-1.4.2-.8-.7-1.7M268.3 412.8l-.3-.7M286.2 383.2l-.2.2-1.1 1.5-2.5 3-1.2 1.5M303.4 402.2l.1-1.9M281.2 389l1.2-1.5 2.5-3 1.1-1.6.2-.1M313.4 395.1l-1.2 1.6-.7.8-1.1 1.4-2 .4-3.1.7-1.8.3-7.8-2M248.2 380.7h.1l1.8.5 11.6 3.3 1.9.4M286.9 383.4l-.1-.1h-.3l-.3-.1M244.7 384.9c1.1-1.5 2.3-2.8 3.4-4.2l15.6 4.2M280 445.7l-1.8-.5-6.8-1.9c-.9-.2-2 0-2-.9M294.5 452l-1.3 1.1M270.1 434.2l1.1-1.2M259.2 410.8l-.4.9M244.3 436l.8.3M275.5 404.9l-1.1 1.5-4.5 5.6c-1.3 1.7-1.3.8-1.3 2.2M281.2 392.5l1.3 1M295.2 400.6l1.3-.3 1.8.6 3.4.8 1.7.6 1.9-.4 3.5-.8 1.9-.4 1.1-1.5.9-1.1 1.2-1.5c.5-1-1-2.9-1-2.9l-7.8-12.5-1.1-1.6-.2-.1h-.2l-6.7-1.8-1.9.4-3 .7-1.9.4-1.1 1.5-6.2 7.6-1.1 1.5M280.8 400.2l.2 1.9M297.1 377.7l-.1.2M247.8 381.1h-.3l-.3.1-1.2 1.6-.5.6-1.2 1.6M265.5 406c1.2-.8 2.5-1.7 3.5-2.8l1.2-1.4M258.7 410.6l-.3-.6M230.7 429c-.4.8-.1 1.6-.1 2.5v5.8M247.1 436.4c-2.7-.2-5.2-.9-7.7-1.7M293.7 459.2c1.1-.8.8-1.5.8-2.8v-4.4l-1.3-1.4-2.4-2.8-1.3-1.5-1.9-.5-3.2-.9-1.9-.5-.8-1M263.4 456.9v6.3l1.2 1.5 2.4 2.8 1.3 1.5 1.9.4 3.2.9 1.8.5.1-.1M262.9 447.2v7.5c0 .9.4 2-.4 2.4M261.3 418.6c.4 1.4.6 2.9.9 4.3M270.9 400l-.1.5-.1.4M247.1 384.6c2-.1 3.9-.1 5.9.3 3.4.5 6.6 1.8 9.5 3.5M239.1 434.5c-1.1-.5-1.7-.8-2.7-1.4-1.3-.7-2.5-1.5-3.7-2.4M615.8 165.5l386.6 104.2M1091.2 293.5l14.6 3.9M924.1 558.3l198.1-245.2M504.8 134.4l603.5 162.5M505.7 135.9l21.4 5.6M1130.3 284.4l-622.1-167.5M257.3 434.9v-.3M257.5 434.8l-.2-.2M270.3 396.2l.7.2M270.3 396.2l.4-.5M249.7 381.1l204.3-253M279.8 383.2l196.7-243.6M280.9 382.9l196-242.6M287.1 400.7l609.6 164.1M268.1 414l623 167.7M275.5 439.6l608.1 163.6M257.3 451.7v442.6M348.2 917.3l-89.8-24.3M362.7 921.2l62.5 16.8M257.3 894.3l90.9 24.5M425.2 955.3l-65.4-17.7M723.4 1018.3l-285.8-76.9M737.9 1022.2l62.5 16.8M437.6 958.6l285.8 76.9M800.4 1056.2l-65.5-17.6M1151.8 315.9l-204.7 253.4M1156.6 793.2l-2.2-.6M941.1 1060v-444.1M950.3 588.9l198.8-246.2M928.9 625.4v465.5M812.8 1059.6l116.1 31.3M902.7 1066.6l-89.9-24.3M902.7 624.5v443.6M812.8 1043.9l89.9 24.2M733.9 1022.7l66.5 17.9M437.6 942.9l285.8 76.9M358.7 921.6l66.5 17.9M231.1 437.6v465.4M348.2 934.5l-117.1-31.5M258.4 452.9v438.29999999999995c0 2.4.4 1.4-1.1 3.1M941.1 1056.8l1.2-1.5 211-261.2c1.6-2 1.2-.9 1.2-3.4v-433.4M941.1 1060l1.2-1.4 213.1-263.9c1.7-2.1 1.2-.8 1.2-3.4v-437.79999999999995M1168.9 329.3v462.5c0 2.6.4 1.4-1.3 3.5l-237.5 294.1-1.2 1.5M566.7 203.5l-.6.2M576.7 201.6c-.9-.3-1.8 0-2.2.6M509 188l-.6.2M599.5 173.4c-1-.2-1.8 0-2.3.6M595.5 167.2c-.7.8-1.2 2.6-1.1 3.9M597.3 173.7c0-1.3-1.2-2.3-3-2.8M536.8 155.5c-2.6-.7-5.8-.1-7.1 1.5M507 185.2l-.5 1.3M529.7 157c0-1.3-1.1-2.7-2.6-3.1M529.7 160.9c0 2.3 2.2 4.9 4.9 5.6M504.3 182.1c-.5.6-.8 1.3-.8 1.9 0 1.9 1.9 3.5 4.7 4.3M538 151.7c-1.1-.3-2.3-.5-3.4-.5-3.3 0-6.1 1.1-7.5 2.8M600.2 171.4c0-1.9-1.9-3.5-4.7-4.3M599.5 173.4c.5-.6.8-1.3.8-2M565.8 203.9c4.1 1.1 9 0 10.9-2.3M536.8 159.5c-2.6-.7-5.8-.1-7.1 1.5M538 151.7c-.6.9-1.2 2.6-1.2 3.9M534.6 166.5c1.2-1.5 2.2-4.7 2.1-7.1M507 185.2c0-1.3-1.1-2.7-2.6-3M486.8 187.1c-.2 2.3 2.1 4.3 5.6 5.3M570.8 213.5c4.7 1.3 10.5 0 12.8-2.7M566.6 203.5c2.3.6 4.8.4 6.7-.5M570.8 214.6c1.3.4 2.7.5 4.1.5 3.8 0 7.1-1.3 8.7-3.2M617.1 167.8c-.2-2.1-2.4-3.9-5.5-4.7M533 142c-1.4-.4-2.8-.6-4.1-.6-3.8 0-7.1 1.3-8.7 3.2M486.8 188.9c.2 2.1 2.4 3.8 5.6 4.7M565.8 203.9l.2-.2M583.6 212v-1.2M570.8 213.5v1.1M574.4 202.2l-.3.2M508.3 188.4l.1-.2M616.2 170.5v1.2M536.8 155.6l57.5 15.4M507 185.2l22.7-28.2M529.7 160.9v-3.9M591 181.7l-56.4-15.2M508.3 188.4l57.5 15.5M527.1 153.9l-22.8 28.2M595.6 167.1l-57.6-15.4M576.7 201.6l22.8-28.2M492.3 193.6v-1.2M529.7 160.9l-21.6 26.8M536.8 159.5v-3.9M515.8 189.8l18.8-23.3M507 185.2v1.8M570.8 213.5l-78.5-21.1M570.8 214.6l-78.5-21M533 142l78.5 21.1M574.3 202.4l-1.2.7M506.5 186.6l-.1-.4M594.3 171c0 1.6.1 3.4 0 4.9-.2.8-.4 2.2-.4 2.2M597.5 173.7l-.2.3-1.3 1.5-20.3 25.2-1.3 1.5h-.1M595.9 175.6c-1-.6-2.3-.9-3.4-1.1l-53.9-14.6-1.9-.4M506.5 186.6l.6.5M507 187l1.1.7M617.1 168.4l-.2 1.1c-.4.9-1.3 1.8-1.9 2.5l-30.1 37.2-1.1 1.5M508 187.6c1 .4 1.9.7 2.9.9l53.9 14.5 1.8.5M617.1 167.8v1.7c-.1 1.4-1.3 2.6-2.1 3.7l-30.1 37.2-1.1 1.5M486.8 188.9v-1.8c.1-1.4 1.3-2.5 2.1-3.5l30.2-37.3 1.2-1.5M1052.2 329.6c-.9-.3-1.9-.1-2.3.6M1041.9 331.4l-.6.3M984.4 316l-.6.2M1075.6 299.4c0-1.9-1.9-3.5-4.7-4.3M1074.8 301.4c.6-.6.8-1.3.8-2M1041.2 331.8c1.1.3 2.3.5 3.4.5 3.2 0 6-1.1 7.4-2.7M979.6 310.1c-.5.6-.7 1.3-.7 2 0 1.9 1.9 3.5 4.7 4.3M1013.3 279.6c-1.2-.3-2.3-.5-3.5-.4-3.2 0-6 1-7.4 2.6M1005.1 285c0-1.4-1.1-2.8-2.6-3.2M1005.1 288.9c0 1.5.9 3.2 2.3 4.3.8.6 1.7 1.1 2.4 1.3M1074.8 301.4c-.9-.3-1.7 0-2.2.6M1072.7 301.7c0-1.2-1.2-2.3-3-2.8M1012.1 283.4c-2.6-.7-5.7 0-7 1.5M982.3 313.1c-.3.4-.5.9-.5 1.3M1013.3 279.6c-.6.9-1.2 2.6-1.1 3.9M1009.9 294.5c.8-.8 1.3-2.3 1.7-3.8.3-1.2.4-2.4.4-3.2M982.3 313.1c0-1.3-1.2-2.6-2.7-3M962.2 315c-.1 2.3 2.1 4.3 5.5 5.3M1046.2 341.5c4.8 1.3 10.6.1 12.9-2.6M1041.9 331.4c2.3.6 4.9.4 6.7-.4M1012.1 287.4c-.7-.2-1.5-.3-2.3-.3-2.1 0-3.9.7-4.7 1.8M1070.9 295.1c-.7.9-1.2 2.6-1.1 3.9M1092.4 295.8c-.2-2.1-2.4-3.9-5.5-4.6M1008.3 270c-1.3-.3-2.7-.5-4-.5-3.8 0-7.1 1.3-8.7 3.2M962.1 316.8c.2 2.1 2.4 3.9 5.5 4.7M1046.2 342.6c1.4.4 2.8.6 4.1.6 3.9 0 7.2-1.3 8.8-3.2M1049.7 330.2l-.3.3M1041.4 331.6l-.2.2M1059 339.9v-1.1M1046.2 341.5v1.1M983.6 316.4l.2-.1M967.6 321.5v-1.1M1071 295.1l-57.7-15.5M1052.1 329.6l22.8-28.2M983.6 316.4l57.6 15.4M1002.4 281.9l-22.7 28.2M1005.1 288.9v-3.9M1066.3 309.7l-56.5-15.2M1072.6 302l-22.9 28.2M1091.5 298.5v.1M1012.1 283.4l57.6 15.6M982.3 313.1l22.8-28.1M1012.1 287.4v-4M991.1 317.8l18.7-23.3M982.3 313.1v1.9M1046.2 341.5l-78.6-21.1M1086.7 304.4l-27.7 34.4M1005.1 288.9l-21.6 26.7M1008.3 270l78.5 21.2M1046.2 342.6l-78.6-21.1M1086.7 305.7l-27.7 34.2M1049.7 330.3l-1.2.8M981.7 314.2l.2.3M1092.4 296.3c-.2.9-1 2.3-1 2.3M981.9 314.6l.5.4M982.3 315l1.1.6M983.4 315.6c.9.4 1.9.6 2.8.8l53.9 14.5 1.9.5M1071.3 303.6c-1.1-.6-2.4-.9-3.6-1.1l-53.7-14.5-1.9-.5M1069.7 299c0 1.7 0 3.3-.1 5-.1.8-.2 1.4-.4 2.2M1092.4 295.9c0 1 .1 1.7-.2 2.6M962.2 316.8v-1.7c0-1.5 1.3-2.7 2.1-3.6l30.2-37.3 1.2-1.5M391.7 420l-.6.2M424.6 390c-.9-.3-1.8-.1-2.3.6M334.1 404.5l-.6.3M332 401.7c0-1.3-1.1-2.6-2.6-3M363 368.2c-.4.5-.7 1.3-.9 2.1-.2.7-.2 1.3-.2 1.8M359.5 383.1c1.3-1.5 2.4-4.6 2.4-7M328.7 400.4c-.2 2 1.7 3.7 4.6 4.5M391 420.4c4.1 1.1 8.9 0 10.8-2.3M425.4 388c0-1.9-2-3.6-4.8-4.3M424.6 390c.6-.7.8-1.3.8-2M363.1 368.2c-1.1-.3-2.4-.4-3.5-.4-3.2 0-6.1 1.1-7.4 2.7M332.1 401.7c-.4.4-.5.9-.5 1.3M361.9 372.1c-2.8-.7-5.8-.1-7.1 1.5M422.5 390.3c0-1.2-1.3-2.3-3.1-2.7M420.6 383.7c-.6.8-1.1 2.5-1.1 3.9M395.9 430c1.3.4 2.8.6 4.1.5 3.8 0 7.1-1.3 8.7-3.2M311.9 403.6c-.2 2.3 2.1 4.2 5.5 5.3M361.9 376c-2.8-.8-5.8 0-7.1 1.5M354.8 373.5c0-1.3-1.1-2.6-2.6-3M354.8 377.4c0 2.4 2.1 4.9 4.8 5.6M391.7 420c2.3.6 4.9.4 6.7-.5"/>
    <path class="st1"
        d="M399.9 418.5l-.3.3.3-.3zM401.9 418.1c-.8-.2-1.5-.1-2 .4M401.8 431.6c3.1-.2 5.6-1.5 6.9-3M442.1 384.3c-.2-2.1-2.4-3.8-5.5-4.7M358.1 358.6c-1.4-.4-2.8-.6-4.1-.6-3.9 0-7.2 1.3-8.8 3.2M311.9 405.3c0 .8.5 1.8 1.2 2.4M408.7 428.6v-1.3M391 420.4l.1-.2M441.3 387.1v1.1M333.5 404.7l-.2.2M332.1 403.5v-1.8M361.9 376v-3.9M340.9 406.3l18.7-23.2M391 420.4l-57.7-15.5M424.6 389.9l-22.8 28.2M363.1 368.2l57.5 15.5M354.8 373.5l-22.7 28.2M419.4 387.6l-57.5-15.5M317.4 408.9l78.5 21.2M354.8 377.4l-21.5 26.8M354.8 377.4v-3.9M416.1 398.2l-56.5-15.1M399.3 419l.2-.2M358.1 358.6l78.6 21M399.6 418.7l1.2-1.5 20.3-25.2 1.2-1.5.2-.3M331.6 403.1l-.1-.4M331.7 403.1l.5.5M332.1 403.6l1.1.6M328.7 400.5c.2-1.4 1.1-2.3 1.9-3.3l20.4-25.2 1.2-1.5M419.4 387.6c0 1.6.1 3.4-.1 4.9 0 .8-.4 2.1-.4 2.1M408.7 427.3l1.2-1.5 30.1-37.2c.6-.8 1.5-1.6 1.9-2.5l.3-1.1M421 392.1c-1-.6-2.3-.8-3.5-1.1l-53.8-14.5-1.9-.5M333.1 404.1c1 .4 1.9.6 2.9.9l53.8 14.5 1.9.5M398.2 419.6l1.2-.8M442.1 384.5l.1 1.7c-.1 1.4-1.3 2.6-2.2 3.6l-30.1 37.3-1.2 1.5M311.9 405.3l-.1-1.7c.2-1.4 1.4-2.6 2.2-3.6l30.1-37.3 1.2-1.5M923.7 550l-.6-.2M894.7 555.1c-.4-.6-1.3-1-2.4-1s-2.2.4-2.5 1M915.9 559.1l-.7.2M943.4 575.2l-.2-.4-.2-.1M928.3 617.4l.8-.4M939.7 614.9l.6-.2v-.2M928.2 617.4l-.3-.9"/>
    <path class="st1"
        d="M876.6 613.1c.7-.8.4-2.2-.7-3.2-1.2-.9-2.6-1-3.3-.1-.7.8-.3 2.2.8 3.2 1.1.9 2.6.9 3.2.1zM896.6 627.4l.2.5.8-.1M901.1 584.1l-.9-.5M886.7 557.4l-.4.6M888.3 627.5c-.4.9 0 2.1 1.1 2.8.9.8 2.2 1 3 .4"/>
    <path class="st1"
        d="M892.1 631.1c.7-.9.2-2.3-.9-3.2-1.1-.9-2.6-1-3.2-.1-.7.9-.4 2.3.8 3.2 1.2.9 2.6 1 3.3.1zM878.8 605.8v.6"/>
    <path class="st1"
        d="M892.3 631.9c.8-1 .4-2.8-1-3.9s-3.3-1.3-4.1-.2c-.9 1.1-.4 2.9 1 4.1 1.5 1 3.3 1.1 4.1 0zM909.8 620.9c-.9.1-1.7.3-2.4.6M896.8 594.9c-.5 5.9 2.9 12.4 8.4 16.8 2.6 2.2 5.5 3.7 8.4 4.5M899.4 566.8l-.5.4"/>
    <path class="st1"
        d="M895.6 554c0-1-1.5-1.9-3.4-1.9s-3.4.9-3.4 1.9c0 1.1 1.5 2 3.4 2s3.4-.9 3.4-2zM920.4 553.1l-.3.1.3-.1zM921 553.5l-.7-.4M917.3 566.3c-5.4 1.1-10.2 3.8-13.7 7.5M900.5 582.3h1M890 599.6c.8-1.1 1.3-2.5 1.3-3.9M888.7 600.8c.6-.3 1-.8 1.4-1.2M900.5 582.3l-.2 1.1M894 558.7l-.3.5"/>
    <path class="st1"
        d="M894.3 558.6l-.4.1.4-.1zM900.8 584.7l-.9-.5M872.9 609.4c-.4.9.1 2.1 1 2.9 1 .8 2.3.9 3 .4M897.1 597.3c.6 5.6 4.1 11 9.1 14.8"/>
    <path class="st1"
        d="M930.2 616.9zM929.5 617.1h.3l.5-.2M945.5 618.6c.5-.8.8-1.9.8-2.8M942.8 624.2l.4-.1.3-.2M897.4 590.4c-.4 13.9 9.3 25.6 22.2 27.2M893.7 559.3l-.4.5M917.5 549.8c0-.9-1.2-1.5-2.7-1.5-1.4 0-2.6.7-2.6 1.5l.6 1M916.9 550.8l.6-1M913.7 567.2c-7 1.7-11.5 5.4-12.2 9.6M904.7 561.4c3 .9 6.6.5 8.9-.8M927 562.5c.9.8 2.1 1.3 3.3 1.7M904.4 561.6c4.3 1.1 9.5 0 11.5-2.5M894.3 558.8l-.4.5M899.5 569.2c.1-.8-.1-1.5-.6-2.1M900.3 583l1 .1M878.8 606.3l.1.6.2.1M896.1 615.7c-1.1-2.8-3.8-5.1-6.6-5.9M871.8 603.9l-.1.5.1.2M891.9 580l-.2.1-.6.5M900 568.7c0-.6-.2-1.4-.5-2M899 571.2c.7-.8 1-1.7.9-2.5M941.3 574l.7-.4M939.5 614.5c-.6 0-1.1.4-1.7 1M929.5 625.3l.6-.6M899.4 603.7c1.5 3.2 3.7 6 6.2 8.1M944.1 618l.5-.4M912.8 621.2c-1.3-.3-2.3-.3-3.4-.2M946.9 614.7M945.5 619.8c.6.1 1.2-.9 1.6-2.3.4-1.4.3-2.6-.2-2.8"/>
    <path class="st1" d="M942.3 573.8l-.2-.2.2.2zM942.5 574.5l-.2-.8M955.1 587.2l-.2-.5"/>
    <path class="st1"
        d="M953.1 591l-.2-.3.2.3zM953 591.4l.1-.4-.1.4zM952.7 595.8c.4-.8.7-2 .7-2.8M897.2 590.9c-3 6.6.2 15.5 7.5 21.4 4.8 3.8 10.4 5.7 15.3 5.3"/>
    <path class="st1"
        d="M944.6 617.9l.2-.4-.2.4zM943.9 618l.8-.1M947.2 569.3M947.4 569.8l-.2-.5M954.1 591.9h-.1M952.7 597c.5.1 1.3-.9 1.6-2.4.4-1.3.2-2.6-.2-2.7"/>
    <path class="st1"
        d="M947.7 614.2c-.6-.1-1.4 1.1-1.9 3-.4 1.8-.3 3.3.3 3.4.6.2 1.5-1.1 1.9-2.9s.3-3.3-.3-3.5zM954.9 591.4c-.7-.1-1.5 1.2-2 3-.4 1.8-.2 3.4.4 3.6.6.1 1.5-1.3 1.9-3 .4-1.8.3-3.4-.3-3.6zM946.7 568.7l-.6-.2M946.7 569.2v-.5M925.6 561.3c1 1.5 2.9 2.6 5.3 3.3M920.6 553.4l-.4-.1M896.5 618.1l.7.5M896.6 618.2c0-.9-.1-1.7-.5-2.4M896.6 627.4l.5.2M912.9 621.1c-2.4-.7-4.7-.4-6.4.7M928.3 625.3l.6.2M888.5 600.2l.1.6M916.5 566.4c-6.3 1.5-11.5 5.4-14.9 10.7M922.9 565.8c-2.3-.1-4.5.2-6.4.7M932.5 615.7c10.2-4.3 16.3-14.5 15.8-25.2-.4-5.8-2.5-11-5.8-15.2M928.9 616.4h-.8M920 617.6c3 .3 5.8-.2 8-1.1M917.4 550.3c-.4-.6-1.5-1-2.6-1-1.2 0-2.1.4-2.4 1M894.9 554.6c0-.9-1.2-1.5-2.6-1.5-1.5 0-2.6.6-2.6 1.5l.6.9M894.3 555.5l.6-.9"/>
    <path class="st1"
        d="M918.2 549.3c0-1.1-1.5-2-3.4-2s-3.4.9-3.4 2c0 1 1.5 1.9 3.4 1.9s3.4-.9 3.4-1.9zM908.2 570.1c-2.2 1.1-3.8 2.6-4.7 3.9M903.4 574c-2.3 2.5-2.9 5.7-1.9 8.5M888.5 600.1c1.2-.7 2-1.8 2.3-3M879.2 606l.1.6M897.2 618.6c0-3.9-3.6-8-7.8-9.2M897.2 627.7l.4.1"/>
    <path class="st1"
        d="M877 613.9c.8-1 .4-2.8-1-4-1.5-1.1-3.4-1.1-4.2-.1s-.4 2.8 1.1 4c1.3 1.1 3.2 1.1 4.1.1zM896.1 596.2h.2l.4-.1M900.7 584.9c-3 2.6-4.2 6.3-4.1 10.3M923.1 549.7l-2.4-3.9M920.5 553.1l2.6-3.4M923.7 550.1l-2.7 3.4M895.1 562.4l-1.1-.3M899.4 569.7v.4M950.9 589.3l2.6-3.2M942.5 574.5l.5.1M939.7 615l-.7-.2M928.2 617.4v7.7M930.1 616.9v7.9M939 614.8h-.1M939.2 614.7l-.3.1M939 614.8l-.3.1M941.6 617.2v-.3M913 621l.1.2M878.7 606.5l-6.9-1.9M867.1 607.7l4.7-3.1M871.9 603.9l-5 3.1M879.5 605l-7-1.8M877.5 612.6l-.4-.5M881 604.5h-.2M896.7 627.7v6.1M897.3 627.9v5.9M896.7 633.8l-4.7 2.8M892.5 630.1l.3.5M885.3 634.9v.2M866.9 613.5l.2.1M891.1 581.2l9.1 2.4M886.3 559.2v-1.1M942.9 624.2v-6.3M898.9 567.2v1.2M917 566.3l.6-.1M891.9 580l8.7 2.3M891.3 595.6v-13.6M894.3 558.6l10.4 2.8M906.6 612.4l-.3-.3M929.5 617.1l-.4-.1M941.6 623.8v-6.2M942.9 624.2l2.4 1.6M943.5 623.9l2.2 1.5M943.5 623.9v-6M941.6 623.8l1.3.4M894.3 558.9l10.1 2.6M898.9 567.2l-4.9-7.9M891.3 580.6l9.1 2.4M878.8 606.3l.3-.4M889.5 609.8l-10.4-2.8M871.9 603.9l.6-.7M899 571.2l-7.1 8.8M946.1 568.6l-4 5M929.1 625.1l.4.2M913.1 621.2l15.6 4.2M955.1 587.2l2.2 1.5M955.1 587.2l-2.6 3.2M954.8 586.5l-2.9 3.6M948.5 587.6l4.4 3.1M947.1 569.3h-.4M948.4 587.6l-.3-.3M930.9 564.4l-.1.1 15.3 4.1M920.6 553.4l5 7.8M896.6 627.4v-9.4M928.4 625.2l-15.4-4.2M889.1 599.4l-.6.7M919 617.6h1M879.2 606l9.3-5.9M889.4 609.4l-10.1-2.7M897.2 627.7v-9.1M896.7 595v1M893.4 554.3c0-1.4-.1-.8.2-2.1M893.7 559.3v-.1h.1l.2.1M915.9 549.4c0-1.4-.1-.6.4-1.9M899.4 570.1l-.5.9M893.6 559.3l-1.8-.5-3.3-.9-1.8-.5-1-1.6-.5-.7-1-1.6M887.3 549.6h-.2M914.1 543.9v.1M899.4 569.8l.1-.5M941.8 574.5c.9-.4 1.3-1.1 1.9-1.9l1.8-2.2 1.2-1.6M898.9 570.9l-.2.3v.2M928.7 616.4c.4.9.2 1.8.2 2.8v6.199999999999999M938.7 614.9l-.6.3M879.2 606l-.3.2M872.8 610.1c-.7.9-.2.6-1.4.9M892 636.6l-1.8-.4-2.9-.8-2-.5-1.2-1.5-15.7-18.4-1.3-1.4v-5.8999999999999995M879.2 605.6v.2l-.3.4M883.2 603.2l-1 .7-1.5.7M871.9 603.9l1.8.6 3.3.8 1.8.5.4-.2M886.7 628.9c1.2-.2.7.2 1.5-.8M889.5 609.8l-.1-.4M880.9 604.3l-.2.3M884.4 556.1l1.9 3.1 1.9.5 3.2.8 2 .6M891.3 595.6l-.2-.2M881.2 604.4l-.3-.1-.6.2c-1.2.8-.6.4-1.5 1.3M867.1 607.7l-.2-.5M938.2 615.1c-.9.8-1.5 1.7-2.2 2.5l-4.7 5.9-1.3 1.5M946.9 620.3c-.8-1.1-.3-.8-1.4-1.1M896.7 633.8h.6M892.3 636.9l-.3-.3M899 571.2h-.2l-1.3 1.5-4.9 6.1-1.2 1.5M897.4 591.8v-1.9000000000000001M920.9 545.8h-.2l-6.6-1.8-2 .4-22.9 4.8-1.9.4-1.2 1.5-.6.9-1.3 1.5M883.8 553.6l.4-.1M879.1 607l.1-.2 1.7-1 6.1-4 1.6-1M900.4 583.4l-.4.8M921.4 554.1l2.3-2.8c.5-1.1-1.1-2.9-1.1-2.9l-.6-1-1-1.6h-.1l-1.9-.5-3.1-.9-1.9-.5-1.9.4-23.1 4.9-1.9.4-1.1 1.5-.9 1-1.1 1.5-.2.2 1.1 1.7.6 1 .9 1.7 1.9.5 3.2.8 1.9.6.2.1v-.8M900 584.2l-1.9-.5-4.9-1.3c-1.3-.4-1.9-.1-2.1-1.1M897.9 627.6v5.4l-.6.8-3.4 2.1-1.6 1h-.1l-1.9-.5-3.2-.9-1.9-.4-1.3-1.5-16-18.6-1.2-1.5v-6.500000000000001c.8-1.1.6-.7 2.2-1.7l3.3-2.1M930.3 616l-.2.8M906.6 621.7l.4.1M929.5 625.3v-6.199999999999999c0-1-.1-1.9.1-2.9M942.9 617.9l-1.3-.3-.5-.3v-.8M893.4 559.8c0 1.5-.2.9.4 1.9l.4.4.2-.8.4.3 1.1 1.7 2.1 3.4c.6.9 1.4 1.9 1.6 2.9M904.4 561.5l.3-.1M915.9 559.1c1.6-1.9 3.2-3.8 4.7-5.7.8-.1 1.3 1.7 1.3 1.7l3.1 4.8 1 1.6M913.6 560.5l1.4-.9M891.3 580.6v.4l-.2.4v12.200000000000001c0 1.2 0 2.4-.3 3.6M894.3 558.6v.2l1.1 1.6 2.9 4.7 1.1 1.7M954.1 597.4c-.9-1-.3-.7-1.5-1M939.4 614.4c1 0 1.7.7 2.4 1.3l1.2.8 1.5 1.1M930.1 624.8c2.5-3.1 4.9-6.2 7.5-9.2M905.9 611.8c2.9 2.5 6.4 4.1 10.1 5.1 1.4.4 2.6.6 4 .7M896.7 595.3c.2 3 1.4 6 2.7 8.7M944.2 618l-1.6-1.1-1.3-.9-2-1.3M945.3 604.1c-.2 1.2-.5 2.5-.6 3.8l-.1.7v9.1M948.3 597l-.1.4M947.8 586.8l.3.6M947.6 598.1c1.3-1.9 2.8-3.6 4.2-5.4l1-2M948.6 588.2l-.3-.7M942.5 575.4c.4-.9 1-1.5 1.6-2.3l1.9-2.2 1.1-1.6M925.6 561.2l.7.5.7.8M943 575.9c.4-.9.9-1.4 1.6-2.3l1.6-2 1.1-1.5M942.2 617.3l-.1-.1-1-.8M942.2 617.3h-.1l-.8-.2h-.2M942.8 617.8h.4M943.9 618l-.8-.2h-.3M945.4 603.9c-.6 2.2-.6 4.3-.6 6.5v7.199999999999999M947.5 585v-15.200000000000001M947.5 598.3c.6-.8 1.3-1.7 2-2.4l2.4-3 1.2-1.5v-.1l-1.5-1.1-1.3-.9c-1.1-.7-1.7-1-2.3-2M930.2 564.2c5.4 1.7 10.9 3 16.2 4.4M946.7 569.3l-1.2 1.4-1.8 2.3-1.6 1.9M914.8 559.7c1.5-1.6 2.8-3.3 4-4.9l1.2-1.5M941.6 623.8l2.3 1.6 1.4.4h.1l.1-.1 1.2-1.5.9-1 1.2-1.5.5-1.8 7.4-23.5.6-1.9v-6l-.1-.3-1.1-.8-1.2-.8-.1-.1-1.3-.4M891.3 580.9l1.8.5 5.5 1.5 1.9.4.4.2c.9.2 1.9.2 2.9.4 2 .5 4 .9 6 1.3 8.3 1.9 16.4 4.5 24.3 7.4 3.4 1.3 6.9 2.6 10.1 4.5.8.4 2.3 1.4 2.3 1.4l.6 1M906.6 621.7l-1.7 1-6.1 3.9-1.6 1h-.1M929.1 616.4c.1.9 0 1.7 0 2.6v4.3c0 2.1.4 1.4-.2 2.2M942.4 575.2c-3.6-4.2-8.5-7.3-13.8-8.6-2-.4-4.1-.7-6.2-.8M928.9 616.4l1.2-.4h1.2l1.5-.4M900.9 583.5l.7-1M907.4 621.6l-.4.3-1.7 1-6.1 3.8-1.6 1.1M900.9 583.5l-.1 1.2"/>
    <path class="st1"
        d="M769.2 1007.2c.4-.6.2-1.5-.6-2.1-.7-.6-1.6-.6-2.1 0-.5.5-.2 1.4.5 2 .8.6 1.7.6 2.2.1zM766.9 1004.8c-.2.5.1 1.3.7 1.6.5.5 1.3.6 1.7.4M729.9 1036c.5-.6.2-1.5-.5-2.1s-1.7-.6-2.1-.1l-.2.5M727.1 1034.5c0 .5.2 1 .8 1.4.8.6 1.7.6 2.1.1M733.4 1044c1.7.5 3.7 0 4.5-.9M800.4 1026.3c.1.7.8 1.4 1.9 1.7M800.2 1025.5c-.1-.7-.4-1.4-.7-2M799.6 1023.5c-1.3-2.4-3.5-4-5.9-4.7M793.1 1018.2l.4.6M801.7 1017.6c0 .6.3 1 .8 1.4.6.4 1.3.6 1.8.4M804 1019.7c.5-.5.2-1.4-.5-2-.8-.7-1.7-.7-2.1-.1l-.2.7M801.2 1018.4c.1.5.4.9.8 1.3.7.5 1.7.6 2.1 0M743.2 1005.2c-.8-.2-1.6-.4-2.3-.3M734.3 1000.9c.4-.6.2-1.5-.6-2-.8-.7-1.7-.7-2.1-.1l-.2.4M731.4 999.4c0 .6.4 1.1.8 1.5.7.6 1.7.7 2.1.1M732 998.6c-.2.6.2 1.3.7 1.7.6.4 1.3.6 1.8.3M733.3 1009.5c1.7.4 3.7 0 4.5-.9M738.8 1005.9c-.8.7-1 1.7-1 2.8M727.6 1033.6c-.2.5.1 1.3.7 1.7.6.5 1.3.6 1.8.4M802.2 1028.3c.2-4.6-3.8-9.5-8.8-11M742.5 1003.7c-5.1-1.4-9.1 1.2-9.1 5.8M812.6 1030.7c.3-9.5-7.9-19.9-18.4-23.1M727.8 996.6c-.6.6-1.1 1.2-1.6 1.8M743.5 994c-6.4-1.9-12.1-.7-15.7 2.6M812.3 1030.7c0-9.6-8.6-19.6-19.2-22.5M742 994.6c-10.7-2.5-19.1 3.2-18.8 12.8M800.4 1060.9c.1.8.9 1.4 2 1.6M806.1 1055c0 .6.3 1 .8 1.4.6.5 1.4.6 1.9.3M808.3 1057c.5-.5.2-1.4-.4-2-.8-.6-1.7-.7-2.1-.1l-.2.4M805.7 1055.5c0 .5.2 1 .6 1.4.7.6 1.7.7 2.1.1M766.3 1005.8l.5-.7M737.9 1043.1v-3.7M727.1 1034.3v.2M727.6 1033.8l-.5.7M737.9 1043.1l2.4-3M723.4 1041.4l10 2.6M812.8 1030l-.4.7M793.7 1007.6l-.6.6M731.5 999.3l-.1.2M732 998.9l-.6.6M742.5 994.6l.5-.6M739.1 1005.6l-.3.2M737.9 1023.7v-15.2M802.3 1028v34.5M742.5 1003.6l50.6 13.7M733.4 1044v-34.5M743 994l50.7 13.6M812.4 1030.7v34.6M742.5 994.6l50.6 13.6M723.4 1041.4v-34.7M802.3 1062.5l10.1 2.8M805.5 1055.4v.2M793.1 1017.3l.2.9M801.2 1018.5l.5-.9v-.3M741.1 1004.9l-1 .2M793.8 1018.7l-1.9-.4-47-12.7-1.9-.5-.4-.4-.1-1.1M740.2 1005.1l-.8.2M739.6 1005.3l-.7.4M812.8 1030v32.7c0 2.2.5 1.5-.4 2.5M800.2 1025.3c.1 1 .1 1.9.1 2.9v32.7M806.1 1054.7s.1.1-.5.9"/>
    <path class="st1"
        d="M394 906.2c.4-.6.1-1.5-.6-2.1-.7-.5-1.7-.6-2.1 0-.5.6-.3 1.4.5 2.1.9.5 1.7.5 2.2 0zM391.6 903.8c-.1.6.2 1.3.7 1.7.6.6 1.3.7 1.8.4M354.8 934.9c.4-.5.2-1.4-.6-2.1-.7-.5-1.6-.6-2.1 0l-.2.5M351.9 933.5c0 .4.3 1 .7 1.3.8.6 1.7.6 2.2 0M358.2 943.1c.5.1.9.2 1.4.2 1.4 0 2.6-.5 3.1-1.1M425.2 925.3c.1.7.8 1.4 2 1.6M425.1 924.5c-.1-.7-.4-1.5-.7-2.1M424.4 922.2c-1.4-2.3-3.7-3.9-6.1-4.5M418.2 917.1l.4.7M426.5 916.7c0 .5.4 1 .8 1.4.6.4 1.3.6 1.9.3M428.9 918.8c.4-.5.2-1.5-.5-2-.6-.6-1.6-.6-2-.2l-.2.7M426.2 917.4c0 .4.3.9.6 1.1.7.7 1.6.7 2.1.2M368 904.1c-.8-.2-1.6-.2-2.3-.2M359.1 900c.4-.6.2-1.5-.5-2.1-.8-.6-1.7-.6-2.1-.1l-.3.6M356.3 898.5c0 .5.4 1 .8 1.4.8.6 1.6.7 2.1.1M356.8 897.7c-.2.6.2 1.1.8 1.6.6.4 1.3.6 1.8.3M358.2 908.5c1.7.5 3.8.1 4.5-.9M363.8 904.7c-.7.6-1 1.7-1 2.7M352.4 932.5c-.1.6.2 1.3.8 1.7.5.5 1.3.6 1.8.4M427.1 927c0-3-1.8-6.1-4.4-8.3-1.5-1.2-3.2-2-4.7-2.3M367.4 902.7c-5-1.3-9.1 1.2-9.1 5.8M437.6 929.1c0-9.5-8.5-19.6-19.2-22.5M352.1 896.3c-.6.6-1.1 1.1-1.5 1.7M367.7 893c-6.5-1.7-12-.2-15.6 3.2M437.2 929.7c0-9.6-8.6-19.5-19.2-22.4M367.4 893.6c-10.7-2.9-19.2 2.5-19.2 12.1M425.2 959.9c.1.8.8 1.4 2 1.7M430.9 954c0 .5.3.9.7 1.4.6.4 1.3.6 1.8.3M433.3 956.1c.4-.6.1-1.5-.6-2.1s-1.7-.7-2.1-.1l-.2.5M430.4 954.6c0 .5.3 1.1.8 1.4.8.6 1.7.6 2.2.1M391.2 904.7l.4-.6M362.7 942.1v-3.7M351.9 933.3v.2M352.4 932.8l-.5.7M362.7 942.1l2.4-3M348.2 940.4l10 2.6M437.6 929.1l-.4.6M418.5 906.6l-.5.7M356.3 898.3v.2M356.8 897.9l-.5.6M367.4 893.6l.5-.6M364 904.5l-.3.4M362.7 922.7v-15.2M427.1 927v34.6M367.4 902.6l50.6 13.7M358.2 943v-34.5M367.9 893l50.6 13.6M437.2 929.7v34.6M367.4 893.6l50.6 13.7M348.2 940.4v-34.7M427.1 961.6l10.1 2.7M430.4 954.4v.2M418 916.3l.1.8M426.1 917.5s-.1 0 .4-.9l.1-.2M366 903.9l-1.1.2M418.6 917.7l-1.9-.4-46.9-12.7-1.9-.5-.3-.3-.2-1.2M365.1 904l-.8.3M364.4 904.2l-.6.5M437.6 929.1v32.6c0 2.3.5 1.5-.4 2.5M425.1 924.4c.1.9.1 1.9.1 2.9v32.5M430.9 953.7l-.5.9"/>
    <path class="st1"
        d="M748.8 989.8c.6-.9.3-2.1-.8-2.9-1.1-.8-2.4-.8-3 0s-.2 2.1.9 2.8c1 .8 2.4.9 2.9.1zM745.5 986.5c-.2.8.2 1.7.9 2.4.9.7 1.9.9 2.7.4M785.7 997.3c-.3.7.1 1.7.9 2.4.9.7 1.9.8 2.6.4M825.2 1005c-.2.8.2 1.8.9 2.5.9.6 1.9.8 2.6.4"/>
    <path class="st1"
        d="M828.6 1008.3c.6-.7.3-2.1-.8-2.9-1-.8-2.4-.9-3-.1-.6.8-.3 2.1.8 2.9 1.1.8 2.3.9 3 .1zM703.1 939.7c-.3.9.1 1.8 1 2.5s1.9.8 2.6.5M705.7 972.9c-.2.8.2 1.8 1.1 2.5.9.7 1.9.8 2.6.5"/>
    <path class="st1"
        d="M706.6 943.1c.6-.8.2-2.1-.8-2.9-1-.8-2.4-.9-3-.1-.6.8-.3 2.1.8 2.8 1 .9 2.3.9 3 .2zM712 969.8c0 1.3 1.1 2.8 2.6 3.2"/>
    <path class="st1"
        d="M709.2 976.2c.6-.7.2-2.1-.8-2.9-1-.9-2.3-.9-3-.1-.6.8-.4 2.1.8 2.9 1.1.7 2.4.9 3 .1zM712.6 969.1c0 .8.6 1.7 1.3 2.4.5.4.9.6 1.4.7M730.9 931.4c0 .7.4 1.4 1 1.9.7.6 1.6.8 2.3.6M705.8 908c-.3.8.2 1.8 1 2.4.9.8 1.9.9 2.6.5"/>
    <path class="st1"
        d="M709.2 911.3c.6-.8.2-2.1-.8-2.9-1-.8-2.3-.9-3-.1-.6.8-.4 2.1.8 2.9 1.1.8 2.4.9 3 .1zM732.9 934.6c.5.1 1 0 1.3-.3M730.7 931.4l-.2.2c-.4.6 0 1.6.9 2.3.5.4 1 .6 1.5.7M765.5 925.3c0 .8.7 1.8 1.7 2.2M769.4 941.7c.1.7.5 1.3 1.1 1.8.7.6 1.5.8 2.2.6M768.9 941.6c-.4.8 0 1.9.9 2.7 1 .7 2.1.8 2.8.4M721.8 910c.1.7.5 1.5 1.1 1.9.7.6 1.4.7 2.1.6M745.5 915.8c-.2.8.2 1.7.9 2.4.9.7 1.9.8 2.7.5M721.4 910.1c-.3.8.1 1.8.9 2.5s1.9.9 2.6.5"/>
    <path class="st1"
        d="M748.8 919c.6-.7.3-2.1-.8-2.8-1.1-.8-2.4-.8-3 0s-.2 2.1.9 2.8c1 .8 2.4.8 2.9 0zM768.1 927.4c-.2-.1-.5-.1-1 .1M768.1 927.8v-.4M807.8 952.2c0 .7.4 1.3 1 1.7.8.6 1.6.7 2.3.6"/>
    <path class="st1"
        d="M831.2 976.7c.6-.8.3-2.1-.8-2.9-1-.8-2.4-.9-3-.2-.6.8-.3 2.1.8 2.9 1.1.8 2.4.9 3 .2zM807.3 952c-.4.8 0 1.9.9 2.6.9.8 2.1.9 2.7.4"/>
    <path class="st1"
        d="M828.6 943.5c.6-.8.2-2.1-.8-2.9-1.1-.8-2.4-.8-3 0-.5.7-.2 2 .9 2.8 1 .8 2.3.8 2.9.1zM821 990.6l.2-.6M819.3 991.3c.8 0 1.4-.3 1.7-.8M820 1000.3c.7.2 1.4.1 1.8-.2"/>
    <path class="st1"
        d="M789 1000.5c.6-.7.3-2-.8-2.8-1-.9-2.4-.9-3-.1-.7.7-.3 2 .7 2.8 1.1.9 2.4.9 3.1.1zM821.6 1000.6c.2-.3.4-.7.4-1.1M819.3 1001.1c.9.3 1.8.1 2.3-.5M825.2 940.1c-.2.8.2 1.8.9 2.4.9.8 1.9.9 2.6.5"/>
    <path class="st1"
        d="M820.9 989.8zM819.6 990.8c.8.1 1.3-.4 1.3-1M821 1002.6c0-.7-.1-1.4-.2-2.1M820.6 1005.2c.3-.9.4-1.9.4-2.6M827.9 973.3c-.2.8.2 1.7 1 2.4s1.8.9 2.6.5M820 1000.3c.8.1 1.5 0 2-.4M834.4 1010.9c1.6-2.1 2.4-4.5 2.4-7.1M836.9 950.2c-.2-5.6-3.7-11.5-9-15.5-2.9-2.2-6.1-3.7-9.1-4.3M714.7 902.2c-6.3-1.7-11.8-.2-15 3.7-1.7 2-2.4 4.7-2.4 7.3M697.2 965.8c0 5.7 3.4 11.6 8.5 15.8 2.9 2.3 6 3.9 9 4.7M823.8 1015.1c1 .1 2 0 2.9-.1 6.3-.9 10.7-6.2 10.7-12.2M837.4 950c0-5.6-3.4-11.6-8.5-15.7-2.8-2.3-5.9-3.9-9-4.7M701.4 903.9c-.8.7-1.5 1.5-2.1 2.3M715 901.5c-5.6-1.4-10.3-.4-13.6 2.4M809.1 933.5c0 .7.4 1.4 1 1.9.7.6 1.4.8 2.1.7"/>
    <path class="st1"
        d="M789 929.8c.6-.7.3-2.1-.8-2.9-1-.8-2.4-.9-3-.1-.7.8-.3 2.1.7 2.9 1.1.9 2.4.9 3.1.1zM764.9 925.5c-.2.8.2 1.8 1 2.5.9.7 1.9.8 2.6.5M785.6 926.6c-.2.8.2 1.8 1.1 2.4.9.7 1.9.8 2.6.4M808.5 933.7c-.2.8.2 1.8 1 2.4.9.7 1.9.8 2.6.4M744.8 987.7l.6-.7M785.5 997.8l-.6.7M819.8 992.2l-.4-.9M825.2 1005.6l-.7.7M819.4 1001.1l.6-.7M827.2 974.6l.6-.8M703 940.2l-.5.8M715.3 972.1l-.6.8M705.2 974.1l.5-.7M712 969.8l.7-.7M720.9 959.7v-11.6M705.2 909.2l.5-.7M714.7 902.2l.6-.7M712 969.8v-47.8M721.6 974.8l-6.9-1.9M715.3 972.1l5.7 1.5M712.7 922.2v46.9M721.2 910.6l.6-.6M720.4 958.3v-4.9M745.4 916.2l-.6.7M768.2 927.8l.4.2M769.2 941.7l-.5.6M764.8 925.9l.6-.6M785.5 927.1l-.6.7M743.3 923.3l6.2 1.6M783.4 934l6.2 1.7M807.1 952.6l.5-.5M821.3 951.5v.5M837.4 950l-.6.8M824.5 941.4l.7-.7M819.4 930.4l.6-.8M809 933.5l-.5.6M821.3 989.9v-28.1M815.9 990.4l3.4.9M836.8 1003.4l.6-.7M807.2 996.9l12.8 3.5M819.4 1001.1l-13.3-3.6M819.8 1000.3l-12.6-3.5M836.8 950.8v52.6M714.7 902.2l104.7 28.2M697.3 965.8v-52.6M837.4 950v52.7M715.3 901.5l104.7 28.1M819.6 990.8v.5M819.6 991.7l.2.5.3.8M819.8 992.4l.3.6.3.8M820.6 994.5l-.4-1.4M821.3 989.8l.5.9.2.4-.4-.7M821 967l1 .7M714.6 941.1c-.8.5-2 1.6-2 1.6M716.4 970.5l-1 1.6M717 969.7l-.6.8-.5.6M716.8 969.9l.8-.8M717.4 969.3l.2-.2.6-.7M717.9 968.7l.3-.3.4-.4M730.3 932.1l.2-.8M768.2 927.8h.4M821.8 946.1c.2.9.1 1.7.1 2.6v50.699999999999996M821 989.7v-23.7M816.4 990l3.2.8M819.8 1000.3l.7-1.8M823.9 1015.1c-1.4 0-1.7 0-3-.3-1.1-.2-2.3-.6-3.3-.9l-101-27.2-1.9-.5M730.6 931.3c-.2.8.2 1.7.9 2.4.9.7 2 .9 2.6.6M721.2 910.7c0 .8.4 1.5 1.1 2 .8.6 1.9.8 2.6.4M733.9 934.6c.6-.7.4-1.7-.2-2.4M730.5 931.3l-.3.2c-.6.8-.2 2.1.8 3 1.1.8 2.4.8 3 .1M808.6 933.6c-.3.8.1 1.8 1 2.5.8.7 1.9.8 2.6.4M807.4 952c-.2.8.2 1.8.9 2.4.9.7 1.9.9 2.6.4M810.7 955.3c.5-.7.4-1.6-.3-2.4M807.3 952l-.4.3c-.6.7-.3 2 .8 2.9 1 .8 2.4.8 3 .1M720.2 924.3c-.1 2.5.5 4.4 1.5 4.7M714.2 904.8c-.6.4-1.1.9-1.4 1.5M720.8 903.8c-2.7-.7-4.9-.3-6.6 1M772.4 944.9c.5-.6.4-1.6-.3-2.4M768.9 941.6l-.3.3c-.6.8-.3 2 .8 2.9 1 .9 2.4.9 3 .1M769 941.6c-.2.8.2 1.8 1 2.4.9.7 1.9.9 2.6.5M821.5 939.5c-.2-4.3-4.3-8.8-9.1-9.9"/>
    <path class="st1"
        d="M811.9 937c.6-.8.2-2.1-.8-2.9-1-.8-2.4-.9-2.9-.2-.6.8-.3 2.1.8 2.9 1 .8 2.3.9 2.9.2zM812.4 957.9c1 .2 1.9.2 2.6-.1M724.3 929.6c-.3 2.4 1.7 4.9 4.3 5.7M821.8 939.2c.2-4.3-3.6-9-8.3-10.4M812.6 949.1c-.2 3.2.8 5.1 2.1 4.7M813.4 950.4c.1.9.5 1.6.8 1.9M781.9 928.9c0 1.7 1 3.4 2.5 4.7 2.3 1.9 5.2 2.1 6.8.8M764.9 925.6c-.2.7.2 1.7 1 2.4.9.7 1.9.8 2.6.5M791 934.7c.5-.6.8-1.5.8-2.3M781.3 929.7c0 1.7 1 3.4 2.5 4.7 2.5 2 5.7 2.1 7.2.3"/>
    <path class="st1"
        d="M768.3 928.8c.6-.7.3-2-.8-2.9-1-.8-2.4-.8-3-.1-.6.8-.3 2.1.8 2.9 1 .9 2.4.9 3 .1zM750.8 923.9c.5-.7.8-1.5.8-2.3M741.1 918.9c0 1.7 1 3.5 2.6 4.7 2.5 2 5.7 2.2 7.2.3M720.1 904.6c-4.7-1.3-8.6 1.2-8.6 5.5M741.7 918.1c0 1.7 1 3.5 2.6 4.8 2.3 1.8 5.2 2.1 6.8.6M724.7 913.5c.6-.8.3-2.1-.8-2.9-1-.8-2.3-.8-3-.1l-.4.9M720.7 911.6c0 .7.4 1.3 1 1.7 1 .8 2.3.8 2.9.1M711.5 921.9l8.7 2.4M729.9 932.5l.6-.7M781.8 928.9l-.5.8M768.3 942.8l.6-.7M751.6 913l29.7 8M764.8 925.9l-.6.8M741.1 918.9l.6-.8M720.8 903.9l-.6.7M807.8 934.9l.7-.8M812.6 949.1l8.7 2.4M821.3 939.7l.7-.8M720.2 925.7l92.4 25M806.7 953.1l.6-.7M813.3 928.7l-.7.8M721.7 928.9l92.4 24.9M741.7 909.4l-20.9-5.5M781.8 920.3l-29.7-8M812.6 929.5l-20.9-5.6M821.3 951.5v-11.8M728.6 935.3l83.8 22.5M792.3 923.1l21 5.6M781.8 920.3v8.6M720.2 904.6l20.9 5.6M711.5 921.9v-11.8M741.7 918.1v-8.7M822 938.9v9.8c0 2.3.4 1.5-.6 2.8M813.3 949.3v1.1M781.3 929.7v-6.8c0-2.2-.4-1.4.6-2.7M792.3 923.1c-1 1.2-.6.4-.6 2.6v6.699999999999999M751.6 921.6v-6.699999999999999c0-2.2-.4-1.4.6-2.6M741.7 909.4c-1 1.3-.6.6-.6 2.7v6.699999999999999M720.7 911.6s-.1 0 .5-1l.1-.5M815 954.4c-.2-.5-.4-.9-.6-1.3M807.9 987.1c1.3-.2 2.4-.7 3.2-1.5M812.9 982c-.1.8 1.4 1.6 3.2 1.9 1.9.1 3.4-.4 3.5-1.1M809.8 986.5c.9-.4 1.8-1.1 2.3-1.9M815.1 955.3l-.1.2c0 .8 1.5 1.5 3.4 1.6 1.8.1 3.3-.5 3.4-1.3M821.5 956.7c.2-1.7-.1-3.6-.9-5.2M816 990.3c1.8-1.7 2.8-4 3-6.4M816.4 990c1.8-1.9 2.8-4.4 3.1-7M815.6 990.7l.8-.8M808.3 986.8c-.6-.1-1.4 1.3-1.9 3.1-.5 1.9-.3 3.5.2 3.7h.2M812.6 992.6c1.2-.5 2.4-1.3 3.3-2.2M805.2 989.7c-1.1 3.9-1 7.2.3 7.7l.1.1M809.5 983.6c-1.3-.2-3.2 2.4-4.3 6.1M720.4 958.6c.6 1.7 1.7 3.3 3 4.5"/>
    <path class="st1"
        d="M809.3 983.5zM810.2 984.6c-.2-.6-.5-.9-.9-1.1M725.9 961.1c-1.4-.3-3.3 2.4-4.5 6.1-1.2 3.8-1.1 7.3.2 7.7h.1M805.9 997.7c1 .1 2.4-1.6 3.3-4.2M713.5 955.4c0 .8 1.4 1.6 3.3 1.6 1.8.1 3.3-.4 3.3-1.2M719.9 956.2c-.3 2.6.9 5.3 2.8 7.3M715.7 928.5c-.1.8 1.4 1.7 3.2 1.9 1.9.2 3.4-.3 3.5-1.1M713.9 959.7c.9 4 3.4 7.6 6.7 10M818.6 986.3l.5-1M820.5 951.4v-.1M819.3 983.2l2.2-26.7M808.3 986.8h.6M816.5 989.8l-.6.6M804.5 993.3l-83.6-22.5M725.7 961.1l83.7 22.5M805.8 997.6l-83.8-22.6M812 984.8l.6-1.6M815.1 955.3l-.2 2-1.9 22.8c0 1.1-.1 2.1-.4 3.2M814.9 954.3l.2.9M819.6 982.7l.2-1.9 1.9-22.8.2-2v-.9c0-1.3-.2-2.5-.7-3.7M810 986.4s-.4.2-1.1.4M812.6 992.6c-1.5.7-3 .9-4.7 1h-1.1M810.2 984.7l.4 1.4M722.3 929c-.3.9-.3 1.8-.4 2.6l-1.8 22.9-.2 1.9M720.4 958.4l-.3-2 .1-.5.1-1.9 2-22.9.1-2M713.9 960.1c-.6-2.3-.5-4.5-.2-6.8l1.8-22.9.2-1.8.1-.9c.3-1.6 1-3 2-4.1"/>
    <path class="st1"
        d="M372.9 888.6c.6-.7.2-2.1-.8-2.9-1.1-.8-2.4-.9-3-.1-.6.8-.3 2.1.8 2.9 1 .8 2.4.9 3 .1zM369.6 885.3c-.3.8.2 1.8 1 2.5.8.6 1.9.8 2.6.4M327.3 838.5c-.3.8.2 1.8 1 2.4.9.7 1.9.9 2.6.4M330 871.7c-.3.8.2 1.7 1 2.4s1.9.9 2.6.5M336.7 867.9c0 1.3 1.3 2.7 2.7 3M393.5 840.6c0 .6.4 1.3 1 1.8.7.6 1.5.8 2.2.6M392.9 840.6c-.4.7.1 1.8.9 2.5.9.7 2.1.8 2.8.3M336.1 868.7c.1 1.3 1.3 2.7 2.7 3"/>
    <path class="st1"
        d="M333.3 875c.6-.9.2-2.1-.8-2.9-1.1-.8-2.4-.8-3 0s-.2 2.1.8 2.8c1.1.8 2.4.9 3 .1zM333.3 810.1c.6-.7.2-2.1-.8-2.9-1-.8-2.4-.8-3-.1-.6.8-.2 2.1.8 2.9 1.1.9 2.4.9 3 .1zM355.1 830.3c0 .6.4 1.3 1 1.7.7.7 1.6.8 2.3.7M330 806.7c-.3.8.1 1.7.9 2.4.8.8 1.8.9 2.6.6M336.8 868.1c.1 1.3 1.3 2.5 2.7 2.8"/>
    <path class="st1"
        d="M330.6 841.9c.6-.8.3-2.1-.8-3-1-.8-2.3-.8-2.9-.1-.6.8-.3 2.1.7 3 1.1.7 2.4.8 3 .1zM354.5 830.1c-.4.8 0 1.9.9 2.6.9.8 2.1.9 2.7.4M345.9 808.7c0 .7.4 1.4 1.1 1.9.6.5 1.4.7 2.1.6M369.6 814.5c-.3.8.2 1.8 1 2.5.8.6 1.9.8 2.6.4M345.4 808.9c-.3.8.2 1.8.9 2.5.8.7 1.9.8 2.6.4"/>
    <path class="st1"
        d="M372.9 817.9c.6-.7.2-2-.8-2.8-1.1-.9-2.4-.9-3-.1-.6.7-.3 2 .8 2.8 1 .8 2.4.9 3 .1zM392.1 826.2c-.1-.1-.4-.1-.9.1"/>
    <path class="st1" d="M392.2 826.6l-.1-.4.1.4zM389.6 824.1c0 .8.6 1.7 1.5 2.3"/>
    <path class="st1"
        d="M413 899.3c.6-.7.2-2-.8-2.8s-2.3-.9-3-.1c-.6.8-.2 2.2.9 2.9 1 .8 2.4.8 2.9 0zM409.7 896.1c-.2.8.2 1.7.9 2.5.9.6 2 .8 2.6.4M444 899.1c.8.2 1.5.2 1.9-.1"/>
    <path class="st1"
        d="M452.7 907.1c.6-.8.3-2.1-.8-2.9-1-.8-2.4-.8-3-.1-.6.8-.3 2.1.7 2.9 1.1.9 2.4.9 3.1.1zM449.3 903.9c-.2.9.2 1.8 1 2.4.9.7 2 .9 2.6.4M431.8 850.9c0 .7.4 1.3 1.1 1.7.7.6 1.5.8 2.2.6"/>
    <path class="st1"
        d="M455.4 875.4c.6-.8.2-2.1-.8-2.9-.9-.8-2.3-.9-3-.1-.6.7-.2 2.1.8 2.9 1 .8 2.3.9 3 .1zM431.2 850.9c-.3.8.1 1.9 1 2.5.9.8 2.1.9 2.7.4"/>
    <path class="st1"
        d="M452.7 842.2c.6-.7.3-2.1-.8-2.9-1-.8-2.4-.8-3-.1-.6.8-.3 2.1.7 2.9 1.1.9 2.4.9 3.1.1zM445.1 889.4l.3-.7M443.4 890.1c.8.1 1.4-.2 1.7-.7M445.6 899.3c.3-.2.5-.6.5-1.1M443.4 899.8c.9.2 1.8.1 2.2-.6M449.3 838.9c-.2.8.1 1.8.9 2.4.8.8 2 .9 2.6.5"/>
    <path class="st1"
        d="M445 888.6zM443.7 889.6c.7 0 1.3-.4 1.3-1M445.1 904.7c0-.7-.1-1.5-.3-2.1M444.7 907.3c.3-.9.4-1.8.4-2.6M452 872.1c-.3.8.1 1.8.9 2.5s1.9.8 2.6.4M444 899c.8.2 1.5 0 2-.3M458.7 909.2c1.6-2.1 2.3-4.6 2.2-7.3M460.8 849.6c0-5.7-3.4-11.6-8.4-15.7-2.8-2.3-6-3.8-9-4.6M338.8 801c-6.4-1.7-11.8-.2-15 3.6-1.7 2.1-2.5 4.7-2.5 7.4M321.1 865.2c.3 8.6 8.4 17.6 18.2 19.9M448.5 913.9c1 0 2-.1 2.9-.2 6.2-1.3 10.4-6.7 10.1-12.7M461.5 848.8c0-5.6-3.4-11.5-8.5-15.7-2.8-2.4-5.9-3.9-8.9-4.7M325.5 802.6c-.8.8-1.5 1.6-2.1 2.3M339.1 800.2c-5.6-1.4-10.4-.4-13.6 2.4M433.2 832.2c0 .6.4 1.4 1 1.9.6.6 1.4.8 2 .7"/>
    <path class="st1"
        d="M413 828.7c.6-.7.2-2.1-.8-2.9-1-.8-2.4-.9-3-.1-.6.8-.2 2.1.7 2.9 1.2.8 2.5.9 3.1.1zM389 824.2c-.2.9.2 1.8 1 2.5.9.7 1.9.8 2.6.5M409.7 825.3c-.2.8.2 1.8.9 2.5.9.7 2 .8 2.6.4M432.7 832.4c-.3.8.1 1.9.9 2.4.9.7 1.9.9 2.6.4M368.9 886.5l.6-.8M327.1 838.9l-.6.8M338.8 871.7l.6-.8M329.2 872.9l.6-.7M336.2 868.6l.6-.7M339.4 870.9l5.7 1.6M336.8 841.6v26.3M393.3 840.6l-.5.6M392.7 826.7h-.5M409.6 825.8l-.6.8M373.6 823.7l-6.2-1.6M369.5 815l-.6.8M355 830.1l-.6.7M345.3 809.4l.5-.6M336.2 868.6v-47.7M345.6 873.5l-6.8-1.8M344.9 846.8v11.7M344.4 857.1v-5M329.8 807.3l-.6.7M339.4 800.2l-.6.8M336.8 867.9v-46.8M388.9 824.8l.5-.7M413.7 834.5l-6.2-1.6M461.5 848.9l-.6.7M445.4 850.3v.5M449.2 839.4l-.5.7M431.6 850.8l-.5.6M443.4 899.8l.6-.7M451.3 873.3l.6-.7M409 897.3l.6-.8M444 899.1l-12.8-3.4M461.5 901.5l-.6.7M449.2 904.3l-.5.7M443.4 829.1l.6-.7M432.6 832.9l.4-.7M445.4 888.7v-28M440.1 889.3l3.3.9M430.2 896.4l13.2 3.4M444 899.1l-12.8-3.5M460.9 849.6v52.6M338.8 801l104.6 28.1M321.3 864.7v-52.7M461.5 848.9v52.6M339.4 800.2l104.6 28.2M340.5 869.3l-1.1 1.6M341.1 868.5l-.6.8-.4.6M341 868.6l.1-.1.5-.6M341.4 868.1l.2-.2.7-.7M342 867.5l.3-.3.4-.4M392.7 826.6l-.5.1M336.8 841.6s1.1-1.2 1.9-1.6M444.4 892.6c-.3-.9-.6-1.7-1-2.4M443.7 889.6v.5M444.2 891.9l.5 1.4M446.1 866.4l-1-.6M445.4 888.6l.5.9.2.4M446.1 898.2v-50.699999999999996c0-.9 0-1.7-.2-2.6M445 888.5v-2.1l.1-19.7v-2M440.5 888.7c1.1.3 2.2.7 3.2.9M444 899.1l.6-1.8M448 913.9c-1.4-.1-1.7-.1-3-.3l-3.4-.8-100.9-27.2-1.9-.5M431.4 850.8c-.2.8.2 1.7.9 2.4.9.6 1.9.8 2.6.4M344.3 823c-.2 2.6.5 4.4 1.5 4.7M354.7 830.1c-.2.7.2 1.7 1 2.4.9.6 1.9.8 2.6.4M392.9 840.8c0 .7.5 1.5 1.1 2.1.8.7 1.9.8 2.6.5M396.4 843.8c.5-.6.5-1.7-.2-2.5M393.1 840.4l-.3.3c-.7.7-.4 2 .6 2.9 1 .8 2.3.9 3 .2M358 833.4c.5-.6.4-1.6-.3-2.4M354.6 830.1l-.3.2c-.6.7-.3 2.1.8 2.9 1 .8 2.3.9 2.9.1M345.3 809.5c0 .7.4 1.4 1.1 1.9.8.7 1.9.8 2.6.4M338.3 803.5c-.6.5-1.1 1-1.4 1.6M344.9 802.6c-2.6-.7-4.9-.3-6.6.9M432.7 832.5c-.3.8.1 1.8.9 2.4.9.7 1.9.9 2.6.4M434.8 854.1c.5-.7.4-1.7-.3-2.5M431.3 850.8l-.3.2c-.5.8-.2 2.1.8 2.9.9.9 2.3.9 3 .2M445.5 838.5c0-4.3-3.9-8.9-8.8-10.2"/>
    <path class="st1"
        d="M435.9 835.8c.6-.7.3-2.1-.8-2.9-.9-.8-2.3-.9-3-.1-.6.7-.2 2.1.8 2.9 1.1.8 2.5.9 3 .1zM436.5 856.7c.9.2 1.9.2 2.6-.1M348.3 828.4c-.2 2.4 1.7 4.9 4.4 5.6M446 837.7c0-4.3-3.9-8.8-8.7-10.1M436.7 847.9c-.2 3.1.8 5.1 2.2 4.7M437.3 849.1c0 .9.4 1.6.8 2M405.9 827.7c0 1.7 1 3.4 2.6 4.7 2.3 1.9 5.2 2.1 6.8.7M389 824.3c-.2.8.2 1.7 1 2.4s1.9.9 2.6.5M415.2 833.4c.5-.6.7-1.4.7-2.3M405.3 828.7c0 1.7 1.1 3.4 2.7 4.7 2.5 1.9 5.8 2 7.2 0"/>
    <path class="st1"
        d="M392.3 827.6c.6-.8.3-2.1-.8-2.9-1-.9-2.4-.9-3-.1-.6.7-.2 2 .8 2.9 1.2.8 2.4.8 3 .1zM374.9 822.7c.5-.6.8-1.4.8-2.2M365.2 817.7c0 1.7 1 3.6 2.6 4.8 2.5 2 5.7 2.2 7.1.2M344.2 803.4c-4.8-1.3-8.7 1.1-8.7 5.5M365.8 817.1c0 1.7 1.1 3.4 2.6 4.6 2.3 1.8 5.3 1.9 7 .4M348.8 812.3c.6-.7.3-2.1-.8-2.8-1-.8-2.3-.9-3-.1l-.3.9M344.7 810.4c.1.7.6 1.3 1.1 1.8 1.1.8 2.4.8 3 0M437.3 827.5l-.6.8M446.1 837.7l-.7.8M445.4 850.3l-8.7-2.3M430.8 852l.5-.8M354 831.3l.6-.7M438.2 852.7l-92.4-25M335.6 820.7l8.6 2.3M365.8 817l-.5.7M405.3 828.5l.6-.8M388.3 825.6l.6-.8M375.6 811.8l29.7 8M376.3 811.1l29.6 7.9M344.2 803.4l.7-.8M365.8 808.3l-20.9-5.7M436.7 849.4l-92.5-24.9M432 833.6l.6-.7M445.4 838.5v11.8M415.8 822.7l20.9 5.6M352.7 834.1l83.7 22.6M416.4 822l20.9 5.5M405.9 819v8.7M344.2 803.4l21.1 5.7M335.6 820.7v-11.8M365.8 817v-8.7M393.1 840.5s0 .4-.7 1.2M446.1 837.7v9.9c0 2.2.4 1.5-.7 2.7M437.3 848.1l.1 1.1M405.3 828.5v-6.699999999999999c0-2.3-.4-1.5.6-2.7M416.4 822c-1.1 1.2-.6.4-.6 2.6v6.6M375.6 820.5v-6.699999999999999c0-2.2-.4-1.4.6-2.6M365.8 808.3c-1 1.2-.6.4-.6 2.6v6.699999999999999M344.7 810.4l.6-1v-.5M439.1 853.1c-.2-.5-.4-.9-.6-1.3M432.1 885.8c1.3-.1 2.4-.7 3.2-1.5M437 880.8c0 .8 1.3 1.6 3.2 1.8 1.8.2 3.3-.2 3.4-1M433.9 885.3c1-.4 1.8-1.1 2.3-2M439.2 853.9v.2c-.1.8 1.3 1.6 3.2 1.9 1.8.1 3.4-.3 3.5-1.1M445.6 855.4c.1-1.8-.2-3.6-.9-5.2M440.4 888.8c1.7-1.8 2.6-4.1 2.8-6.5M441.2 887.9c1.7-2.1 2.5-4.6 2.6-7.2M440.6 888.7l.6-.8M432.5 885.6c-.6 0-1.5 1.4-2 3.1-.4 1.9-.2 3.6.3 3.7h.1M436.8 891.4c1.2-.6 2.3-1.3 3.2-2.2M433.6 882.4c-1.4-.2-3.2 2.4-4.4 6.2M429.3 888.5l-.1.2c-1.1 3.8-1 7.2.3 7.7h.1M344.4 857.2c.5 1.7 1.5 3.5 2.8 4.6M433.3 882.3M434.3 883.4c-.2-.7-.6-.9-.9-1.1M349.5 859.9c-1.3-.2-3.2 2.6-4 6.4-1 3.9-.7 7.2.7 7.6h.1M429.7 896.4c1 .1 2.5-1.5 3.6-4M337.6 854c-.1.8 1.3 1.6 3.2 1.8 1.8.2 3.3-.3 3.5-1M344 855.2c-.2 2.6 1 5.3 3 7.2M339.7 827.5c0 .8 1.4 1.6 3.3 1.7 1.8 0 3.3-.6 3.4-1.4M338 858.9c1 4.1 3.6 7.5 7 9.8M442.7 885.1l.4-1.1M444.6 850.2v-.2M443.4 882l2.2-26.7M432.5 885.6h.4M440.6 888.7l-.6.6M428.7 892.1l-83.8-22.6M349.7 859.9l83.7 22.5M429.9 896.4l-83.8-22.6M436.1 883.5l.7-1.5M439.2 854.1l-.2 1.9-1.9 22.9c-.1 1.1-.1 2.1-.4 3.1M439.1 853.1l.1.8M443.7 881.5l.1-1.9 1.9-22.9.1-1.9.1-1c0-1.2-.3-2.5-.7-3.6M434 885.3s-.3.1-1.1.3M436.7 891.4c-1.5.6-3.1.9-4.7.9h-1.1M434.4 883.5l.3 1.4M346.2 827.9c-.2.8-.2 1.7-.3 2.5l-1.8 22.9-.2 1.9M344.4 857.2l-.2-2v-.5l.2-1.9 1.8-22.9.2-1.9M338 858.9c-.6-2.2-.4-4.4-.2-6.8l1.8-22.8.2-1.9.1-.9c.2-1.5.9-3 2-4.1M1019.3 776.5c.2-.6.4-1.3.5-1.9M1019.3 711.7c.2-.6.4-1.3.5-1.9M1037.8 685.5c.2-.4.4-1.1.5-1.5M1076.8 705.1l-.2-.8M1076.2 673.6c.3-.6.5-1.3.6-1.9M1048.6 677.9c.2-.5.3-1.1.4-1.6M1028.2 699.5c.2-.6.4-1.1.4-1.5"/>
    <path class="st1"
        d="M1020.7 708.4c-.4-.2-1.1.8-1.4 2.1-.3 1.3-.2 2.4.2 2.5.5.1 1.1-.9 1.4-2.1.4-1.2.3-2.4-.2-2.5zM1022.4 766.8c0 .7.2 1.1.5 1.2l.8-.4M1056.3 733.5c0 .8.2 1.3.5 1.3.4.1 1-.9 1.3-2.2.2-.6.2-1.2.2-1.7M1037.6 756.7c0 .8.2 1.3.5 1.3.4.1 1-.8 1.3-2.1.2-.7.2-1.3.2-1.7M1018.1 745.3c.2-.5.4-1 .5-1.6"/>
    <path class="st1"
        d="M1019.4 742.4c-.4-.2-1 .8-1.3 2.1s-.2 2.4.2 2.5 1.1-.9 1.3-2.2c.4-1.2.3-2.3-.2-2.4zM1020.8 773.2c-.5-.1-1.1.9-1.5 2.2-.3 1.3-.2 2.4.2 2.5s1-.9 1.4-2.2c.5-1.1.3-2.3-.1-2.5zM1075 642.5c.2-.5.4-1.1.5-1.7M1076.4 633.5c-1.1.2-2.3.9-3.3 2.2M1015.5 775.4c0 4.8 1.1 7.7 3 8.4M1076.4 639.4c-.4 0-1.1.9-1.4 2.1l-.1.6M1074.9 643.9l.3.2c.5.1 1.1-.8 1.4-2.1.4-1.3.2-2.4-.2-2.5M1056.5 662.6c.2-.5.5-1.3.6-1.9"/>
    <path class="st1"
        d="M1039.2 682.6c-.4-.1-1 .8-1.3 2.1s-.2 2.4.2 2.5c.4.1 1-.9 1.3-2.1.4-1.2.2-2.4-.2-2.5zM1057.9 659.5c-.4-.2-1 .9-1.3 2.1-.3 1.3-.2 2.4.2 2.5s1-.9 1.3-2.2c.3-1.2.3-2.4-.2-2.4zM1018.8 783.9c1.2.4 2.5-.2 3.8-1.4M1014.4 775.2c.1 4.8 1.2 7.7 3.1 8.3M1075.6 633.1c-1-.3-2.3.2-3.6 1.4"/>
    <path class="st1" d="M1075.8 633.2l-.2-.1.2.1zM1080.3 641.9c-.1-4.8-1.3-7.8-3.1-8.5"/>
    <path class="st1"
        d="M1077.6 670.4c-.4-.1-1.1.8-1.4 2.1-.3 1.4-.2 2.5.2 2.6.5 0 1-.9 1.4-2.1.4-1.4.3-2.5-.2-2.6zM1068.7 649.4c.3-.6.5-1.3.6-1.9M1023.6 767.6l-1.2-.4M1019.9 774l1.3.4M1019.3 776.6l-.2.2M1037.5 756.9h.1M1019.9 709.1l1.3.4M1019.1 711.9l.2-.2M1037.6 686.2h-.1M1039.6 683.7l-1.2-.3M1078.1 671.5l-1.3-.4M1072.3 658.2v14.2M1076.8 705.5v-.4M1076.2 673.6l-.2.3M1058.4 660.5l-1.3-.3M1056.3 663h-.1M1022.3 696.5l1.3.4M1030.8 758.7l-7.2 8.9M1056.3 733.7h-.1M1039.4 754.4h.2M1058.4 731.2h-.2M1018.6 743.1l1.3.4M1014.2 722.3l1.2.4M1023.3 751l-.9 1.1M1015.4 775.3l-1.2-.4M1072.3 658.2v14.2M1073.6 679.4v-22.9M1071.1 636.2l1.3.2M1075.6 640.2l1.2.3M1075.1 642.4l-.2.4M1056.3 663l.1-.4M1017 783.3l1.3.4M1077.5 633.6l-1.2-.4M1068.7 649.5l-.1.2M1019.8 774.1v.5M1019.8 709.8v-.5M1037.8 685.5l-.2.5M1038.3 683.4v.5M1062.4 702.5l.1.3M1063.4 700.1l1.2.2M1066.2 676.3c-.8.2-2.2.8-2.2.8l-.9.6M1076.8 671.2v.5M1062.6 702.7c.4-.8.7-1.7.7-2.6v-28.099999999999998M1049 676.3v-.5M1048.2 678.5l.3-.6M1028.6 697.9l.1-.6M1027.9 700.1l.3-.6M1022.4 766.8v-50.699999999999996c0-.9-.1-1.8 0-2.7M1037.6 756.8l.2-.3M1056.3 733.7l.2-.4M1018.6 743.7v-.5M1017.8 745.9l.3-.6M1022.4 752.7l.8-.9.2-.4M1029.5 758.2c-2.4 2.9-4.8 5.9-7.1 8.8M1063.1 672.3v25.799999999999997c0 1.2.1 3-.6 4.2l-.5.6-1.2 1.5-30.9 38.4-1.2 1.5M1075.5 640.3v.5M1076.5 633.5c.8 0 .4 0 1.1.2M1015.4 775.3v-50.6c0-1.7 0-3.2.2-4.9.4-4.3 1.3-8.6 2.8-12.7 1-2.8 2.3-5.6 3.9-8.1.8-1.3 1.7-2.4 2.5-3.6l46.5-57.4 1.2-1.5.8-.8M1057.1 660.8v-.5M1022.2 782.5c.9-1 1.7-2 2.5-3.1l46.5-57.5c.9-1.1 1.9-2.3 2.6-3.4 1.5-2.5 2.8-5.3 3.7-8.1 1.5-4.1 2.5-8.5 2.8-12.8.1-1.7.1-3.2.1-4.8v-50.699999999999996M1072.5 634.6c-.9.9-1.7 1.9-2.6 3l-46.4 57.3c-.9 1.1-1.8 2.3-2.6 3.6-1.6 2.5-2.8 5.3-3.8 8.2-1.4 4.1-2.4 8.4-2.7 12.7-.2 1.6-.1 3.2-.1 4.8v50.699999999999996M1069.3 647v.5M1068.7 649.7c.4-.8.6-1.9.6-2.6"/>
    <path class="st1"
        d="M1070.3 646.2c-.4-.1-1.1.9-1.5 2.1-.4 1.3-.3 2.4.1 2.6.5.1 1.1-.8 1.5-2.1.4-1.3.4-2.4-.1-2.6zM1056.4 669.2c1.1-.6 2.2-2.5 2.9-4.9.4-1.3.6-2.6.6-3.6M1072 638.5c-.5-.1-1.1.2-1.7.6M1073.6 638.9c-.8-.2-1.7.4-2.6 1.4M1075 643.2c.1-2.5-.4-3.9-1.4-4.3M1056.3 667.2c0 1.5.5 2.4 1 2.5 1.1.2 2.6-2 3.2-5.2.4-1.3.5-2.6.5-3.6M1037.6 690.3c0 1.5.4 2.4 1 2.6 1.1.2 2.6-2.1 3.4-5.2.2-1.3.5-2.5.4-3.6M1024.3 719.1c2.4-.9 3.8-3.3 3.5-5.6M1037.7 692.4c1-.6 2.2-2.5 2.8-4.9.4-1.3.7-2.6.7-3.6M1048.3 678.4c.4-.8.6-1.9.6-2.7M1028 700.1c.4-.8.6-1.9.6-2.6"/>
    <path class="st1"
        d="M1049.9 675c-.5-.1-1.1.8-1.4 2.1-.4 1.3-.2 2.4.2 2.5.4.1 1-.9 1.4-2.1.3-1.3.2-2.4-.2-2.5zM1029.5 696.5c-.5-.1-1 .9-1.4 2.2-.3 1.3-.2 2.4.2 2.5.4.1 1-.8 1.4-2.1.3-1.3.3-2.4-.2-2.6zM1069.4 646.9l1.2.4M1069.5 640l1.4.3M1041.1 683.9l1.3.3M1059.8 660.7l1.3.4M1073.4 638.9l-1.4-.4M1059.8 652l1.3.4M1042.4 675.6l-1.3-.3M1056.2 658.4l-1.3-.3M1037.5 681.6l-1.3-.3M1049 675.7l1.2.3M1027.7 693.7l-1.3-.4M1070.9 661.4l-43.2 53.4M1056.2 658.4v8.6M1037.5 681.6v8.6M1023.7 718.4l4-5M1023.7 706.6l-1.3-.4M1023.7 718.4l-1.3-.4M1028.7 697.3l1.3.4M1070.3 639.2c-.8.8-1.3 1.5-1.9 2.3l-7.3 9.1-1.2 1.4v8.7M1026.2 715.3c-.3.7-1.5 1.9-1.5 1.9M1074.9 643.2v11.700000000000001l-1.3 1.5-1.6 2.1-1.1 1.4v1.5l-.4 1.4c-.5 1-1.3 1.8-2 2.6l-40.6 50.4-1.2 1.5M1061.1 661.1v-8.7l1.2-1.5 7.4-9 1.2-1.6M1042.4 684.2v-8.6l1.1-1.5 11.5-14.2 1.2-1.5M1036.2 681.3l-1.3 1.5-7.3 9.1c-.9 1.3-1.9 2.5-2.6 3.8-1.4 2.8-2.2 6-2.5 9.1-.1 1.1 0 2.3 0 3.4v9.9M1037.5 681.6l-1.2 1.5-7.3 9.1c-1 1.2-2 2.4-2.8 3.9-1.3 2.8-2.2 5.9-2.4 8.9-.1 1.1-.1 2.4-.1 3.5v9.8M1054.9 658.1l-1.2 1.5-11.5 14.1-1.1 1.6v8.6M1024.6 717.6c-.2.8-.3 1.7-.3 2.4M1022.5 723.9c1.3-.5 2-1.3 2-2M1075 701.6c1-4.1 1.2-8.4.5-11.9M1068.8 698.3c.6-2.8.6-5.3.1-7.5M1067.4 666.8h.4c1.8-.4 3.1-1.3 3.1-2.1M1070.6 698.7c.5-2.3.5-4.8.1-6.6M1068.9 691.1c.2.9 1.9 1.3 3.6.9 1.8-.3 3.1-1.3 3-2.2M1037 757.5c1.8-2.3.8-6.2-2.3-8.7-1.8-1.3-3.8-2-5.5-2M1024.6 753.6c1.1 1.7 2.8 2.6 4.5 2.9M1029.2 756.5c1.3.1 2.5-.3 3.6-.9M1033.8 755c1-1 .6-2.8-.8-4.2-.9-.8-2.1-1.1-3-1"/>
    <path class="st1"
        d="M1033.4 755.3l.4-.3-.4.3zM1036.9 757.5zM1026.3 755.4c.6.6 1 1.3 1.7 1.7 3.1 2.5 7.1 2.6 8.9.4M1076 709.2c1.8-2.3.8-6.2-2.3-8.7-3.1-2.5-7.2-2.7-9-.4M1022.7 748.4c.2.9 1.8 1.3 3.5.9 1.8-.4 3-1.3 3-2.2M1024.4 749.4c.8 4.5 2.7 7.1 4.9 7.1M1022.5 723.9l-.1.1M1068.7 698.4v-.1M1070.8 692.1l-4.5-23.9M1070.5 698.8l.1-.1M1065 669.9l3.9 21.2M1030.1 749.8l.3.3M1030.2 749.9l.2.2M1030.2 749.9l.3.1M1030.3 750l.1.1M1029.1 746.8h.1M1033.4 755.3l-.5.3M1076.8 705.4l-39 48.3M1076 709.1l-39.1 48.4M1028.7 744.7l36.1-44.6M1022.5 748.4l-.1-1M1024.4 749.5l-2-11.1M1075.5 689.8l-.4-1.9-3.9-21.6c-.2-1.1-.4-2.3-.8-3.4M1030.2 750l-.4-.8M1022.5 748.4l.5 1.7M1024.5 753.6c-.6-1.1-1-2.1-1.5-3.2M1030.1 749.8l.6-.1M1029.8 749.3l-.4-1.1M1029.4 748.4l-.1-.6-.1-.7M1024.3 720.2c.1 1.3.3 2.4.6 3.7l4 21.4.4 1.9M1024.6 717.9l.2-1M952.6 1198.3c.4-.8.7-1.9.7-2.8M944.9 1213.8c.5 0 1-.4 1.6-1M948.3 1214.4l-.4-.8-.4-.2M946.6 1212.8c0 .4.4.6.9.7M945.4 1193.3c.4-.8.7-1.9.7-2.8"/>
    <path class="st1" d="M946.8 1189.5zM945.4 1194.5c.6.1 1.2-.9 1.6-2.3.4-1.5.2-2.6-.2-2.8"/>
    <path class="st1"
        d="M941.6 1225l-.2-.1.2.1zM944.3 1229.2c-.5-2.5-1.4-3.9-2.7-4.1M941 1201.9c.1.4.2.8.5.9"/>
    <path class="st1" d="M941.6 1202.9zM942.1 1204.3c.2-.6 0-1.3-.5-1.4"/>
    <path class="st1"
        d="M954.8 1193.8c-.7-.1-1.5 1.1-2 3s-.3 3.4.2 3.6c.7.1 1.5-1.2 2-3 .5-1.7.4-3.4-.2-3.6zM900 1257.7h.8M899.9 1257.7l.7.2h.4"/>
    <path class="st1"
        d="M895.8 1223.9l.2-.3-.2.3zM889.7 1225.5c2.6.7 4.9 0 6.1-1.6M897.4 1211.6l-.6-.1M899.2 1235.9c-1.3 1.6-2.1 3.8-2.2 5.8M899 1236.4c-1.8 2.3-2.5 5.2-2.3 8.1M896.6 1221.4l.6.5M891.1 1240.8c-.2-1.4-.6-2.7-1.3-3.9"/>
    <path class="st1"
        d="M876.7 1216.2c.9-1.1.4-2.9-1.1-4-1.5-1.2-3.3-1.3-4.1-.2-.9 1.1-.4 2.9 1.1 4.1 1.3 1.1 3.2 1.2 4.1.1zM895.9 1223.8l.2-.2-.2.2zM889.9 1225.3c2.5.7 4.7 0 6-1.5M872.5 1211.7c-.4.9.1 2.2 1.1 2.9 1 .8 2.3.9 3.1.4M901.7 1233.9c-1.2.7-2.2 1.7-2.9 2.7M891.3 1241.6c0-2.3-1-4.6-2.6-6.6M879.5 1222.4c-.4.5-.6 1.1-.3 1.7M879.5 1222.4c0-.2-.3-.6-.7-.9M899.2 1211.7c-.1.3 0 .9.4 1.4v.2M897.6 1211.3h-.6M928.1 1240.3l.2-.6"/>
    <path class="st1"
        d="M928 1240.4l.1-.2-.1.2zM928.3 1239.8c.4.1.7 0 .8-.4M906.5 1232.2c-2.1.2-3.7 1-5.1 1.9M929.1 1239.4c.4.2.9.2 1 0M947.2 1235.4c-1-3.3-3-6.5-5.2-8.9M945.2 1214.4c.6 0 1.1-.4 1.7-1.1M945.7 1187.2l-.6-.4M942.8 1200.2c-.2.9.2 1.4.9 1.5M943.9 1201.9M944 1202.6l-.1-.7M908.1 1232.3c-9.2 1.4-13.3 8.7-11.1 18M896.7 1210.2l.5-.1"/>
    <path class="st1"
        d="M876.4 1215.3c.7-.8.4-2.3-.8-3.1-1.1-.9-2.5-1-3.2-.1-.7.8-.3 2.2.8 3.1 1.1.9 2.6 1 3.2.1zM890 1225.3c-.4.2-.6.9-.7 1.5M888.1 1202c-.3.8 0 2.1 1.1 2.8.9.8 2.2.9 3 .4M885.4 1196l-.1.4.1.2"/>
    <path class="st1"
        d="M891.9 1205.5c.7-.8.2-2.3-.9-3.1-1.1-.9-2.6-.9-3.2-.1-.7.9-.3 2.3.8 3.1 1.2 1 2.6 1 3.3.1zM896.1 1225.2c.8-.9 1.1-2.1 1.1-3.3M889.4 1226.8c2.8.8 5.3.1 6.7-1.6"/>
    <path class="st1"
        d="M892.1 1206.3c.9-1.1.3-2.8-1.1-4-1.5-1.1-3.4-1.1-4.2 0-.9 1-.3 2.8 1.1 4 1.6 1.2 3.4 1.2 4.2 0zM942.4 1224.7c-2.3-.7-5.4 2.3-8.2 7.3M945.3 1230.8c-.2-3.5-1.3-5.6-2.9-6M914.4 1232.7c-3.1-.9-6-1-8.4-.5M879.2 1222.3c-.5.5-.5 1.1 0 1.7M899.4 1211.6c.1-.4-.1-.9-.6-1.4M902.3 1234.4c-.1 6.1 2.2 12.5 5.8 18.1 7.7 12 20.3 17.6 28.2 12.8M942.8 1227.3c-.2-.4-.4-.7-.7-1-1-.9-2.4-1.2-3.2-.5M943.3 1227.9c-.6-1.7-1.4-2.6-2.3-3M920 1235.1c-8.1-4.9-17-4.4-21.5 1-2.8 3.6-3.1 8.6-1.3 13.5M895.8 1223.3c.5-.6.8-1.3.8-2.1M890 1224.6c2.4.7 4.5.1 5.7-1.3M866.9 1207.7l.2.6M897.7 1211.2c.2-.4 0-.8-.4-1.4"/>
    <path class="st1"
        d="M897.6 1211.5l.2-.3-.2.3zM897.4 1211.6l.3.8M907.1 1223.3c1.7 1.9 3.9 3.3 6.2 3.9M897.1 1210.8c-.6.6-.6 1.1.1 1.7M906.6 1223.8c1.7 2.1 4.1 3.5 6.5 4.1M947.2 1235.6c-.6-1.9-3.7-2.9-8.2-2.9M947.2 1235.6M953.1 1208.5v-.6M948.8 1183.4l-.2-.6"/>
    <path class="st1"
        d="M947.6 1188.9c-.7-.2-1.5 1.3-2 3-.4 1.9-.3 3.4.4 3.6.6.2 1.5-1.1 1.9-3 .5-1.9.3-3.5-.3-3.6zM944.5 1211.7c0 2.3.5 3.7 1.3 3.9.7.2 1.5-.2 2.3-1.3M927.9 1240.5l.9-.4.2-.8M928.2 1240.8c-2.2-2.3-4.7-4.1-7.1-5.3M953 1208.6v-.5l-.6-.7M951.9 1206.2c-.2.5-.2.9 0 1M929.7 1240.1l.6-.1"/>
    <path class="st1"
        d="M952.4 1207.4zM953.1 1207.9l-.1-.4-.6-.2M945.2 1214.5c.4.1 1 0 1.5-.5M948.3 1241c-.1-1-.3-1.9-.6-2.6M947.9 1250.1c.8-3.2.8-6.4.3-9.1M936.9 1264.8c2.6-1.7 5.2-4.2 6.9-6.8M918.2 1269c3.8.6 7.5.2 10.8-.7M904.9 1262.6c2.7 2.5 6.3 4.5 9.7 5.4M897.8 1251.7c1.4 4.3 3.9 8 6.9 10.7M903.8 1243.2c-4.6 3-6.6 5.6-6.3 7.6M937.2 1222.9l-.4-.6"/>
    <path class="st1"
        d="M953.9 1194.4zM952.6 1199.6c.6.1 1.1-.9 1.5-2.4.4-1.4.2-2.6-.2-2.7M944.7 1202.8l.1-.6c-.1-.4-.3-.7-.7-.8M939.3 1225.5l.5-.3M945.3 1214.4l.2.2M945.2 1214.1l.2.4M951.9 1206.2l-5.3 6.6M941.6 1205.9v-3M957.3 1189.3l-8.5-5.9M941.1 1207.6l1-3.3M900 1257.9l-8.9-2.4M879.3 1224.1h-.2M899.4 1211.4v1.2M891.3 1255.4l8.7 2.3M866.9 1207.7l18.4-11.7M871.7 1219.9l.1-.1M878.8 1221.5l-.1.2M900.4 1257.9l.1.2M896.6 1211.9v9.5M867.1 1208.3l18.2-11.6M891.3 1241.6v13.8M879.3 1224.1l9.3 11M899.7 1213.3l3 3.4M928.2 1232v7.8M945.3 1186.8l-1.4-.3M886 1195.2l-.7.8M889.4 1226.8l-10.1-2.7M897.2 1212.8v9M899.2 1211.7v.8M943.4 1228v.2M907.1 1223.3l-9.4-10.9M928.9 1231.5l-15.7-4.2M906.6 1223.8l-9.4-11M928.2 1232l-15.2-4.1M947.5 1236.6l-.3-.9M948.3 1214.4l4.7-5.7M944.6 1202.8v9.1M929.1 1239.4v-8.2M917 1233.7l3.7 1.7M951.8 1207.2l.6.2M897.4 1250.8l.5 1.1M936.8 1222.3l-1.3-.3M943.4 1201.7l.3-.3M955.4 1195.3l-.9.3-1.1-.3M943.5 1201.2l.1.1M941.6 1200l1.9.4M941.3 1225h-.9M939.6 1225.3l.9-.3M944.1 1201.4l-.2.5M946.2 1190.4c1.4.4.7.2 1.9 0M945.3 1214.3l-.3-.6M937.8 1226.6l-1.2 1.3M951.9 1207.1l-.1-.4M951.9 1206.3l-.1.4M945 1213.7c-.2-.8-.2-1.4-.2-2.2M944.1 1202.6l.5.2M943.5 1194.1l-.3.1-1.6-.5M939 1225.6l-1.4 1.3M891.3 1255.4l-.2.1M879.1 1222.6l-.4-.9M874.9 1215.2c-.8.9-.5.4-.8 1.6M889.5 1207.1c.4-1.3.1-.8.8-1.7M889.7 1225.5l-1.8-.5-6.8-1.9-1.8-.3-.2-.2-.3.3M866.9 1214.1l1.2 1.5 2.4 2.8 1.2 1.5 1.9.4 3.3 1 1.8.4M897.2 1212.8l.5-.4M891.1 1241.4v14.1M891 1240.8l.3.8M891.3 1255.5l.2.2 1.9.6 5.2 1.4c.9.2 1.7.6 2.6.6M896.4 1222.9l-.5.9M896.3 1222.9l.3-1.6M879.1 1222.6l.3-.2 1.8.5 6.9 1.8 1.9.5M900.9 1258l-.6-.1M888.5 1235.1l1.2 1.9M897 1211.3l-.3-1.1M944.8 1202.4v9.200000000000001l-.2.3M928.7 1240.3l.2-2.6v-6.199999999999999M938.4 1216.1l1.9.6M906.6 1223.8l1-1.2M930.1 1231.6l-1-.4M928.2 1232l.9-.8M952.5 1207.2h-.6l-1.2 1.5-2.5 3-1.2 1.5M947.1 1182.4l-1.2 1.5-.8 1.1-1.2 1.5-.7 1.8-1 3.6-.6 1.8v6.300000000000001l-.5 1.7v5.9M942.9 1200.4v-6.300000000000001l.5-1.9 1.2-3.6.7-1.8 1.1-1.5.8-1 1.3-1.5M929.7 1240.1l-.1-2.5v-6.3l1.1-1.4 4.9-6.1 2.1-2.6c1.1-1.7 1.7-3.7 2.3-5.6l3.5-11.1.6-1.8M897.9 1209.2l-.6.8-.1.1M896.7 1204l1.2-1.1M890 1225.2l.2-.6M867.1 1214.1h-.2v-6.3M913.8 1226.5l-.8 1.4M879.1 1224.1c3.1 3.7 6.2 7.3 9.3 10.9h.1M886 1195.2l1.9.6 3.2.8 1.9.6 1.3 1.3 2.4 2.9 1.2 1.5v6.3l.9 1M913.8 1232.4c1.3.6 2.5 1 3.8 1.5M897.4 1250.8l-.2-1.3M885.3 1196.7l2 .5 2.9.8 1.8.5 1.3 1.4 2.2 2.6 1.2 1.5v7.6M867.1 1208.3v5.8l1.3 1.5 2.1 2.6 1.3 1.6 1.9.4 14.6 3.9 1.9.5M886 1195.2l-1.6 1-15.3 9.7c-1.9 1.2-1.3.5-2.2 1.7M897.3 1210v-6.300000000000001l-1.2-1.5-2.5-2.9-1.2-1.4-1.9-.5-3.2-.9-2-.5M892 1198.5l1-1.3M939 1232.7c-1.8.1-3.7.1-5.5.4M953.1 1208.5l-.1.2-.5 1.8-3.4 10.9c-.6 1.6-1 3.2-1.3 4.9-.2 1.8-.3 3.6-.3 5.4v4.9M948.8 1183.4l-1.2 1.5-.7.8-1.2 1.5-.6 1.8-1 3.3-.6 1.8v7.1M953 1208.7l-.5 1.7-3.5 11c-.7 2.1-1.2 4-1.5 6.1-.1 1.4-.1 2.8-.1 4.3v4.5M947.1 1182.4c1.9.5 1.3.2 3.1 1.5l5.4 3.8 1.6 1 .1.2v6.199999999999999l-.6 1.9-1 3.2-.6 1.9-1.2 1.5-.8 1-1.2 1.5M930.2 1240c.7-1.7 1.4-3.4 2.3-5.1l2.2-4.1M929.1 1239.9l.6.2M946.8 1214s1.3-1.4 1.9-2.2l2.5-3 1.2-1.5M943.8 1258c1.1-1.7 2.1-3.4 2.8-5.3.6-1.5.9-3 1.3-4.5M928.7 1268.4c2.9-.8 5.6-2 8.3-3.6M914.6 1268c1.1.3 2.2.7 3.4.9M921.2 1235.7c-6 1.7-12 4.1-17.4 7.5M944.1 1201.4l-.5-.1M930.3 1240l-.2-2.5v-5.9l1.3-1.5 4.7-5.8c.8-1 1.6-1.9 2.3-3.1 1-1.7 1.6-3.6 2.2-5.5l3.5-10.9.5-1.9M961.2 1270c2.4.6 5.3 0 6.4-1.5M973.8 1271.7c10-13.9 5.3-35.4-10.3-51.5M961.6 1287c11-13.7 6.8-35.9-9.4-52.5M961.1 1287.5l.4-.6M947.6 1280.5c6.2-7.5 5.6-18.7-.4-28.9M892.3 1256.3c2 10.8 10.3 21 21 26.7M948.6 1279.3c6.1-7.9 5.1-19.5-1.5-29.4M913.6 1283.2c13.5 7.2 28 5.4 35-3.8M892 1256.1c1.8 8.6 7.2 16.6 14.5 22.5 14.7 11.8 33.6 12.7 42.5 1.9M955.6 1286.6c9.7-12 6.4-31.2-7.1-46.2M882.9 1251.3c1 12.2 8.3 24.3 19 33 18.6 15 42.6 16 53.8 2.3M974.1 1232.6c-2.7-4.9-6.2-9.4-9.9-13.1M976.1 1267.7c4.6-10 3.8-21.8-1.4-32.9M951.1 1295.2c3.9-1.8 7.3-4.5 9.8-7.4M937.1 1298.3c3.2-.2 6.1-.6 8.6-1.4M885.3 1266.6c9.8 19.1 30.8 32.1 50.3 32M880.3 1250.4c.4 4 1.3 8 2.6 11.5M919.9 1269.2c4 1.7 8 1.3 10.3-1M948.6 1280.8c6.3-7.8 5.6-19.4-.9-30.1M891.4 1255.7c1.5 8.8 7.1 17.2 14.7 23.3 14.7 11.9 33.6 12.7 42.5 1.8M925.3 1267.4c2.8.9 4.6.6 5.4-.8M952 1267.5l.5-.5M892 1255.9v.3M948.1 1240.1l.4.3M974.2 1233.1v-.1M935.7 1298.6h.3M880.2 1250.7v.1M947.7 1250.8l-.4-.5M967.6 1268.6l1.2-1.5 9-11.1c.6-.8 1.4-1.5 1.6-2.5M961 1287.8l1.2-1.5 10.2-12.6c1-1.3 1.9-2.4 2.6-3.8.8-1.3 1.4-2.5 1.9-3.9M944.6 1297.5c2.3-.6 4.4-1.4 6.5-2.3M883.2 1262.2l2.1 4.6M1138.6 1050.4c2.4.6 5.3 0 6.4-1.3M1108.5 1047.6c1.4-2.1 1.6-4.6.8-7.1M1125.4 1060.5c7-9 4.7-23.1-4.9-34.2M1090.1 1063.3c13.5 7.8 28.1 6.8 35.6-1.9M1108.1 1048.1c2.1-2.3 2.6-5.4 1.6-8.3M1101 1050.5c2.8.4 5.3-.6 7-2.4M1129.7 1051.6c1.8-8.7-2-18.6-9.2-26.5M1123.9 1062.1c2.6-2.6 4.3-5.8 5.2-9.2M1090.5 1063.4c12.8 7 25.8 6.2 33.4-1.3M1126 1061.3c7.3-9.2 5.1-23.7-4.7-35.3M1090.1 1064.1c13.9 7.6 28.5 6.1 35.8-2.8M1138.8 1067.4c11.1-13.7 6.8-35.9-9.3-52.5M1138.5 1068l.4-.6M1150.2 1053.4c10.5-13.5 6.6-35.1-8.6-51.7M1151.5 1013c-2.6-4.9-6.2-9.5-10-13.2M1154.2 1046.8c4.3-10 3-21.9-2.5-32.9M1128.5 1075.6c3.9-1.7 7.3-4.5 9.8-7.4M1113.4 1079.1c3.2-.1 6.2-.5 8.7-1.1M1085.2 1071c9.2 5.5 19.2 8.2 27.9 8M1133 1067.1c9.8-12 6.3-31.3-7.2-46.2M1085.8 1069.4c17.9 10.8 37.5 9.4 47.2-2.3M1101.3 1050.1c1.5.4 2.8.1 3.6-.7M1129.9 1047.5l-.5.4M1109.8 1043.3l.3-.5M1109.3 1040.5v-.2M1106.3 1046.7l-.6.8M1121.3 1026l-.3-.1M1151.6 1013.6l-.1-.2M1113 1079.1h.3M1084.8 1070.7l.3.2M1125.4 1020.4l.4.4M1156.8 1034c-.2 1-1.1 1.7-1.7 2.4l-9 11.1-1.2 1.5M1138.3 1068.2l1.1-1.6 10.3-12.6c.9-1.1 1.9-2.4 2.6-3.7s1.4-2.6 2-3.9M1121.9 1077.9c2.3-.5 4.5-1.3 6.6-2.3M1105.7 1044.7c0 1.5.2 3.1-.6 4.3M1106.3 1044v1.4c0 .8.1 1.7-.3 2.5l-.2.4-.8 1.1M360.9 976.3c-.1 3 2.5 6.3 5.9 7.3M427.6 997.1c.6-.7.8-1.7.8-2.6M422.3 998.5c2.3.5 4.2-.1 5.3-1.5M735.9 1077.4c0 3.1 2.8 6.3 6.1 7.1M802.5 1098.2c.6-.7.9-1.6.9-2.5M797.3 1099.5c2.2.6 4.1.1 5.2-1.3M800.5 1095.6l-3.2 3.9M1147.8 969.1l-195.5 242.2M941.1 1225M941.1 1225M1145.7 968.4l-193 239M948.1 1239.9l203.9-252.3M1168.9 793.8v140.6M1154.4 940.7v-113.4M1156.6 941.9v-117.3M802.4 1072.5v-9.9M928.9 1090.9l-116.1-31.3M891.1 1253.6l-623.1-167.8M425.3 994.5l-3.1 4M427.3 971.6l142.3 38.3M569.6 994.1v15.8M570.6 1008.6l-1 1.3M437.6 958.6l132 35.5M427.3 961.6v10M370 979.8l-3.1 3.8M231.1 1043.7v-140.7M348.2 934.5l-117.1-31.5M360.8 976.4v-24.3M359.8 953.4v-10.2M359.8 953.4l1-1.3M360.8 976.4l2.2-2.6M422.2 998.5l-55.3-14.9M428.3 971.8v22.9M257.3 925.8l102.5 27.6M258.4 926v116.8M257.3 925.8v117.9M278.7 1063.5l291.9 78.7M570.6 1008.6v133.6M614.2 1146.2l-38.5-10.3M880.3 1225.5l-266.1-71.6M277 1064.7l605 162.8M902.7 1218.2v-118.6M802.4 1072.5l100.3 27.1M745.1 1080.8l-3.1 3.8M735.9 1077.4v-24.3M734.9 1054.4l1-1.3M734.9 1054.4v-10.3M735.9 1077.4l2.2-2.7M797.3 1099.5l-55.3-14.9M803.4 1072.8v22.9M734.9 1054.4l-121.7-32.8M614.2 1153.9v-132M723.4 1035.5l-110.2-29.6M613.2 1021.6v-15.7M928.9 1231.5v-138.70000000000002c0-2.5-.4-1.4 1.2-3.4l237.5-294.1 1.3-1.5M941.1 1212.2v-118.80000000000001c0-2.5-.4-1.4 1.2-3.4l213.1-263.9 1.2-1.5M575.7 995.8v140.10000000000002l-1.2 1.4-2.6 3.4-1.3 1.5M1151.1 971.5l.5-.2.1-.2M1163 943.3l-.4-.6M1154.4 950.9h.4l.8-.3M1154.4 950.9c-.5-.2-.9-.2-1.1 0M1153.3 940.8l.6.6M1141.4 964.7c.4-.8.7-1.9.7-2.8M1160.3 944.3c.6.2 1.1-.1 1.7-.6M1152.7 973.4c-.2-1-.6-1.7-.9-2.1M1147.2 967.9c-.1-.3-.6-.6-1-.7M1152.7 958.5c.4-.8.7-1.9.9-2.8M1148 936.8l-.4-.4"/>
    <path class="st1"
        d="M1150.8 937.6c-.7-.1-1.5 1.1-1.9 3-.4 1.7-.3 3.3.3 3.4.6.2 1.5-1.1 1.9-2.9.5-1.8.3-3.3-.3-3.5zM1152.3 975.5l.7-.2M1153.1 960.1c.5-.9.9-1.9 1.3-3M1155.7 941.4c0-.3-.4-.4-.9-.6"/>
    <path class="st1"
        d="M1155.7 941.6v-.2.2zM1153.4 954.9c.2-1 .4-2.1.4-2.8M1166 944.5c-2.2 1.1-4.4 4.3-6.3 8.6M1142.7 960.9M1141.4 966c.5.1 1.2-.9 1.5-2.3.4-1.5.2-2.6-.2-2.8"/>
    <path class="st1"
        d="M1149.9 938.1zM1148.7 943.2c.5.1 1.2-.9 1.5-2.3.4-1.5.2-2.6-.2-2.8M1170 942.9v-.8M1170.3 943.4c-1-.3-2.2.1-3.4 1M1148.6 941.9c.4-.8.7-1.9.7-2.8M1161 944.8c.6 0 1.1-.4 1.7-1.1"/>
    <path class="st1"
        d="M1169.9 933.7zM1170.2 934.5l-.2-.8M1146.6 968.3l.7-.1v-.1M1152 962.2l-.4-.7-.4-.2M1150.3 960.7c0 .3.4.5.8.6M1150.3 960.7c1.7-2.1 3-6.5 2.8-9.8M1157.8 983.9c2.9.1 5.5-.6 7.5-1.9M1138.9 970l.4-.1.2-.2M1151.1 932.9l-.4-.6M1156.1 980.1c.2 1.1.7 2.1 1 2.8"/>
    <path class="st1"
        d="M1143.5 960.4c-.6-.2-1.5 1.2-1.9 2.9-.4 1.8-.2 3.4.4 3.5s1.5-1.1 1.9-3c.4-1.7.3-3.2-.4-3.4zM1156.4 979.1c3.6-3.8 6.4-8.7 8.3-13.8 2.9-8.1 3.4-15.9 1.6-21.7M1152.3 989.6l.7-.5v-.1M1155.8 985.7c10.3-1.9 18.2-9.9 20.5-19.7M1176.5 965.8c.9-4.3.6-9.2-.7-13.2M1175.9 953c-1-3.8-3.1-7.5-5.6-10.3M1149.7 971l1.4.4M1141.7 971.1l-2.2-1.4M1141.1 971.6l-2.3-1.7M1162.6 942.8l-1.3-.4M1160 944.2h-.1M1150.3 989.5l1.5.4M1150.2 989.6l1.5.5M1146.2 936l1.3.3M1168.9 933.1l.8.3M1169.7 933.3l-.8-.2M1152.1 989.6l-.4.5M1152.3 975.5l-1.3-.3M1154.2 940.7l.5.1M1169.5 933.6l.2-.2M1169.7 933.6v-.3M1151.1 932.9l2.2 1.5M1170.2 942.2v-8M1169.9 943.2l.1-.1M1169.5 933.6l.4.1M1152 962.2l-4.7 5.8M1157.4 983.9h-.2M1138.8 969.9l-1.2-.3M1149.4 931.9l1.4.4M1151.8 989.5l.5.1M1148.6 942.6c1.1.3.6.1 1.4 1M1144.4 967.9l1.7.6 1.4 1M1163.4 947.3l1.1-1.3M1153.3 940.8v-.2M1155.6 941.6h-.3l-1.3-.2M1155.5 941l1.6 1.1 1.1.9s1.9.7 1.8 1.5M1153.4 940.4l.8.3M1169.9 933.7l-1.2 1.5-4.9 6c-.6.8-1.2 1.6-2 2.3M1141.4 965.4c1 .4.6.1 1.4 1M1152.8 973.4c.1 1.3.1 2.5.1 3.9v11.8M1147.3 968l1.5 1.1 1.3.8 1.6 1.1.2.3M1141.6 971.4c.6-1 1.4-1.9 2.2-2.8l1.3-1.5h.3l1 .1M1151.8 989.5v.6M1150.8 932.3l-1.3 1.5-.8 1-1.2 1.5-.6 1.9-7.5 23.6-.6 1.9v6.199999999999999M1152.6 958.5c-.3.9-1.2 2.3-1.2 2.3l-.3.4-1.3 1.5-2.4 3s-1.7 1.6-1.4 2.4M1154.7 940.8l-.3 2.5v5.6c0 1.1.1 2.2 0 3.2-.1 1.2-.4 2.4-.7 3.6M1137.6 969.6l2.3 1.5 1.3.4h.2l.1-.1 1.3-1.5.9-1.1c2.2-2.8 4.4-5.6 6.6-8.3M1146.7 968.4l1.7 1.1 1.2.8 1.6 1.1.3.2c.9.9.9 2.6 1 3.8v14M1153.4 960c-.5.8-1.4 2.2-1.4 2.2M1155.6 941.6v7.1c0 1.4.1 2.8-.1 4.1-.2 1.4-.5 2.8-.9 4.1M1153.9 952.1c.1-1.1.1-2.1.1-3.2v-5.5l.2-2.6.5.1M1145.6 968c-.3-.8 1.4-2.4 1.4-2.4l2.5-3c.6-.8 1.3-1.5 1.8-2.4 1-1.6 1.6-3.4 2.1-5.3M1155.6 978.3c-.7-3.4-.5-6.9-.1-10.3.8-5.2 2.3-10.2 4.3-14.9M1164.5 946.1l2.1-1.8M1139.5 963.7h-.3l-1.6-.4M1160.9 944.8h-.3c-.8-.1-1.4-.8-2.1-1.3l-1.2-.9-1.6-1.1M1170.2 934.5c-2.5 3.1-4.9 6.3-7.5 9.2M1146.5 968.2l-1.8-.6M1151 932.3l1.1.9 1.1.7.1.4v16.599999999999998M1151.1 932.9l-1.2 1.5-.6.8-1.3 1.6-.6 1.7-7.3 23.3-.6 1.9v6M1156 980.1c-.4-1.9-.8-3.9-.9-5.9-.1-4.9.9-9.9 2.3-14.6 1.2-4.1 2.9-8.1 5.3-11.6M1152.8 989.4l1.1-1.5 1.7-2.1c.8-.8 1.3-1.5 1.8-2.4l-.4-.6M1152.9 989.1l1.1-1.5 1.7-2.1c.6-.8 1.2-1.3 1.5-2.3M1149.4 931.9l-1.2 1.5-.8 1.1-1.2 1.5-.6 1.8-7.5 23.7-.5 1.8v6.300000000000001M269.6 1058.9l-.2.7M269.8 1058.6l.4-.9M257.9 1084.5l.9.6M269 1035.8c0 .7.5 1.6 1.3 2.2.9.8 2.2.9 3 .5M267.4 1073.6h.2l.4-.1M269.5 1069.6c-.9 1-1.4 2.4-1.4 3.9M263.6 1050.1h-.2l-.5.1M261.6 1050.7c.4.1.9 0 1.2-.2M235.8 1084.3c6.9 3.9 15.1 3.9 22.2.6M270.1 1068.6l.5.1M263.6 1050.3c.1 3.2 3.1 6.6 6.8 7.4M263 1040.8l-.2-.4h-.6M263.1 1050.2c0 3.4 3.1 7 7 8.1M280.9 1061.6l-.4-.4M280.7 1062.1l.2-.6M262.1 1070.9c-.2-1.6-.6-3.2-1.3-4.7"/>
    <path class="st1"
        d="M288.4 1056.8c.6-.8.3-2.2-.8-3.2-1.1-.8-2.6-.9-3.3-.1-.6.9-.3 2.3.9 3.2 1.1.9 2.5.9 3.2.1zM268.3 1029.9v.8"/>
    <path class="st1"
        d="M273 1038.7c.6-.8.2-2.3-.9-3.1-1.1-.9-2.6-1-3.3-.2-.6.8-.3 2.3.8 3.2 1.3.9 2.7 1 3.4.1zM273.3 1039.6c.9-1.1.4-2.9-1.1-4.1-1.4-1.1-3.3-1.2-4.1-.1-.9 1.1-.5 2.9 1 4.1 1.4 1.1 3.3 1.2 4.2.1zM284.6 1053.2c-.4.9 0 2.1 1 2.9 1.1.8 2.3.9 3 .4M279.5 1062.6l.1.1h.4M261.7 1050.5c-.1 3.9 3.2 8.1 7.5 9.4M261.5 1041.1l.1.6"/>
    <path class="st1"
        d="M288.7 1057.6c.9-1.1.4-2.9-1.1-4.1s-3.3-1.3-4.2-.2c-.9 1.1-.4 3 1 4.1 1.5 1.2 3.5 1.3 4.3.2zM230.6 1052l.3.9M229.8 1050.9c0 .7.2 1.1.4.9M245.8 1048.3c2.5.7 4.8.4 6.5-.7M261.6 1041.7c.7-.2 1.3-.6 1.6-1.1M280.8 1061.9l-.5-.5M280.5 1062.4l.3-.5M262.9 1050.5c0 2.3 1.3 4.6 3.4 6.3 1.2.9 2.4 1.5 3.6 1.8M262.9 1041l-.2-.4h-.7l-.1.1M246 1047.6c2.4.7 4.6.4 6.2-.7M270.1 1068.5c-1.7 1.1-2.7 3-2.7 5.2M252.2 1047v.6h.1M230.2 1052c.2.5.4.9.6.9M238.2 1051.7c-3-.1-5.6.4-7.8 1.5M261.6 1078.4c2.9-6.5-.3-15.4-7.6-21.4-4.8-3.9-10.4-5.7-15.3-5.4M229.7 1044.5c-2.3 2.6-4.1 5.6-5.1 8.6M224.2 1054c-1.9 6-1.5 12.3.8 17.9M236.2 1084.7c3.5 1.9 7.4 3 11.2 3.2M251 1088c3-.2 6-1.1 8.7-2.4M261.3 1067c-2.9-7.6-10.6-13.6-18.4-14.9M258 1084.5l.4.6M259.2 1083.2c1.2-1.4 1.9-3 2.3-4.7M257.9 1084.6c.5-.5.9-.9 1.3-1.4M267.4 1087.4l-8.6-2.3M258.9 1085.3l-.1-.2M268.6 1086.1v-.1M268.6 1086.1l.1-.1M268.3 1087.8l-.3-.1M273.4 1037.7l.3.6M288.6 1062.6l4.6-2.9M243.3 1052.2l-1-.2M262.2 1070.6l.1 1.2M268.1 1073.5l.5-.8M268.1 1073.5v14.1M262.8 1050.5l.2-.3M263.7 1033.6l4.6-3M270.2 1057.7l11.4 3.1M263.7 1039.8v10.3M268.3 1029.9l-4.8 3.2M263 1050.2v-9.5M280.5 1061.2l-10.4-2.8M289.1 1056.3l-.3-.5M262.2 1070.6v.2M268.3 1029.9l.8-.8M269.5 1059.9l9.9 2.7M261.6 1041.7v9M230.6 1052v-7.9M261.6 1041.7l-9.4 5.9M269.8 1058.6l10.5 2.8M262.9 1041v9.5M230.2 1043.4l15.7 4.2M252.7 1046.2l-.6.8M224.5 1053.2v-.1M259.7 1085.6l-.2.1M230.6 1052l-.4-.3M269.5 1059.6v.3M269.8 1058.6l-.2.4M259.3 1085.5l-.8-.4M280.9 1061.9l1-.9M268.3 1029.9l1.9.5 3.3.9 1.8.5 1.3 1.4 16 18.8 1.3 1.4v6.300000000000001M262.4 1072.9c-.1 1.4 0 .8-.2 2.1M262.7 1073.2l-.4-1.5M267.6 1036.7l.9-.3.6-1.2M246.6 1046.9l-.8 1.4M293.2 1059.7v-6l-1.2-1.5-15.7-18.4-1.3-1.4-1.9-.5-2.9-.8-1.9-.5M293.9 1059.7l-.2.2-.5-.2M275 1032.4l1-1.4M284.5 1053.8c-.7.9-.2.7-1.5.9M268.3 1087.9v-.5M263.4 1039l-1.2.8-1.1 1.1c-1.2.9-2.5 1.6-3.8 2.4M263.4 1033.1l.3.5M259.2 1085.3v.1l8.9 2.5 1.4-1.6M269.1 1029.1l-3.4 2.1-1.6 1.1-.6.8h-.1v4.4c0 .9.3 2.2.3 2.2M288.6 1062.6l.2.3M294.5 1052.7l-1.3 1M262.1 1040.5l1.3-1.2M262.1 1076.2l.1-1.3.2-1M230.2 1051.8l-.2-2.5v-6.300000000000001l1.1-1.3M229.7 1050.9l.5.3M242.4 1052l-3.6-.3M229.7 1050.9v-7.9l1.4-1.6M245.8 1048.3l-1.8-.5-11.6-3.2c-1.2-.3-1.9 0-2.2-1.1M263.7 1033.6v4.3c0 2.1.3 1.4-.4 2.4l-.2.3M280.5 1062.4l-2.2 1.4-6.1 3.9c-1.1.7-2 1.2-2.9 2.1M252.1 1047l1.7-1 6.1-3.9 2-1.4M270.1 1068.6l1.6-1.2 6.1-3.8 1.6-1 .7-.8 1.1-.9.4-.1 1.9.5 3.2.8 1.9.5M267.9 1087.7l-.5-.3v-13.8M281.6 1060.8l.2.2 1.9.6 3.2.8 1.9.5h.1l3.3-2.1 2.3-1.8v-6.300000000000001l-1.3-1.5-15.9-18.7-1.3-1.5-1.8-.4-3.3-1-1.8-.5M237.5 1051.6c4.4 6.1 9 12.1 14 17.7 3.1 3.5 6.2 7 9.7 10.1M229.7 1043l.9.1M230.2 1052v-6.4c0-1.5-.3-1.6.4-2.4M236 1084.4c-1.2-.7-1.5-.8-2.6-1.6-2.4-1.9-4.5-4.1-6.2-6.6-1.1-1.6-1.9-3.3-2.6-5.1M250.8 1087.9h-.3l-1.7.1-1.7-.1M258.4 1085.1c.7.3 1.6.4 2.3.6l5.2 1.5 1.9.6h.2l.2-.4M262.2 1075.1c-.2 1.1-.4 2.2-.7 3.2M304.3 1107.2c.1 1.1 1.1 2 2.7 2.4M397.8 1132.9c2.4-3.2 4.1-7 4.8-10.7M385.6 1130.7c2.4.7 5.3 0 6.3-1.3M384.9 1148.9c6.8-7.7 8.5-18.6 5.6-29.5M355.5 1127.8c2.4-3.3 1.4-8.4-2.1-12.4M316.8 1104.6c-3.5 11.3 2.5 25.3 14.1 34.7 14.7 11.8 33.5 12.6 42.4 1.8M372.6 1140.5c5.4-7.1 5.1-17.5-.2-27M372.9 1141.6c5.8-7.1 5.6-17.6.7-27.3M316.4 1104.9c-3.7 11.3 2.3 25.5 14 34.9 14.7 11.9 33.7 12.7 42.5 1.8M357 1121.1c-.6-2.4-1.9-4.7-3.6-6.5M355.6 1127.9c1.6-1.9 1.9-4.5 1.4-7.1M335.1 1119.7c.6 3 2.5 5.7 5.1 7.8 5.2 4.3 12.2 4.5 15.4.4M316.8 1106.1c-3.2 11 3 24.7 14.7 33.6 2.8 2.2 5.9 3.9 8.7 5.2M372.4 1140.8c5.6-6.9 5.7-16.7 1.3-25.9M339.2 1144.6c12.8 6.6 26.2 4.7 33.2-3.8M380.1 1147.4c6.5-8.1 7.1-19.4 2.6-30.6M309.9 1097.1c-7.3 14.4-.2 34.7 16.2 48 18.6 15.1 42.7 16 53.9 2.3M305.9 1096.6c-3.2 9.8-1.6 20.9 3.7 31M309.6 1127.5c10 19.2 30.9 31.9 50.4 31.9M359.8 1159.5c3.2 0 6.1-.4 8.6-1M375.6 1155.9c2.6-1.3 5-3 7-4.7M319.3 1107.2c6 6.1 11.9 10.3 17.1 12.5M341.1 1126c.8 1.1 2.2 2.2 3.6 3.1 3.2 1.7 6.4 2 7.4.5M315.4 1111.8l.4-.5M392 1129.4l6.7-8.4M376.5 1128.3l.3-.6M352.8 1127.7l.6-.7M356.8 1123.6l.4-.5M336.3 1104.2v15.6M316.6 1104.4l-.2.5M373.4 1114.2l.2.4M306.1 1096.3v-.2M309.6 1127.5v-.2M360.3 1159.3h-.3M341.1 1125.9l-4.8-6.1M352.2 1129.4c.7-1.2.6-2.3.6-3.7v-17.099999999999998M375.5 1155.9c-2.1.9-4.3 1.7-6.6 2.3M402.9 1122.2c-.7 2.9-1.9 5.9-3.5 8.4-.8 1.4-1.7 2.5-2.6 3.8l-10.3 12.6c-1.3 1.5-2.5 2.9-4 4.3M319.3 1107.2c-3-3.1-5.8-6.3-8.4-9.8M353.4 1108.8v16.2c0 1.1.2 2.6-.5 3.6l-.9 1.1M395.9 951.9l-.2.8M385.8 957.7c.2 2.3 1.1 4.5 2.4 6.4M381.2 981.4l.6.1M383.7 956.1c-1.2-.4-2.3-.2-3.2.3M391.5 967.3c4.5 3.3 10 3.6 13.3.7M425.6 989.8c.9.2 1.9.3 2.6.1M409.8 988.7l.3.6"/>
    <path class="st1"
        d="M427.9 992.1l.1-.1-.1.1zM422.6 993.4c2.2.6 4.2.1 5.3-1.3M365.9 972.6c0 3.1 2.8 6.3 6.1 7.1M375.8 967.1c-.5 1.1-.2 2.5.9 3.5 1 1.1 2.5 1.4 3.6.9M402.7 967l.1-.1c3-3.2 2.2-8.8-1.8-12.5s-9.6-4.1-12.6-1.1"/>
    <path class="st1"
        d="M375.1 967.6c-.9 1-.7 2.9.6 4.1 1.3 1.2 3.2 1.3 4.2.2.9-1 .7-2.9-.7-4.1-1.3-1.1-3.1-1.2-4.1-.2zM362.2 973.8c1.6.2 3.1-.4 3.8-1.1M410.6 976.6c-.4 1.1-.1 2.4.9 3.5 1.1 1.1 2.4 1.4 3.6.9M406.7 960.9c.4-3-.9-6.2-3.2-8.6-3.8-3.8-9.3-4.4-12.5-1.4M426.5 986.8c.7.2 1.3.2 1.8.1M384.8 957.7c0 3.4 1.6 6.7 4 9.2 4.8 4.8 11.8 5.5 15.6 1.7 1.4-1.5 2.2-3.2 2.4-5.1"/>
    <path class="st1"
        d="M410 976.9c-1 1.1-.8 3 .5 4.2 1.3 1.3 3.1 1.5 4.1.5 1.1-1.1.9-3-.4-4.3-1.3-1.2-3.1-1.4-4.2-.4zM389.1 954c-2.9 2.8-2.5 7.8.8 11.5 3.4 3.6 8.4 4.3 11.3 1.6s2.5-7.8-.8-11.5c-3.3-3.6-8.4-4.2-11.3-1.6zM388.3 953.7c-2.8 3.2-2 8.6 1.6 12.3 3.8 3.8 9.4 4.3 12.6 1.3M419.1 986c2.8-2.7 2.5-7.5-.3-11.1M411.1 964.7c-.8-1-1.9-1.7-3.1-2M384.7 955c-1.2-.3-2.3-.1-3.2.4M370.3 963.4c-2.8 3.2-1.9 8.6 1.9 12.2 3.2 2.9 7.4 3.7 10.4 2.2M406.6 984.4c2.9 3.2 7.2 4.4 10.5 3.1M421.8 982.5c.8-2.8.1-5.6-1.8-8.3M417.1 987.6c2.5-1.3 4-3.1 4.6-5.1M412.1 963.8c-.7-1-1.9-1.8-2.9-2.1M425.6 989.7c.3-.4.6-.9.8-1.6.2-.5.2-.9.2-1.3M409.8 988.5l-1.1-.3M411.4 956.2l1 .4M404.7 963l2 .5M386.6 958.1l-1.8-.4M383.7 956.1l1-1M380.5 956.5l1-1M368.9 966.3v-26.2M378.4 971.7l-1.1 1M371.7 962.2l1-1M396.2 969.7l-1.1.9M371.8 940.9v21M384.1 954.9l.6-10.5M395.6 952.8l.1-.2M388.5 964.4v-.1M380.1 980.5l1 .3M386.7 956.9l-3-.8M391.5 967.3l-.2-.1M412.2 951.7l-.2 3.8M412.6 954.7l.2-2.7M410.8 979.1v-2.7M412.2 982.1l1-1M417 987.4l8.6 2.4M416.1 952.9v16.1M372.1 979.7l50.6 13.7M366 939.3v33.3M382.7 948.5l1.1.3M366 972.6l2.9-3.5M388.8 953.1l2.2-2.2M418.8 974.9l1.1-.9M420.2 985l6.3 1.8M411.1 964.7l1-1M411.1 964.7l7.7 10.2M404.8 961.7l3.3.9 1-.9M384.7 955.1l2.4.7M406.6 984.6l-24.3-6.6M412.1 963.7l7.8 10.3M405.8 960.8l3.3.9M411.9 963.5l.1-1.9.3-3.2.1-1.8 1.2-1.6.7-.9 1.3-1.5M382.2 955.2l.2-2 .2-2.7.1-2 1.8-2.2M405.8 960.8l-1 .9-.1 1.3M383.3 954.9l.1-1.9.2-2.2c.1-2.3-.2-1.5.8-2.7M394.9 968.9l-.1-.5M380.1 978.6v2.1l.3.7 1 .2M395.9 952l1.4-1.5 1.1-1.2M381.3 981.4l-.2-1.9v-1.1M384.3 978.6c-.9.9-1.6 2-2.4 2.9M380.5 956.5l-1.6 1.1-5.6 3.6c-1 .7-1.9 1.2-2.7 2.1M371.1 982l.7-1.7c.6-1.1 1.6-2.2 2.4-3.2M427.8 992.3l.4-.8M408.7 986.3v1l.1 1.5.2.3 1 .2 1.7-1.6M409.8 986.8v1.9M414.5 952.4l-1.2 1.5-.7.8-1.2 1.5-.2 2-.1 2.5-.3 1.8M406 963.3c-.9 1.6-2.3 2.6-3.6 4M370.6 963.2l.9-1.1.7-.4.5-.5 1.6-1 5.6-3.6 1.6-1.1M425.6 989.8l-1.2 1.5-.5.6-1.2 1.5-.2.2-.9 2M784.9 1089.6l.2.7M785.8 1077.5c-.5 1-.2 2.4.8 3.5s2.5 1.4 3.6.9M756.3 1081.9l.3.7M758.7 1057.1c-1.2-.3-2.3-.1-3.1.4M761 1059c.2 2.2 1.3 4.4 2.6 6.3M771 1052.9l-.1.7"/>
    <path class="st1"
        d="M785.2 1077.9c-1 1-.9 2.9.5 4.1 1.3 1.3 3.1 1.6 4.2.6 1-1.1.8-3-.5-4.3-1.3-1.2-3.2-1.4-4.2-.4zM781.7 1062.3c.5-3-.6-6.3-2.9-8.7-3.7-3.9-9.2-4.7-12.5-2M800.7 1090.8c.9.3 1.7.3 2.3.2M766.5 1068.2c4.4 3.4 9.9 3.7 13.3.9"/>
    <path class="st1"
        d="M750.4 1068.5c-1 1-.9 2.9.3 4.1 1.2 1.4 3.1 1.6 4.1.6 1.1-.9.9-2.8-.3-4.1s-3.1-1.6-4.1-.6zM777.3 1068.6l.2-.2c3.2-2.9 2.8-8.6-.9-12.6-3.7-3.9-9.2-4.7-12.4-1.9M750.8 1068.1c-.5 1.1-.1 2.6.9 3.6 1.1 1 2.5 1.3 3.6.8"/>
    <path class="st1"
        d="M764 1055.2c-2.8 2.9-2.3 7.9 1.3 11.4 3.4 3.5 8.5 4 11.3 1.3 2.8-2.9 2.3-7.9-1.2-11.4-3.4-3.5-8.6-4.1-11.4-1.3zM763.4 1054.6c-2.8 3.4-2.1 8.7 1.6 12.4 1.3 1.3 2.7 2.2 4.2 2.7M801.6 1087.8c.6.2 1.3.2 1.8.1M759.8 1058.6c0 3.4 1.7 6.8 4.1 9.3 4.7 4.7 11.7 5.5 15.6 1.7 1.3-1.5 2.2-3.2 2.4-5.2M737.5 1074.7c1.5.2 3-.2 3.6-1"/>
    <path class="st1"
        d="M803.1 1093zM797.9 1094.4c2.2.6 4.2 0 5.2-1.4M741.2 1073.4c-.1 2 1 4.1 2.8 5.6.9.8 2.1 1.4 3 1.7M769.4 1069.7c3.2 1.1 6.3.4 8.3-1.4M794.3 1087.1c2.7-2.8 2.5-7.5-.3-11.2M786.2 1065.7c-.8-1-1.9-1.7-3-2.1M759.7 1056.1c-1.2-.3-2.3-.1-3.2.4M745.9 1064c-3 3-2.5 8.4 1 12.2 3 3.1 7.1 4.2 10.3 3M781.9 1085.6c3 3.2 7.3 4.2 10.6 2.6M796.9 1083.2c.8-2.7 0-5.6-1.9-8.2M792.4 1088.4c2.5-1.3 4-3.1 4.5-5.2M787.1 1064.6c-.8-1-1.9-1.6-3-1.9M800.6 1090.8c.4-.4.7-.9.8-1.6.2-.5.2-.9.2-1.4M787.3 1083l1-.9M784.9 1089.5l-1.1-.3M785.9 1080.2v-2.8M759.2 1056l.4-6.9M755.6 1057.4l1.1-.9M761.7 1059.1l-1.9-.5M744 1041.1v26.2M747 1041.9v21M746.8 1063.2l1-1M755.3 1081.5l1 .3M759.8 1056.1l-1.1.9M761.9 1057.9l-3.2-.9M763.6 1065.4v-.1M770.9 1053.6v.2M787.7 1055.7l.1-2.8M787.6 1057.5l-1.2-.3M791.2 1070v-16.2M763.9 1054.1l2.3-2.3M794 1075.9l1-1M770.2 1071.6l1.1-1M800.7 1090.7l-8.5-2.3M803.4 1090.9l-.3.1M766.4 1068.2l.2.1M752.4 1073.7l1-1M757.9 1049.6l1 .2M782 1064.6l-2.2-.6M786.2 1065.7l1-1M787.2 1056.5l2.4-3.2M801.7 1087.8l-6.4-1.8M741.1 1073.6l2.8-3.5M747.2 1080.7l50.6 13.6M741.1 1040.3v33.3M786.2 1065.7l7.8 10.2M779.9 1062.7l3.2.9 1.1-1M759.8 1056.1l2.4.7M781.8 1085.6l-24.4-6.6M787.2 1064.7l7.8 10.2M780.9 1061.8l3.3.8M784.9 1089.6v-1.7000000000000002M756.3 1079.4v2.6M759.3 1079.5l-1.1 1.4-1.1 1.5-.4.2-1.2-.2-.2-.7v-2.2M755.6 1057.4l-1.6 1.1-5.5 3.6c-1 .7-1.9 1.1-2.8 2.1M746.2 1083l.7-1.7c.6-1.1 1.7-2.1 2.4-3.1M773.5 1050.3l-1.1 1.1-1.4 1.5M802.9 1093.3l.4-.7M770 1070l-.2-.6M759.8 1045.4l-.2 3.7-.7.7-.2 1.9-.1 2.3-.1 1.9M786.8 1088.6l-1 1.4-.5.3-1.2-.3-.1-.2-.2-1.6v-.9M786 1063.5l.1-1.9.2-2.4.1-2 .8-.7.1-3.7M787 1064.4l.2-1.9.2-3 .2-2 1.1-1.5.8-.8 1.2-1.5M759.6 1047.3l-1.7 2.3-.2 1.9-.2 2.8-.2 1.8M780.9 1061.8l-1 .9-.1 1.3M781.1 1064.4c-.9 1.5-2.3 2.6-3.5 4M745.7 1064.2l1-1 .5-.6.6-.4 1.7-1.1 5.5-3.6 1.7-1M800.7 1090.7l-1.1 1.5-.6.6-1.2 1.5-.2.3-.9 2M433.7 851.4c.2.6.8.9 1.3 1.1M357.5 830.9l-.1 1.8M357.4 830.9l-.2 1.7M355.8 830.5l-.1 1.3M610.5 1083.1c.2-.8.4-1.5.5-2.3M610.3 1083.5c-.4.7-.6 1.3-.7 2.1-.6 2.4-.5 4.6.3 4.8.6.2 1.3-.6 2-2M612.5 1093l-.9.4"/>
    <path class="st1"
        d="M612.6 1093.1l-.2-.1.2.1zM611.3 1093.7c-.9.5-1.8 2.2-2.4 4.3-.9 2.6-.8 5.1.2 5.4.4.1.8-.2 1.1-.7M611.1 1101.8c.7-.8 1.3-2.2 1.7-3.7.6-2.3.4-4.4-.3-4.9M596.9 1140.7l-.4.9M603.2 1122.6c.4-1.4.6-2.6.7-3.8M583.8 1137.2l-.3.8M590 1118.9c.2-1.5.4-2.7.4-3.9M589 1123.4l13.1 3.5M590 1119l13.1 3.5M609.2 1087.7l2.7.7M610.4 1094.6l2.8.8M611.1 1101.8l-2.8-.7M608.4 1102.2l1.8.5M614.2 1081.1l-3.2-.9M610.9 1081.7l3.3 1M596.6 1061l-13.2-3.4M583.1 1048.8l13.1 3.5M583.9 1017.4l13.2 3.4M610.3 1083.5l.2-.5M614.2 1083.4l-2.3 5M611.2 1093.7l.3-.2M611.1 1101.8l-.9.9M603.6 1116.3l-13.1-3.5M596.9 1140.8l-13.1-3.6M611 1080.7c0-1.1-.1-2.1-.3-3.1l-3.6-28.4c-.2-1.9-.4-3.7-.5-5.6-.2-2-.2-3.9-.1-5.9l.8-26.5c0-2.3.1-4.6.5-6.9M614.2 1101.3l-.3.8-.8 1.8-10.7 27.4c-1.4 3.6-3 7.1-5.2 10.4M603.1 1122.5c-.6 2.6-1.1 5.3-1.9 7.9-1.1 3.6-2.5 7.1-4.3 10.4M599.4 1002.2c-1.3 6-2.1 12.1-2.3 18.2l-.9 31.9c0 3 0 5.8.4 8.7l.3 2 6.6 51.3c.1 1.5.3 2.8.2 4.3M590 1119c-.5 2.5-1.1 5.2-1.8 7.8-1.1 3.7-2.5 7.1-4.4 10.4M586.3 998.6c-1.3 6-2.2 12.2-2.3 18.3l-.9 31.9c-.1 2.9 0 5.8.3 8.7l.4 1.9 6.4 51.3c.2 1.5.4 2.9.4 4.3"/>
    <defs>
        <path id="SVGID_1_" d="M221.6 1300z"/>
    </defs>
    <clipPath id="SVGID_2_">
        <use xlink:href="#SVGID_1_" overflow="visible"/>
    </clipPath>
    <path class="st3" d="M221.6 1300l13.9-14"/>
    <path class="st0" d="M221.6 1300z"/>
</svg>
