<?xml version="1.0" encoding="utf-8"?>
<!DOCTYPE svg PUBLIC "-//W3C//DTD SVG 1.1//EN" "http://www.w3.org/Graphics/SVG/1.1/DTD/svg11.dtd">
<!-- Generator: PTC Arbortext IsoDraw 7.3 -->
<svg id="Standardebene" width="100%" height="100%" viewBox="0 0 81.069 68.045"
 xmlns="http://www.w3.org/2000/svg" xmlns:xlink="http://www.w3.org/1999/xlink"
 xmlns:itedo="http://www.itedo.com/svgfilter/1.0" xmlns:extra="http://www.itedo.com/svgfilter/1.0/extra"
 xmlns:_DEFAULT_DTD_="http://www.itedo.com/svgfilter/1.0/DTD/_DEFAULT_DTD_"
 fill-rule="evenodd" clip-rule="evenodd" stroke="#000000" stroke-linecap="round" fill="none" xml:space="preserve">
 <g>
  <g id="Z0750CARTOUTRIGGERV01KOMPLETT17" itedo:apstype="grobject">
   <desc>Z0750CARTOUTRIGGERV01KOMPLETT17</desc>
   <g id="203468" itedo:apstype="grobject">
    <desc>203468</desc>
    <g id="203468-ST_STUETZE" itedo:apstype="grobject">
     <desc>203468-ST_STUETZE</desc>
     <line stroke-width="0.2" stroke-linejoin="round" x1="13.364" y1="64.343" x2="13.364" y2="64.995"/>
     <line stroke-width="0.2" stroke-linejoin="round" x1="11.25" y1="67.611" x2="11.25" y2="66.959"/>
     <line stroke-width="0.2" stroke-linejoin="round" x1="9.922" y1="67.237" x2="9.922" y2="67.891"/>
     <line stroke-width="0.2" stroke-linejoin="round" x1="6.296" y1="66.915" x2="6.296" y2="66.262"/>
     <line stroke-width="0.2" stroke-linejoin="round" x1="11.678" y1="64.39" x2="11.678" y2="64.653"/>
     <line stroke-width="0.2" stroke-linejoin="round" x1="10.579" y1="65.64" x2="10.579" y2="66.013"/>
     <line stroke-width="0.2" stroke-linejoin="round" x1="10.048" y1="65.643" x2="10.048" y2="66.126"/>
     <line stroke-width="0.2" stroke-linejoin="round" x1="7.692" y1="65.009" x2="7.692" y2="65.49"/>
     <path stroke-width="0.2" stroke-linejoin="round" d="M12.08 63.36L12.274 63.412L12.686 63.524C12.932 63.59 13.211 63.652 13.375 63.868C13.47 63.996 13.455 64.115 13.455 64.271L13.455 64.524C13.455 64.659 13.477 64.807 13.407 64.93L13.364 64.995L13.237 65.152L11.375 67.456L11.25 67.611L11.192 67.674C10.977 67.873 10.673 67.927 10.391 67.944C10.272 67.944 10.153 67.939 10.035 67.917L9.922 67.891L9.727 67.84L6.488 66.968L6.296 66.915C6.075 66.852 5.804 66.73 5.732 66.489C5.708 66.403 5.719 66.305 5.719 66.219L5.719 65.966C5.719 65.87 5.703 65.728 5.737 65.628C5.754 65.576 5.78 65.537 5.812 65.495L5.937 65.34L6.969 64.063L7.094 63.906"/>
     <path stroke-width="0.2" stroke-linejoin="round" d="M5.719 65.766C5.732 65.829 5.73 65.844 5.761 65.903C5.862 66.102 6.092 66.203 6.296 66.262L6.488 66.313L9.727 67.186C9.868 67.224 10.006 67.265 10.151 67.281C10.475 67.319 10.85 67.272 11.121 67.078C11.226 67.004 11.297 66.902 11.375 66.804L13.237 64.498C13.307 64.412 13.4 64.319 13.439 64.209C13.458 64.15 13.455 64.134 13.455 64.07"/>
     <path stroke-width="0.2" stroke-linejoin="round" d="M7.461 64.947L7.461 65.118L7.461 65.29L7.468 65.325C7.498 65.418 7.605 65.466 7.692 65.49L7.884 65.543L9.855 66.073L10.048 66.126L10.108 66.138C10.252 66.162 10.432 66.144 10.548 66.046L10.579 66.013L10.705 65.858L11.553 64.808C11.609 64.737 11.712 64.653 11.714 64.548L11.714 64.445L11.714 64.343"/>
    </g>
    <g id="203468-SCHAFT" itedo:apstype="grobject">
     <desc>203468-SCHAFT</desc>
     <line stroke-width="0.2" stroke-linejoin="round" x1="7.703" y1="31.199" x2="7.601" y2="31.327"/>
     <line stroke-width="0.2" stroke-linejoin="round" x1="8.813" y1="29.826" x2="8.324" y2="30.429"/>
     <line stroke-width="0.2" stroke-linejoin="round" x1="7.883" y1="29.068" x2="7.391" y2="29.676"/>
     <line stroke-width="0.2" stroke-linejoin="round" x1="8.615" y1="30.533" x2="8.374" y2="30.594"/>
     <line stroke-width="0.2" stroke-linejoin="round" x1="8.978" y1="31.196" x2="8.978" y2="30.82"/>
     <line stroke-width="0.2" stroke-linejoin="round" x1="8.615" y1="30.533" x2="8.978" y2="30.82"/>
     <line stroke-width="0.2" stroke-linejoin="round" x1="8.728" y1="31.26" x2="8.978" y2="31.196"/>
     <line stroke-width="0.2" stroke-linejoin="round" x1="10.102" y1="26.884" x2="7.387" y2="26.152"/>
     <line stroke-width="0.2" stroke-linejoin="round" x1="10.766" y1="26.736" x2="12.025" y2="25.178"/>
     <line stroke-width="0.2" stroke-linejoin="round" x1="8.4" y1="28.701" x2="8.4" y2="28.486"/>
     <line stroke-width="0.2" stroke-linejoin="round" x1="9.268" y1="29.574" x2="9.349" y2="29.596"/>
     <line stroke-width="0.2" stroke-linejoin="round" x1="8.367" y1="28.826" x2="8.23" y2="28.995"/>
     <line stroke-width="0.2" stroke-linejoin="round" x1="7.471" y1="29.222" x2="7.705" y2="29.286"/>
     <line stroke-width="0.2" stroke-linejoin="round" x1="7.625" y1="29.387" x2="7.471" y2="29.344"/>
     <line stroke-width="0.2" stroke-linejoin="round" x1="7.498" y1="29.231" x2="7.459" y2="29.278"/>
     <line stroke-width="0.2" stroke-linejoin="round" x1="7.323" y1="25.399" x2="7.142" y2="25.513"/>
     <line stroke-width="0.2" stroke-linejoin="round" x1="8.409" y1="23.943" x2="8.59" y2="23.829"/>
     <line stroke-width="0.2" stroke-linejoin="round" x1="8.978" y1="31.196" x2="9.105" y2="31.039"/>
     <line stroke-width="0.2" stroke-linejoin="round" x1="8.615" y1="30.533" x2="8.743" y2="30.376"/>
     <line stroke-width="0.2" stroke-linejoin="round" x1="9.105" y1="30.663" x2="8.978" y2="30.82"/>
     <line stroke-width="0.2" stroke-linejoin="round" x1="7.383" y1="32.63" x2="7.383" y2="64.926"/>
     <line stroke-width="0.2" stroke-linejoin="round" x1="10.102" y1="26.914" x2="10.102" y2="65.658"/>
     <line stroke-width="0.2" stroke-linejoin="round" x1="8.743" y1="27.733" x2="8.675" y2="28.096"/>
     <line stroke-width="0.2" stroke-linejoin="round" x1="8.637" y1="28.19" x2="8.468" y2="28.399"/>
     <line stroke-width="0.2" stroke-linejoin="round" x1="10.766" y1="26.775" x2="10.766" y2="65.518"/>
     <line stroke-width="0.2" stroke-linejoin="round" x1="12.035" y1="25.205" x2="12.035" y2="63.948"/>
     <line stroke-width="0.2" stroke-linejoin="round" x1="9.105" y1="30.663" x2="8.743" y2="30.376"/>
     <line stroke-width="0.2" stroke-linejoin="round" x1="9.105" y1="31.039" x2="9.105" y2="30.663"/>
     <line stroke-width="0.2" stroke-linejoin="round" x1="7.094" y1="29.623" x2="7.094" y2="25.931"/>
     <path stroke-width="0.2" stroke-linejoin="round" d="M6.357 32.521L6.32 32.523C6.238 32.514 6.274 32.521 6.214 32.506"/>
     <path stroke-width="0.2" stroke-linejoin="round" d="M6.367 32.554C6.314 32.549 6.264 32.539 6.214 32.523"/>
     <path stroke-width="0.2" stroke-linejoin="round" d="M8.939 31.047C8.942 31.001 8.946 30.995 8.939 30.948C8.903 30.754 8.72 30.625 8.535 30.603L8.483 30.606"/>
     <path stroke-width="0.2" stroke-linejoin="round" d="M8.749 31.216C8.798 31.204 8.832 31.192 8.874 31.161"/>
     <path stroke-width="0.2" stroke-linejoin="round" d="M12.08 25.065C12.096 25.178 11.964 25.292 11.909 25.361L10.891 26.62L10.766 26.775L10.727 26.815C10.618 26.908 10.471 26.932 10.33 26.942C10.18 26.937 10.055 26.902 9.909 26.862L7.577 26.234L7.383 26.182C7.258 26.147 7.089 26.065 7.096 25.911"/>
     <path stroke-width="0.2" stroke-linejoin="round" d="M7.113 25.951C7.168 26.065 7.267 26.114 7.383 26.152"/>
     <path stroke-width="0.2" stroke-linejoin="round" d="M7.383 26.182C7.384 26.172 7.384 26.164 7.387 26.152"/>
     <path stroke-width="0.2" stroke-linejoin="round" d="M10.102 26.914C10.102 26.905 10.103 26.896 10.106 26.885"/>
     <path stroke-width="0.2" stroke-linejoin="round" d="M10.757 26.748C10.641 26.867 10.493 26.9 10.33 26.911C10.253 26.91 10.182 26.902 10.106 26.885"/>
     <path stroke-width="0.2" stroke-linejoin="round" d="M12.035 25.205C12.032 25.195 12.025 25.178 12.025 25.178"/>
     <path stroke-width="0.2" stroke-linejoin="round" d="M10.757 26.748C10.757 26.748 10.766 26.765 10.766 26.775"/>
     <path stroke-width="0.2" stroke-linejoin="round" d="M8.23 28.742C8.09 28.724 8.16 28.728 8.022 28.727C7.939 28.736 7.913 28.734 7.833 28.762C7.692 28.809 7.575 28.91 7.514 29.047C7.484 29.118 7.484 29.146 7.471 29.222"/>
     <path stroke-width="0.2" stroke-linejoin="round" d="M7.459 29.278C7.474 29.364 7.487 29.446 7.509 29.528"/>
     <path stroke-width="0.2" stroke-linejoin="round" d="M7.471 29.222L7.459 29.157C7.464 29.024 7.528 28.913 7.607 28.812C7.669 28.736 7.726 28.652 7.804 28.594C7.98 28.46 8.192 28.457 8.4 28.486"/>
     <path stroke-width="0.2" stroke-linejoin="round" d="M8.23 28.995L8.23 28.742C8.25 28.64 8.339 28.562 8.4 28.486"/>
     <path stroke-width="0.2" stroke-linejoin="round" d="M8.367 29.03L8.367 28.778C8.385 28.678 8.474 28.599 8.535 28.522"/>
     <path stroke-width="0.2" stroke-linejoin="round" d="M8.535 28.522C8.637 28.562 8.664 28.57 8.759 28.625C9.003 28.766 9.208 28.992 9.303 29.26C9.335 29.353 9.333 29.376 9.349 29.474"/>
     <path stroke-width="0.2" stroke-linejoin="round" d="M8.444 30.282C8.602 30.303 8.782 30.283 8.925 30.21C9.016 30.161 9.074 30.097 9.137 30.018C9.198 29.943 9.263 29.873 9.303 29.785C9.336 29.707 9.335 29.678 9.349 29.596"/>
     <path stroke-width="0.2" stroke-linejoin="round" d="M8.848 29.594L8.987 29.631C9.095 29.66 9.128 29.699 9.221 29.631L9.349 29.474"/>
     <path stroke-width="0.2" stroke-linejoin="round" d="M9.349 29.596L9.221 29.753L9.128 29.792L8.848 29.716"/>
     <path stroke-width="0.2" stroke-linejoin="round" d="M8.714 29.946C8.769 29.911 8.811 29.844 8.832 29.783L8.848 29.716L8.929 29.615"/>
     <path stroke-width="0.2" stroke-linejoin="round" d="M8.848 29.594C8.833 29.524 8.833 29.507 8.804 29.44C8.718 29.245 8.556 29.117 8.367 29.03"/>
     <path stroke-width="0.2" stroke-linejoin="round" d="M8.574 30.288C8.657 30.277 8.685 30.28 8.765 30.253C8.904 30.204 9.022 30.103 9.083 29.966C9.115 29.896 9.114 29.868 9.128 29.792"/>
     <path stroke-width="0.2" stroke-linejoin="round" d="M9.128 29.669C9.112 29.579 9.114 29.556 9.083 29.469C8.994 29.219 8.803 29.007 8.574 28.875C8.487 28.824 8.461 28.817 8.367 28.778"/>
     <path stroke-width="0.2" stroke-linejoin="round" d="M8.23 28.995L8.15 28.987C8.002 28.995 7.851 29.041 7.785 29.189"/>
     <path stroke-width="0.2" stroke-linejoin="round" d="M8.409 28.679C8.51 28.719 8.535 28.725 8.631 28.78C8.875 28.923 9.082 29.149 9.176 29.417C9.208 29.513 9.208 29.533 9.221 29.631"/>
     <path stroke-width="0.2" stroke-linejoin="round" d="M9.074 30.097L9.131 30.024C9.186 29.939 9.205 29.852 9.221 29.753"/>
     <path stroke-width="0.2" stroke-linejoin="round" d="M7.607 28.812C7.671 28.757 7.682 28.739 7.758 28.699C7.921 28.614 8.096 28.617 8.272 28.643"/>
     <path stroke-width="0.2" stroke-linejoin="round" d="M7.383 26.158L7.577 26.21L9.909 26.838C10.103 26.89 10.282 26.943 10.484 26.899C10.57 26.882 10.659 26.849 10.727 26.791L10.766 26.751L10.891 26.594L11.909 25.336C11.977 25.251 12.079 25.167 12.08 25.048L12.08 24.917C12.08 24.841 12.093 24.766 12.051 24.699C11.996 24.611 11.878 24.559 11.794 24.512C11.711 24.466 11.596 24.448 11.515 24.425L9.182 23.798C9.079 23.769 8.992 23.74 8.888 23.73C8.723 23.73 8.576 23.795 8.448 23.905L8.409 23.943L8.284 24.1L7.267 25.358L7.142 25.513L7.113 25.556C7.081 25.62 7.094 25.711 7.094 25.777L7.094 25.907C7.1 26.027 7.219 26.091 7.314 26.135"/>
     <path stroke-width="0.2" stroke-linejoin="round" d="M7.468 25.629L7.383 25.896L7.383 26.158"/>
     <path stroke-width="0.2" stroke-linejoin="round" d="M8.65 23.78C8.57 23.835 8.532 23.9 8.464 23.984L7.448 25.243C7.418 25.28 7.283 25.399 7.296 25.487C7.307 25.568 7.399 25.609 7.468 25.629L7.66 25.681L9.993 26.309C10.167 26.356 10.397 26.437 10.558 26.303L10.586 26.277L10.711 26.121L11.727 24.864C11.784 24.794 11.941 24.67 11.852 24.562C11.833 24.536 11.82 24.53 11.794 24.512"/>
     <path stroke-width="0.2" stroke-linejoin="round" d="M11.852 24.707L12.035 24.92L12.035 25.181"/>
     <path stroke-width="0.2" stroke-linejoin="round" d="M7.094 25.646C7.102 25.687 7.1 25.696 7.125 25.734C7.216 25.879 7.427 25.91 7.577 25.949L9.909 26.576L10.102 26.629L10.176 26.644C10.356 26.675 10.583 26.652 10.727 26.528L10.766 26.489L10.891 26.333L11.909 25.076C11.987 24.978 12.071 24.911 12.08 24.788"/>
     <path stroke-width="0.2" stroke-linejoin="round" d="M10.186 26.361L10.102 26.629L10.102 26.89"/>
     <path stroke-width="0.2" stroke-linejoin="round" d="M10.766 26.751L10.766 26.489L10.586 26.277"/>
     <path stroke-width="0.2" stroke-linejoin="round" d="M8.287 31.257C8.301 31.179 8.419 31.283 8.345 31.306C8.314 31.306 8.291 31.288 8.287 31.257z"/>
     <path stroke-width="0.2" stroke-linejoin="round" d="M8.333 31.452C8.426 31.478 8.532 31.429 8.532 31.323C8.532 31.3 8.525 31.274 8.518 31.251C8.477 31.149 8.378 31.088 8.272 31.077C8.237 31.079 8.207 31.082 8.178 31.103C8.118 31.144 8.111 31.228 8.141 31.291"/>
     <path stroke-width="0.2" stroke-linejoin="round" d="M8.114 31.12L8.115 31.144L8.128 31.248"/>
     <path stroke-width="0.2" stroke-linejoin="round" d="M8.417 31.457C8.483 31.449 8.553 31.452 8.609 31.414C8.708 31.349 8.705 31.219 8.657 31.123C8.595 30.998 8.465 30.914 8.327 30.905L8.285 30.907"/>
     <path stroke-width="0.2" stroke-linejoin="round" d="M8.316 30.87C8.461 30.849 8.615 30.958 8.682 31.082C8.72 31.149 8.737 31.236 8.704 31.31C8.686 31.35 8.653 31.381 8.619 31.405"/>
     <path stroke-width="0.2" stroke-linejoin="round" d="M8.348 30.83C8.503 30.792 8.673 30.879 8.73 31.03C8.75 31.08 8.763 31.147 8.739 31.198C8.698 31.277 8.609 31.289 8.532 31.323"/>
     <path stroke-width="0.2" stroke-linejoin="round" d="M8.744 31.131C8.747 31.096 8.742 31.111 8.788 31.077C8.836 31.042 8.888 31.021 8.943 30.998"/>
     <path stroke-width="0.2" stroke-linejoin="round" d="M8.874 31.161C8.907 31.125 8.923 31.096 8.939 31.047"/>
     <path stroke-width="0.2" stroke-linejoin="round" d="M8.682 31.347C8.718 31.289 8.742 31.237 8.749 31.169"/>
     <path stroke-width="0.2" stroke-linejoin="round" d="M8.483 30.606C8.441 30.614 8.407 30.625 8.371 30.649"/>
     <path stroke-width="0.2" stroke-linejoin="round" d="M8.743 30.376L8.38 30.468L8.358 30.495"/>
     <path stroke-width="0.2" stroke-linejoin="round" d="M12.08 25.074L12.08 25.274L12.08 63.615C12.08 63.726 12.106 63.853 12.035 63.948L11.909 64.103L10.891 65.362L10.766 65.518L10.727 65.558C10.618 65.652 10.471 65.676 10.332 65.685C10.18 65.68 10.055 65.646 9.909 65.605L7.577 64.977L7.383 64.926C7.269 64.893 7.099 64.816 7.094 64.674L7.094 64.474L7.094 33.186L7.094 32.987"/>
     <path stroke-width="0.2" stroke-linejoin="round" d="M8.917 30.219C9.122 30.239 9.319 30.242 9.516 30.172C9.603 30.141 9.686 30.1 9.759 30.044C9.832 29.989 9.894 29.925 9.945 29.852C10.147 29.562 10.134 29.182 10.012 28.864C9.807 28.318 9.303 27.884 8.743 27.733C8.598 27.693 8.563 27.696 8.416 27.681C8.26 27.682 8.118 27.69 7.969 27.742C7.708 27.835 7.503 28.039 7.423 28.307C7.376 28.466 7.383 28.629 7.383 28.792L7.383 29.475L7.383 29.675"/>
     <path stroke-width="0.2" stroke-linejoin="round" d="M7.383 26.182L7.383 26.382L7.383 28.391C7.383 28.614 7.381 28.844 7.472 29.053"/>
     <path stroke-width="0.2" stroke-linejoin="round" d="M8.894 30.222C9.019 30.202 9.137 30.158 9.236 30.077C9.31 30.016 9.352 29.951 9.414 29.875C9.483 29.789 9.525 29.75 9.568 29.658C9.663 29.457 9.646 29.224 9.568 29.021C9.417 28.62 9.048 28.3 8.637 28.19C8.531 28.161 8.506 28.164 8.399 28.152C8.25 28.153 8.109 28.167 7.976 28.239C7.865 28.297 7.799 28.378 7.721 28.474C7.692 28.51 7.597 28.62 7.567 28.67C7.488 28.798 7.474 28.934 7.472 29.079"/>
     <path stroke-width="0.2" stroke-linejoin="round" d="M9.308 30.006C9.362 29.932 9.381 29.917 9.416 29.832C9.554 29.486 9.387 29.094 9.156 28.832C9.095 28.763 9.025 28.699 8.952 28.643C8.88 28.588 8.798 28.536 8.718 28.495C8.557 28.414 8.396 28.378 8.22 28.361C8.066 28.364 7.921 28.381 7.785 28.46C7.705 28.506 7.692 28.525 7.626 28.589"/>
     <path stroke-width="0.2" stroke-linejoin="round" d="M9.362 29.94L9.371 29.936L9.461 29.879C9.746 29.666 9.775 29.283 9.657 28.969C9.496 28.548 9.108 28.213 8.675 28.096C8.563 28.065 8.538 28.068 8.423 28.056C8.304 28.056 8.194 28.062 8.079 28.103C7.878 28.173 7.698 28.343 7.653 28.557"/>
     <path stroke-width="0.2" stroke-linejoin="round" d="M9.724 29.324C9.689 29.326 9.66 29.332 9.634 29.356"/>
    </g>
   </g>
  </g>
  <g id="EH224000128" itedo:apstype="grobject">
   <desc>EH224000128</desc>
   <line stroke-width="0.2" stroke-linejoin="round" x1="14.961" y1="47.682" x2="14.826" y2="47.646"/>
   <line stroke-width="0.2" stroke-linejoin="round" x1="14.967" y1="47.792" x2="14.865" y2="47.765"/>
   <line stroke-width="0.2" stroke-linejoin="round" x1="15.41" y1="46.682" x2="15.271" y2="46.645"/>
   <line stroke-width="0.2" stroke-linejoin="round" x1="15.192" y1="46.776" x2="15.06" y2="46.74"/>
   <line stroke-width="0.2" stroke-linejoin="round" x1="17.811" y1="48.551" x2="17.925" y2="48.74"/>
   <line stroke-width="0.2" stroke-linejoin="round" x1="17.434" y1="48.978" x2="17.626" y2="49.03"/>
   <line stroke-width="0.2" stroke-linejoin="round" x1="18.036" y1="47.006" x2="17.289" y2="46.805"/>
   <line stroke-width="0.2" stroke-linejoin="round" x1="17.507" y1="46.713" x2="18.147" y2="46.887"/>
   <line stroke-width="0.2" stroke-linejoin="round" x1="16.922" y1="47.32" x2="17.667" y2="47.521"/>
   <line stroke-width="0.2" stroke-linejoin="round" x1="16.934" y1="47.515" x2="17.574" y2="47.688"/>
   <line stroke-width="0.2" stroke-linejoin="round" x1="16.76" y1="48.898" x2="16.75" y2="48.798"/>
   <line stroke-width="0.2" stroke-linejoin="round" x1="16.762" y1="48.564" x2="16.765" y2="48.679"/>
   <line stroke-width="0.2" stroke-linejoin="round" x1="16.75" y1="48.798" x2="16.76" y2="48.905"/>
   <line stroke-width="0.2" stroke-linejoin="round" x1="16.754" y1="48.682" x2="16.76" y2="48.795"/>
   <line stroke-width="0.2" stroke-linejoin="round" x1="16.754" y1="48.682" x2="16.76" y2="48.79"/>
   <line stroke-width="0.2" stroke-linejoin="round" x1="16.765" y1="48.682" x2="16.762" y2="48.564"/>
   <line stroke-width="0.2" stroke-linejoin="round" x1="16.628" y1="48.527" x2="16.675" y2="48.555"/>
   <path stroke-width="0.2" stroke-linejoin="round" d="M15.609 46.517L15.503 46.487L15.474 46.485C15.343 46.512 15.26 46.649 15.201 46.756C15.053 47.029 14.964 47.356 14.961 47.665C14.96 47.758 14.964 47.856 15.003 47.942C15.016 47.973 15.037 48.006 15.067 48.024L15.093 48.034L15.191 48.06"/>
   <path stroke-width="0.2" stroke-linejoin="round" d="M15.416 46.674L15.484 46.591"/>
   <path stroke-width="0.2" stroke-linejoin="round" d="M17.532 47.954C17.513 48.043 17.498 48.134 17.492 48.226C17.486 48.326 17.484 48.439 17.525 48.533C17.533 48.552 17.545 48.573 17.561 48.588C17.608 48.637 17.672 48.616 17.719 48.579C17.742 48.561 17.763 48.54 17.782 48.518C17.804 48.49 17.826 48.46 17.844 48.429C17.989 48.198 18.068 47.908 18.085 47.637L18.088 47.573L18.086 47.515C18.082 47.418 18.067 47.256 17.946 47.246C17.864 47.261 17.809 47.322 17.763 47.387C17.676 47.508 17.621 47.649 17.576 47.789"/>
   <path stroke-width="0.2" stroke-linejoin="round" d="M17.772 48.539L17.804 48.497L17.809 48.487C17.833 48.43 17.839 48.279 17.844 48.216C17.855 48.034 17.846 47.85 17.818 47.67L17.795 47.529C17.788 47.49 17.78 47.399 17.748 47.353"/>
   <path stroke-width="0.2" stroke-linejoin="round" d="M17.804 47.253C17.829 47.231 17.838 47.22 17.867 47.204L17.899 47.191C18.025 47.149 18.068 47.323 18.082 47.414L18.088 47.466L18.091 47.524C18.096 47.86 17.992 48.218 17.804 48.497"/>
   <path stroke-width="0.2" stroke-linejoin="round" d="M17.765 48.548C17.716 48.601 17.667 48.649 17.594 48.664C17.515 48.658 17.487 48.6 17.463 48.533"/>
   <path stroke-width="0.2" stroke-linejoin="round" d="M18.121 47.456C18.128 47.792 18.042 48.143 17.881 48.439C17.821 48.548 17.737 48.686 17.606 48.712L17.591 48.71"/>
   <path stroke-width="0.2" stroke-linejoin="round" d="M17.789 48.517L17.811 48.551"/>
   <path stroke-width="0.2" stroke-linejoin="round" d="M17.024 46.826C16.693 46.756 16.35 46.649 16.033 46.564L15.839 46.512L15.808 46.512C15.692 46.512 15.606 46.49 15.519 46.561L15.484 46.591"/>
   <path stroke-width="0.2" stroke-linejoin="round" d="M15.416 46.674C15.221 46.965 15.114 47.331 15.102 47.679C15.099 47.774 15.102 47.875 15.132 47.966C15.146 48 15.163 48.036 15.191 48.06L15.215 48.078L15.381 48.177L15.41 48.186L15.603 48.238L16.332 48.435L16.525 48.487"/>
   <path stroke-width="0.2" stroke-linejoin="round" d="M16.629 48.529C16.567 48.5 16.49 48.493 16.448 48.435C16.371 48.331 16.371 48.173 16.376 48.051C16.385 47.774 16.457 47.491 16.568 47.237C16.623 47.115 16.689 46.99 16.785 46.893C16.832 46.845 16.885 46.811 16.954 46.811"/>
   <path stroke-width="0.2" stroke-linejoin="round" d="M17.019 46.826C17.114 46.835 17.07 46.835 17.15 46.832"/>
   <path stroke-width="0.2" stroke-linejoin="round" d="M17.262 46.814C17.332 46.789 17.405 46.764 17.474 46.731C17.621 46.659 17.759 46.557 17.862 46.429L17.911 46.365L17.951 46.298C17.98 46.246 18.027 46.076 18.129 46.103C18.143 46.107 18.152 46.115 18.161 46.125L18.19 46.159L18.198 46.173"/>
   <path stroke-width="0.2" stroke-linejoin="round" d="M18.161 46.125C18.182 46.161 18.21 46.188 18.231 46.226L18.318 46.406L18.347 46.463C18.393 46.56 18.451 46.658 18.481 46.762C18.512 46.869 18.522 46.981 18.527 47.091L18.525 47.292L18.518 47.399L18.423 47.575C18.364 47.686 18.312 47.786 18.265 47.899C18.251 47.932 18.236 47.962 18.231 47.996C18.205 48.125 18.217 48.262 18.224 48.39L18.231 48.576C18.231 48.588 18.155 48.752 18.149 48.764C18.111 48.845 18.071 48.938 18.016 49.011L17.975 49.037C17.943 49.06 17.913 49.085 17.884 49.112"/>
   <path stroke-width="0.2" stroke-linejoin="round" d="M17.14 49.137C17.175 49.219 17.196 49.305 17.201 49.395C17.204 49.45 17.178 49.636 17.295 49.631L17.321 49.625L17.486 49.512C17.583 49.448 17.689 49.39 17.777 49.311C17.795 49.295 17.858 49.235 17.87 49.216L17.87 49.194L17.876 49.145C17.888 49.085 17.908 49.003 17.96 48.962C17.998 48.93 18.013 48.979 18.016 49.011"/>
   <path stroke-width="0.2" stroke-linejoin="round" d="M17.554 48.889C17.58 48.896 17.585 48.917 17.606 48.93C17.621 48.939 17.649 48.944 17.667 48.942C17.778 48.936 17.867 48.823 17.925 48.74C18.071 48.539 18.155 48.301 18.225 48.066"/>
   <path stroke-width="0.2" stroke-linejoin="round" d="M18.338 46.529L18.245 46.706L18.242 46.71C18.202 46.783 18.155 46.893 18.097 46.963C18.062 47.005 18.004 47.021 17.963 47.057C17.902 47.109 17.853 47.176 17.811 47.243C17.64 47.512 17.544 47.837 17.492 48.148C17.469 48.286 17.457 48.429 17.464 48.57C17.471 48.683 17.489 48.795 17.556 48.89"/>
   <path stroke-width="0.2" stroke-linejoin="round" d="M17.606 48.93C17.64 49.017 17.631 49.13 17.635 49.215L17.643 49.401"/>
   <path stroke-width="0.2" stroke-linejoin="round" d="M17.338 46.786C17.17 46.85 17.068 47.018 16.99 47.171C16.957 47.237 16.911 47.311 16.905 47.387C16.902 47.451 16.934 47.502 16.949 47.563C16.96 47.606 16.96 47.652 16.945 47.697C16.929 47.743 16.899 47.781 16.865 47.816L16.78 47.896L16.775 47.902L16.772 47.908L16.748 48.027C16.716 48.191 16.692 48.356 16.678 48.524C16.664 48.673 16.661 48.823 16.67 48.973L16.678 49.072C16.678 49.085 16.673 49.151 16.699 49.17C16.753 49.21 16.87 49.174 16.911 49.168L17.166 49.134L17.291 49.115L17.495 48.921C17.515 48.904 17.536 48.889 17.564 48.89"/>
   <path stroke-width="0.2" stroke-linejoin="round" d="M17.143 46.834C17.234 46.823 17.195 46.831 17.265 46.813"/>
   <path stroke-width="0.2" stroke-linejoin="round" d="M18.079 46.982C18.109 46.978 18.12 46.972 18.149 46.978C18.236 46.997 18.274 47.1 18.292 47.176C18.352 47.411 18.31 47.665 18.265 47.899"/>
   <path stroke-width="0.2" stroke-linejoin="round" d="M15.416 46.674L15.595 46.682L15.788 46.734L16.518 46.93C16.67 46.972 16.821 47.024 16.981 47.009C17.038 47.005 17.048 47 17.102 46.985"/>
   <path stroke-width="0.2" stroke-linejoin="round" d="M15.381 48.177C15.253 48.091 15.256 47.889 15.26 47.752C15.272 47.426 15.364 47.085 15.522 46.798C15.586 46.683 15.672 46.545 15.808 46.512"/>
   <path stroke-width="0.2" stroke-linejoin="round" d="M17.291 49.115C17.231 48.823 17.251 48.523 17.3 48.228L17.346 47.994L17.375 47.877L17.474 47.783C17.542 47.716 17.596 47.673 17.641 47.594"/>
   <path stroke-width="0.2" stroke-linejoin="round" d="M16.772 47.908C16.771 47.948 16.841 47.951 16.867 47.948C17.036 47.926 17.205 47.901 17.375 47.877"/>
   <path stroke-width="0.2" stroke-linejoin="round" d="M16.783 49.186C16.731 48.771 16.783 48.356 16.867 47.948"/>
   <path stroke-width="0.2" stroke-linejoin="round" d="M18.167 46.133C18.21 46.231 18.254 46.331 18.297 46.43L18.338 46.529L18.373 46.558C18.405 46.588 18.411 46.606 18.434 46.643"/>
   <path stroke-width="0.2" stroke-linejoin="round" d="M17.82 47.229C17.841 47.206 17.867 47.185 17.894 47.17L17.928 47.155C18.065 47.109 18.106 47.298 18.117 47.393L18.121 47.456"/>
   <path stroke-width="0.2" stroke-linejoin="round" d="M17.464 48.557C17.475 48.606 17.495 48.658 17.536 48.689"/>
  </g>
  <g id="EH224000128_2" itedo:apstype="grobject">
   <desc>EH224000128</desc>
   <line stroke-width="0.2" stroke-linejoin="round" x1="40.445" y1="15.859" x2="41.326" y2="16.099"/>
   <line stroke-width="0.2" stroke-linejoin="round" x1="35.468" y1="12.91" x2="35.478" y2="12.942"/>
   <line stroke-width="0.2" stroke-linejoin="round" x1="35.462" y1="12.907" x2="35.49" y2="12.965"/>
   <line stroke-width="0.2" stroke-linejoin="round" x1="35.515" y1="13.003" x2="35.482" y2="12.954"/>
   <line stroke-width="0.2" stroke-linejoin="round" x1="34.755" y1="13.622" x2="34.115" y2="13.449"/>
   <line stroke-width="0.2" stroke-linejoin="round" x1="34.97" y1="13.489" x2="34.223" y2="13.288"/>
   <line stroke-width="0.2" stroke-linejoin="round" x1="35.338" y1="12.974" x2="34.591" y2="12.772"/>
   <line stroke-width="0.2" stroke-linejoin="round" x1="35.329" y1="12.82" x2="34.689" y2="12.649"/>
   <line stroke-width="0.2" stroke-linejoin="round" x1="35.478" y1="12.935" x2="35.481" y2="12.945"/>
   <line stroke-width="0.2" stroke-linejoin="round" x1="35.478" y1="12.935" x2="35.479" y2="12.945"/>
   <line stroke-width="0.2" stroke-linejoin="round" x1="35.543" y1="13.038" x2="35.5" y2="12.986"/>
   <line stroke-width="0.2" stroke-linejoin="round" x1="35.539" y1="13.035" x2="35.591" y2="13.083"/>
   <line stroke-width="0.2" stroke-linejoin="round" x1="34.81" y1="14.964" x2="34.539" y2="14.891"/>
   <line stroke-width="0.2" stroke-linejoin="round" x1="35" y1="14.888" x2="35.048" y2="14.871"/>
   <line stroke-width="0.2" stroke-linejoin="round" x1="35.049" y1="14.869" x2="35.03" y2="14.875"/>
   <line stroke-width="0.2" stroke-linejoin="round" x1="34.936" y1="14.929" x2="34.898" y2="14.962"/>
   <line stroke-width="0.2" stroke-linejoin="round" x1="34.948" y1="14.919" x2="34.898" y2="14.962"/>
   <line stroke-width="0.2" stroke-linejoin="round" x1="34.95" y1="14.919" x2="34.926" y2="14.942"/>
   <line stroke-width="0.2" stroke-linejoin="round" x1="34.948" y1="14.919" x2="34.926" y2="14.942"/>
   <line stroke-width="0.2" stroke-linejoin="round" x1="34.941" y1="14.925" x2="34.969" y2="14.904"/>
   <line stroke-width="0.2" stroke-linejoin="round" x1="34.936" y1="14.922" x2="34.97" y2="14.903"/>
   <line stroke-width="0.2" stroke-linejoin="round" x1="34.936" y1="14.922" x2="35.003" y2="14.887"/>
   <path stroke-width="0.2" stroke-linejoin="round" d="M41.408 16.158C41.347 16.138 41.302 16.086 41.299 16.022C41.295 15.941 41.359 15.884 41.436 15.9"/>
   <path stroke-width="0.2" stroke-linejoin="round" d="M41.445 15.903C41.545 15.933 41.637 16.102 41.506 16.152C41.485 16.161 41.465 16.164 41.442 16.164L41.414 16.16"/>
   <path stroke-width="0.2" stroke-linejoin="round" d="M41.573 16.065C41.537 16.094 41.5 16.106 41.454 16.109C41.393 16.109 41.313 16.094 41.299 16.022"/>
   <path stroke-width="0.2" stroke-linejoin="round" d="M40.445 15.961L40.637 16.013L41.787 16.323L41.981 16.375L42.003 16.379L42.027 16.378L42.173 16.361L42.317 16.346C42.353 16.341 42.387 16.306 42.409 16.28C42.472 16.207 42.512 16.115 42.545 16.027C42.594 15.893 42.625 15.746 42.624 15.603C42.622 15.547 42.618 15.48 42.587 15.432L42.572 15.413L42.451 15.323L42.329 15.234L42.308 15.221L42.115 15.169L40.868 14.833L40.674 14.782"/>
   <path stroke-width="0.2" stroke-linejoin="round" d="M41.981 16.375C41.892 16.321 41.89 16.189 41.89 16.097C41.895 15.868 41.959 15.627 42.067 15.426C42.112 15.343 42.195 15.195 42.308 15.221"/>
   <path stroke-width="0.2" stroke-linejoin="round" d="M42.399 15.493L42.124 15.336L41.93 15.284L40.792 14.977L40.6 14.925"/>
   <path stroke-width="0.2" stroke-linejoin="round" d="M42.317 16.346L42.296 16.347C42.216 16.321 42.21 16.208 42.209 16.138C42.207 15.945 42.261 15.74 42.351 15.57L42.375 15.529C42.412 15.468 42.49 15.355 42.572 15.413"/>
   <path stroke-width="0.2" stroke-linejoin="round" d="M36.295 13.327L36.103 13.275L35.99 13.246L35.796 13.194L35.765 13.192C35.606 13.231 35.511 13.413 35.445 13.548C35.332 13.775 35.261 14.025 35.229 14.276C35.216 14.399 35.207 14.526 35.228 14.647"/>
   <path stroke-width="0.2" stroke-linejoin="round" d="M35.671 13.141C35.768 13.186 35.716 13.166 35.826 13.202"/>
   <path stroke-width="0.2" stroke-linejoin="round" d="M35.692 13.151C35.609 13.101 35.649 13.128 35.57 13.067"/>
   <path stroke-width="0.2" stroke-linejoin="round" d="M35.387 12.3C35.473 12.387 35.515 12.497 35.539 12.617C35.57 12.765 35.573 12.914 35.57 13.064"/>
   <path stroke-width="0.2" stroke-linejoin="round" d="M34.636 15.382C34.637 15.272 34.659 15.166 34.719 15.071L34.761 15.016C34.792 14.977 34.831 14.948 34.865 14.913C34.865 14.913 34.887 14.891 34.886 14.878C34.881 14.846 34.808 14.848 34.789 14.848C34.625 14.849 34.448 14.906 34.31 14.987C34.273 15.009 34.247 15.028 34.216 15.057C34.158 15.108 34.14 15.153 34.069 15.156C33.976 15.151 33.966 15.085 33.911 15.003L33.832 14.878C33.823 14.859 33.807 14.736 33.804 14.718C33.786 14.553 33.793 14.384 33.811 14.218C33.826 14.064 33.853 13.91 33.887 13.757L33.915 13.638L34.015 13.544C34.057 13.505 34.112 13.461 34.149 13.41C34.195 13.346 34.225 13.282 34.258 13.211C34.298 13.121 34.347 13.034 34.405 12.952C34.438 12.906 34.475 12.861 34.518 12.823C34.545 12.8 34.576 12.788 34.603 12.766C34.621 12.75 34.64 12.724 34.655 12.704C34.706 12.631 34.744 12.542 34.786 12.468L34.88 12.291L35.127 12.183L35.253 12.13C35.279 12.119 35.38 12.057 35.435 12.071C35.465 12.08 35.484 12.108 35.499 12.134C35.536 12.194 35.567 12.255 35.588 12.323C35.636 12.47 35.652 12.625 35.656 12.778C35.658 12.829 35.668 12.955 35.654 13.005L35.649 13.016L35.606 13.096"/>
   <path stroke-width="0.2" stroke-linejoin="round" d="M35.463 12.087C35.509 12.15 35.398 12.278 35.387 12.3C35.35 12.368 35.325 12.439 35.311 12.516C35.298 12.592 35.298 12.669 35.311 12.743C35.319 12.788 35.332 12.83 35.344 12.874C35.35 12.897 35.359 12.923 35.356 12.948C35.353 12.975 35.323 12.98 35.302 12.994L35.265 13.023C35.222 13.061 35.185 13.106 35.151 13.153C35.094 13.234 35.045 13.323 35.003 13.413C34.981 13.461 34.968 13.512 34.926 13.548C34.854 13.611 34.758 13.619 34.67 13.641C34.594 13.66 34.521 13.686 34.451 13.718C34.396 13.744 34.345 13.776 34.301 13.817C34.243 13.869 34.225 13.913 34.154 13.916C34.061 13.913 34.051 13.846 33.996 13.763L33.915 13.638"/>
   <path stroke-width="0.2" stroke-linejoin="round" d="M34.082 13.891C33.997 14.3 33.945 14.714 33.996 15.13"/>
   <path stroke-width="0.2" stroke-linejoin="round" d="M34.13 15.137C34.076 14.721 34.128 14.307 34.215 13.899"/>
   <path stroke-width="0.2" stroke-linejoin="round" d="M34.301 13.817C34.209 14.224 34.146 14.643 34.216 15.057"/>
   <path stroke-width="0.2" stroke-linejoin="round" d="M34.509 15.539C34.429 15.448 34.348 15.355 34.27 15.262C34.167 15.144 34.185 15.207 34.18 15.09"/>
   <path stroke-width="0.2" stroke-linejoin="round" d="M35.151 13.153C35.232 13.217 35.317 13.274 35.411 13.314C35.518 13.362 35.634 13.387 35.746 13.416L36.139 13.522"/>
   <path stroke-width="0.2" stroke-linejoin="round" d="M35.469 12.147C35.661 12.381 35.655 12.727 35.649 13.016"/>
   <path stroke-width="0.2" stroke-linejoin="round" d="M34.869 15.092C34.884 15.028 34.923 14.962 34.96 14.91"/>
   <path stroke-width="0.2" stroke-linejoin="round" d="M35.017 14.882L35.012 14.917"/>
  </g>
  <g id="EH224000128_1" itedo:apstype="grobject">
   <desc>EH224000128</desc>
   <line stroke-width="0.2" stroke-linejoin="round" x1="49.539" y1="4.903" x2="49.332" y2="4.849"/>
   <line stroke-width="0.2" stroke-linejoin="round" x1="49.533" y1="4.794" x2="49.334" y2="4.74"/>
   <line stroke-width="0.2" stroke-linejoin="round" x1="49.982" y1="3.794" x2="49.843" y2="3.757"/>
   <line stroke-width="0.2" stroke-linejoin="round" x1="49.764" y1="3.887" x2="49.665" y2="3.86"/>
   <line stroke-width="0.2" stroke-linejoin="round" x1="49.774" y1="3.726" x2="49.85" y2="3.746"/>
   <line stroke-width="0.2" stroke-linejoin="round" x1="52.383" y1="5.663" x2="52.497" y2="5.852"/>
   <line stroke-width="0.2" stroke-linejoin="round" x1="52.006" y1="6.089" x2="52.198" y2="6.141"/>
   <line stroke-width="0.2" stroke-linejoin="round" x1="52.609" y1="4.118" x2="51.862" y2="3.916"/>
   <line stroke-width="0.2" stroke-linejoin="round" x1="52.079" y1="3.825" x2="52.719" y2="3.998"/>
   <line stroke-width="0.2" stroke-linejoin="round" x1="51.493" y1="4.432" x2="52.24" y2="4.633"/>
   <line stroke-width="0.2" stroke-linejoin="round" x1="51.505" y1="4.626" x2="52.146" y2="4.799"/>
   <line stroke-width="0.2" stroke-linejoin="round" x1="51.332" y1="6.009" x2="51.32" y2="5.908"/>
   <line stroke-width="0.2" stroke-linejoin="round" x1="51.337" y1="5.793" x2="51.334" y2="5.674"/>
   <line stroke-width="0.2" stroke-linejoin="round" x1="51.337" y1="5.791" x2="51.334" y2="5.674"/>
   <line stroke-width="0.2" stroke-linejoin="round" x1="51.326" y1="5.794" x2="51.332" y2="5.908"/>
   <line stroke-width="0.2" stroke-linejoin="round" x1="51.326" y1="5.794" x2="51.332" y2="5.902"/>
   <line stroke-width="0.2" stroke-linejoin="round" x1="51.332" y1="6.017" x2="51.32" y2="5.908"/>
   <line stroke-width="0.2" stroke-linejoin="round" x1="51.2" y1="5.639" x2="51.246" y2="5.668"/>
   <path stroke-width="0.2" stroke-linejoin="round" d="M45.073 2.459L44.914 2.418L44.892 2.412L44.866 2.415L44.722 2.431L44.578 2.446L44.555 2.454C44.503 2.477 44.466 2.532 44.436 2.58C44.362 2.701 44.317 2.843 44.29 2.984C44.273 3.076 44.262 3.177 44.277 3.272C44.283 3.309 44.295 3.359 44.328 3.383"/>
   <path stroke-width="0.2" stroke-linejoin="round" d="M44.963 2.594L44.729 2.532L44.46 2.543"/>
   <path stroke-width="0.2" stroke-linejoin="round" d="M44.506 3.161C44.533 2.975 44.584 2.789 44.673 2.621C44.719 2.54 44.774 2.448 44.866 2.415"/>
   <path stroke-width="0.2" stroke-linejoin="round" d="M49.762 5.171L49.665 5.145L49.639 5.136C49.594 5.11 49.573 5.057 49.558 5.011C49.53 4.913 49.529 4.807 49.536 4.705C49.552 4.418 49.634 4.121 49.773 3.867C49.819 3.786 49.872 3.7 49.948 3.641C49.976 3.618 50.009 3.6 50.046 3.597L50.076 3.6L50.179 3.628"/>
   <path stroke-width="0.2" stroke-linejoin="round" d="M49.987 3.786L50.057 3.702"/>
   <path stroke-width="0.2" stroke-linejoin="round" d="M52.103 5.065C52.085 5.155 52.069 5.246 52.064 5.338C52.057 5.437 52.057 5.549 52.097 5.644C52.121 5.7 52.167 5.743 52.231 5.724C52.253 5.718 52.273 5.705 52.29 5.692C52.314 5.674 52.335 5.652 52.353 5.629C52.377 5.602 52.398 5.572 52.417 5.541C52.561 5.309 52.64 5.019 52.656 4.748L52.659 4.686L52.658 4.626C52.654 4.53 52.639 4.368 52.517 4.357C52.436 4.371 52.381 4.432 52.335 4.498C52.249 4.618 52.192 4.759 52.148 4.9"/>
   <path stroke-width="0.2" stroke-linejoin="round" d="M52.344 5.65L52.377 5.609L52.381 5.599C52.405 5.541 52.411 5.389 52.415 5.328C52.426 5.145 52.417 4.961 52.39 4.78L52.366 4.639C52.359 4.602 52.351 4.512 52.32 4.464"/>
   <path stroke-width="0.2" stroke-linejoin="round" d="M52.377 4.363C52.402 4.343 52.411 4.331 52.439 4.315L52.47 4.301C52.597 4.261 52.64 4.434 52.654 4.525L52.659 4.578L52.662 4.636C52.667 4.971 52.563 5.33 52.377 5.609"/>
   <path stroke-width="0.2" stroke-linejoin="round" d="M52.337 5.658C52.287 5.713 52.238 5.761 52.165 5.775C52.088 5.769 52.06 5.713 52.036 5.644"/>
   <path stroke-width="0.2" stroke-linejoin="round" d="M52.694 4.567C52.698 4.903 52.615 5.254 52.453 5.551C52.392 5.66 52.308 5.796 52.177 5.823L52.162 5.822"/>
   <path stroke-width="0.2" stroke-linejoin="round" d="M52.362 5.628L52.383 5.663"/>
   <path stroke-width="0.2" stroke-linejoin="round" d="M51.595 3.939C51.265 3.867 50.921 3.761 50.604 3.674L50.411 3.623L50.381 3.623C50.265 3.625 50.179 3.601 50.091 3.672L50.057 3.702"/>
   <path stroke-width="0.2" stroke-linejoin="round" d="M49.987 3.786C49.793 4.076 49.686 4.442 49.673 4.79C49.67 4.884 49.673 4.985 49.704 5.076C49.716 5.112 49.734 5.147 49.762 5.173L49.787 5.189L49.954 5.288L49.982 5.298L50.176 5.349L50.905 5.546L51.097 5.599"/>
   <path stroke-width="0.2" stroke-linejoin="round" d="M51.201 5.639C51.139 5.612 51.061 5.604 51.018 5.546C50.942 5.442 50.944 5.285 50.948 5.163C50.957 4.886 51.029 4.602 51.14 4.349C51.195 4.227 51.261 4.1 51.356 4.006C51.405 3.956 51.457 3.922 51.527 3.923"/>
   <path stroke-width="0.2" stroke-linejoin="round" d="M51.591 3.937C51.686 3.947 51.642 3.945 51.722 3.944"/>
   <path stroke-width="0.2" stroke-linejoin="round" d="M51.832 3.926C52.063 3.842 52.276 3.735 52.435 3.541L52.482 3.476L52.524 3.408C52.551 3.359 52.597 3.189 52.701 3.214C52.715 3.218 52.725 3.225 52.734 3.237L52.762 3.272L52.77 3.285"/>
   <path stroke-width="0.2" stroke-linejoin="round" d="M52.734 3.237C52.755 3.273 52.783 3.299 52.802 3.338L52.89 3.517L52.918 3.576C52.965 3.671 53.023 3.77 53.052 3.875C53.084 3.98 53.094 4.092 53.098 4.203L53.097 4.403L53.09 4.509L52.996 4.687C52.936 4.798 52.884 4.897 52.837 5.011C52.823 5.043 52.808 5.073 52.802 5.108C52.777 5.237 52.789 5.373 52.795 5.503L52.804 5.687C52.802 5.7 52.728 5.862 52.722 5.875C52.682 5.956 52.643 6.049 52.588 6.121L52.546 6.149C52.515 6.171 52.484 6.197 52.456 6.224"/>
   <path stroke-width="0.2" stroke-linejoin="round" d="M51.713 6.248C51.746 6.331 51.767 6.416 51.773 6.506C51.777 6.562 51.75 6.746 51.866 6.743L51.893 6.735L52.058 6.625C52.155 6.559 52.261 6.501 52.348 6.424C52.366 6.408 52.429 6.346 52.442 6.328L52.442 6.304L52.448 6.256C52.459 6.195 52.481 6.113 52.531 6.073C52.57 6.041 52.585 6.091 52.588 6.121"/>
   <path stroke-width="0.2" stroke-linejoin="round" d="M52.127 6C52.152 6.006 52.158 6.03 52.177 6.041C52.194 6.051 52.222 6.054 52.24 6.054C52.35 6.046 52.439 5.934 52.497 5.852C52.642 5.65 52.728 5.413 52.796 5.176"/>
   <path stroke-width="0.2" stroke-linejoin="round" d="M52.911 3.641L52.817 3.817L52.814 3.822C52.774 3.895 52.728 4.003 52.668 4.075C52.634 4.117 52.576 4.133 52.534 4.168C52.475 4.221 52.426 4.286 52.383 4.355C52.213 4.623 52.115 4.948 52.064 5.259C52.042 5.397 52.029 5.54 52.036 5.681C52.042 5.794 52.061 5.907 52.128 6.001"/>
   <path stroke-width="0.2" stroke-linejoin="round" d="M52.177 6.041C52.21 6.128 52.203 6.24 52.206 6.326L52.215 6.512"/>
   <path stroke-width="0.2" stroke-linejoin="round" d="M51.911 3.898C51.741 3.96 51.64 4.129 51.563 4.283C51.527 4.351 51.485 4.421 51.478 4.498C51.472 4.562 51.506 4.615 51.521 4.674C51.533 4.721 51.527 4.762 51.517 4.807C51.506 4.854 51.469 4.894 51.438 4.926L51.351 5.008L51.347 5.014L51.344 5.019L51.32 5.137C51.287 5.302 51.264 5.469 51.25 5.636C51.237 5.785 51.231 5.935 51.24 6.084L51.249 6.182C51.25 6.197 51.246 6.262 51.271 6.283C51.325 6.322 51.442 6.285 51.484 6.28L51.737 6.245L51.862 6.227L52.067 6.033C52.085 6.014 52.107 6 52.134 6.001"/>
   <path stroke-width="0.2" stroke-linejoin="round" d="M51.716 3.944C51.807 3.934 51.767 3.942 51.837 3.924"/>
   <path stroke-width="0.2" stroke-linejoin="round" d="M52.651 4.094C52.68 4.089 52.692 4.083 52.72 4.091C52.807 4.11 52.847 4.211 52.865 4.288C52.923 4.522 52.883 4.778 52.837 5.011"/>
   <path stroke-width="0.2" stroke-linejoin="round" d="M49.987 3.786L50.167 3.794L50.359 3.846L51.088 4.043C51.243 4.083 51.393 4.136 51.554 4.121C51.609 4.115 51.619 4.11 51.673 4.097"/>
   <path stroke-width="0.2" stroke-linejoin="round" d="M49.954 5.288C49.826 5.203 49.828 5 49.832 4.862C49.844 4.536 49.936 4.195 50.094 3.91C50.158 3.794 50.243 3.656 50.381 3.623"/>
   <path stroke-width="0.2" stroke-linejoin="round" d="M51.862 6.227C51.804 5.934 51.823 5.634 51.871 5.341L51.917 5.107L51.947 4.988L52.045 4.894C52.115 4.828 52.167 4.783 52.213 4.705"/>
   <path stroke-width="0.2" stroke-linejoin="round" d="M51.344 5.019C51.344 5.059 51.412 5.062 51.439 5.059C51.609 5.036 51.777 5.012 51.947 4.988"/>
   <path stroke-width="0.2" stroke-linejoin="round" d="M51.354 6.298C51.304 5.881 51.356 5.468 51.439 5.059"/>
   <path stroke-width="0.2" stroke-linejoin="round" d="M52.737 3.245C52.783 3.343 52.826 3.443 52.868 3.543L52.911 3.641L52.945 3.669C52.976 3.701 52.984 3.718 53.006 3.754"/>
   <path stroke-width="0.2" stroke-linejoin="round" d="M52.392 4.341C52.414 4.317 52.439 4.296 52.466 4.28L52.5 4.266C52.636 4.222 52.679 4.41 52.689 4.504L52.694 4.567"/>
   <path stroke-width="0.2" stroke-linejoin="round" d="M52.036 5.669C52.048 5.718 52.067 5.769 52.109 5.801"/>
  </g>
  <g id="203468-KURBEL" itedo:apstype="grobject">
   <desc>203468-KURBEL</desc>
   <line stroke-width="0.2" stroke-linejoin="round" x1="7.987" y1="31.806" x2="7.738" y2="31.739"/>
   <line stroke-width="0.2" stroke-linejoin="round" x1="5.881" y1="30.518" x2="5.894" y2="30.528"/>
   <line stroke-width="0.2" stroke-linejoin="round" x1="7.75" y1="31.852" x2="7.907" y2="31.975"/>
   <line stroke-width="0.2" stroke-linejoin="round" x1="7.987" y1="31.275" x2="7.562" y2="31.161"/>
   <line stroke-width="0.2" stroke-linejoin="round" x1="7.615" y1="31.367" x2="7.743" y2="31.21"/>
   <line stroke-width="0.2" stroke-linejoin="round" x1="7.907" y1="31.064" x2="7.562" y2="31.149"/>
   <line stroke-width="0.2" stroke-linejoin="round" x1="7.347" y1="29.664" x2="5.86" y2="31.506"/>
   <path stroke-width="0.2" stroke-linejoin="round" d="M2.161 49.67C2.218 49.593 2.266 49.52 2.294 49.427C2.381 49.152 2.302 48.853 2.161 48.612C1.959 48.262 1.609 47.99 1.219 47.886C1.108 47.856 1 47.847 0.887 47.843C0.75 47.851 0.62 47.869 0.496 47.932C0.44 47.96 0.388 47.996 0.341 48.037C0.069 48.28 0.041 48.706 0.187 49.024C0.233 49.128 0.284 49.225 0.351 49.316C0.634 49.703 1.128 49.99 1.619 49.939C1.72 49.929 1.812 49.902 1.906 49.862C2.072 49.795 2.18 49.649 2.291 49.518L3.887 47.645L4.016 47.493L4.137 47.334L5.634 45.38C5.724 45.262 5.83 45.146 5.881 45.005C6.017 44.625 5.86 44.21 5.61 43.917C5.508 43.798 5.389 43.695 5.256 43.609C5.03 43.463 4.783 43.39 4.514 43.378C4.445 43.383 4.375 43.384 4.307 43.402C4.176 43.435 4.07 43.481 3.963 43.564C3.879 43.628 3.804 43.731 3.741 43.807L2.145 45.679L2.016 45.832L1.895 45.99L0.398 47.945L0.277 48.103"/>
   <path stroke-width="0.2" stroke-linejoin="round" d="M0.295 48.24C0.252 48.304 0.237 48.319 0.208 48.392C0.107 48.643 0.168 48.927 0.293 49.158C0.523 49.579 1.002 49.908 1.494 49.898C1.591 49.895 1.687 49.878 1.778 49.844C1.834 49.822 1.887 49.793 1.935 49.759C1.982 49.723 2.024 49.682 2.06 49.637C2.269 49.369 2.214 48.997 2.063 48.719C1.971 48.549 1.842 48.402 1.69 48.281C1.511 48.14 1.298 48.034 1.07 47.996C0.977 47.978 0.957 47.981 0.862 47.979C0.703 47.991 0.553 48.021 0.421 48.118C0.358 48.164 0.347 48.182 0.295 48.24z"/>
   <path stroke-width="0.2" stroke-linejoin="round" d="M1.177 49.857C1.179 49.874 1.179 49.89 1.193 49.902"/>
   <path stroke-width="0.2" stroke-linejoin="round" d="M1.177 48.018C1.183 47.896 1.268 47.825 1.343 47.728L2.892 45.758L3.016 45.6L3.144 45.447L4.686 43.591L4.812 43.436C4.812 43.436 4.828 43.421 4.839 43.423"/>
   <path stroke-width="0.2" stroke-linejoin="round" d="M3.871 43.654C3.937 43.585 4.003 43.527 4.089 43.482C4.277 43.389 4.496 43.375 4.7 43.411C5.136 43.488 5.533 43.781 5.756 44.161C5.897 44.404 5.974 44.704 5.889 44.978C5.86 45.07 5.812 45.143 5.756 45.22"/>
   <path stroke-width="0.2" stroke-linejoin="round" d="M2.016 45.832C2.088 45.759 2.157 45.697 2.249 45.649C2.447 45.549 2.681 45.536 2.897 45.573C3.359 45.655 3.781 45.966 4.016 46.369C4.166 46.625 4.248 46.945 4.157 47.235C4.126 47.334 4.076 47.411 4.016 47.493"/>
   <path stroke-width="0.2" stroke-linejoin="round" d="M5.362 32.326L5.362 32.527L5.362 42.414C5.362 42.533 5.365 42.652 5.352 42.771C5.325 43.033 5.251 43.304 5.123 43.533"/>
   <path stroke-width="0.2" stroke-linejoin="round" d="M5.761 44.13C5.982 43.676 6.131 43.189 6.192 42.686C6.214 42.485 6.214 42.286 6.214 42.085L6.214 32.201L6.214 32.002L6.208 31.96C6.184 31.867 6.089 31.777 6 31.746L5.86 31.71C5.698 31.666 5.769 31.675 5.649 31.667C5.554 31.667 5.461 31.673 5.368 31.698L5.304 31.716C5.161 31.766 4.969 31.893 5.024 32.073C5.033 32.101 5.048 32.128 5.065 32.152C5.086 32.179 5.112 32.204 5.139 32.223C5.349 32.383 5.674 32.393 5.916 32.313C6.03 32.274 6.158 32.204 6.203 32.084C6.216 32.048 6.213 32.039 6.214 32.002"/>
   <path stroke-width="0.2" stroke-linejoin="round" d="M6.214 32.965C6.248 32.948 6.28 32.92 6.304 32.893C6.456 32.71 6.362 32.432 6.214 32.277"/>
   <path stroke-width="0.2" stroke-linejoin="round" d="M6.214 32.795C6.269 32.795 6.32 32.777 6.371 32.756"/>
   <path stroke-width="0.2" stroke-linejoin="round" d="M5.016 32.031L5.016 32.231L5.016 42.118L5.016 42.317L5.024 42.359C5.054 42.46 5.147 42.529 5.238 42.57C5.445 42.667 5.703 42.673 5.919 42.6C6.033 42.561 6.163 42.49 6.203 42.368C6.216 42.332 6.214 42.323 6.214 42.284"/>
   <path stroke-width="0.2" stroke-linejoin="round" d="M4.774 43.408C4.921 43.045 5.003 42.667 5.017 42.276"/>
   <path stroke-width="0.2" stroke-linejoin="round" d="M7.987 31.275C7.94 31.132 7.894 30.943 7.719 30.917C7.694 30.919 7.686 30.917 7.661 30.926C7.541 30.972 7.552 31.138 7.575 31.239L7.599 31.324L7.633 31.403L7.674 31.501C7.7 31.565 7.719 31.631 7.732 31.699C7.751 31.792 7.756 31.89 7.746 31.984C7.735 32.106 7.694 32.213 7.633 32.316C7.591 32.384 7.512 32.47 7.474 32.518L6.955 33.159C6.915 33.21 6.828 33.326 6.767 33.383C6.615 33.524 6.424 33.573 6.222 33.591L6.214 33.591"/>
   <path stroke-width="0.2" stroke-linejoin="round" d="M6.83 33.316C6.886 33.235 6.932 33.161 6.961 33.067C7.043 32.787 6.963 32.484 6.819 32.24C6.61 31.888 6.256 31.612 5.86 31.506C5.748 31.475 5.639 31.466 5.524 31.46C5.384 31.469 5.253 31.487 5.128 31.55C5.07 31.579 5.017 31.614 4.971 31.655C4.924 31.696 4.883 31.743 4.847 31.795C4.674 32.061 4.708 32.405 4.835 32.683C4.884 32.79 4.947 32.884 5.016 32.978"/>
   <path stroke-width="0.2" stroke-linejoin="round" d="M4.905 31.722L5.03 31.565L5.522 30.954C5.591 30.87 5.658 30.783 5.732 30.704C5.788 30.643 5.846 30.586 5.899 30.524C5.911 30.507 5.958 30.463 5.95 30.437"/>
   <path stroke-width="0.2" stroke-linejoin="round" d="M5.841 30.588C5.863 30.547 5.884 30.509 5.913 30.472C5.921 30.46 5.936 30.44 5.95 30.437"/>
   <path stroke-width="0.2" stroke-linejoin="round" d="M7.987 31.275L8.231 30.974L8.358 30.818L8.371 30.675L8.375 30.533L8.326 30.432C8.289 30.365 8.247 30.303 8.201 30.242C7.988 29.966 7.685 29.754 7.347 29.664C7.243 29.635 7.139 29.625 7.03 29.618C6.897 29.625 6.772 29.638 6.65 29.693C6.469 29.771 6.365 29.911 6.243 30.062L6.038 30.315L5.913 30.472"/>
   <path stroke-width="0.2" stroke-linejoin="round" d="M8.006 31.254L8.182 31.301C8.289 31.33 8.353 31.301 8.375 31.39"/>
   <path stroke-width="0.2" stroke-linejoin="round" d="M7.673 32.244C7.727 32.185 7.785 32.128 7.839 32.066C7.963 31.92 8.08 31.766 8.201 31.617L8.326 31.463L8.375 31.39"/>
   <path stroke-width="0.2" stroke-linejoin="round" d="M7.865 32.034C7.899 31.989 7.927 31.946 7.953 31.894L7.987 31.806L8.114 31.65L8.358 31.349"/>
   <path stroke-width="0.2" stroke-linejoin="round" d="M7.647 31.268C7.681 31.254 7.71 31.233 7.737 31.208"/>
  </g>
  <g id="Z0750CARTOUTRIGGERV01ROHR_CART_" itedo:apstype="grobject">
   <desc>Z0750CARTOUTRIGGERV01ROHR_CART_</desc>
   <line stroke-width="0.2" stroke-linejoin="round" x1="18.102" y1="43.329" x2="18.196" y2="43.356"/>
   <line stroke-width="0.2" stroke-linejoin="round" x1="24.955" y1="34.781" x2="24.602" y2="34.686"/>
   <line stroke-width="0.2" stroke-linejoin="round" x1="24.955" y1="35.189" x2="24.594" y2="35.093"/>
   <line stroke-width="0.2" stroke-linejoin="round" x1="33.476" y1="23.698" x2="33.831" y2="23.794"/>
   <line stroke-width="0.2" stroke-linejoin="round" x1="33.831" y1="24.202" x2="33.469" y2="24.103"/>
   <line stroke-width="0.2" stroke-linejoin="round" x1="47.279" y1="0.117" x2="12.08" y2="43.695"/>
   <line stroke-width="0.2" stroke-linejoin="round" x1="12.08" y1="47.795" x2="49.997" y2="0.849"/>
   <line stroke-width="0.2" stroke-linejoin="round" x1="15.922" y1="48.325" x2="12.353" y2="52.743"/>
   <line stroke-width="0.2" stroke-linejoin="round" x1="15.848" y1="48.304" x2="12.414" y2="52.554"/>
   <line stroke-width="0.2" stroke-linejoin="round" x1="49.34" y1="4.926" x2="49.551" y2="4.984"/>
   <line stroke-width="0.2" stroke-linejoin="round" x1="42.472" y1="15.339" x2="50.451" y2="5.461"/>
   <line stroke-width="0.2" stroke-linejoin="round" x1="41.698" y1="16.298" x2="17.039" y2="46.829"/>
   <line stroke-width="0.2" stroke-linejoin="round" x1="41.773" y1="16.318" x2="17.126" y2="46.834"/>
   <path stroke-width="0.2" stroke-linejoin="round" d="M15.272 46.643C15.233 46.618 15.255 46.625 15.205 46.621C15.099 46.659 15.038 46.759 14.987 46.856C14.894 47.037 14.839 47.243 14.821 47.445L14.817 47.539L14.821 47.622C14.83 47.698 14.862 47.843 14.968 47.805"/>
   <path stroke-width="0.2" stroke-linejoin="round" d="M18.044 43.543C18.047 43.502 18.051 43.462 18.064 43.42C18.071 43.395 18.08 43.368 18.094 43.344C18.106 43.32 18.161 43.235 18.187 43.296L18.193 43.322L18.196 43.356C18.196 43.423 18.178 43.493 18.146 43.554C18.131 43.585 18.112 43.615 18.077 43.624C18.045 43.609 18.047 43.576 18.044 43.543z"/>
   <path stroke-width="0.2" stroke-linejoin="round" d="M24.385 35.487C24.385 35.609 24.384 35.776 24.385 35.896L24.39 35.984C24.397 36.067 24.435 36.238 24.557 36.189L24.602 36.162L24.647 36.121C24.684 36.082 24.716 36.034 24.742 35.988C24.862 35.779 24.932 35.529 24.951 35.287C24.96 35.186 24.955 35.082 24.955 34.981L24.955 34.781C24.954 34.707 24.951 34.63 24.92 34.561C24.908 34.533 24.89 34.503 24.862 34.49L24.826 34.481C24.716 34.503 24.652 34.597 24.6 34.689C24.46 34.93 24.397 35.212 24.385 35.487z"/>
   <path stroke-width="0.2" stroke-linejoin="round" d="M24.594 34.701C24.594 34.863 24.602 35.029 24.589 35.191C24.571 35.43 24.498 35.667 24.385 35.878"/>
   <path stroke-width="0.2" stroke-linejoin="round" d="M33.261 24.908C33.261 24.707 33.246 24.501 33.276 24.3C33.296 24.157 33.335 24.015 33.389 23.879L33.429 23.786L33.475 23.701L33.521 23.629C33.567 23.562 33.686 23.426 33.77 23.527C33.826 23.597 33.829 23.707 33.831 23.794L33.831 23.993C33.831 24.094 33.835 24.198 33.826 24.3C33.81 24.51 33.753 24.724 33.661 24.914C33.606 25.032 33.529 25.181 33.39 25.21L33.353 25.199C33.326 25.185 33.307 25.157 33.295 25.129C33.265 25.059 33.264 24.983 33.261 24.908z"/>
   <path stroke-width="0.2" stroke-linejoin="round" d="M33.261 24.89C33.372 24.678 33.445 24.443 33.465 24.202C33.476 24.039 33.469 23.875 33.469 23.713"/>
   <path stroke-width="0.2" stroke-linejoin="round" d="M41.015 14.872C41.011 14.806 41.008 14.739 40.981 14.676C40.968 14.65 40.951 14.621 40.921 14.605L40.884 14.596C40.747 14.625 40.67 14.774 40.615 14.891C40.523 15.082 40.466 15.294 40.448 15.506C40.441 15.608 40.445 15.711 40.445 15.813L40.445 16.013L40.448 16.1C40.457 16.182 40.494 16.355 40.616 16.306L40.661 16.278L40.707 16.236L40.755 16.178C40.792 16.126 40.798 16.111 40.823 16.062"/>
   <path stroke-width="0.2" stroke-linejoin="round" d="M49.567 5.036C49.537 5.068 49.509 5.083 49.468 5.097L49.429 5.091C49.357 5.065 49.341 4.958 49.335 4.894C49.31 4.655 49.375 4.397 49.468 4.177C49.533 4.025 49.625 3.911 49.731 3.781L49.987 3.463L50.112 3.307L50.173 3.117L50.39 2.427L50.451 2.237L50.451 2.036L50.451 1.579L50.451 1.379L50.442 1.304C50.408 1.114 50.253 0.952 50.076 0.877L49.997 0.849L49.804 0.797L47.472 0.169C47.347 0.136 47.249 0.104 47.122 0.1L47.051 0.111C46.914 0.146 46.844 0.267 46.761 0.371L12.207 43.152L12.08 43.308"/>
   <path stroke-width="0.2" stroke-linejoin="round" d="M50.451 1.379L50.325 1.535L12.541 48.317C12.372 48.524 12.414 48.405 12.414 48.671L12.414 52.354C12.414 52.505 12.442 52.682 12.308 52.789L12.253 52.823C12.198 52.85 12.176 52.848 12.117 52.857L12.08 52.856"/>
   <path stroke-width="0.2" stroke-linejoin="round" d="M12.08 47.99C12.217 48.06 12.333 48.179 12.387 48.325C12.41 48.39 12.407 48.405 12.414 48.472"/>
   <path stroke-width="0.2" stroke-linejoin="round" d="M50.451 5.424C50.451 5.463 50.451 5.49 50.442 5.532C50.42 5.639 50.329 5.724 50.264 5.804L42.655 15.226L42.529 15.381"/>
  </g>
 </g>
 <g>
  <g id="Z0750CARTOUTRIGGERV01KOMPLETT17_1" itedo:apstype="grobject">
   <desc>Z0750CARTOUTRIGGERV01KOMPLETT17</desc>
   <g id="Z0750CARTOUTRIGGERV01ROHR" itedo:apstype="grobject">
    <desc>Z0750CARTOUTRIGGERV01ROHR</desc>
    <g id="FASE1" itedo:apstype="grobject">
     <desc>FASE1</desc>
     <line stroke-width="0.2" stroke-linejoin="round" x1="52.859" y1="37.704" x2="52.496" y2="37.606"/>
     <line stroke-width="0.2" stroke-linejoin="round" x1="52.503" y1="37.2" x2="52.859" y2="37.295"/>
     <line stroke-width="0.2" stroke-linejoin="round" x1="68.563" y1="17.315" x2="68.918" y2="17.411"/>
     <line stroke-width="0.2" stroke-linejoin="round" x1="61.734" y1="26.714" x2="61.371" y2="26.617"/>
     <line stroke-width="0.2" stroke-linejoin="round" x1="61.378" y1="26.211" x2="61.734" y2="26.306"/>
     <line stroke-width="0.2" stroke-linejoin="round" x1="39.817" y1="50.77" x2="37.054" y2="54.189"/>
     <line stroke-width="0.2" stroke-linejoin="round" x1="39.954" y1="54.915" x2="39.865" y2="55.027"/>
     <line stroke-width="0.2" stroke-linejoin="round" x1="37.146" y1="54.295" x2="39.939" y2="50.838"/>
     <line stroke-width="0.2" stroke-linejoin="round" x1="37.567" y1="49.201" x2="37.146" y2="49.723"/>
     <line stroke-width="0.2" stroke-linejoin="round" x1="40.679" y1="54.732" x2="40.256" y2="55.256"/>
     <line stroke-width="0.2" stroke-linejoin="round" x1="40.317" y1="55.069" x2="40.74" y2="54.545"/>
     <line stroke-width="0.2" stroke-linejoin="round" x1="40.74" y1="50.463" x2="40.317" y2="50.985"/>
     <line stroke-width="0.2" stroke-linejoin="round" x1="39.865" y1="50.456" x2="40.286" y2="49.932"/>
     <line stroke-width="0.2" stroke-linejoin="round" x1="39.09" y1="47.317" x2="38.279" y2="48.32"/>
     <line stroke-width="0.2" stroke-linejoin="round" x1="75.18" y1="2.631" x2="39.799" y2="46.436"/>
     <line stroke-width="0.2" stroke-linejoin="round" x1="43.161" y1="47.466" x2="78.352" y2="3.892"/>
     <line stroke-width="0.2" stroke-linejoin="round" x1="77.9" y1="3.363" x2="42.518" y2="47.168"/>
     <line stroke-width="0.2" stroke-linejoin="round" x1="41.808" y1="48.048" x2="40.997" y2="49.052"/>
     <line stroke-width="0.2" stroke-linejoin="round" x1="38.698" y1="47.414" x2="38.021" y2="48.252"/>
     <line stroke-width="0.2" stroke-linejoin="round" x1="69.584" y1="18.832" x2="43.171" y2="51.533"/>
     <line stroke-width="0.2" stroke-linejoin="round" x1="69.659" y1="18.853" x2="43.171" y2="51.646"/>
     <line stroke-width="0.2" stroke-linejoin="round" x1="78.277" y1="8.07" x2="70.343" y2="17.893"/>
     <path stroke-width="0.2" stroke-linejoin="round" d="M52.496 37.215C52.496 37.377 52.505 37.542 52.491 37.704C52.472 37.945 52.401 38.179 52.287 38.393"/>
     <path stroke-width="0.2" stroke-linejoin="round" d="M52.304 38.572C52.317 38.612 52.322 38.642 52.35 38.676C52.432 38.777 52.551 38.64 52.597 38.575L52.645 38.503L52.689 38.417C52.78 38.225 52.838 38.012 52.854 37.801C52.868 37.636 52.86 37.462 52.859 37.295C52.857 37.222 52.853 37.143 52.823 37.075C52.811 37.046 52.793 37.018 52.765 37.003L52.728 36.993C52.646 37.011 52.595 37.064 52.548 37.131C52.493 37.207 52.451 37.293 52.417 37.381C52.35 37.548 52.307 37.725 52.292 37.904L52.287 38.002L52.287 38.201C52.287 38.329 52.284 38.447 52.304 38.572z"/>
     <path stroke-width="0.2" stroke-linejoin="round" d="M68.715 18.599C68.662 18.696 68.593 18.803 68.477 18.827L68.441 18.818C68.412 18.803 68.394 18.774 68.382 18.746C68.352 18.678 68.349 18.6 68.347 18.527L68.347 18.326C68.347 18.225 68.343 18.121 68.352 18.019C68.368 17.809 68.426 17.596 68.516 17.405L68.561 17.318L68.608 17.246C68.655 17.181 68.774 17.045 68.856 17.146L68.882 17.19L68.903 17.251C68.917 17.312 68.915 17.347 68.918 17.411"/>
     <path stroke-width="0.2" stroke-linejoin="round" d="M61.371 26.227C61.371 26.388 61.38 26.553 61.366 26.716C61.347 26.957 61.276 27.192 61.162 27.405"/>
     <path stroke-width="0.2" stroke-linejoin="round" d="M61.179 27.582C61.192 27.623 61.197 27.653 61.225 27.687C61.307 27.788 61.426 27.652 61.472 27.586L61.518 27.515L61.564 27.428C61.655 27.237 61.713 27.024 61.729 26.812C61.743 26.646 61.735 26.474 61.734 26.306C61.732 26.233 61.728 26.155 61.698 26.085C61.686 26.059 61.668 26.03 61.64 26.015L61.603 26.006C61.521 26.022 61.47 26.074 61.423 26.141C61.368 26.219 61.326 26.306 61.292 26.393C61.225 26.559 61.182 26.736 61.167 26.916L61.162 27.013L61.162 27.213C61.162 27.341 61.159 27.458 61.179 27.582z"/>
     <path stroke-width="0.2" stroke-linejoin="round" d="M39.865 55.027C39.883 55.03 39.892 55.033 39.909 55.03C40 55.006 39.954 54.783 39.954 54.771L39.954 51.088L39.954 50.889L39.951 50.865C39.921 50.759 39.737 50.747 39.67 50.731L37.338 50.103L37.146 50.049L37.121 50.046C37.005 50.058 37.054 50.24 37.054 50.307L37.054 53.99L37.054 54.189C37.054 54.204 37.06 54.222 37.067 54.234C37.113 54.32 37.274 54.331 37.338 54.347L39.67 54.975L39.865 55.027z"/>
     <path stroke-width="0.2" stroke-linejoin="round" d="M37.176 49.298L37.051 49.454L36.878 49.667C36.814 49.746 36.722 49.832 36.7 49.939L36.692 50.009L36.692 50.21L36.692 53.893L36.692 54.093L36.7 54.165C36.734 54.357 36.89 54.52 37.066 54.594L37.146 54.622L37.338 54.674L39.67 55.302C39.826 55.344 39.999 55.414 40.155 55.338L40.212 55.301C40.344 55.195 40.317 55.018 40.317 54.868L40.317 51.185L40.317 50.985L40.31 50.911C40.274 50.72 40.119 50.558 39.944 50.484L39.865 50.456L39.67 50.404L37.338 49.776C37.213 49.741 37.115 49.71 36.99 49.707C36.918 49.718 36.856 49.729 36.798 49.776L36.753 49.822"/>
     <path stroke-width="0.2" stroke-linejoin="round" d="M39.542 46.368L39.668 46.212L74.662 2.884L74.789 2.729L74.834 2.682C74.993 2.555 75.203 2.637 75.373 2.682L77.706 3.31L77.9 3.363L77.98 3.391C78.109 3.447 78.224 3.547 78.292 3.672C78.365 3.806 78.352 3.942 78.352 4.092L78.352 4.549L78.352 4.75L78.293 4.94L78.075 5.631L78.015 5.822L77.89 5.977L77.634 6.293C77.528 6.424 77.436 6.538 77.37 6.692C77.277 6.91 77.212 7.168 77.237 7.408C77.245 7.477 77.269 7.621 77.37 7.61L77.412 7.596"/>
     <path stroke-width="0.2" stroke-linejoin="round" d="M78.332 8.085C78.305 8.172 78.216 8.256 78.167 8.319L70.525 17.78L70.399 17.937"/>
    </g>
    <g id="AUFSATZ-LINEAR_AUSTRAGEN1" itedo:apstype="grobject">
     <desc>AUFSATZ-LINEAR_AUSTRAGEN1</desc>
     <line stroke-width="0.2" stroke-linejoin="round" x1="44.334" y1="64.733" x2="44.334" y2="64.325"/>
     <line stroke-width="0.2" stroke-linejoin="round" x1="42.009" y1="67.611" x2="42.009" y2="67.203"/>
     <line stroke-width="0.2" stroke-linejoin="round" x1="40.679" y1="67.483" x2="40.679" y2="67.891"/>
     <line stroke-width="0.2" stroke-linejoin="round" x1="35.695" y1="66.549" x2="35.695" y2="66.141"/>
     <path stroke-width="0.2" stroke-linejoin="round" d="M43.171 63.375L43.365 63.427L43.656 63.506C43.911 63.575 44.215 63.643 44.366 63.884C44.448 64.013 44.426 64.161 44.426 64.307L44.426 64.314L44.426 64.515C44.42 64.662 44.292 64.786 44.207 64.89L42.134 67.456C42.064 67.543 41.999 67.64 41.908 67.709C41.67 67.897 41.353 67.944 41.06 67.944C40.963 67.939 40.866 67.932 40.771 67.912L40.679 67.891L40.487 67.84L35.889 66.602C35.74 66.561 35.588 66.527 35.451 66.456C35.296 66.376 35.137 66.242 35.119 66.058L35.118 66.001L35.118 65.801C35.118 65.691 35.103 65.582 35.146 65.48C35.188 65.384 35.274 65.296 35.338 65.218L36.247 64.09L36.374 63.936"/>
     <path stroke-width="0.2" stroke-linejoin="round" d="M44.426 64.106C44.417 64.158 44.418 64.17 44.399 64.218C44.357 64.316 44.27 64.405 44.207 64.481L42.134 67.048C42.064 67.135 41.999 67.23 41.908 67.302C41.67 67.489 41.353 67.536 41.06 67.537C40.963 67.531 40.866 67.524 40.771 67.504L40.679 67.483L40.487 67.43L35.889 66.192L35.695 66.141C35.472 66.078 35.195 65.951 35.13 65.706C35.116 65.656 35.119 65.644 35.118 65.593"/>
    </g>
    <g id="SCHNITT-LINEAR_AUSTRAGEN5" itedo:apstype="grobject">
     <desc>SCHNITT-LINEAR_AUSTRAGEN5</desc>
     <line stroke-width="0.2" stroke-linejoin="round" x1="43.125" y1="47.651" x2="43.125" y2="64.796"/>
     <line stroke-width="0.2" stroke-linejoin="round" x1="41.857" y1="66.367" x2="41.857" y2="49.22"/>
     <line stroke-width="0.2" stroke-linejoin="round" x1="41.192" y1="66.507" x2="41.192" y2="49.359"/>
     <line stroke-width="0.2" stroke-linejoin="round" x1="36.661" y1="65.287" x2="36.661" y2="48.14"/>
     <line stroke-width="0.2" stroke-linejoin="round" x1="38.049" y1="48.216" x2="38.049" y2="46.283"/>
     <line stroke-width="0.2" stroke-linejoin="round" x1="38.182" y1="46.256" x2="38.182" y2="48.051"/>
     <line stroke-width="0.2" stroke-linejoin="round" x1="42.715" y1="47.612" x2="42.715" y2="47.475"/>
     <path stroke-width="0.2" stroke-linejoin="round" d="M37.149 49.34C37.173 49.302 37.176 49.292 37.209 49.264C37.365 49.121 37.585 49.204 37.761 49.253L40.094 49.881L40.286 49.932L40.347 49.951C40.466 49.999 40.573 50.082 40.646 50.189C40.692 50.253 40.725 50.329 40.735 50.408L40.74 50.463L40.74 50.662L40.74 54.344C40.74 54.46 40.758 54.585 40.706 54.692C40.691 54.722 40.667 54.744 40.646 54.768"/>
     <path stroke-width="0.2" stroke-linejoin="round" d="M42.161 48.298C42.084 48.197 41.987 48.115 41.868 48.069L41.808 48.048L41.615 47.996L39.283 47.368C39.173 47.34 39.081 47.308 38.972 47.298C38.924 47.301 38.908 47.298 38.862 47.31C38.776 47.332 38.718 47.383 38.67 47.456"/>
     <path stroke-width="0.2" stroke-linejoin="round" d="M36.374 47.865L36.374 48.066L36.374 64.813L36.374 65.013L36.375 65.049C36.396 65.183 36.546 65.254 36.661 65.287L36.854 65.338L41 66.454L41.192 66.507L41.255 66.519C41.429 66.552 41.637 66.534 41.787 66.43C41.865 66.376 41.927 66.28 41.984 66.21L43 64.953C43.042 64.9 43.168 64.784 43.171 64.688L43.171 64.487L43.171 47.74L43.171 47.54L43.17 47.503C43.149 47.369 42.999 47.298 42.884 47.267L42.691 47.215L38.545 46.098C38.412 46.063 38.296 46.029 38.162 46.02C38.009 46.021 37.838 46.045 37.719 46.152L37.688 46.186L37.561 46.341L36.545 47.6C36.473 47.689 36.334 47.807 36.384 47.941C36.395 47.968 36.411 47.99 36.429 48.012C36.534 48.128 36.713 48.154 36.854 48.192L41 49.307L41.192 49.359L41.255 49.374C41.429 49.405 41.637 49.387 41.787 49.283C41.865 49.229 41.927 49.134 41.984 49.064L43 47.805C43.07 47.719 43.152 47.651 43.171 47.54"/>
     <path stroke-width="0.2" stroke-linejoin="round" d="M36.773 47.875C36.776 47.865 36.783 47.853 36.783 47.853L36.908 47.698L37.924 46.439C37.996 46.35 38.051 46.222 38.182 46.256L38.375 46.307L42.521 47.423L42.715 47.475C42.729 47.481 42.746 47.487 42.758 47.499C42.774 47.514 42.777 47.534 42.762 47.552L42.637 47.709L41.621 48.966C41.545 49.06 41.515 49.152 41.401 49.155L41.362 49.151L41.168 49.098L37.024 47.982L36.831 47.93L36.814 47.924C36.79 47.914 36.776 47.901 36.773 47.875z"/>
    </g>
   </g>
  </g>
  <g id="EH224000128_3" itedo:apstype="grobject">
   <desc>EH224000128</desc>
   <line stroke-width="0.2" stroke-linejoin="round" x1="62.737" y1="17.649" x2="62.688" y2="17.635"/>
   <line stroke-width="0.2" stroke-linejoin="round" x1="63.289" y1="15.426" x2="63.301" y2="15.458"/>
   <line stroke-width="0.2" stroke-linejoin="round" x1="63.313" y1="15.483" x2="63.283" y2="15.425"/>
   <line stroke-width="0.2" stroke-linejoin="round" x1="63.161" y1="15.49" x2="62.414" y2="15.289"/>
   <line stroke-width="0.2" stroke-linejoin="round" x1="63.151" y1="15.337" x2="62.509" y2="15.164"/>
   <line stroke-width="0.2" stroke-linejoin="round" x1="63.304" y1="15.471" x2="63.337" y2="15.521"/>
   <line stroke-width="0.2" stroke-linejoin="round" x1="63.322" y1="15.502" x2="63.365" y2="15.554"/>
   <line stroke-width="0.2" stroke-linejoin="round" x1="63.299" y1="15.451" x2="63.301" y2="15.461"/>
   <line stroke-width="0.2" stroke-linejoin="round" x1="63.299" y1="15.451" x2="63.301" y2="15.461"/>
   <line stroke-width="0.2" stroke-linejoin="round" x1="63.36" y1="15.551" x2="63.412" y2="15.6"/>
   <line stroke-width="0.2" stroke-linejoin="round" x1="62.822" y1="17.405" x2="62.88" y2="17.385"/>
   <line stroke-width="0.2" stroke-linejoin="round" x1="62.749" y1="17.46" x2="62.77" y2="17.437"/>
   <line stroke-width="0.2" stroke-linejoin="round" x1="62.749" y1="17.46" x2="62.771" y2="17.435"/>
   <line stroke-width="0.2" stroke-linejoin="round" x1="62.631" y1="17.481" x2="62.362" y2="17.408"/>
   <line stroke-width="0.2" stroke-linejoin="round" x1="62.719" y1="17.48" x2="62.77" y2="17.437"/>
   <line stroke-width="0.2" stroke-linejoin="round" x1="62.719" y1="17.48" x2="62.758" y2="17.446"/>
   <line stroke-width="0.2" stroke-linejoin="round" x1="62.762" y1="17.442" x2="62.792" y2="17.422"/>
   <line stroke-width="0.2" stroke-linejoin="round" x1="62.759" y1="17.437" x2="62.825" y2="17.405"/>
   <line stroke-width="0.2" stroke-linejoin="round" x1="62.792" y1="16.006" x2="62.045" y2="15.804"/>
   <line stroke-width="0.2" stroke-linejoin="round" x1="61.936" y1="15.967" x2="62.576" y2="16.14"/>
   <path stroke-width="0.2" stroke-linejoin="round" d="M62.706 17.689C62.676 17.675 62.686 17.628 62.692 17.603C62.71 17.538 62.75 17.478 62.789 17.422"/>
   <path stroke-width="0.2" stroke-linejoin="round" d="M63.427 15.612L63.47 15.532L63.475 15.522C63.49 15.473 63.479 15.346 63.478 15.294C63.473 15.141 63.457 14.986 63.411 14.839C63.389 14.772 63.359 14.711 63.32 14.65C63.298 14.615 63.277 14.587 63.235 14.586C63.18 14.59 63.115 14.63 63.075 14.647L62.825 14.755L62.701 14.807L62.607 14.984C62.567 15.06 62.527 15.147 62.476 15.221C62.463 15.24 62.444 15.266 62.424 15.282C62.398 15.304 62.366 15.317 62.341 15.339C62.296 15.378 62.259 15.423 62.225 15.47C62.168 15.551 62.121 15.637 62.079 15.727C62.046 15.798 62.017 15.864 61.97 15.926C61.935 15.977 61.878 16.021 61.837 16.062L61.737 16.155C61.731 16.167 61.686 16.378 61.683 16.391C61.655 16.541 61.633 16.693 61.622 16.844C61.613 16.975 61.612 17.106 61.627 17.234C61.628 17.253 61.645 17.376 61.654 17.393L61.734 17.518L61.819 17.646C61.829 17.661 61.85 17.667 61.866 17.67C61.948 17.684 61.978 17.628 62.037 17.574L62.081 17.538C62.179 17.466 62.298 17.423 62.414 17.393C62.485 17.376 62.558 17.359 62.633 17.364C62.652 17.367 62.691 17.367 62.704 17.387C62.713 17.397 62.695 17.42 62.695 17.42C62.676 17.443 62.652 17.46 62.631 17.481C62.548 17.565 62.49 17.66 62.466 17.777C62.454 17.849 62.457 17.92 62.46 17.992"/>
   <path stroke-width="0.2" stroke-linejoin="round" d="M62.002 17.608L62.006 17.679L62.091 17.78L62.267 17.983L62.356 18.085L62.372 18.1"/>
   <path stroke-width="0.2" stroke-linejoin="round" d="M62.037 17.574C61.988 17.278 62.006 16.978 62.052 16.684L62.095 16.452L62.122 16.335L62.164 16.3C62.198 16.274 62.235 16.254 62.274 16.236C62.343 16.202 62.417 16.178 62.491 16.158C62.579 16.137 62.676 16.126 62.747 16.065C62.807 16.013 62.826 15.925 62.86 15.856C62.904 15.774 62.951 15.692 63.011 15.621C63.043 15.58 63.081 15.541 63.125 15.512C63.145 15.497 63.173 15.492 63.177 15.464C63.18 15.439 63.171 15.413 63.165 15.391C63.154 15.346 63.14 15.305 63.134 15.26C63.121 15.185 63.121 15.108 63.134 15.032C63.146 14.957 63.173 14.885 63.209 14.817C63.219 14.794 63.332 14.666 63.284 14.605"/>
   <path stroke-width="0.2" stroke-linejoin="round" d="M63.29 14.663C63.484 14.899 63.478 15.244 63.47 15.532"/>
   <path stroke-width="0.2" stroke-linejoin="round" d="M63.493 15.659C63.59 15.702 63.539 15.682 63.648 15.72"/>
   <path stroke-width="0.2" stroke-linejoin="round" d="M63.067 17.24C63.027 17.097 63.033 16.942 63.051 16.794C63.082 16.542 63.154 16.292 63.267 16.065C63.314 15.968 63.371 15.869 63.448 15.792C63.478 15.762 63.514 15.733 63.554 15.718C63.636 15.689 63.747 15.746 63.811 15.762L64.182 15.862"/>
   <path stroke-width="0.2" stroke-linejoin="round" d="M63.392 15.585C63.472 15.646 63.43 15.618 63.515 15.669"/>
   <path stroke-width="0.2" stroke-linejoin="round" d="M63.393 15.582C63.395 15.432 63.392 15.282 63.362 15.134C63.337 15.015 63.295 14.903 63.209 14.817"/>
   <path stroke-width="0.2" stroke-linejoin="round" d="M62.853 17.39L62.926 17.373L62.965 17.367"/>
   <path stroke-width="0.2" stroke-linejoin="round" d="M62.799 17.571C62.823 17.504 62.877 17.44 62.909 17.376"/>
   <path stroke-width="0.2" stroke-linejoin="round" d="M62.807 17.55C62.822 17.501 62.832 17.451 62.838 17.399"/>
   <path stroke-width="0.2" stroke-linejoin="round" d="M64.025 16.056L63.832 16.004L63.567 15.933C63.456 15.903 63.341 15.878 63.234 15.832C63.139 15.789 63.054 15.734 62.972 15.67"/>
   <path stroke-width="0.2" stroke-linejoin="round" d="M62.122 16.335C62.067 16.388 62.045 16.431 61.975 16.434C61.884 16.429 61.872 16.362 61.817 16.28L61.737 16.155"/>
   <path stroke-width="0.2" stroke-linejoin="round" d="M61.904 16.408C61.819 16.817 61.767 17.231 61.819 17.646"/>
   <path stroke-width="0.2" stroke-linejoin="round" d="M62.036 16.416C61.951 16.824 61.898 17.239 61.951 17.655"/>
   <path stroke-width="0.2" stroke-linejoin="round" d="M62.457 17.914C62.533 17.87 62.594 17.815 62.655 17.753"/>
   <path stroke-width="0.2" stroke-linejoin="round" d="M68.347 18.5L68.54 18.551L69.609 18.839C69.653 18.85 69.775 18.902 69.849 18.893L69.995 18.879L70.138 18.862L70.161 18.856C70.2 18.838 70.23 18.8 70.256 18.765C70.304 18.699 70.338 18.621 70.367 18.544C70.415 18.41 70.447 18.263 70.445 18.12C70.444 18.064 70.441 17.998 70.409 17.949L70.394 17.929L70.272 17.839L70.15 17.75L70.131 17.737C69.612 17.582 69.085 17.457 68.563 17.315"/>
   <path stroke-width="0.2" stroke-linejoin="round" d="M69.802 18.891C69.713 18.838 69.712 18.705 69.712 18.614C69.716 18.385 69.781 18.143 69.89 17.943C69.933 17.861 70.016 17.713 70.131 17.737"/>
   <path stroke-width="0.2" stroke-linejoin="round" d="M70.221 18.01L69.945 17.853L69.753 17.8L68.686 17.513L68.492 17.46"/>
   <path stroke-width="0.2" stroke-linejoin="round" d="M70.394 17.929C70.371 17.914 70.384 17.92 70.358 17.913C70.283 17.914 70.233 17.987 70.197 18.045C70.096 18.21 70.04 18.416 70.031 18.608L70.031 18.655C70.031 18.727 70.04 18.865 70.138 18.862"/>
   <path stroke-width="0.2" stroke-linejoin="round" d="M69.251 18.679C69.272 18.681 69.292 18.681 69.313 18.675C69.34 18.666 69.371 18.652 69.385 18.625C69.4 18.6 69.396 18.57 69.388 18.545C69.37 18.487 69.323 18.437 69.266 18.42"/>
   <path stroke-width="0.2" stroke-linejoin="round" d="M69.228 18.675C69.171 18.655 69.123 18.603 69.121 18.539C69.12 18.457 69.179 18.399 69.259 18.417"/>
   <path stroke-width="0.2" stroke-linejoin="round" d="M69.121 18.539C69.129 18.583 69.165 18.608 69.207 18.62C69.272 18.637 69.343 18.623 69.394 18.582"/>
  </g>
  <g id="EH224000128_1_1" itedo:apstype="grobject">
   <desc>EH224000128</desc>
   <line stroke-width="0.2" stroke-linejoin="round" x1="80.251" y1="8.32" x2="80.367" y2="8.509"/>
   <line stroke-width="0.2" stroke-linejoin="round" x1="80.067" y1="8.798" x2="79.876" y2="8.746"/>
   <line stroke-width="0.2" stroke-linejoin="round" x1="79.362" y1="7.089" x2="80.109" y2="7.291"/>
   <line stroke-width="0.2" stroke-linejoin="round" x1="79.375" y1="7.283" x2="80.015" y2="7.456"/>
   <line stroke-width="0.2" stroke-linejoin="round" x1="79.201" y1="8.666" x2="79.191" y2="8.566"/>
   <line stroke-width="0.2" stroke-linejoin="round" x1="79.206" y1="8.449" x2="79.203" y2="8.332"/>
   <line stroke-width="0.2" stroke-linejoin="round" x1="79.069" y1="8.295" x2="79.117" y2="8.324"/>
   <line stroke-width="0.2" stroke-linejoin="round" x1="79.203" y1="8.564" x2="79.194" y2="8.451"/>
   <line stroke-width="0.2" stroke-linejoin="round" x1="79.203" y1="8.558" x2="79.194" y2="8.451"/>
   <line stroke-width="0.2" stroke-linejoin="round" x1="79.206" y1="8.448" x2="79.203" y2="8.332"/>
   <line stroke-width="0.2" stroke-linejoin="round" x1="79.203" y1="8.675" x2="79.191" y2="8.566"/>
   <line stroke-width="0.2" stroke-linejoin="round" x1="79.731" y1="6.573" x2="80.477" y2="6.775"/>
   <line stroke-width="0.2" stroke-linejoin="round" x1="80.588" y1="6.655" x2="79.948" y2="6.482"/>
   <line stroke-width="0.2" stroke-linejoin="round" x1="77.576" y1="6.365" x2="77.719" y2="6.403"/>
   <line stroke-width="0.2" stroke-linejoin="round" x1="77.852" y1="6.45" x2="77.712" y2="6.413"/>
   <line stroke-width="0.2" stroke-linejoin="round" x1="77.632" y1="6.544" x2="77.471" y2="6.501"/>
   <line stroke-width="0.2" stroke-linejoin="round" x1="77.263" y1="7.522" x2="77.408" y2="7.561"/>
   <line stroke-width="0.2" stroke-linejoin="round" x1="77.403" y1="7.45" x2="77.237" y2="7.407"/>
   <path stroke-width="0.2" stroke-linejoin="round" d="M80.563 7.224C80.555 7.113 80.543 6.927 80.4 6.916C80.344 6.927 80.301 6.955 80.262 6.998"/>
   <path stroke-width="0.2" stroke-linejoin="round" d="M79.998 8.659C79.932 8.564 79.912 8.451 79.906 8.337C79.897 8.196 79.911 8.054 79.933 7.916C79.984 7.605 80.081 7.28 80.253 7.011C80.295 6.944 80.343 6.878 80.405 6.825C80.444 6.79 80.504 6.774 80.537 6.732C80.597 6.66 80.644 6.551 80.683 6.479L80.686 6.474L80.781 6.298"/>
   <path stroke-width="0.2" stroke-linejoin="round" d="M80.084 9.169L80.075 8.984L80.067 8.798C80.064 8.756 80.055 8.663 79.998 8.659C79.972 8.662 79.954 8.673 79.936 8.689L79.731 8.884L79.606 8.901L79.352 8.938L79.224 8.955L79.201 8.957C79.18 8.955 79.132 8.951 79.129 8.922L79.118 8.839L79.111 8.742C79.093 8.468 79.12 8.192 79.167 7.923C79.171 7.895 79.201 7.695 79.216 7.671L79.221 7.665L79.307 7.583C79.341 7.549 79.37 7.512 79.387 7.464C79.4 7.421 79.402 7.375 79.391 7.331C79.376 7.27 79.343 7.221 79.347 7.155C79.35 7.105 79.376 7.057 79.397 7.012C79.454 6.887 79.524 6.761 79.62 6.66C79.653 6.626 79.688 6.597 79.731 6.573C79.778 6.548 79.834 6.535 79.884 6.514C79.963 6.477 80.04 6.432 80.111 6.379C80.225 6.294 80.323 6.19 80.393 6.065L80.474 5.913C80.48 5.902 80.489 5.892 80.5 5.886C80.531 5.863 80.588 5.86 80.608 5.902L80.652 6.001L80.739 6.2L80.781 6.298L80.816 6.326C80.855 6.365 80.881 6.416 80.9 6.468C80.96 6.621 80.971 6.794 80.969 6.958C80.969 6.976 80.965 7.152 80.959 7.168L80.864 7.344C80.799 7.466 80.721 7.596 80.68 7.732C80.67 7.767 80.668 7.799 80.665 7.833C80.656 7.948 80.659 8.041 80.665 8.16L80.674 8.345C80.671 8.358 80.596 8.519 80.59 8.532C80.552 8.614 80.512 8.705 80.457 8.778L80.417 8.806C80.385 8.829 80.353 8.853 80.325 8.881"/>
   <path stroke-width="0.2" stroke-linejoin="round" d="M79.582 8.904C79.615 8.989 79.637 9.073 79.643 9.163C79.646 9.218 79.62 9.403 79.736 9.4L79.762 9.393L79.927 9.282C80.025 9.215 80.129 9.159 80.218 9.08C80.236 9.064 80.299 9.003 80.311 8.984L80.311 8.962L80.317 8.913C80.328 8.852 80.35 8.771 80.4 8.73C80.439 8.698 80.453 8.749 80.457 8.778"/>
   <path stroke-width="0.2" stroke-linejoin="round" d="M80.048 8.698C80.164 8.737 80.26 8.644 80.328 8.56C80.498 8.352 80.591 8.087 80.665 7.833"/>
   <path stroke-width="0.2" stroke-linejoin="round" d="M80.084 7.362C80.037 7.44 79.984 7.485 79.915 7.551L79.816 7.645L79.787 7.764L79.742 7.998C79.692 8.291 79.673 8.59 79.731 8.884"/>
   <path stroke-width="0.2" stroke-linejoin="round" d="M79.215 7.676C79.213 7.716 79.281 7.719 79.31 7.716C79.478 7.694 79.647 7.669 79.816 7.645"/>
   <path stroke-width="0.2" stroke-linejoin="round" d="M79.224 8.955C79.173 8.538 79.224 8.125 79.31 7.716"/>
   <path stroke-width="0.2" stroke-linejoin="round" d="M79.07 8.297C79.009 8.269 78.932 8.26 78.888 8.202C78.813 8.099 78.813 7.942 78.816 7.82C78.826 7.543 78.899 7.259 79.01 7.006C79.064 6.884 79.131 6.758 79.225 6.663C79.263 6.625 79.311 6.586 79.365 6.58C79.397 6.575 79.436 6.589 79.465 6.596"/>
   <path stroke-width="0.2" stroke-linejoin="round" d="M79.585 6.602C79.676 6.591 79.635 6.599 79.706 6.581"/>
   <path stroke-width="0.2" stroke-linejoin="round" d="M79.591 6.602L79.537 6.602L79.46 6.594"/>
   <path stroke-width="0.2" stroke-linejoin="round" d="M77.927 6.36C77.956 6.333 77.986 6.304 78.027 6.291C78.17 6.237 78.337 6.296 78.474 6.331L79.203 6.528L79.397 6.58"/>
   <path stroke-width="0.2" stroke-linejoin="round" d="M78.968 8.256L78.775 8.204L78.045 8.006C78.034 8.003 77.849 7.974 77.796 7.929C77.766 7.902 77.748 7.863 77.736 7.827C77.701 7.73 77.698 7.621 77.701 7.519C77.712 7.193 77.805 6.852 77.963 6.567C78.028 6.451 78.114 6.312 78.25 6.28"/>
   <path stroke-width="0.2" stroke-linejoin="round" d="M77.856 6.443L78.037 6.45L78.23 6.503L78.959 6.7C79.111 6.74 79.263 6.793 79.423 6.778C79.478 6.772 79.489 6.767 79.543 6.753"/>
   <path stroke-width="0.2" stroke-linejoin="round" d="M77.822 7.945C77.796 7.931 77.653 7.862 77.609 7.804C77.584 7.77 77.57 7.729 77.561 7.687C77.537 7.586 77.539 7.479 77.548 7.376C77.573 7.049 77.674 6.716 77.856 6.443"/>
   <path stroke-width="0.2" stroke-linejoin="round" d="M80.521 6.751C80.549 6.746 80.561 6.74 80.59 6.748C80.677 6.767 80.715 6.868 80.734 6.945C80.793 7.179 80.751 7.434 80.706 7.668"/>
   <path stroke-width="0.2" stroke-linejoin="round" d="M80.608 5.902C80.676 5.987 80.709 6.072 80.76 6.174L80.787 6.232L80.876 6.411"/>
   <path stroke-width="0.2" stroke-linejoin="round" d="M79.906 8.326C79.918 8.375 79.938 8.426 79.977 8.458"/>
   <path stroke-width="0.2" stroke-linejoin="round" d="M79.972 7.721C79.954 7.812 79.938 7.903 79.933 7.995C79.927 8.095 79.927 8.207 79.966 8.301C79.975 8.32 79.986 8.34 80.001 8.356C80.049 8.404 80.112 8.384 80.159 8.349C80.183 8.33 80.203 8.308 80.222 8.287C80.245 8.259 80.266 8.228 80.286 8.198C80.43 7.966 80.51 7.676 80.527 7.405L80.528 7.343L80.528 7.283C80.524 7.187 80.509 7.025 80.387 7.014C80.305 7.028 80.251 7.089 80.204 7.155C80.118 7.275 80.063 7.416 80.016 7.557"/>
   <path stroke-width="0.2" stroke-linejoin="round" d="M80.215 8.307L80.245 8.266L80.251 8.256C80.275 8.198 80.281 8.047 80.284 7.985C80.296 7.802 80.287 7.618 80.26 7.437L80.236 7.296C80.228 7.259 80.221 7.168 80.189 7.121"/>
   <path stroke-width="0.2" stroke-linejoin="round" d="M80.246 7.02C80.271 7 80.281 6.988 80.308 6.972L80.34 6.958C80.466 6.918 80.51 7.091 80.524 7.182L80.528 7.235L80.531 7.293C80.537 7.628 80.433 7.987 80.245 8.266"/>
   <path stroke-width="0.2" stroke-linejoin="round" d="M80.206 8.316C80.158 8.369 80.108 8.417 80.034 8.432C79.956 8.426 79.93 8.369 79.905 8.301"/>
   <path stroke-width="0.2" stroke-linejoin="round" d="M80.563 7.224C80.569 7.561 80.484 7.911 80.322 8.208C80.262 8.317 80.179 8.454 80.046 8.48L80.031 8.478"/>
   <path stroke-width="0.2" stroke-linejoin="round" d="M80.231 8.285L80.251 8.32"/>
   <path stroke-width="0.2" stroke-linejoin="round" d="M77.927 6.36L77.856 6.443"/>
   <path stroke-width="0.2" stroke-linejoin="round" d="M77.632 7.828L77.536 7.802L77.509 7.793C77.465 7.767 77.441 7.714 77.429 7.668C77.4 7.57 77.399 7.464 77.405 7.362C77.423 7.075 77.504 6.778 77.643 6.525C77.688 6.442 77.742 6.357 77.817 6.298C77.846 6.275 77.879 6.256 77.915 6.253L77.944 6.256L78.049 6.285"/>
   <path stroke-width="0.2" stroke-linejoin="round" d="M72.875 5.099L72.784 5.075L72.76 5.07C72.688 5.076 72.638 5.133 72.599 5.189C72.493 5.336 72.436 5.514 72.397 5.689"/>
   <path stroke-width="0.2" stroke-linejoin="round" d="M72.331 5.2L72.599 5.189L72.766 5.234"/>
   <path stroke-width="0.2" stroke-linejoin="round" d="M72.161 5.982C72.135 5.908 72.137 5.825 72.144 5.748C72.159 5.602 72.198 5.455 72.26 5.323C72.293 5.251 72.337 5.171 72.403 5.123C72.456 5.086 72.534 5.094 72.591 5.088L72.736 5.072"/>
  </g>
 </g>
</svg>
