<?xml version="1.0" encoding="utf-8"?>
<!DOCTYPE svg PUBLIC "-//W3C//DTD SVG 1.1//EN" "http://www.w3.org/Graphics/SVG/1.1/DTD/svg11.dtd">
<!-- Generator: PTC Arbortext IsoDraw 7.3 -->
<svg id="Standardebene" width="100%" height="100%" viewBox="0 0 36.008 34.621"
 xmlns="http://www.w3.org/2000/svg" xmlns:xlink="http://www.w3.org/1999/xlink"
 xmlns:itedo="http://www.itedo.com/svgfilter/1.0" xmlns:extra="http://www.itedo.com/svgfilter/1.0/extra"
 xmlns:_DEFAULT_DTD_="http://www.itedo.com/svgfilter/1.0/DTD/_DEFAULT_DTD_"
 fill-rule="evenodd" clip-rule="evenodd" stroke="#000000" stroke-linecap="round" fill="none" xml:space="preserve">
 <path stroke="none" d="M36.008 0L0 0 0 34.621 36.008 34.621 36.008 0z"/>
 <line stroke-width="0.071" stroke-linejoin="round" x1="33.246" y1="21.736" x2="33.225" y2="21.69"/>
 <line stroke-width="0.071" stroke-linejoin="round" x1="33.328" y1="21.841" x2="33.289" y2="21.846"/>
 <line stroke-width="0.071" stroke-linejoin="round" x1="33.317" y1="21.742" x2="33.289" y2="21.846"/>
 <line stroke-width="0.071" stroke-linejoin="round" x1="33.271" y1="21.798" x2="33.307" y2="21.742"/>
 <line stroke-width="0.071" stroke-linejoin="round" x1="33.29" y1="21.736" x2="33.207" y2="21.792"/>
 <line stroke-width="0.071" stroke-linejoin="round" x1="33.192" y1="21.754" x2="33.207" y2="21.792"/>
 <line stroke-width="0.071" stroke-linejoin="round" x1="33.264" y1="21.686" x2="33.225" y2="21.69"/>
 <line stroke-width="0.071" stroke-linejoin="round" x1="33.417" y1="21.751" x2="33.427" y2="21.739"/>
 <line stroke-width="0.071" stroke-linejoin="round" x1="33.362" y1="21.777" x2="33.345" y2="21.739"/>
 <line stroke-width="0.071" stroke-linejoin="round" x1="33.362" y1="21.777" x2="33.314" y2="21.782"/>
 <line stroke-width="0.071" stroke-linejoin="round" x1="33.308" y1="21.794" x2="33.328" y2="21.841"/>
 <path stroke-width="0.071" stroke-linejoin="round" d="M33.192 21.754C33.253 21.748 33.228 21.76 33.27 21.716L33.274 21.71"/>
 <polyline stroke-width="0.071" stroke-linejoin="round" points="33.344 21.739 33.314 21.782 33.308 21.794"/>
 <path stroke-width="0.071" stroke-linejoin="round" d="M33.427 21.739C33.435 21.76 33.439 21.766 33.439 21.791C33.441 21.835 33.412 21.881 33.371 21.899C33.351 21.908 33.344 21.907 33.322 21.908C33.28 21.905 33.246 21.896 33.213 21.873C33.186 21.855 33.164 21.832 33.149 21.806C33.134 21.783 33.125 21.756 33.125 21.728C33.124 21.675 33.164 21.623 33.216 21.612C33.274 21.6 33.335 21.626 33.375 21.664C33.399 21.687 33.414 21.71 33.427 21.739z"/>
 <polyline stroke-width="0.071" stroke-linejoin="round" points="33.298 21.742 33.286 21.754 33.255 21.788 33.207 21.792"/>
 <path stroke-width="0.071" stroke-linejoin="round" d="M33.255 21.788C33.28 21.809 33.268 21.791 33.289 21.846"/>
 <path stroke-width="0.071" stroke-linejoin="round" d="M33.146 21.661C33.161 21.646 33.162 21.641 33.182 21.632C33.216 21.617 33.253 21.62 33.286 21.632C33.365 21.658 33.444 21.74 33.426 21.829C33.423 21.85 33.418 21.853 33.408 21.87"/>
 <polyline stroke-width="0.071" stroke-linejoin="round" points="33.264 21.686 33.283 21.733 33.299 21.743 33.345 21.739"/>
 <line stroke-width="0.071" stroke-linejoin="round" x1="1.69" y1="13.242" x2="1.672" y2="13.195"/>
 <line stroke-width="0.071" stroke-linejoin="round" x1="1.773" y1="13.346" x2="1.734" y2="13.349"/>
 <line stroke-width="0.071" stroke-linejoin="round" x1="1.762" y1="13.246" x2="1.734" y2="13.349"/>
 <line stroke-width="0.071" stroke-linejoin="round" x1="1.716" y1="13.303" x2="1.753" y2="13.247"/>
 <line stroke-width="0.071" stroke-linejoin="round" x1="1.736" y1="13.242" x2="1.653" y2="13.298"/>
 <line stroke-width="0.071" stroke-linejoin="round" x1="1.637" y1="13.259" x2="1.653" y2="13.298"/>
 <line stroke-width="0.071" stroke-linejoin="round" x1="1.71" y1="13.191" x2="1.672" y2="13.195"/>
 <line stroke-width="0.071" stroke-linejoin="round" x1="1.863" y1="13.256" x2="1.874" y2="13.243"/>
 <line stroke-width="0.071" stroke-linejoin="round" x1="1.806" y1="13.282" x2="1.79" y2="13.243"/>
 <line stroke-width="0.071" stroke-linejoin="round" x1="1.806" y1="13.282" x2="1.761" y2="13.287"/>
 <line stroke-width="0.071" stroke-linejoin="round" x1="1.754" y1="13.298" x2="1.773" y2="13.346"/>
 <path stroke-width="0.071" stroke-linejoin="round" d="M1.637 13.259C1.7 13.253 1.673 13.266 1.716 13.221L1.72 13.215"/>
 <polyline stroke-width="0.071" stroke-linejoin="round" points="1.79 13.243 1.761 13.287 1.754 13.298"/>
 <path stroke-width="0.071" stroke-linejoin="round" d="M1.874 13.243C1.881 13.265 1.885 13.272 1.885 13.295C1.886 13.339 1.858 13.384 1.817 13.403C1.797 13.412 1.789 13.412 1.766 13.413C1.726 13.41 1.692 13.4 1.657 13.377C1.633 13.359 1.611 13.336 1.595 13.31C1.577 13.281 1.565 13.243 1.572 13.208C1.58 13.163 1.619 13.127 1.661 13.118C1.718 13.105 1.78 13.131 1.822 13.169C1.845 13.192 1.859 13.214 1.874 13.243z"/>
 <polyline stroke-width="0.071" stroke-linejoin="round" points="1.742 13.246 1.73 13.259 1.7 13.292 1.653 13.298"/>
 <path stroke-width="0.071" stroke-linejoin="round" d="M1.7 13.292C1.726 13.313 1.713 13.294 1.734 13.349"/>
 <path stroke-width="0.071" stroke-linejoin="round" d="M1.591 13.166C1.607 13.15 1.609 13.146 1.628 13.137C1.661 13.122 1.698 13.125 1.733 13.137C1.81 13.162 1.889 13.246 1.873 13.333C1.869 13.353 1.865 13.358 1.854 13.375"/>
 <polyline stroke-width="0.071" stroke-linejoin="round" points="1.71 13.191 1.729 13.237 1.745 13.247 1.79 13.243"/>
 <line stroke-width="0.071" stroke-linejoin="round" x1="2.243" y1="10.632" x2="2.221" y2="10.662"/>
 <line stroke-width="0.071" stroke-linejoin="round" x1="2.221" y1="16.147" x2="2.25" y2="16.111"/>
 <line stroke-width="0.071" stroke-linejoin="round" x1="1.729" y1="13.409" x2="1.722" y2="13.428"/>
 <path stroke-width="0.071" stroke-linejoin="round" d="M1.722 10.708C1.64 10.679 1.568 10.625 1.536 10.541C1.504 10.458 1.536 10.364 1.629 10.343C1.652 10.339 1.675 10.339 1.698 10.343C1.79 10.358 1.875 10.426 1.909 10.513C1.934 10.58 1.923 10.66 1.855 10.696C1.829 10.711 1.801 10.714 1.77 10.714C1.738 10.711 1.754 10.714 1.722 10.708z"/>
 <path stroke-width="0.071" stroke-linejoin="round" d="M1.441 10.05C1.383 10.076 1.343 10.121 1.304 10.17C1.27 10.212 1.245 10.256 1.233 10.31C1.219 10.375 1.225 10.449 1.225 10.516C1.225 10.516 1.225 10.516 1.223 15.756C1.223 15.846 1.219 15.929 1.246 16.015C1.316 16.245 1.536 16.431 1.772 16.474C1.927 16.501 2.104 16.457 2.182 16.309C2.229 16.221 2.221 16.123 2.221 16.025C2.221 16.025 2.221 16.025 2.221 10.784C2.221 10.696 2.225 10.614 2.201 10.529C2.133 10.305 1.925 10.125 1.698 10.073C1.653 10.063 1.608 10.06 1.56 10.058C1.49 10.066 1.423 10.08 1.363 10.119C1.334 10.14 1.328 10.147 1.304 10.17"/>
 <path stroke-width="0.071" stroke-linejoin="round" d="M1.589 15.843C1.706 15.791 1.843 15.868 1.899 15.977C1.934 16.047 1.931 16.143 1.855 16.184C1.827 16.196 1.801 16.199 1.77 16.201C1.684 16.192 1.605 16.146 1.559 16.071C1.524 16.016 1.506 15.939 1.546 15.882C1.558 15.865 1.573 15.855 1.589 15.843z"/>
 <path stroke-width="0.071" stroke-linejoin="round" d="M2.25 16.182C2.238 16.245 2.201 16.295 2.161 16.343"/>
 <path stroke-width="0.071" stroke-linejoin="round" d="M1.722 13.428C1.648 13.403 1.581 13.352 1.556 13.275C1.55 13.256 1.547 13.234 1.548 13.214C1.554 13.135 1.628 13.098 1.7 13.108C1.777 13.121 1.847 13.176 1.879 13.246C1.91 13.31 1.899 13.396 1.826 13.425C1.806 13.432 1.786 13.433 1.766 13.433C1.737 13.432 1.752 13.433 1.722 13.428z"/>
 <line stroke-width="0.071" stroke-linejoin="round" x1="1.972" y1="16.074" x2="1.851" y2="15.856"/>
 <line stroke-width="0.071" stroke-linejoin="round" x1="1.842" y1="15.849" x2="1.603" y2="15.785"/>
 <line stroke-width="0.071" stroke-linejoin="round" x1="1.593" y1="15.787" x2="1.474" y2="15.941"/>
 <line stroke-width="0.071" stroke-linejoin="round" x1="1.851" y1="15.856" x2="1.842" y2="15.849"/>
 <polyline stroke-width="0.071" stroke-linejoin="round" points="1.972 16.074 1.972 16.085 1.911 16.163 1.851 16.239 1.842 16.242 1.603 16.178 1.593 16.17 1.535 16.062 1.532 16.059 1.474 15.952 1.474 15.941"/>
 <line stroke-width="0.071" stroke-linejoin="round" x1="1.593" y1="15.787" x2="1.603" y2="15.785"/>
 <line stroke-width="0.071" stroke-linejoin="round" x1="1.972" y1="10.589" x2="1.851" y2="10.371"/>
 <line stroke-width="0.071" stroke-linejoin="round" x1="1.842" y1="10.362" x2="1.603" y2="10.298"/>
 <line stroke-width="0.071" stroke-linejoin="round" x1="1.593" y1="10.301" x2="1.474" y2="10.455"/>
 <line stroke-width="0.071" stroke-linejoin="round" x1="1.851" y1="10.371" x2="1.842" y2="10.362"/>
 <polyline stroke-width="0.071" stroke-linejoin="round" points="1.972 10.589 1.972 10.599 1.911 10.676 1.851 10.753 1.842 10.756 1.603 10.692 1.593 10.685 1.535 10.577 1.532 10.573 1.474 10.465 1.474 10.455"/>
 <line stroke-width="0.071" stroke-linejoin="round" x1="1.593" y1="10.301" x2="1.603" y2="10.298"/>
 <line stroke-width="0.071" stroke-linejoin="round" x1="33.283" y1="18.565" x2="33.277" y2="18.574"/>
 <line stroke-width="0.071" stroke-linejoin="round" x1="33.798" y1="19.128" x2="33.774" y2="19.157"/>
 <line stroke-width="0.071" stroke-linejoin="round" x1="33.804" y1="24.606" x2="33.774" y2="24.643"/>
 <line stroke-width="0.071" stroke-linejoin="round" x1="33.283" y1="21.903" x2="33.277" y2="21.923"/>
 <path stroke-width="0.071" stroke-linejoin="round" d="M33.078 24.455C33.079 24.434 33.081 24.414 33.091 24.396C33.122 24.324 33.207 24.31 33.277 24.329C33.359 24.352 33.432 24.414 33.463 24.495C33.488 24.561 33.478 24.641 33.409 24.678C33.383 24.693 33.354 24.696 33.325 24.696C33.198 24.682 33.087 24.585 33.078 24.455z"/>
 <path stroke-width="0.071" stroke-linejoin="round" d="M32.996 18.545C32.898 18.599 32.814 18.693 32.789 18.803C32.773 18.87 32.779 18.943 32.779 19.01C32.779 19.01 32.779 19.01 32.779 24.253C32.779 24.321 32.774 24.393 32.787 24.461C32.838 24.707 33.06 24.908 33.299 24.963C33.412 24.989 33.539 24.981 33.637 24.916C33.676 24.89 33.704 24.853 33.734 24.817C33.768 24.772 33.789 24.731 33.804 24.678"/>
 <path stroke-width="0.071" stroke-linejoin="round" d="M33.695 24.865C33.716 24.838 33.723 24.832 33.738 24.8C33.783 24.713 33.774 24.617 33.774 24.521C33.774 24.521 33.774 24.521 33.774 19.278C33.774 19.19 33.78 19.106 33.753 19.021C33.686 18.806 33.491 18.632 33.277 18.574C33.228 18.561 33.182 18.556 33.131 18.553C33.045 18.559 32.96 18.576 32.892 18.635C32.863 18.657 32.86 18.664 32.838 18.693"/>
 <path stroke-width="0.071" stroke-linejoin="round" d="M33.113 19.08C33.094 19.045 33.078 19.01 33.078 18.969C33.078 18.873 33.164 18.824 33.252 18.838C33.344 18.853 33.429 18.922 33.463 19.009C33.488 19.074 33.476 19.157 33.409 19.193C33.383 19.207 33.354 19.21 33.325 19.21C33.235 19.201 33.164 19.153 33.113 19.08z"/>
 <path stroke-width="0.071" stroke-linejoin="round" d="M33.103 21.71C33.106 21.69 33.109 21.673 33.118 21.657C33.151 21.603 33.219 21.594 33.277 21.609C33.344 21.626 33.405 21.676 33.435 21.74C33.462 21.8 33.457 21.876 33.396 21.911C33.374 21.925 33.347 21.928 33.32 21.929C33.207 21.919 33.103 21.829 33.103 21.71z"/>
 <line stroke-width="0.071" stroke-linejoin="round" x1="33.526" y1="19.085" x2="33.406" y2="18.865"/>
 <line stroke-width="0.071" stroke-linejoin="round" x1="33.396" y1="18.858" x2="33.158" y2="18.794"/>
 <line stroke-width="0.071" stroke-linejoin="round" x1="33.146" y1="18.795" x2="33.027" y2="18.949"/>
 <line stroke-width="0.071" stroke-linejoin="round" x1="33.406" y1="18.865" x2="33.396" y2="18.858"/>
 <polyline stroke-width="0.071" stroke-linejoin="round" points="33.027 18.949 33.027 18.96 33.085 19.068 33.088 19.073 33.146 19.178 33.158 19.187 33.277 19.219 33.396 19.251 33.406 19.25 33.466 19.172 33.526 19.096 33.526 19.085"/>
 <line stroke-width="0.071" stroke-linejoin="round" x1="33.146" y1="18.795" x2="33.158" y2="18.794"/>
 <line stroke-width="0.071" stroke-linejoin="round" x1="33.526" y1="24.571" x2="33.406" y2="24.352"/>
 <line stroke-width="0.071" stroke-linejoin="round" x1="33.396" y1="24.344" x2="33.158" y2="24.28"/>
 <line stroke-width="0.071" stroke-linejoin="round" x1="33.146" y1="24.282" x2="33.027" y2="24.437"/>
 <line stroke-width="0.071" stroke-linejoin="round" x1="33.406" y1="24.352" x2="33.396" y2="24.344"/>
 <polyline stroke-width="0.071" stroke-linejoin="round" points="33.027 24.437 33.027 24.448 33.085 24.553 33.088 24.559 33.146 24.666 33.158 24.673 33.277 24.705 33.396 24.737 33.406 24.736 33.466 24.658 33.526 24.58 33.526 24.571"/>
 <line stroke-width="0.071" stroke-linejoin="round" x1="33.146" y1="24.282" x2="33.158" y2="24.28"/>
 <line stroke-width="0.071" stroke-linejoin="round" x1="35.595" y1="20.884" x2="35.636" y2="20.894"/>
 <line stroke-width="0.071" stroke-linejoin="round" x1="35.295" y1="20.786" x2="35.213" y2="20.762"/>
 <line stroke-width="0.071" stroke-linejoin="round" x1="35.734" y1="20.946" x2="35.636" y2="20.92"/>
 <line stroke-width="0.071" stroke-linejoin="round" x1="35.289" y1="21.428" x2="35.207" y2="21.396"/>
 <path stroke-width="0.071" stroke-linejoin="round" d="M35.216 21.399C35.155 21.382 35.127 21.371 35.064 21.359C34.987 21.343 34.908 21.336 34.828 21.333C34.828 21.333 34.828 21.333 34.746 21.333C34.746 21.333 34.746 21.333 34.706 21.324C34.706 21.324 34.706 21.324 34.691 21.318C34.673 21.307 34.662 21.288 34.656 21.269C34.639 21.216 34.64 21.155 34.645 21.1C34.655 20.984 34.686 20.867 34.74 20.762C34.762 20.713 34.792 20.663 34.835 20.632C34.893 20.588 34.956 20.64 35.008 20.67C35.081 20.71 35.158 20.745 35.238 20.769"/>
 <path stroke-width="0.071" stroke-linejoin="round" d="M35.54 21.698C35.503 21.733 35.469 21.759 35.42 21.765C35.359 21.763 35.332 21.716 35.311 21.664C35.283 21.594 35.284 21.507 35.289 21.432C35.295 21.283 35.329 21.132 35.38 20.989C35.414 20.891 35.457 20.794 35.518 20.708C35.539 20.678 35.564 20.65 35.591 20.626C35.606 20.611 35.622 20.602 35.64 20.591C35.64 20.591 35.64 20.591 35.665 20.582C35.765 20.559 35.802 20.681 35.814 20.754C35.814 20.754 35.814 20.754 35.819 20.794C35.819 20.794 35.819 20.794 35.82 20.838C35.82 20.838 35.82 20.838 35.82 20.87"/>
 <path stroke-width="0.071" stroke-linejoin="round" d="M35.954 21.234C35.966 21.172 35.975 21.111 35.972 21.048C35.969 21.018 35.963 20.983 35.945 20.957C35.945 20.957 35.945 20.957 35.89 20.893C35.89 20.893 35.89 20.893 35.878 20.882C35.878 20.882 35.878 20.882 35.84 20.87C35.767 20.87 35.719 20.96 35.692 21.018C35.639 21.123 35.606 21.24 35.597 21.356C35.591 21.413 35.591 21.472 35.609 21.525C35.625 21.571 35.667 21.597 35.715 21.579C35.715 21.579 35.715 21.579 35.786 21.553C35.835 21.533 35.866 21.471 35.889 21.425C35.918 21.364 35.939 21.3 35.954 21.234z"/>
 <path stroke-width="0.071" stroke-linejoin="round" d="M35.633 21.565C35.588 21.643 35.527 21.748 35.427 21.756C35.334 21.739 35.32 21.614 35.316 21.536C35.316 21.536 35.316 21.536 35.314 21.489C35.314 21.489 35.314 21.489 35.316 21.44C35.323 21.306 35.35 21.176 35.39 21.05C35.421 20.949 35.463 20.849 35.518 20.759C35.539 20.722 35.564 20.69 35.591 20.66C35.606 20.644 35.624 20.629 35.64 20.617C35.655 20.609 35.67 20.602 35.686 20.597C35.765 20.582 35.798 20.675 35.81 20.734C35.81 20.734 35.81 20.734 35.816 20.774C35.816 20.774 35.816 20.774 35.819 20.817C35.819 20.817 35.819 20.817 35.82 20.864L35.82 20.871"/>
 <path stroke-width="0.071" stroke-linejoin="round" d="M35.771 20.882C35.753 20.841 35.725 20.839 35.683 20.829C35.625 20.832 35.585 20.891 35.558 20.939C35.509 21.022 35.478 21.118 35.459 21.213C35.445 21.277 35.438 21.344 35.442 21.411C35.445 21.443 35.45 21.483 35.468 21.512L35.493 21.535C35.493 21.535 35.493 21.535 35.543 21.548C35.543 21.548 35.543 21.548 35.561 21.548C35.576 21.547 35.582 21.541 35.597 21.532"/>
 <path stroke-width="0.071" stroke-linejoin="round" d="M35.68 21.585C35.613 21.562 35.615 21.461 35.618 21.403C35.621 21.262 35.661 21.111 35.734 20.989C35.761 20.94 35.801 20.876 35.862 20.876"/>
 <path stroke-width="0.071" stroke-linejoin="round" d="M35.515 20.711C35.523 20.702 35.545 20.655 35.564 20.681L35.567 20.687"/>
 <path stroke-width="0.071" stroke-linejoin="round" d="M35.543 21.548C35.478 21.524 35.479 21.425 35.481 21.367C35.485 21.225 35.526 21.074 35.597 20.952C35.625 20.905 35.664 20.839 35.726 20.839"/>
 <path stroke-width="0.071" stroke-linejoin="round" d="M35.786 21.553C35.786 21.553 35.786 21.553 35.77 21.557C35.704 21.554 35.703 21.464 35.703 21.416C35.703 21.288 35.74 21.15 35.802 21.039C35.802 21.039 35.802 21.039 35.82 21.012C35.838 20.983 35.878 20.929 35.92 20.94C35.932 20.943 35.936 20.949 35.945 20.957"/>
 <path stroke-width="0.071" stroke-linejoin="round" d="M35.787 20.888C35.787 20.888 35.787 20.888 35.722 20.87C35.722 20.87 35.722 20.87 35.706 20.868C35.643 20.887 35.607 20.954 35.581 21.009C35.527 21.118 35.493 21.246 35.493 21.37C35.493 21.411 35.494 21.466 35.523 21.501C35.542 21.525 35.588 21.53 35.613 21.536"/>
 <path stroke-width="0.071" stroke-linejoin="round" d="M35.453 20.818C35.453 20.818 35.453 20.818 35.441 20.818C35.393 20.832 35.363 20.876 35.34 20.917C35.283 21.018 35.25 21.138 35.241 21.254C35.238 21.306 35.234 21.399 35.289 21.428"/>
 <line stroke-width="0.071" stroke-linejoin="round" x1="35.314" y1="21.489" x2="35.441" y2="21.376"/>
 <path stroke-width="0.071" stroke-linejoin="round" d="M35.137 21.376C35.106 21.362 35.097 21.332 35.091 21.3C35.081 21.233 35.09 21.161 35.104 21.096C35.122 21.012 35.152 20.926 35.2 20.856C35.216 20.827 35.244 20.789 35.28 20.786C35.28 20.786 35.28 20.786 35.295 20.786C35.295 20.786 35.295 20.786 35.371 20.804C35.371 20.804 35.371 20.804 35.453 20.818"/>
 <path stroke-width="0.071" stroke-linejoin="round" d="M35.749 20.925C35.799 20.94 35.765 20.926 35.837 20.989"/>
 <path stroke-width="0.071" stroke-linejoin="round" d="M34.796 20.67C34.863 20.687 34.923 20.725 34.987 20.753C35.06 20.783 35.137 20.811 35.216 20.832C35.274 20.847 35.316 20.856 35.374 20.867C35.392 20.868 35.414 20.87 35.432 20.864"/>
 <path stroke-width="0.071" stroke-linejoin="round" d="M34.746 21.333C34.679 21.309 34.68 21.21 34.682 21.152C34.686 21.01 34.726 20.859 34.798 20.736C34.826 20.69 34.865 20.626 34.927 20.625"/>
 <line stroke-width="0.071" stroke-linejoin="round" x1="34.435" y1="23.989" x2="34.435" y2="19.629"/>
 <line stroke-width="0.071" stroke-linejoin="round" x1="35.003" y1="20.667" x2="35.003" y2="19.638"/>
 <path stroke-width="0.071" stroke-linejoin="round" d="M34.593 24.135C34.593 24.135 34.593 24.135 34.628 24.018C34.628 24.018 34.628 24.018 34.89 23.189C34.935 23.048 34.976 22.911 34.994 22.765C35.005 22.678 35.003 22.591 35.003 22.504C35.003 22.504 35.003 22.504 35.003 21.471C35.003 21.471 35.003 21.471 35.003 21.349"/>
 <line stroke-width="0.071" stroke-linejoin="round" x1="35.222" y1="24.355" x2="35.222" y2="25.077"/>
 <line stroke-width="0.071" stroke-linejoin="round" x1="35.298" y1="24.983" x2="35.222" y2="25.077"/>
 <line stroke-width="0.071" stroke-linejoin="round" x1="35.298" y1="24.983" x2="35.222" y2="24.96"/>
 <line stroke-width="0.071" stroke-linejoin="round" x1="0.733" y1="15.07" x2="0.423" y2="15.454"/>
 <line stroke-width="0.071" stroke-linejoin="round" x1="0.59" y1="0.536" x2="0.977" y2="0.057"/>
 <line stroke-width="0.071" stroke-linejoin="round" x1="34.744" y1="9.147" x2="34.359" y2="9.628"/>
 <line stroke-width="0.071" stroke-linejoin="round" x1="34.911" y1="10.275" x2="35.298" y2="9.795"/>
 <line stroke-width="0.071" stroke-linejoin="round" x1="1.207" y1="10.33" x2="1.143" y2="10.41"/>
 <line stroke-width="0.071" stroke-linejoin="round" x1="1.207" y1="15.817" x2="1.143" y2="15.897"/>
 <line stroke-width="0.071" stroke-linejoin="round" x1="34.911" y1="34.215" x2="35.298" y2="33.734"/>
 <line stroke-width="0.071" stroke-linejoin="round" x1="34.834" y1="24.251" x2="34.524" y2="24.634"/>
 <line stroke-width="0.071" stroke-linejoin="round" x1="34.261" y1="19.638" x2="33.97" y2="19.996"/>
 <line stroke-width="0.071" stroke-linejoin="round" x1="33.97" y1="23.986" x2="34.28" y2="23.603"/>
 <line stroke-width="0.071" stroke-linejoin="round" x1="32.698" y1="24.391" x2="32.762" y2="24.312"/>
 <path stroke-width="0.071" stroke-linejoin="round" d="M32.792 24.48C32.756 24.387 32.762 24.286 32.762 24.19C32.762 24.19 32.762 24.19 32.762 18.948C32.762 18.858 32.756 18.768 32.787 18.682C32.787 18.682 32.787 18.682 32.811 18.635"/>
 <path stroke-width="0.071" stroke-linejoin="round" d="M32.698 18.905C32.703 18.844 32.701 18.821 32.722 18.763C32.722 18.763 32.722 18.763 32.753 18.702C32.85 18.55 33.042 18.513 33.207 18.545C33.463 18.597 33.7 18.798 33.78 19.047C33.808 19.14 33.804 19.231 33.804 19.326C33.804 19.326 33.804 19.326 33.804 24.568C33.804 24.621 33.807 24.705 33.798 24.763C33.773 24.905 33.667 25.012 33.529 25.047C33.463 25.062 33.444 25.059 33.377 25.059C33.301 25.05 33.284 25.051 33.213 25.027C32.99 24.954 32.795 24.771 32.722 24.548C32.694 24.455 32.698 24.364 32.698 24.268C32.698 24.268 32.698 24.268 32.698 19.027C32.698 18.87 32.671 18.937 32.762 18.826"/>
 <path stroke-width="0.071" stroke-linejoin="round" d="M34.911 19.751C34.911 19.751 34.911 19.751 34.793 19.719C34.793 19.719 34.793 19.719 34.643 19.678C34.585 19.663 34.506 19.638 34.445 19.631C34.445 19.631 34.445 19.631 34.368 19.625C34.304 19.629 34.284 19.626 34.225 19.646C34.094 19.686 34 19.792 33.976 19.925C33.968 19.981 33.97 20.067 33.97 20.118C33.97 20.118 33.97 20.118 33.97 23.864C33.97 23.957 33.966 24.045 33.993 24.134C34.057 24.349 34.238 24.524 34.445 24.606C34.506 24.632 34.579 24.649 34.643 24.666C34.643 24.666 34.643 24.666 34.793 24.707C34.793 24.707 34.793 24.707 34.911 24.739"/>
 <path stroke-width="0.071" stroke-linejoin="round" d="M35.298 24.983C35.298 24.983 35.298 24.983 35.298 25.103C35.298 25.103 35.298 25.103 35.298 33.612C35.298 33.698 35.305 33.787 35.277 33.869C35.249 33.948 35.185 34.012 35.134 34.076C35.134 34.076 35.134 34.076 34.901 34.365C34.901 34.365 34.901 34.365 34.823 34.46C34.762 34.529 34.677 34.567 34.588 34.581C34.588 34.581 34.588 34.581 34.515 34.585C34.515 34.585 34.515 34.585 34.439 34.579C34.375 34.572 34.298 34.548 34.24 34.531C34.24 34.531 34.24 34.531 0.708 25.504C0.613 25.478 0.52 25.455 0.433 25.41C0.261 25.318 0.115 25.161 0.059 24.972C0.032 24.882 0.036 24.795 0.036 24.702C0.036 24.702 0.036 24.702 0.036 15.471C0.036 15.471 0.036 15.471 0.036 15.349C0.036 15.349 0.036 15.349 0.113 15.253C0.113 15.253 0.113 15.253 0.269 15.06C0.269 15.06 0.269 15.06 0.346 14.965C0.346 14.965 0.346 14.965 0.464 14.997C0.464 14.997 0.464 14.997 0.615 15.038C0.732 15.07 0.855 15.111 0.977 15.083"/>
 <path stroke-width="0.071" stroke-linejoin="round" d="M0.036 10.362C0.036 10.362 0.036 10.362 0.154 10.394C0.154 10.394 0.154 10.394 0.306 10.433C0.368 10.451 0.442 10.468 0.503 10.493C0.709 10.574 0.89 10.752 0.954 10.967C0.981 11.055 0.977 11.144 0.977 11.236C0.977 11.236 0.977 11.236 0.977 14.981C0.977 15.032 0.981 15.118 0.971 15.175C0.949 15.308 0.853 15.413 0.723 15.455C0.663 15.474 0.642 15.471 0.58 15.474C0.58 15.474 0.58 15.474 0.503 15.47C0.441 15.461 0.364 15.436 0.306 15.422C0.306 15.422 0.306 15.422 0.154 15.381C0.154 15.381 0.154 15.381 0.036 15.349"/>
 <path stroke-width="0.071" stroke-linejoin="round" d="M34.911 19.751C34.911 19.751 34.911 19.751 34.988 19.655C34.988 19.655 34.988 19.655 35.145 19.463C35.145 19.463 35.145 19.463 35.222 19.367C35.222 19.367 35.222 19.367 35.222 19.245C35.222 19.245 35.222 19.245 35.222 18.766C35.222 18.766 35.222 18.766 35.222 18.644C35.222 18.644 35.222 18.644 35.298 18.548C35.298 18.548 35.298 18.548 35.298 18.426C35.298 18.426 35.298 18.426 35.298 9.917C35.298 9.826 35.304 9.737 35.277 9.649C35.219 9.461 35.073 9.301 34.902 9.211C34.816 9.163 34.722 9.141 34.628 9.115C34.628 9.115 34.628 9.115 1.094 0.089C1.036 0.073 0.959 0.049 0.897 0.041C0.897 0.041 0.897 0.041 0.82 0.035C0.82 0.035 0.82 0.035 0.746 0.04C0.658 0.053 0.572 0.092 0.511 0.16C0.511 0.16 0.511 0.16 0.435 0.255C0.435 0.255 0.435 0.255 0.201 0.545C0.15 0.608 0.087 0.672 0.059 0.751C0.029 0.834 0.036 0.922 0.036 1.008C0.036 1.008 0.036 1.008 0.036 10.24C0.036 10.24 0.036 10.24 0.036 10.362"/>
 <path stroke-width="0.071" stroke-linejoin="round" d="M0.124 0.64C0.167 0.6 0.174 0.588 0.227 0.561C0.314 0.516 0.414 0.507 0.509 0.52C0.572 0.529 0.649 0.552 0.708 0.568C0.708 0.568 0.708 0.568 34.24 9.596C34.335 9.621 34.427 9.644 34.515 9.689C34.686 9.782 34.832 9.939 34.889 10.128C34.915 10.217 34.911 10.305 34.911 10.397C34.911 10.397 34.911 10.397 34.911 19.629C34.911 19.629 34.911 19.629 34.911 19.751"/>
 <path stroke-width="0.071" stroke-linejoin="round" d="M1.167 10.269C1.195 10.214 1.199 10.198 1.241 10.153C1.367 10.022 1.572 10.018 1.734 10.073C1.979 10.153 2.201 10.371 2.243 10.63C2.254 10.692 2.25 10.769 2.25 10.83C2.25 10.83 2.25 10.83 2.25 16.073C2.25 16.126 2.254 16.21 2.243 16.268C2.218 16.411 2.112 16.516 1.974 16.551C1.909 16.568 1.889 16.564 1.822 16.565C1.746 16.556 1.73 16.556 1.657 16.533C1.437 16.458 1.24 16.277 1.167 16.051C1.139 15.961 1.143 15.869 1.143 15.774C1.143 15.774 1.143 15.774 1.143 10.532C1.143 10.477 1.14 10.394 1.149 10.336C1.149 10.336 1.149 10.336 1.167 10.269z"/>
 <path stroke-width="0.071" stroke-linejoin="round" d="M1.238 15.984C1.201 15.891 1.207 15.791 1.207 15.693C1.207 15.693 1.207 15.693 1.207 10.452C1.207 10.362 1.201 10.274 1.233 10.188C1.233 10.188 1.233 10.188 1.258 10.14"/>
 <path stroke-width="0.071" stroke-linejoin="round" d="M1.859 16.481C1.964 16.495 2.075 16.475 2.164 16.416C2.164 16.416 2.164 16.416 2.201 16.385"/>
 <path stroke-width="0.071" stroke-linejoin="round" d="M35.222 24.355C35.222 24.355 35.222 24.355 35.145 24.449C35.145 24.449 35.145 24.449 34.988 24.643C34.988 24.643 34.988 24.643 34.911 24.739C34.911 24.739 34.911 24.739 34.911 24.861C34.911 24.861 34.911 24.861 34.911 34.091C34.911 34.177 34.918 34.267 34.889 34.35C34.869 34.404 34.856 34.414 34.823 34.46"/>
 <path stroke-width="0.071" stroke-linejoin="round" d="M34.28 19.632C34.28 19.632 34.28 19.632 34.28 19.756C34.28 19.756 34.28 19.756 34.28 23.481C34.28 23.573 34.277 23.661 34.302 23.75C34.368 23.964 34.548 24.141 34.753 24.224C34.816 24.248 34.889 24.265 34.953 24.282C34.953 24.282 34.953 24.282 35.103 24.323C35.103 24.323 35.103 24.323 35.222 24.355"/>
 <path stroke-width="0.071" stroke-linejoin="round" d="M33.412 24.977C33.518 24.99 33.628 24.971 33.719 24.911C33.719 24.911 33.719 24.911 33.755 24.881"/>
 <clipPath id="iso146237" fill="none" stroke="none">
  <path d="M0 34.621L0 34.621 0 34.621 0 34.621 0 34.621z"/>
 </clipPath>
 <g clip-path="url(#iso146237)">
  <line stroke="#FFFFFF" stroke-width="0.353" stroke-linecap="butt" stroke-miterlimit="10" x1="0" y1="34.621" x2="0.353" y2="34.268"/>
 </g>
 <path stroke="none" d="M0 34.621L0 34.621 0 34.621 0 34.621 0 34.621z"/>
</svg>
