<?xml version="1.0" encoding="utf-8"?>
<!-- Generator: Adobe Illustrator 21.1.0, SVG Export Plug-In . SVG Version: 6.00 Build 0)  -->
<svg version="1.1" id="Ebene_1" xmlns="http://www.w3.org/2000/svg" xmlns:xlink="http://www.w3.org/1999/xlink" x="0px" y="0px"
	 viewBox="0 0 1400 1400" style="enable-background:new 0 0 1400 1400;" xml:space="preserve">
<style type="text/css">
	.st0{fill:none;}
	.st1{fill:none;stroke:#000000;stroke-width:2;stroke-linecap:round;stroke-width:4;}
	.st2{fill:none;stroke:#FFFFFF;stroke-width:2;stroke-miterlimit:10;}
</style>
<path class="st0" d="M1300,418.2H100v563.6h1200V418.2z"/>
<path class="st1" d="M599.4,672.3c12.3,6.1,29.4,7,43.4,3 M768.1,819.8c-23,7.6-48.2,38.5-70,82.1 M692.6,913.4
	c-1.1,2.6-2.2,5.4-2.8,8c-2.5,9.5-2,18,1.1,19.5 M629.3,896c-1.2,2.7-2.3,5.6-3,8.6c-2.6,10.1-2.1,19,1.2,20.6 M692.8,940.9
	c23-7.6,48.2-38.5,70-82.1 M768.3,847.3c1.2-2.5,2.1-5.3,2.9-7.9c2.5-9.5,2-18-1.1-19.5 M705.3,801.9c-19.3,6.3-40.1,29-59,61.4
	 M603.8,814c-5.9-1.6-14.3,10.9-18.8,27.8c-4.4,16.6-3.4,31.4,2.3,33.3"/>
<path class="st1" d="M604,814.1l-0.2-0.1L604,814.1z M440.9,674.6c0-8.5-12.1-15.5-26.9-15.4c-14.9,0-26.9,7-26.8,15.6
	c0,8.5,12.1,15.4,26.9,15.4C428.9,690.1,440.9,683.1,440.9,674.6z M245.7,795.3c2.2,3.6,6.2,6.8,10.1,8.1"/>
<path class="st1" d="M256.4,817.6c4.1-5,1.8-13.5-5-19c-6.8-5.5-15.6-5.9-19.7-0.9c-4,5-1.8,13.6,5,19
	C243.5,822.3,252.4,822.6,256.4,817.6z M258,896.3c4.5-5.5,2.1-14.9-5.4-21c-7.4-6-17.1-6.5-21.6-0.9c-4.5,5.5-2.1,14.9,5.4,20.9
	S253.6,901.8,258,896.3z M257.3,741c4.5-5.5,2-14.9-5.4-20.9c-7.5-6.1-17.2-6.5-21.7-1c-4.4,5.5-2,14.9,5.5,20.9
	C243.1,746.1,252.8,746.5,257.3,741L257.3,741z M168.4,793.2c3.4-4.2,1.6-11.4-4.1-16s-13.2-4.9-16.5-0.7c-3.5,4.2-1.6,11.4,4.1,16
	C157.6,797.1,165,797.5,168.4,793.2z M894.5,600.2c-18.3-4.1-43.3,29.9-59.7,79.3 M824.6,718.7c-10,52.1-3.6,91.7,14.2,95.9
	 M1056.5,685.7c-12.9-3.3-31.3,24-41.2,61.2c-9.8,37.2-7.3,70,5.6,73.5h0.1 M1109.6,717.3c-9.8-2.6-23.7,18.1-31.2,46.2
	c-7.4,28.1-5.5,53,4.2,55.6c0.4,0.1,0.8,0.2,1.2,0.2 M1112.1,718.7c-0.8-0.7-1.7-1.2-2.5-1.3 M1083.8,819.3
	c9.8,0.8,22.9-19.7,30-46.4c6.7-25.3,5.9-48.1-1.6-54.3 M881.2,652.3c-10.5-2.8-25.7,19.6-33.7,50c-7.8,29.6-6.1,56,3.8,59.8
	 M882,652.6l-0.7-0.3 M904.8,673.6c-6.5,11.4-11.9,25.6-15.7,39.7c-9.9,37.2-7.4,70.1,5.5,73.5h0.2 M930.3,652.2
	c-4.1-1-9,1.1-13.6,5.6 M895,600.3l-0.4-0.1 M913.3,658.1c1.4-33.7-5.9-54.4-18.3-57.8 M865.8,592.6c-18.4-4-43.3,30-59.8,79.5
	 M794.2,721.1c-7.5,47.9-0.5,82.1,15.9,85.9 M838.8,814.6c13.5,3,30.5-14.5,45.2-43.7 M719.1,684.5c-1.4,14.3,1.2,23.7,6.3,24.7
	 M695.4,760c3.8,1,7.2,0.2,9.3-1.8 M561,672.9c0,5.1,4.2,10.5,9.7,12.8 M466,790.5c0.1,5.1,4.3,10.5,9.8,12.8 M558,845.5
	c0-5.1-4.2-10.5-9.7-12.8 M476.4,935.1c-5.7-0.7-9.7,2.6-9.7,7.6 M548.7,944.1c3.1,0.4,5.8-0.5,7.5-2.2 M408.2,833.2
	c5.9,0.5,11.7,0.3,16.8-0.4c21.7,21.6,35.9,15.9,33.8-12.1"/>
<path class="st1" d="M340.5,838.8c3.5-4.2,1.6-11.3-4.1-16c-5.7-4.6-13.2-4.9-16.5-0.7c-3.4,4.2-1.6,11.4,4.2,16
	C329.7,842.8,337.1,843.1,340.5,838.8L340.5,838.8z M692.6,913.4l5.5-11.5 M768.3,847.3l-5.5,11.5 M587.3,875.1l46.1,12.3
	 M668.4,831.2L604,814.1 M466.8,942.7l6-7.5 M561,672.9l-95,117.6 M475.8,803.3l94.9-117.6 M681.4,773.7l-12.1,15 M681.4,773.7
	l-12.1-3.2 M706.8,742.3l-15.6-4.2 M693.9,734.8l15.6,4.2 M709.3,692l-15.4-4.1 M797.8,649.8l14.9,4 M1073.2,695.2l225.3-144.7
	l0.2,36.2 M1102.4,712.8l196.3-126.1 M882,652.6l31.6,8.4 M884.5,771l-33.2-8.8 M913.3,658.1l-0.2,2.8 M865.8,592.6l28.7,7.6
	 M838.8,814.6l-28.7-7.7 M725.3,709.2l68,18 M719.2,683.4l-0.1,1.1 M704.7,758.2l36.2-44.8 M677.5,755.2l17.9,4.8 M641.4,714.6
	l19.4-24 M548.2,832.7l95-117.6 M561,672.9l-0.2-37.6 M643.2,715.1l-72.5-29.4 M548.2,832.7l-72.4-29.4 M558.4,936.4l-0.4-90.9
	 M466.8,942.7l0.1,37.8 M548.7,944.1l-72.3-9 M606.2,880.2l-50,61.7 M501.1,938.2l-34.2,42.3l-364.2-96.6 M465.8,752.8l-364.2-96.6
	 M484.4,852.1l13.5,3.5 M498,894.4l-13.4-3.6 M383.1,825.2l13.5,3.6 M412.2,808.4l-15.6,20.4 M425,832.8l-28.2,34.7 M468.5,823.3
	l-56.3-14.9 M396.6,828.8l16.3-20.3 M383.3,864l-0.2-38.8 M383.3,864l13.5,3.5l15.9,28.8l56.2,14.9 M497.9,855.6l0.1,38.8
	 M468.5,823.3l15.9,28.8 M412.7,896.3l57.1-70.7 M433.7,840.3l-0.2-26.3 M629.3,896c5.4-11.1,11-21.9,17.1-32.7 M692.8,940.9
	l-1.1,0.2l-64.3-15.9 M705.3,801.9c1.2-0.1,0.9-0.3,2,0.1l12.1,3.5l38.4,11L770,820 M649.7,826.2l7.9-9.8l14.6-18.1l8-9.9l0.7-1.3
	c1.3-3.5,0.5-11.7,0.5-13.4 M669.3,788.7l-0.1-23.3l8-9.8l24.2-30l8-9.9l0.1,23.3c-4.8,27.1-2.9-49.3-2.6,13.6 M669.1,741.7l8-9.9
	l24.2-30c9.3-11.5,8-5.6,7.9-16.4 M824.6,718.7c2.8-13.3,6.2-26.2,10.3-39.2 M985.3,666.8l11.3-5.8l233.2-119.9l11.3-5.9l12.2,3.3
	l32.9,8.7l12.3,3.3 M1083.8,819.4c-20.1,0.4-40.3,0.8-60.3,1.2l-2.5-0.3l-12.2-3.2l-101.7-27l-12.2-3.2 M930.3,652.2l12.3,3.3
	l101.7,27l12.2,3.2l2.3,1c18.1,10.2,35.6,21.3,53.4,31.9 M904.8,673.6c3.6-5.8,7.2-10.9,11.9-15.8 M794.2,721.1
	c2.9-16.6,6.9-32.8,11.9-49 M705.6,757c0.6-1.2,0.9-1.4,1.2-2.7l0.1-1.6l7.9-9.8l16.2-20.2l8-9.8 M681,693.1l0.1,10.4L669,718.4
	l0.1,23.3 M680.2,689.4c2,6.9-0.1,4.9-7.2,13.6L565.9,835.7l-8,9.8 M196.6,538.6l12.2,3.2l18.5,5l12.3,3.3l6.7,10.7l39.3,61.9
	l6.8,10.7l12.4-2.6l120.3-25.7l12.3-2.6l12.3,3.2l98.9,26.3l12.2,3.3 M466,790.5l-0.1-25l-0.1-12.7l8-9.9l79-97.8l8-9.8
	 M196.6,538.6l-8,9.8l-79,97.9c-10.6,13.1-8,5.7-8,22.6l1,202.4V884 M408,814.6l0.2,18.6l-7.9,9.8l-9.1,11.1l-7.9,9.9 M468.9,911.2
	c9.6-12.4,19.2-24.7,29-37 M767.5,849c23.6-10.5,42.3-24.6,53.5-39.1 M723.7,806.7c27.3-6.4,51.5-16.8,69-28.7 M836.8,527.1v-0.7
	 M690.2,631.5c86.7-10.5,146.5-54.6,146.6-104.4 M525.7,604.4c23.7,13.2,52.1,21.9,81,26 M518.9,583.7c-5.7,7.2-2.6,15.4,6.8,20.7
	 M560.9,525.9c-0.1-8.8-9-16.2-22.2-19.7 M557.4,535.2c2.4-3.1,3.5-6.3,3.4-9.2"/>
<path class="st1" d="M837.1,584v-0.3V584z M685.5,689c88.9-9.4,151.5-54,151.6-104.9 M420.6,419.8c-11.7-1.4-23.3,2.2-28.2,8.3
	 M688.4,758.1l-11.5,14.4 M516,591.6l0.1,31.8 M510.5,621.9l-0.3-66.2l25.6,6.6 M557.4,535.2l-38.5,48.5 M366,461.3l172.7,44.9
	 M642.7,675v15.6 M686.2,813.2c-9.1,0.8-18.1,1.4-27.2,1.6 M606.6,630.4c13.9,1.9,27.7,3.2,41.7,3.4c14,0.1,27.9-0.9,41.8-2.3
	 M560.9,661c26.7,8.6,53.9,12.7,81.8,14 M685.5,689c-10.7,0.9-21.3,1.5-32,1.7l-10.8-0.1 M831.6,502.3c2.2,6,4,11.6,4.8,18l0.4,6.1
	l0.1,12.7L837,571l0.1,12.7 M420.6,419.8l12.6,1.5l145.6,17l12.6,1.5l12.2,3.2l215.7,56.2l12.3,3.1 M366.8,617.6l-0.1-12.7l-0.6-131
	l-0.1-12.6l7.9-9.9l10.7-13.4l7.8-9.9"/>
<path class="st2" d="M100,981.8l13.2-13.1"/>
<path class="st0" d="M100,981.8"/>
</svg>
