<svg xmlns="http://www.w3.org/2000/svg" xmlns:xlink="http://www.w3.org/1999/xlink"
    viewBox="0 0 1200 1200" enable-background="new 0 0 1200 1200">
    <style type="text/css">.st0{fill:none;} .st1{fill:none;stroke:#000000;stroke-linecap:round;stroke-width:3} .st2{clip-path:url(#SVGID_2_);} .st3{fill:none;stroke:#FFFFFF;stroke-miterlimit:10;}</style>
    <path class="st0" d="M1116.8 0h-1033.6v1200h1033.7l-.1-1200z"/>
    <path class="st1"
        d="M249.5 883.7c-2.2-.6-4-3.9-5-5.6-3.5-7.3-4.6-16.1-5.3-24.1-2.8-28.4-.9-57.3 2-85.5 2-19.5 4.8-38.9 7.9-58.5 2.1-11.3 6.1-25.1 2-36.5-4.6-12.9-19.5-21.8-29.8-28.6-11.3-7.3-22-13.3-34.3-18.8-15.9-7.3-32.4-13.5-49.9-15-5.9.1-7.7-.2-13.5 1.2-4.2 1-8.1 2.4-11.7 4.8-19 11.7-18.6 35.9-21.3 55.3-2.8 18.4-3.6 41.6-3.6 60.3l.9 29.8c2.2 42.1 3 88.9 42.1 113.6 6.2 3.9 12.9 7.1 20 9 14.8 3.9 29.9 6.4 45 6.9 18.2.7 37.4-1.1 54.7-7.3l-.2-1zM241.2 875.5c-3.3 2.5-7 6.7-11.2 7.9-12.9 3.1-18 2.8-31.2 3.5-34.4-1.3-71.3-5.3-90.4-37.6-2.7-4.4-4.6-9.1-6.2-13.8l-1.7-7.4-4.1-30.3c-2.2-19.9-3.3-39.9-3.3-59.9l.8-29.2 2.5-28.8c2.3-20.6 2.9-47 26.3-54.6 4-1.2 8.2-1.8 12.3-1.8 16.1-.1 32.8 7.3 47.1 13.8 16.8 7.6 33.3 17.4 47.8 28.8 14.3 11.4 12.3 34.7 11.2 50-2 27-3.3 53.9-4.2 80.8l-.4 22.5.3 19 .1 8.1c.4 11.1-.7 32.3 12.3 37.3M321.8 614l-1-.3c-16.1 1.2-27.2 13.3-36.5 25.5-15.8 21.5-26 46.1-35.3 70.7M249.7 881.9c-12.4-18.5-11.6-46.1-10.5-67.1 2.9-51.1 17-103.4 40.6-148.8 9.2-17.4 22.3-42 41.5-50.5M194.2 551.9c22.9 5 44.8 14.2 65.1 25.9 16 9.4 30.3 24.1 47.2 31.7 4.9 2.1 10.3 3 15.3 4.2M250.4 854.8c-4.9-48.8 6.3-99.8 22.8-145.5 8.7-24.4 19.6-48.9 35.2-69.8M99.3 630.2c6.7-13.6 14.5-26.5 23.4-38.9 14.3-19.4 36.8-40.5 62.5-39.9 10.9.2 22.1 4.1 32.3 7.6 12.1 4.4 23.7 9.7 35.1 15.9 15 8.2 19.2 11.7 33.1 21.7 7.1 5 13.6 10.6 21.5 13.8"/>
    <path class="st1"
        d="M204.4 801c-8.2 5.6-15.5 8.1-25.4 9.3-31.1-.3-60.5-18.9-72.9-48-9.4-21.8-4.9-49.4 19.7-58.5 31.4-11.5 67.8 11.1 83.2 37.8 11.3 19.8 12 42.7-4.6 59.4zM209.6 776.4c1.5-6 1.8-10.6 1.3-16.8M125.4 713.1c-12.1 11.4-12.2 28.8-5.6 43.2 12.8 28.8 61.4 57.5 86.4 26.2M205.1 784.4c3.9-5.8 2.1-2.8 5-9.2M210.9 760.7c-1.3-6.7-3.3-12.3-6.1-18.5M167.9 710.2c-6.6-2.1-12.6-3.5-19.6-4.1l-6.2.2M167.3 709.9c16.4 7.3 28.4 17.6 37.7 32.8M199.3 734c-10.6-4.9-20.8-12.2-27.4-22.1M124.4 714c5.3-4.1 2.5-2.4 8-5.1M142.7 706.3c-7 1.2-3.5.3-10.5 2.7M322.2 614.6c-13.4 23.2-25.2 47-34.9 72.1-6.5 16.7-11.9 33.7-16.8 51.1-16.7 59.2-26.5 123.3-17.5 184.8 3.6 25.5 11.2 50.8 24.7 72.8 6 9.6 12.8 17.7 20.1 26.2M383.8 633.6c-35.2 75.3-59.3 155.4-68.8 238-4.9 42.9-7 88.3 3.5 130.4 4.2 17.7 11.6 38 27.3 49 7.6 5.3 18.4 7.2 27.5 8.5 21.5 2.8 44.1-.3 64.3-8.1 46.5-17.4 80.4-58.4 103.9-100.7M597.1 699.5c-2-21.5-8.8-51.4-34.9-52-28.2 7.1-45.6 36.7-58.5 60.6-31.2 58.4-50 128.7-50 195l.4 14.6 1.2 13.4c2.4 18.5 10.8 53.5 36.8 47.9l7.1-2.4c5.5-2.5 10.7-6.5 15.2-10.6 5.6-5.1 11.6-12.1 15.9-18.4M608.1 702.5l.2-7.6-.2-14.8-2.8-26.7c-6.7-47.3-27.5-93.2-69.3-119.4M526 673.7c4.1-14.9 8-29.4 9.4-44.9l.6-13.4v-338M526 673.7v-324.4c0-40.3-3.5-81.6 26.1-113M577.3 222.1c10.4-2.2 20.7-3.6 31.5-4M607.7 218.1c14 .7 27 2.2 40.9 4.9M644.2 221.8c72.2 19.5 130.3 65.5 166.1 131.3M808.9 350.5c7.6 16.5 12.9 32.6 16.8 50.4M1040.6 669.9c54.3 34.1 72.2 100 72.2 160.9 0 24.1-1.8 48.4-5.5 72.3-3.6 23.8-8.8 47.2-15.4 70.5-4.9 17.4-10.5 34.4-16.9 51.2-26 67.4-69.5 144.7-143.8 166.2-13.5 3.9-27.1 5-41.1 5.2-14.9-1.1-29.8-3.4-43.5-9.1-9.8-4-20.1-9.6-28.5-16-64.1-48.6-69.5-137-60.7-210.5 2.1-17.5 5.1-34.8 8.6-51.9 5.3-23.4 11.7-46.8 19.7-69.6 7.3-21.5 16.1-42.4 26.4-62.6l14.4-26.2v-42.9l.1-245.6c0-22.7.9-43.8-1.9-66.1M315 626.9c13.9-24.9 6.9-7.6 7.1-55.3v-245.5c0-43.9-.7-87 12.1-129.5 30-102 119.7-172.2 223-188.5 160-25.3 325.4 67.4 414 197.3 32 46.8 57.1 101.5 65.1 158 2.3 16.9 7.6 38.7 4.3 57.3M1030.7 442.5l.3-.3M321.8 614.6c2.5 0 6 1.8 8.3 2.5l15.5 5.3c15.6 5 31.3 9.4 47 13.6 26.2 6.7 52.4 12.4 78.5 18.8 18.9 4.4 38 8.8 54.9 18.8M536 281.8c.7-6.1.9-12.2 1.8-18.4M567 226.4l-5.8 3.1-8.8 5.9M536.2 270.1l5.1-17.9M563.3 227.8l18.2-6.6M390 96.3c15.2-15.2 30.3-28.6 49-39.8 68.4-41 153.4-44 229.6-26 149.1 35.2 284.1 149.5 339 293.2 11.7 30.6 19.6 62.8 22 95.4l1.1 23.2v367l-15.2 21.9c-8.2 13.4-15 27.4-21.1 41.8-20.1 47.4-33.2 99.2-35.7 150.6-1.2 21.7-.9 44.9 6.1 65.7 5 14 15.2 29 31.9 25.4 5.3-1.1 10.3-3.9 14.6-6.7 26.5-18.7 43.1-52.8 55.2-81.6M1027.5 848.6c-32.7 47.8-51.3 109.8-51.1 168l.3 11.7 1.1 10.6c2.2 15.6 10.4 41.8 31.3 33.3 5.3-2.1 7.6-4.3 12.1-8.1M888.3 769.3c-43.2 92.9-72.4 196.5-72.3 299.5l.3 19.4c1.7 35.5 6.4 84.1 41.7 102.9M826.5 750.4c5.3 0 12.7 4.2 17.7 6 14.5 4.6 29.4 9.1 44.1 12.9 28.9 7.9 58 14.2 87 21.3 19 4.5 38.3 8.8 55.3 18.7M1040.5 413v43.2l.1 252.2v42.9l-.7 13.5c-1.4 15.4-5.3 29.8-9.3 44.6 5.8-6.5 8.2-9.8 14.9-15.6 4.2-3.3 9.2-6.6 14.5-8.6 28.6-10.8 38.7 27 41.4 47.4l1.1 12.8.4 14.2-.4 15.9-1.3 16.6-1.1 8.6M313.5 1035.1c12.7 8.5 25.2 14.9 39.8 19.9M754.5 1008l-41.5-11.3-178-47.8c-12.2-3.2-44.5-5-54.2-21.6-10.2-17-9.7-40.3-8.8-59.3 2.5-42.6 13.9-85.9 32.6-124.2 7.7-16.4 17.3-33.2 30.7-45.5 5-4.2 11.1-8.5 17.8-9.4l5.1.2 41.5 10.9 180.1 48.6 41.4 11.2M1015.1 1069.1c10.6-7.1 31.2-18.1 42-30.1 10.7-12.1 18.2-27.3 24.3-42.2 8.8-21.9 15-45.2 17.6-68.7l1.1-11.1.3-10.3c0-14.5-.7-39.8-18.8-42.9-16.9 2.9-27 20.2-34.4 34.1-17.7 32.7-28.3 72.3-28.3 109.8l.3 9.4c.8 10.5 3.5 33.6 18.5 33.6 4-.1 5.8-1.4 9.3-3.2M1095.3 875.2l-9.6-20c-6.9-14-10.6-29.8-28-30.3-13.5 3.8-21.7 12.9-30.2 23.8"/>
    <defs>
        <path id="SVGID_1_" d="M83.2 1200z"/>
    </defs>
    <clipPath id="SVGID_2_">
        <use xlink:href="#SVGID_1_" overflow="visible"/>
    </clipPath>
    <path class="st3" d="M83.2 1200l39-39"/>
    <path class="st0" d="M83.2 1200z"/>
</svg>
