<?xml version="1.0" encoding="utf-8"?>
<!DOCTYPE svg PUBLIC "-//W3C//DTD SVG 1.1//EN" "http://www.w3.org/Graphics/SVG/1.1/DTD/svg11.dtd">
<!-- Generator: PTC Arbortext IsoDraw 7.3 -->
<svg id="Standardebene" width="100%" height="100%" viewBox="0 0 50.662 51.789"
 xmlns="http://www.w3.org/2000/svg" xmlns:xlink="http://www.w3.org/1999/xlink"
 xmlns:itedo="http://www.itedo.com/svgfilter/1.0" xmlns:extra="http://www.itedo.com/svgfilter/1.0/extra"
 xmlns:_DEFAULT_DTD_="http://www.itedo.com/svgfilter/1.0/DTD/_DEFAULT_DTD_"
 fill-rule="evenodd" clip-rule="evenodd" stroke="#000000" stroke-linecap="round" fill="none" xml:space="preserve">
 <path stroke="none" d="M50.662 0L0 0 0 51.789 50.662 51.789 50.662 0z"/>
 <line stroke-width="0.071" stroke-linejoin="round" x1="23.207" y1="10.814" x2="23.109" y2="10.887"/>
 <line stroke-width="0.071" stroke-linejoin="round" x1="25.925" y1="9.907" x2="25.949" y2="9.913"/>
 <line stroke-width="0.071" stroke-linejoin="round" x1="27.297" y1="11.089" x2="27.396" y2="11.015"/>
 <line stroke-width="0.071" stroke-linejoin="round" x1="26.646" y1="9.932" x2="26.548" y2="10.006"/>
 <line stroke-width="0.071" stroke-linejoin="round" x1="26.317" y1="9.837" x2="26.414" y2="9.763"/>
 <line stroke-width="0.071" stroke-linejoin="round" x1="24.039" y1="7.403" x2="26.626" y2="8.099"/>
 <line stroke-width="0.071" stroke-linejoin="round" x1="26.574" y1="9.362" x2="26.626" y2="8.099"/>
 <line stroke-width="0.071" stroke-linejoin="round" x1="24.007" y1="7.437" x2="26.594" y2="8.134"/>
 <line stroke-width="0.071" stroke-linejoin="round" x1="23.907" y1="9.089" x2="23.809" y2="9.163"/>
 <line stroke-width="0.071" stroke-linejoin="round" x1="26.554" y1="7.806" x2="26.664" y2="7.835"/>
 <line stroke-width="0.071" stroke-linejoin="round" x1="26.713" y1="7.737" x2="26.664" y2="7.835"/>
 <line stroke-width="0.071" stroke-linejoin="round" x1="24.152" y1="9.429" x2="24.138" y2="9.426"/>
 <line stroke-width="0.071" stroke-linejoin="round" x1="26.699" y1="11.755" x2="26.603" y2="11.829"/>
 <path stroke-width="0.071" stroke-linejoin="round" d="M22.847 10.532C22.85 10.606 22.865 10.673 22.905 10.737C22.995 10.872 23.192 10.957 23.335 10.85C23.356 10.836 23.373 10.817 23.388 10.797C23.402 10.775 23.414 10.753 23.422 10.727C23.435 10.689 23.44 10.647 23.435 10.606C23.432 10.564 23.42 10.522 23.4 10.484C23.375 10.43 23.336 10.384 23.289 10.349C23.231 10.305 23.167 10.287 23.094 10.282C23.06 10.285 23.05 10.285 23.018 10.295C22.91 10.33 22.859 10.426 22.847 10.532z"/>
 <path stroke-width="0.071" stroke-linejoin="round" d="M23.381 10.804C23.35 10.818 23.321 10.821 23.288 10.824C23.214 10.82 23.15 10.801 23.091 10.757C22.961 10.66 22.884 10.441 23.001 10.303"/>
 <path stroke-width="0.071" stroke-linejoin="round" d="M26.042 9.663C26.042 9.663 26.042 9.663 26.225 9.712L26.23 9.714C26.356 9.747 26.483 9.766 26.58 9.856C26.65 9.92 26.704 10.016 26.754 10.087C26.754 10.087 26.754 10.087 27.288 10.858C27.376 10.987 27.466 11.108 27.519 11.256C27.615 11.519 27.602 11.83 27.429 12.06C27.376 12.131 27.312 12.18 27.243 12.234C27.172 12.287 27.106 12.335 27.024 12.365C26.948 12.396 26.87 12.404 26.789 12.413C26.646 12.41 26.512 12.387 26.381 12.324C26.3 12.287 26.227 12.237 26.161 12.18C26.161 12.18 26.161 12.18 26.094 12.119C26.094 12.119 26.094 12.119 25.911 12.07C25.911 12.07 25.911 12.07 23.708 11.477C23.708 11.477 23.708 11.477 23.524 11.428C23.445 11.452 23.371 11.465 23.289 11.473C23.143 11.47 23.01 11.445 22.879 11.38C22.46 11.176 22.187 10.659 22.336 10.201C22.37 10.099 22.423 10.006 22.496 9.928C22.547 9.874 22.571 9.862 22.632 9.814C22.632 9.814 22.632 9.814 22.713 9.753C22.713 9.753 22.713 9.753 22.87 9.647C22.87 9.647 22.87 9.647 23.493 9.23C23.493 9.23 23.493 9.23 23.652 9.125C23.783 9.041 23.917 9.09 24.056 9.128C24.056 9.128 24.056 9.128 24.202 9.167"/>
 <path stroke-width="0.071" stroke-linejoin="round" d="M24.339 9.243C24.478 9.016 24.757 8.96 25.001 9.025C25.292 9.103 25.545 9.339 25.643 9.627C25.728 9.875 25.681 10.173 25.442 10.319C25.359 10.368 25.269 10.387 25.175 10.397C25.096 10.397 25.021 10.391 24.946 10.371C24.678 10.298 24.446 10.096 24.33 9.843C24.245 9.653 24.228 9.426 24.339 9.243z"/>
 <path stroke-width="0.071" stroke-linejoin="round" d="M26.114 9.682C26.129 9.529 26.092 9.372 26.03 9.234C25.9 8.948 25.649 8.715 25.355 8.609C25.24 8.567 25.128 8.551 25.007 8.548C24.936 8.554 24.916 8.551 24.844 8.567C24.719 8.598 24.606 8.662 24.516 8.756C24.425 8.85 24.321 8.948 24.253 9.063C24.181 9.18 24.149 9.32 24.15 9.458C24.155 9.896 24.489 10.297 24.893 10.442C25.077 10.509 25.285 10.525 25.474 10.462C25.548 10.438 25.623 10.4 25.684 10.35C25.763 10.291 25.826 10.212 25.893 10.141"/>
 <path stroke-width="0.071" stroke-linejoin="round" d="M24.138 9.426C24.132 9.519 24.132 9.605 24.146 9.696C24.202 10.037 24.426 10.343 24.731 10.505C25.036 10.666 25.425 10.667 25.693 10.429C25.734 10.394 25.769 10.352 25.801 10.308C25.888 10.189 25.926 10.057 25.949 9.913"/>
 <path stroke-width="0.071" stroke-linejoin="round" d="M25.925 9.907C25.936 9.849 25.94 9.794 25.94 9.736"/>
 <path stroke-width="0.071" stroke-linejoin="round" d="M27.164 12.294C27.228 12.246 27.285 12.198 27.332 12.132C27.504 11.903 27.518 11.593 27.422 11.329C27.37 11.182 27.278 11.06 27.189 10.932C27.189 10.932 27.189 10.932 26.657 10.162C26.608 10.089 26.553 9.993 26.484 9.931C26.385 9.839 26.259 9.821 26.132 9.788L26.123 9.785C26.123 9.785 26.123 9.785 25.94 9.736"/>
 <path stroke-width="0.071" stroke-linejoin="round" d="M25.937 9.817C25.934 9.731 25.925 9.651 25.902 9.57C25.792 9.192 25.466 8.878 25.086 8.775C25.004 8.753 24.92 8.746 24.835 8.743C24.702 8.75 24.579 8.774 24.464 8.843C24.408 8.878 24.397 8.891 24.35 8.936"/>
 <path stroke-width="0.071" stroke-linejoin="round" d="M25.268 8.582C25.268 8.582 25.268 8.582 25.178 8.678C25.178 8.678 25.178 8.678 25.086 8.775C25.086 8.775 25.086 8.775 25.074 8.791C25.027 8.858 25.007 8.945 25.001 9.025"/>
 <path stroke-width="0.071" stroke-linejoin="round" d="M25.693 10.343C25.74 10.301 25.756 10.292 25.795 10.243C25.876 10.144 25.913 10.032 25.932 9.909"/>
 <line stroke-width="0.071" stroke-linejoin="round" x1="25.94" y1="9.736" x2="26.042" y2="9.663"/>
 <path stroke-width="0.071" stroke-linejoin="round" d="M25.696 10.426C25.561 10.51 25.417 10.541 25.256 10.547C25.178 10.541 25.16 10.542 25.083 10.525C24.939 10.493 24.811 10.429 24.69 10.343"/>
 <path stroke-width="0.071" stroke-linejoin="round" d="M24.972 10.467C24.943 10.445 24.946 10.403 24.946 10.371"/>
 <path stroke-width="0.071" stroke-linejoin="round" d="M26.626 8.099C26.55 8.18 26.594 8.118 26.586 8.324C26.586 8.324 26.586 8.324 26.533 9.605C26.533 9.605 26.533 9.605 26.525 9.795"/>
 <path stroke-width="0.071" stroke-linejoin="round" d="M26.664 7.835C26.649 7.806 26.632 7.775 26.597 7.774C26.559 7.783 26.544 7.817 26.535 7.852C26.512 7.927 26.525 8.003 26.545 8.079"/>
 <path stroke-width="0.071" stroke-linejoin="round" d="M23.939 9.096C23.939 9.096 23.939 9.096 23.946 8.907C23.946 8.907 23.946 8.907 23.998 7.628C24.007 7.421 23.963 7.484 24.039 7.403"/>
 <path stroke-width="0.071" stroke-linejoin="round" d="M24.172 9.259C24.172 9.259 24.172 9.259 23.992 9.211C23.894 9.185 23.815 9.156 23.719 9.15C23.681 9.153 23.67 9.151 23.632 9.163C23.548 9.188 23.458 9.262 23.396 9.304C23.396 9.304 23.396 9.304 22.774 9.721C22.774 9.721 22.774 9.721 22.615 9.827"/>
 <path stroke-width="0.071" stroke-linejoin="round" d="M26.713 7.737C26.689 7.687 26.663 7.642 26.606 7.626C26.542 7.626 26.507 7.679 26.486 7.732C26.448 7.831 26.443 7.953 26.463 8.057"/>
 <path stroke-width="0.071" stroke-linejoin="round" d="M26.606 7.626C25.894 7.434 25.182 7.243 24.472 7.051C24.429 7.057 24.394 7.115 24.37 7.147C24.303 7.24 24.246 7.344 24.199 7.451"/>
 <path stroke-width="0.071" stroke-linejoin="round" d="M26.346 11.433C26.338 11.505 26.344 11.573 26.378 11.638C26.428 11.742 26.527 11.821 26.643 11.836C26.815 11.859 26.945 11.714 26.929 11.548C26.925 11.503 26.914 11.461 26.894 11.423C26.868 11.371 26.83 11.324 26.783 11.289C26.725 11.246 26.661 11.227 26.588 11.224C26.553 11.227 26.544 11.226 26.512 11.237C26.417 11.266 26.368 11.343 26.346 11.433z"/>
 <path stroke-width="0.071" stroke-linejoin="round" d="M26.875 11.746C26.844 11.759 26.815 11.762 26.78 11.765C26.708 11.76 26.644 11.743 26.585 11.698C26.455 11.6 26.376 11.381 26.495 11.243"/>
 <line stroke-width="0.071" stroke-linejoin="round" x1="22.618" y1="7.149" x2="22.618" y2="9.826"/>
 <line stroke-width="0.071" stroke-linejoin="round" x1="22.327" y1="7.211" x2="22.327" y2="10.234"/>
 <line stroke-width="0.071" stroke-linejoin="round" x1="28.352" y1="9.269" x2="28.352" y2="9.375"/>
 <line stroke-width="0.071" stroke-linejoin="round" x1="28.365" y1="8.624" x2="26.623" y2="8.153"/>
 <line stroke-width="0.071" stroke-linejoin="round" x1="28.365" y1="8.695" x2="26.62" y2="8.227"/>
 <line stroke-width="0.071" stroke-linejoin="round" x1="21.018" y1="8.211" x2="20.969" y2="8.271"/>
 <line stroke-width="0.071" stroke-linejoin="round" x1="21.449" y1="11.9" x2="21.402" y2="11.961"/>
 <line stroke-width="0.071" stroke-linejoin="round" x1="24.899" y1="13.141" x2="24.852" y2="13.201"/>
 <line stroke-width="0.071" stroke-linejoin="round" x1="28.35" y1="13.759" x2="28.301" y2="13.818"/>
 <line stroke-width="0.071" stroke-linejoin="round" x1="28.782" y1="10.301" x2="28.733" y2="10.361"/>
 <line stroke-width="0.071" stroke-linejoin="round" x1="26.208" y1="12.217" x2="23.841" y2="11.58"/>
 <line stroke-width="0.071" stroke-linejoin="round" x1="23.559" y1="11.542" x2="23.431" y2="11.507"/>
 <line stroke-width="0.071" stroke-linejoin="round" x1="23.431" y1="11.742" x2="23.559" y2="11.775"/>
 <line stroke-width="0.071" stroke-linejoin="round" x1="26.275" y1="12.506" x2="26.405" y2="12.541"/>
 <line stroke-width="0.071" stroke-linejoin="round" x1="26.3" y1="12.281" x2="26.275" y2="12.275"/>
 <line stroke-width="0.071" stroke-linejoin="round" x1="26.932" y1="9.053" x2="26.932" y2="10.346"/>
 <line stroke-width="0.071" stroke-linejoin="round" x1="26.582" y1="9.292" x2="26.711" y2="9.326"/>
 <line stroke-width="0.071" stroke-linejoin="round" x1="26.78" y1="9.048" x2="26.78" y2="8.981"/>
 <line stroke-width="0.071" stroke-linejoin="round" x1="23.864" y1="8.561" x2="23.736" y2="8.526"/>
 <line stroke-width="0.071" stroke-linejoin="round" x1="26.501" y1="11.609" x2="26.501" y2="11.24"/>
 <path stroke-width="0.071" stroke-linejoin="round" d="M20.652 7.334C20.564 7.445 20.603 7.37 20.603 7.585C20.603 7.585 20.603 7.585 20.603 10.624C20.603 10.846 20.609 11.058 20.669 11.275C20.856 11.955 21.388 12.526 22.009 12.843C22.225 12.954 22.451 13.021 22.684 13.083C22.684 13.083 22.684 13.083 27.32 14.332C27.504 14.381 27.684 14.43 27.875 14.448C28.318 14.487 28.806 14.371 29.103 14.019"/>
 <path stroke-width="0.071" stroke-linejoin="round" d="M24.003 7.522C24.003 7.522 24.003 7.522 23.818 7.472C23.818 7.472 23.818 7.472 22.801 7.198C22.711 7.174 22.628 7.142 22.536 7.137C22.481 7.137 22.426 7.144 22.378 7.171C22.307 7.208 22.246 7.31 22.207 7.357C22.146 7.434 22.091 7.522 22.018 7.589C21.948 7.655 21.846 7.674 21.753 7.679C21.632 7.679 21.53 7.644 21.411 7.612C21.411 7.612 21.411 7.612 20.786 7.445C20.786 7.445 20.786 7.445 20.603 7.395"/>
 <path stroke-width="0.071" stroke-linejoin="round" d="M20.652 7.334C20.652 7.334 20.652 7.334 20.835 7.384C20.835 7.384 20.835 7.384 21.46 7.552C21.594 7.589 21.748 7.652 21.884 7.581C21.954 7.543 22.015 7.44 22.053 7.392C22.115 7.315 22.17 7.229 22.243 7.161C22.312 7.097 22.417 7.073 22.51 7.072C22.628 7.067 22.737 7.107 22.85 7.139C22.85 7.139 22.85 7.139 23.821 7.4C23.821 7.4 23.821 7.4 24.006 7.45"/>
 <path stroke-width="0.071" stroke-linejoin="round" d="M28.173 12.9C28.149 12.932 28.143 12.941 28.111 12.968C28.027 13.038 27.925 13.058 27.82 13.064C27.693 13.058 27.583 13.025 27.46 12.992C27.46 12.992 27.46 12.992 22.826 11.743C22.725 11.718 22.618 11.695 22.524 11.651C22.298 11.551 22.102 11.343 22.05 11.098C22.03 11 22.038 10.894 22.038 10.798C22.038 10.798 22.038 10.798 22.038 7.759C22.038 7.759 22.038 7.759 22.038 7.569"/>
 <path stroke-width="0.071" stroke-linejoin="round" d="M28.208 12.821C28.217 12.759 28.214 12.791 28.217 12.727"/>
 <path stroke-width="0.071" stroke-linejoin="round" d="M26.89 12.401C26.89 12.401 26.89 12.401 27.074 12.451C27.074 12.451 27.074 12.451 27.751 12.632C27.913 12.676 28.05 12.721 28.217 12.695"/>
 <path stroke-width="0.071" stroke-linejoin="round" d="M28.41 12.916C28.336 12.893 28.219 12.843 28.217 12.75C28.217 12.75 28.217 12.75 28.217 12.56C28.217 12.56 28.217 12.56 28.217 9.522C28.217 9.448 28.19 9.314 28.248 9.24C28.248 9.24 28.248 9.24 28.365 9.095"/>
 <path stroke-width="0.071" stroke-linejoin="round" d="M28.365 9.252C28.353 9.266 28.341 9.282 28.335 9.3C28.318 9.355 28.364 9.397 28.41 9.419C28.477 9.451 28.591 9.471 28.641 9.486C28.641 9.486 28.641 9.486 29.027 9.589C29.027 9.589 29.027 9.589 29.21 9.64"/>
 <path stroke-width="0.071" stroke-linejoin="round" d="M28.217 9.332C28.248 9.49 28.475 9.513 28.594 9.547C28.594 9.547 28.594 9.547 29.027 9.663C29.027 9.663 29.027 9.663 29.21 9.711"/>
 <path stroke-width="0.071" stroke-linejoin="round" d="M28.41 9.496C28.41 9.496 28.41 9.496 28.41 9.686C28.41 9.686 28.41 9.686 28.41 12.724C28.41 12.724 28.41 12.724 28.41 12.916C28.41 12.916 28.41 12.916 28.405 12.99C28.382 13.205 28.25 13.387 28.05 13.47C27.954 13.509 27.855 13.519 27.753 13.522C27.6 13.515 27.466 13.477 27.32 13.438C27.32 13.438 27.32 13.438 22.684 12.189C22.565 12.157 22.448 12.131 22.333 12.082C22.012 11.939 21.73 11.657 21.631 11.314C21.589 11.173 21.594 11.035 21.594 10.891C21.594 10.891 21.594 10.891 21.594 7.852C21.594 7.852 21.594 7.852 21.594 7.661"/>
 <path stroke-width="0.071" stroke-linejoin="round" d="M22.315 10.644C22.315 10.644 22.315 10.644 22.196 10.792C22.196 10.792 22.196 10.792 22.158 10.839C22.103 10.906 22.048 11 21.969 11.044C21.902 11.083 21.826 11.093 21.751 11.099C21.698 11.098 21.649 11.092 21.594 11.08"/>
 <path stroke-width="0.071" stroke-linejoin="round" d="M22.341 10.746C22.367 10.846 22.408 10.939 22.472 11.022"/>
 <path stroke-width="0.071" stroke-linejoin="round" d="M22.501 12.141C22.506 12.003 22.539 11.862 22.609 11.743C22.649 11.673 22.714 11.603 22.762 11.545C22.762 11.545 22.762 11.545 22.771 11.532C22.771 11.532 22.771 11.532 22.891 11.385"/>
 <path stroke-width="0.071" stroke-linejoin="round" d="M27.504 13.487C27.507 13.343 27.545 13.185 27.628 13.064C27.684 12.983 27.753 12.907 27.814 12.832C27.814 12.832 27.814 12.832 27.934 12.682C27.934 12.682 27.934 12.682 27.957 12.647C28.001 12.568 28.024 12.478 28.027 12.39"/>
 <path stroke-width="0.071" stroke-linejoin="round" d="M27.297 12.192C27.297 12.192 27.297 12.192 27.481 12.242C27.481 12.242 27.481 12.242 27.843 12.34C27.96 12.371 28.092 12.426 28.217 12.397"/>
 <path stroke-width="0.071" stroke-linejoin="round" d="M28.193 12.867C28.17 12.91 28.182 12.887 28.152 12.932"/>
 <polyline stroke-width="0.071" stroke-linejoin="round" points="28.21 12.814 28.202 12.84 28.187 12.881"/>
 <path stroke-width="0.071" stroke-linejoin="round" d="M21.022 8.182C20.989 8.31 21.153 8.426 21.268 8.381"/>
 <path stroke-width="0.071" stroke-linejoin="round" d="M21.272 8.352C21.263 8.25 21.176 8.176 21.077 8.169C21.057 8.17 21.041 8.173 21.021 8.182C20.966 8.211 20.96 8.278 20.984 8.33C21.009 8.387 21.062 8.432 21.121 8.448C21.196 8.467 21.265 8.432 21.272 8.352z"/>
 <path stroke-width="0.071" stroke-linejoin="round" d="M21.454 11.871C21.42 12 21.585 12.118 21.699 12.071"/>
 <path stroke-width="0.071" stroke-linejoin="round" d="M21.702 12.042C21.695 11.941 21.609 11.867 21.51 11.859C21.489 11.862 21.471 11.862 21.452 11.871C21.396 11.9 21.391 11.97 21.416 12.022C21.44 12.077 21.493 12.121 21.553 12.137C21.628 12.157 21.696 12.121 21.702 12.042z"/>
 <path stroke-width="0.071" stroke-linejoin="round" d="M25.149 13.311C25.129 13.319 25.114 13.321 25.092 13.323C24.993 13.316 24.875 13.223 24.903 13.112"/>
 <path stroke-width="0.071" stroke-linejoin="round" d="M25.024 13.112C25.073 13.134 25.115 13.169 25.138 13.221C25.164 13.275 25.158 13.342 25.102 13.371C25.083 13.38 25.065 13.382 25.045 13.384C24.969 13.378 24.897 13.333 24.865 13.262C24.859 13.249 24.856 13.234 24.853 13.221C24.85 13.208 24.85 13.195 24.853 13.182C24.867 13.098 24.957 13.09 25.024 13.112z"/>
 <path stroke-width="0.071" stroke-linejoin="round" d="M28.355 13.73C28.321 13.859 28.486 13.974 28.599 13.929"/>
 <path stroke-width="0.071" stroke-linejoin="round" d="M28.603 13.9C28.596 13.798 28.509 13.724 28.41 13.718C28.39 13.718 28.371 13.721 28.353 13.73C28.297 13.759 28.292 13.827 28.315 13.88C28.341 13.936 28.393 13.98 28.454 13.996C28.527 14.016 28.597 13.98 28.603 13.9z"/>
 <path stroke-width="0.071" stroke-linejoin="round" d="M28.786 10.272C28.751 10.4 28.916 10.516 29.03 10.471"/>
 <path stroke-width="0.071" stroke-linejoin="round" d="M29.035 10.442C29.027 10.34 28.94 10.266 28.841 10.259C28.821 10.26 28.803 10.262 28.786 10.272C28.728 10.301 28.724 10.368 28.746 10.42C28.772 10.477 28.824 10.522 28.885 10.537C28.96 10.557 29.027 10.522 29.035 10.442z"/>
 <path stroke-width="0.071" stroke-linejoin="round" d="M23.484 11.441C23.484 11.441 23.484 11.441 23.431 11.507C23.431 11.507 23.431 11.507 23.431 11.624C23.431 11.624 23.431 11.624 23.431 11.742C23.431 11.742 23.431 11.742 23.434 11.781C23.446 11.852 23.519 11.84 23.586 11.859C23.586 11.859 23.586 11.859 23.606 11.859C23.62 11.855 23.631 11.843 23.64 11.832C23.722 11.73 23.804 11.627 23.888 11.525"/>
 <path stroke-width="0.071" stroke-linejoin="round" d="M23.586 11.859C23.562 11.84 23.559 11.804 23.559 11.775C23.559 11.775 23.559 11.775 23.559 11.659C23.559 11.659 23.559 11.659 23.559 11.542C23.559 11.542 23.559 11.542 23.629 11.455"/>
 <path stroke-width="0.071" stroke-linejoin="round" d="M26.282 12.269L26.275 12.275C26.275 12.275 26.275 12.275 26.275 12.391C26.275 12.391 26.275 12.391 26.275 12.506C26.277 12.602 26.332 12.627 26.443 12.628C26.46 12.628 26.475 12.611 26.486 12.598C26.486 12.598 26.486 12.598 26.643 12.403"/>
 <path stroke-width="0.071" stroke-linejoin="round" d="M26.405 12.336C26.405 12.336 26.405 12.336 26.405 12.541C26.405 12.571 26.408 12.608 26.434 12.625"/>
 <path stroke-width="0.071" stroke-linejoin="round" d="M26.951 10.371C26.951 10.371 26.951 10.371 26.951 10.18C26.951 10.18 26.951 10.18 26.951 9.198C26.951 9.096 26.989 8.977 26.885 8.925C26.871 8.917 26.856 8.912 26.841 8.907C26.841 8.907 26.841 8.907 26.718 8.874C26.718 8.874 26.718 8.874 26.596 8.842"/>
 <path stroke-width="0.071" stroke-linejoin="round" d="M26.591 8.932C26.591 8.932 26.591 8.932 26.686 8.957C26.686 8.957 26.686 8.957 26.78 8.981C26.794 8.986 26.812 8.996 26.806 9.013L26.803 9.019C26.803 9.019 26.803 9.019 26.693 9.156C26.693 9.156 26.693 9.156 26.582 9.292C26.582 9.292 26.582 9.292 26.562 9.481C26.562 9.481 26.562 9.481 26.545 9.624C26.545 9.624 26.545 9.624 26.524 9.814"/>
 <path stroke-width="0.071" stroke-linejoin="round" d="M26.644 9.929C26.644 9.929 26.644 9.929 26.666 9.74C26.666 9.74 26.666 9.74 26.69 9.516C26.69 9.516 26.69 9.516 26.711 9.326C26.711 9.326 26.711 9.326 26.932 9.053C26.943 9.039 26.948 9.025 26.951 9.007"/>
 <polyline stroke-width="0.071" stroke-linejoin="round" points="23.974 8.236 23.957 8.253 23.736 8.526 23.714 8.715 23.69 8.926 23.67 9.115"/>
 <polyline stroke-width="0.071" stroke-linejoin="round" points="23.807 9.077 23.829 8.887 23.844 8.75 23.864 8.561 23.966 8.436"/>
 <line stroke-width="0.071" stroke-linejoin="round" x1="22.367" y1="39.026" x2="22.367" y2="40.695"/>
 <line stroke-width="0.071" stroke-linejoin="round" x1="22.169" y1="39.115" x2="22.201" y2="39.087"/>
 <line stroke-width="0.071" stroke-linejoin="round" x1="22.658" y1="40.353" x2="22.658" y2="39.064"/>
 <line stroke-width="0.071" stroke-linejoin="round" x1="22.367" y1="41.009" x2="22.367" y2="42.439"/>
 <line stroke-width="0.071" stroke-linejoin="round" x1="22.658" y1="41.415" x2="22.658" y2="42.378"/>
 <line stroke-width="0.071" stroke-linejoin="round" x1="28.257" y1="43.886" x2="26.634" y2="43.448"/>
 <line stroke-width="0.071" stroke-linejoin="round" x1="24.94" y1="39.045" x2="24.891" y2="39.104"/>
 <line stroke-width="0.071" stroke-linejoin="round" x1="28.39" y1="40.284" x2="28.343" y2="40.344"/>
 <line stroke-width="0.071" stroke-linejoin="round" x1="23.6" y1="40.322" x2="23.469" y2="40.287"/>
 <line stroke-width="0.071" stroke-linejoin="round" x1="23.565" y1="40.313" x2="23.565" y2="40.515"/>
 <line stroke-width="0.071" stroke-linejoin="round" x1="24.126" y1="39.459" x2="24.126" y2="39.886"/>
 <line stroke-width="0.071" stroke-linejoin="round" x1="24.19" y1="39.902" x2="24.19" y2="39.475"/>
 <line stroke-width="0.071" stroke-linejoin="round" x1="23.55" y1="39.798" x2="23.681" y2="39.834"/>
 <line stroke-width="0.071" stroke-linejoin="round" x1="23.6" y1="40.088" x2="23.469" y2="40.054"/>
 <line stroke-width="0.071" stroke-linejoin="round" x1="23.695" y1="40.585" x2="23.695" y2="40.204"/>
 <line stroke-width="0.071" stroke-linejoin="round" x1="23.6" y1="40.322" x2="23.695" y2="40.204"/>
 <line stroke-width="0.071" stroke-linejoin="round" x1="26.446" y1="41.088" x2="26.317" y2="41.052"/>
 <line stroke-width="0.071" stroke-linejoin="round" x1="26.411" y1="41.079" x2="26.411" y2="41.252"/>
 <line stroke-width="0.071" stroke-linejoin="round" x1="26.972" y1="40.225" x2="26.972" y2="41.408"/>
 <line stroke-width="0.071" stroke-linejoin="round" x1="26.99" y1="41.417" x2="26.99" y2="40.229"/>
 <line stroke-width="0.071" stroke-linejoin="round" x1="26.396" y1="40.566" x2="26.525" y2="40.6"/>
 <line stroke-width="0.071" stroke-linejoin="round" x1="26.446" y1="40.854" x2="26.317" y2="40.82"/>
 <line stroke-width="0.071" stroke-linejoin="round" x1="26.541" y1="41.264" x2="26.541" y2="40.972"/>
 <line stroke-width="0.071" stroke-linejoin="round" x1="26.446" y1="41.088" x2="26.541" y2="40.972"/>
 <line stroke-width="0.071" stroke-linejoin="round" x1="26.621" y1="43.277" x2="26.751" y2="43.313"/>
 <line stroke-width="0.071" stroke-linejoin="round" x1="26.704" y1="43.006" x2="26.751" y2="43.313"/>
 <line stroke-width="0.071" stroke-linejoin="round" x1="26.621" y1="43.277" x2="26.589" y2="43.066"/>
 <line stroke-width="0.071" stroke-linejoin="round" x1="26.972" y1="42.865" x2="26.972" y2="43.039"/>
 <line stroke-width="0.071" stroke-linejoin="round" x1="23.905" y1="42.546" x2="23.884" y2="42.408"/>
 <line stroke-width="0.071" stroke-linejoin="round" x1="23.753" y1="42.363" x2="23.777" y2="42.512"/>
 <line stroke-width="0.071" stroke-linejoin="round" x1="23.905" y1="42.546" x2="23.777" y2="42.512"/>
 <line stroke-width="0.071" stroke-linejoin="round" x1="23.993" y1="42.438" x2="23.905" y2="42.546"/>
 <line stroke-width="0.071" stroke-linejoin="round" x1="26.541" y1="41.942" x2="26.53" y2="41.939"/>
 <path stroke-width="0.071" stroke-linejoin="round" d="M24.012 42.741C24.012 42.741 24.012 42.741 23.827 42.692C23.827 42.692 23.827 42.692 22.843 42.427C22.751 42.402 22.667 42.371 22.574 42.365C22.521 42.366 22.466 42.374 22.419 42.399C22.347 42.436 22.286 42.539 22.248 42.588C22.187 42.664 22.132 42.75 22.059 42.819C21.986 42.884 21.885 42.902 21.792 42.908C21.67 42.908 21.571 42.874 21.452 42.841C21.452 42.841 21.452 42.841 20.827 42.673C20.827 42.673 20.827 42.673 20.643 42.624"/>
 <path stroke-width="0.071" stroke-linejoin="round" d="M20.856 38.478C20.73 38.656 20.664 38.877 20.647 39.094C20.647 39.094 20.647 39.094 20.643 39.204C20.643 39.204 20.643 39.204 20.643 39.395C20.643 39.395 20.643 39.395 20.643 42.433C20.643 42.433 20.643 42.433 20.643 42.624"/>
 <path stroke-width="0.071" stroke-linejoin="round" d="M28.449 44.725C28.449 44.725 28.449 44.725 28.449 44.534C28.449 44.534 28.449 44.534 28.449 41.496C28.449 41.351 28.455 41.213 28.414 41.073C28.315 40.731 28.033 40.447 27.71 40.305C27.597 40.256 27.478 40.228 27.361 40.197C27.361 40.197 27.361 40.197 22.725 38.948C22.577 38.909 22.445 38.872 22.292 38.863C22.19 38.868 22.091 38.878 21.995 38.917C21.795 39 21.661 39.182 21.64 39.396C21.64 39.396 21.64 39.396 21.635 39.472C21.635 39.472 21.635 39.472 21.635 39.661C21.635 39.661 21.635 39.661 21.635 42.701C21.635 42.701 21.635 42.701 21.635 42.89"/>
 <path stroke-width="0.071" stroke-linejoin="round" d="M28.25 41.045C28.263 41.14 28.257 41.232 28.257 41.331C28.257 41.331 28.257 41.331 28.257 44.369C28.257 44.369 28.257 44.369 28.257 44.56C28.26 44.652 28.376 44.704 28.449 44.725C28.449 44.725 28.449 44.725 28.632 44.774C28.632 44.774 28.632 44.774 29.027 44.881C29.027 44.881 29.027 44.881 29.21 44.929"/>
 <path stroke-width="0.071" stroke-linejoin="round" d="M28.251 41.058C28.236 40.985 28.211 40.92 28.179 40.853"/>
 <path stroke-width="0.071" stroke-linejoin="round" d="M27.545 40.246C27.545 40.287 27.547 40.334 27.57 40.369C27.588 40.399 27.617 40.399 27.65 40.409C27.711 40.43 27.769 40.457 27.824 40.49C27.975 40.581 28.091 40.707 28.181 40.856"/>
 <path stroke-width="0.071" stroke-linejoin="round" d="M22.541 38.899C22.541 38.899 22.541 38.899 22.545 38.96C22.564 39.082 22.67 39.067 22.786 39.097C22.786 39.097 22.786 39.097 27.42 40.345C27.42 40.345 27.42 40.345 27.606 40.395"/>
 <path stroke-width="0.071" stroke-linejoin="round" d="M22.602 39.048C22.545 39.034 22.489 39.027 22.431 39.023C22.431 39.023 22.431 39.023 22.378 39.024"/>
 <path stroke-width="0.071" stroke-linejoin="round" d="M22.231 39.064C22.286 39.042 22.26 39.051 22.31 39.036"/>
 <path stroke-width="0.071" stroke-linejoin="round" d="M22.179 39.101C22.225 39.069 22.202 39.084 22.248 39.057"/>
 <path stroke-width="0.071" stroke-linejoin="round" d="M22.297 39.039C22.364 39.024 22.329 39.03 22.397 39.024"/>
 <path stroke-width="0.071" stroke-linejoin="round" d="M22.362 39.027C22.362 39.027 22.362 39.027 22.243 39.174C22.243 39.174 22.243 39.174 22.198 39.231C22.144 39.296 22.089 39.39 22.009 39.435C21.942 39.472 21.867 39.484 21.792 39.49C21.739 39.488 21.689 39.484 21.635 39.472"/>
 <path stroke-width="0.071" stroke-linejoin="round" d="M22.079 42.798C22.079 42.798 22.079 42.798 22.079 42.607C22.079 42.607 22.079 42.607 22.079 39.569C22.079 39.441 22.062 39.301 22.125 39.182C22.144 39.145 22.152 39.137 22.179 39.103"/>
 <path stroke-width="0.071" stroke-linejoin="round" d="M28.257 41.14C28.274 41.237 28.364 41.28 28.449 41.305"/>
 <path stroke-width="0.071" stroke-linejoin="round" d="M21.01 41.945C21.016 41.865 21.085 41.829 21.161 41.85C21.219 41.865 21.272 41.909 21.298 41.966C21.321 42.018 21.317 42.087 21.26 42.115C21.242 42.124 21.225 42.127 21.204 42.128C21.128 42.122 21.056 42.078 21.024 42.006C21.019 41.996 21.003 41.957 21.01 41.945C21.01 41.945 21.01 41.945 21.057 41.886"/>
 <path stroke-width="0.071" stroke-linejoin="round" d="M21.49 38.427C21.49 38.427 21.49 38.427 21.442 38.487C21.442 38.487 21.442 38.487 21.443 38.508C21.448 38.536 21.46 38.564 21.48 38.587C21.515 38.634 21.574 38.67 21.635 38.67C21.739 38.67 21.765 38.566 21.719 38.487C21.702 38.46 21.679 38.438 21.655 38.42C21.623 38.399 21.588 38.389 21.548 38.386C21.486 38.39 21.446 38.423 21.442 38.487"/>
 <path stroke-width="0.071" stroke-linejoin="round" d="M25.152 39.082C25.199 39.136 25.216 39.237 25.141 39.274C25.123 39.284 25.106 39.286 25.085 39.286C25.009 39.283 24.937 39.237 24.905 39.165C24.885 39.118 24.885 39.054 24.932 39.024"/>
 <path stroke-width="0.071" stroke-linejoin="round" d="M28.379 40.265C28.282 40.354 28.393 40.494 28.493 40.521C28.532 40.531 28.579 40.53 28.611 40.502"/>
 <path stroke-width="0.071" stroke-linejoin="round" d="M28.821 43.975C28.821 43.975 28.821 43.975 28.772 44.034C28.772 44.034 28.772 44.034 28.774 44.055C28.78 44.085 28.792 44.112 28.809 44.134C28.847 44.182 28.905 44.218 28.968 44.218C29.07 44.219 29.097 44.113 29.05 44.036C29.035 44.009 29.012 43.985 28.986 43.969C28.954 43.947 28.92 43.936 28.881 43.935C28.818 43.938 28.778 43.972 28.772 44.034"/>
 <path stroke-width="0.071" stroke-linejoin="round" d="M23.879 39.393C23.879 39.393 23.879 39.393 23.76 39.539C23.76 39.539 23.76 39.539 23.67 39.651C23.67 39.651 23.67 39.651 23.55 39.798C23.55 39.798 23.55 39.798 23.539 39.816C23.448 39.954 23.469 40.131 23.469 40.287"/>
 <path stroke-width="0.071" stroke-linejoin="round" d="M23.6 40.322C23.6 40.167 23.577 39.987 23.669 39.85C23.669 39.85 23.669 39.85 23.681 39.834C23.681 39.834 23.681 39.834 23.8 39.686C23.8 39.686 23.8 39.686 23.89 39.575C23.89 39.575 23.89 39.575 24.009 39.426"/>
 <path stroke-width="0.071" stroke-linejoin="round" d="M26.725 40.158C26.725 40.158 26.725 40.158 26.606 40.307C26.606 40.307 26.606 40.307 26.516 40.417C26.516 40.417 26.516 40.417 26.396 40.566C26.396 40.566 26.396 40.566 26.385 40.582C26.294 40.719 26.317 40.898 26.317 41.052"/>
 <path stroke-width="0.071" stroke-linejoin="round" d="M26.446 41.088C26.446 40.932 26.423 40.755 26.515 40.615C26.515 40.615 26.515 40.615 26.525 40.6C26.525 40.6 26.525 40.6 26.646 40.453C26.646 40.453 26.646 40.453 26.736 40.341C26.736 40.341 26.736 40.341 26.856 40.192"/>
 <path stroke-width="0.071" stroke-linejoin="round" d="M26.99 42.854C26.99 42.854 26.99 42.854 26.99 42.993C26.989 43.011 26.983 43.026 26.972 43.039C26.972 43.039 26.972 43.039 26.862 43.176C26.862 43.176 26.862 43.176 26.751 43.313"/>
 <polyline stroke-width="0.071" stroke-linejoin="round" points="26.542 41.956 26.541 41.942 26.541 41.847"/>
 <line stroke-width="0.071" stroke-linejoin="round" x1="26.806" y1="42.124" x2="26.708" y2="42.292"/>
 <line stroke-width="0.071" stroke-linejoin="round" x1="25.966" y1="42.85" x2="25.99" y2="42.857"/>
 <line stroke-width="0.071" stroke-linejoin="round" x1="24.195" y1="42.374" x2="24.178" y2="42.369"/>
 <line stroke-width="0.071" stroke-linejoin="round" x1="24.199" y1="42.335" x2="24.178" y2="42.369"/>
 <line stroke-width="0.071" stroke-linejoin="round" x1="26.634" y1="44.213" x2="26.582" y2="43.069"/>
 <line stroke-width="0.071" stroke-linejoin="round" x1="26.629" y1="44.286" x2="26.777" y2="44.326"/>
 <line stroke-width="0.071" stroke-linejoin="round" x1="26.632" y1="44.354" x2="26.73" y2="44.381"/>
 <line stroke-width="0.071" stroke-linejoin="round" x1="24.047" y1="43.515" x2="26.634" y2="44.213"/>
 <line stroke-width="0.071" stroke-linejoin="round" x1="26.538" y1="44.633" x2="24.253" y2="44.018"/>
 <line stroke-width="0.071" stroke-linejoin="round" x1="26.635" y1="44.435" x2="26.576" y2="44.52"/>
 <line stroke-width="0.071" stroke-linejoin="round" x1="23.998" y1="42.439" x2="24.047" y2="43.515"/>
 <line stroke-width="0.071" stroke-linejoin="round" x1="23.565" y1="40.744" x2="23.663" y2="40.576"/>
 <line stroke-width="0.071" stroke-linejoin="round" x1="26.231" y1="41.268" x2="26.135" y2="41.436"/>
 <line stroke-width="0.071" stroke-linejoin="round" x1="23.314" y1="41.185" x2="23.216" y2="41.351"/>
 <line stroke-width="0.071" stroke-linejoin="round" x1="23.89" y1="40.07" x2="26.327" y2="40.725"/>
 <line stroke-width="0.071" stroke-linejoin="round" x1="23.89" y1="40.06" x2="26.33" y2="40.718"/>
 <path stroke-width="0.071" stroke-linejoin="round" d="M26.594 42.246C26.673 42.284 26.762 42.317 26.852 42.302C26.926 42.289 26.981 42.234 26.969 42.155C26.96 42.1 26.926 42.048 26.888 42.008C26.797 41.911 26.666 41.85 26.533 41.847C26.506 41.85 26.495 41.85 26.471 41.857C26.394 41.884 26.367 41.954 26.39 42.027C26.422 42.125 26.509 42.195 26.594 42.246z"/>
 <path stroke-width="0.071" stroke-linejoin="round" d="M26.486 41.854C26.496 41.901 26.53 41.942 26.559 41.976C26.655 42.079 26.821 42.165 26.963 42.131"/>
 <path stroke-width="0.071" stroke-linejoin="round" d="M25.98 42.972C26.103 43.006 26.236 43.042 26.356 43.073C26.422 43.091 26.493 43.1 26.559 43.079C26.559 43.079 26.559 43.079 26.589 43.066C26.589 43.066 26.589 43.066 26.757 42.978C26.757 42.978 26.757 42.978 27.17 42.762C27.248 42.72 27.359 42.676 27.428 42.607C27.475 42.561 27.506 42.494 27.538 42.439C27.538 42.439 27.538 42.439 27.588 42.353C27.675 42.179 27.577 41.963 27.472 41.82C27.222 41.478 26.789 41.258 26.37 41.252C26.275 41.259 26.323 41.253 26.231 41.268C26.231 41.268 26.231 41.268 26.048 41.219C26.048 41.219 26.048 41.219 23.847 40.627C23.847 40.627 23.847 40.627 23.663 40.576C23.663 40.576 23.663 40.576 23.588 40.527C23.512 40.481 23.431 40.439 23.349 40.406C23.195 40.344 23.036 40.313 22.87 40.311C22.746 40.322 22.62 40.345 22.528 40.438C22.481 40.484 22.451 40.549 22.419 40.606C22.37 40.689 22.333 40.755 22.336 40.85C22.338 40.988 22.405 41.118 22.486 41.226C22.574 41.347 22.687 41.442 22.797 41.539C22.797 41.539 22.797 41.539 23.454 42.131C23.521 42.194 23.593 42.268 23.673 42.319C23.78 42.389 23.899 42.412 24.021 42.445C24.021 42.445 24.021 42.445 24.193 42.491"/>
 <path stroke-width="0.071" stroke-linejoin="round" d="M24.309 42.637C24.364 42.966 24.66 43.234 24.963 43.343C25.082 43.386 25.21 43.408 25.336 43.392C25.4 43.384 25.464 43.365 25.521 43.332C25.556 43.314 25.588 43.289 25.617 43.261C25.823 43.045 25.701 42.716 25.538 42.517C25.449 42.408 25.338 42.319 25.214 42.25C25.073 42.171 24.923 42.134 24.76 42.128C24.69 42.133 24.626 42.14 24.561 42.164C24.364 42.24 24.275 42.435 24.309 42.637z"/>
 <path stroke-width="0.071" stroke-linejoin="round" d="M24.384 41.966C24.329 42.042 24.274 42.112 24.236 42.195C24.125 42.445 24.224 42.746 24.373 42.954C24.417 43.015 24.432 43.029 24.483 43.085"/>
 <path stroke-width="0.071" stroke-linejoin="round" d="M24.486 43.088C24.548 43.149 24.611 43.207 24.684 43.256C24.969 43.454 25.379 43.564 25.701 43.384C25.858 43.295 25.946 43.133 26.047 42.99"/>
 <path stroke-width="0.071" stroke-linejoin="round" d="M25.98 42.972C25.98 42.942 25.978 42.914 25.974 42.884C25.974 42.884 25.974 42.884 25.966 42.85C25.966 42.85 25.966 42.85 25.981 42.823"/>
 <path stroke-width="0.071" stroke-linejoin="round" d="M24.178 42.369C24.172 42.308 24.17 42.252 24.187 42.192C24.265 41.911 24.615 41.881 24.856 41.921C24.943 41.936 25.03 41.96 25.112 41.99C25.498 42.133 25.899 42.436 25.99 42.857"/>
 <path stroke-width="0.071" stroke-linejoin="round" d="M25.966 42.85C25.989 42.817 25.954 42.737 25.943 42.701"/>
 <path stroke-width="0.071" stroke-linejoin="round" d="M25.879 43.228C25.945 43.128 25.972 43.036 25.978 42.917"/>
 <path stroke-width="0.071" stroke-linejoin="round" d="M24.271 42.128C24.274 42.064 24.271 42.095 24.283 42.034"/>
 <path stroke-width="0.071" stroke-linejoin="round" d="M24.487 41.927C24.419 41.96 24.367 42.006 24.315 42.061"/>
 <path stroke-width="0.071" stroke-linejoin="round" d="M25.025 41.962C25.001 42.024 24.984 42.09 24.986 42.158"/>
 <path stroke-width="0.071" stroke-linejoin="round" d="M25.041 43.366C25.042 43.393 25.045 43.427 25.073 43.439"/>
 <path stroke-width="0.071" stroke-linejoin="round" d="M24.189 43.554C24.189 43.554 24.189 43.554 24.196 43.718C24.196 43.718 24.196 43.718 24.204 43.881C24.204 43.881 24.204 43.881 24.253 44.018C24.262 44.04 24.271 44.06 24.285 44.082C24.341 44.174 24.443 44.173 24.547 44.201C24.547 44.201 24.547 44.201 26.344 44.685C26.344 44.685 26.344 44.685 26.527 44.734C26.527 44.734 26.527 44.734 26.553 44.718C26.574 44.698 26.591 44.673 26.608 44.649C26.675 44.548 26.731 44.438 26.777 44.326C26.777 44.326 26.777 44.326 26.73 44.381C26.73 44.381 26.73 44.381 26.708 44.426C26.695 44.457 26.678 44.487 26.661 44.518C26.644 44.543 26.623 44.591 26.593 44.603C26.576 44.6 26.594 44.557 26.597 44.548C26.647 44.399 26.638 44.475 26.631 44.323C26.631 44.323 26.631 44.323 26.626 44.21"/>
 <path stroke-width="0.071" stroke-linejoin="round" d="M26.626 43.279C26.626 43.279 26.626 43.279 26.634 43.469C26.634 43.469 26.634 43.469 26.657 43.976C26.667 44.185 26.704 44.115 26.634 44.213"/>
 <path stroke-width="0.071" stroke-linejoin="round" d="M26.527 44.734C26.516 44.731 26.518 44.719 26.518 44.709C26.521 44.683 26.53 44.656 26.538 44.633C26.538 44.633 26.538 44.633 26.576 44.52C26.576 44.52 26.576 44.52 26.561 44.192"/>
 <path stroke-width="0.071" stroke-linejoin="round" d="M27.489 42.523C27.506 42.478 27.513 42.469 27.519 42.42C27.542 42.238 27.437 42.057 27.324 41.924C27.067 41.621 26.67 41.426 26.272 41.42C26.178 41.426 26.225 41.42 26.135 41.436C26.135 41.436 26.135 41.436 25.951 41.387C25.951 41.387 25.951 41.387 23.748 40.795C23.748 40.795 23.748 40.795 23.565 40.744C23.565 40.744 23.565 40.744 23.489 40.695C23.414 40.648 23.333 40.609 23.251 40.575C23.097 40.512 22.939 40.481 22.774 40.479C22.649 40.49 22.522 40.514 22.431 40.606C22.396 40.64 22.393 40.651 22.368 40.692"/>
 <path stroke-width="0.071" stroke-linejoin="round" d="M22.888 41.03C22.89 41.009 22.89 41.002 22.899 40.981C22.936 40.905 23.039 40.899 23.111 40.912C23.239 40.935 23.37 41.015 23.44 41.125C23.484 41.197 23.5 41.298 23.414 41.344C23.387 41.359 23.358 41.362 23.326 41.365C23.204 41.363 23.089 41.314 23 41.232C22.939 41.179 22.893 41.112 22.888 41.03z"/>
 <path stroke-width="0.071" stroke-linejoin="round" d="M23.469 41.192C23.469 41.192 23.469 41.192 23.423 41.198C23.289 41.195 23.16 41.134 23.068 41.036C23.036 41.003 23.004 40.96 22.992 40.914"/>
 <path stroke-width="0.071" stroke-linejoin="round" d="M23.917 40.646C23.917 40.646 23.917 40.646 23.907 40.454C23.907 40.454 23.907 40.454 23.899 40.261C23.893 40.146 23.873 40.036 23.917 39.929C23.928 39.902 23.945 39.86 23.974 39.848C23.974 39.848 23.974 39.848 23.99 39.85C23.99 39.85 23.99 39.85 24.175 39.899C24.175 39.899 24.175 39.899 26.259 40.46C26.259 40.46 26.259 40.46 26.443 40.509"/>
 <line stroke-width="0.071" stroke-linejoin="round" x1="21.681" y1="5.623" x2="21.318" y2="6.072"/>
 <line stroke-width="0.071" stroke-linejoin="round" x1="0.038" y1="8.34" x2="0.038" y2="1.05"/>
 <line stroke-width="0.071" stroke-linejoin="round" x1="50.627" y1="14.323" x2="50.506" y2="14.473"/>
 <line stroke-width="0.071" stroke-linejoin="round" x1="50.506" y1="14.291" x2="50.627" y2="14.323"/>
 <line stroke-width="0.071" stroke-linejoin="round" x1="28.943" y1="8.125" x2="29.306" y2="7.677"/>
 <line stroke-width="0.071" stroke-linejoin="round" x1="0.405" y1="38.545" x2="0.463" y2="38.566"/>
 <line stroke-width="0.071" stroke-linejoin="round" x1="22.32" y1="6.702" x2="22.199" y2="6.669"/>
 <line stroke-width="0.071" stroke-linejoin="round" x1="21.775" y1="43.74" x2="22.199" y2="43.218"/>
 <line stroke-width="0.071" stroke-linejoin="round" x1="21.248" y1="8.271" x2="21.19" y2="8.343"/>
 <line stroke-width="0.071" stroke-linejoin="round" x1="21.62" y1="12.034" x2="21.678" y2="11.961"/>
 <line stroke-width="0.071" stroke-linejoin="round" x1="21.775" y1="6.753" x2="21.775" y2="7.612"/>
 <line stroke-width="0.071" stroke-linejoin="round" x1="25.129" y1="13.201" x2="25.071" y2="13.274"/>
 <line stroke-width="0.071" stroke-linejoin="round" x1="28.365" y1="8.526" x2="28.365" y2="9.39"/>
 <line stroke-width="0.071" stroke-linejoin="round" x1="28.521" y1="13.891" x2="28.579" y2="13.818"/>
 <line stroke-width="0.071" stroke-linejoin="round" x1="28.951" y1="10.432" x2="29.01" y2="10.361"/>
 <line stroke-width="0.071" stroke-linejoin="round" x1="22.32" y1="6.702" x2="22.199" y2="6.852"/>
 <line stroke-width="0.071" stroke-linejoin="round" x1="22.199" y1="6.23" x2="22.199" y2="6.852"/>
 <line stroke-width="0.071" stroke-linejoin="round" x1="22.32" y1="7.113" x2="22.32" y2="6.702"/>
 <line stroke-width="0.071" stroke-linejoin="round" x1="22.527" y1="13.041" x2="22.268" y2="13.362"/>
 <line stroke-width="0.071" stroke-linejoin="round" x1="20.603" y1="10.749" x2="20.327" y2="11.09"/>
 <line stroke-width="0.071" stroke-linejoin="round" x1="20.629" y1="7.363" x2="20.629" y2="5.987"/>
 <line stroke-width="0.071" stroke-linejoin="round" x1="50.265" y1="43.834" x2="0.238" y2="30.364"/>
 <line stroke-width="0.071" stroke-linejoin="round" x1="20.629" y1="39.158" x2="20.327" y2="39.531"/>
 <line stroke-width="0.071" stroke-linejoin="round" x1="21.288" y1="41.945" x2="21.19" y2="42.067"/>
 <line stroke-width="0.071" stroke-linejoin="round" x1="21.719" y1="38.487" x2="21.62" y2="38.609"/>
 <line stroke-width="0.071" stroke-linejoin="round" x1="25.071" y1="39.226" x2="25.169" y2="39.106"/>
 <line stroke-width="0.071" stroke-linejoin="round" x1="28.521" y1="40.466" x2="28.55" y2="40.432"/>
 <line stroke-width="0.071" stroke-linejoin="round" x1="29.05" y1="44.036" x2="28.951" y2="44.158"/>
 <line stroke-width="0.071" stroke-linejoin="round" x1="22.199" y1="43.218" x2="22.199" y2="42.649"/>
 <line stroke-width="0.071" stroke-linejoin="round" x1="27.53" y1="14.387" x2="27.269" y2="14.708"/>
 <path stroke-width="0.071" stroke-linejoin="round" d="M0.997 0.056C0.997 0.056 0.997 0.056 0.755 0.356C0.677 0.453 0.596 0.54 0.546 0.655C0.436 0.909 0.429 1.209 0.473 1.479C0.473 1.479 0.473 1.479 0.497 1.603C0.497 1.603 0.497 1.603 0.532 1.721C0.532 1.721 0.532 1.721 0.532 1.911C0.532 1.911 0.532 1.911 0.532 8.602C0.532 8.602 0.532 8.602 0.532 8.792"/>
 <path stroke-width="0.071" stroke-linejoin="round" d="M21.775 6.753C21.775 6.753 21.775 6.753 21.896 6.605C21.896 6.605 21.896 6.605 22.079 6.378C22.079 6.378 22.079 6.378 22.199 6.23C22.199 6.23 22.199 6.23 22.192 6.153C22.182 6.1 22.166 6.051 22.14 6.003C22.065 5.846 21.925 5.719 21.763 5.652C21.763 5.652 21.763 5.652 21.681 5.623C21.681 5.623 21.681 5.623 21.498 5.575C21.498 5.575 21.498 5.575 1.181 0.105C1.06 0.073 0.96 0.042 0.837 0.035C0.775 0.042 0.752 0.04 0.693 0.063C0.569 0.111 0.496 0.236 0.417 0.334C0.322 0.451 0.21 0.566 0.133 0.697C0.044 0.849 0.007 1.052 0.067 1.221C0.09 1.286 0.123 1.347 0.164 1.402C0.21 1.465 0.263 1.522 0.323 1.573C0.36 1.605 0.487 1.702 0.532 1.721C0.532 1.721 0.532 1.721 0.716 1.77C0.716 1.77 0.716 1.77 20.143 7.001C20.143 7.001 20.143 7.001 20.327 7.051"/>
 <path stroke-width="0.071" stroke-linejoin="round" d="M20.629 5.987C20.629 5.987 20.629 5.987 20.812 6.036C20.812 6.036 20.812 6.036 21.179 6.136C21.179 6.136 21.179 6.136 21.364 6.185C21.364 6.185 21.364 6.185 21.449 6.232C21.582 6.315 21.693 6.44 21.745 6.588C21.771 6.658 21.768 6.677 21.775 6.753"/>
 <path stroke-width="0.071" stroke-linejoin="round" d="M0.177 0.629C0.217 0.584 0.223 0.57 0.275 0.538C0.447 0.434 0.643 0.506 0.819 0.553C0.819 0.553 0.819 0.553 21.135 6.022C21.135 6.022 21.135 6.022 21.318 6.072"/>
 <line stroke-width="0.071" stroke-linejoin="round" x1="21.364" y1="6.185" x2="21.318" y2="6.072"/>
 <path stroke-width="0.071" stroke-linejoin="round" d="M29.513 8.378C29.361 8.64 29.263 8.929 29.225 9.23C29.208 9.364 29.21 9.496 29.21 9.632C29.21 9.632 29.21 9.632 29.21 13.292C29.21 13.493 29.211 13.693 29.153 13.887C29.042 14.266 28.745 14.564 28.373 14.695C28.242 14.742 28.099 14.769 27.961 14.781C27.961 14.781 27.961 14.781 27.736 14.784C27.736 14.784 27.736 14.784 27.507 14.759C27.365 14.737 27.225 14.696 27.086 14.66C27.086 14.66 27.086 14.66 22.452 13.412C22.452 13.412 22.452 13.412 22.268 13.362"/>
 <path stroke-width="0.071" stroke-linejoin="round" d="M28.365 8.526C28.373 8.462 28.37 8.436 28.396 8.378C28.457 8.239 28.629 8.153 28.777 8.182C28.777 8.182 28.777 8.182 28.961 8.23C28.961 8.23 28.961 8.23 29.329 8.33C29.329 8.33 29.329 8.33 29.513 8.378"/>
 <path stroke-width="0.071" stroke-linejoin="round" d="M28.432 8.316C28.432 8.316 28.432 8.316 28.553 8.167C28.553 8.167 28.553 8.167 28.725 7.955C28.725 7.955 28.725 7.955 28.844 7.807C28.844 7.807 28.844 7.807 28.888 7.756C28.955 7.689 29.05 7.66 29.144 7.657C29.262 7.653 29.379 7.697 29.489 7.727C29.489 7.727 29.489 7.727 49.805 13.195C49.923 13.227 50.042 13.252 50.151 13.311C50.201 13.339 50.25 13.377 50.293 13.416C50.396 13.51 50.476 13.635 50.5 13.775C50.5 13.775 50.5 13.775 50.506 13.85C50.506 13.85 50.506 13.85 50.506 14.041C50.506 14.041 50.506 14.041 50.506 14.282C50.506 14.282 50.506 14.282 50.506 14.473"/>
 <path stroke-width="0.071" stroke-linejoin="round" d="M27.269 39.652C27.429 39.704 27.586 39.756 27.736 39.829C28.158 40.036 28.524 40.351 28.795 40.734C28.954 40.962 29.085 41.216 29.153 41.487C29.207 41.694 29.21 41.902 29.21 42.113C29.21 42.113 29.21 42.113 29.21 45.774C29.21 45.915 29.198 46.073 29.242 46.21C29.257 46.253 29.285 46.32 29.332 46.335C29.332 46.335 29.332 46.335 29.516 46.386C29.516 46.386 29.516 46.386 49.151 51.673C49.232 51.695 49.337 51.726 49.426 51.743C49.628 51.78 49.845 51.719 49.997 51.582C50.076 51.515 50.143 51.417 50.204 51.341C50.204 51.341 50.204 51.341 50.331 51.185C50.402 51.095 50.479 51.024 50.5 50.911C50.5 50.911 50.5 50.911 50.506 50.84C50.506 50.84 50.506 50.84 50.506 50.649C50.506 50.649 50.506 50.649 50.506 50.408C50.506 50.408 50.506 50.408 50.506 50.218C50.506 50.218 50.506 50.218 50.627 50.069C50.627 50.069 50.627 50.069 50.627 49.878C50.627 49.878 50.627 49.878 50.627 14.513C50.627 14.513 50.627 14.513 50.627 14.323"/>
 <path stroke-width="0.071" stroke-linejoin="round" d="M50.506 50.84C50.506 50.84 50.506 50.84 50.265 51.14C50.189 51.232 50.124 51.334 50.017 51.393C49.892 51.463 49.756 51.472 49.616 51.473C49.488 51.463 49.369 51.445 49.246 51.402C49.246 51.402 49.246 51.402 49.125 51.354C49.125 51.354 49.125 51.354 49.006 51.293C49.006 51.293 49.006 51.293 48.823 51.243C48.823 51.243 48.823 51.243 29.394 46.015C29.394 46.015 29.394 46.015 29.21 45.963"/>
 <path stroke-width="0.071" stroke-linejoin="round" d="M50.085 51.488C50.085 51.488 50.085 51.488 50.118 51.429C50.159 51.328 50.145 51.201 50.145 51.097C50.145 51.097 50.145 51.097 50.145 44.173C50.145 44.173 50.145 44.173 50.145 43.984C50.145 43.984 50.145 43.984 50.265 43.834C50.265 43.834 50.265 43.834 50.265 43.643C50.265 43.643 50.265 43.643 50.265 21.644C50.265 21.644 50.265 21.644 50.265 21.454"/>
 <path stroke-width="0.071" stroke-linejoin="round" d="M49.006 21.843C49.338 21.914 49.716 21.914 50.011 21.722C50.116 21.652 50.188 21.55 50.265 21.454"/>
 <path stroke-width="0.071" stroke-linejoin="round" d="M49.99 13.244C49.85 13.416 49.707 13.583 49.575 13.762C49.438 13.945 49.32 14.146 49.21 14.349C49.152 14.455 49.098 14.564 49.049 14.675C49.049 14.675 49.049 14.675 49.006 14.772C49.006 14.772 49.006 14.772 49.006 14.961C49.006 14.961 49.006 14.961 49.006 21.652C49.006 21.652 49.006 21.652 49.006 21.843"/>
 <path stroke-width="0.071" stroke-linejoin="round" d="M50.145 21.603C50.145 21.603 50.145 21.603 50.145 21.414C50.145 21.414 50.145 21.414 50.145 14.49C50.145 14.49 50.145 14.49 50.145 14.3C50.145 14.3 50.145 14.3 50.139 14.224C50.1 13.999 49.917 13.807 49.712 13.721C49.712 13.721 49.712 13.721 49.628 13.693C49.628 13.693 49.628 13.693 49.444 13.644C49.444 13.644 49.444 13.644 29.126 8.175C29.126 8.175 29.126 8.175 28.943 8.125C28.943 8.125 28.943 8.125 28.777 8.182"/>
 <path stroke-width="0.071" stroke-linejoin="round" d="M29.21 9.442C29.21 9.442 29.21 9.442 29.394 9.492C29.394 9.492 29.394 9.492 48.823 14.721C48.823 14.721 48.823 14.721 49.006 14.772C49.042 14.775 49.216 14.75 49.246 14.746C49.543 14.692 49.866 14.573 50.088 14.361C50.088 14.361 50.088 14.361 50.145 14.3C50.145 14.3 50.145 14.3 50.265 14.15C50.265 14.15 50.265 14.15 50.506 13.85"/>
 <path stroke-width="0.071" stroke-linejoin="round" d="M0.532 31.172C0.532 31.172 0.532 31.172 0.716 31.221C0.716 31.221 0.716 31.221 48.823 44.173C48.962 44.21 49.097 44.25 49.241 44.262C49.5 44.286 49.789 44.246 50.011 44.101C50.079 44.055 50.088 44.04 50.145 43.984"/>
 <path stroke-width="0.071" stroke-linejoin="round" d="M20.448 43.945C20.448 43.945 20.448 43.945 20.265 43.895C20.265 43.895 20.265 43.895 0.647 38.615C0.647 38.615 0.647 38.615 0.463 38.566C0.435 38.555 0.454 38.481 0.456 38.469C0.466 38.424 0.482 38.371 0.497 38.331C0.497 38.331 0.497 38.331 0.532 38.243C0.532 38.243 0.532 38.243 0.532 38.052C0.532 38.052 0.532 38.052 0.532 31.362C0.532 31.362 0.532 31.362 0.532 31.172"/>
 <path stroke-width="0.071" stroke-linejoin="round" d="M0.038 30.719C0.038 30.719 0.038 30.719 0.038 30.91C0.038 30.91 0.038 30.91 0.038 37.807C0.038 37.893 0.029 38.008 0.046 38.098C0.079 38.292 0.219 38.491 0.416 38.548"/>
 <path stroke-width="0.071" stroke-linejoin="round" d="M20.327 43.573C20.327 43.573 20.327 43.573 20.143 43.523C20.143 43.523 20.143 43.523 0.716 38.292C0.716 38.292 0.716 38.292 0.532 38.243C0.532 38.243 0.532 38.243 0.422 38.243C0.303 38.234 0.14 38.21 0.067 38.101C0.038 38.06 0.043 38.045 0.038 37.997"/>
 <path stroke-width="0.071" stroke-linejoin="round" d="M49.335 51.722C49.335 51.722 49.335 51.722 49.271 51.692C49.167 51.625 49.098 51.512 49.049 51.402C49.049 51.402 49.049 51.402 49.006 51.293C49.006 51.293 49.006 51.293 49.006 51.103C49.006 51.103 49.006 51.103 49.006 44.412C49.006 44.412 49.006 44.412 49.006 44.222"/>
 <path stroke-width="0.071" stroke-linejoin="round" d="M22.199 43.218C22.199 43.218 22.199 43.218 22.192 43.289C22.17 43.404 22.094 43.473 22.022 43.563C22.022 43.563 22.022 43.563 21.829 43.804C21.829 43.804 21.829 43.804 21.708 43.951"/>
 <path stroke-width="0.071" stroke-linejoin="round" d="M21.064 8.169C21.032 8.278 21.178 8.372 21.271 8.339"/>
 <path stroke-width="0.071" stroke-linejoin="round" d="M21.495 11.861C21.463 11.97 21.609 12.063 21.702 12.028"/>
 <path stroke-width="0.071" stroke-linejoin="round" d="M25.152 13.269C25.123 13.279 25.138 13.275 25.103 13.278C25.025 13.266 24.917 13.195 24.945 13.101"/>
 <path stroke-width="0.071" stroke-linejoin="round" d="M28.394 13.718C28.364 13.827 28.51 13.92 28.603 13.887"/>
 <path stroke-width="0.071" stroke-linejoin="round" d="M29.067 14.099C28.989 14.169 28.896 14.226 28.8 14.268"/>
 <path stroke-width="0.071" stroke-linejoin="round" d="M29.033 10.429C29.004 10.439 29.021 10.435 28.984 10.438C28.907 10.426 28.8 10.355 28.826 10.26"/>
 <path stroke-width="0.071" stroke-linejoin="round" d="M20.629 5.987C20.477 6.248 20.379 6.538 20.341 6.839C20.324 6.972 20.327 7.105 20.327 7.24C20.327 7.24 20.327 7.24 20.327 10.9C20.327 11.112 20.332 11.32 20.385 11.526C20.538 12.128 20.963 12.647 21.471 12.99C21.646 13.108 21.832 13.21 22.03 13.285C22.03 13.285 22.03 13.285 22.268 13.362"/>
 <path stroke-width="0.071" stroke-linejoin="round" d="M0.047 8.271C0.038 8.333 0.031 8.349 0.046 8.412C0.096 8.628 0.34 8.737 0.532 8.792C0.532 8.792 0.532 8.792 0.716 8.842C0.716 8.842 0.716 8.842 48.823 21.794C48.823 21.794 48.823 21.794 49.006 21.843"/>
 <path stroke-width="0.071" stroke-linejoin="round" d="M0.238 8.662C0.238 8.662 0.238 8.662 0.238 8.852C0.238 8.852 0.238 8.852 0.238 30.175C0.238 30.175 0.238 30.175 0.238 30.364C0.238 30.364 0.238 30.364 0.118 30.515C0.085 30.559 0.061 30.596 0.047 30.649C0.014 30.777 0.076 30.902 0.17 30.986C0.216 31.03 0.271 31.065 0.327 31.094C0.409 31.135 0.443 31.143 0.532 31.172"/>
 <path stroke-width="0.071" stroke-linejoin="round" d="M20.772 38.54C20.772 38.54 20.772 38.54 20.756 38.57C20.756 38.57 20.756 38.57 20.721 38.661C20.686 38.755 20.658 38.85 20.643 38.948C20.626 39.079 20.629 39.218 20.629 39.347C20.629 39.347 20.629 39.347 20.629 43.698C20.629 43.698 20.629 43.698 20.629 43.889"/>
 <path stroke-width="0.071" stroke-linejoin="round" d="M27.269 39.652C27.269 39.652 27.269 39.652 27.086 39.603C27.086 39.603 27.086 39.603 22.452 38.354C22.314 38.319 22.172 38.277 22.03 38.256C22.03 38.256 22.03 38.256 21.8 38.231C21.8 38.231 21.8 38.231 21.577 38.234C21.439 38.244 21.295 38.273 21.164 38.319C20.794 38.451 20.496 38.747 20.385 39.127C20.327 39.32 20.327 39.521 20.327 39.722C20.327 39.722 20.327 39.722 20.327 43.381C20.327 43.381 20.327 43.381 20.327 43.573C20.327 43.573 20.327 43.573 20.33 43.667C20.33 43.667 20.33 43.667 20.341 43.749C20.358 43.841 20.41 43.985 20.532 43.948C20.574 43.936 20.594 43.915 20.629 43.889"/>
 <path stroke-width="0.071" stroke-linejoin="round" d="M21.775 42.908C21.775 42.908 21.775 42.908 21.775 43.098C21.775 43.098 21.775 43.098 21.775 43.551C21.775 43.712 21.797 43.889 21.661 44.003C21.661 44.003 21.661 44.003 21.599 44.045C21.599 44.045 21.599 44.045 21.527 44.073C21.461 44.091 21.434 44.087 21.364 44.087C21.364 44.087 21.364 44.087 20.629 43.889"/>
 <path stroke-width="0.071" stroke-linejoin="round" d="M21.089 41.847C21.076 41.865 21.064 41.88 21.062 41.902C21.05 41.978 21.12 42.049 21.19 42.067C21.231 42.079 21.297 42.07 21.312 42.021"/>
 <path stroke-width="0.071" stroke-linejoin="round" d="M21.742 38.563C21.731 38.603 21.689 38.612 21.653 38.613C21.571 38.601 21.454 38.518 21.5 38.42C21.5 38.42 21.5 38.42 21.521 38.39"/>
 <path stroke-width="0.071" stroke-linejoin="round" d="M25.193 39.18C25.181 39.22 25.138 39.229 25.103 39.231C25.071 39.228 25.068 39.229 25.039 39.215C24.978 39.185 24.91 39.097 24.954 39.03"/>
 <path stroke-width="0.071" stroke-linejoin="round" d="M29.242 46.207C29.242 46.207 29.242 46.207 29.057 46.158C29.057 46.158 29.057 46.158 28.961 46.131C28.961 46.131 28.961 46.131 28.777 46.082C28.734 46.067 28.649 46.009 28.614 45.979C28.496 45.884 28.402 45.749 28.373 45.598C28.359 45.52 28.365 45.389 28.365 45.325C28.365 45.325 28.365 45.325 28.365 44.883C28.365 44.883 28.365 44.883 28.365 44.692"/>
 <path stroke-width="0.071" stroke-linejoin="round" d="M28.399 40.283C28.378 40.353 28.425 40.423 28.489 40.454C28.515 40.466 28.554 40.479 28.582 40.469"/>
 <path stroke-width="0.071" stroke-linejoin="round" d="M28.853 43.938C28.838 43.954 28.826 43.969 28.824 43.993C28.814 44.069 28.884 44.14 28.951 44.158C28.993 44.168 29.059 44.161 29.074 44.11"/>
 <clipPath id="iso4732" fill="none" stroke="none">
  <path d="M0 51.789L0 51.789 0 51.789 0 51.789 0 51.789z"/>
 </clipPath>
 <g clip-path="url(#iso4732)">
  <line stroke="#FFFFFF" stroke-width="0.353" stroke-linecap="butt" stroke-miterlimit="10" x1="0" y1="51.789" x2="0.353" y2="51.436"/>
 </g>
 <path stroke="none" d="M0 51.789L0 51.789 0 51.789 0 51.789 0 51.789z"/>
</svg>
