<svg xmlns="http://www.w3.org/2000/svg" xmlns:xlink="http://www.w3.org/1999/xlink" viewBox="0 0 1400 1400" enable-background="new 0 0 1400 1400"><style type="text/css">.st0{fill:none;} .st1{fill:none;stroke:#000000;} .st2{clip-path:url(#SVGID_2_);} .st3{fill:none;stroke:#FFFFFF;stroke-miterlimit:10;}</style><path class="st0" d="M1295.4 100h-1190.8v1200h1190.8v-1200z"/><path class="st1" d="M604.9 1065.3l-1.8 2.4M589.8 1110.9v-29.4M617 1118.2l-27.2-7.3M1258.6 619.2v-168M793.6 326l465 125.2M773.5 293.4l27.3 7.4M1294.3 418.3l-510.7-137.5M774.9 291.4l510.7 137.6M117.6 978.2l465 125.2M117.6 810.2v168M582.6 1007.4l7.1-8.7M613.3 985.5l1.9-2.3M777.2 1029.6l.7-.8M773.5 1160.4l20.9 5.6M1258.6 1285.4v-167.9M1285.6 1296.3v-184.5M1288.5 1108.2l-1177.9-317.1M773.5 1130.9v29.5M787.4 1117.3l1.9-2.3M789.3 347.2l-1.9 2.4M589.8 276.6v-32.6M617 251.3l-27.2-7.3M603.1 299.9l1.8-2.3M627.1 266.3v-27.6M116.4 101.2l510.7 137.5M107.7 111.8l510.8 137.5M629.9 270.4v-7.6M627.1 266.3l2.8-3.5M627.1 262l2.8.8M117.6 311.9v-167.9M589.6 356.5l-7 8.7M615.2 385.3l-1.9 2.3M628.7 419.1l6.6-8.2M754.1 442.9l-6.6 8.2M777.2 431.7l1.9-2.3M617 1088.2v30M697.1 997.9l-1.8 2.3M697.1 414.7l-1.8 2.3M605.5 1067.3c-.6.4-1 .5-1.7.5-2.2-.3-4.5-2.4-3.5-4.7M589.8 1110.9c-1.2.9-1.9 1.4-3.3 1.6l-1-.3-4.4-1.2-470.2-126.5-4.4-1.2-.4-.2-.2-.4v-178.7c0-.9-.2-4.5.2-6.2.5-2 1.9-3.5 3.1-5l1.4-1.8v-482.3M116.4 101.2l-5.8 7.1c-1.4 1.7-3.3 3.6-4.1 5.8-1 2.9-.7 6.4-.7 9.4v177.7l.2 1.7c1.2 5.1 7 7.7 11.6 9l4.4 1.2 1132.3 304.9c2.2.6 4.9 1.4 7.2 1.8 6.9 1.3 15 .5 21.1-3.4 2.5-1.7 4.2-4.1 6.1-6.4M105.8 799.6c.2 1.5.1 1.9.8 3.3 2.8 5.6 9.9 7.1 15.3 8.6l1132.3 304.9c2.2.6 4.9 1.4 7.2 1.8 3.7.7 7.6.7 11.4 0 4.8-.8 9.6-2.6 12.8-6.3l2.9-3.5v-498.3M1294.3 418.3l-5.8 7.1-2.9 3.6v184.5M1285.6 429c-2.8 3.3-6.2 6.4-9.5 9.3-5.5 4.7-11.4 9-17.5 13M589.8 244c-3.6 6.2-6 13.1-6.8 20.2-.4 3.2-.3 6.4-.3 9.5v87c0 5 .1 10 1.3 14.8 1.2 4.6 3.1 8.9 5.4 12.9 5.5 9.6 13.5 17.7 22.9 23.6 3.4 2 7.1 3.8 10.8 5.3 3.2 1.2 6.7 2.1 10 3l110.1 29.6c3.3.9 6.6 1.9 10 2.4 8.3 1.3 17.4.5 24.9-3.5 6.8-3.5 12-9.9 14.2-17.2 1.4-4.6 1.4-9.4 1.4-14.2v-86.9c0-3.2 0-6.4.4-9.5.9-7.1 3.2-14 6.8-20.2M773.5 326.2v-32.8l.7-1 .7-1 2.9-3.5 5.8-7.1M1294.3 418.3v867.4l-2.9 3.5-2.9 3.6c-1.3 1.5-2.8 4-4.7 5.1-1.3.8-2.6.9-4.1 1-2.8-.3-5.3-1.1-8-1.8l-470.9-126.8-4.3-1.1c-1.2-.5-1.8-2-2.1-3-1.1-3.3-.8-7-.8-10.4v-86.9c0-5.1-.1-10-1.4-14.9-1.6-6.5-4.7-12.5-8.5-17.9-6.4-9-15.1-16.6-25.1-21.4-4.9-2.5-10.1-4-15.4-5.4l-110.1-29.6c-3.2-.9-6.6-1.9-10-2.4l-5.4-.6-5.4.1c-3.2.2-6.7.9-9.8 2-8.8 3.1-15.9 10.2-18.5 19.1-1.3 4.6-1.3 9.4-1.3 14.1v91.5c0 3.1.1 6.8 2.8 8.8M106.5 983.3c1.6 0 3.1-.7 4.6-1.4 2.3-1.1 4.4-2.4 6.6-3.7M593.1 983.9l-.3.7-.9 2.2c-1.1 2.8-1.8 5.7-2 8.7M615.7 985.1c-.6.4-1 .5-1.7.6-2.2-.4-4.5-2.4-3.5-4.8M774.3 1025.3c-1 2.2 2.2 5.1 4.4 4.4M793.6 1160.2l4.3 1.2 456.3 122.8 4.4 1.1 2.6 2.9 2.7 2.5c3.6 3.2 7.6 5.8 12.2 7.4M789.9 1116.9c-.6.4-1 .5-1.7.5-2.2-.3-4.5-2.4-3.5-4.7M789.9 349.1c-.6.4-1 .5-1.7.5-2.2-.3-4.6-2.4-3.5-4.8M627.1 238.7l-5.8 7-2.8 3.6-.8.9-.7 1.1v32.3M605.5 299.5c-.6.4-1 .5-1.7.5-2.2-.3-4.5-2.4-3.5-4.8M105.8 119c.6 6.8 3.4 13.1 7.1 18.8.4.6 4 5.8 4.6 6.2l4.4 1.2 456.3 122.8 4.4 1.3M610.5 382.9c-1.3 2.9 2.7 5.9 5.2 4.3M779.2 442.4c3.9-1.1 7.8-3 10.9-5.7M779.6 431.2c-.6.4-1 .5-1.7.6-2.2-.4-4.5-2.4-3.5-4.8M627.1 1081.5v24.5l-2.8 3.5c-2.4 2.9-4.6 6-7.2 8.7M697.7 999.7c-.6.5-1 .6-1.7.6-2.2-.3-4.5-2.4-3.5-4.7M697.7 416.6c-.6.4-1 .5-1.7.5-2.2-.3-4.5-2.4-3.5-4.8M734.7 1109.1l-2.5-.7M731.9 1119.2l-61.5-16.5M669.3 1077.1l1.1 25.6M661.3 1032.8l-2.3 4M653 1047.2l-2.3 4M724.6 1036.4l-57.8-15.6M724.7 1036.2l-57.9-15.6M720.1 1053.3l2.3-4M736 1069.6l-2.3 4M731.9 1119.2l-1.2-27.1M716 1086.9l.6.1M732.3 1110.1l1.2.4M673.6 1075.4l.4.1M673.6 1075.4l.5-.8M678.4 1065.8c-2 2.9-4 5.5-4.4 9.1-1.3 10.1 6.6 19.4 15.1 23.8 1.8.9 3.7 1.6 5.7 2.1 3.1.9 6.6 1.3 9.8.6 1.2-.2 2.5-.5 3.6-1.1 1.6-.8 3-1.6 4.3-2.8 2.2-2 3.7-4.9 5.5-7.3"/><path class="st1" d="M737.2 1073.8c.6-.2.9-.2 1.4-.5 2.1-1.3 1.4-3.9.2-5.6-2.2-2.9-5.7-4.7-9.3-4.7-.8.1-1.5.2-2.1.6-2.2 1.3-1.4 4-.2 5.6 2.1 3.1 6.2 5.1 10 4.6zM716.4 1089.8l8.9 2.4c1.6.4 3.2.6 4.8.1l.8-.3 4-2.1 9.7-5.1c1.9-1 4.5-2 6.2-3.6 1.1-1.1 1.8-2.7 2.6-4l1.2-2c2.1-4.1-.2-9.2-2.7-12.7-6-8.1-16.2-13.4-26.2-13.5-2.2.2-1.1 0-3.2.4l-4.4-1.2-52.3-14.1-4.4-1.2-1.8-1.2c-1.8-1.1-3.7-2.1-5.7-2.9-3.6-1.5-7.4-2.2-11.4-2.2-3 .3-6 .8-8.1 3-1.2 1.1-1.9 2.7-2.6 4-1.1 1.9-2 3.5-1.9 5.8 0 3.3 1.6 6.4 3.5 8.9 2.2 2.8 4.8 5.1 7.4 7.4l15.6 14c1.7 1.5 3.3 3.3 5.2 4.5 2.5 1.6 5.4 2.3 8.3 3l4 1.1"/><path class="st1" d="M688.6 1096.9c-5.4-3.2-10.3-8-11.8-14.3-.4-1.5-.5-3.1-.2-4.6.1-1 .4-1.9.8-2.7 3.1-6.4 11.5-6.4 17.1-4.3 6.1 2.2 11.6 6.8 14.3 12.7 1.9 4.1 2.3 9.4-1.1 12.9-.7.7-1.5 1.3-2.3 1.8-1.9 1-3.9 1.3-6 1.5-3.9-.2-7.3-1.3-10.8-3zM676.2 1104.2c1.4 1.4 4.1 1.6 5.5 1.9l42.6 11.5c.7.2 3.7 2.1 5 .9M732.5 1113.8c.8-1.6 1.6-3.1 2.2-4.7M673.6 1075.4c-.2-1.5-.2-2.8.2-4.2 1.8-6.7 10.2-7.4 15.9-6.5 2.1.4 4.1 1 6.1 1.7 9.2 3.4 18.7 10.6 20.9 20.6M739.7 1069.8l-1 .1c-4.1 0-9-2.5-10.3-6.7M752.2 1079.1c.4-1.1.6-1.3.7-2.4.6-4.4-1.9-8.6-4.6-11.8-6.1-7.2-15.5-11.8-25-11.9-2.2.1-1.1 0-3.2.4l-4.4-1.2-52.3-14.1-4.3-1.2-1.8-1.2c-1.9-1.1-3.7-2.1-5.7-2.8-3.6-1.5-7.4-2.2-11.4-2.3-3 .3-6 .8-8.1 3-.9.9-.9 1.1-1.5 2.1"/><path class="st1" d="M648.8 1050.6c-2.4-1.3-5.1-3.1-5.8-5.9-.1-.5-.1-.9 0-1.4.3-2.8 4.1-2.7 6.2-2.2.7.2 1.3.4 1.9.7 2.1 1 4 2.5 5.1 4.5 1 1.6 1.2 3.7-.6 4.8-.7.4-1.4.5-2.1.6-1.7-.1-3.2-.5-4.7-1.1zM656.8 1047.4l-1 .2c-4.1-.1-9-2.6-10.3-6.7M727.4 1031.3c-19.5-5.3-38.9-11-58.5-15.7-.8.1-1.3 1.2-1.6 1.9-1 2.5-.6 5.1-.4 7.8l.2 4.6.2 4.5M716.4 1086.2l-.4.7.3 1.6-.1 1.7c-.2 2.2-1.1 3.9-2.3 5.8M732.5 1112.9c.3-.8.6-1.8 1.1-2.4l1.2-1.4M728.5 1118.3l.2.5M731.9 1119.2c1.7-2.3.8-.7.6-5.6l-.6-12.1-.2-4.5M716 1086.9c.6-.8-.3-2.7-.6-3.5M692.7 1070.3c0-1.6.3-3.2 1-4.6M676 1067.5c-.2 1.4-.1.7-.2 2.2M680.9 1065c-1.7.8-2.9 1.8-4.1 3.2M694.8 1100.8c-.6-.3-.7-1-.7-1.7M659.8 1021.3l-3-.9M658.7 1014.3l3.1.9M672.3 1016.5v-10.2M691.7 996.5l-1.2 1.4M673.9 1016.9v-10.2M662.1 1033.1v-9.1M659.8 1026.8l2.3-2.8M659.8 1026.8l-3-.8M659 1031.4v-4.8M664 1078.8l-.5-3.5M664 1078.8l3.1.8M666.6 1076.3l.5 3.3M669.2 1077.1l-2.1 2.5M599.5 1063.9l-1.2 1.4M630.6 1077.1v-34M637.5 996.9v30.6M630.6 1035.6v-39.6M608.6 983.2l1.1-1.4M637.5 1052.8v22.8M625.8 998.2l.8-.8M731.9 1101l38.6 10.4M782.7 1115l1.2-1.5M729.7 1065.3l-.3-.1M729.7 1042.2v7M740.4 1052.8v-28.2M726.3 1032.5l3.1.9M740 1052.6v-28.1M727.5 1039.5l-3.1-.9M727.5 1045l2.2-2.8M727.5 1045l-3.1-.8M726.6 1044.8v4.1M772.4 1027.3l1.2-1.4M731.6 1097l-.7-5M731.6 1097l3.1.9M733.5 1090.5l1.2 7.4M666.5 1004.7l-2.8 3.5-2.2 2.6-2.8 3.5-.3.4c-2.2 3.3-1.7 7.5-1.7 11.3M659.8 1026.8c0-3.7-.5-7.9 1.7-11.2l.3-.4 2.8-3.5 2.1-2.6 2.9-3.5M695.6 996.3c1.6 1.2 3.4 4.3.9 5.6-.5.2-.9.3-1.3.3-1.7-.1-3.2-1-4-2.4-1.1-1.7-.6-3.8 1.5-4.3M691.8 995.8c-.8 3.1 3.1 5.8 5.8 4.7M669.6 1084.3l-4.4-1.2-23.4-6.3c-2.2-.6-4.1-1.3-6.4-1.5-1.3 0-2.6.2-3.7.8-1.7.9-3.1 3.4-4 4.5-1.5 1.9-2.7 3.9-4.5 5.5-1.7 1.6-4.1 2-6.4 2.2-2.8 0-5.2-.9-8.1-1.6l-14.8-4-4.4-1.2M605.4 1068c-.5.2-.8.3-1.4.3-2.4-.2-5.2-2.4-4.5-5.1"/><path class="st1" d="M604.9 1068.9c2-2.7-1.4-5.8-4-6-.4 0-.9.1-1.3.3-1.4.7-1.5 2.3-.9 3.5 1 2.3 4.2 4.1 6.2 2.2zM595.1 982.5c-2.6 3.7-4.3 8-5.1 12.5-.5 3.3-.4 6.5-.4 9.8v76.7"/><path class="st1" d="M614.1 982c1.4 1.3 2.7 4 .4 5.2-.4.3-.9.3-1.3.3-2-.2-3.9-1.4-4.5-3.4l-.1-1c0-2.2 2.4-2.7 4.1-2.1.5.3.9.6 1.4 1zM754.9 1028.5l-4.4-1.2-110.1-29.7c-2.9-.8-5.5-1.5-8.4-1.7h-1.3M775 1131.4v-76.6c0-3.5.2-6.8-.8-10.1-2.4-8.2-9.1-14.9-16.7-18.3-2.7-1.2-5.5-1.8-8.3-2.5l-110.1-29.6c-3.5-1-6.7-1.8-10.3-2-2.4 0-4.8.3-7.1 1.3-4.7 1.9-7.9 6.3-8.4 11.4l-.1 1.8v81.3M609.8 981.1c-.8 3 3.1 5.8 5.8 4.7M627.3 996.9c1.3-.6.7-.3 1.9-.7M634.7 993c0 1.2 0 3.2 1.5 3.5M626.1 997.9c-.5.7-.9 1.1-1.3 1.8-1.5 2.9-1.1 6.2-1.1 9.2v76.7M626.1 997.8c1.1-.8.6-.4 1.6-1M613.2 1006.6c1.2.2 2.4.4 3.7.4 2.2-.1 4.7-.6 6.4-2.1l.4-.5 2.8-3.5 1.1-1.3 2.8-3.5M631.3 996c-1.6.2-.8 0-2.4.4M789.8 1117.6c-.4.2-.8.3-1.4.3-2.3-.2-5.1-2.4-4.4-5"/><path class="st1" d="M789.3 1115c.8 1.3 1 3.2-.6 4-.5.2-.9.3-1.3.3-2.2-.1-4.6-2-4.6-4.3l.1-.9c.8-2.1 3.4-1.7 5-.8.5.5 1 1 1.4 1.7zM770.2 1044c.4 2.3.3 4.4.3 6.8v76.69999999999999c0 2.2 2.8 3.4 4.5 3.9l4.3 1.2 9.9 2.6 4.3 1.2M768.6 1039.5c-2.1-3.6-4.8-6.5-8.5-8.7-1.3-.8-2.6-1.4-4.1-1.9-.8-.3-1.5-.2-1.9-1-.6-.9-.6-1.9-.7-2.9M737.1 1023.7l-2.8 3.5-2.1 2.6-2.8 3.5-.3.4c-2.2 3.3-1.6 7.5-1.6 11.3M729.7 1063v2.5999999999999996M724.4 1044.2c0-3.7-.6-7.9 1.6-11.2l.3-.4 2.8-3.5 2.1-2.7 2.9-3.5M768.6 1039.4c.8 1.6 1.4 3.1 1.8 4.8M770.5 1046.2c.4 2.3 2.5 3.3 4.5 3.9M774.1 1025.1c-1.6.6-1.9 2.2-1.3 3.7.6 1.4 1.8 2.4 3.3 2.8 1.1.3 2.7.1 3.3-1.1M779.1 1030.1c-.6.1-.3.1-.9.1-2.4-.1-5.2-2.4-4.5-5M740 1087.2v4.1l-5.3 6.6M740 1091.3c.9-1.3.4-2.8.4-4.3M733.5 287.3l-2.5-.7M731.4 323.5l1.3-30M670.4 277.8l61.5 16.5M671.2 277l61.5 16.5M734.7 284.9l-1.2 2.4M668.1 317l-2.3 1.8M673.6 325.1h.3M733.2 337l-2.3 1.8M725.3 334.8l2.4-1.7M716 336.5l.6.1M751 362.8l-2.4 1.7M732.1 382.1l2.3-1.7M649.2 359.7l2.3-1.7M732.7 293.5c-1.8 2-.8.5-1 5.4l-1.3 30.4-.2 4.6M701.3 350.5l-1.9.1c-5.6-.2-10.8-2-15.2-5.4-3.3-2.6-6.1-5.9-8-9.7-2.9-5.9-3.5-13.3 0-19.1 1.2-1.9 2.8-3.5 4.3-5.1.8-.9 2.3-2.5 3.3-3.4 2.3-2 5.3-3.2 8.4-3.5 10.2-1.3 20.4 5.5 25.2 14.2 2.1 3.8 3.4 8.3 3 12.6M686.7 346.9c5.6 3.9 12.6 6.1 19.3 4 1.6-.5 3.1-1.2 4.5-2.1M675.1 318.9c-3-.8-6.1-2-9.2-2.1-.9 0-1.2 0-2.1.3-2 .6-4.1 2.4-5.6 3.3l-14.8 9.9c-4 2.7-8.6 5.4-11.1 9.7-5.4 9.2-1.6 21.3 6.1 28 3.6 3.1 8.2 5.3 13 5.6 1.9.2 3.9 0 5.8-.4l1.8-.6 4.3 1.2 52.3 14 4.4 1.2 3.2 2.7c3.3 2.4 7.3 3.9 11.4 4.2 1.9.1 3.8-.1 5.8-.5 1.8-.5 3.5-1.3 5-2.3 6.8-4.5 8.8-13.3 6.8-20.9-1.2-4.4-3.6-7.8-6.2-11.5l-12.7-18.3c-1.2-1.7-2.4-4-4.1-5.5-2.4-2.1-5.4-2.5-8.4-3.3l-.2-.1-4.3-1.2"/><path class="st1" d="M698.6 317.4c1.5.8 2.8 1.7 4.1 2.8 5.8 5 10 14 6.2 21.4-.5 1-1.1 1.9-1.9 2.6-1.1 1.2-2.4 2.1-3.9 2.7-1.6.7-3.2 1-5 1.2-1.9 0-3.6-.1-5.4-.6-8.5-2.3-16.1-10.6-16.3-19.7 0-1.7.3-3.4.8-5 .4-1 .9-2 1.5-2.8.6-.9 1.4-1.7 2.2-2.3 5.1-4.1 12.3-3.2 17.7-.3zM716 336.5c.7-4.1-.3-8.2-2.1-11.9-3.2-6.5-9-11.8-15.9-14.3-2.6-1-5.3-1.3-8-1.4-3.1.2-6.1.7-8.8 2.4-1.3.8-1.6 1.2-2.7 2.2M637.4 334.6l3.7-2.5 14.8-9.9 3.8-2.5c3.3-2.2 6.9-.6 10.4.3l4.3 1.2M673.6 325.1c-.2 2.2-.2 4.2.2 6.4 1.3 8.1 6.6 15.4 13.8 19.2 7.2 3.8 16.6 3.8 22.9-1.8 1-.9 1.8-1.8 2.6-2.9 2-2.8 3-6 3.5-9.4M675.1 278.1c1.1-2.5 2.4-4.9 4-7.2.6-.7 1.3-1.9 2.2-2.2h.2l4.4 1.2 41.9 11.3c1.9.5 4.9.6 6.2 2.4l.7 1.3M732.2 282.3c-1.5 0-2.3 1.3-2.8 2.5-.9 2.4-1.1 5.3-.5 7.7M733.5 287.3c-.3-.7-.8-1.4-1.6-1.5-.8.2-1.2 1.1-1.5 1.9-.5 1.8-.2 3.6.3 5.4M668.9 317.2l.1-4.5 1.3-30.4c.2-4.9-.8-3.4 1-5.4M694.1 315.6c.1-2 .6-4 1.7-5.6l.3-.4 2.2-2.3 2.1-2.3M745.4 393.1c2.3-1.7 4.7-3.2 6.4-5.5 4.5-6.1 4.4-14.4 1.3-21.1-1.3-2.6-3-5-4.7-7.5l-12.6-18.2c-1.2-1.7-2.5-4-4.1-5.5-2.4-2.1-5.3-2.5-8.4-3.4h-.1l-4.4-1.2M715.3 342c-1.6 1.7-3.1 3.5-4.9 5-2.6 2-5.5 2.9-8.6 3.4M692.7 347.5c0 .8-.1 1.8.7 2.3M716.2 336.5c-.5 2.9-1.4 5.6-3.2 7.9-1 1.2-1.3 1.4-2.4 2.4M718.8 330.7l-2.4 1.7M729.6 368.2c-1.3 1.5-1.6 3.8-1.2 5.7.9 4.4 5.7 8.1 10.1 6.2"/><path class="st1" d="M729.1 368.4c-.8.5-1.5 1-2 1.8-3.7 5.2 1.8 13.1 7.9 12.1 4.2-.7 5.8-5.2 4.4-8.9-1.2-3.3-4.1-5.5-7.6-5.7-1 .2-1.8.3-2.7.7zM656.1 350.1c-1.7-2.8-4-4.6-7.2-4.8-1.3.2-2.4.4-3.5 1.2-1 .7-1.7 1.8-2.1 2.9-1.4 4.3 1.6 9.2 5.9 10.3 3.9 1.1 7.6-1.6 7.8-5.7 0-1.3-.4-2.6-.9-3.9zM655.6 357.8c-.8.3-1.4.4-2.2.5-1.7-.1-3.2-.6-4.6-1.6-3.1-2.3-5-7.5-2.2-10.8M727.5 399.1l-3.1-.9M724.4 392.7l.5.1M722.8 391.4l-56.2-15.2M659.8 380.8l-3-.8M664 303.7l3.1.8M637.5 334.5v-63.5M630.6 344.2v-71.8M599.5 296.2l-1.2 1.4M608.6 385.3l1.1-1.5M659.8 375.3l-3-.8M773.6 427.9l-1.2 1.5M729.7 376.9v-8.8M782.7 347.2l1.2-1.4M732.6 296.6l40.9 11M773.5 305.9l-40.9-11M736.3 316v-1.5M731.6 321.9l3.1.8M733.1 395.8l-1.8 2.3c-.4.4-1.7 2.7-2.9 3-1.6-.3-3.5-.2-3.8-1.9l-.1-1v-5.4l.1-.2M658.1 372.8l-1.3 1.6v5.5l.1 1c.3 1.7 2 1.4 3.7 1.8h.4l.8-.6c1.9-2.4 3.9-4.9 5.9-7.3M670.4 279.8l-4.4-1.2-24.1-6.5c-2.2-.6-4.1-1.3-6.4-1.4-1.7 0-3.7.3-4.9 1.7l-2.9 3.5-1.2 1.5-2.8 3.5v81.19999999999999l.1 1.3c.3 3.3 2 6.5 4.1 9 2.3 2.7 5.3 4.9 8.7 6.1l1.4.4 4.4 1.2 110.1 29.6c4.8 1.4 9.9 3 14.5.2 1-.6 1.7-1.4 2.4-2.3M775 326.7v81.2l-.1 1.7c-.6 5.1-3.7 9.5-8.4 11.4-2.3 1-4.6 1.2-7.1 1.3-3.6-.1-6.8-1.1-10.3-2l-110.1-29.7c-2.8-.8-5.7-1.4-8.3-2.5-7.6-3.4-14.3-10.1-16.7-18.3-1-3.3-.8-6.6-.8-10.1v-76.7M605.4 300.2c-.5.2-.8.3-1.4.3-2.4-.2-5.2-2.4-4.5-5M791.1 434.7c-1 1.1-2.5 2.4-3.7 3.3-6.5 4.9-14.3 6.5-22.2 6.5-2.6-.1-3.2-.1-5.8-.5-3.5-.5-6.9-1.5-10.3-2.4l-110.1-29.7c-5.6-1.5-10.9-3.1-16-5.7-14.7-7.5-27.4-21.1-31.9-37.2-1.4-5.1-1.5-10.2-1.5-15.5v-72.2c0-5.1-.9-3.3 1.2-5.9M589.6 276.8l4.4 1.2 14.8 4c1.9.5 4.1 1.2 6.2 1.5 3 .3 6.5-.3 8.7-2.6M617 282l1.3-.2c2.9-.6 3.9-2.8 5.8-5 1.5-1.9 2.8-3.9 4.5-5.5 3.9-3.6 10-1.8 14.4-.5l23.1 6.2 4.3 1.2M669.7 296.8l-.4.3-5.3 6.6-.5 4.4-.6 5.1-.5 4.4M669.5 301.6l-2.4 2.9-.5 4.5-.3 3.3-.6 4.5M615.6 281.9c-2-.3-3.7-.8-5.7-1.4l-14.8-4-4.4-1.1"/><path class="st1" d="M598.7 299c-.2-.6-.4-1.2-.3-1.9.3-1.7 2.1-2.2 3.5-1.8 1.5.4 2.7 1.5 3.3 2.8.5 1.2.4 2.8-.9 3.5-.4.2-.9.3-1.4.3-1.9-.1-3.4-1.2-4.2-2.9zM630.9 356.4c.6 2.4 1.6 4.6 3.1 6.6M644 371.6l-2.9 3.5-.2.3c-1.1 1.4-2.7 3-3.7 4.7-1.6 2.8-2.4 6.2-2.5 9.4M630.3 354l-2.8 3.5-.9 1.1c-1.3 1.5-2.5 3.7-4.5 4.8-1.6.9-3.3 1.2-5.1 1.3-1.3 0-2.4-.1-3.7-.4"/><path class="st1" d="M612.7 383.1c1.2.5 2.2 1.4 2.7 2.6.6 1.3.4 2.8-.9 3.6-.4.2-.9.2-1.3.3-1.8-.2-3.5-1.2-4.3-2.9-.2-.3-.3-.6-.3-1v-.9c.4-2 2.5-2.2 4.1-1.7zM615.6 387.8c-.4.2-.9.3-1.3.3-2.4-.1-5.2-2.4-4.5-5M661.5 373.3l-1.7 2v5.5c0 .7 0 1.6.7 2"/><path class="st1" d="M778.4 433.4c1.5-1 1.5-2.6.7-4-.9-1.5-2.4-2.4-4-2.4-.5.1-.9.1-1.3.3-1.4.7-1.5 2.3-.9 3.5.8 2.1 3.3 3.5 5.5 2.6zM773.7 427.3c-.8 3 3.1 5.8 5.8 4.8M766 395.4c-.1 2.1-.6 4.3-1.6 6.1l-.6.9-2.9 3.5c-1.5 1.8-3.1 3.6-4.4 5.6-1.9 2.8-2.8 6.6-3 10M770.5 402.7c-1.7.3-.9.2-2.6.3-3-.2-5.6-.9-8.6-1.8l-16.1-4.3-4.3-1.2M727.5 394.1v2.5c0 .8-.5 3.6.6 4.4M770.5 395.6l-.4.1-1 .1c-2.7 0-5-.8-7.6-1.5l-8.6-2.3-4.4-1.2M775 407.9c-1.7-.5-4.5-1.7-4.5-4v-76.7c0-1.8-.7-4.9.7-6.7l2.3-2.8M775 324.9c1.7.7 3.7 1.1 5.5 1.6l8.7 2.4 4.3 1.2"/><path class="st1" d="M789.8 348.7c.1 1.7-.8 2.7-2.5 2.8-1-.1-1.7-.3-2.5-.8-1.2-.8-2.1-2.1-2.1-3.5 0-2.2 2.3-2.8 4.1-2.1.7.3 1.3.7 1.8 1.3.7.7 1.1 1.4 1.2 2.3zM784 345.1c-.8 3.1 3.1 5.8 5.8 4.8M770.5 322.8c.7 3.8 6.1 4.4 8.9 5.1l9.9 2.6 4.3 1.2M773.5 321.5c-.4.6-.5 1.5 0 2.1M730.3 334.2l.5-4.4.4-3.4.5-4.5 2.6-3.2 2.6-3.3v-.1c.2-.4-.3-.7-.6-.8l-2.2-.6-2.2-.7M740.4 347.5v-27.9c0-2.4 1-5.2-1.5-6.5-.4-.2-.7-.3-1.1-.4l-2.9-.8-2.9-.8M740 346.9v-30.7l.2-.4c.2-.3.2-.4.2-.7M733.1 337l.5-4.5.6-5.3.5-4.5 5.3-6.5M768.9 408.3c.7-1.1.4-.5 1-1.5M770.2 405.7c.2-1.2.2-1.2.3-2.3M770.3 405.5l-.2.7-.4.9M690.5 414.7c.2-1.9 1.8-2.7 3.6-2.3 1.4.3 2.7 1.4 3.3 2.7.6 1.3.4 2.9-.9 3.5-.5.2-.9.3-1.3.3-1.8-.1-3.5-1.2-4.3-2.9l-.4-1.3 1.2-1.4.1-.7M697.6 417.3c-.5.2-.8.3-1.3.3-2.4-.2-4.4-2-4.6-4.4"/><defs><path id="SVGID_1_" d="M104.6 1300z"/></defs><clipPath id="SVGID_2_"><use xlink:href="#SVGID_1_" overflow="visible"/></clipPath><path class="st3" d="M104.6 1300l11.7-11.7"/><path class="st0" d="M104.6 1300z"/></svg>