<?xml version="1.0" encoding="utf-8"?>
<!DOCTYPE svg PUBLIC "-//W3C//DTD SVG 1.1//EN" "http://www.w3.org/Graphics/SVG/1.1/DTD/svg11.dtd">
<!-- Generator: PTC Arbortext IsoDraw 7.3 -->
<svg width="100%" height="100%" viewBox="0 0 1142.722 515.038"
 xmlns="http://www.w3.org/2000/svg" xmlns:xlink="http://www.w3.org/1999/xlink"
 xmlns:itedo="http://www.itedo.com/svgfilter/1.0" xmlns:extra="http://www.itedo.com/svgfilter/1.0/extra"
 xmlns:_DEFAULT_DTD_="http://www.itedo.com/svgfilter/1.0/DTD/_DEFAULT_DTD_"
 fill-rule="evenodd" clip-rule="evenodd" stroke="#000000" stroke-linecap="round" fill="none" xml:space="preserve">
 <g id="Standardebene" itedo:apstype="layer">
 </g>
 <g id="Wheels" itedo:apstype="layer">
 </g>
 <g id="Baseplate_x0020_Wheel" itedo:apstype="layer">
  <g>
   <g id="Z0650V04WHEELBOARD110517_ANY" class="hotspot hotspot_Z0650V04WHEELBOARD110517_ANY" itedo:apstype="grobject">
    <desc>Z0650V04WHEELBOARD110517_ANY</desc>
    <g id="Z0650V04WHEELBOARDBASIS_ANY" class="hotspot hotspot_Z0650V04WHEELBOARDBASIS_ANY" itedo:apstype="grobject">
     <desc>Z0650V04WHEELBOARDBASIS_ANY</desc>
     <line stroke-width="2" x1="926.852" y1="380.733" x2="903.258" y2="374.382"/>
     <line stroke-width="2" x1="875.787" y1="396.146" x2="907.508" y2="404.685"/>
     <line stroke-width="2" x1="934.979" y1="370.673" x2="907.508" y2="404.685"/>
     <line stroke-width="2" x1="903.258" y1="362.134" x2="934.977" y2="370.673"/>
     <line stroke-width="2" x1="875.787" y1="396.146" x2="903.258" y2="362.134"/>
     <line stroke-width="2" x1="1015.602" y1="270.85" x2="992.008" y2="264.497"/>
     <line stroke-width="2" x1="964.537" y1="286.262" x2="996.258" y2="294.802"/>
     <line stroke-width="2" x1="1023.727" y1="260.79" x2="996.258" y2="294.802"/>
     <line stroke-width="2" x1="992.008" y1="252.25" x2="1023.727" y2="260.79"/>
     <line stroke-width="2" x1="964.537" y1="286.262" x2="992.008" y2="252.25"/>
     <line stroke-width="2" x1="258.836" y1="67.111" x2="235.241" y2="60.759"/>
     <line stroke-width="2" x1="207.77" y1="82.522" x2="239.491" y2="91.063"/>
     <line stroke-width="2" x1="266.961" y1="57.051" x2="239.491" y2="91.063"/>
     <line stroke-width="2" x1="235.241" y1="48.511" x2="266.961" y2="57.051"/>
     <line stroke-width="2" x1="207.77" y1="82.522" x2="235.241" y2="48.511"/>
     <line stroke-width="2" x1="170.086" y1="176.995" x2="146.491" y2="170.643"/>
     <line stroke-width="2" x1="119.019" y1="192.407" x2="150.741" y2="200.947"/>
     <line stroke-width="2" x1="178.211" y1="166.935" x2="150.741" y2="200.947"/>
     <line stroke-width="2" x1="146.491" y1="158.395" x2="178.211" y2="166.935"/>
     <line stroke-width="2" x1="119.019" y1="192.407" x2="146.491" y2="158.395"/>
     <line stroke-width="2" x1="142.643" y1="44.305" x2="139.604" y2="48.067"/>
     <line stroke-width="2" x1="964.759" y1="402.641" x2="973.183" y2="392.209"/>
     <line stroke-width="2" x1="964.759" y1="402.641" x2="964.759" y2="399.375"/>
     <line stroke-width="2" x1="1084.351" y1="317.562" x2="1084.351" y2="319.261"/>
     <line stroke-width="2" x1="1053.481" y1="289.524" x2="1050.443" y2="293.286"/>
     <line stroke-width="2" x1="62.344" y1="146.991" x2="53.92" y2="157.421"/>
     <line stroke-width="2" x1="53.92" y1="157.421" x2="53.92" y2="154.156"/>
     <line stroke-width="2" x1="1025.75" y1="379.245" x2="1025.75" y2="374.793"/>
     <line stroke-width="2" x1="94.036" y1="66.236" x2="99.105" y2="67.6"/>
     <line stroke-width="2" x1="1059.558" y1="332.934" x2="1059.558" y2="334.264"/>
     <line stroke-width="2" x1="1072.847" y1="329.754" x2="1072.847" y2="344.451"/>
     <line stroke-width="2" x1="1059.558" y1="347.245" x2="1059.558" y2="344.351"/>
     <line stroke-width="2" x1="997.999" y1="464.449" x2="997.999" y2="449.752"/>
     <line stroke-width="2" x1="984.708" y1="452.543" x2="984.708" y2="467.24"/>
     <path stroke-width="2" d="M903.258 362.134L903.258 364.134L903.258 372.382C903.258 375.048 903.677 373.862 902 375.937L885.168 396.778L883.913 398.333"/>
     <path stroke-width="2" d="M992.008 252.25L992.008 254.25L992.008 262.497C992.008 265.163 992.426 263.978 990.75 266.053L973.918 286.894L972.662 288.449"/>
     <path stroke-width="2" d="M235.241 48.511L235.241 50.511L235.241 58.759C235.241 61.424 235.658 60.24 233.984 62.314L217.151 83.155L215.895 84.71"/>
     <path stroke-width="2" d="M146.491 158.395L146.491 160.395L146.491 168.643C146.491 171.308 146.909 170.123 145.234 172.199L128.401 193.038L127.146 194.593"/>
     <path stroke-width="2" d="M200.961 56.801C200.706 57.226 200.528 57.402 200.496 57.906C200.417 59.113 201.574 59.944 202.554 60.354C204.485 61.164 206.995 61.137 208.861 60.154C209.274 59.936 209.728 59.607 210.024 59.24L210.353 58.689C210.941 57.287 209.572 56.165 208.43 55.686C207.538 55.313 206.644 55.215 205.693 55.137C204.45 55.179 203.243 55.298 202.122 55.887C201.508 56.212 201.447 56.334 200.961 56.801z"/>
     <path stroke-width="2" d="M157.698 71.329C161.092 70.537 164.536 69.305 167.181 66.941C168.209 66.022 168.885 65.091 169.75 64.022L176.731 55.378L177.989 53.822L179.39 53.665C180.758 53.514 182.122 53.316 183.466 53.006C186.306 52.354 189.081 51.317 191.564 49.784C193.045 48.871 194.45 47.795 195.549 46.424C196.317 45.466 196.959 44.362 197.318 43.182L197.633 41.491C197.969 36.969 194.305 33.581 190.693 31.579L189.632 30.989L188.453 30.49C186.853 29.814 187.681 30.121 185.969 29.576L184.665 29.161L182.734 28.641L173.002 26.021L171.07 25.501C169.227 25.041 167.344 24.672 165.453 24.481L162.526 24.297L159.586 24.335C156.301 24.501 153.027 25.106 149.924 26.19C147.604 27.001 145.407 28.074 143.472 29.599C141.277 31.326 139.394 33.631 139.102 36.518C138.861 38.899 139.817 41.031 141.253 42.865L142.643 44.305L142.643 46.929"/>
     <path stroke-width="2" d="M142.643 44.948C143.838 44.006 145.021 43.103 146.375 42.389C148.314 41.365 150.405 40.646 152.524 40.106C156.723 39.039 161.139 38.74 165.453 39.177C168.02 39.438 170.516 40.049 173.002 40.719L182.734 43.338C185.502 44.084 188.205 44.89 190.718 46.292C192.121 47.073 191.455 46.646 192.718 47.561L193.683 48.267"/>
     <path stroke-width="2" d="M169.108 56.692C171.161 57.017 173.195 57.134 175.271 57.185"/>
     <path stroke-width="2" d="M268.934 75.1C268.68 75.527 268.502 75.701 268.468 76.206C268.389 77.414 269.548 78.243 270.528 78.655C272.459 79.465 274.968 79.436 276.834 78.453C277.247 78.236 277.701 77.908 277.997 77.54L278.326 76.989C278.913 75.587 277.545 74.465 276.403 73.986C275.512 73.612 274.617 73.515 273.665 73.436C272.423 73.478 271.216 73.597 270.096 74.188C269.48 74.512 269.42 74.634 268.934 75.1z"/>
     <path stroke-width="2" d="M224.205 28.021C223.95 28.448 223.772 28.623 223.74 29.128C223.661 30.335 224.818 31.164 225.798 31.576C227.729 32.386 230.239 32.356 232.105 31.373C232.518 31.158 232.972 30.829 233.268 30.461L233.597 29.91C234.185 28.509 232.816 27.387 231.674 26.908C230.782 26.533 229.888 26.435 228.937 26.356C227.694 26.399 226.487 26.518 225.366 27.109C224.752 27.432 224.691 27.554 224.205 28.021z"/>
     <path stroke-width="2" d="M292.177 46.322C291.923 46.747 291.747 46.923 291.713 47.427C291.634 48.634 292.791 49.465 293.771 49.875C295.702 50.686 298.211 50.656 300.079 49.673C300.49 49.457 300.944 49.128 301.24 48.762L301.569 48.21C302.158 46.808 300.788 45.686 299.646 45.207C298.757 44.834 297.862 44.735 296.91 44.656C295.668 44.7 294.461 44.819 293.339 45.408C292.725 45.732 292.663 45.854 292.177 46.322z"/>
     <path stroke-width="2" d="M980.971 231.76C980.717 232.187 980.539 232.361 980.506 232.866C980.427 234.074 981.586 234.903 982.565 235.313C984.496 236.125 987.005 236.096 988.873 235.112C989.284 234.895 989.739 234.568 990.034 234.2L990.364 233.649C990.951 232.247 989.582 231.126 988.441 230.646C987.549 230.272 986.655 230.175 985.703 230.096C984.461 230.139 983.254 230.258 982.134 230.848C981.519 231.171 981.457 231.294 980.971 231.76z"/>
     <path stroke-width="2" d="M1048.944 250.061C1048.691 250.486 1048.513 250.661 1048.48 251.167C1048.401 252.373 1049.558 253.204 1050.538 253.614C1052.47 254.425 1054.979 254.395 1056.846 253.413C1057.259 253.195 1057.711 252.867 1058.008 252.501L1058.336 251.949C1058.924 250.548 1057.557 249.425 1056.413 248.947C1055.523 248.573 1054.627 248.474 1053.676 248.395C1052.434 248.438 1051.228 248.557 1050.106 249.147C1049.491 249.471 1049.431 249.593 1048.944 250.061z"/>
     <path stroke-width="2" d="M957.727 260.54C957.474 260.966 957.297 261.141 957.263 261.646C957.183 262.853 958.341 263.682 959.321 264.093C961.253 264.903 963.761 264.875 965.629 263.891C966.041 263.675 966.495 263.346 966.791 262.98L967.12 262.427C967.707 261.026 966.339 259.904 965.197 259.425C964.306 259.052 963.412 258.954 962.46 258.875C961.217 258.918 960.01 259.036 958.889 259.627C958.274 259.951 958.214 260.072 957.727 260.54z"/>
     <path stroke-width="2" d="M1025.701 278.839C1025.446 279.264 1025.269 279.44 1025.236 279.946C1025.156 281.153 1026.315 281.983 1027.295 282.394C1029.226 283.204 1031.734 283.175 1033.602 282.192C1034.013 281.975 1034.468 281.646 1034.763 281.279L1035.093 280.728C1035.681 279.326 1034.313 278.204 1033.17 277.725C1032.278 277.351 1031.384 277.254 1030.432 277.175C1029.191 277.218 1027.983 277.336 1026.863 277.927C1026.248 278.25 1026.186 278.372 1025.701 278.839z"/>
     <path stroke-width="2" d="M932.725 393.956C932.471 394.382 932.293 394.557 932.259 395.062C932.181 396.269 933.339 397.098 934.317 397.509C936.25 398.319 938.759 398.291 940.625 397.309C941.038 397.091 941.491 396.762 941.788 396.396L942.116 395.845C942.705 394.444 941.336 393.322 940.193 392.843C939.303 392.468 938.408 392.37 937.456 392.291C936.215 392.334 935.008 392.452 933.886 393.043C933.272 393.367 933.211 393.49 932.725 393.956z"/>
     <path stroke-width="2" d="M1000.105 408.891C1001.042 409.867 1001.924 410.725 1002.6 411.935C1003.163 412.944 1003.547 414.072 1003.654 415.228C1003.914 418.033 1002.538 420.505 1000.613 422.42C997.748 425.271 993.884 426.884 990.013 427.841C988.658 428.175 987.288 428.451 985.9 428.622C983.98 428.86 982.062 428.877 980.13 428.896C978.219 428.774 976.317 428.654 974.428 428.31C972.852 428.021 971.291 427.591 969.746 427.175L960.014 424.555L958.082 424.035L955.475 423.204L953.116 422.206L952.056 421.619C948.442 419.615 944.778 416.226 945.115 411.704L945.431 410.016C945.789 408.834 946.432 407.73 947.2 406.771C948.029 405.737 949.121 404.776 950.216 404.009C952.899 402.127 956.105 400.92 959.283 400.189C960.625 399.88 961.99 399.682 963.357 399.531L964.759 399.375L966.017 397.819L972.369 389.952L973.625 388.396"/>
     <path stroke-width="2" d="M964.759 402.641C967.288 402.538 969.796 402.514 972.313 402.826C974.596 403.108 976.815 403.677 979.032 404.274L988.764 406.894C991.573 407.651 994.363 408.459 996.913 409.898C998.067 410.548 999.068 411.333 1000.105 412.156"/>
     <path stroke-width="2" d="M949.067 419.624L950.366 418.601C951.354 417.904 952.46 417.35 953.552 416.845C956.022 415.699 958.625 414.964 961.307 414.514C965.596 413.795 970.037 413.786 974.322 414.564C975.908 414.853 977.479 415.286 979.032 415.706L988.764 418.326C991.533 419.071 994.235 419.877 996.75 421.278C998.15 422.059 997.485 421.634 998.749 422.548L999.682 423.223L999.725 423.264"/>
     <path stroke-width="2" d="M1000.105 412.156L1000.105 408.891L1001.363 407.334L1008.344 398.69C1009.087 397.771 1010.004 396.733 1010.57 395.673C1011.32 394.266 1011.61 392.658 1011.298 391.084C1011.051 389.834 1010.826 389.6 1010.255 388.605"/>
     <path stroke-width="2" d="M1010.73 392.706L1010.836 392.896L1011.197 394.045"/>
     <path stroke-width="2" d="M864.751 375.656C864.498 376.081 864.32 376.257 864.287 376.762C864.207 377.97 865.365 378.798 866.345 379.209C868.277 380.021 870.785 379.992 872.653 379.009C873.065 378.791 873.519 378.463 873.815 378.096L874.144 377.545C874.731 376.144 873.363 375.021 872.221 374.543C871.33 374.168 870.436 374.069 869.484 373.992C868.241 374.033 867.034 374.153 865.913 374.744C865.298 375.067 865.238 375.189 864.751 375.656z"/>
     <path stroke-width="2" d="M909.015 423.841L909.077 424.41C909.333 425.338 910.239 425.939 911.075 426.288C912.515 426.894 914.2 426.987 915.721 426.668C916.538 426.497 917.363 426.194 918.025 425.673L918.543 425.175L918.873 424.624C919.461 423.223 918.091 422.1 916.95 421.622C916.059 421.247 915.163 421.149 914.212 421.071L913.243 421.103C911.783 421.235 909.783 421.783 909.152 423.286L909.015 423.841z"/>
     <path stroke-width="2" d="M841.508 404.435C841.254 404.862 841.076 405.036 841.043 405.541C840.964 406.749 842.121 407.577 843.1 407.988C845.033 408.8 847.542 408.771 849.408 407.788C849.821 407.571 850.274 407.242 850.571 406.875L850.899 406.324C851.488 404.923 850.119 403.8 848.976 403.322C848.086 402.947 847.191 402.85 846.24 402.771C844.996 402.814 843.791 402.932 842.668 403.523C842.054 403.846 841.994 403.968 841.508 404.435z"/>
     <path stroke-width="2" d="M152.713 218.997C152.46 219.421 152.282 219.598 152.248 220.103C152.169 221.31 153.328 222.139 154.307 222.55C156.239 223.36 158.747 223.331 160.615 222.348C161.026 222.132 161.48 221.802 161.776 221.436L162.105 220.884C162.693 219.484 161.324 218.361 160.182 217.883C159.292 217.508 158.397 217.409 157.445 217.331C156.204 217.375 154.997 217.493 153.876 218.084C153.26 218.407 153.199 218.53 152.713 218.997z"/>
     <path stroke-width="2" d="M84.74 200.697C84.486 201.122 84.31 201.296 84.275 201.802C84.197 203.009 85.355 203.838 86.334 204.25C88.266 205.061 90.775 205.032 92.641 204.049C93.054 203.831 93.507 203.502 93.804 203.137L94.132 202.585C94.721 201.183 93.352 200.062 92.209 199.582C91.319 199.209 90.424 199.11 89.472 199.032C88.23 199.074 87.024 199.193 85.902 199.783C85.287 200.108 85.227 200.229 84.74 200.697z"/>
     <path stroke-width="2" d="M175.957 190.217C175.704 190.643 175.526 190.818 175.492 191.324C175.413 192.531 176.572 193.36 177.551 193.77C179.483 194.581 181.991 194.552 183.859 193.569C184.27 193.353 184.724 193.024 185.02 192.657L185.349 192.105C185.937 190.705 184.568 189.582 183.426 189.104C182.537 188.729 181.64 188.631 180.689 188.552C179.448 188.594 178.241 188.713 177.12 189.305C176.504 189.627 176.443 189.751 175.957 190.217z"/>
     <path stroke-width="2" d="M107.984 171.917C107.73 172.343 107.552 172.518 107.519 173.024C107.441 174.23 108.599 175.06 109.578 175.471C111.51 176.282 114.019 176.252 115.885 175.27C116.298 175.052 116.751 174.723 117.048 174.356L117.376 173.806C117.965 172.405 116.596 171.282 115.453 170.804C114.563 170.43 113.668 170.33 112.716 170.252C111.474 170.295 110.268 170.413 109.146 171.004C108.531 171.328 108.471 171.45 107.984 171.917z"/>
     <path stroke-width="2" d="M1084.753 317.187C1086.352 316.199 1088.827 315.995 1090.374 317.245L1090.727 317.605C1091.271 318.331 1090.958 319.139 1090.29 319.646C1089.57 320.194 1088.701 320.333 1087.829 320.428L1087.102 320.423L1086.403 320.329C1085.397 320.129 1083.582 319.341 1084.109 317.985C1084.278 317.555 1084.417 317.5 1084.753 317.187z"/>
     <path stroke-width="2" d="M1053.481 292.148L1053.481 289.524L1052.788 288.805C1051.969 287.954 1051.734 287.788 1051.042 286.579C1049.912 284.605 1049.579 282.295 1050.281 280.113C1050.669 278.911 1051.243 278 1052.009 277.004C1052.646 276.173 1053.496 275.459 1054.31 274.817C1056.247 273.293 1058.443 272.22 1060.762 271.41C1066.586 269.375 1073.07 268.999 1079.132 270.1C1080.718 270.389 1082.288 270.822 1083.842 271.24L1093.574 273.86L1095.505 274.38L1096.808 274.795C1098.519 275.339 1097.692 275.033 1099.291 275.709L1100.471 276.209L1101.531 276.797C1105.144 278.8 1108.809 282.189 1108.472 286.711L1108.156 288.401C1107.486 290.608 1105.959 292.336 1104.194 293.749C1101.349 296.024 1097.835 297.415 1094.305 298.225C1092.962 298.535 1091.596 298.733 1090.23 298.884L1088.827 299.04L1087.57 300.596L1080.589 309.24C1079.726 310.31 1079.048 311.242 1078.019 312.161C1076.689 313.35 1075.134 314.223 1073.515 314.944C1072.227 315.516 1070.895 315.997 1069.52 316.319"/>
     <path stroke-width="2" d="M1053.481 290.168C1054.678 289.225 1055.861 288.322 1057.213 287.608C1059.153 286.583 1061.243 285.865 1063.363 285.326C1067.563 284.257 1071.98 283.959 1076.292 284.396C1078.859 284.656 1081.355 285.269 1083.842 285.937L1093.574 288.557C1096.342 289.302 1099.044 290.108 1101.558 291.509C1102.96 292.29 1102.295 291.865 1103.557 292.779L1104.522 293.485"/>
     <path stroke-width="2" d="M1079.946 301.911C1082 302.235 1084.036 302.353 1086.112 302.404"/>
     <path stroke-width="2" d="M1042.854 306.416L1042.415 307.49L1042.391 307.644"/>
     <path stroke-width="2" d="M1043.299 309.754C1042.744 308.786 1042.535 308.567 1042.289 307.331C1041.939 305.559 1042.345 303.757 1043.334 302.266"/>
     <path stroke-width="2" d="M132.014 61.198L131.575 62.271L131.55 62.426"/>
     <path stroke-width="2" d="M132.46 64.536C131.905 63.567 131.694 63.348 131.449 62.112C131.098 60.341 131.506 58.537 132.495 57.046"/>
     <path stroke-width="2" d="M53.92 157.421C56.448 157.319 58.956 157.296 61.473 157.608C63.758 157.89 65.975 158.459 68.192 159.056L77.924 161.675C80.733 162.431 83.524 163.241 86.073 164.679C87.227 165.33 88.23 166.115 89.266 166.937"/>
     <path stroke-width="2" d="M62.786 143.18L61.529 144.735L55.176 152.599L53.92 154.156L52.518 154.312C51.152 154.463 49.786 154.663 48.444 154.971C44.914 155.782 41.398 157.173 38.554 159.449C37.241 160.498 36.1 161.663 35.286 163.157C34.716 164.201 34.363 165.296 34.276 166.485C33.939 171.008 37.603 174.397 41.216 176.4L42.277 176.987L44.634 177.985L47.243 178.816L49.174 179.336L58.906 181.955C61.374 182.621 63.851 183.229 66.399 183.491C71.929 184.061 77.793 183.486 82.989 181.449L85.266 180.425C89.141 178.443 93.26 174.802 92.814 170.009L92.471 168.344C92.063 167.073 91.51 166.215 90.694 165.163L89.266 163.671"/>
     <path stroke-width="2" d="M89.266 166.937L89.266 163.671L90.522 162.116L97.504 153.472C98.248 152.551 99.165 151.514 99.73 150.455C100.48 149.048 100.771 147.438 100.459 145.866C100.21 144.616 99.986 144.379 99.415 143.385"/>
     <path stroke-width="2" d="M99.891 147.487L99.998 147.676L100.358 148.825"/>
     <path stroke-width="2" d="M38.228 174.406L39.527 173.383C40.515 172.686 41.621 172.132 42.712 171.626C45.182 170.48 47.784 169.747 50.466 169.295C54.756 168.575 59.197 168.567 63.484 169.347C65.069 169.634 66.64 170.068 68.192 170.486L77.924 173.106C80.692 173.852 83.396 174.657 85.909 176.058C87.311 176.841 86.647 176.414 87.909 177.329L88.843 178.004L88.885 178.045"/>
     <path stroke-width="2" d="M1048.712 386.961L1048.712 388.961L1048.712 399.658C1048.712 402.324 1049.132 401.139 1047.455 403.213L999.254 462.892C998.683 463.598 997.948 464.615 997.207 465.249C995.013 467.125 992.072 467.595 989.293 467.776C987.919 467.744 987.557 467.783 986.205 467.56C985.057 467.37 983.893 467.021 982.778 466.721L7.828 204.241L5.897 203.722C3.726 203.084 1.098 201.937 0.308 199.593C0.003 198.692 0.132 197.581 0.132 196.695L0.132 186C0.132 184.787 -0.061 183.36 0.506 182.217C0.883 181.455 1.891 180.323 2.317 179.796L50.518 120.117L51.774 118.561"/>
     <path stroke-width="2" d="M73.227 123.947C71.421 123.905 69.697 123.388 67.968 122.921L53.704 119.081L51.774 118.561"/>
     <path stroke-width="2" d="M0.132 184C0.298 184.844 0.252 185.012 0.728 185.766C2.248 188.179 5.28 188.86 7.828 189.545L982.778 452.024C983.893 452.324 985.057 452.673 986.205 452.863C989.52 453.411 993.331 453.05 996.241 451.252C997.519 450.463 998.321 449.353 999.254 448.196L1047.455 388.516L1048.712 386.961"/>
     <path stroke-width="2" d="M1025.066 375.641C1024.858 376.226 1024.776 376.319 1024.82 377.055C1024.934 378.889 1026.476 380.252 1027.984 381.067C1029.403 381.831 1030.976 382.185 1032.518 382.6L1046.78 386.44L1048.712 386.961"/>
     <path stroke-width="2" d="M1063.825 344.622C1062.594 344.944 1061.317 345.617 1060.348 346.444C1059.607 347.077 1058.874 348.093 1058.301 348.8L1032.529 380.709L1031.273 382.266"/>
     <path stroke-width="2" d="M1065.52 344.209C1067.47 343.894 1069.393 343.809 1071.353 344.132C1072.499 344.322 1073.664 344.672 1074.779 344.971L1089.042 348.812L1090.974 349.331"/>
     <path stroke-width="2" d="M94.036 73.876L94.036 71.876L94.036 68.236L94.036 66.236L95.293 64.68L143.493 5.001C144.427 3.844 145.229 2.733 146.507 1.944C149.417 0.147 153.227 -0.214 156.544 0.333C157.689 0.523 158.855 0.873 159.971 1.173L1134.921 263.651L1136.852 264.172C1139.022 264.81 1141.65 265.956 1142.441 268.3L1142.616 269.197C1142.723 270.92 1141.425 272.17 1140.432 273.399L1092.23 333.079L1090.974 334.634L1090.974 336.634L1090.974 347.331L1090.974 349.331"/>
     <path stroke-width="2" d="M1142.616 269.197L1142.616 271.197L1142.616 281.894L1142.616 283.894L1142.551 284.798C1142.409 285.478 1142.101 285.99 1141.689 286.54L1140.432 288.096L1092.23 347.776L1090.974 349.331"/>
     <path stroke-width="2" d="M1060.755 331.452C1063.722 329.298 1067.808 328.85 1071.353 329.435C1072.499 329.625 1073.664 329.975 1074.779 330.274L1089.042 334.115L1090.974 334.634"/>
    </g>
    <g id="ADAMHALLGUMMISTOPPER37X10_ANY_3" class="hotspot hotspot_ADAMHALLGUMMISTOPPER37X10_ANY" itedo:apstype="grobject">
     <desc>ADAMHALLGUMMISTOPPER37X10_ANY</desc>
     <line stroke-width="2" x1="1079.895" y1="301.475" x2="1080.721" y2="308.603"/>
     <path stroke-width="2" d="M1064.641 305.262C1065.538 305.04 1066.406 304.737 1067.205 304.266C1068.645 303.413 1069.922 301.836 1069.193 300.093C1069.049 299.745 1068.843 299.43 1068.597 299.146C1068.324 298.827 1068.001 298.55 1067.66 298.307C1065.881 297.052 1063.673 296.718 1061.548 296.665C1060.791 296.697 1060.587 296.685 1059.837 296.79C1057.477 297.122 1054.645 298.158 1053.951 300.684"/>
     <path stroke-width="2" d="M1069.52 310.004C1071.248 309.461 1072.917 308.803 1074.451 307.826C1076.788 306.334 1078.976 303.966 1078.913 301.017C1078.902 300.516 1078.826 300.019 1078.69 299.538C1078.471 298.767 1078.105 298.045 1077.646 297.392C1076.942 296.389 1076.023 295.547 1075.026 294.841C1071.103 292.065 1066.144 291.247 1061.442 291.178C1056.788 291.314 1051.865 292.185 1048.038 295.026C1047.068 295.745 1046.184 296.603 1045.52 297.617C1045.086 298.278 1044.751 299.007 1044.567 299.778C1043.814 302.93 1045.888 305.862 1048.424 307.526"/>
     <path stroke-width="2" d="M1055.49 300.384C1056.105 299.487 1057.249 298.932 1058.246 298.595C1060.457 297.846 1063.03 297.858 1065.229 298.649C1066.763 299.201 1068.403 300.297 1068.403 302.095"/>
     <path stroke-width="2" d="M1069.52 311.387C1070.511 311.091 1070.782 311.031 1071.76 310.656C1072.477 310.382 1073.184 310.067 1073.865 309.713C1076.724 308.228 1079.692 305.699 1079.898 302.244C1079.938 301.588 1079.852 300.958 1079.711 300.319"/>
     <path stroke-width="2" d="M1042.625 308.377L1042.856 306.389L1043.191 303.504C1043.311 302.454 1043.354 301.206 1043.65 300.153C1044.054 298.723 1044.857 297.463 1045.884 296.398C1047.847 294.36 1050.522 293.055 1053.192 292.23C1058.699 290.526 1064.886 290.545 1070.376 292.307C1073.557 293.329 1076.881 295.1 1078.714 298.009C1079.066 298.565 1079.232 298.978 1079.49 299.579"/>
     <path stroke-width="2" d="M1080.742 309.052C1080.708 308.338 1080.747 308.752 1080.586 307.821"/>
     <path stroke-width="2" d="M1069.237 291.973L1069.174 291.959C1069.071 291.987 1069.026 292.033 1068.951 292.112"/>
     <path stroke-width="2" d="M1068.334 302.473C1068.05 303.067 1067.713 303.459 1067.207 303.884"/>
     <path stroke-width="2" d="M1067.239 303.858C1065.63 302.468 1063.385 302.161 1061.34 302.146L1060.534 302.197L1060.272 302.232"/>
     <path stroke-width="2" d="M1064.416 305.108L1064.862 304.997L1065.564 304.766"/>
     <path stroke-width="2" d="M1068.297 302.55C1068.433 302.045 1068.385 302.312 1068.429 301.749"/>
     <path stroke-width="2" d="M1067.221 303.875C1066.659 304.247 1066.114 304.528 1065.491 304.79"/>
     <path stroke-width="2" d="M1043.421 301.516C1043.423 302.204 1043.392 302.375 1043.523 303.055C1043.986 305.435 1045.701 307.182 1047.576 308.576"/>
    </g>
    <g id="ADAMHALLGUMMISTOPPER37X10_ANY_2" class="hotspot hotspot_ADAMHALLGUMMISTOPPER37X10_ANY" itedo:apstype="grobject">
     <desc>ADAMHALLGUMMISTOPPER37X10_ANY</desc>
     <line stroke-width="2" x1="144.395" y1="57.753" x2="144.185" y2="57.35"/>
     <line stroke-width="2" x1="144.104" y1="57.064" x2="144.051" y2="56.628"/>
     <line stroke-width="2" x1="169.056" y1="56.256" x2="169.882" y2="63.384"/>
     <path stroke-width="2" d="M148.132 57.246C147.169 57.529 147.639 57.368 146.723 57.722"/>
     <path stroke-width="2" d="M148.487 59.987C148.842 59.624 149.387 59.432 149.872 59.329C150.961 59.098 152.284 59.228 153.151 59.984"/>
     <path stroke-width="2" d="M143.801 54.024C143.484 54.481 143.21 54.905 143.11 55.468C142.724 57.655 145.024 59.119 146.778 59.74C149.775 60.795 153.591 60.689 156.366 59.046C156.917 58.72 157.433 58.317 157.838 57.819C158.07 57.533 158.264 57.216 158.394 56.871C158.514 56.551 158.576 56.215 158.569 55.872C158.532 53.911 156.491 52.679 154.861 52.103C153.514 51.628 152.128 51.481 150.71 51.448C148.167 51.549 145.598 52.097 143.801 54.024z"/>
     <path stroke-width="2" d="M131.787 63.158L132.016 61.17L132.35 58.284C132.473 57.237 132.514 55.987 132.811 54.936C133.213 53.505 134.019 52.243 135.045 51.179C137.008 49.142 139.683 47.837 142.354 47.011C147.86 45.307 154.048 45.326 159.537 47.09C162.717 48.11 166.042 49.881 167.876 52.789C168.227 53.347 168.394 53.759 168.651 54.36"/>
     <path stroke-width="2" d="M169.747 62.601C169.907 63.533 169.868 63.121 169.903 63.832"/>
     <path stroke-width="2" d="M168.872 55.1C169.012 55.738 169.098 56.368 169.06 57.026C168.829 60.884 165.233 63.542 162.003 64.989C161.282 65.311 160.537 65.594 159.784 65.84C158.993 66.097 158.187 66.314 157.375 66.495C156.532 66.683 155.68 66.831 154.824 66.941C153.503 67.114 152.187 67.168 150.858 67.198C149.526 67.171 148.211 67.12 146.889 66.95C146.032 66.841 145.179 66.695 144.336 66.51C143.521 66.332 142.713 66.117 141.92 65.861C141.167 65.617 140.42 65.335 139.695 65.015C136.656 63.664 133.36 61.32 132.683 57.835C132.551 57.155 132.584 56.985 132.581 56.298"/>
     <path stroke-width="2" d="M138.931 48.703C137.788 49.378 136.701 50.091 135.77 51.048C135.179 51.658 134.657 52.345 134.27 53.104C134.032 53.57 133.849 54.051 133.728 54.56C133.064 57.334 134.593 59.905 136.676 61.627C138.039 62.753 139.629 63.588 141.275 64.219C144.371 65.408 147.729 65.906 151.038 65.882C155.651 65.849 160.669 64.837 164.443 62.036C165.412 61.316 166.295 60.457 166.96 59.445C167.393 58.783 167.729 58.054 167.913 57.283C168.663 54.143 166.634 51.353 164.187 49.621C162.693 48.564 161.002 47.796 159.265 47.234C156.451 46.323 153.548 46.003 150.604 45.96C147.675 46.045 144.792 46.402 142.008 47.356C140.938 47.723 139.937 48.189 138.931 48.703z"/>
     <path stroke-width="2" d="M157.562 56.875C157.562 54.521 154.872 53.402 152.914 53.033L152.126 52.914C151.412 52.832 151.222 52.85 150.503 52.844C149.794 52.889 149.598 52.881 148.899 53.002C146.868 53.35 144.135 54.445 144.08 56.859"/>
     <path stroke-width="2" d="M154.723 59.548C153.461 59.963 152.237 60.159 150.909 60.213C149.575 60.179 148.343 59.999 147.068 59.603"/>
     <path stroke-width="2" d="M144.102 57.051L144.209 57.396"/>
     <path stroke-width="2" d="M147.78 59.823C147.669 59.847 147.623 59.895 147.544 59.976"/>
     <path stroke-width="2" d="M144.903 58.366C145.598 58.917 146.3 59.292 147.122 59.619"/>
     <path stroke-width="2" d="M154.651 59.572C155.274 59.31 155.819 59.027 156.382 58.655"/>
     <path stroke-width="2" d="M148.132 57.246C150.826 56.679 154.194 56.735 156.399 58.639"/>
     <path stroke-width="2" d="M157.456 57.332C157.594 56.826 157.546 57.093 157.588 56.53"/>
     <path stroke-width="2" d="M153.673 57.289L153.673 55.289L153.673 55.206C153.673 54.185 153.438 52.804 154.096 51.865"/>
     <path stroke-width="2" d="M158.112 46.893C158.199 46.801 158.265 46.725 158.396 46.753"/>
     <path stroke-width="2" d="M157.493 57.253C157.211 57.848 156.875 58.24 156.366 58.665"/>
     <path stroke-width="2" d="M145.243 58.636C145.707 58.258 146.187 57.99 146.723 57.722"/>
     <path stroke-width="2" d="M144.318 57.649C144.73 58.204 144.504 57.939 145 58.442"/>
    </g>
    <g id="Z0650V04WHEELBOARDWINKEL_ANY" class="hotspot hotspot_Z0650V04WHEELBOARDWINKEL_ANY" itedo:apstype="grobject">
     <desc>Z0650V04WHEELBOARDWINKEL_ANY</desc>
     <g id="Z0650V04WHEELBOARDWINKELBOLZEN_" class="hotspot hotspot_Z0650V04WHEELBOARDWINKELBOLZEN_" itedo:apstype="grobject">
      <desc>Z0650V04WHEELBOARDWINKELBOLZEN_</desc>
      <path stroke-width="2" d="M104.736 79.275L107.885 80.121L109.775 80.772L119.739 84.203L121.631 84.853L121.769 84.927C122.233 85.233 122.649 86.444 122.745 86.644C122.927 87.025 122.909 87.454 122.843 87.864C122.746 88.468 122.504 89.275 121.965 89.635C121.439 89.987 120.838 90.615 120.132 90.653L120.072 90.652L118.109 90.266L107.861 88.253L105.897 87.867L102.658 86.995"/>
      <path stroke-width="2" d="M107.885 80.121C107.298 80.153 106.929 80.631 106.626 81.096C105.789 82.39 105.335 84.024 105.221 85.551C105.168 86.269 105.084 87.531 105.897 87.867"/>
      <path stroke-width="2" d="M121.471 89.009C121.545 88.971 121.614 88.929 121.682 88.882C121.82 88.787 121.772 88.478 121.799 88.326C121.873 87.924 122.007 87.501 122.243 87.161C122.32 87.049 122.495 86.82 122.665 86.906C122.902 87.025 122.852 87.5 122.832 87.701C122.781 88.221 122.59 89.185 122.025 89.394C121.757 89.349 121.765 89.037 121.751 88.819"/>
      <path stroke-width="2" d="M121.965 89.635C121.865 89.7 121.924 89.673 121.78 89.703C121.486 89.6 121.469 89.239 121.469 88.968C121.469 88.286 121.671 87.539 122.03 86.956C122.186 86.701 122.469 86.337 122.745 86.644"/>
      <path stroke-width="2" d="M120.646 90.522L120.453 90.585C119.876 90.519 119.849 89.771 119.849 89.308C119.849 88.106 120.204 86.783 120.849 85.763C121.022 85.489 121.423 84.893 121.838 85.052C121.99 85.109 122.024 85.21 122.108 85.34"/>
      <path stroke-width="2" d="M121.631 84.853L121.465 84.81C120.98 84.903 120.691 85.326 120.456 85.733C119.911 86.674 119.597 87.799 119.513 88.879C119.471 89.42 119.396 90.471 120.072 90.652"/>
     </g>
     <g id="Z0650WHEELBOARDWINKEL_ANY_1" class="hotspot hotspot_Z0650WHEELBOARDWINKEL_ANY" itedo:apstype="grobject">
      <desc>Z0650WHEELBOARDWINKEL_ANY</desc>
      <line stroke-width="2" x1="77.759" y1="129.03" x2="110.305" y2="88.733"/>
      <line stroke-width="2" x1="131.038" y1="64.153" x2="115.911" y2="82.885"/>
      <line stroke-width="2" x1="111.066" y1="88.882" x2="78.212" y2="129.56"/>
      <line stroke-width="2" x1="98.04" y1="138.98" x2="109.48" y2="142.061"/>
      <line stroke-width="2" x1="77.759" y1="121.272" x2="73.227" y2="120.052"/>
      <line stroke-width="2" x1="83.793" y1="86.56" x2="88.325" y2="87.78"/>
      <path stroke-width="2" d="M105.688 79.531C105.557 79.259 105.349 79.15 105.063 79.147C104.388 79.335 103.971 80.003 103.653 80.584C102.912 81.935 102.475 83.528 102.388 85.063L102.376 85.486L102.388 85.879C102.421 86.359 102.558 87.477 103.283 87.378C103.438 87.356 103.48 87.319 103.608 87.251"/>
      <path stroke-width="2" d="M115.221 82.647L116.477 81.09L129.33 65.179L130.586 63.622L130.586 61.622L130.586 57.865L130.586 55.865"/>
      <path stroke-width="2" d="M74.915 132.754L73.68 132.423C72.763 132.169 73.227 130.098 73.227 129.893L73.227 122.052L73.227 120.052L73.828 118.146L83.191 88.466L83.793 86.56L85.049 85.004L114.233 48.871L115.489 47.314"/>
      <path stroke-width="2" d="M130.586 55.865L128.943 54.725L121.664 49.674L120.021 48.534L118.09 48.015L117.421 47.835L115.489 47.314"/>
      <path stroke-width="2" d="M120.021 48.534L118.763 50.091L89.581 86.224C87.906 88.298 88.525 87.144 87.722 89.686L78.361 119.365L77.759 121.272L77.759 123.272L77.759 127.03C77.759 127.227 77.295 129.308 78.212 129.56L80.143 130.08L107.549 137.457L109.48 137.978"/>
      <path stroke-width="2" d="M109.48 142.061C109.48 142.042 109.474 137.996 109.48 137.978L110.736 136.421L161.05 74.126L162.306 72.57"/>
      <path stroke-width="2" d="M109.48 142.061L110.736 140.504L161.05 78.209L162.306 76.653C162.312 76.635 162.306 72.59 162.306 72.57"/>
      <path stroke-width="2" d="M130.586 63.622C130.687 64.504 132.829 64.635 132.971 64.673L160.376 72.051L162.306 72.57"/>
      <path stroke-width="2" d="M136.064 70.099C137.801 68.436 140.522 68.105 142.807 68.554C143.526 68.694 144.234 68.921 144.876 69.275C145.277 69.496 145.657 69.769 145.967 70.109C146.143 70.302 146.296 70.519 146.408 70.754C146.512 70.969 146.58 71.203 146.603 71.441C146.764 73.176 144.75 74.179 143.365 74.549C142.59 74.757 141.81 74.822 141.01 74.849L139.799 74.772C139.413 74.722 139.019 74.647 138.645 74.546C137.179 74.15 134.951 72.968 135.485 71.09C135.596 70.701 135.817 70.409 136.064 70.099z"/>
      <path stroke-width="2" d="M143.593 74.478C144.343 73.365 142.675 72.581 141.837 72.427L141.131 72.355L140.415 72.393C139.602 72.496 138.106 72.99 138.271 74.081C138.3 74.266 138.34 74.313 138.423 74.477"/>
      <path stroke-width="2" d="M138.99 74.626C140.195 73.903 141.825 73.95 143.037 74.625"/>
      <path stroke-width="2" d="M99.156 130.99C99.457 130.699 99.733 130.423 99.918 130.039C100.024 129.82 100.091 129.592 100.114 129.348C100.278 127.62 98.272 126.615 96.89 126.243C96.516 126.143 96.12 126.066 95.736 126.016L94.522 125.941C93.724 125.965 92.944 126.033 92.168 126.239C90.784 126.611 88.769 127.614 88.93 129.347C88.953 129.585 89.022 129.819 89.126 130.034C89.237 130.27 89.391 130.486 89.566 130.679C89.878 131.019 90.257 131.292 90.659 131.513C93.186 132.906 96.849 132.74 99.156 130.99z"/>
      <path stroke-width="2" d="M97.105 132.037C97.855 130.924 96.188 130.139 95.349 129.986L94.643 129.914L93.927 129.95C93.114 130.055 91.618 130.549 91.784 131.639C91.811 131.824 91.852 131.871 91.935 132.036"/>
      <path stroke-width="2" d="M92.501 132.183C93.707 131.461 95.337 131.508 96.549 132.182"/>
     </g>
    </g>
    <g id="ADAMHALLGUMMISTOPPER37X10_ANY_1" class="hotspot hotspot_ADAMHALLGUMMISTOPPER37X10_ANY" itedo:apstype="grobject">
     <desc>ADAMHALLGUMMISTOPPER37X10_ANY</desc>
     <line stroke-width="2" x1="1010.854" y1="394.158" x2="1010.952" y2="394.73"/>
     <line stroke-width="2" x1="985.503" y1="389.31" x2="985.292" y2="388.906"/>
     <line stroke-width="2" x1="985.211" y1="388.62" x2="985.158" y2="388.184"/>
     <line stroke-width="2" x1="1010.961" y1="394.706" x2="1010.163" y2="387.812"/>
     <path stroke-width="2" d="M989.24 388.802C988.278 389.084 988.745 388.925 987.831 389.279"/>
     <path stroke-width="2" d="M989.595 391.543C989.95 391.18 990.494 390.99 990.979 390.887C992.068 390.654 993.392 390.785 994.258 391.54"/>
     <path stroke-width="2" d="M984.908 385.579C984.591 386.038 984.317 386.463 984.217 387.024C983.831 389.211 986.131 390.677 987.886 391.295C990.881 392.351 994.697 392.245 997.474 390.603C998.024 390.276 998.542 389.875 998.947 389.375C999.177 389.088 999.371 388.773 999.501 388.427C999.621 388.107 999.683 387.771 999.677 387.43C999.64 385.466 997.599 384.235 995.969 383.66C994.621 383.184 993.235 383.038 991.817 383.004C989.274 383.105 986.706 383.653 984.908 385.579z"/>
     <path stroke-width="2" d="M1003.857 404.245C1000.052 405.987 995.948 406.6 991.796 406.67C988.272 406.583 984.788 406.124 981.474 404.872C980.738 404.593 980.005 404.274 979.303 403.918C976.341 402.411 973.255 399.872 972.866 396.343C972.738 395.173 972.985 393.925 973.118 392.783L973.458 389.841C973.58 388.793 973.621 387.543 973.918 386.492C974.322 385.06 975.125 383.8 976.153 382.735C978.115 380.697 980.791 379.392 983.461 378.567C988.966 376.863 995.154 376.882 1000.644 378.646C1003.823 379.666 1007.149 381.437 1008.982 384.346C1009.333 384.903 1009.5 385.315 1009.758 385.916"/>
     <path stroke-width="2" d="M973.688 387.855C973.692 388.653 973.74 389.384 973.988 390.153C974.87 392.877 977.322 394.814 979.777 396.079C982.327 397.394 985.158 398.146 987.995 398.507C992.672 399.103 997.61 398.689 1002.028 396.994C1002.745 396.718 1003.452 396.404 1004.134 396.05C1006.993 394.567 1009.961 392.036 1010.167 388.581C1010.206 387.925 1010.12 387.295 1009.979 386.656"/>
     <path stroke-width="2" d="M1002.525 379.615C1001.438 379.165 1000.357 378.755 999.22 378.449C996.756 377.786 994.253 377.552 991.711 377.516C986.788 377.658 981.39 378.629 977.552 381.968C976.883 382.55 976.275 383.211 975.788 383.954C975.355 384.615 975.019 385.345 974.836 386.115C974.719 386.603 974.663 387.098 974.674 387.6C974.745 390.946 977.596 393.422 980.34 394.858C981 395.204 981.687 395.509 982.381 395.776C984.678 396.656 987.121 397.151 989.571 397.346C992.929 397.612 996.365 397.329 999.607 396.398C1001.716 395.793 1003.782 394.904 1005.549 393.591C1006.293 393.04 1006.982 392.408 1007.566 391.687C1008.08 391.05 1008.509 390.341 1008.796 389.572C1008.972 389.098 1009.094 388.603 1009.149 388.098C1009.201 387.603 1009.192 387.107 1009.116 386.612C1008.596 383.158 1005.422 381.021 1002.525 379.615z"/>
     <path stroke-width="2" d="M985.187 388.415C985.224 386.824 986.466 385.798 987.836 385.194C990.183 384.161 993.094 384.122 995.496 384.987C997.032 385.538 998.671 386.634 998.671 388.432"/>
     <path stroke-width="2" d="M998.601 388.81C998.318 389.404 997.981 389.798 997.474 390.221"/>
     <path stroke-width="2" d="M989.24 388.802C991.933 388.237 995.302 388.291 997.505 390.194"/>
     <path stroke-width="2" d="M998.563 388.887C998.701 388.382 998.653 388.649 998.697 388.086"/>
     <path stroke-width="2" d="M995.831 391.105C994.567 391.519 993.345 391.716 992.018 391.769C990.683 391.735 989.451 391.555 988.176 391.16"/>
     <path stroke-width="2" d="M986.01 389.923C986.706 390.473 987.407 390.848 988.23 391.175"/>
     <path stroke-width="2" d="M997.489 390.211C996.927 390.584 996.381 390.867 995.759 391.127"/>
     <path stroke-width="2" d="M987.831 389.279C987.294 389.547 986.816 389.814 986.35 390.192"/>
     <path stroke-width="2" d="M986.107 389.999C985.613 389.497 985.839 389.761 985.427 389.206"/>
     <path stroke-width="2" d="M985.21 388.607L985.316 388.951"/>
     <path stroke-width="2" d="M988.653 391.533C988.73 391.451 988.775 391.403 988.886 391.379"/>
     <path stroke-width="2" d="M999.504 378.31L999.442 378.295C999.34 378.324 999.293 378.37 999.22 378.449"/>
    </g>
    <g id="EH2234-HALDERPINDURCHM8_SONDERF" class="hotspot hotspot_EH2234-HALDERPINDURCHM8_SONDERF" itedo:apstype="grobject">
     <desc>EH2234-HALDERPINDURCHM8_SONDERF</desc>
     <line stroke-width="2" x1="1014.067" y1="332.367" x2="1025.808" y2="335.526"/>
     <path stroke-width="2" d="M1017.207 324.932C1016.884 324.524 1016.475 324.346 1015.956 324.324C1015.74 324.346 1015.567 324.389 1015.366 324.468"/>
     <path stroke-width="2" d="M1031.3 328.728L1029.369 328.208L1013.321 323.887L1011.389 323.367L1011.202 323.334L1010.153 323.451L1009.105 323.569L1008.923 323.649C1008.474 323.916 1008.181 324.456 1007.958 324.908C1007.498 325.846 1007.211 326.899 1007.125 327.939C1007.081 328.478 1007.024 329.288 1007.41 329.735C1008.701 331.226 1010.495 331.404 1012.274 331.882"/>
     <path stroke-width="2" d="M1013.327 332.483C1013.505 332.49 1013.548 332.502 1013.727 332.471C1013.86 332.447 1013.993 332.406 1014.115 332.348C1014.548 332.141 1014.332 331.75 1014.12 331.432C1013.808 330.97 1013.346 330.6 1012.778 330.555C1012.022 330.565 1011.816 331.187 1012.203 331.795C1012.407 332.115 1012.707 332.307 1013.056 332.432"/>
     <path stroke-width="2" d="M1014.355 331.906C1014.038 332.1 1013.754 332.197 1013.385 332.24C1012.791 332.221 1012.326 332.029 1012.053 331.48"/>
     <path stroke-width="2" d="M1009.043 330.954C1008.605 330.418 1008.586 329.68 1008.615 329.016C1008.673 327.639 1009.047 326.228 1009.653 324.992C1009.972 324.343 1010.427 323.483 1011.202 323.334"/>
     <path stroke-width="2" d="M1065.362 344.341C1065.041 344.559 1064.855 344.769 1064.493 344.802L1062.563 344.281L1061.905 344.105L1059.973 343.584C1059.799 343.536 1059.701 343.454 1059.618 343.288C1059.405 342.862 1059.426 342.312 1059.464 341.851C1059.541 340.928 1059.796 339.995 1060.203 339.165C1060.378 338.809 1060.589 338.439 1060.891 338.173C1061 338.076 1061.203 337.923 1061.368 337.963L1063.299 338.483L1063.962 338.661L1065.894 339.18L1066.029 339.225C1066.132 339.281 1066.196 339.379 1066.249 339.478C1066.444 339.862 1066.607 340.141 1066.647 340.552C1066.74 341.519 1066.458 342.583 1066.035 343.444C1065.84 343.838 1065.589 344.288 1065.151 344.437C1064.666 344.415 1064.635 343.771 1064.633 343.399C1064.625 342.418 1064.911 341.357 1065.405 340.509C1065.55 340.259 1065.999 339.55 1066.382 339.853C1066.479 339.93 1066.5 340.004 1066.555 340.113"/>
     <path stroke-width="2" d="M1055.9 345.595C1055.144 346.846 1054.15 348.553 1052.53 348.692C1050.976 348.399 1050.77 346.339 1050.703 345.057L1050.684 344.293L1050.707 343.483C1050.813 341.336 1051.256 339.197 1051.903 337.149C1052.429 335.487 1053.098 333.846 1054.015 332.358C1054.366 331.788 1054.759 331.233 1055.222 330.747C1055.46 330.497 1055.728 330.257 1056.017 330.067C1056.244 329.918 1056.498 329.791 1056.766 329.735C1058.058 329.463 1058.596 331.009 1058.785 331.988L1058.883 332.632L1058.942 333.341L1058.961 334.105L1058.958 334.211"/>
     <path stroke-width="2" d="M1060.529 343.733C1060.324 343.944 1060.136 344.077 1059.839 344.101C1059.213 343.896 1059.211 343.007 1059.221 342.461C1059.249 341.009 1059.684 339.375 1060.519 338.173C1060.825 337.733 1061.542 337.026 1061.922 337.8L1062.036 338.142"/>
     <path stroke-width="2" d="M1055.638 346.045C1054.861 347.242 1053.945 348.615 1052.432 348.843C1051.458 348.8 1050.992 348.093 1050.647 347.254C1050.167 346.088 1050.2 344.642 1050.251 343.403C1050.34 341.247 1050.801 339.088 1051.45 337.035C1052.048 335.141 1052.829 333.25 1053.965 331.61C1054.318 331.1 1054.71 330.651 1055.154 330.223C1055.4 329.987 1055.673 329.821 1055.965 329.654L1056.388 329.492L1056.799 329.435C1058.203 329.54 1058.602 330.99 1058.833 332.165L1058.921 332.867L1058.965 334.209"/>
     <path stroke-width="2" d="M1065.894 339.18C1065.413 339.223 1065.115 339.685 1064.892 340.071C1064.319 341.06 1063.99 342.278 1063.97 343.42C1063.961 343.88 1063.963 344.63 1064.493 344.802"/>
     <path stroke-width="2" d="M1059.396 344.439C1059.035 344.939 1058.609 345.423 1057.96 345.454C1057 345.148 1057.009 343.735 1057.028 342.916C1057.08 340.749 1057.723 338.355 1058.929 336.538L1059.208 336.151C1059.569 335.694 1060.339 334.937 1060.92 335.536L1061.086 335.759L1061.221 336.055C1061.329 336.348 1061.385 336.661 1061.411 336.973"/>
     <path stroke-width="2" d="M1060.92 335.536C1060.511 335.04 1060.201 334.403 1059.539 334.279C1058.554 334.423 1057.934 335.415 1057.482 336.218C1056.291 338.331 1055.588 340.949 1055.626 343.379C1055.635 343.999 1055.691 344.665 1055.951 345.237C1056.07 345.497 1056.255 345.764 1056.536 345.87C1057.095 346.081 1058.213 345.44 1058.448 345.353"/>
     <path stroke-width="2" d="M1061.922 337.8C1061.597 337.276 1061.393 336.459 1060.692 336.42C1060.046 336.603 1059.647 337.199 1059.328 337.757C1058.557 339.113 1058.109 340.732 1058.011 342.286L1057.997 342.757L1058.011 343.192C1058.045 343.644 1058.14 344.505 1058.698 344.644C1059.163 344.759 1060.086 344.071 1060.207 344.005"/>
     <path stroke-width="2" d="M1055.561 345.086C1055.291 345.014 1054.461 344.908 1054.163 344.6C1053.589 344.012 1053.592 342.918 1053.609 342.163C1053.655 340.211 1054.184 338.197 1055.044 336.446C1055.423 335.672 1055.944 334.689 1056.753 334.278C1057.309 333.997 1057.855 334.326 1058.422 334.478"/>
     <path stroke-width="2" d="M1058.16 334.408C1058.008 333.992 1057.733 333.759 1057.311 333.678C1056.326 333.822 1055.707 334.812 1055.255 335.613C1054.063 337.728 1053.359 340.348 1053.396 342.778L1053.424 343.334C1053.486 344.04 1053.758 345.588 1054.817 345.278C1055.049 345.209 1055.114 345.146 1055.299 345.016"/>
     <path stroke-width="2" d="M1056.536 345.87C1056.294 345.805 1056.134 345.797 1055.942 345.641C1055.68 345.425 1055.538 345.084 1055.445 344.769C1055.25 344.098 1055.233 343.372 1055.265 342.68C1055.365 340.432 1056.006 338.079 1057.112 336.117C1057.432 335.548 1057.813 334.968 1058.323 334.548C1058.557 334.355 1058.851 334.175 1059.165 334.18L1059.786 334.324"/>
     <path stroke-width="2" d="M1054.306 345.269C1054.039 345.199 1053.671 345.16 1053.432 344.966C1053.17 344.752 1053.028 344.41 1052.935 344.095C1052.739 343.42 1052.722 342.692 1052.755 341.995C1052.855 339.75 1053.496 337.401 1054.599 335.442C1054.921 334.872 1055.3 334.293 1055.811 333.872C1056.046 333.68 1056.339 333.5 1056.654 333.504L1056.902 333.548L1057.557 333.725"/>
     <path stroke-width="2" d="M1060.886 336.43L1060.329 336.281L1060.134 336.271C1059.489 336.452 1059.09 337.05 1058.773 337.607C1057.999 338.966 1057.551 340.588 1057.454 342.146C1057.414 342.786 1057.343 343.98 1057.964 344.413L1058.142 344.494L1058.698 344.644"/>
     <path stroke-width="2" d="M1050.257 343.322C1048.607 342.928 1046.99 342.675 1045.301 342.54"/>
     <path stroke-width="2" d="M1057.839 333.92L1058.163 332.985L1058.646 331.411"/>
     <path stroke-width="2" d="M1050.256 343.326C1049.439 342.916 1049.449 341.613 1049.468 340.845C1049.516 338.843 1050.087 336.725 1051.075 334.983C1051.359 334.482 1051.7 333.964 1052.162 333.608C1052.359 333.454 1052.679 333.264 1052.943 333.348"/>
     <path stroke-width="2" d="M1049.532 332.132C1048.462 331.62 1047.473 330.93 1046.297 330.714C1045.661 330.81 1045.229 331.232 1044.846 331.728C1044.358 332.358 1043.988 333.079 1043.674 333.809C1042.873 335.673 1042.354 337.776 1042.385 339.817C1042.396 340.552 1042.441 341.66 1043.073 342.175C1043.651 342.648 1044.91 342.543 1045.518 342.557"/>
     <path stroke-width="2" d="M1047.198 330.935L1046.951 330.889C1045.964 331.035 1045.346 332.026 1044.894 332.829C1043.788 334.79 1043.147 337.141 1043.048 339.387C1043.002 340.377 1042.962 341.906 1043.948 342.482"/>
     <path stroke-width="2" d="M1052.907 333.336C1051.704 332.968 1050.551 332.555 1049.39 332.072"/>
     <path stroke-width="2" d="M1052.798 333.629C1052.891 333.47 1053.173 333.668 1053.242 333.766"/>
    </g>
    <g id="ADAMHALLGUMMISTOPPER37X10_ANY" class="hotspot hotspot_ADAMHALLGUMMISTOPPER37X10_ANY" itedo:apstype="grobject">
     <desc>ADAMHALLGUMMISTOPPER37X10_ANY</desc>
     <line stroke-width="2" x1="87.486" y1="144.129" x2="87.698" y2="143.746"/>
     <line stroke-width="2" x1="74.343" y1="143.246" x2="74.438" y2="143.632"/>
     <path stroke-width="2" d="M83.421 146.322C82.878 145.747 81.96 145.627 81.221 145.572C80.329 145.587 79.459 145.728 78.759 146.32"/>
     <path stroke-width="2" d="M73.852 140.657C73.629 141.061 73.527 141.18 73.415 141.627C72.885 143.776 75.058 145.314 76.787 145.98C79.768 147.129 83.582 147.056 86.415 145.508C86.989 145.194 87.533 144.805 87.971 144.316C88.221 144.038 88.436 143.724 88.59 143.383C88.731 143.068 88.817 142.735 88.834 142.39C88.933 140.444 86.983 139.151 85.39 138.537C84.067 138.026 82.697 137.853 81.29 137.786C78.566 137.834 75.614 138.389 73.852 140.657z"/>
     <path stroke-width="2" d="M100.123 149.489L99.893 147.502L99.555 144.59C99.409 143.334 99.382 141.905 98.915 140.691C97.444 136.866 93.51 134.616 89.795 133.424C88.808 133.108 88.484 133.045 87.474 132.8C86.706 132.614 85.778 132.467 84.993 132.366C83.736 132.203 82.483 132.146 81.216 132.116C77.905 132.169 74.631 132.582 71.506 133.723C70.128 134.227 68.734 134.854 67.531 135.7C66.004 136.776 64.45 138.074 63.648 139.816C63.332 140.501 63.28 140.557 63.076 141.28C62.781 142.325 62.74 143.57 62.619 144.612L62.277 147.572L62.048 149.557L61.988 150.346C61.972 151.717 62.417 153.05 63.146 154.204C65.049 157.216 68.521 159.007 71.813 160.063C75.192 161.147 78.79 161.561 82.331 161.427C85.998 161.289 89.674 160.56 93.018 159.026"/>
     <path stroke-width="2" d="M90.945 150.435C92.557 149.735 94.099 148.947 95.438 147.79C96.109 147.21 96.721 146.55 97.21 145.806C97.647 145.146 97.986 144.419 98.174 143.647C98.938 140.512 96.927 137.717 94.483 135.979C90.569 133.195 85.612 132.372 80.915 132.298C75.987 132.431 70.59 133.397 66.739 136.727C64.695 138.492 63.292 141.098 64.052 143.836C64.266 144.605 64.628 145.328 65.084 145.981C66.832 148.486 69.768 150.008 72.602 150.932C78.54 152.87 85.12 152.593 90.945 150.435z"/>
     <path stroke-width="2" d="M77.26 143.948C79.51 143.164 81.941 143.01 84.24 143.711C85.076 143.967 86.028 144.349 86.67 144.967"/>
     <path stroke-width="2" d="M62.85 142.626C62.851 143.425 62.899 144.156 63.146 144.924C64.141 148.016 67.115 150.085 69.95 151.346C72.626 152.537 75.539 153.18 78.45 153.425C82.721 153.786 87.158 153.318 91.174 151.781C94.388 150.55 97.933 148.376 99.039 144.901C99.283 144.133 99.326 143.401 99.325 142.604"/>
     <path stroke-width="2" d="M87.855 143.024C87.775 143.568 87.84 143.322 87.685 143.77"/>
     <path stroke-width="2" d="M74.365 143.337C74.188 141.598 75.829 140.433 77.263 139.864C79.831 138.844 83.099 138.893 85.573 140.163C86.731 140.758 87.838 141.758 87.838 143.155"/>
     <path stroke-width="2" d="M77.093 145.85C79.623 146.711 82.188 146.736 84.746 145.973"/>
     <path stroke-width="2" d="M87.554 144.044C87.129 144.591 87.359 144.332 86.864 144.818"/>
     <path stroke-width="2" d="M84.704 145.985C85.533 145.665 86.242 145.296 86.947 144.756"/>
     <path stroke-width="2" d="M78.525 146.277C78.427 146.306 78.391 146.359 78.328 146.439"/>
     <path stroke-width="2" d="M75.462 144.943C76.019 145.324 76.558 145.61 77.177 145.879"/>
     <path stroke-width="2" d="M76.615 144.239C76.233 144.46 75.826 144.663 75.504 144.973"/>
     <path stroke-width="2" d="M74.795 144.277C74.5 143.83 74.637 144.075 74.394 143.532"/>
     <path stroke-width="2" d="M75.492 144.965C74.995 144.536 75.236 144.77 74.775 144.254"/>
     <path stroke-width="2" d="M87.423 132.788C87.331 132.823 87.295 132.872 87.234 132.95"/>
    </g>
    <g id="Z0650V04WHEELBOARDWINKEL_AUSF_H" class="hotspot hotspot_Z0650V04WHEELBOARDWINKEL_AUSF_H" itedo:apstype="grobject">
     <desc>Z0650V04WHEELBOARDWINKEL_AUSF_H</desc>
     <g id="Z0650WHEELBOARDWINKEL_ANY" class="hotspot hotspot_Z0650WHEELBOARDWINKEL_ANY" itedo:apstype="grobject">
      <desc>Z0650WHEELBOARDWINKEL_ANY</desc>
      <line stroke-width="2" x1="1016.693" y1="374.055" x2="1012.162" y2="372.836"/>
      <line stroke-width="2" x1="1022.727" y1="339.341" x2="1027.259" y2="340.562"/>
      <line stroke-width="2" x1="1018.538" y1="325.291" x2="1033.269" y2="307.053"/>
      <line stroke-width="2" x1="1046.03" y1="310.49" x2="1033.269" y2="307.053"/>
      <line stroke-width="2" x1="980.442" y1="376.543" x2="985.754" y2="377.973"/>
      <path stroke-width="2" d="M1044.53 332.175C1044.385 331.983 1044.23 331.932 1043.997 331.93C1043.323 332.119 1042.906 332.786 1042.587 333.367C1041.846 334.716 1041.411 336.31 1041.324 337.846L1041.311 338.269C1041.311 338.93 1041.401 340.389 1042.4 340.11"/>
      <path stroke-width="2" d="M1008.879 384.199L1010.811 384.72L1014.309 385.661L1016.24 386.182C1016.392 386.221 1016.578 386.194 1016.658 386.043L1016.693 385.894L1017.951 384.338L1048.978 345.923L1050.234 344.367"/>
      <path stroke-width="2" d="M980.442 372.461L982.373 372.98L1009.778 380.358L1011.708 380.879C1011.885 380.925 1012.105 380.872 1012.153 380.672L1012.162 380.593L1012.162 378.593L1012.162 374.836L1012.162 372.836L1012.764 370.928L1022.125 341.25L1022.727 339.341L1023.984 337.786L1053.167 301.653L1054.423 300.098"/>
      <path stroke-width="2" d="M1054.423 300.098L1056.355 300.617L1057.025 300.798L1058.955 301.317L1060.598 302.458L1067.877 307.509L1069.52 308.649"/>
      <path stroke-width="2" d="M1058.962 333.672L1060.22 332.115L1068.188 322.25L1069.443 320.694C1069.493 320.632 1069.52 320.569 1069.52 320.487L1069.52 318.487L1069.52 310.649L1069.52 308.649"/>
      <path stroke-width="2" d="M1058.955 301.317L1057.699 302.874L1028.516 339.005L1027.259 340.562L1026.657 342.47L1017.296 372.149L1016.693 374.055L1016.693 376.055L1016.693 383.894L1016.693 385.894"/>
      <path stroke-width="2" d="M1007.134 372.555C1007.245 372.846 1007.299 372.932 1007.328 373.242C1007.491 374.976 1005.475 375.98 1004.091 376.35C1003.717 376.449 1003.331 376.524 1002.947 376.572L1001.736 376.649C1000.933 376.624 1000.149 376.557 999.37 376.346C997.904 375.951 995.677 374.769 996.211 372.891C996.28 372.649 996.394 372.423 996.537 372.218C996.696 371.987 996.892 371.781 997.105 371.6C998.929 370.047 1001.884 369.889 1004.104 370.485C1005.336 370.817 1006.48 371.427 1007.134 372.555z"/>
      <path stroke-width="2" d="M1004.32 376.279C1005.071 375.168 1003.4 374.382 1002.563 374.228L1001.856 374.158L1001.142 374.194C1000.327 374.298 998.832 374.791 998.998 375.882C999.025 376.067 999.066 376.113 999.149 376.278"/>
      <path stroke-width="2" d="M999.716 376.427C1000.922 375.704 1002.552 375.752 1003.763 376.425"/>
      <path stroke-width="2" d="M980.442 376.543C980.442 376.524 980.434 372.478 980.442 372.461L981.697 370.904L1011.581 333.906L1012.837 332.35"/>
     </g>
    </g>
   </g>
   <g id="ROLLE75MM_OHNE_SCHRAUBEN_ANY_3_3" itedo:apstype="grobject">
    <desc>ROLLE75MM_OHNE_SCHRAUBEN_ANY</desc>
    <line stroke-width="2" x1="136.275" y1="242.8" x2="136.275" y2="252.981"/>
    <line stroke-width="2" x1="136.694" y1="253.094" x2="136.275" y2="252.981"/>
    <line stroke-width="2" x1="143.806" y1="240.85" x2="143.806" y2="278.372"/>
    <line stroke-width="2" x1="129.191" y1="301.214" x2="128.765" y2="300.752"/>
    <line stroke-width="2" x1="129.578" y1="301.495" x2="129.146" y2="301.165"/>
    <line stroke-width="2" x1="129.981" y1="301.68" x2="129.526" y2="301.456"/>
    <line stroke-width="2" x1="138.375" y1="286.129" x2="136.694" y2="285.677"/>
    <line stroke-width="2" x1="105.608" y1="232.651" x2="138.375" y2="241.473"/>
    <line stroke-width="2" x1="136.275" y1="242.8" x2="107.709" y2="235.11"/>
    <line stroke-width="2" x1="113.337" y1="238.661" x2="113.337" y2="245.917"/>
    <line stroke-width="2" x1="113.594" y1="236.694" x2="113.594" y2="238.443"/>
    <line stroke-width="2" x1="107.709" y1="245.292" x2="107.289" y2="245.179"/>
    <line stroke-width="2" x1="107.289" y1="255.17" x2="107.289" y2="245.179"/>
    <line stroke-width="2" x1="107.709" y1="235.11" x2="107.709" y2="245.292"/>
    <path stroke-width="2" d="M136.694 253.094L136.694 255.094L136.694 274.44L136.694 276.44L136.082 278.194C135.711 279.391 135.415 280.612 135.21 281.848C135.066 282.706 134.963 283.574 134.923 284.446L134.903 285.245"/>
    <path stroke-width="2" d="M128.18 290.12C127.813 290.257 127.438 290.346 126.992 290.357L126.879 290.35"/>
    <path stroke-width="2" d="M144.527 277.646C143.376 283.63 141.237 289.615 137.796 294.682C136.957 295.918 136 297.172 134.83 298.11C134.139 298.665 133.364 299.249 132.503 299.524C131.915 299.711 131.448 299.776 130.837 299.833C129.828 299.788 128.884 299.449 127.914 299.189"/>
    <path stroke-width="2" d="M136.275 248.103C134.865 249.239 133.676 250.717 132.61 252.168C130.93 254.451 129.508 256.923 128.243 259.459C125.664 264.627 123.709 270.112 122.215 275.685C120.721 281.252 119.668 286.971 119.32 292.73C119.121 296.028 119.138 299.375 119.658 302.646C119.971 304.613 120.462 306.622 121.433 308.379C121.73 308.913 122.078 309.427 122.489 309.879C122.847 310.271 123.257 310.62 123.718 310.886C124.453 311.31 125.265 311.466 126.105 311.439C128.217 311.375 130.108 310.656 131.865 309.504L132.241 309.23L133.056 308.619C133.741 308.06 134.414 307.41 135.02 306.769C135.693 306.057 136.325 305.298 136.911 304.512C137.774 303.35 138.59 302.168 139.336 300.927C140.223 299.456 141.024 297.935 141.776 296.392C142.813 294.266 143.729 292.079 144.551 289.86C146.65 284.201 148.139 278.327 149.027 272.36"/>
    <path stroke-width="2" d="M143.806 278.372C145.233 276.939 146.606 275.471 147.866 273.887C152.016 268.661 155.182 262.68 157.61 256.483C159.008 252.915 160.217 249.237 161.074 245.5"/>
    <path stroke-width="2" d="M148.639 272.87C148.039 277.341 146.931 281.781 145.55 286.072C143.933 291.1 141.872 296.077 139.024 300.543C137.852 302.38 136.527 304.168 134.914 305.648C133.995 306.49 132.947 307.266 131.754 307.678C131.097 307.906 130.973 307.879 130.299 307.944C129.694 307.894 129.528 307.923 128.96 307.699C126.697 306.809 125.751 304.011 125.254 301.86L125.01 300.639L124.819 299.319L124.682 297.918C124.605 296.915 124.57 295.877 124.572 294.872C124.572 290.692 125.096 286.512 125.906 282.416C126.781 277.992 128.014 273.63 129.599 269.408C130.644 266.629 131.843 263.901 133.262 261.291C134.265 259.442 135.372 257.612 136.694 255.972"/>
    <path stroke-width="2" d="M136.694 260.406C135.801 261.511 135.062 262.714 134.334 263.93"/>
    <path stroke-width="2" d="M136.694 263.019C134.581 265.636 133.098 268.776 131.887 271.894C129.651 277.644 128.18 283.937 128.18 290.129C128.18 290.966 128.212 291.817 128.29 292.653L128.429 293.79L128.622 294.834C129.032 296.699 130.078 299.47 132.471 299.175C132.908 299.122 133.326 298.973 133.718 298.776C134.193 298.536 134.639 298.216 135.045 297.875C135.83 297.213 136.466 296.437 137.108 295.642"/>
    <path stroke-width="2" d="M139.758 239.76L138.375 241.473L138.375 243.473L138.375 284.129L138.375 286.129C138.377 286.411 138.389 286.69 138.431 286.968C138.465 287.182 138.518 287.411 138.599 287.612L138.723 287.851C139.326 288.793 140.276 287.579 140.657 287.086L141.048 286.565L141.429 285.985C142.909 283.579 143.867 280.68 144.283 277.891"/>
    <path stroke-width="2" d="M144.765 277.408C144.02 281.062 142.981 284.656 141.622 288.129C140.521 290.94 139.218 293.699 137.563 296.23C136.717 297.526 135.771 298.778 134.645 299.845C133.847 300.6 132.919 301.309 131.854 301.637C131.28 301.814 131.171 301.778 130.586 301.793L129.965 301.673"/>
    <path stroke-width="2" d="M136.275 243.479C133.224 242.414 130.032 241.739 126.837 241.284C125.438 241.086 123.992 240.881 122.575 240.881C121.73 240.915 120.899 240.991 120.085 241.242C116.167 242.461 113.257 245.659 110.957 248.917C108.734 252.067 106.974 255.55 105.471 259.091C103.037 264.819 101.271 270.851 100.144 276.971C99.596 279.954 99.177 282.985 99.034 286.016L98.959 287.68C98.941 288.281 98.787 289.245 99.084 289.898C99.427 290.649 100.135 291.072 100.876 291.394"/>
    <path stroke-width="2" d="M136.694 260.197C135.823 261.273 135.078 262.47 134.389 263.668C133.068 265.966 131.971 268.391 131.026 270.863C129.574 274.668 128.469 278.612 127.722 282.615C127.135 285.759 126.757 288.961 126.759 292.165C126.759 293.889 126.865 295.625 127.194 297.321L127.436 298.382C127.962 300.377 129.163 303.069 131.639 302.92C132.091 302.894 132.543 302.771 132.959 302.598C133.743 302.271 134.449 301.762 135.084 301.204C136.556 299.911 137.737 298.295 138.776 296.644C140.435 294.004 141.752 291.151 142.862 288.242C144.403 284.206 145.556 280.014 146.293 275.759"/>
    <path stroke-width="2" d="M139.219 288.197C138.497 288.002 137.27 288.014 136.919 287.161C136.836 286.959 136.783 286.73 136.752 286.516C136.709 286.237 136.695 285.961 136.694 285.677L136.694 283.677L136.694 278.44L136.694 276.44"/>
    <path stroke-width="2" d="M128.074 299.591C128.514 300.439 128.266 300.024 128.819 300.834"/>
    <path stroke-width="2" d="M127.501 297.971C127.045 295.949 126.882 293.961 126.841 291.891"/>
    <path stroke-width="2" d="M127.302 297.091C127.682 297.932 128.112 298.757 128.893 299.298C129.335 299.605 129.462 299.598 129.967 299.742"/>
    <path stroke-width="2" d="M128.086 299.62C127.638 298.494 127.84 299.069 127.483 297.887"/>
    <path stroke-width="2" d="M134.903 285.245L134.925 286.033L134.987 286.752L135.093 287.406C135.3 288.423 135.895 289.944 137.217 289.56C137.501 289.478 137.768 289.326 138.003 289.151C138.391 288.865 138.717 288.514 139.019 288.142"/>
    <path stroke-width="2" d="M113.594 238.443C111.253 240.424 109.424 242.758 107.709 245.292"/>
    <path stroke-width="2" d="M125.102 311.384C119.956 310.932 114.873 309.896 110.052 308.002C108.888 307.545 107.746 307.06 106.615 306.528C105.65 306.074 104.879 305.733 104.159 304.944C103.263 303.959 102.673 302.721 102.239 301.475C101.305 298.8 101.001 295.913 100.906 293.096C100.769 289.047 101.123 284.99 101.73 280.988C102.569 275.449 103.923 269.987 105.725 264.682C107.102 260.632 108.736 256.661 110.759 252.889C112.037 250.501 113.472 248.175 115.177 246.066C116.78 244.081 118.772 241.978 121.266 241.157C121.978 240.921 122.111 240.949 122.838 240.881"/>
    <path stroke-width="2" d="M105.608 258.776L105.608 256.776L105.608 234.651L105.608 232.651L106.992 230.939"/>
    <path stroke-width="2" d="M105.388 305.951C104.82 305.62 104.287 305.266 103.781 304.843C102.489 303.766 101.59 302.271 100.891 300.766C99.677 298.146 99.233 295.163 99.034 292.307L98.935 289.286"/>
   </g>
   <g id="ROLLE75MM_OHNE_SCHRAUBEN_ANY_3_3_2" itedo:apstype="grobject">
    <desc>ROLLE75MM_OHNE_SCHRAUBEN_ANY</desc>
    <line stroke-width="2" x1="892.134" y1="446.295" x2="892.134" y2="456.476"/>
    <line stroke-width="2" x1="892.554" y1="456.589" x2="892.134" y2="456.476"/>
    <line stroke-width="2" x1="899.667" y1="444.346" x2="899.667" y2="481.867"/>
    <line stroke-width="2" x1="885.052" y1="504.709" x2="884.625" y2="504.247"/>
    <line stroke-width="2" x1="885.438" y1="504.99" x2="885.008" y2="504.661"/>
    <line stroke-width="2" x1="885.841" y1="505.175" x2="885.386" y2="504.951"/>
    <line stroke-width="2" x1="894.235" y1="489.625" x2="892.554" y2="489.173"/>
    <line stroke-width="2" x1="861.47" y1="436.146" x2="894.235" y2="444.968"/>
    <line stroke-width="2" x1="892.134" y1="446.295" x2="863.57" y2="438.605"/>
    <line stroke-width="2" x1="869.198" y1="442.156" x2="869.198" y2="449.411"/>
    <line stroke-width="2" x1="869.456" y1="440.189" x2="869.456" y2="441.937"/>
    <line stroke-width="2" x1="863.57" y1="448.786" x2="863.149" y2="448.673"/>
    <line stroke-width="2" x1="863.149" y1="458.665" x2="863.149" y2="448.673"/>
    <line stroke-width="2" x1="863.57" y1="438.605" x2="863.57" y2="448.786"/>
    <path stroke-width="2" d="M892.554 456.589L892.554 458.589L892.554 477.935L892.554 479.935L891.943 481.689C891.572 482.886 891.277 484.107 891.07 485.343C890.927 486.201 890.825 487.069 890.783 487.94L890.764 488.74C890.645 489.002 889.448 490.148 889.26 490.317C888.048 491.406 886.673 492.302 885.227 493.05C884.39 493.483 883.767 493.829 882.852 493.851L882.74 493.846"/>
    <path stroke-width="2" d="M900.389 481.141C899.235 487.125 897.097 493.11 893.657 498.177C892.818 499.413 891.86 500.666 890.692 501.605C890 502.16 889.225 502.744 888.364 503.019C887.777 503.206 887.307 503.271 886.698 503.327C885.688 503.283 884.745 502.944 883.774 502.684"/>
    <path stroke-width="2" d="M892.134 451.598C890.725 452.733 889.537 454.211 888.471 455.663C886.791 457.947 885.37 460.418 884.105 462.954C881.524 468.122 879.571 473.607 878.075 479.18C876.581 484.747 875.529 490.466 875.182 496.225C874.981 499.524 874.998 502.87 875.518 506.141C875.831 508.108 876.322 510.117 877.294 511.874C877.591 512.408 877.937 512.922 878.35 513.374C878.708 513.767 879.119 514.115 879.58 514.38C880.313 514.804 881.125 514.961 881.966 514.934C884.076 514.87 885.969 514.152 887.725 513L888.102 512.725L888.917 512.114C889.6 511.555 890.275 510.904 890.88 510.264C891.553 509.552 892.187 508.793 892.77 508.007C893.634 506.846 894.451 505.663 895.197 504.422C896.082 502.951 896.884 501.43 897.638 499.887C898.674 497.761 899.591 495.574 900.413 493.355C902.51 487.697 904 481.822 904.888 475.855"/>
    <path stroke-width="2" d="M899.667 481.867C901.094 480.432 902.467 478.966 903.726 477.382C907.878 472.156 911.043 466.175 913.47 459.978C914.868 456.411 916.077 452.733 916.934 448.995"/>
    <path stroke-width="2" d="M904.5 476.365C903.9 480.836 902.792 485.276 901.412 489.567C899.794 494.596 897.734 499.572 894.884 504.038C893.711 505.875 892.388 507.663 890.774 509.142C889.855 509.985 888.807 510.762 887.615 511.173C886.957 511.401 886.835 511.375 886.158 511.439C885.556 511.389 885.389 511.418 884.82 511.194C882.558 510.303 881.613 507.505 881.115 505.355L880.87 504.134L880.678 502.814L880.542 501.413C880.466 500.408 880.432 499.374 880.432 498.367C880.432 494.187 880.957 490.007 881.768 485.911C882.642 481.487 883.875 477.125 885.461 472.903C886.504 470.125 887.703 467.396 889.121 464.786C890.126 462.937 891.234 461.108 892.554 459.466"/>
    <path stroke-width="2" d="M892.554 463.899C891.662 465.005 890.923 466.209 890.193 467.427"/>
    <path stroke-width="2" d="M892.554 466.514C890.442 469.13 888.958 472.271 887.748 475.389C885.511 481.139 884.041 487.432 884.041 493.625C884.041 494.461 884.072 495.314 884.152 496.148L884.289 497.285L884.481 498.329C884.892 500.194 885.938 502.964 888.331 502.67C888.769 502.617 889.187 502.468 889.58 502.271C890.053 502.031 890.5 501.711 890.905 501.37C891.69 500.708 892.326 499.932 892.969 499.137"/>
    <path stroke-width="2" d="M895.619 443.255L894.235 444.968L894.235 446.968L894.235 487.625L894.235 489.625C894.236 489.908 894.25 490.185 894.293 490.463C894.326 490.677 894.378 490.906 894.461 491.108L894.582 491.346C895.187 492.288 896.138 491.074 896.519 490.581L896.908 490.06L897.289 489.48C898.77 487.074 899.73 484.175 900.144 481.387"/>
    <path stroke-width="2" d="M900.626 480.903C899.879 484.557 898.841 488.151 897.482 491.625C896.383 494.435 895.078 497.194 893.424 499.725C892.578 501.021 891.631 502.274 890.505 503.339C889.707 504.096 888.78 504.803 887.716 505.132C887.14 505.309 887.032 505.273 886.447 505.286L885.826 505.168"/>
    <path stroke-width="2" d="M892.134 446.975C889.085 445.91 885.893 445.233 882.698 444.779C881.298 444.581 879.852 444.375 878.434 444.375C877.591 444.411 876.759 444.485 875.947 444.737C872.028 445.956 869.116 449.154 866.818 452.411C864.596 455.562 862.836 459.045 861.331 462.586C858.897 468.314 857.13 474.346 856.005 480.466C855.456 483.449 855.038 486.48 854.895 489.512L854.82 491.175C854.802 491.776 854.648 492.74 854.946 493.392C855.288 494.144 855.995 494.567 856.736 494.889"/>
    <path stroke-width="2" d="M892.554 463.69C891.683 464.767 890.937 465.964 890.249 467.163C888.928 469.461 887.831 471.884 886.886 474.358C885.433 478.163 884.33 482.107 883.583 486.11C882.996 489.254 882.619 492.456 882.62 495.66C882.62 497.384 882.726 499.12 883.056 500.815L883.297 501.877C883.823 503.872 885.024 506.564 887.5 506.415C887.951 506.389 888.403 506.266 888.818 506.093C889.604 505.766 890.309 505.257 890.945 504.699C892.416 503.406 893.599 501.79 894.635 500.139C896.294 497.5 897.613 494.646 898.724 491.737C900.264 487.701 901.418 483.509 902.153 479.254"/>
    <path stroke-width="2" d="M895.08 491.692C894.359 491.497 893.13 491.507 892.78 490.656C892.697 490.454 892.644 490.225 892.613 490.012C892.57 489.73 892.557 489.456 892.554 489.173L892.554 487.173L892.554 481.935L892.554 479.935"/>
    <path stroke-width="2" d="M883.934 503.084C884.375 503.934 884.128 503.519 884.681 504.329"/>
    <path stroke-width="2" d="M883.361 501.466C882.905 499.444 882.743 497.456 882.702 495.387"/>
    <path stroke-width="2" d="M883.163 500.586C883.543 501.427 883.974 502.252 884.754 502.793C885.196 503.1 885.323 503.093 885.828 503.237"/>
    <path stroke-width="2" d="M883.946 503.115C883.499 501.987 883.701 502.565 883.342 501.382"/>
    <path stroke-width="2" d="M890.764 488.74L890.785 489.528L890.849 490.247L890.955 490.901C891.16 491.918 891.755 493.439 893.077 493.055C893.361 492.973 893.629 492.819 893.865 492.646C894.253 492.36 894.577 492.009 894.879 491.637"/>
    <path stroke-width="2" d="M869.456 441.937C867.114 443.918 865.284 446.254 863.57 448.786"/>
    <path stroke-width="2" d="M880.964 514.879C875.817 514.427 870.735 513.39 865.913 511.497C864.749 511.04 863.607 510.555 862.476 510.024C861.511 509.569 860.74 509.228 860.019 508.439C859.123 507.454 858.533 506.216 858.1 504.97C857.167 502.295 856.861 499.408 856.767 496.591C856.629 492.541 856.985 488.485 857.591 484.483C858.428 478.944 859.783 473.482 861.586 468.177C862.962 464.127 864.597 460.156 866.619 456.384C867.899 453.995 869.333 451.67 871.038 449.56C872.639 447.576 874.634 445.473 877.125 444.651C877.839 444.416 877.971 444.444 878.7 444.375"/>
    <path stroke-width="2" d="M861.47 462.271L861.47 460.271L861.47 438.146L861.47 436.146L862.852 434.435"/>
    <path stroke-width="2" d="M861.249 509.446C860.681 509.115 860.149 508.762 859.642 508.338C858.349 507.262 857.451 505.766 856.753 504.261C855.538 501.641 855.094 498.658 854.894 495.802L854.794 492.781"/>
   </g>
  </g>
 </g>
</svg>
