<svg xmlns="http://www.w3.org/2000/svg" xmlns:xlink="http://www.w3.org/1999/xlink"
    viewBox="0 0 1200 1200" enable-background="new 0 0 1200 1200">
    <style type="text/css">.st0{fill:none;} .st1{fill:none;stroke:#000000;stroke-linecap:round;stroke-width:4;} .st2{clip-path:url(#SVGID_2_);} .st3{fill:none;stroke:#FFFFFF;stroke-miterlimit:10;}</style>
    <path class="st0" d="M1069.7 0h-939.4v1200h939.3l.1-1200z"/>
    <path class="st1"
        d="M518.9 1169.5c21.3 13.9 51.1 21.1 81.1 21.1 30.2 0 57.6-7.2 77.2-18.6M818.7 463.3c-46-115.5-161.8-205.4-280.4-225.7M1063.3 504.9c-11.9-138.3-93.9-272.6-211.7-368.6-126.4-101.6-276.5-144.9-406-128.5M349.2 32.5c-47.5 17.5-93.4 50.2-128.2 88.3M825.2 594.5c-46.5-55.8-137-86.8-231.7-85.8-44.4.8-86.1 8.7-121.2 21.5M718.4 732.9c17.2-3.8 32.4-14.8 41.7-28.5M396.1 646.4c8.7 61.5 97.9 108.3 203.9 108.3 44.4 0 85.5-8 118.4-21.8M737.6 803.5c0 8.1.8 15.8 2.3 22.9 9.1 49.5 44.3 84.1 78.5 77.7 20.1-3.7 35.3-20.5 42.8-43.6M757.9 640.9c-56.3 21.3-67.3 53.9-39.7 93M741.7 668.2c25.7-9.7 47.2-24.3 62-41.4M803.6 626.8c-8.9-61.5-97.9-107.9-203.5-108.1-36.8 0-71.5 5.7-100.3 15.3M439.9 530.6c13.5 14.2 37.4 14.8 60.1 3.3M385.5 282.6c-61.3 83.5-29.2 214.7 71.3 307.2M376 419.2c11.4 34.3 29.6 67.3 51.2 95.2M458.1 588.4c9.4-14.2-3-41-30.9-73.9M456.8 589.8l1.3-1.4M429.7 602c13.7-2 22.8-6.5 27.1-12.1M392.6 603.2c-27.6-4.7-51.9 4-66.7 21.5-13.5 16.2-17.3 37.7-12.5 58.9M344 697.5c-2.7-11.5-14.9-21.5-31.9-27.2M344 697.2c18 75.3 129.1 129.4 258 129.1 53.1-.1 102.3-9.7 142.4-25.3M790.5 799c-15.1-3-31.6-2-46 2M327.9 752.9c-3-9-8.1-16.4-14.3-22.1M330.8 770.2c0-6.1-1-12.1-2.9-17.3M140 292.7c-25.4 152.8 44.9 316.2 173.7 438.2M990.3 762.7c128.5-159.9 57.4-430.6-158.5-603.9-216.2-173.3-495.5-184.2-624-24.2-14.5 18.1-26.4 37.7-34.8 56.2M966.4 789c9.1-8.7 17.5-17.8 23.9-26.3M846.7 866.7c55.9-21.5 101.6-54.1 132.8-91.5M789.5 810.8c-1.6 26.3 9.1 46.8 26.8 54.8 9.5 4.4 20.2 4.4 30.4 1.1M789.5 810.8c3-14 2.4-32-.8-49.5-6.3-31-20.4-55.4-34-60.6M746.5 663.6c-9.2 8.6-9.9 17.7-3.4 25.9M877.6 858.2c0-1.9-.1-3.7-.1-5.3M322.5 850.9c-.1 2.7-.4 5.1-.4 7.3 0 88.5 124.5 160.4 277.6 160.4 153.4 0 277.9-71.8 277.9-160.4M412.9 642.6c-10.2 1.4-20.1 4.8-29 9.1-29.2 14.9-46.5 41.7-42.1 63.6M494.1 588.4c3.9-15.2-.6-32.3-12.1-48.8M442.3 632.6c31.4-11.9 48.7-27.3 51.9-44.1M708.4 1128.2v-2.8M695 1158.3c9.1-9.7 13.7-20.2 13.4-30.1M491.7 1130.7c8.3 38.8 56.2 66 111.1 64.8 38.7-.8 72.6-15.3 92.2-37.2M563.3 1191l-9.1-6.1M395 271.8l-11.7 14.2M708.4 1125.4v-119.8M491.7 1005.6v125.1M433.7 246.4c-17.7 8.2-8.7 3.5-26.6 14.2M373.8 305l-3.8 11-3.5 15.9M365.9 375.4c-.6-15.9-.6-31.1 1.4-46.7M391.5 274.7c14.2-13 7.5-7.5 20.2-17.1M426.5 248.9c15.1-5.4 29.7-9.7 45.5-12.5M467.9 236.9c24.2-2.4 47.3-2.3 71.5.8M816.3 611.3l-9.4 12.2-14.4 17.8M1065.2 544.7c-3.3 72-19.1 140-61.2 199.6M1063.3 504.9l.7 8.5 1.2 31.3M349.2 32.5c32-11.6 62.6-20 96.4-24.7M818.7 462.7c8.1 22.9 13.2 45.3 16.2 69.3M831.9 575c2-15.8 3-30.6 2.4-46.4M454.4 532.3c-9.1-2-4.8-.6-13-4M467.8 531.6l-7.6.7-7.2-.3M434.8 523.8l8.2 5.4M825.8 593.2c-7 14.8-2.7 7-12.8 23.8M381.8 602.6c3.2 15.2 7.1 29.9 14.3 43.8M718.4 732.9c5.8 23.8 15.6 46.4 19.2 70.6M805 625.7l-33.1 9.5-13.8 4.7M832.5 570.2c-4 17.3-1.4 8.1-8.3 27.7M365.5 367.2c2.5 19.9 6.5 38.2 12.1 57.4M392.6 603.2c12.6.4 24.8.1 37.2-1.3M313.6 730.7c0-15.7.8-31.2-.3-47.1M173 190.7c-14.9 33.1-26.9 65.6-32.9 101.8M743.1 689.5c3.7 4.3 7.5 7.7 11.8 11.3M802.5 627.9c-17.3 14.8-38.6 21.5-56 35.7M341.8 715.3c-2.9 19.9-8.1 39.1-11 58.6l-8.3 76.9M441.9 633.6l-29 9M466.4 531.6l8.2-2c5.1 3.4 5.3 5.1 7 11"/>
    <defs>
        <path id="SVGID_1_" d="M130.3 1200z"/>
    </defs>
    <clipPath id="SVGID_2_">
        <use xlink:href="#SVGID_1_" overflow="visible"/>
    </clipPath>
    <path class="st3" d="M130.3 1200l44.7-44.7"/>
    <path class="st0" d="M130.3 1200z"/>
</svg>
