<svg xmlns="http://www.w3.org/2000/svg" xmlns:xlink="http://www.w3.org/1999/xlink"
    viewBox="0 0 1400 1400" enable-background="new 0 0 1400 1400">
    <style type="text/css">.st0{fill:none;} .st1{fill:none;stroke:#000000;stroke-linecap:round;stroke-width:3;} .st2{clip-path:url(#SVGID_2_);} .st3{fill:none;stroke:#FFFFFF;stroke-miterlimit:10;}</style>
    <path class="st0" d="M1300 208.1h-1200v983.9h1200v-983.9z"/>
    <path class="st1"
        d="M719.3 843.4l-45.4 56.1M718.1 853.9l-34.9 43.2M1287.8 223.3l-555.1 687.1M1238.2 210l-17.9 22.2M799 933.2l279.3-345.9M1298.4 312.2l-216.3 267.7M1078.3 584.7l-281 348M795.4 910.2l-2.6-2.1M787 920.6v-4.6M788.6 916.3l-.4 1M787.3 920.1v-9.6M804.4 871.9l.7 8.7M802.3 882.3l-2-5.3M811.8 870.3l-3.3-3.5M815.1 858.7l.5-.5M816.1 867l-1.8-2.1M808.4 867l.2-.3M816.6 866.3l-1.8-2.1M796 890.1l-2-5.3M710.7 1033.1l-8.8-2.3M701.9 967.9v62.9M716.1 872.4l-4.1 5.1M740.3 885.1l-28.3-7.6M1174.5 288.9l-410.6 508.3M757.9 795.6l417.7-517.2M1172.5 307.4l-4.1 5.1M1196.7 320l-28.3-7.5M648.8 1020.4l-8.8-2.4M640 947.2v70.8M793.3 894.6l.5.1M797.9 882.6l-.4-.1M800 886.9l-.4-.1M800.5 879.5l-.4-.2M792.1 907.6l.4.2M784.8 905.9l-1-.2M786.3 915.8l.7.2M784.4 918.2v-4M804.1 874.9l-.3-.1M804.6 880.5l.5.1M804.7 881.2l.4-.6M804.7 881.2l-.6-6.3M808.4 875.8l.4.2M813.9 864.3l-.5-.1M813.4 861l.5.1M814.2 859.8l.6.2M814.9 858.9l1 .2M816.6 866.3l-.5.7M816.6 859.4l-.6-.1M814.4 859.4l.7-.7M814.2 863.9l.6.3M815.2 865.9l1.4.4M813.9 864.7l-.4-.5M813.9 865.3l-.5-.1M814.3 864.9l-.9-.3M813.9 869.7l-.5-.1M808.4 876.5v-9.5M806.9 874.2l.7.2M800.5 879.5l1.7 4.6M798.3 888.3l.5.1M797.9 882.6l.5 6.4M793.8 887.1l.4.1M796 891.9l-1.8-4.7M787.2 901.2h.3M792.1 907.9l.7.2M789.1 908.3l.5.1M788.2 917.2l1.4.4M794.8 910.8l.6-.6M792.5 913.7l-.4-.1M787.3 920.1l-.3-.1M789.3 911.4l-.8-.2M789.6 911.5l.3.1M784.4 919.1l-.4-.1M784 918l.4.2M787.3 920.1l-.3.5M784.4 923.8l-.4-.2M790.4 913l.6.2M788.1 901.9l-1-.3M791 907.4l-1-.2M790.3 899.8l.3.1M792.5 904.2v3.6M795.2 900.8l-2.4 7.3M791 907.4l-.4 1.1M1238 269l-41.3 51M1233.3 267.7l4.7 1.3M781.6 834l-41.3 51.1M776.9 832.8l4.7 1.2M1288.3 268.8l-5.4-1.5M1214.3 230.6l2.4-3.1 9.6-11.8 2.4-3.1.9-1c3.4-3.4 8.4-1.7 12.3-.6l42 11.3 3.8 1 1.7.6c3.3 1.4 6.2 4 7.7 7.2.5 1 .9 2 1 3.1l.1 1.6-2.4 3.1-547 677.2-2.5 3M673.9 899.5c.7-.8.8-1 1.8-1.6 3.5-2.2 7.6-.7 11.2.2l42.1 11.3 3.7 1 1.7.6c3.3 1.3 5.9 3.8 7.6 6.8M1082.1 582.5l2.4-3 210.2-260.2 2.4-3.1c1.7-2.2 1.2-5.5 1.2-8v-72.60000000000001M784 924.3v-5.5c0-4.2-.8-2.9.4-4.5M788.5 911.2c0-1.1.3-2.3.9-3.3.4-.7 1-1.3 1.6-.5M788.6 916.3c.3.7.9.6 1.3-.1.5-.8.8-1.8.7-2.8M789.6 917.6l-.9.5-.6-.7M787.5 901.2c1.4-.3 1.4-2.5 1.4-3.7v-3.2c0-3.4-.7-2.3.4-3.7M785.9 894.7v7M784.5 905.2c.8-.6 1-2 1-2.9v-3.8c0-3.5-.7-2.4.4-3.8M794 884.8l-.1.1-.2 3.9-.2 2.5-.3 4M795.2 900.8c-1.3 1.6-.6.5-1.7 3.9l-1 3.1M789.9 911.6c1 .1 1.1.7 1.1 1.6M788.9 910.2c0 .7 0 1.2.7 1.4M792.5 904.2c-1.2 1.5-.4.3-.4 4.5v5.6M784.4 918.2l2.6-3.2v-4l.3-.5M790.1 900.5l.7-3.9.9-5.9c.6-4.2-.3-2.9 1-4.5M789.3 897.6v-7M796 890.1l.8-3.8.5-2.8.8-3.8M799.6 887.4l.2-3.9.1-2.5.3-4h.1M802.3 882.3l.7-3.9.6-2.6.8-3.8v-.1M812.2 862.2l-.4.6v7.5M807.6 873.4c-2.1 2.6-1.9 1.4-1.9 3.4M813.9 864.3c1-1.4 2.7-3.1 2.1-5M813.4 870.2v-9.5l1-1.3M1072.5 564.6c-.5 2.3-.7 4.8 0 7.1M1284.3 265.3c-2.8 3.5-4.2 8.2-4.6 12.7-.1 1.9-.1 3.8.9 5.5M800.5 879.5l-.5 7.4-.4.5M793.2 895.3l.6-.6.4-7.5M792.7 886.1l-.6 3.8-.9 6c-.7 4.2.2 2.9-1.1 4.5M789.6 917.6c1-1.4 1.4-2.8 1.4-4.4M785.9 901.7c0 1.2-.1 2.3-.6 3.4-.2.6-.7 1.2-1.3 1.4l-.3-.1M789.3 907.9c.6.1 1 .1 1.3.6M788.9 910.2c.2-.6.4-2.1 1.3-2.1M787 902.3c.7.3 1.1-.3 1.5-.8.7-1.1.8-2.5.9-3.8M797.9 882.6l-.7 3.9-.3 1.4-.8 3.9-.1.1M798.4 889l.4-.6-.3-3.9-.1-1-.3-3.8M808.4 868.4l.4.1 1.7 1.7 1.5 1.7M808.4 876.5l.4-.5v-7.5M813.9 864.3v-3.2s1.1-1.5 1.6-1.8h.5M814.8 864.2c1-1.2 1.6-2.6 1.7-4.2.1-.7.2-1.5-.4-2l-.5.2M812 871.9l.2-.1v-9.6M814.3 864.9l-.4.4v4.4l-.5.5M807.6 873.4c0 2 .2.7-1.9 3.4M802.2 884.1l.2-.2.7-3.7.3-1.5.7-3.8M792.1 908.4c2 1.6.9 1 3.3 1.7M792.5 909v2.3c0 2.6.5 1.7-.4 2.9M790.6 913.4c-.3-1-1.2-.5-1.8-1l-.3-1.1M789.3 912.5c0-.5-.1-.9-.5-1.2M784.5 905.2h-.6M787 916l-2.6 3.1v4.7l-.4.5M794.8 910.8l-2.3-1.8h-.4M1280.6 283.5l.5.4c1.3.7 2.6-1 3.3-1.9l.7-1.1c2.1-3.6 3.3-8 3.3-12.1 0-1.7-.1-4.2-2-4.6-.9.2-1.3.5-2 1.1M1079.8 554c-.3-.5-.6-.5-1.1-.7-.8.1-.4 0-1.1.4M186 798.1l2.1-2.6M276.3 807.4l-9.9 12.4M265.5 763.9l-12.4 15.2M210.5 773.8l7.7-9.5M277.5 809.8c-1.3-1.9-1.5-3.8-2.1-6.2l-9-36-.9-3.8-.6-2.1c-4.1-12.5-15.8-22.6-28.5-25.5-2.1-.5-4.2-.8-6.4-.9-5.2.1-10.4 1.1-14.6 4.5-2 1.7-3.5 3.6-5 5.6l-7.5 9.2c-1.6 2-3.2 3.9-4.4 6.1-1.1 2.2-1.7 4.7-2.4 7.1l-7.7 26.9-1.1 3.8M263 818.8l-1-3.8-8-32.1c-.9-3.4-1.6-6.7-3.2-9.9-4.5-9.2-12.8-16.6-22.4-20.1-3.5-1.3-7.2-2-10.9-2.1-4.6 0-9.1.8-13.1 3.4-1.5 1-2.7 2.3-4 3.6"/>
    <path class="st1"
        d="M211.7 769.1c-.5 1-.6 1.1-.8 2.2-.9 3.6.2 7.4 2.1 10.5 3.7 5.8 10.8 10.3 17.7 9.5 1.3-.1 2.5-.4 3.7-1 .7-.3 1.4-.8 2-1.3 4.7-3.9 3.7-10.8.9-15.4-1.4-2.2-3.2-4.2-5.3-5.7-3.3-2.4-7-3.8-11.1-3.9-3 .1-5.8.8-7.9 3.1-.7.8-.8 1.1-1.3 2zM224.3 764.3c2.6 5.7 8 10.1 14.1 11.4M1252.7 1129.1h-.2M1277.1 1098.9v-22.3M1273.8 1075.9v-8.3M1264.9 1065.2l8.9 2.4M1274.6 1074.8l-.8 1.1M1247.2 1087.3l8.8 2.4M1281.5 1093.5l-4.4 5.4M1281.2 1144.6h.2M1277.1 1149.9l4.3-5.3M1239.6 1183.1l8.8 2.4M1252.5 1180.1h.2M1248.4 1159.3l4.3-5.3M1248.4 1159.3l-8.8-2.4M1239.6 1132l8.8 2.4M1281.2 1093.5h.3M1255.2 1099l-.3-.1M1255.8 1097.8l.2.1M1264.1 1151.3l4.3 1.2M1248.4 1159.3v-24.9l4.3-5.3v-22.299999999999997l1.2-3.7.1-.4 1.2-3.7.8-1.1v-8.2l2.5-3.1 12.8-16 2.5-3M1274.5 1074.8h.1l2.5 1.8M1247.2 1087.5v-.2l2.4-3.1 12.9-16 2.4-3M1281.5 1093.5v24.900000000000002l-4.4 5.3v26.2M1239.8 1182.8c-.4.5-.2.2-.1 1.3 0 1.2.3 2.7 1.2 3.5l.5.3 3.7 1 1.4.3 3.8 1c.5.2.9.1 1.4-.1 1.7-.9 3.3-3.4 4.2-4.6l18.2-22.5c1.2-1.5 2.6-3.1 3.7-4.7 2.4-4.2 3.5-9 3.8-13.7M1250.2 1190.3c-1.3-.8-1.6-2.4-1.7-3.8v-1l4.3-5.3v-26.099999999999998M1239.8 1131.8l-.2.2v24.9"/>
    <path class="st1"
        d="M1261.5 1161c0-1.7.3-3.3.7-4.9.4-1.4.9-2.6 1.4-3.8l.5-.9.4-.7c.7-.8 2.2-2.7 3.2-1.3l.3.4.3 1.2.1 1.5c0 3.3-1 6.7-2.5 9.5-.6 1.1-1.4 2.3-2.6 2.6-1.8-.1-1.8-2.4-1.8-3.6zM1281.2 1118.7l.3.1M1239.8 1157l-.2.3M1248.4 1159.6l-8.8-2.3v-25.5M1248.4 1134.2l-8.8-2.4M1229.5 1082.7l26.3 7.1M1227 1085.8l26.4 7.1M1277.3 1072.8l-1.1-.3M1274 1067.3l-26.4-7M1240.9 1054.8l-47.6-12.9M1243.8 1053l-51.1-13.8M1276.5 1064.3l-26.4-7.1M1259.9 1071.5l-12.3-3.3M101.6 799.9l1146.8 308.7M135.4 788.2l-26.4-7.1M106.5 784.2l26.4 7M165.2 765.1l29.4 8M153.5 765.7l-26.3-7M129.6 755.5l26.4 7.1M135.8 768.9l12.6 3.4M1217.8 1083.3l-1075.7-289.6M135.4 788.4v-.2M110.4 827.7l-8.8-2.3M110.4 853.2v-25.5M101.6 850.9l8.8 2.3M1248.4 1185.1l-1146.8-308.8M1252.3 1154.5h.2M648.8 1021.3l-9.6-2.6M640 1017.8l-.8.9M639.2 947v71.7M648.8 949.6l-9.6-2.6M648.8 1021.3v-71.7M710.7 1034l-9.5-2.6M701.9 1030.5l-.7.9M701.2 967.7v63.7M710.7 970.3l-9.5-2.6M710.7 1034v-63.7M1115.6 1018.4l-843.2-227M1114.9 1020.8l-841.8-226.7M269 820.5l-88.5-23.9M185.8 798l2.5-3.2M180.5 796.6l11.4-14.1M282.2 804.1l-13.2 16.4M275 802.1l7.2 2M1189.3 1068.2l-88.5-23.9M1106.1 1045.8l2.5-3.1M1100.8 1044.3l11.4-14.1M1202.5 1051.8l-13.2 16.4M1195.3 1049.9l7.2 1.9M1277.3 1149.4v-25.599999999999998l4.2-5M1277.3 1149.4l4.2-5.1v-25.499999999999996M1248.4 1134.2l4.1-5.1v-21.599999999999998c0-1.7-.5-4.8.9-6.5l2.4-3v-8M1248.4 1134.2v-27.099999999999998c.3-3.5 1.2-7 2.7-10.3 1.2-2.6 2.9-4.6 4.7-6.9M1222 1101.5c.2-4.6 1.2-9.3 3.4-13.3 1-2 2.6-3.7 4.1-5.5M1212.9 1099.1c.1-5.1 1.4-10.4 4.1-14.7l.8-1 2.4-3.1 18.2-22.5c1-1.1 2.4-3.5 4-4.5.4-.2 1-.5 1.4-.3M1247.6 1068.2v-7.9l1.3-1.6c.7-1 1.6-2.2 2.7-3 0 0 .9-.5 1.4-.3l3.8 1.1 18.8 5c.6.2 4 .5 4.9 1.8.9 1.3 1 3 1 4.5v25.499999999999996l-4.2 5.1M1274 1075.3l1.2-1.5 1.3-1.5.2-.2.6.4v25.8M1279.4 1062.5c-2 .1-3.1 1.9-4.2 3.4l-1.3 1.4v8M101.6 825.4v-27.199999999999996c.3-3.5 1.2-7 2.6-10.2 1.2-2.6 3-4.7 4.8-6.9M137.1 809.4c.2-5 1.4-10.3 4.2-14.6l.8-1.1 2.4-3.1 18.2-22.5 2.5-3.1c.5-.7 1.3-1.5 2.2-1.8h.7l3.8 1 19.6 5.3 3.8 1M159 760.9c-2.1.1-3.1 1.9-4.2 3.3l-1.3 1.5v.3M127.2 758.8v-.2l1.2-1.6c.8-1 1.7-2.2 2.8-3 0 0 .9-.4 1.4-.3l3.7 1 18.9 5.1 3.7 1M127.9 807c.2-4.6 1.2-9.3 3.5-13.3 1-2.1 2.5-3.7 4-5.5M101.8 850.6l-.2.3v25.4M1252.5 1154.5v25.499999999999996l-4.1 5.1M1252.5 1154.5l-4.1 5.1v25.499999999999996M128.1 883.5l.1 1.4.2 1.3.3 1c.9 2.1 3.4 2.1 5.3 2.6l1086.2 292.4 3.8 1c.5.1 1.3-.3 1.3-.3 1.2-.7 2.1-2.1 3-3.2M1223.9 1183.2c-2-.8-2-3.3-2.1-5.2M136.9 809.2l-8.8-2.3M156.1 762.7l8.9 2.3M133 791.3l8.9 2.4M168.1 763.3c-3.1-.8-6.1-1.7-9.1-2.4-1.3 0-2.1.8-2.8 1.8l-2.4 3-18.2 22.5c-1.3 1.5-2.6 3.1-3.7 4.8-2.4 4.1-3.6 9.1-3.8 13.9M136.9 809.2c.2-4.7 1.4-9.7 3.8-13.8 1-1.7 2.4-3.2 3.6-4.8l18.2-22.6 2.5-3.1c.7-.9 1.7-2 3-1.7M168.2 763.3h.3M110.4 853v-24.9M101.6 825.7l8.8 2.4M110.4 853l-8.8-2.4M101.6 876.7l8.8 2.4M136.2 769.1l-.4.4M135.8 761.2v8.3M139.1 783.8v-13.6M138.2 769.6l.9.6M127 758.8l8.8 2.4M118 783.3l-8.8-2.4M101.6 850.6v-24.9l.2-.3M110.6 878.8c-.4.5-.3.2-.1 1.3.1 1.3.4 3.8 2.1 3.9 1.1 0 2.1-1 2.7-1.8l1.4-1.7M112.1 883.9l-3.8-1-1.3-.4c-1.9-.5-4.1-.4-4.9-2.3l-.3-.7-.2-.8c-.1-.7-.4-1.8 0-2.3M118 783.5v-.2l2.5-3.1 12.8-16 2.5-3M109.2 781.1v-.2l2.4-3 12.9-16 2.5-3.1M747 839.1l-26.5-7.2M758.4 818.4l8.5 2.2M777.7 838.7l-.5-3.8-3.6-24.2-.6-3.8c-.4-2.9-1.3-6.9-4.1-8.3l-.8-.3-3.8-1-19-5.1-3.8-1h-.8c-2.3.2-4.1 1.4-5.7 3.1-2 2.1-3.6 4.5-5.1 7-4.5 8-7.3 17.1-8.8 26.2l-1.1 8.4-4.1 38.7-.4 3.9"/>
    <path class="st1"
        d="M754.4 843.4l.9.9c1.7 1.3 3.8-.8 4.8-2.1l.7-.8.6-1.1c1.8-2.8 3.1-6.1 4-9.4.9-3.3 1.5-6.7 1.5-10.2l-.1-1.3c-.1-2.1-.4-5.5-3-6-1.3.1-2.3.8-3.1 1.8-1.4 1.4-2.4 3.2-3.3 5-2.4 4.9-3.8 10.5-4.1 16-.1 2.4 0 5 1.1 7.2zM768.2 798.3h-.8c-2.4.2-4.2 1.4-5.8 3.1-2 2-3.6 4.5-5 7-4.5 8-7.4 17.1-8.9 26.2-.5 2.8-.7 5.6-1 8.4l-3.8 35.8-.5 3.9M1203.4 274.1l-26.5-7.2M1214.8 253.3l8.5 2.2M1234.2 273.6l-.6-3.8-3.5-24.2-.5-3.8c-.5-2.8-1.3-6.9-4.2-8.2l-.7-.3-3.8-1-19-5.1-3.7-1-.9-.1c-2.3.2-4.1 1.5-5.7 3.1-2 2.1-3.6 4.5-5.1 7-4.5 8-7.3 17.1-8.9 26.1-.4 2.8-.7 5.6-1 8.4l-4.1 38.7-.5 3.9"/>
    <path class="st1"
        d="M1210.8 278.3l.8.9c1.8 1.2 3.8-.9 4.9-2.1l.7-.9.7-1c1.8-2.8 3-6.2 3.9-9.4.9-3.3 1.5-6.9 1.5-10.3l-.1-1.2c0-2.1-.4-5.4-2.9-5.9-1.3.1-2.3.7-3.1 1.7-1.4 1.5-2.4 3.2-3.4 5-2.3 4.9-3.8 10.5-4.1 16-.1 2.4 0 5 1.1 7.2zM1224.6 233.3l-.9-.1c-2.3.2-4.1 1.5-5.8 3.1-2 2-3.6 4.5-5 7-4.5 8-7.4 17.1-8.8 26.1-.5 2.8-.8 5.6-1.1 8.4l-3.8 35.7-.4 4M1106.3 1045.9l2.1-2.7M1196.6 1055.2l-9.9 12.3M1185.8 1011.6l-12.4 15.3M1130.8 1021.6l7.8-9.5M1197.9 1057.5c-1.4-1.9-1.5-3.8-2.1-6.1l-9-36.1-.9-3.8-.6-2.1c-4.1-12.5-15.7-22.6-28.5-25.5-2.2-.5-4.2-.7-6.5-.9-5.2.1-10.3 1.1-14.5 4.5-2 1.5-3.5 3.6-5.1 5.6l-7.4 9.1c-1.6 2-3.3 3.8-4.5 6.1-1.1 2.2-1.7 4.7-2.4 7.1l-7.8 26.8-1.1 3.8M1183.4 1066.6l-1-3.8-8-32c-.9-3.5-1.6-6.8-3.1-10-4.5-9.2-12.9-16.6-22.5-20.1-3.5-1.3-7.1-2-10.8-2.2-4.6 0-9.1.8-13.1 3.5-1.5 1-2.8 2.2-4 3.5"/>
    <path class="st1"
        d="M1132 1016.8c-.4 1-.6 1.3-.8 2.3-.8 3.6.3 7.4 2.2 10.5 3.7 5.8 10.7 10.3 17.7 9.5 1.3-.1 2.5-.5 3.7-1 .7-.3 1.4-.7 2.1-1.3 4.7-3.8 3.8-10.8.8-15.5-1.4-2.2-3.1-4.1-5.3-5.6-3.2-2.5-7-3.8-11.1-3.9-3 .1-5.9.9-7.9 3.1-.8.7-.9 1-1.4 1.9zM1144.6 1012.1c2.6 5.7 7.9 10 14.1 11.4M1213 1098.9l8.9 2.4M1250 1057.2l-8.9-2.4M1226.8 1085.7l-8.9-2.3M1250.7 1082.9v-13.8M1253 1055.4h-.3c-1.2.1-2 .8-2.8 1.7l-2.5 3.1-18.2 22.5c-1.3 1.5-2.6 3-3.6 4.8-2.4 4.1-3.6 9-3.8 13.8M1213 1098.9c.2-4.8 1.4-9.7 3.8-13.8 1-1.7 2.4-3.3 3.7-4.8l18.2-22.5 2.4-3.1c.3-.4.7-.8 1.1-1.1 1.7-1.4 4.1 0 5.9.5l1.1.3 3.8 1M1253.2 1055.5l.1-.2M1044 754.2l-26.6-7.1M1049.4 744.4l4.1 1.1M1055.1 743.4l-5.7-1.5M1058.1 707.8l-4.9-1.2"/>
    <path class="st1"
        d="M1055.1 743.4c-.9 1.1-2.1 3.2-3.8 3.6-1.9-.2-1.9-2.9-1.9-4.3v-1l.1-.9c.3-3.9 1.5-8.1 4-11.3l1.7-2 .4-.5 1-.7.4-.3c1.9-.6 2.3 2.2 2.3 3.4l.1.8v1l-.1.9c-.2 1.4-.4 2.8-.8 4.2-.9 2.5-1.8 5-3.4 7.1zM1064.1 604.9v3.9l.5 115.7c0 2.3 0 4.5-.1 6.9-.6 6.3-2.4 13-5.8 18.5-1.1 1.8-2.6 3.4-3.9 5.1l-.9 1.2-2.5 3c-1 1.4-2.3 2.6-4.1 2.8l-.6-.1-3.7-1-19.1-5.1-3.8-1-.5-.2c-.7-.4-1-1.1-1.3-1.8-.7-1.7-.9-3.8-.9-5.6l-.1-3.9-.3-76.1v-3.9M1043.5 630.4v4l.4 115.9.1 3.9c0 2.5.1 6.3 2.7 7.6"/>
    <path class="st1"
        d="M1050.9 721l.6.6c1.2.7 2.3-.9 2.9-1.7l.5-.6.4-.7c1.7-3.2 2.8-7.1 2.8-10.8 0-1.4-.1-3.5-1.6-4-2 0-3.2 2.5-3.9 3.9-1.3 2.8-2.1 5.9-2.3 9-.2 1.5-.1 3 .6 4.3zM1089.3 532.3l-15.4 24.3M1080.6 536.8v7.8M1075.9 576.6l-.1-.2M1076.1 577l-.3-.4M1076.3 577.3l-.2-.3M1077.6 577l-.5.3M1075.5 575.9l.4.7M1076.7 577.5l-.4-.2M1076.9 577.5l-.4-.1M1076.9 577.4h-.2M1077.2 577.3l-.3.1M1079.8 558v-7.8M1080.6 548.9v7M1082.1 557.8v-11.3M1085.3 552.1h-.2M1085.3 552.1l-.4.2M1084.8 552.5l.1.4M1073 556.8l-.3.4M1074.9 558l-.1.7v9.6c0 1.8 1 4.2-1.1 4.5-2.3-.1-1.1-2.9-1.1-4.6v-5.8c0-1.8-.3-3.5.3-5.2M1078.3 578.7l-.4.1c-2.3-.3-2.9-3.3-3.1-5.2l-.1-1.3v-13.6M1078.4 573.2l-.1.1v20.9l.1.1c.3.6 1.2.6 1.7.4l.5-.4v-16.9l-.1-8.1c.2-2.7.5-5.3 1-7.9.6-2.9 1.4-5.9 2.8-8.5l.5-.7.4-.6.4-.3c1-.7 1.5.9 1.7 1.6v.9c.1.8.1 1.7 0 2.5M1087.3 556.4v-.3l.1-1c0-1.8-.1-5-2.4-5.3-.8 0-1.5.4-2 1M1078.3 573.1c-.4-6.6.7-13.6 3.2-19.7M1082.1 552.2c.3-.6.6-1 1-1.5M1080.7 595.2v-21.9c0-1.4-.1-2.8-.1-4.1M1075.5 576.1l-.4-1.9M1072.5 572.3c.1 1.7.4 3.2.9 4.7M1080.7 573.4c-.2.4-.7.6-1.1.7 0 0-1.1-.1-1.2-.6v-1.1M1078.3 594.2c0 .7 0 1.4.1 2.2 0 .4 0 1 .3 1.4.5.8 1.6.8 2.1.1.7-1.1.7-2.9.9-4.2.7-6.2.4-12.4.4-18.5M1073.5 577.1c.7 1.4 2.1 3.1 3.9 2.5l.9-.3M1080.9 586.4c0 1.7 0 3.2-.2 4.9M1079.4 594.9c0 1-.2 2.7.3 3.6M1080.9 597l-.1-.3M1080.8 596.8c-.1-.8-.1-1.7-.1-2.6M1080.7 586.4c.5.1 1.4 0 1.4-.7M1077.5 577.1l.8-.7M1074.7 558.8s-.6.4-1.1.5c-.5-.1-1.1-.1-1.1-.8M1079.8 545.8v-9.7c.3-.7 1.7-.7 2.1-.1l.1.3v5.9M1074.9 558.1l.3-.5 2.1-3.3 11.1-17.7c1.4-2.2 3.2-2.7 1.6-3.8l-.4-.2-1-.5-2.2 3.4-11.1 17.6-2.1 3.4M1075.1 557.6l-.4-.4c-.3-.3-1-.7-1.5-.8h-.1M1072.9 559.1c.1-1 .3-1.7.8-2.6M1085.1 552.2c-.5.5-.3.3-.7.8M1085.1 555.9c0-1 0-2-.2-3M1079.8 536.2c.2.9 2.2.9 2.3-.1M1078.3 574.2l-3.4-.9M1077.5 553.8l2.3.7M1080.6 570.9l1.1-.3M1078.3 570.3l-3.6-.9M1079.8 556c-1.1.4-.9 1.6.1 2M1083.3 555.4l3.7 1 .4.1c.8.5 1.3 1.7 1.5 2.5.4 1.1.4 2.4.3 3.5-.1 1.9-.6 3.9-1.2 5.7-.5 1.6-1.3 3.3-2.3 4.7-.6.8-1.4 1.6-2.4 1.6-1.5-.4-1.5-2.6-1.5-3.9 0-3.6 1-7.6 2.9-10.7l.5-.7s1.7-2.2 2.8-1.5l.6.7M1080.7 567.3c.6-2.9 1.4-5.7 3-8.3.7-1.2 1.7-2.6 3.2-2.7M1082.9 556.6l-.4.9M1080.7 574.9l1.4.4c.7.1 1.5-.7 2-1M1080.7 573.3c.2 1 .6 1.6 1.4 2"/>
    <defs>
        <path id="SVGID_1_" d="M100 1191.9z"/>
    </defs>
    <clipPath id="SVGID_2_">
        <use xlink:href="#SVGID_1_" overflow="visible"/>
    </clipPath>
    <path class="st3" d="M100 1191.9l15.4-15.4"/>
    <path class="st0" d="M100 1191.9z"/>
</svg>
