<?xml version="1.0" encoding="utf-8"?>
<!-- Generator: Adobe Illustrator 21.1.0, SVG Export Plug-In . SVG Version: 6.00 Build 0)  -->
<svg version="1.1" id="Ebene_1" xmlns="http://www.w3.org/2000/svg" xmlns:xlink="http://www.w3.org/1999/xlink" x="0px" y="0px"
	 viewBox="0 0 1400 1400" style="enable-background:new 0 0 1400 1400;" xml:space="preserve">
<style type="text/css">
	.st0{fill:none;}
	.st1{fill:none;stroke:#000000;stroke-linecap:round;stroke-width:4;}
	.st2{fill:none;stroke:#FFFFFF;stroke-miterlimit:10;}
</style>
<path class="st0" d="M1300,192.9H100v1014.3h1200V192.9L1300,192.9z"/>
<path class="st1" d="M740.4,1153.2l-18.3,22.6 M1297.9,519.8l-527.2,652.7 M659.7,347.9l-527.1,652.7 M150.8,1022l527.1-652.7
	 M1161.9,551.4c1.5-1.7,2.3-2.7,4.1-4.1l1.9-1.3l1.9-0.7c5.9-1.3,7.9,6.2,8.5,10.5l0.5,3.5l0.1,3.7l-0.1,4.1
	c-0.7,12.5-3.9,24.9-9,36.2c-2.9,6.7-6.6,13-12,17.8 M819.7,1040.5c-2.4,2.1-4.4,3.5-7.6,3.8c-7-2-7.3-11.9-7.3-17.9l0.1-4.1
	c0.9-15.1,5.2-30.8,12.8-43.9c3-5.1,7.3-11.7,13.9-12.2 M1143.9,494.8l-12.9-3.5L690.8,372.9c-5.3-1.4-12.8-2.7-18.1-5.5
	c-6.3-3.5-11.7-9.6-12.9-16.9l-0.2-2.4V233.2c-0.1-7.5-0.5-15.7-3.8-22.7c-1.3-2.6-3-5.1-5.5-6.4c-6.1-3-13.3-3.7-19.8-5.4l-13-3.5
	l-2.4-0.1c-10.3,2.6-16.5,13-22.7,20.7L138.8,777.4c-6.3,7.8-12.5,15.1-17.2,24c-10.4,19.6-16.8,41.9-19,64
	c-0.8,8.5-0.6,17-0.6,25.6v88.1c0,7.8-0.6,15.9,1.3,23.6c4,16.9,16.5,31.2,31.2,39.9c9.1,5.4,19,7.5,29.1,10.3L709,1199.7
	c12.8,3.5,25.6,7.7,38.8,3.8c11.1-3.4,16.6-11.4,23.7-20.1l510.3-631.9l8.3-10.4l2.7-3.6c3.3-5.4,4.7-11.6,4.8-17.8v-115l-0.2-5.6
	c-0.4-5.7-1.1-11.8-3.6-17.2c-1.3-2.5-3-5.1-5.7-6.3c-1.9-1-2.6-0.8-4.7-0.8c-10.3,2.5-16.5,13-22.7,20.6L807.1,957.1
	c-6.3,7.9-12.4,15.1-17.2,24c-10.5,19.6-16.8,42-19,64.1c-0.8,8.5-0.6,17-0.6,25.6v88.1c0,9.1,1,18.7-2.8,27.3
	c-1.5,3.7-2.3,4.4-4.6,7.5 M648.1,203.2h-2.4c-10.3,2.6-16.5,13-22.7,20.6L169.4,785.4c-4.9,6.1-10.2,12.1-14.3,19
	c-12.5,20.5-19.5,45.3-21.8,69c-0.8,8.6-0.6,17.1-0.6,25.7v101.5l0.2,2.5c1,6.3,5.3,11.8,10.4,15.3c6,4.1,13.9,5.3,20.6,7
	l545.4,146.8c7.9,2.2,21,8.2,28.2,0.1c1-1.1,1.7-2.3,2.2-3.6c0.5-1.4,0.8-2.9,0.8-4.4v-101.6c0-8.6-0.2-17,0.6-25.6
	c2.1-22,8.4-44.5,18.9-64c4.8-8.9,10.9-16.2,17.2-24l453.6-561.6l8.3-10.5c3.6-4.3,10.1-11.7,16.8-10.1l12.9,3.4l4.5,1.2l12.9,3.6
	 M785.5,938.7l-15.9-4.2c-3.8,0.6-7.5,1-11.3,1.2c-5-0.1-9.8-0.7-14.7-1.8 M772,898.8c4.2,1.4,8.2,2.7,11.9,5.4
	c1.5,1,2.9,2.3,4.1,3.6l1.5,2.1l15.9,4.2 M181.5,868.7c-2.4,2.1-4.4,3.6-7.6,3.8c-7-1.9-7.3-11.9-7.3-17.8l0.1-4.1
	c0.8-15,5.1-30.9,12.8-43.9c2.9-5.2,7.2-11.9,13.8-12.3 M904.7,935.2c-2.4,2.1-4.4,3.5-7.6,3.8c-6.9-2-7.3-11.9-7.3-17.9l0.1-4.1
	c0.5-9.4,2.6-18.7,5.5-27.5c3-9,7-17.6,13.5-24.7 M989.7,830c-2.4,2.1-4.4,3.5-7.6,3.8c-7-2-7.3-11.9-7.3-17.9v-4.1
	c0.6-9.4,2.6-18.7,5.5-27.5c3-9,7.1-17.6,13.5-24.9 M1074.7,724.7c-2.5,2.1-4.4,3.6-7.6,3.8c-7-2-7.3-11.9-7.3-17.9
	c-0.1-18.6,5.9-39,17-54 M1161.9,551.4c-11.1,15-17.1,35.5-17.1,54.1l0.2,3.8l0.4,3.4c0.7,4.3,2.7,11.7,8.6,10.5
	c1.6-0.4,2.3-1,3.8-2 M1246.8,446.1c-11.1,15-17,35.3-17,54.1c0,5.9,0.4,15.9,7.3,17.8 M1248.9,443.7c1.5-1.3,2.3-2,4-3l1.9-0.7
	c5.8-1.3,7.9,6.2,8.5,10.5l0.4,3.5l0.1,3.7 M266.5,763.4c-2.4,2.1-4.4,3.6-7.7,3.8c-7-1.9-7.2-11.9-7.2-17.8v-4.1
	c0.7-9.3,2.6-18.7,5.5-27.5c3.1-9,7.2-17.7,13.5-24.8 M351.5,658.2c-2.4,2.1-4.3,3.5-7.6,3.7c-7-1.9-7.3-11.9-7.3-17.8l0.2-4.1
	c0.5-9.2,2.5-18.5,5.5-27.4c3-9.1,7-17.6,13.5-24.8 M438.7,484.8c-11.1,15.1-17.2,35.5-17.1,54.1l0.2,3.8l0.4,3.3
	c0.7,4.3,2.7,11.9,8.6,10.6l1.8-0.8c0,0,2.4-1.6,4-3 M523.6,379.6c-11.1,15-17,35.4-17,54l0.2,3.8l0.3,3.3
	c0.7,4.3,2.7,11.9,8.6,10.5c1.7-0.4,2.4-1,3.8-1.9 M599,346.1c-7-1.9-7.3-11.9-7.3-17.8c-0.1-18.6,5.9-39,17-54 M612.8,270.1
	c1.5-0.8,2.1-1.5,3.8-1.8c5.8-1.4,7.9,6.1,8.6,10.3l0.4,3.5l0.2,3.8 M772,898.8c-4.1-0.9-8.1-1.5-12.3-1.7c-10.1,0-21,1.4-29.2,8
	c-1.4,1.2-2.9,2.6-3.9,4.2c-5.3,7.8-0.3,16,6.9,20.3c3.2,2,6.6,3.2,10.2,4.2 M734.2,929.9c12.3-6.7,28-7.5,41.1-2.7
	c4.6,1.6,9.8,4.2,12.8,8.2 M181.5,868.7c6.4-7.2,10.4-15.9,13.5-24.9c3-8.8,5-18.1,5.5-27.4l0.1-4.2c-0.1-6-0.4-15.9-7.3-17.8
	 M266.5,763.4c6.3-7.2,10.4-15.9,13.5-24.9c2.9-8.8,4.9-18.1,5.5-27.4l0.1-4.2c0-6-0.3-15.9-7.3-17.8c-3.2,0.2-5.2,1.7-7.6,3.9
	 M351.5,658.2c6.4-7.2,10.4-15.9,13.5-24.9c3-8.9,5.1-18.2,5.5-27.4l0.1-4.1c0-6-0.3-15.9-7.3-17.8c-3.3,0.2-5.2,1.7-7.6,3.8
	 M436.6,552.8c6.3-7.1,10.3-15.7,13.4-24.7c3-8.9,5-18.2,5.5-27.5l0.1-4c0-6-0.3-15.9-7.3-17.9c-4.4,0.3-7,3.1-9.7,6.1 M519.5,449.3
	c5.5-4.8,9.2-11,12-17.8c5.1-11.3,8.3-24,9-36.5l0.1-4c0-6-0.3-15.8-7.3-17.7c-4.3,0.3-6.9,3.1-9.7,6.2 M599,346.1
	c6.5-0.4,10.7-7,13.8-12.1c8.4-14.4,12.5-31.6,13-48.2 M608.7,274.3c2.7-3,1.3-1.7,4.1-4.2 M831.5,966.3c7,1.9,7.3,11.9,7.3,17.9
	l-0.2,4.1c-0.5,9.3-2.5,18.5-5.5,27.4c-3,9.1-7.1,17.6-13.4,24.9 M908.9,864.9c1.5-1.4,2.1-2.2,3.9-3l1.9-0.7
	c5.8-1.3,7.9,6.3,8.6,10.5l0.4,3.5l0.2,3.7l-0.2,4.2c-0.5,9.3-2.5,18.5-5.5,27.4c-3,9-7,17.6-13.4,24.9 M993.9,759.5
	c1.5-1.3,2.1-2.1,4-2.9l1.8-0.7c5.9-1.3,8,6.3,8.6,10.5l0.4,3.5l0.2,3.8l-0.2,4.1c-0.4,9.3-2.5,18.5-5.5,27.4
	c-3,9-7.1,17.6-13.4,24.9 M1076.8,656.6c1.5-1.7,2.3-2.7,4.1-4.1l2-1.3l1.8-0.7c5.8-1.3,7.9,6.2,8.6,10.5l0.4,3.5l0.2,3.8l-0.2,4.1
	c-0.5,9.4-2.5,18.6-5.5,27.5c-3,9-7.1,17.6-13.4,24.9 M1263.8,457.7c-0.4,16.6-4.5,33.7-12.8,48c-3,5.1-7.3,11.9-13.8,12.2 M458,857
	c5.1,1.1,10,1.7,15.3,1.7c9.3-0.4,19.1-2.1,26.4-8.3c1.4-1.1,2.7-2.4,3.7-4c5.5-8-0.1-16.4-7.5-20.7c-3-1.8-6.3-2.9-9.7-3.9
	 M458,857c-4.2-1.4-8.2-2.9-11.9-5.4c-1.5-1.1-2.9-2.3-4.1-3.6l-1.4-2.1l-12.9-3.5l-31.4-8.5c-5.1-1.4-12.5-2.7-17.9-5.3
	c-5.8-2.7-11.3-8.9-7-15.3c0.8-1.2,1.7-2.1,2.7-2.9c5.7-4.7,13.4-5.7,20.4-5.7c7.6,0.5,14.1,2.7,21.5,4.8l31.4,8.5l13,3.4
	c3.7-0.6,7.3-1,11.2-1.1c5,0,9.7,0.6,14.7,1.7 M442,847.9c12.3-6.8,28.1-7.6,41.2-2.9c4.6,1.6,9.8,4.2,12.7,8.2"/>
<path class="st2" d="M100,1207.1l21-21"/>
<path class="st0" d="M100,1207.1"/>
</svg>
