<svg xmlns="http://www.w3.org/2000/svg" xmlns:xlink="http://www.w3.org/1999/xlink"
    viewBox="0 0 1200 1200" enable-background="new 0 0 1200 1200">
    <style type="text/css">.st0{fill:none;} .st1{fill:none;stroke:#000000;stroke-linecap:round;stroke-width:2;} .st2{clip-path:url(#SVGID_2_);} .st3{fill:none;stroke:#FFFFFF;stroke-miterlimit:10;}</style>
    <path class="st0" d="M1107.2 0h-1014.4v1200h1014.5v-1200h-.1z"/>
    <path class="st1"
        d="M930.5 612.3l1.5 2.7M930.7 612.5l1.3 2.5M909.4 603.1l9.6 3.7 9.7 3.8c.5.2 1.1.7 1.5 1.2 1.2 1.8 1.2 4.1 1.1 6.2-.1 5-1.2 10-2.3 14.8-4.5 19.2-11.4 37.8-19.4 55.7-4.4 9.8-9.2 19.8-15.3 28.7-2 2.9-4.7 7.4-8.8 7.6l-1.1-.3-9.5-3.7-9.6-3.7M928.7 610.6c2.3 2 1.8 5.9 1.6 8.6-.5 6.9-2.2 13.5-4 20.1-5.9 21.7-14.2 43.2-24.6 63.3-2.6 5-5.3 10-8.5 14.6-2 2.8-4.3 6.2-7.7 7.5l-1.1-.1M905.1 716.5c-6.1 3.5-12.1 6.2-18.8 8.2M904.1 698l1 .2c8-.4 16.4-1.5 23-6.4 2-1.5 3.6-3.4 4.9-5.4 2.9-4.4 4.5-9.8 5.8-14.7 5.3-19.5 2.3-39.9-7.3-57.5M933.9 684.6c-2.4 4.4-4.8 8.8-7.9 12.8-4.3 5.7-15.4 14.6-21 19M415.3 739.8c-6.5-1.5-12.9-3.4-19.3-5.2l-11.9-3.2-1-.5c-3.9-2.2-3.6-9.5-3.4-13.2.7-13 6.1-24.2 11.5-35.9l71.9-153.9c19.2-40.9 35.5-82.9 47.9-126.4M823.6 261.4l-2.8-.7c-11.4 0-19.4 11.3-24.9 20-6.6 10.3-11.6 21.6-15.8 33.2-5.3 14.9-9.1 30.4-11 46.1-1.9 14.8-.7 29.6-1.7 44.5-1.4 21-5.3 41.9-10.9 62.2-12 43.9-29.1 86.2-48.3 127.3l-72 154c-5.7 12.2-11.6 24.4-11.5 38.3 0 4.5.5 10.7 5.9 11.3M748.6 657.1c1.1-3.3 3.9-6.1 5.8-8.9l5.4-9.2c5.8-10.9 10.3-22.5 13.9-34.3 3.2-10.2 5.4-20.5 7.6-31l49.3-225.9c4.4-20.3 9.3-41.7 5.8-62.5-1.3-7.7-4-16.9-12.5-19-11.3 0-19.2 11.7-24.5 20.3-13.2 21.5-20.9 47.3-24.2 72.2-1.6 12.5-.9 24.8-1.3 37.5-.5 13-2.1 26.1-4.3 39-3.6 20.7-9.4 40.6-15.7 60.6-11.3 34.9-25.1 68.5-40.6 101.7l-72 154c-4.6 9.9-9.4 19.3-10.2 30.2-.3 3.4-.4 7.5 1.3 10.6 1.1 1.9 2.9 2.4 4.8 1.2 3.8-2.4 9.4-10.8 10.5-12.1l93.7-116 7.7-9.6M800.1 255c2.2.6 11.2 3 11.2 3l11.8 3.2"/>
    <path class="st1"
        d="M805.7 314.1l2.3-2.6c.8-.7 1.8-1.4 2.8-1.8 5.7-2.2 7.4 5.9 7.7 9.7l.1 2.7c.3 12.6-3.4 26.2-9.6 37-2.3 4-5.3 8.5-9.9 9.8-5.9-.2-6.4-8.2-6.5-12.7v-2.9c.3-8.7 2.4-17.6 5.6-25.8 1.9-4.7 4.2-9.5 7.5-13.4zM598.8 414.2l11.9 3.2 86.2 23.2 11.8 3.2c1.6.5 3.4.5 5.2.3 1.1-.1 2.2-.5 3.2-1 6.9-3.1 7.5-10.4 8.6-17l1.3-8.1c1.2-7.7 2.1-15.5 2.6-23.2.9-12.9-.1-25.9 1.1-38.8 2-22 7.5-44.5 16.6-64.6M759.8 476.4l-.7-.3M718.3 586.4l-.4-1M384.1 692.8c.6 0 1.2 0 2 .2l11.8 3.2 221.3 59.6 11.8 3.2c.8.2 1.5.5 2.2.9M635.5 761.6l.5 1M639.6 792.1c.3-.8.2-.4.3-1.2M414.3 739.5c1.5.7 4.3-1 5.9-1.1.8 0 1.6.1 2.3.3l11.9 3.2 137.8 37.1 11.8 3.2c4.7 1.3 8.5 4.9 13.1 6.5h.2l.1.1c10.2 3.3 21.3 5.7 31.7 8.5M381 729.7c.8.7 2.1 1.7 3.2 1.7M805.9 274l.1-.2M381.6 691.8l253.9 68.4M506.7 400.5c-12.4 43.5-28.9 85.4-48 126.3l-71.9 154c-3.4 7.3-7.1 14.4-9.2 22.2-1.6 6-2.7 12.7-2.2 18.9.2 2.5.7 5.9 2.7 7.5l1 .6 11.8 3.1 230.2 62 11.8 3.2 1.1.2c2.5.1 4.7-2.2 6-4l7.7-9.5 93.7-115.9c5.9-7.3 11.7-14.3 16.4-22.4 13.2-22.7 19.9-47.8 25.4-73.3l49.3-225.8c4.3-20 8.7-40.4 6.6-60.9-.8-7.7-2.5-18.4-9.4-23.2l-2.2-1.2-11.9-3.2-26-7-11.8-3.2M633 798.4c-4-2.5-3.9-8.7-3.8-12.9.5-13.3 6-24.6 11.5-36.4l72-154c15.3-32.7 28.9-65.9 40-100.3 3.8-11.5 7.4-23.2 10.3-34.9 4.4-17.8 7.6-36 8.8-54.3.6-8.7.2-17.4.3-26.2.1-8.2 1-16.4 2.3-24.6 2.5-15.6 6.6-30.9 12.4-45.6 4.3-10.9 9.4-21.6 16.2-31.2 5.5-7.8 14-18.1 24.6-15.5"/>
    <path class="st1"
        d="M793 355.4v2.7c.3 3.8 1.5 12.5 7.3 10.8l1.3-.5c1.1-.6 2-1.5 2.8-2.3 1.1-1.1 2.1-2.3 3-3.6 7.1-10.3 10.8-24 11.4-36.3l.1-2.9c0-4.5-.3-12.9-6-13.6-5.5.9-8.9 7-11.3 11.4-5.5 10.4-8.4 22.4-8.6 34.3zM726.6 422.2l-15.3-144.6M730.8 287l4.2 42M732 287.2l4 37.5M714.2 90l60.6 16.4M692.7 821v287.1c0 11.2.9 21.4-3.8 31.8-6.6 14.9-19.9 25.8-33.9 33.5-25.1 14-53.6 18.6-82 19.8-31.2-.4-63-5-90.5-21-13.2-7.7-25.6-18.3-31.8-32.5-1.8-4-3-8.1-3.5-12.4l-.3-6.3-.2-1.6M398.8 771.1c-10.7 17.8-17.2 38.2-19.2 58.8-.8 7.8-.5 15.8-.5 23.7v201.1c0 12.1-1.3 25.8 5.5 36.6 4.1 6.4 10.7 7.5 17.5 9.3l24.4 6.6c7 1.8 14.3 2.2 18.8 8.2M692.7 1120.3c-.3 7.2-.9 13.3-3.4 20.2-9.1 24.5-34.6 39.6-58 47.9-6.1 2.1-12.6 4-18.9 5.4-6.7 1.5-13.5 2.6-20.3 3.4-9.2 1.1-11.6.9-20.9 1.2-10.5-.2-20.9-.7-31.3-2.3-6.8-1-13.1-2.3-19.8-4.1-7.3-2-9.7-2.9-16.8-5.5-5.4-2-11-4.7-16-7.5-19.2-10.6-37.9-28.6-39.9-51.7M447.2 1122.6c-.6-6.4.5-12.9.8-19.3.3-7.8.2-15.7.2-23.5v-258.09999999999997M397.8 735.1c0 8.2-.5 16.5 1 24.7 1 5 2.7 10.6 4.7 15.3 13 30.1 43.9 49.2 73.3 60.5 7.1 2.7 14.4 5.1 21.7 7.1 7.7 2 15.6 3.7 23.4 5 26.5 4.5 53.7 5.2 80.4 2.2 25.7-2.9 51.2-9.2 74.8-20.3 24.2-11.5 48-29.1 59-54.3 3.5-7.8 5.4-16.2 5.7-24.7v-12.2c0-11.3.3-22.6-.3-33.8-.1-3.6-1.3-6.9-1.7-10.3M741.8 713c-.8 7.6-.6 9.4-3.1 16.8-7.6 22.8-27.2 39.8-47.5 51.5-30.1 17.2-65.4 25.6-99.7 28.1-9.2.6-18.3.7-27.5.7-9.2-.4-18.3-.8-27.5-1.8-25.5-2.9-51.1-9.2-74.4-20-18.9-8.8-37.2-20.9-49.8-37.7-4.8-6.1-5.1-7.4-8.4-13.8M624.7 796.2c-20.2 3.9-40.1 5.3-60.7 5.4-33.7-1.4-67.3-6.7-98.1-21-20.1-9.3-38.7-22.3-51.2-40.8M741.8 750.6c-.8 7.7-.6 9.4-3.1 16.8-7.6 22.9-27.2 39.9-47.5 51.6-30.1 17.3-65.4 25.6-99.7 28.1-9.2.7-18.3.7-27.5.8-42.4-1.9-85.7-9.6-121.9-32.9-18.4-11.8-35.1-28.2-41.7-49.6-1.7-5.6-1.6-7.7-2.4-13.5M400.3 735.8v29.5l.1 1.4M445.3 1115.3c1.1 2.2.7 1.2 1.4 3.1M379.1 841.2c1.5 5 9.9 5.7 13.5 6.6 4.5-6.2 8.4-12.4 10.2-19.8 1.9-7.2 1.2-14.9 1.2-22.2v-29.5M490 840.1c8.1 3.6 9.6 4.5 18.1 7.4 28 9.4 58.3 11.7 87.5 8.1 18.5-2.3 37.1-7 53.8-15.4M782.1 161.8c6.3 4.3 7.6 4.8 13.2 10.2 17 16.6 26.9 39.2 33.8 61.4 4.3 13.5 7.4 27.3 9.8 41.2 1.3 7.5 2.4 15 2.7 22.6 1.1 26.5-3.8 52.5-9.4 78.2l-46.7 214.1c-4.3 19.8-9.2 39.6-19.8 57.1-6.3 10.5-15.1 19.8-22.7 29.3l-7.7 9.6-1 1.5c-1.9 3.8.6 9.4.9 12.7 1 8.2 0 16.6-2.7 24.4-5 14.9-15.6 27.4-27.6 37.2-18.4 15-40.4 23.8-62.9 30.7M742.2 145.6c3.4 1.6 4.2 1.6 7 4.5 8.9 8.9 11 23.2 12.4 35.1l1.3 12.2 8.2 79.7 1.2 12.2c.1.9.4 2.4 1.3 2.8 1 .4 2-.6 2.6-1.3 1.5-1.8 2.3-4.2 3-6.4 1.8-6.5.3-12.7-.5-19.4l-5.7-56c-.9-8.1-2.1-15.5-.7-23.5 1.2-8 3.8-16.3 8.2-23 1.5-2.2 3.7-5.2 6.5-5.7.7-.1 1.6 0 2.2.4l7 4.8c7.4 5.7 13.7 12.8 18.9 20.5 7.6 10.9 13.2 23 17.8 35.4 7.3 19.7 12.3 40.6 15.4 61.4 4.8 32.6-1.3 65.6-8.3 97.4l-46.6 214.1c-2.4 10.9-4.7 21.8-8.3 32.4-3.9 11.8-9 23.5-16.1 33.9l-3 4-7.7 9.6-9.7 11.8c-1.5 1.9-8.2 7.9-8.8 12.6M741.8 728.6c12.6-15.6 26.4-30.6 36.3-47.9 10-17.5 16.7-36.2 23.4-55.2 9.6-27.3 18.5-54.7 26.5-82.4 13-45.9 23-92.8 29.4-140 5.4-41.4 8.2-83.1 5.7-124.8-2.2-38.2-9.5-77.1-27.5-111.3-10.4-19.7-25.4-38.6-46.8-46.9-8.2-3.2-16.2-3.9-24.9-4.2-5.7.5-9.1.3-14.1 2.1-14.6 5.2-25.8 18.9-34.4 31-13.4 18.8-22.9 39.6-32.1 60.7l-68.8 157.5c-2.6 6.1-5 13-9.1 18.6-8.3 11-21 16-34.5 16.3-7.2-.6-13.2-2.5-20.3-4.4l-165.5-44.6c-6.3-1.7-13.6-3-19.5-6.3-8.6-4.8-14.2-13.7-14.9-23.6-.3-3.2.1-4.8.5-7.9M741.8 730.7c12.4-15.4 25.9-30.3 35.9-47.5 10.4-18.2 17.4-37.8 24.3-57.5 9.5-27.1 18.5-54.3 26.4-81.9 14.2-50.1 25-101.3 31.2-153 5-42 7.3-84.7 3.7-126.8-2.1-24.7-6.8-49-14.8-72.5-4.5-13.4-10-26.3-17.2-38.5-12.6-21.3-31.7-40.8-56.6-46.5-7.5-1.8-9.4-1.5-17.2-1.8-5.4.5-9 .3-13.8 1.9-5.5 1.7-10.6 5-15.1 8.7-8.5 6.9-15.6 15.4-22 24.2-14 19.6-24 41.5-33.6 63.6l-68.9 157.6-4.9 11.3-1.6 3.1c-5.7 9.6-16 14.1-26.9 14.6-6.7-.5-12-2.3-18.8-4.1l-165.5-44.6c-9.2-2.5-19.2-3.8-25-12.2-1.2-1.7-2.1-3.5-2.7-5.5-3-9.7 2.2-18.4 6-27l68.7-157.6c12-27.4 24.7-55.3 45.1-77.6 8-8.7 18.3-18.2 30.5-19.9 6.6-.9 11-1 17.7-.4 6.8.5 13.8 2.9 20.3 4.6l13.8 3.7 11.9 3.2M474.6 271.2c17.9-9.4 30-28.5 37.5-46.8l6.7-18.1 6.7-18.8c7.5-20.9 16.7-41.1 25.7-61.4 12.8-29 25.5-58.1 44.3-83.8 10.4-14.2 23.1-29.3 39.5-36.7 3.9-1.7 8-3 12.3-3.3 5.4-.4 8.4.6 13.9 2.2 12.4 3.3 22.3 11.4 29.6 21.7 5.3 7.5 9.7 15.7 14.8 23.4 8 12 16.3 23.7 23.9 36M727 81.8l6.4 10.3 2.4 3.8M566.7 289.8c-10.2-3.4-12.5-16.9-13.5-26.1l-.6-6.5-.1-7.4.3-8.2c.2-4.6.5-9.2 1.1-13.8 1.1-8.1 1.8-11.9 3.9-19.9 5.5-20.2 14.6-39.1 23-58.3 6.8-15.6 13.4-31.5 21.4-46.5 7-13.3 15.3-25.6 24.4-37.6 7.6-9.9 16.4-19.6 27.1-26.2 6.5-3.9 14.1-6.7 21.9-5.4 9.2 1.6 14.2 8.8 20.2 15.1 13.5 14.5 27.3 29.5 37.9 46.3M722.5 92.7l-8.4-2.7c-7.6-1.9-9.7-1.6-17.6-1.9-5.4.5-8.9.3-13.8 1.9-5.6 1.8-10.7 5.1-15.2 8.7-8.5 6.8-15.6 15.4-21.9 24.3-14 19.6-24.1 41.4-33.7 63.4l-40.2 92.1-5 11.2M461 261.3c5.3 9.2 15.9 10.6 25.4 13.1l48 12.9c7.5 2.1 15.1 4.8 22.9 4.4 3.4-.1 6.3-1 9.4-2M546.3 290.6c-8.6-11-13.4-24.7-15.7-38.4-1.3-7.6-2.5-15.7-2.5-23.4 0-37.4 18-70.6 31.8-104.3 8.6-20.9 16.8-41.7 28.4-61.2 10.2-17.2 22.3-34.5 38-47.2 6.9-5.6 15.1-10.6 23.9-12 4.9-.8 5.9-.3 10.8.4M513.5 174.5c6.3-15.6 13.2-31 19.9-46.4 4.7-10.5 9.1-21.1 14.1-31.4 3.5-7.5 7.3-15.1 11.5-22.3l11.3-18.8c3.7-5.5 7.9-11.3 12-16.5l5.9-7 1.6-1.8c12.9-13.5 28.9-26.7 48.3-28.4 5.1-.4 9.7-.6 14.6.5M503.3 202.1c3.5-9.9 7-19.8 10.9-29.5M351.1 315.2c1.6-6.6 4.3-11.9 7.1-18.4l68.9-157.6c1.7-3.9 2.2-9.3 5-11.6M438.7 127.3v-.2M511 146.8l.2-.2M524.8 147.7l.2-.1M742.2 145.6c-10.8 6-18.9 14.9-26.1 24.9-12 17-20.3 35.8-28.3 54.9l-66.8 157c-2.7 6.2-4.9 13.1-9.1 18.6-8.2 11.1-20.9 16.2-34.3 16.6-7.2-.7-13.2-2.6-20.3-4.4l-165.6-44.7-11.8-3.2-3.9-1.3c-5-2-9.4-5.1-12.7-9.4-5-6.4-7.4-14.9-10.6-22.1M381.6 365.8c-8.6-2.8-15.6-6.7-20.3-14.4M723.7 163.7c-11.1 13.2-19.4 27.5-26.9 43M692.6 214.1c.3 1.1.3.5.2 1.5M735.6 154l.2-.1M738.5 152.8c3.3-.4 5.9 4.6 7.2 6.8 3.8 6.5 5.7 14 6.9 21.2l.9 7 1.3 12.2 8.1 79.7 1.3 12.2.3 1.6c.2 1 .6 2.3 1.6 2.9 3.4 2.3 8.1-1.5 9.9-4.1 6.4-8.9 4.3-19.6 3.2-29.7l-5.7-56-1.3-12.2M771.7 196.7c.7-1.5.5-2.1.5-3.9 0-2.6.1-5.1.6-7.7 1.2-7.9 3.8-15.8 8.5-22.4M780.7 163.3c1.5-1.7.7-1 2.3-2.4M719.3 168.8c4.1-4.8 8.2-8.9 12.9-12.9M738.5 152.8l-6.3 3.3-1.9 1.6M780.4 276.3l.2-.2M780.1 277.2l.1-.1M764.2 291.8l-11.9-3.1-29.2-7.9-11.8-3.2M766.8 296.7l-11.8-3.2-16.2-4.3c-4.4-1.1-10.6-2.4-15.3-4.3-4.5-1.7-8.5-4.4-12.3-7.2M728.5 286.3c-1 1.5-2.1 4-3.8 4.7-1.9 0-3.4-1.1-4.8-2.3-3.5-3.1-6.1-7.1-8.5-11.1M731.3 350.8l-2.4-24.3-2.4-23.5-1.3-12.3"/>
    <path class="st1" d="M727.4 286.1l.3-.1-.3.1zM727.6 286.2l.3-.2"/>
    <path class="st1"
        d="M775.5 292.9l-.3.4.3-.4zM461 261.3l4.8-11.2 40.3-92.1c13.8-31.5 28.6-64.1 55-87.1M509.2 40.9l-1.5-.2c-3.2 0-6.4.9-9.3 2.1-9 3.8-16.7 9-23.4 16.2-18.9 20.1-31.7 44-43 68.9M552 87.4l.2-.1M535.3 42c-7.5-1.3-11.8-1.8-19.2-2h-1.5l-8.5.8M592.2 123.4l.3-.1M499.7 211.2c-5.9 13.4-12.3 26.9-21.3 38.6-3.9 5-9.2 11.2-15.8 11.7l-1.6-.2M504.8 197.8c-2.1 5.6-4.3 11.1-6.5 16.7M623.7 69.4l.2-.1M618.2 77v-.1M718.5 68.6c1.5 2.4 2.6 4.6 3.1 7.5l.3 2.6M726.5 93.4l.2-.2M801.8 725.9c-8.5 4.8-17.8 8.4-27.3 10.6l-8.8 1.8c-6 .8-12 0-16.8 4.3-5 4.4-6.2 12.1-8.2 18M744.9 748.4c-.3-1.4-2.5-3.2-3.1-3.7M741.3 756.4c1.5-4.3 2.7-10.2 6.1-13.8 4.8-4.8 11.4-4 17.6-4.9 12.3-1.9 25.1-5.8 35.8-12.3M744.8 727l5.4 5.9 5.5 5.9c.5.4.5.4 1.1.5M764.9 702.1c.7-1.2 1-2.1 1.1-3.4M759.1 709.4l11.4 4.3 55.1 21.4c3.8 1.5 11.9 6 17.4 5.1 1.6-.3 3.2-1 4.8-1.7 12.5-12.1 23.6-31.3 30.8-46.8 11.3-24.2 20.9-49.4 27.6-75.1 2.5-9.4 4.9-19.2 5.6-28.9.4-5.6.2-12-3.4-16.6-3.5-4.5-13-6.7-16.8-8.1l-50.4-19.4-11.5-4.5M837.1 739.5c3.4.3 5.7-2.1 8-4.5 6.2-7 10.9-15.5 15.3-23.6 8.1-14.9 15-30.5 21.3-46.3 7.6-18.9 14.3-38.2 19.4-57.8 2.4-9.4 4.7-19.1 5.2-28.9.2-3.7.7-9.2-3.2-11M796.6 641.4c-.1-.6 0-.3-.3-.9M798.1 635.5c.3.5.3.2.3.7M854.6 211.5c0 1.5-.1 2.5-.7 3.9M838.5 281.7l.1-.2M734.1 779.3c-4.8 13.7-10.5 27.5-13.7 41.8M692.7 985.3c12.8-34 21.4-68.6 25.4-104.9 1.2-10.8 1.6-21.8 1.3-32.8l-.5-9.5-.1-2.7c0-4.9.7-9.7 1.6-14.4M723.2 808c.5.6.4.3.5.9M731.7 783.8c-5.3 15.1-11.8 30.2-13.6 46.3-.8 7.3 0 14.2.2 21.5.3 10.9-.4 21.8-1.5 32.6-3.5 33.5-11.7 67.4-24.2 98.7M702.8 814.3v49.4c0 10 0 19.9-.9 30-1.5 16.4-4.5 33-9.2 48.9M717.7 841.8c.7-1.3 1.1-2.2 1.2-3.8M455.3 750.6c9.6 9.1 22.6 15.5 34.7 20.5 30.1 12.3 62.1 15.3 94.2 14.2M696.6 724.7l.1-.2M665.2 763.6c16.7-9.5 32.9-22.3 39.8-40.9 2.2-5.6 2-6.5 2.7-11.7M781.1 236l-4.7-1.2M781.1 236c7.2 5.6 14.4 11.2 19.1 19M981.6 1007.1l-.6-.5-8.5-8.9-17.3-18.6c-3.4-3.5-8.5-7.9-11-12.8l-.7-1.9-4.1-11.6-5.8-16.7c-3.5-10.1-6.4-19-12.9-27.4M921.4 909.7s-4.9-5.3-5.6-6.1M915.8 708.6c4.3 5.7 7.6 11.8 9.7 18.7 3.3 11.1 3.3 22.8 6.1 34 5.4 21.5 15.6 41.6 30.2 58.4 12.5 14.5 27.8 26.3 45 34.7 10.5 5.1 21.5 8.9 32.8 11.4 3.7.8 17.7.3 16.1 8.6-.2 1-.7 2-1.4 2.8l-7.9 9.5-24.8 29.8c-10.5 12.6-4.4 7.3-18.3 16l-32.9 20.5c-2.9 1.8-8.6 6.8-13.4 7.5-7.1-.2-7.7-10.4-9.5-15.1l-5.8-16.8c-4-11.7-7.6-22.5-15.7-32.1-4.5-5.3-10.2-9.8-15.4-14.4l-83.5-73c-7.8-6.7-13.5-12.3-20.5-19.8l-24.3-25.9c-5-5.3-8.5-8.4-12.3-14-3.1-4.6-3.5-5.9-5.8-10.9M886.5 724.7c-6.6 22.4-25.8 40.4-47.9 47.1-6.5 2-12.9 2.6-19.7 2.9-13-.7-25.2-3.8-35.9-11.7-4.4-3.3-5.3-4.5-9.2-8.6M817.9 801c6.9 5.3 13.7 9.6 22.1 12.1 31 9 64.6-7.6 79.7-35.4 6.5-12.1 8.7-24.9 8.1-38.5M924.5 699.5c7.2 7.8 12.6 16.9 15.7 27.1 2.5 8 2.8 16.2 4.2 24.4 1.2 6.8 2.8 13.5 5.1 20.1 5.3 16.1 13.8 31.2 25 44.2 6 7 7.6 8.1 14.4 14.3M985.5 826.7c7.6 6.4 15.2 12.3 23.9 17.2 11.8 6.5 24.2 10.5 37.1 13.8M1046 857.5c6 1.1 11.8 1.4 17.2 4.3M1063.7 862.3c4.5 3.3 8.1 7.8 11.9 11.8l17.4 18.6c5.2 5.5 9.7 8.9 12 15.7M981 1006.6c1.4 1.3 2.4 2.4 4.1 3.5 1.6 1.1 2.4 1.3 4.3 1.9 9.5 3.2 17.8-4 25.3-8.7l34.5-21.4 10.5-6.4 7.9-9.5 26-31.3c5.2-6.2 11.9-12.2 12.2-20.9.1-2.2-.1-2.7-.5-4.7M982.6 1008.3c1.7 1.2 2.1 1.6 4 2.5 10.2 4.4 19-2.9 27.1-8l34.7-21.5 10.4-6.5 7.9-9.4 26.2-31.5c6.2-7.5 14.6-15.1 11.7-25.8-.5-2.1-.8-2.5-1.9-4.4M924.5 699.5l8.4 9 16.4 17.4c8.9 9.4 17.7 18.2 22.8 30.4 4.3 10.1 4.8 20.4 6.6 31.1 2.9 16.9 9 33.9 18.5 48.4M922.9 701.4c1.4-.5 2.7-.3 3.8.5M806.3 806.8c-8.1-10.4-14.1-21.7-16.2-35M921.9 910.2c-4.9-5.8-10.4-10.3-16.2-15.4l-83.4-73-9.2-8.1-6.7-6.8M840.3 740.2c-5.9 3.2-11.7 4.7-18.3 5.1-6.9-.4-13.3-1.8-19.1-5.8-3.8-2.6-6.7-6.1-9.7-9.4M200.5 996.5l.2-.1M193.3 709.3l-.5 6.9M249.9 950.2l2.3-4.5M220.4 1065.7c-1.8 4.4-4.8 7.8-9.7 8.2-10.6-.1-20.4-2.5-30.5-5.2l-56.8-15.4c-2.2-.5-13.1-1.7-16-6l-5.6-8.5c-4.5-6.8-8.6-10.8-7.1-18.8M192 1071.9l-5.6-8.6-5.6-8.6c-.3-.5-.5-1.1-.7-1.7-2.2-9.3 4.5-20.1 8.1-27.8 5.2-11.2 10.6-22.1 13.9-34.1l3.2-11.9 20.5-76.8c2.1-8.1 4.1-16.2 6.9-24 2.2-6.3 4.8-12.4 8.1-18.3l8.5-15.3c6.7-13 12.1-26.9 16.6-40.9 5.6-17.7 9.7-36 11.8-54.4l.8-7.4c.7-7.9.6-17.4 6.2-23.8 2.9-3.2 6.8-1.2 10.9-.7l8 1c4.5.6 8.6 9.6 9.7 11.3 1.5 2.3 5.8 7.5 7 11.4M301.6 791.8c1.6-4.3 3.2-8.5 5.1-12.5l5.2-11.2 1.8-4.1 5.3-11.2c.2-.6-.2-.5-.1-1.2l.5-1.3s1.1-3.6.2-4.8l-5.4-8.2-5.4-8.3M303.5 718.5l-11.9-3.2-56.9-15.3c-10.1-2.7-19.9-5.1-30.4-5.3-6.1.5-9.3 5.6-10.7 11.2M193.6 706.1c-.2 1-.5 2.2-.4 3.2M290.3 733.3l.2-1.4c.2-1.2.9-4.3 2.4-4.6.9-.4 14.7 1.5 15.8 1.6M320.2 741.2c.3 1.9.4 5 .2 6.9M283.8 855.5l3.2-11.9 8.2-31.1c2.1-7.5 3.9-15.2 6.5-22.6 4.7-13.2 11.3-25.7 17.2-38.3M306.6 777.9c.1.8.1.5.1 1.3M290.3 733.3c-2.2 33.5-9.9 66.6-22.5 97.8-3.8 9.3-8 18.6-12.9 27.4-3.8 6.8-7.7 13.3-10.5 20.5-3.3 8.5-5.5 17.4-7.9 26.3l-20.5 76.8c-2.1 7.6-3.9 15.3-6.5 22.7-2.7 8-6.5 15.4-10 23.1l-2 4.1-5.2 11.1c-.7 1.6-1.1 3.4-1 5.2l.3 1 5.4 8.3 5.4 8.3M251.5 945.6c-14.5 29.4-24 61.8-28.5 94.3l-.9 7.3-.7 7.2c-.3 3.4 0 7.9-1.6 11.3-.4.7-.9 1.6-1.8 1.7l-15.5-1.7M239.6 893.3c-2.8 11.7-5.2 23.9-3.8 35.9.5 4.3 1.4 9.4 4.6 12.5 3.2 3 14.2 4.7 15 4.9l66.9 18.1 11.8 3.1c2 .5 4.3-.6 5.9-1.6 4.4-2.8 7.4-7.3 10.1-11.7M379.1 898.6l-11.9-3.2-1.1-.3-11.8-3.2-1.3-.1c-5.1 1.1-8.2 6.3-10.6 10.6-5.5 10.2-8.8 22.2-9.2 33.7-.1 4.3-.1 10.1 2.8 13.5.6.8 1.3 1.3 2.2 1.6l11.9 3.2 17.1 4.5 11.9 3.2M251.4 864.4c2.9-4.5 5.9-9.2 10.6-11.9 1.6-1 3.7-1.7 5.6-1.3l11.8 3.2 66.4 17.9 11.9 3.2 1.6.5c2 1 3.2 2.8 4.1 4.8 2.1 4.4 2.5 9.6 2.6 14.4M113.4 976.8c2.2-6.9 4-13.8 5.9-20.8l20.5-76.9c2.8-10.8 5.5-21.4 10-31.7l3.8-7.8 2.2-3.8M162.2 834.6l.2-.2M96.1 1015.8l5.2-11.2 1.9-4c1.6-3.4 2.4-9.2 5.4-11.6"/>
    <path class="st1"
        d="M114.7 988.3zM111.5 1050.1l-5.6-8.5-5.6-8.6c-.4-.5-.5-1.1-.7-1.7-2.2-9.3 4.5-20.1 8.1-27.8 5.3-11.2 10.7-22.1 13.9-34.1l3.2-11.9 20.5-76.8c2.1-8.1 4.2-16.2 6.9-24 2.2-6.3 4.8-12.4 8-18.3 2.8-5.2 5.9-10.1 8.5-15.3 6.7-13.1 12.2-26.9 16.6-40.9 4.8-15.3 8.5-31 10.8-46.9l1-7.6.8-7.5c.6-7.1.7-13.7 4-20.3.9-1.7 2.3-4.5 4.4-5l.7-.1 16.1 1.9M192.8 715.9c-3.5 35.6-12.8 70.1-27.7 102.6M155.7 835.9c3.4-5.8 6.5-11.6 9.4-17.7M334.2 967.8c-7.2-2.2-8.1-11.8-8.3-18.2v-4.2c.3-18.9 5.8-39.3 15.3-55.6 3.5-6 8.8-14.3 16.6-14.4M96.1 1015.8c-.5 1.2-1.1 2.9-1.4 4.3M113.4 976.8c-1.6 4.3-3.2 8.5-5.1 12.7M222.2 1053c3.6-35.8 12.9-70.5 28-103.2M220.1 1066.4c1.8-2.2 2-11.6 2.2-13.6M290.9 730.4l.1-.1"/>
    <defs>
        <path id="SVGID_1_" d="M92.8 1200z"/>
    </defs>
    <clipPath id="SVGID_2_">
        <use xlink:href="#SVGID_1_" overflow="visible"/>
    </clipPath>
    <path class="st3" d="M92.8 1200l16.1-16.1"/>
    <path class="st0" d="M92.8 1200z"/>
</svg>
