<svg xmlns="http://www.w3.org/2000/svg" xmlns:xlink="http://www.w3.org/1999/xlink"
    viewBox="0 0 1200 1200" enable-background="new 0 0 1200 1200">
    <style type="text/css">.st0{fill:none;} .st1{fill:none;stroke:#000000;stroke-linecap:round;stroke-width:4;} .st2{clip-path:url(#SVGID_2_);} .st3{fill:none;stroke:#FFFFFF;stroke-miterlimit:10;}</style>
    <path class="st0" d="M745.7 0h-291.4v1200h291.5l-.1-1200z"/>
    <path class="st1"
        d="M543.8 168.4l-3.1-2.2M719.3 816.1c11.9 10.3 21.7 24.4 23.3 40.3l.1 6.9v166.70000000000002l-.7 6.8c-4.6 24.8-26.5 42.4-47.7 53.3-12.6 6.3-26.3 11.1-39.9 14.2-19 4.6-38 6-57.4 6.2-19.5-.7-38.6-2.6-57.4-7.7-6.8-1.9-13.8-4.1-20.5-6.8-25.4-10.1-53.6-28-60.6-56.4-2.6-10.6-1.4-23.6-1.4-34v-146.1l.8-6.8c2.7-15 11.9-26.7 22.7-36.6M457.2 859.5c.2 6-.1 7.5 1.4 13.5 7 28.2 35.1 46.3 60.4 56.4 31.8 12.6 67.2 16.4 101.2 13.7 22.2-1.9 44.5-6.7 64.9-15.6 22.9-9.7 47-26 55.1-50.7 2-5.9 1.9-7.4 2.5-13.5M480.7 781.7v57.1c0 9.5-1.4 22.7 1.3 32.8 1.7 6.5 4.9 12.5 9 17.8 12 15.6 30.8 25.5 49.2 31.6 38.8 13 83.9 12.8 122.5-.9 18.1-6.4 36.4-16.5 47.8-32.3 5-7 8.7-15.4 9-24.1v-81.9M476.8 319.8c-9.3 8.6-16.5 20.4-18.9 32.9l-.8 6.8v374.8l.2 6.8c1 9.8 5 18.8 10.5 26.7 14.4 20.1 38.1 32.6 61.2 40.2 49.5 16.2 108 15.1 156-5.5 22.9-9.8 47-26 55.1-50.6 3.7-11.1 2.5-22.4 2.5-34v-354.7l-.1-6.8c-1.5-14.4-9.5-26.6-19.4-36.8"/>
    <path class="st1"
        d="M737.6 300.3c2.4-5.7 3.4-7.3 4.5-13.3l.7-6.8v-163.1c0-10.6 1.3-23.4-1.4-34.2-5.6-22-24.1-36.8-42.8-47.8-12.7-7.4-25.4-15.8-39.2-21.4-19.8-8.2-40.8-10.8-62-11.1-18.3.8-36.1 3.2-53.3 9.6-11.1 4.1-20.7 10.2-30.8 16-21.7 12.5-45.4 25.9-53.6 51.2-3.6 11.1-2.5 22.6-2.5 34.2v162.6l.2 6.8c1.3 12.4 7.4 23.5 15.5 32.8 14.7 16.5 35.5 27.2 56.2 34 46.5 15.3 100.2 15 146.3-1.7 20.2-7.1 40.3-18.1 53.9-35.1 4.6-5.4 4.9-6.7 8.3-12.7zM560.8 174.1c10.4 6.3 20.4 13.8 25.1 25.4 6.1 14.6-1.5 30-14.7 37.3-6.8 3.8-14.1 4.9-21.8 5-5-.5-9.6-1.2-14.4-3-16.5-6.4-28.9-21.7-34.1-38.5-3.5-11.7-4.1-28.4 8.8-34.8 5.6-2.7 11.6-2.6 17.7-1.9 9.1 1 18.1 3.4 26.6 7.1-.2.1-.2.1 6.8 3.4l11.4 1.7c11.8 1.4 23.6 1.7 35.4 1.4 7.9-.2 15.8-.8 23.5-1.9 7.7-.9 15.3-2.3 22.6-4 7.2-1.7 14.3-3.8 21.2-6.3 26.4-9.4 56-26.4 65.4-54.8 2-5.9 1.7-7.4 2.3-13.6"/>
    <path class="st1"
        d="M547.3 169.3c-5.6-1.6-10.8-2.6-16.6-2.6-2.7.3-5.4.6-7.9 1.9-8 4.2-8.5 14.7-7.1 22.5 2.5 15.2 12.7 31.5 28.2 35.5 18.1 4.7 41-10.7 35.1-30.7-4.3-13.9-18.9-21.8-31.7-26.6zM529.3 19c-8.1 5-15.8 10.2-21.8 17.6-2.5 3.1-4.7 6.5-6.3 10.2-1.5 3.4-2.6 7-3 10.7-2.6 22.3 16.9 39.3 34.9 48.4 13 6.5 27.2 10.5 41.5 12.6 29.5 4.4 61.6 1.5 88.9-11 18.6-8.7 39.4-24.9 38.5-47.5-.2-3.7-.9-7.3-2.2-10.8-1.4-3.7-3.3-7.1-5.6-10.4-5.5-7.6-12.8-13-20.4-18.1M519.9 163.2c-25.5-10.9-53.9-27.4-61.2-56.4-1.6-5.9-1.3-7.4-1.5-13.6M482.8 325.1v17.1c0 14.6-1.5 28.1 6.2 41.1 11 18.7 32.1 30 52.1 36.6 38.2 12.9 82.5 12.6 120.4-.8 17.8-6.3 35.8-16.2 47-31.8 4.9-6.8 8.5-15.1 8.8-23.8v-38.4M457.2 359.6c.2 6-.1 7.6 1.4 13.5 7 28.3 35.1 46.3 60.4 56.3 31.8 12.6 67.2 16.5 101.2 13.8 22.2-1.8 44.5-6.7 64.9-15.4 22.9-9.8 47-26.1 55.1-50.8 2-6 1.9-7.5 2.5-13.6M582.8 1195.1l-4.4-2.8M651 1105v59.4l-.2 4.1c-1.8 10.9-12.3 16.7-21 21.5-3.9 2.2-5.7 3.2-10 4.6-6 1.9-12.1 2.6-18.3 2.9-6.4-.1-12.6-.5-18.7-2.3-7.7-2-14.4-5.9-21.1-10.1-5.3-3.2-10.2-8.2-12-14.3l-.8-4.1v-61.7M561.7 1185c22.9 13 51.3 13 74.5 1.2"/>
    <defs>
        <path id="SVGID_1_" d="M454.3 1200z"/>
    </defs>
    <clipPath id="SVGID_2_">
        <use xlink:href="#SVGID_1_" overflow="visible"/>
    </clipPath>
    <path class="st3" d="M454.3 1200l26.5-26.6"/>
    <path class="st0" d="M454.3 1200z"/>
</svg>