<?xml version="1.0" encoding="utf-8"?>
<!-- Generator: Adobe Illustrator 22.0.0, SVG Export Plug-In . SVG Version: 6.00 Build 0)  -->
<svg version="1.1" id="Ebene_1" xmlns="http://www.w3.org/2000/svg" xmlns:xlink="http://www.w3.org/1999/xlink" x="0px" y="0px"
	 viewBox="0 0 1400 1400" style="enable-background:new 0 0 1400 1400;" xml:space="preserve">
<style type="text/css">
	.st0{fill:none;}
	.st1{fill:none;stroke:#000000;stroke-linecap:round;stroke-width:3;}
	.st2{fill:none;stroke:#000000;stroke-linecap:round;stroke-linejoin:round;stroke-width:3;}
	.st3{fill:none;stroke:#FFFFFF;stroke-miterlimit:10;}
</style>
<path class="st0" d="M792.2,100H607.8v1200h184.4L792.2,100L792.2,100z"/>
<path d="M700,1299.5c-8.7,0-17.4-1.3-25.7-4c-4.4-1.5-5.8-2.2-8.8-3.7c-0.7-0.4-1.6-0.8-2.6-1.3l0,0l0,0l0,0
	c-5-3.1-11.1-7.6-14-14.4c-1.8-4.2-1.6-9-1.5-13.7c0-1.2,0.1-2.3,0.1-3.4c0-0.3,0.2-0.5,0.5-0.5s0.5,0.2,0.5,0.5
	c0,1.1,0,2.3-0.1,3.5c-0.1,4.5-0.3,9.2,1.4,13.2c2.8,6.6,8.7,10.9,13.6,14c1,0.5,1.8,0.9,2.5,1.3c3,1.5,4.4,2.2,8.7,3.7
	c17.4,5.6,36.9,5.3,53.7-1.1c3.6-1.3,5-2,7.2-3.3c0-0.1,0.1-0.1,0.2-0.1c4.9-2.9,10.3-6.6,13.5-12.4c2.6-4.8,2.5-9.9,2.4-15.4
	c0-1.1,0-2.2,0-3.3c0-0.3,0.2-0.5,0.5-0.5s0.5,0.2,0.5,0.5c0,1.1,0,2.2,0,3.2c0.1,5.3,0.2,10.9-2.5,15.9c-2.6,4.6-6.5,7.9-10.4,10.6
	c0,0.1-0.1,0.2-0.2,0.3c-0.9,0.5-1.7,1-2.3,1.4c-2.9,1.7-4.2,2.5-8.4,4.1C719.7,1297.8,709.9,1299.5,700,1299.5z M635.6,119.2
	c-0.3,0-0.5-0.2-0.5-0.5v-2.2c0-0.3,0.2-0.5,0.5-0.5s0.5,0.2,0.5,0.5v2.2C636.1,119,635.9,119.2,635.6,119.2z"/>
<path class="st1" d="M791,153.5l-1.1,8.2c-3.1,11.3-11.5,19.5-20.9,25.9c-16.1,11-35.9,16.3-55.1,18l-14.4,0.6l-14.4-0.7
	c-9.1-0.8-18.3-2.6-27-5.2c-9.7-2.9-19.1-7.1-27.5-12.9c-5.4-3.7-7-4.4-12-10.2c-7.6-8.7-11.7-20.2-8.5-31.7l3.3-8
	c3.5-6.2,7.4-10,12.8-14.6l4.7-3.2c10.5-7.2,22.4-11.6,34.8-14.5c26.9-6.3,55.9-5.4,82,4c12.4,4.4,24.7,10.8,33.5,20.8
	c3.9,4.4,7.1,9.8,8.6,15.5c1.6,5.8,1.1,12.8,1.1,18.5v1041.6c0,5.6,0.4,12.9-1.1,18.6c-3,11.3-11.5,19.4-20.8,25.7
	c-16,10.9-35.8,16.3-54.9,18l-14.2,0.7l-14.2-0.7c-19.1-1.8-38.8-7.1-54.8-18c-9.3-6.3-17.8-14.5-20.8-25.7
	c-1.5-5.7-1.1-12.9-1.1-18.6V153.7"/>
<path class="st2" d="M649.8,155.6c0,16.6,23.3,30,52,30s52-13.4,52-30s-23.3-30-52-30S649.8,139,649.8,155.6z"/>
<path d="M753.3,155.6c0-8.2-5.6-15.8-14.9-21.1l0.4-0.3c9.5,5.5,15.6,13,15.6,21.4H753.3z M665.2,134.5
	c-10.1,5.8-14.9,13.4-14.9,21.1h-1.1c0-7.8,5.4-15.4,15.6-21.4C664.9,134.3,664.9,134.3,665.2,134.5z"/>
<path class="st2" d="M753,160.8c-4.4-14.5-26.3-24.8-51.2-24.8c-25.5,0-46.8,10.6-51.2,24.8 M750.6,166c-7.7-12-27.4-19.6-48.8-19.6
	c-22.2,0-41.2,8.1-48.8,19.6 M746.2,171.2c-9.8-9.2-26.7-14.4-44.4-14.4c-18.7,0-35.1,5.7-44.4,14.4 M739.3,176.4
	c-10.2-6.1-23.8-9.2-37.5-9.2c-14.7,0-28.1,3.5-37.5,9.2 M727.8,181.6c-16.6-5.6-36.2-5.2-52,0"/>
<path class="st1" d="M737.5,125.8c-5.7-2.4-6.7-3.1-12.9-4.7c-7.2-1.9-14.5-2.6-22-3.1c-17.9,0.2-37.8,2.9-51.7,15.4
	c-2.5,2.3-4.8,5-6.5,8c-1.5,2.7-2.4,5.6-2.7,8.7c-1.3,15.3,14.4,25.4,26.9,30l6.7,2.1c4.7,1.3,9.6,2.1,14.5,2.6
	c18.4,1.9,39.2-0.8,54.7-11.4c3.1-2.1,5.9-4.5,8.3-7.4c2-2.5,3.7-5.3,4.6-8.4l0.9-4.4C759.3,139.9,747.8,131.5,737.5,125.8z
	 M738.6,176.9c3.9-2.7,7.5-5.5,10.1-9.6c1.6-2.4,2.7-5.1,3.1-8c2.1-14.2-12.6-23.8-24.1-28l-6.2-1.9l-6.7-1.4c-6.1-1-7.8-0.9-14-1.3
	c-14.9,0.5-30.8,2.8-42.8,12.3c-7,5.6-12.1,14.2-9.1,23.3c1,2.8,2.6,5.5,4.5,7.8c2.8,3.2,4.1,3.8,7.4,6.3 M609.8,159.8
	c0-4.7-0.1-9.2,1.3-13.7c4-12.9,14.9-21.8,26.2-28.4c5.2-3,8.4-4.7,14.1-7c22.2-8.8,47.5-10.6,71.1-6.9c11.3,1.8,22.4,4.9,32.7,9.9
	c14.4,7,30.1,17.7,34,34.3c1.2,4.7,0.8,7,0.8,11.9 M787.9,166.6c1.8-4.4,2.2-8.5,2.3-13.2 M611.9,166.2c-1.9-5.6-1.1-2.5-2.1-9.3
	 M762.1,117.4c5.8,3.9,11.3,7.8,15.8,13.3c2.4,3.1,4.6,6.4,6,10.2l1.5,5.3c2.8,14.3-5.9,27-16.7,35.4
	c-20.6,15.8-47.7,19.6-72.9,19.7c-22.4-1.3-45.6-5.5-63.9-19.4c-5.2-3.9-9.8-8.6-13.1-14.2c-1.9-3.2-3.3-6.7-4-10.4
	c-3.3-16.8,9.3-32.1,23.2-39.8"/>
<path class="st3" d="M607.8,1300l11.1-11.1"/>
<path class="st0" d="M607.8,1300"/>
<g>
	<path d="M700.8,1281.3c-23.3,0-43-8.9-49.4-21c-0.5-0.2-0.9-0.3-1.4-0.5c6.1,12.9,26.6,22.5,50.8,22.5c24.7,0,45.4-9.9,51.1-23.3
		c-0.4,0.2-0.9,0.4-1.3,0.5C744.5,1272.1,724.5,1281.3,700.8,1281.3z"/>
	<path d="M700.8,1271.9c6,0,12.2-0.6,17.9-1.8c0.3-0.1,0.4-0.3,0.4-0.6s-0.3-0.4-0.6-0.4c-5.6,1.2-11.8,1.8-17.7,1.8
		c-10.4,0-20.1-1.8-28.2-4.8c-1.6-0.3-3.2-0.6-4.8-1C676.8,1269.4,688.3,1271.9,700.8,1271.9z"/>
	<path d="M752.3,1258.9c-1.8,15.4-24.2,27.6-51.5,27.6c-27,0-49.1-11.9-51.5-27c-0.4-0.2-0.8-0.3-1.2-0.5v8.3
		c0,16.9,23.6,30.6,52.7,30.6c29,0,52.6-13.7,52.6-30.6v-8.9C753,1258.6,752.7,1258.7,752.3,1258.9z M700.8,1287.5
		c25.5,0,46.8-10.6,51.6-24.6c-0.9,15.9-23.7,28.7-51.6,28.7c-28,0-50.8-12.8-51.7-28.7C654,1276.9,675.3,1287.5,700.8,1287.5z
		 M700.8,1296.9c-28.1,0-51-12.9-51.7-28.9c4.8,14,26.2,24.6,51.7,24.6s46.8-10.6,51.6-24.6C751.7,1284,728.8,1296.9,700.8,1296.9z"
		/>
	<path d="M700.8,1277c20,0,37.5-6.5,46.4-16.2c-0.7,0.2-1.4,0.5-2.1,0.7c-9,8.6-25.5,14.4-44.3,14.4c-18.3,0-34.3-5.4-43.5-13.6
		c-0.7-0.2-1.4-0.5-2.1-0.7C664.3,1270.8,681.3,1277,700.8,1277z"/>
</g>
</svg>
