<svg xmlns="http://www.w3.org/2000/svg" xmlns:xlink="http://www.w3.org/1999/xlink"
    viewBox="0 0 1200 1200" enable-background="new 0 0 1200 1200">
    <style type="text/css">.st0{fill:none;} .st1{fill:none;stroke:#000000;stroke-linecap:round;stroke-width:4;} .st2{clip-path:url(#SVGID_2_);} .st3{fill:none;stroke:#FFFFFF;stroke-miterlimit:10;}</style>
    <path class="st0" d="M860 0h-520v1200h520v-1200z"/>
    <path class="st1"
        d="M422.2 379.1l-41.1-11.1M388.4 505.9l-44-11.8M398.7 438.5l-48-13M388.5 510.4c-13-3.6-25.2-6.8-37.3-12.3-1.1-.5-6.3-2.4-6.7-4-5.1-22.7-2.3-46.3 4.2-68.5 3.7-12.7 8.5-25.3 15.4-36.5 4.8-7.7 10.9-14.4 17-21.1M364.7 388.3c-4.1 7-7.8 13.9-10.3 21.7l-3.7 15.5c-2.4 8.4-5.8 15.9-7.4 24.6-2.1 11.6-1.5 23-.4 34.8M670.4 844.2v213.5M676.7 842.2v-215.7M539.1 1146.2v-302M663 339.9l-16.2-2M621.4 335.1l19.8 2.2M468.2 424v362.1M557 1085.2l.6-1.5M670.4 1095.8v23.4c0 5.7 1.8 23.8-1.2 32.6-2.5 7.3-9.2 14.1-13.5 19.8l-8.5 11.1-3 3.1c-11.1 10.1-27 12.3-41.4 12.6-12.8-.9-26.2-3.1-36.3-11.5l-3.1-3-9.4-12.2c-4.7-5.9-11.7-12.9-13.9-20.8l-.8-4.5v-86.8M539.1 1070.1c-10.9-10.5-10.8-27.6 0-38.1M556.5 1091.6c-.4-6.1 1.5-11.9 8.4-13 2.8-.5 5.6-.2 8.4.3M577 1079.6c10.9 3.4 26.4 10.8 24.5 24.7M468.2 786.1c9.1 26.5 31.6 42.8 56.8 53.1 48 19.6 102.8 18.5 151.7 3M664.3 1061.4c.7-.9 3.7-5.6 5.3-4.4M662.4 1063.8c-6.3 8.4-13.9 18.7-13 29.9M518.4 381.1c0 6.8-.6 13.8 1.8 20.3 7 19.6 29.4 30.1 48 35.2 25.1 6.7 52.8 6.3 77.6-1.3 10.6-3.4 21.1-8.2 29.7-15.3 5.2-4.3 9.7-9.6 12.6-15.7 6.2-13.3 4.1-31.3-5.1-42.7-8.3-10.3-20.6-17-33-21.3-15.5-5.6-31.4-7.2-47.8-7.4-13.1.6-25.9 2.1-38.5 5.9-22 6.9-53.5 26.1-43.5 54 1.4 4 3.6 7.7 6.3 11 3 3.8 6.6 7 10.5 9.9 11.8 8.7 26.2 13.7 40.5 16.4 25.2 4.9 52.8 3.2 76.6-6.5 18-7.3 33.8-19.3 36.9-39.4M651.6 340.7c23.9 7.4 57.4 26.2 52.1 56.3-.7 4.4-2.4 8.7-4.6 12.6-2.5 4.3-5.8 8.1-9.4 11.6-22.2 20.9-54.5 26.3-83.8 27.5-18.1-.5-35.9-2.4-53.1-8.4l-9.1-3.7c-17.4-7.9-39.8-24-38.4-45.9.3-5.6.3-7.5 2.2-12.8 1.7-4.4 4.2-8.5 7.2-12.2 3.3-4.1 7.3-7.7 11.6-11 12.9-9.6 28.8-15.4 44.5-18.7 31.1-6.6 65.8-4.5 95.1 8.6 18.5 8.3 38.5 23.7 38.5 46M468.2 424c11.7-22.7 23.9-44.5 41.4-63.3M532.7 344.1c38.6-12.3 79.2-15.3 118.9-6.9 18.6 3.9 37.6 10.1 53.6 20.5"/>
    <path class="st1"
        d="M644.2 354.9c-3.1-17.1-23.9-21.1-38.4-22-7 .3-13.8.8-20.5 3-9.7 3.2-23 11.6-19.3 23.8.6 2.1 1.7 4.2 3.2 5.9 1.6 2 3.8 3.7 5.9 5.2 15 9.9 37.5 10.1 53.6 3 8.3-3.7 15-9.6 15.5-18.9zM468.2 424c9.1 26.4 31.6 42.9 56.8 53.1 48 19.6 102.8 18.5 151.7 3M705.2 431.8c-8.4 11.9-15.9 24.2-22.8 37.2l-5.7 11.1v40.7M664.3 1160.4c-14.9 15.8-35.4 20.5-56.5 21.9-23.2-.2-47.4-4.6-63.3-22.8M741.2 656.8v105.5l-16.6 20.4-31.4 39-16.5 20.5M532.7 344.1c-8.6 4.7-15.8 10-23.1 16.6M567.3 1112.9c-7.7-6.3-11.7-14.4-10.9-24.4M558 1082.8c4.8-6 12.3-4.6 19-3.1M601.5 1104.3c-2.2 8.3-9.3 12.2-17.3 13.3-2.5-.1-6.7.3-9.1-1.1M575.6 1116.7l-4.9-1.9M673.2 1060.8l-3.5-3.7M652.6 1100.6c5.7 4.1 13-.5 17.4-4.6 9.3-8.4 10.8-21.6 5-32.5M651 1083.1c3.2-8.1 8-15 13.3-21.7M673.8 1091.6h.2M651.8 1099.8c-1.4-2-2.1-3.9-2.5-6.1M728 269.8l.9-3.1M784.1 331.9l-.1 122.2M728 269.8l.3-1.1M727.2 271.9l1.1-3.2M727.3 271.7l-1.1 2.6M500 99.1l2.7-2.1M506.8 94.1l2.9-1.9M478.5 138.6l1.1-5M468.2 578.8c-6.5 3-13 3.9-20 4.8-6.4-.3-12.7-1.1-18.8-3.1-4.4-1.3-9-3.3-13-5.8-28.4-18.2-30-58.5-27-88.3l2.7-19.6c1.2-6.4 2.9-14.4 4.4-20.6 2.6-10.2 5.8-20.3 9.5-30 6.1-16 15.3-29.8 18.3-46.7M418 389.7c2.8-7.2 12.2-7.7 18.7-7.5 6.8.4 13.2 3.4 20.1 3.7 14.4.8 28.2-4.6 39.5-13.2M504.1 358.1c1.3 1.5 2.4 3.2 3.3 4.9M504.1 342.4c5.3 1.8 9.7 4.9 14.2 8.2M498.9 370.5c9-12 5.2-16.6 5.2-36l.1-74.1v-26.3l-.2-2.5-.8-2.2-4.6-8.1c-5.5-9.7-10.3-19.6-14.6-29.9M481 181.2l3.4 11.2M496.1 102.8c-23.6 27-28 64.7-16.3 98.1 5.1 14.6 13 27.8 20.6 41M632.4 15.1c-25.4-9.2-52.3-13.2-79.3-13.3-25.8 1.1-52.1 5.7-75.3 18.1-14.8 7.9-29.1 17.6-40.3 30.2-8.5 9.5-16.3 19.7-22 31.2-18.9 37.5-21.3 80.7-10.1 120.7 4 14.3 8.6 29.1 15.3 42.3 1.9 3.9 4.2 9 7.1 12.2 4.8 5.2 13.7 6.2 20.4 6.1l10.3-.7 10.8-2.2c12.9-3.5 31.8-11 35-25.6M436.9 51c44.9-49.8 121.6-51.2 181-31.5 61.7 20.5 116.4 62.8 151.9 117.4 21.3 32.6 35.6 70.2 37.3 109.3.6 14.5-1.3 28.1-3.8 42.4M719.3 285.5c-5.2 6.6-13.5 13.2-14 22.3-.5 8.3 5 16.3 10.8 21.6 14.1 13.2 40.4 22.2 58.4 11.9 6.4-3.6 11.7-11.2 14.7-17.6 6.4-13.4 11.4-26.9 15.3-41.2M787.7 326.7c5.5-8.3 9.2-18 12.8-27.2 29.9-78-8.5-164.8-65.1-220.1-11.3-11-23.6-21.2-36.6-30.2-20.8-14.5-43.3-25.6-67-34.3M594.1 85.6c13.6 4.2 26.7 9.1 39.3 15.7M633.1 101.2c34.3 19 62.8 46 81.9 80.4M714.7 181c3.4 6.6 6.6 13.4 9.3 20.4M728.6 216.1c1 4.1 1.8 8.1 2.5 12.1M731.5 252.5l.5-7.6M730.9 227.2c.5 4 .9 7.9 1.1 12M729.9 262.2c.7-3.6 1.2-7.1 1.6-10.8M732 245.9v-7.8M728.9 217c-1.5-5.5-3.2-11-5.1-16.4M730.1 261.2l-1.5 6.5M715.4 290.5c4-5.2 7.6-10.6 11.3-16M705.2 307.9v144.3l-2.8 4.6-4 7c-4.7 8.8-8.8 18-12.3 27.3-9.7 25.4-16 52.7-17.6 79.9-.8 15.4-.2 31.8 4.6 46.7 2.7 8.2 6.7 16.2 12.4 22.9 14.6 17.1 40.8 22.6 61.2 14.1 16.1-6.6 28.4-20.7 37.5-35.1M816.3 482.5c-1.4-9.6-4.9-20.1-15.4-22.2-16.4 2-26.4 20.4-33.2 33.6-15.9 31-25.9 68.6-24.3 103.5l.6 7.8c1.3 10.8 6.7 31 21.9 24.7l4.3-2.3c3.7-2.6 6.9-5.8 9.6-9.2M784 417.8c26.5 9.8 36.4 40.2 36.9 66M784 453.2c.1 7-1.7 13.8-3.7 20.6M705.3 452.2c8.1 2.4 15.7 6.2 23.9 8.1 16.7 4 35.7 5.4 51.1 13.5M725.7 459.3c-21.7 42.8-35.7 91.5-36.2 139.8l.3 10c.8 16.4 2.9 38.8 19.5 46.7M730.5 460.6c-21.7 42.8-35.8 91.5-36.2 139.7l.3 10.1c.7 16.4 2.9 38.8 19.5 46.7M572.6 81.5c4.8.6 9.5 1.4 14.2 2.5l8.1 1.9M573.4 81.6c-4.2-.5-8.4-.8-12.7-1M538.5 82.1c4-.6 8-1 12-1.3M549.5 80.9c4.1-.2 8.2-.3 12.3-.3M514.1 89.8c6.2-2.9 12.3-5 18.9-6.6M539.6 81.9l-7.6 1.5M515 89.3l-6.2 3.4M479.3 134.8l2.4-8.5M500.8 98.5c-2.3 2.1-4.5 4.2-6.6 6.4M502 97.5l5.6-4M477.6 146.4l-.1 10.8M481.3 182.2c-1.2-5.3-2.1-10.8-2.9-16.2M478.7 137.4l-1.2 10.2M477.5 156.1l1 11.2M425.4 252.9c0 36.4.1 72.8-.1 109.2M425.7 356.7c-2.2 12.9 8.8 23.3 20.1 27.3M472.1 395.3c-7.1-4.1-13.7-7.7-21.6-10.1M445.8 383.9c-21.6 42.8-35.7 91.5-36.1 139.8l.2 10.1c.7 16.3 2.8 38.7 19.5 46.7M450.5 385.2c-21.7 42.8-35.7 91.6-36.2 139.8l.2 10.2c.8 16.4 3 38.7 19.6 46.7M475.9 398l-6.6-4.4M473.5 396.6l6.3 5.5M424.3 369.7l.5-3.9M424.8 366l.4-5.7M468.2 474.3c-4.6 23.7-9.3 50.6.8 73.5M494.1 374.5c2-1.5 3.9-3.1 5.6-5.1M752.6 549.2l50 13.4M858.1 493.8l-49.9-13.4-27.8 3.3M858.1 493.8l-27.6 3.4-50.1-13.5M752.6 611.1v-61.900000000000006l10.3-24.3 7.2-16.9 10.3-24.3M830.5 621.2l-27.9 3.3-50-13.4M858.1 493.8v61.900000000000006l-10.1 24.3-7.3 16.9-10.2 24.3M830.5 497.2l-10.3 24.2-7.3 17-10.3 24.2v61.900000000000006"/>
    <defs>
        <path id="SVGID_1_" d="M340 1200z"/>
    </defs>
    <clipPath id="SVGID_2_">
        <use xlink:href="#SVGID_1_" overflow="visible"/>
    </clipPath>
    <path class="st3" d="M340 1200l18.2-18.2"/>
    <path class="st0" d="M340 1200z"/>
</svg>
