<?xml version="1.0" encoding="utf-8"?>
<!-- Generator: Adobe Illustrator 21.1.0, SVG Export Plug-In . SVG Version: 6.00 Build 0)  -->
<svg version="1.1" id="Ebene_1" xmlns="http://www.w3.org/2000/svg" xmlns:xlink="http://www.w3.org/1999/xlink" x="0px" y="0px"
	 viewBox="0 0 1400 1400" style="enable-background:new 0 0 1400 1400;" xml:space="preserve">
<style type="text/css">
	.st0{fill:none;}
	.st1{fill:none;stroke:#000000;stroke-linecap:round;stroke-width:3;}
	.st2{fill:none;stroke:#FFFFFF;stroke-miterlimit:10;}
</style>
<path class="st0" d="M1300,267.7H100v864.6h1200V267.7L1300,267.7z"/>
<path class="st1" d="M640.9,691.2l-4.8-1.3 M640.7,695.5l-3.6-0.9 M646.5,673.9l-3.6-0.9 M663.7,695.5l-3.7,0.8 M667.9,697.2
	c-0.8,2.1-1.9,4.1-3.4,5.9c-0.9,1-1.9,1.8-3.2,1.9c-2.3-0.5-2.6-3.4-2.8-5.4V697c0.3-4.5,1.4-9,3.1-13.1c0.6-1.3,1.2-2.5,1.9-3.7
	l1.3-1.9l0.3-1.4c0.3-1.2,0.5-2.4,0.5-3.7v-25.7c0-2.7,0-5.3-0.3-8.1c-0.8-5.7-3.6-11.2-7.2-15.8c-2-2.6-4.4-5-7-7.1
	s-5.5-3.8-8.5-5.2c-4.5-2-9.2-3-14.1-3.2c-3.4,0-6.6,0.4-9.8,1.5c-7,2.5-12.6,8.1-14.7,15.2c-1.1,3.7-1,7.5-1,11.3v21.4
	c0,4.1,0.6,2.6-0.6,4.8 M600.2,696c-2.7-3.1-3.5-7.6-3.5-11.6c0-8.1,2.3-16.2,6.3-23.1 M620.8,666.5c-1.4-0.9-3.1-1.3-4.7-1.7
	l-6.9-1.7l-4.1-1.2l-1.4-0.4l-0.7-0.2 M603,632.4c0.6,3,3.7,4.3,6.4,4.8c0.7,0.2,1.5,0.2,2.2,0.3c2.4,0.1,5-0.3,7.2-1.5
	c0.9-0.5,1.9-1.2,2.4-2.2s0.4-2.1,0.6-3.2 M627.9,626.7c1.2,0.1,2.3,0.2,3.5,0.4 M631.1,627c6.3,1.7,11.4,5.7,14.5,11.4
	 M646.8,642.2c0.1,1,0,2.3,0.5,3.3c0.6,1.2,1.9,2.1,3.1,2.7c2.6,1.2,5.6,1.4,8.5,0.9c2.7-0.5,6.8-2.1,6.7-5.4 M608.9,616.1
	c1.3-1.3,2.6-2.5,4.2-3.4c6.7-4,15-3.9,22.2-1.7c9.2,2.8,17.5,8.9,23,16.8c2.6,3.7,4.6,7.9,5.6,12.4c0.5,2,0.7,4.1,0.8,6.1
	 M665.6,666.1c4.8,3,6.3,8.7,6.3,14c0,2.1-0.2,4.2-0.5,6.3s-0.8,4.1-1.3,6.1c-0.5,1.5-0.9,3-1.5,4.5c-2.3,5.8-6.1,12.6-12.5,14.5
	c-1.2,0.3-2.3,0.5-3.6,0.5c-1.1-0.1-2.5-0.2-3.5-0.8c-1-0.7-1.6-1.9-2-3.1c-0.8-2.3-1-4.8-1-7.2 M652.3,648.9l0.2-0.1 M645.4,638.3
	c0.7,1.4,1.2,2.8,1.5,4.3 M649.7,711.5c-1.2-0.4-2.5-0.9-3.5-1.7c-6-4.5-6.1-13.1-5.1-19.8c0.3-1.6,0.6-3.1,0.9-4.6
	c0.4-1.6,0.8-3,1.4-4.5c0.7-1.9,1.4-3.7,2.3-5.5l1.2-2.3l0.1-3.7v-25.1 M658.5,698.2c-2.1,2.3-5.1,3-8,3.1c-1,0-1.2,0-2.3-0.1
	c-3-0.4-6.9-1.7-7.5-5 M663.9,700.4c-0.5,0.4-0.9,0.7-1.5,0.8c-2.3,0-2.4-3.3-2.4-5c0-5.1,1.7-10.5,4.5-14.7 M671.9,680.1
	c0,0.7-0.1,1.3-0.4,1.9l-0.4,0.6L671,684l-0.1,1.4l-0.1,0.8 M664.8,678.3c-1.5-0.9-3.2-1.3-4.8-1.7c-2.5-0.6-5.1-1.2-7.6-1.9
	c-1.3-0.3-2.5-0.7-3.8-1.1c-0.4-0.2-1.1-0.6-1.6-0.6 M664.8,678.3c0.5-0.6,0.7-0.9,1.3-1.4c0.4-0.3,0.8-0.6,1.2-0.8
	c2.5-0.9,3.4,2.3,3.6,4.2l0.1,1.1l0.1,1.2 M622.8,628.5c-0.6,0.9-0.9,1.2-1.3,2.2c-0.5,1.2-0.6,2.4-0.7,3.7 M621.7,631.9v25.7
	c0,2.6,0.1,5-0.5,7.5l-0.4,1.4l-0.7,0.9l-1.3,2.1c-1.2,2.1-2.1,4.5-2.8,6.9 M620.8,666.5l0.7-0.8c0.9-1,2.9-2.3,4.1-1 M621.7,654.2
	c3,1.9,4.6,4.9,5.6,8.3 M621.7,631.3l0.4-1.6 M625.2,627c0.9-0.2,1.9-0.3,2.8-0.3 M625.6,627l-1.6,0.6 M623.1,628.2l0.8-0.5l0.5-0.3
	 M622,629.6c0.3-0.5,0.7-0.9,1.1-1.3 M605.4,689.5c-3.3,0-8.1-1.4-8.7-5.1 M596.8,682.2c-0.4-4.3,0.5-8.7,2-12.7
	c0.8-2.1,1.7-4.3,3-6.1 M587.8,662.2c0.1-1.2,1-2.4,1.7-3.4c0.6-0.9,1.3-1.7,2.1-2.4l0.8-0.5c0.4,0,2.8,0.9,3.1,1.1
	c1,0.4,2,0.9,3,1.4c1.4,0.8,2.6,1.8,4.1,2.3 M596.7,685c-0.4-0.5-0.6-1.1-0.7-1.7c-0.3-1.5-0.3-3-0.2-4.5c0.1-2.7,0.3-5.4,0.8-8.1
	c0.2-1.7,1-3.6,0.1-5.1c-0.6-1-1.5-1.5-2.5-2c-1-0.6-1.9-1-3-1.5c-1.4-0.6-2.8-1.1-4.3-1.2c-0.6,0-1.2,0-1.7,0.2
	c-2.1,0.9-2.1,3.2-2.4,5.1v0.1l-0.2,2.6c-0.1,2.6-0.1,5.2,0.2,7.8l0.4,2.8l0.1,0.5c0.6,2.3,2.5,4,4.7,4.8 M587.4,684.6
	c3,1,6.2,1.2,9.3,0.6 M602.9,661.4c-1.9,1.3-3,3.4-4,5.5c-1.6,3.4-2.6,7-2.9,10.7c-0.3,2.4-0.3,4.8,0.7,7 M595.6,664.6
	c-1.2,1.6-0.6,1.5-0.6,4.6v15.7l0.5,0.5 M596.7,685.1c-1.1-0.4-1-2.2-1.1-3.2v-4.5l0.3-7.6c0.1-1.5,0.3-3-0.7-4.2l-0.3-0.3l-1.4-0.8
	c-0.9-0.6-1.9-1-2.8-1.4c-1.3-0.6-2.6-1.1-4.1-1.2c-0.6,0.1-1.1,0.1-1.6,0.4c-1.6,0.9-1.6,3-1.8,4.5l-0.2,2.5
	c-0.1,2.6-0.1,5.2,0.2,7.8l0.3,2.6l0.2,0.7c0.4,1.4,1.5,2.8,2.9,3.5c1.2,0.7,2.7,0.9,4.1,1c0.9,0.1,1.9,0.1,2.8,0.1
	c0.7-0.1,1.9-0.1,2.3-0.7 M593.3,673.9c0.1,0.6,0,1-0.1,1.5 M583.7,672.2c1.7,0.3,2.5-1.9,3.4-2.9 M583.6,662.7
	c1-2.1,2.3-4.1,4.1-5.6c0.6-0.5,1.5-1.1,2.3-1.3c0.9-0.1,1.6-0.1,2.4,0.1 M596.5,670.8c0.9-2.8,1.9-5.6,3.8-7.9
	c0.7-0.8,1.6-1.8,2.7-1.9 M603,660.9l-1-0.3c-1.3-0.5-2.4-1.4-3.6-2.1c-2.2-1.3-4.7-2.5-7.3-2.7c-0.6,0-1.1,0.1-1.7,0.3
	 M597.1,666.7c1-2.3,2.4-5.2,4.9-6.1 M596.1,668.5c0-0.3,0.7-0.2,0.9-0.2 M595.9,667.2c0.3-0.3,0.8-0.4,1.2-0.5 M593.9,674.9
	c-0.3-0.1-0.5-0.2-0.5-0.5"/>
<path class="st1" d="M584.5,674.8c0.6,0.8,1.2,1.6,2,2.2c0.6,0.4,1.3,0.8,2,1.1c2.1,0.7,5,0.1,5.3-2.5c0.1-0.4,0.1-0.8,0-1.3
	c-0.3-1.9-1.7-3.6-3.3-4.5c-1.1-0.6-2.2-0.9-3.4-0.9c-0.7,0.1-1.2,0.2-1.8,0.5C583.3,670.5,583.6,673,584.5,674.8L584.5,674.8z
	 M582.5,671.6l0.5,0.5 M587.3,669.3c2.4-0.1,4.3,1.2,5.5,3.2 M589.9,669.8c0.6,0.8,1.4,1.5,2.4,1.9 M596.9,680.5
	c-0.5-0.1-0.8-0.3-1.2-0.6 M592.9,675.9c-0.6,0.8-1.5,1-2.5,1.1c-2.2-0.1-4.2-1.4-5-3.4c-0.6-1.3-0.6-2.8,0.5-3.7 M583.7,664.5
	c-0.5-0.3-0.6-0.5-0.4-1 M593.3,674c-0.1-0.6-0.3-1.1-0.5-1.6 M583.7,679.9l-0.5-0.3 M587.8,684.5l0.2,0.4 M593.2,675.3
	c-0.3,0.6-0.1,0.3-0.4,0.8 M585.8,669.9c0.5-0.3,0.2-0.2,0.7-0.4 M587.3,669.3c-0.6,0.1-0.3,0-0.9,0.3 M623,667.8
	c-0.8,0.3-1.4,0.8-1.9,1.4c-1.1,1.2-1.9,2.6-2.5,4.1 M664.5,681.7c0.7-0.8,1.5-1.9,2.7-2.1c1.4-0.2,2,1.7,2.5,2.6
	c0.8,1.6,1.2,2.7,1.2,4.5c0,2.7-0.7,5.4-1.6,7.9c-0.6,1.3-1.2,2.6-2.2,3.6c-0.9,1.1-2.7,2-3.6,2.7 M670.4,684
	c-0.3-0.6-0.6-0.9-1.2-1c-1.5,0.2-2.3,1.7-3,3c-1.5,2.9-2.5,6.3-2.5,9.6v0.8c0.1,0.9,0.3,3,1.6,2.9c0.4,0,0.5-0.1,0.8-0.2
	 M635.4,652.4l11.6,3.1 M584.2,776.8l6.2,1.7 M584.2,731.1l13.5,3.6 M592,706.1l13.6,3.6 M612.7,713.7l1.7,0.4 M639.2,695.1
	c-0.4,0.2-0.2,0.1-0.7,0.3c-2.3-0.3-2.3-3.5-2.3-5.2c0-4.7,1.4-9.9,3.8-14l0.6-0.9l0.6-0.7c0.7-0.9,2.2-2.4,3.5-1.5
	c0.3,0.2,0.3,0.2,0.5,0.5 M585.9,784.1c-2.3-3-1.7-7.6-1.7-11.1v-38.2c0-2.3-0.1-4.6,0.1-6.9c0.6-6.3,2.4-12.8,5.5-18.4
	c1.3-2.3,2.9-4.3,4.6-6.4l38.7-47.9l2.3-2.9c1.1-1.2,2.6-3,4.4-2.9l0.6,0.1l3.3,0.9l3.3,0.9 M597.7,769.5v-31.1
	c0-2.3-0.1-4.5,0.2-6.9c0.6-6.3,2.4-12.7,5.4-18.3c1.3-2.4,3-4.3,4.7-6.4l36.7-45.5l2.3-2.9"/>
<path class="st1" d="M614,712.8l-0.2-0.1c-0.4,0-0.8,0.4-1,0.8c-0.6,1-1,2.3-1,3.4c-0.1,0.5-0.1,1.4,0.3,1.8c0.5,0.3,1.2-0.7,1.4-1
	c0.6-1.1,0.8-2.3,0.8-3.5C614.4,713.6,614.4,713.1,614,712.8z M295.5,629.1l294.9,79.4 M587.1,715.7l-293.9-79.1 M314.4,605.7
	l94.1,25.3 M455.2,665.3l-50.7-13.7 M465.1,653l-9.9,12.3 M462.2,645.4L582.9,678 M462.1,644.2l120.7,32.5 M1008.5,821l-319.3-85.9
	 M1003.2,827.7l-316.4-85.1 M954.1,799.6l-50.8-13.7 M964,787.3l-9.9,12.3 M959.4,779.3l68.1,18.3 M1028.3,796.6l-69-18.5
	 M575.1,764.3l-281.9-75.9 M968.7,870.3l-281.9-75.9 M622.9,779.4l344.4,92.7 M1060.6,850.3h0.2 M1081.9,823.9l0.2,0.1 M905.8,763.7
	l-230-62 M708.1,711.7l197.6,53.1 M964,787.3l-4-1 M465.1,653l-2.3-0.6 M407,648.4l-2.5,3.2 M408.6,629.8l-3.6-1l-85.4-23l-3.6-0.9
	l-0.3-0.1c-1.5,0.5-2.9,3-3.5,3.8L298,626.2c-1,1.2-2.4,2.6-3.2,4.2c-1.6,3.2-1.5,6.4-1.5,9.9v6.9 M293.2,677.7v10.6
	c0,0.7,0,1.7,0.5,2.3l0.3,0.2l3.6,1l272.5,73.4l3.6,0.9 M1058.4,883.7v-30.4l2.4-3 M1058.4,883.7l2.4-2.9v-30.5 M1079.7,857.4v-30.5
	l2.4-2.9 M1079.7,857.4l2.4-3V824 M747.1,890.8v-6.1 M688.2,876.1v-3.2 M725.4,886.1v-3.2 M700.2,948.9l2.3-2.9l42.2-52.2
	c0.7-0.8,2.5-2.7,3-4c0.4-1.2,0.2-3.3,0.2-4.3v-3c0-1.7-1.4-3-2.8-3.8c-1.9-1-4.2-1.4-6.2-2l-51.1-13.8c-2.7-0.7-5-1.4-7.7-1.5
	c-2.8,0.2-5.8,0.7-7.8,2.6l-0.5,0.5l-2.3,2.9l-46.2,57.2l-2.4,2.9 M696.2,947.8l2.4-2.9l46.2-57.2c1.4-1.7,3-3.1,3.2-5.3"/>
<path class="st1" d="M683.8,874.4c0.1,0.8,0.7,1.3,1.4,1.6c1.2,0.5,3,0.4,4.1-0.4l0.4-0.4c0.8-1.2-0.7-2-1.5-2.3l-1.4-0.2
	C685.7,872.8,684.1,873.1,683.8,874.4L683.8,874.4z M722.8,886.1c-0.4-0.1-0.8-0.3-1.1-0.5c-0.8-0.6-0.9-1.5-0.1-2.2
	c0.8-0.6,1.9-0.8,2.9-0.7c0.4,0.1,0.8,0.2,1.3,0.3c1.2,0.4,1.9,1.6,0.7,2.5c-0.7,0.5-1.6,0.7-2.3,0.7
	C723.7,886.2,723.3,886.2,722.8,886.1L722.8,886.1z M391.7,864.9v-4.6 M432.3,876.3l-0.2,0.4 M308.9,842.6V838 M395.2,866.7
	c0.4-0.4,0.8-0.8,0.9-1.4c0.5-1.5-0.3-2.8-1.5-3.7c-1.9-1.4-4.4-1.8-6.7-1.8c-2.5,0.1-5.5,0.7-7,3 M387,864.5c2.8-0.3,6,0.3,8.2,2.2
	 M432.3,876.7v-0.4l-1.9-3.1l-5.1-8.1l-2-3.1l-3.6-1l-111.2-29.9l-3.5-1l-3.7,0.8l-17.5,3.6l-3.6,0.8l-0.3,0.3 M298.1,840.6
	c0.8-1.2,2-1.9,3.4-2.4c2.6-0.8,5.6-0.8,8.3,0.1c2.1,0.8,4.7,2.8,3.3,5.3c-0.2,0.4-0.3,0.5-0.7,0.8 M304.2,842.2
	c2.8-0.4,6,0.3,8.2,2.2 M414.2,422.6l6.1,1.7 M521.4,270.7l6.7,1.8 M101.1,917.6l6.7,1.8 M101.1,801.8l6.7,1.8 M106.6,784.2l6.8,1.9
	 M213.9,677.9l-0.5,1.2 M299.8,692.4l-98.7,122.1 M496.9,448.3L360.8,616.9 M223.2,668.4l-6.1-1.6 M117.1,903.3l-2.7-0.7 M413.5,424
	c-0.2,3.8-1.4,7.6-3,11 M415.7,420.4c0.5-0.5,0.8-0.8,1.4-1.2l0.7-0.2c1.9-0.3,2.3,2.5,2.5,3.8v1.4c0,4.3-1.2,8.9-3.1,12.7
	c-1,1.9-2.2,4-4.3,4.7 M120.2,914.8l-2.3,3l-2.1,2.6c-1.4,1.7-2.9,4.5-5.3,4.9l-0.6-0.1l-3.4-0.9l-3.4-0.9c-0.8-0.2-1.2-1.2-1.4-1.9
	c-0.8-2.3-0.5-5.2-0.5-7.5V801.9l0.1-1.7c0.3-5.1,1.9-10.5,4.7-14.8l0.8-1.1l2.3-2.9l410.1-507.8l2.4-2.9l0.8-0.9l0.8-0.6
	c1.7-1.1,3.8,0.1,5.4,0.5s3.5,0.4,4.4,1.9l0.4,0.9c0.8,2.3,0.5,5.2,0.5,7.6v86.2 M109.8,925.1c-1.8-1.2-1.9-3.7-1.9-5.7V803.5
	l0.1-1.6c0.3-4.6,1.7-9.5,3.9-13.6c1.1-1.9,2.5-3.6,3.9-5.2l410.1-507.8l2.3-2.9c1-1.2,2.1-2.2,3.6-1.9 M112.8,908.7
	c0.1-2.1,0.6-4.1,1.6-6c0.3-0.7,1.7-2.6,2.4-1.2l0.2,0.5l0.2,1.3 M218.5,664.5c-2.2,2.8-3.5,6.1-4.4,9.6c-0.6,2.1-0.9,4.3-0.9,6.4
	l0.1,1.4c0.1,1.2,0.4,3.4,1.8,3.8h0.6 M293.2,647l-0.2,0.2v31 M412.9,441.7h-0.6c-1.4-0.4-1.7-2.6-1.8-3.8l-0.1-1.4
	c0-2.2,0.4-4.4,0.9-6.5c0.8-3.5,2.2-6.8,4.4-9.6 M490.3,402.9l-0.1,0.1v31.1 M215.8,685.8c1.7-0.6,2.7-1.9,3.5-3.4
	c2.2-3.7,3.4-8.2,3.8-12.5l0.1-1.5l-0.1-1.4c-0.1-1.2-0.4-3.4-1.8-3.8h-0.7c-0.9,0.3-1.4,0.7-2.1,1.3 M216.3,668.1
	c-0.1,3.4-1.2,6.7-2.4,9.8 M117.1,903.3c-0.1,2.1-0.6,4.1-1.6,6c-0.4,0.8-1,1.6-1.9,1.7c-0.8-0.4-0.8-1.4-0.9-2.3 M425,622.6
	l-2.3,2.9l-0.9,1.1l-2.3,2.9v1.1c0.2,1.7,0.8,3.2,1.7,4.6c2.1,3.4,5.6,5.9,9.4,6.8c2.2,0.5,4.7,0.4,6.7-0.8
	c3.8-2.2,3.9-7.1,2.2-10.7c-2.3-4.7-7.2-7.9-12.5-8.2c-1,0.1-1.3,0.1-2.3,0.3c-2.4,0.6-4.3,2.3-5,4.7c-0.2,0.9-0.2,1.2-0.2,2.1
	 M463.1,655.5l-0.3-3.7l-1.9-23.3c-0.2-2.4-0.3-4.9-0.9-7.2c-1.5-5.7-5.3-10.7-9.8-14.4c-2.1-1.7-4.4-3.2-6.9-4.2
	c-3-1.3-6-1.9-9.2-2.1c-3.9,0.1-7.7,0.8-10.8,3.4c-1.7,1.4-3.1,3.4-4.4,5l-4.8,5.9c-1.8,2.2-3.5,4.2-4.4,7c-0.7,2.2-0.7,4.6-0.9,6.9
	l-1.7,19.5l-0.3,3.7 M411.6,618c1-1.2,2-2.2,3.4-3.1c4.4-2.8,10.1-3,15-1.7c9.4,2.6,18,10.3,20.5,19.9c0.6,2.4,0.7,4.8,0.9,7.2
	L453,661l0.3,3.7 M439.2,630c-3.7-1-7-3.8-8.8-7.1 M894.1,947.5l-5.1-1.3 M859,1123.5l-5.1-1.3 M853.9,989.6l5.1,1.4 M120.8,792.2
	l5,1.4 M120.8,924.8l5,1.3 M160.9,750.1l-5.1-1.3 M481.2,1015.4l-8.8-2.4 M481.2,1015.4V908.6 M501.8,1020.9l-8.8-2.4 M501.8,1020.9
	V914.2 M473.5,1011.6l-1.1,1.4 M472.4,906.3V1013 M481.2,908.6l-8.8-2.3 M493,911.9l8.8,2.3 M493,911.9v106.6 M861.2,1111.1l2.1,0.6
	 M607.7,975.2l-2.2,2.7l0.3,1.4c0.5,1.3,1.4,2.2,2.6,3 M605.4,977.9c0.1-0.5,0.1-0.7,0.3-1.2c1-2.2,3.7-1.7,5.4-0.8 M607.8,975.2
	c0.3,2.9,3.1,5.3,6.1,4.9 M895.6,960.9v-12.8c-0.1-0.4-0.2-0.9-0.7-1.1c-0.4,0.1-0.6,0.3-0.9,0.6l-2.3,2.9l-30.4,37.6
	c-3.2,3.9-2.3,1.7-2.3,6.6v122.8l-1.2,1c-1.4,0.9-3,1.1-4.5,1.2c-2.4,0-4.3-0.7-6.6-1.3L127.5,924.8c-1.6-0.5-3.7-0.8-5.3-1.7
	l-0.7-0.4c-2-1.4-1.4-3.6-1.4-5.9V793.5c0.3-1.4,2.5-3.6,2.9-4.1l30.4-37.7l2.3-2.9c1-1.2,1.9-0.3,3.4,0.1l2.5,0.7l0.5,0.3
	c0.7,1.1,0.2,5.1,0.2,5.1v49.1 M161.8,749.6c-0.4,0.1-0.6,0.3-0.8,0.6l-2.3,2.9l-30.4,37.6l-2.3,2.9l0.1,0.6l0.3,0.2l3.6,1
	L849.1,989l3.6,0.9c1.7,0.5,3-2.4,3.6-3.1l30.4-37.6l2.4-2.9c1-1.2,1.9-0.3,3.4,0.1l2.5,0.7 M852.6,989.9l-2.3,2.9v126.5
	 M853.9,1119.6c0,1.1-0.2,2.8,0.1,3.9c0.1,0.4,0.3,1,0.7,1.1l2.5,0.7l2.6,0.7l0.7-0.1c0.3-0.2,0.6-0.5,0.8-0.7l2.3-2.9l0.4-0.4
	l2.3-2.9 M863.7,1111.2c-0.4,0.6-0.8,1.1-1.5,1.3c-0.8,0-1-0.9-1-1.5c-0.2-1.4,0.1-2.7,0.4-4 M859.8,1126c-0.8-0.6-0.8-1.6-0.8-2.5
	v-6.1 M120.2,794c0.6,3.1,4.9,3.6,7.4,4.2l719.2,193.7l3.6,1l1,0.2c2.7,0.5,5.7,0,7.7-2 M123.9,923.7V797.3l2.4-3 M120.8,921.9
	c0,1.2-0.3,3.5,0.3,4.8c0.5,1.1,2.3,1.1,3,1.2c1.8,0.5,2.9,1.4,4.1-0.1l1.9-2.4 M125.8,924.2c0,1.2-0.4,3.5,0.8,4.4 M611.1,975.9
	c1.2,0.8,2.1,1.7,2.6,3c0.5,1.4,0.2,3.2-1.2,3.9c-0.5,0.3-0.7,0.2-1.3,0.3c-1.1,0-1.9-0.3-2.9-0.8 M493,1018.5l2.3-2.9V912.5
	 M863.7,1111.2c1.1-1.9,1.8-4.1,1.8-6.3c0-0.8-0.1-2.2-1.1-2.3c-1.7,0.6-2.3,2.9-2.8,4.4 M916.3,1029l0.2,0.1 M895,1055.4h0.2
	 M914.1,1062.4v-30.5l2.4-2.8 M914.1,1062.4l2.4-2.9v-30.4 M892.8,1088.8v-30.5l2.4-2.9 M892.8,1088.8l2.4-2.9v-30.5 M960.4,791.3
	l0.3,0.1 M922.3,756.5l-2.3,2.9l-0.9,1.1l-2.3,2.9v1.2c0.2,1.6,0.8,3.2,1.7,4.6c2,3.3,5.6,5.9,9.4,6.8c2.3,0.5,4.7,0.4,6.7-0.8
	c3.8-2.3,3.9-7.1,2.1-10.7c-2.3-4.8-7.2-7.9-12.5-8.2c-1,0.1-1.2,0-2.2,0.3c-2.4,0.6-4.4,2.3-5,4.7c-0.3,0.9-0.2,1.2-0.3,2.1
	 M953.8,799.5l2.3-2.9l1.9-2.4l2.3-2.9l-0.3-3.7l-2-25.2c-0.2-3.1-0.4-6-1.4-8.9c-3.1-8.7-11.1-15.7-20-18.1
	c-1.9-0.5-3.6-0.7-5.5-0.8c-3.9,0.1-7.7,0.8-10.8,3.4c-1.7,1.4-3.1,3.4-4.5,5.1l-4.7,5.9c-1.9,2.3-3.6,4.3-4.5,7
	c-0.7,2.2-0.7,4.6-0.9,6.8l-1.6,19.5l-0.3,3.8 M908.9,751.8c1-1.2,2-2.3,3.3-3.1c4.5-2.9,10.1-3,15.1-1.6c9.4,2.5,18,10.3,20.5,19.9
	c0.6,2.4,0.7,4.8,0.8,7.2l1.7,20.8l0.3,3.7 M936.4,763.9c-3.7-1-7-3.8-8.8-7.2 M724.8,680.4l3.2,0.9 M728,666.6l-3.2-0.9
	 M646.1,709.6l-149,184.6 M503.8,896l-6.7-1.8 M503.8,896l148.6-184 M618.4,780.7v6.9 M617.8,781.5l0.6-0.8 M618.2,780.7l-0.3,0.4
	 M618.2,780.7h0.2 M618.2,780.7v0.2 M564.1,852.8l0.4-0.4 M564.3,852.4l-0.4,0.4 M897.1,440.4l0.3-0.4 M894.3,443.7l0.1,0.1
	 M894.3,443.7l0.2,0.1 M894.3,443.7l-0.3,0.5 M894.5,443.8l-0.4,0.4 M897.3,440.5l0.3-0.4 M838.9,512.5l0.4-0.5 M786.4,578.8
	l-1.8,2.2 M787,576.6h0.2 M787,576.6l-0.3,0.4 M787.2,576.6l-0.4,0.5 M729.5,649l1.6-1.9 M731.3,647.1l-1.9,2.3 M921.8,378.5
	l-6.8-1.9 M675.7,714.5l0.2,0.1 M675.7,714.5l-0.4,0.4 M673.5,719.2v-6.9 M673.6,719.2v-6.8 M675.9,714.6l-0.4,0.3 M673.6,712.4
	L673.6,712.4 M673.1,712.8l0.4-0.5 M673.6,712.4l-0.6,0.8 M693.4,798.4l-98.6,122.1 M890.5,554.3L754.3,722.9 M501.8,1019.3
	l-6.3-1.7 M495.5,912.5v105.1 M524.5,882.6l-4.2-1.2 M546.6,855.2l-4.2-1.1 M553.5,840.4l4.1,1.1 M564.5,826.7l4.2,1.1 M575.5,813
	l4.2,1.2 M586.6,799.4l4.2,1.1 M597.6,785.7l4.2,1.1 M608.7,772l4.1,1.2 M623.9,759.5l-4.2-1.1 M630.7,744.7l4.2,1.1 M641.8,731
	l4.2,1.1 M652.8,717.4l4.2,1.1 M668,704.8l-2.9-0.8 M734.3,622.8l-4.1-1.1 M741.2,608l4.1,1.1 M752.2,594.4l4.2,1.1 M763.3,580.7
	l4.1,1.1 M774.3,567l4.1,1.1 M785.3,553.3l4.2,1.1 M796.4,539.6l4.2,1.2 M807.4,526l4.2,1.1 M818.5,512.3l4.1,1.1 M829.5,498.6
	l4.2,1.2 M840.5,485l4.2,1.1 M851.5,471.3l4.2,1.1 M862.6,457.6l4.2,1.2 M873.7,444l4.1,1.1 M888.8,431.4l-4.1-1.1 M917.8,389.2
	l4.2,1.2 M911,404.1l-4.2-1.2 M895.7,416.6l4.2,1.1 M719.1,635.3l4.2,1.2 M712.2,650.2L708,649 M701.1,663.8l-4.1-1.1 M690.1,677.5
	l-4.1-1.2 M674.9,690l4.2,1.2 M535.5,868.9l-4.1-1.2 M728,666.6c-0.1,2.3-0.6,4.6-1.7,6.7c-0.5,1-1.1,1.9-2.2,2.3
	c-1.3-0.1-1.2-1.7-1.3-2.7 M725,689.9c2.1-2.3,2.9-5.6,3-8.6 M661.5,715c-0.3-2.5,0-4.9,0.7-7.3 M653.9,715.9
	c-1.9,2.4-3,5.6-3.4,8.6c-0.3,1.7-0.3,3.3,0.2,4.9 M640,743.6c-0.8-1.3-0.8-2.8-0.6-4.3c0.3-3.4,1.4-7.1,3.6-9.8 M629.3,757.6
	c-1.3-1-1.2-3-1.1-4.6c0.3-3.4,1.4-7.1,3.6-9.8 M617.2,767.8c0.2-3.9,1.1-7.8,3.6-10.9 M621,783.4c-0.7-0.2-0.5-1.3-0.5-1.9
	c-0.1-1.4-0.1-2.9,0.5-4.2c0.1-0.3,0.4-1,0.8-1c0.8-0.1,0.7,1.4,0.8,1.9c0,1.3-0.1,2.7-0.5,3.9c-0.2,0.5-0.4,1-0.9,1.3
	c-0.7-0.1-0.6-1.3-0.6-1.9c0-1.2,0-2.5,0.4-3.7c0.2-0.6,0.4-1.2,1-1.4 M620.8,784.2c0.6,0,1-0.8,1.2-1.2c0.8-1.7,0.9-3.6,0.8-5.5
	c-0.1-0.6,0-2.1-0.8-2.1 M622.1,775.4c0.8,0.3,0.7,1.5,0.8,2.2c0,1.7-0.1,3.4-0.6,5c-0.3,0.7-0.6,1.4-1.3,1.8
	c-0.3-0.1-0.5-0.1-0.7-0.4 M618.8,779.5v7.6l-0.4,0.4 M618.8,779.5c-1,1.2-0.7,0.6-1,2 M620.8,784.3c-0.6-0.5-0.5-1.5-0.6-2.2
	c0-1.6,0.1-3.3,0.6-4.8c0.3-0.7,0.7-1.9,1.5-1.9 M618.6,779.5v7.6l-0.2,0.2 M607.7,785c-1.5-0.3-1.5-2.3-1.5-3.5
	c0-3.8,1.2-8,3.6-10.9 M598.7,784.2c-2.4,3-3.6,7.2-3.6,10.9c0,1.3,0,3.2,1.5,3.6 M587.7,797.9c-2.3,3-3.6,7.2-3.6,10.9
	c0,1.3,0.1,3.2,1.5,3.5 M576.6,811.6c-2.4,3-3.6,7.1-3.6,10.9v1c0.1,0.8,0.4,2.5,1.5,2.5l0.5-0.1 M565.6,825.2
	c-2.6,3.3-3.8,7.8-3.6,12 M564.4,850.5l0.4-4.3l1.6-2 M564,853.3l0.1,0.3c0.4,0.9,1.3,0,1.5-0.5c0.8-1.1,1.1-2.6,1.1-4
	c0-0.6,0-1.2-0.7-1.5c-0.4,0.1-0.7,0.5-1,0.9 M564.1,852.8c0.1,0.5,0.1,0.9,0.5,1.1 M564.8,848.9l0.2-2.3c1.5-3.8,1.4-0.2,1.4-2.4
	 M564.6,850.1l0.3-0.7c0.2-0.3,0.4-0.6,0.8-0.8c0.6-0.3,0.7,0.6,0.7,0.9c0,0.9-0.2,1.8-0.6,2.6c-0.2,0.3-0.4,0.8-0.9,0.9l-0.3-0.7
	 M565,848.9c0.3-0.5,0.6-1.1,1.2-1.2 M566.1,848.7l-0.2-0.1c-0.8,0.3-1.1,1.3-1.4,1.9 M552.5,853.3c-1.4-0.3-1.5-2.3-1.5-3.5
	c0-3.8,1.2-7.9,3.6-10.9 M543.5,852.6c-2.6,3.2-3.8,7.8-3.6,11.9 M529.3,879.8c-0.5-1.6-0.5-3.3-0.2-5c0.4-3,1.5-6.1,3.4-8.6
	 M517.8,890.8c0.1-2.5,0.6-4.9,1.5-7.3c0.6-1.6,1.4-3,2.7-4.1 M927.3,472.2V386c0-2.4,0.2-5.2-0.5-7.5c-0.2-0.7-0.7-1.7-1.4-1.9
	l-3.4-0.9l-3.4-0.9l-0.6-0.1c-2.4,0.4-4,3.2-5.4,4.9L674.1,674.9l-2.3,2.9 M915.3,399.7c-0.2-3.6,0.7-7.3,2.5-10.4
	c0.3-0.5,0.7-1.1,1.1-1.5l0.5-0.5l0.6-0.3c1.4-0.6,1.9,1.4,2,2.4l0.1,1 M904.2,412.4c0.2-3.9,1.2-7.9,3.6-10.9 M893.2,427
	c-0.2-4.1,0.9-8.7,3.6-11.9 M897.4,440c0.1,0.9,0.8,0.8,1.2,0.1c0.5-0.8,0.8-1.9,0.8-2.9c0-0.5,0-0.8-0.5-0.9c-0.6,0.1-1,1-1.2,1.5
	 M897.6,438.1c0.3-0.5,0.6-1,0.9-1.4c0.2-0.2,0.4-0.5,0.7-0.4 M897.9,436.5l0.2-2.3c1.5-3.8,1.4-0.2,1.4-2.5 M897.6,441.5
	c0.7,0.2,1.1-0.7,1.4-1.2c0.5-1.1,0.8-2.3,0.8-3.5c0-0.6,0-1.3-0.7-1.5l-0.2,0.1 M896.2,439.4c0.8,0.2,0.7,1.2,0.6,1.9
	c-0.1,1.1-0.5,2.2-1.1,3.2c-0.3,0.4-0.5,0.8-1,0.9c-0.5-0.1-0.5-0.7-0.6-1.2 M899.3,435.3c-0.6,0.1-0.9,0.7-1.2,1.2 M899.7,431.8
	l-1.7,2l-0.4,4.3 M894.4,443.9c0.2,0.7,0.7,0.6,1.1,0.1c0.5-0.7,0.8-1.6,0.9-2.5c0.1-0.6,0.1-1.1-0.5-1.2l-0.6,0.5 M897.8,441.6
	c-0.4-0.2-0.4-0.7-0.5-1.1 M896.2,439.5c0.3-0.7,0.5-1.4,0.5-2.1c-0.1-0.4-0.1-0.9-0.5-1c-0.5,0.1-0.7,0.5-0.9,0.9
	c-0.6,0.9-0.8,1.9-0.9,3 M894.3,439.9c0.6-0.7,0.3-2.4,1.5-2.7 M895.9,437.2c0.4,0.1,0.4,0.5,0.3,0.8c-0.1,0.7-0.3,1.2-0.7,1.8
	l-0.3,0.5v0.8 M896.1,437.2c-1.2,0.3-1.1,1.8-1.4,2.5l-0.3,0.5 M895.3,441.1c0.2-0.2,0.5-0.6,0.9-0.7 M885.7,428.8
	c-2.4,3-3.4,7-3.6,10.9 M871.2,454.4c-0.2-4.1,0.9-8.7,3.5-12 M860.3,468.9c-0.7-4.3,0.7-9.4,3.4-12.9 M849.5,483.3
	c-0.5-1.6-0.5-3.3-0.3-5c0.4-3,1.5-6.1,3.4-8.5 M838,495.4c-0.2-4.2,1-8.7,3.6-12 M842.7,508.8c-0.6-0.2-0.5-1.3-0.6-1.9
	c-0.1-1.4,0-2.9,0.6-4.2c0.1-0.3,0.4-1,0.8-1c0.8-0.1,0.8,1.4,0.8,1.9c0,1.3,0,2.7-0.5,4c-0.2,0.5-0.4,1-0.9,1.2
	c-0.6-0.1-0.5-1.3-0.5-1.8c-0.1-1.3,0-2.6,0.4-3.8c0.2-0.6,0.4-1.2,1-1.4 M842.5,509.7c0.8,0,1.2-1.3,1.4-1.8
	c0.6-1.5,0.7-3.3,0.6-4.9c0-0.6,0-1.7-0.5-2.1 M838.8,512.4l0.1,0.8c0.4,0.9,1.2-0.1,1.4-0.5c0.6-0.9,0.9-2.1,1.1-3.2
	c0-0.5,0.2-1.6-0.5-1.8 M842.5,509.7c-0.6-0.5-0.5-1.5-0.5-2.1c-0.1-1.7,0-3.3,0.5-4.8c0.3-0.6,0.7-1.9,1.5-1.9 M840,509.1l0.3-0.3
	c0.8-0.7,1,0.4,0.9,1c-0.1,0.9-0.6,2.4-1.5,2.9c-0.3,0-0.5-0.2-0.6-0.5 M841,507.8c0.2-0.7,0.5-1.4,0.5-2.1c0-0.4-0.1-0.9-0.5-1
	c-0.4,0.1-0.7,0.5-0.9,0.8c-0.6,0.9-0.8,2-0.9,3 M840.7,505.5c0.5,0.1,0.4,0.6,0.3,0.9c-0.1,0.6-0.3,1.2-0.7,1.7l-0.3,0.4v0.8
	 M839.1,508.1c0.6-0.7,0.3-2.3,1.5-2.7 M839.1,508.5c0.6-0.7,0.5-1.7,1-2.4c0.2-0.3,0.4-0.7,0.8-0.6 M840,509.4
	c0.3-0.3,0.5-0.7,0.9-0.7 M830.6,497.1c-2.2,2.7-3.3,6.3-3.6,9.8c-0.1,1.5-0.2,3.5,1.1,4.5 M817,525.1c-1.3-1-1.2-3.1-1.1-4.5
	c0.3-3.5,1.4-7.1,3.6-9.8 M806.4,539c-1.4-0.4-1.5-2.3-1.5-3.5c0-3.8,1.3-8,3.7-10.9 M797.4,538.1c-2.3,3-3.6,7.2-3.6,11
	c0,1.2,0.1,3.2,1.5,3.5 M786.4,551.8c-2.6,3.3-3.8,7.8-3.5,12 M783.9,577.1c0.3-0.3,0.2-0.8,0.3-1.2c0.1-0.7,0.4-1.9,1.2-2.2
	c0.8-0.4,0.7,1,0.6,1.3c-0.2,1.8-1,3.6-1.4,5.3l-0.8,2.5 M788.5,571.9c0.8-0.2,0.9,0.8,0.9,1.5c0,1.3-0.3,2.8-1.1,3.9
	c-0.2,0.4-0.5,0.8-1,0.9c-0.4-0.2-0.4-0.7-0.5-1.1 M787.7,573.1l0.2-2.3c1.5-3.8,1.3-0.2,1.3-2.5 M787.3,574.7l0.6-1l0.3-0.4
	l0.2-0.3c0.8-0.7,0.8,0.8,0.7,1.2c-0.1,0.8-0.3,1.7-0.8,2.5c-0.1,0.3-0.3,0.5-0.7,0.6c-0.3-0.1-0.4-0.2-0.4-0.5 M789.3,568.4l-1.6,2
	l-0.4,4.3 M783.9,577.4c0.1-1.3,0.3-2.6,1-3.7c0.2-0.3,0.8-1.2,1.3-0.7c0.3,0.5,0.2,1.2,0.2,1.7c-0.1,1.5-0.7,3.1-1.1,4.5l-0.6,2
	 M788.8,572.9h-0.3c-0.6,0.1-1,1-1.3,1.5 M783.9,582.5l1.2-1.5c1.3-1.7,1.2-0.8,1.2-2 M788.9,571.9c-0.6,0.1-0.8,0.8-1.1,1.2
	 M783.7,582.9l2.7-3.3v-0.8 M783.9,577.4l0.4-0.4l0.1-1c0.1-0.5,0.2-0.9,0.4-1.3s0.4-0.9,0.9-0.9 M775.4,565.5
	c-2.2,2.7-3.3,6.3-3.6,9.7c-0.1,1.5-0.3,3.5,1,4.6 M762.7,593.5l-0.5,0.1c-1.4-0.4-1.5-2.3-1.5-3.5c0-3.8,1.2-8,3.6-10.9
	 M753.3,592.8c-2.4,3-3.6,7.1-3.6,10.9l0.1,1c0.1,0.8,0.3,2.5,1.5,2.5l0.5-0.1 M742.2,606.5c-2.4,3-3.6,7.2-3.6,10.9l0.1,1.1
	c0.1,0.8,0.3,2.5,1.5,2.5l0.5-0.1 M731.2,620.2c-2.5,3-3.5,7-3.6,10.9 M732.4,645.5c-0.7-0.2-0.6-1.3-0.6-1.8c0-1.4,0-2.9,0.6-4.2
	c0.1-0.3,0.3-1,0.8-1c0.8-0.1,0.8,1.4,0.8,1.9c0.1,1.3,0,2.7-0.5,3.9c-0.2,0.6-0.4,1.1-0.9,1.3c-0.7-0.1-0.6-1.3-0.6-1.9
	c0-1.2,0-2.5,0.4-3.7c0.2-0.6,0.4-1.2,1-1.4 M733.5,637.6c0.6,0.4,0.5,1.5,0.5,2.1c0.1,1.7,0,3.4-0.6,4.9c-0.3,0.7-0.6,1.4-1.3,1.8
	H732 M731.3,647.1v0.8l-2.7,3.3 M728.7,645.5c0.3-0.3,0.2-0.8,0.3-1.2c0.1-0.6,0.4-1.9,1.2-2.2s0.7,1,0.6,1.3
	c-0.2,1.8-0.9,3.7-1.4,5.3l-0.8,2.5 M729.4,649.4l0.6-1.9c0.4-1.6,1.2-3.4,1.2-5c0-0.5,0-1.2-0.6-1.3c-0.4,0.2-0.7,0.5-0.9,0.9
	c-0.7,1.1-1,2.4-1,3.7 M732.2,646.4c-0.6-0.5-0.6-1.5-0.6-2.1c0-1.7,0-3.3,0.6-4.8c0.2-0.6,0.7-1.9,1.4-1.9 M728.7,645.8l0.4-0.5
	l0.1-1c0.1-0.4,0.2-0.9,0.4-1.2c0.2-0.4,0.5-1,0.9-1 M728.7,650.8l2.4-3v-0.7 M716.6,645.8c-0.2-4.1,1-8.7,3.6-12 M705.6,659.4
	c-0.2-4.1,1-8.7,3.6-11.9 M694.9,674.7c-0.6-1.6-0.5-3.3-0.2-4.9c0.4-3.1,1.4-6.1,3.4-8.6 M683.5,685.8c0.1-3.9,1.2-7.9,3.6-11
	 M672.4,699.4c0.2-3.8,1.2-7.9,3.6-10.9 M671,689l2.3-2.9l246.1-304.7l2.3-2.9c1-1.2,2.1-2.2,3.6-1.9 M675.7,712.5l0.4-4.3l1.6-2
	 M674,711.1v7.7l-0.4,0.4 M675.7,714.7c0.1,0.4,0.3,0.5,0.7,0.3 M675.9,712.6l0.6-1l0.3-0.4l0.2-0.3c0.8-0.7,0.8,0.9,0.8,1.2
	c-0.1,0.8-0.3,1.7-0.8,2.4c-0.2,0.3-0.3,0.6-0.7,0.6h-0.2 M676.9,710c0.9-0.6,1.2,0.5,1.2,1.2c0,1.4-0.3,2.8-1.1,4
	c-0.3,0.4-0.5,0.8-1,0.8h-0.2 M676,712.1c0.3-0.6,0.8-1.7,1.5-1.4 M676.2,710.9l0.2-2.2c1.5-3.8,1.3-0.3,1.3-2.5 M675.5,714.9
	c0,0.5,0.1,0.9,0.5,1.1 M673.6,719l0.2-0.3v-7.3 M676.4,711c0.3-0.5,0.6-1.1,1.2-1.2 M674,711.1c-1,1.2-0.7,0.6-1,2 M709.6,710.8
	l-0.3-0.1c-1.4,0.5-2.9,3.1-3.5,3.8l-14.3,17.6l-2.3,2.9l-0.5,0.6c-2,3.3-1.9,7-1.9,10.6v48.1c0.1,0.9,0.1,2.3,1.2,2.5 M728,681.3
	c0-1,0-2.5-1.3-2.7c-1.1,0.4-1.7,1.4-2.2,2.3c-1,2-1.7,4.5-1.7,6.7c0,0.7,0.1,2.8,1.3,2.7c0.4-0.1,0.6-0.3,0.8-0.4 M722.9,672.9
	c0.1-2.6,0.7-5.3,2.1-7.5l0.4-0.6l0.5-0.5l0.4-0.3c1.5-0.8,1.7,1.7,1.7,2.6 M906.8,466.7l-0.3-0.1c-1.5,0.5-2.9,3-3.5,3.8L888.7,488
	l-2.3,2.9l-0.4,0.6c-2.1,3.3-1.9,7-1.9,10.7v48c0,0.9,0,2.3,1.2,2.5 M517.8,890.8v1.1c0.1,0.9,0.6,3,2,2.4l0.5-0.3l0.6-0.5l0.6-0.7
	c1.9-2.5,2.8-6,3-9.1c0.1-1.4,0.3-4.2-1.5-4.7c-0.7,0.1-0.3,0-1,0.4 M532.5,866.2c0.3-0.3,0.6-0.6,1.1-0.8c1.4-0.5,1.9,1.5,1.9,2.4
	l0.1,1.1c0,3.2-0.9,6.6-2.5,9.4c-0.6,1.1-1.4,2.2-2.7,2.5c-0.6-0.2-0.8-0.4-1.1-0.9 M540,864.5c0.1,0.7,0.1,1,0.3,1.5l0.3,0.6
	c1,1.2,2.3-0.4,2.9-1.2l0.6-0.9c1.6-2.7,2.5-6.2,2.5-9.4c0-1.3-0.1-3.2-1.6-3.5c-0.7,0.1-1,0.4-1.5,0.9 M554.6,838.9
	c0.4-0.4,0.6-0.7,1-0.8c1.5-0.6,1.9,1.4,2,2.4v1c0,3.2-0.9,6.6-2.5,9.4c-0.6,1.1-1.4,2.2-2.7,2.4 M565.6,825.2
	c0.4-0.3,0.6-0.6,1-0.8c1.5-0.6,1.9,1.4,2,2.4v1c0,3.2-0.9,6.7-2.5,9.4c-0.6,1.1-1.4,2.2-2.7,2.4c-1.2-0.3-1.3-1.4-1.5-2.5
	 M576.6,811.6c0.4-0.4,0.6-0.6,1.1-0.8c1.4-0.6,1.9,1.4,1.9,2.4l0.1,1.1l-0.1,1.2c-0.2,2.5-0.9,5-1.9,7.2c-0.7,1.3-1.4,2.5-2.7,3.3
	 M587.7,797.9c0.4-0.3,0.6-0.6,1.1-0.8c1.4-0.6,1.9,1.4,1.9,2.4l0.1,1c0,3.2-0.9,6.6-2.5,9.4c-0.6,1.1-1.4,2.2-2.7,2.4 M598.7,784.2
	c0.4-0.3,0.6-0.6,1.1-0.8c1.4-0.6,1.9,1.4,1.9,2.4l0.1,1c0,3.2-0.9,6.7-2.5,9.4c-0.6,1-1.4,2.2-2.7,2.5 M609.8,770.5
	c0.3-0.3,0.6-0.6,1-0.8c1.4-0.6,1.9,1.4,2,2.4l0.1,1.1c0,3.2-0.9,6.6-2.5,9.4c-0.6,1.1-1.4,2.2-2.6,2.5 M620.8,756.9
	c0.3-0.3,0.6-0.6,1-0.8c1.4-0.6,1.9,1.4,2,2.4v1c0,3.2-0.9,6.6-2.5,9.4c-0.6,1.1-1.4,2.2-2.6,2.4c-1.5-0.3-1.5-2.3-1.5-3.5
	 M631.9,743.2c0.3-0.3,0.6-0.6,1-0.8c1.4-0.6,1.9,1.4,2,2.4l0.1,1c0,3.2-0.9,6.6-2.5,9.4c-0.7,1.1-1.4,2.2-2.7,2.4l-0.4-0.1
	 M642.9,729.5c0.4-0.3,0.6-0.6,1.1-0.8c1.4-0.6,1.9,1.4,2,2.4l0.1,1c0,3.2-0.9,6.6-2.5,9.4c-0.6,1.1-1.4,2.2-2.7,2.5
	c-0.6-0.2-0.3,0-0.8-0.4 M653.9,715.9c0.4-0.4,0.6-0.6,1.1-0.8c1.4-0.6,1.9,1.4,2,2.4l0.1,1c0,3.2-0.9,6.7-2.5,9.4
	c-0.6,1-1.4,2.2-2.7,2.4c-0.6-0.2-0.8-0.4-1.1-1 M666.7,701.3c1.3,0.4,1.4,2.4,1.4,3.5l-0.1,1.1c-0.2,2.9-1,5.8-2.5,8.3
	c-0.6,1.1-1.4,2.2-2.6,2.5c-0.9-0.2-1.1-0.8-1.4-1.7 M672.4,699.4l0.1,1c0,0,0.5,3,2,2.4l0.6-0.3l0.5-0.5l0.6-0.7
	c1.8-2.6,2.8-6,3-9.1c0.1-1.4,0.3-4.3-1.4-4.7c-0.8,0.1-1,0.4-1.6,0.9 M683.5,685.8v1c0.1,1,0.6,3,2,2.4l0.6-0.3l0.5-0.6l0.6-0.6
	c1.8-2.6,2.8-6,3-9.1c0.1-1.4,0.3-4.3-1.5-4.7c-0.7,0.2-1,0.4-1.5,0.9 M694.9,674.7c0.2,0.4,0.3,0.6,0.7,0.9c1,0.5,2-0.8,2.5-1.5
	l0.5-0.8c1.6-2.7,2.5-6.2,2.5-9.4c0-1.2,0-3.2-1.5-3.5c-0.7,0.2-1,0.4-1.5,0.9 M705.6,659.4c0.1,0.6,0.1,1,0.3,1.6l0.3,0.6
	c1,1.2,2.4-0.4,2.9-1.2l0.5-0.8c1.7-2.8,2.5-6.2,2.5-9.4c0-1.3,0-3.2-1.5-3.5c-0.7,0.1-1,0.4-1.5,0.9 M716.6,645.8
	c0.1,0.7,0.1,1,0.3,1.6l0.3,0.5c1,1.2,2.4-0.4,2.9-1.2l0.6-0.8c1.6-2.8,2.5-6.2,2.5-9.4c0-1.3-0.1-3.2-1.5-3.5
	c-0.7,0.1-1,0.4-1.6,0.9 M727.6,631.1l0.1,1c0,0,0.5,3,1.9,2.4l0.6-0.3l0.5-0.5l0.6-0.7c1.8-2.6,2.7-6,3-9.1
	c0.1-1.4,0.3-4.2-1.5-4.7c-0.7,0.1-1,0.4-1.6,0.9 M742.2,606.5c0.4-0.4,0.6-0.6,1.1-0.8c1.4-0.6,1.9,1.4,2,2.4v2.1
	c-0.2,2.5-0.9,5-2,7.2c-0.6,1.4-1.4,2.6-2.7,3.4 M753.3,592.8c0.4-0.3,0.6-0.6,1-0.8c1.4-0.6,1.9,1.4,2,2.4v2.1
	c-0.2,2.5-0.9,5-1.9,7.2c-0.7,1.3-1.4,2.6-2.7,3.3 M764.4,579.1c0.3-0.3,0.5-0.6,1-0.8c1.4-0.6,1.9,1.5,2,2.4v2.2
	c-0.2,2.5-0.9,5-1.9,7.2c-0.7,1.3-1.4,2.6-2.7,3.4 M775.4,565.5c0.3-0.4,0.6-0.7,1-0.8c1.5-0.6,1.9,1.4,2,2.4v1
	c0,3.2-0.9,6.6-2.5,9.4c-0.6,1.1-1.4,2.2-2.7,2.5l-0.4-0.1 M786.4,551.8c0.4-0.3,0.6-0.6,1.1-0.8c1.4-0.6,1.9,1.4,1.9,2.4l0.1,1
	c0,3.2-1,6.6-2.5,9.4c-0.6,1.1-1.4,2.2-2.7,2.4c-1.2-0.3-1.3-1.4-1.4-2.5 M797.4,538.1c0.4-0.3,0.6-0.6,1.1-0.8
	c1.4-0.6,1.9,1.5,1.9,2.5l0.1,1c0,3.2-0.9,6.7-2.5,9.4c-0.6,1-1.4,2.2-2.7,2.4 M808.5,524.5c0.4-0.4,0.5-0.6,1-0.8
	c1.4-0.6,1.9,1.5,1.9,2.4l0.1,1c0,3.2-0.9,6.7-2.5,9.4c-0.6,1.1-1.3,2.2-2.7,2.5 M819.5,510.8c0.3-0.3,0.6-0.6,1-0.8
	c1.4-0.6,1.9,1.4,2,2.4v1c0,3.2-0.9,6.6-2.5,9.4c-0.6,1.1-1.3,2.1-2.6,2.5l-0.4-0.1 M830.6,497.1c0.3-0.4,0.6-0.6,1-0.8
	c1.4-0.6,1.9,1.4,2,2.4v1c0,3.2-1,6.6-2.5,9.4c-0.6,1-1.4,2.1-2.7,2.4l-0.4-0.1 M841.6,483.4c0.4-0.3,0.6-0.6,1-0.8
	c1.5-0.6,1.9,1.4,2,2.4l0.1,1.1c0,3.2-0.9,6.6-2.5,9.4c-0.6,1-1.4,2.2-2.7,2.5c-1.2-0.3-1.3-1.4-1.5-2.5 M852.6,469.8
	c0.3-0.4,0.6-0.6,1.1-0.8c1.4-0.6,1.9,1.4,1.9,2.4l0.1,1c0,3.2-0.9,6.6-2.5,9.4c-0.6,1.1-1.4,2.2-2.7,2.5c-0.6-0.2-0.8-0.4-1.1-1
	 M863.7,456.1c0.4-0.3,0.6-0.6,1.1-0.8c1.4-0.6,1.9,1.4,1.9,2.4l0.1,1.1c0,3.2-0.9,6.6-2.5,9.4c-0.6,1.1-1.4,2.2-2.7,2.4
	c-0.9-0.2-1-0.8-1.3-1.6 M874.7,442.4c0.4-0.4,0.6-0.6,1.1-0.8c1.4-0.6,1.9,1.5,1.9,2.5l0.1,1c0,3.2-0.9,6.6-2.5,9.4
	c-0.6,1.1-1.3,2.2-2.7,2.5c-1.1-0.3-1.3-1.4-1.4-2.5 M885.7,428.8c0.4-0.4,0.6-0.7,1.1-0.8c1.4-0.6,1.9,1.4,2,2.4l0.1,1
	c0,3.2-0.9,6.7-2.5,9.4c-0.6,1.1-1.3,2.2-2.6,2.4c-1.5-0.4-1.5-2.2-1.5-3.5 M893.2,427c0.1,0.7,0.1,1,0.4,1.6l0.3,0.5
	c1,1.2,2.3-0.4,2.9-1.2l0.5-0.8c1.6-2.8,2.5-6.2,2.5-9.4c0-1.2-0.1-3.2-1.5-3.6c-0.7,0.2-1,0.4-1.5,0.9 M904.2,412.4v1
	c0.1,1,0.6,3,2,2.4l0.5-0.3l0.6-0.6l0.5-0.7c1.9-2.5,2.8-5.9,3-9c0.1-1.4,0.3-4.3-1.5-4.7c-0.7,0.1-1,0.4-1.5,0.9 M915.3,399.7
	c0.1,0.6,0.1,1,0.3,1.5l0.3,0.5c1,1.2,2.4-0.4,2.9-1.2l0.6-0.8c1.6-2.8,2.4-6.2,2.5-9.4 M1179.5,628.7l6.1,1.6 M866.3,1123.6
	l6.8,1.8 M1293.4,478.5l-6.7-1.8 M871.8,990.3l6.8,1.8 M866.3,1007.8l6.8,1.8 M979.2,884l-0.6,1.2 M988.4,874.5l-6.1-1.7
	 M882.4,1109.4l-2.7-0.7 M1258.1,636.8h-0.2 M1279.4,610.4h-0.2 M1060.9,880.9h-0.2 M1082.2,854.6l-0.2-0.1 M895.3,1086L895.3,1086
	 M916.6,1059.7l-0.2-0.1 M1178.8,630c-0.1,3.8-1.4,7.6-3,11.1 M1181,626.5c0.5-0.5,0.8-0.8,1.4-1.1l0.7-0.2c1.9-0.3,2.3,2.5,2.4,3.8
	l0.1,1.4c0,4.3-1.2,8.8-3.1,12.7c-1,1.9-2.2,4-4.3,4.7"/>
<path class="st1" d="M866.3,1123.6v-115.9l0.1-1.6c0.3-4.6,1.6-9.4,3.9-13.6c1-1.9,2.5-3.5,3.9-5.2l410.1-507.8l2.4-2.9l0.8-0.9
	l0.8-0.6c1.7-1.1,3.8,0.1,5.4,0.5c1.6,0.5,3.5,0.4,4.4,1.9c0.8,1.4,0.8,3.2,0.9,4.7V598l-0.1,1.6c-0.3,5-1.9,10.5-4.7,14.7l-0.8,1.1
	l-2.3,2.9L881,1126.1c-1.4,1.7-2.9,4.5-5.3,4.9l-0.6-0.1l-3.4-0.9l-3.4-0.9c-0.4-0.1-0.8-0.7-1-1
	C866.4,1126.9,866.4,1125.2,866.3,1123.6L866.3,1123.6z M1297,476.6l-0.6-0.1c-2.4,0.5-4,3.2-5.3,4.9L881,989.2
	c-1.4,1.7-2.8,3.4-3.9,5.3c-2.3,4.1-3.6,8.9-3.9,13.5l-0.1,1.6v115.7c0,2,0.1,4.5,1.9,5.7 M983.8,870.6c-2.2,2.8-3.6,6.1-4.4,9.6
	c-0.5,2.1-0.8,4.3-0.8,6.5l0.1,1.3c0.1,1.2,0.4,3.4,1.8,3.8h0.6 M882.4,1109.4c-0.1-0.8,0-1.8-0.8-2.3c-0.9,0-1.5,0.9-1.9,1.7
	c-1,1.8-1.5,3.9-1.6,6 M895.3,1054.9l-2.7,3.3v31.1 M916.6,1028.5l-2.7,3.4v31 M1060.9,849.9l-2.6,3.3v31 M1082.2,823.5l-2.6,3.3
	v31.1 M1181,626.5c-2.2,2.8-3.6,6.1-4.4,9.6c-0.5,2.1-0.9,4.3-0.9,6.5l0.1,1.4c0.1,1.2,0.3,3.4,1.8,3.7l0.6,0.1 M1258.1,605.8
	l-2.7,3.2v31.1 M1279.4,579.4l-2.7,3.3v31.1 M981,891.8c1.7-0.5,2.7-1.9,3.6-3.4c2.2-3.7,3.4-8.2,3.7-12.5l0.1-1.5l-0.1-1.4
	c-0.1-1.2-0.3-3.4-1.8-3.8h-0.7c-0.9,0.3-1.4,0.7-2.1,1.4 M981.6,874.1c-0.2,3.4-1.2,6.7-2.5,9.8 M882.4,1109.4
	c-0.1,2.1-0.5,4.1-1.6,5.9c-0.4,0.8-0.9,1.7-1.9,1.7c-0.8-0.4-0.8-1.4-0.9-2.2 M1258.1,605.8v31l-2.7,3.3 M1279.4,579.4v31l-2.7,3.4
	 M1060.9,849.9v31l-2.6,3.3 M1082.2,823.5v31.1l-2.6,3.3 M895.3,1054.9v31.1l-2.7,3.3 M916.6,1028.5v31.2l-2.7,3.2 M584.2,753.2
	L475,888.3 M481.8,890l102.4-126.7 M475,888.3l6.8,1.7 M893,370.7l6.8,1.8 M481.2,1012.4l-1,1.1 M473.5,1011.7l6.7,1.8
	 M473.5,1011.7V906.6 M480.2,908.4v105.1 M502.5,876.6l-4.1-1.1 M524.6,849.3l-4.2-1.2 M531.5,834.5l4.1,1.1 M542.5,820.8l4.2,1.1
	 M553.6,807.1l4.1,1.2 M564.6,793.5l4.2,1.1 M575.6,779.8l4.2,1.1 M513.6,862.9l-4.2-1.1 M679.2,657.9l-4.2-1.1 M712.3,616.9
	l-4.2-1.1 M719.2,602.1l4.2,1.1 M730.2,588.4l4.2,1.1 M741.3,574.7l4.1,1.2 M752.3,561.1l4.2,1.1 M763.3,547.4l4.2,1.1 M774.4,533.7
	l4.2,1.2 M785.4,520l4.2,1.2 M796.4,506.4l4.2,1.1 M807.5,492.7l4.1,1.1 M818.6,479l4.1,1.2 M829.6,465.4l4.1,1.1 M840.6,451.7
	l4.2,1.1 M851.7,438l4.2,1.1 M866.9,425.5l-4.2-1.2 M895.8,383.4l4.2,1.1 M888.9,398.2l-4.1-1.2 M873.8,410.7l4.1,1.1 M697.1,629.4
	l4.1,1.1 M690.2,644.2l-4.1-1.1 M905.3,388.6v-12.2c0-1.7-0.1-4.1-1.4-5.3l-0.6-0.4l-3.4-0.9l-3.4-0.9l-0.6-0.1
	c-2.4,0.5-4,3.2-5.3,4.9L667.9,649.5l-2.3,2.9 M672.9,668.8c-0.6-1.7-0.5-3.3-0.2-5c0.4-3,1.4-6.2,3.4-8.6 M683.5,653.6
	c-0.2-4.2,1-8.7,3.6-12 M694.6,639.9c-0.2-4.1,0.9-8.7,3.6-12 M705.6,625.2c0.2-3.9,1.2-7.9,3.6-10.9 M720.3,600.6
	c-2.4,3-3.6,7.2-3.6,10.9l0.1,1c0.1,0.8,0.3,2.5,1.5,2.5l0.4-0.1 M731.3,586.9c-2.4,3-3.6,7.2-3.6,10.9l0.1,1
	c0.1,0.8,0.3,2.5,1.5,2.5l0.5-0.1 M742.3,573.2c-2.4,3-3.6,7.2-3.6,10.9l0.1,1c0.1,0.8,0.3,2.5,1.5,2.5l0.5-0.1 M750.9,573.9
	c-1.3-1.1-1.2-3.1-1.1-4.6c0.3-3.4,1.4-7.1,3.6-9.8 M760.9,557.9c-0.2-4.1,0.9-8.7,3.5-12 M773.4,546.7c-1.4-0.3-1.5-2.3-1.5-3.5
	c0-3.8,1.2-7.9,3.6-10.9 M784.4,533c-1.4-0.4-1.5-2.3-1.5-3.5c0-3.8,1.3-8,3.6-10.9 M795,519.2c-1.3-1-1.2-3.1-1-4.6
	c0.3-3.4,1.4-7,3.6-9.8 M806.1,505.5c-1.3-1-1.2-3.1-1.1-4.5c0.3-3.5,1.4-7.1,3.6-9.8 M816,489.5c-0.2-4.1,1-8.7,3.6-12
	 M827.5,477.4c-0.6-1.6-0.5-3.3-0.3-5c0.4-3.1,1.5-6.2,3.4-8.6 M838.3,463c-0.7-4.3,0.7-9.4,3.4-12.9 M849.1,448.5
	c-0.2-4.1,1-8.7,3.6-12 M860.1,433.8c0.2-3.9,1.2-7.9,3.6-10.9 M871.3,421.1c-0.2-4.1,0.9-8.7,3.5-11.9 M882.3,406.4
	c0.1-3.9,1.1-7.9,3.6-10.9 M893.3,393.8c-0.2-3.6,0.7-7.3,2.5-10.4c0.3-0.6,0.7-1.1,1.1-1.5l0.5-0.6l0.5-0.3c1.4-0.6,1.9,1.4,2,2.4
	l0.1,1 M903.4,370.7l-0.6-0.1c-2.4,0.4-4,3.2-5.4,4.9L667.9,659.7l-2.3,2.9 M500,873.5c-1.2,1.2-2,2.6-2.7,4.2
	c-0.9,2.3-1.4,4.7-1.5,7.3 M507.3,873.8c-0.6-1.6-0.5-3.2-0.3-4.9c0.5-3.1,1.5-6.2,3.4-8.6 M517.9,858.6c-0.2-4.2,1-8.7,3.6-12
	 M530.5,847.4c-1.5-0.3-1.5-2.3-1.5-3.5c0-3.8,1.2-8,3.6-10.9 M540,831.3c-0.2-4.1,0.9-8.7,3.6-12 M554.7,805.6
	c-2.4,3-3.6,7.2-3.6,10.9v1c0.1,0.8,0.3,2.5,1.5,2.5l0.5-0.1 M563.6,806.4c-1.4-0.3-1.5-2.3-1.5-3.5c0-3.8,1.2-8,3.6-10.9
	 M574.6,792.7c-1.4-0.3-1.5-2.3-1.5-3.5c0-3.7,1.2-7.9,3.6-10.9 M584.2,775.9v-0.8 M495.8,884.9l0.1,1.1c0.1,1,0.5,3,2,2.4l0.5-0.3
	l0.5-0.5l0.6-0.7c1.9-2.5,2.8-6,3-9.1c0.1-1.4,0.3-4.2-1.5-4.7c-0.7,0.1-0.3,0-1,0.4 M510.5,860.3c0.4-0.3,0.6-0.6,1-0.8
	c1.4-0.6,1.9,1.4,2,2.4v1c0,3.2-0.9,6.7-2.5,9.4c-0.6,1.1-1.4,2.2-2.7,2.4c-0.6-0.2-0.8-0.4-1.1-1 M517.9,858.6
	c0.1,0.6,0.1,1,0.4,1.5l0.3,0.5c1,1.2,2.3-0.3,2.9-1.1l0.6-0.9c1.6-2.7,2.5-6.2,2.5-9.4c0-1.3,0-3.2-1.5-3.5
	c-0.7,0.1-1.1,0.4-1.6,0.9 M532.6,833c0.4-0.3,0.6-0.6,1-0.8c1.5-0.6,1.9,1.5,2,2.4v1c0,3.2-0.9,6.6-2.5,9.4
	c-0.6,1.1-1.4,2.2-2.6,2.4 M543.6,819.3c0.4-0.3,0.6-0.6,1-0.8c1.4-0.6,1.9,1.4,2,2.4v1c0,3.2-0.9,6.6-2.5,9.4
	c-0.6,1.1-1.4,2.2-2.7,2.5c-1.2-0.3-1.3-1.5-1.5-2.5 M554.7,805.6c0.4-0.3,0.6-0.6,1.1-0.8c1.4-0.6,1.9,1.4,2,2.4v2.2
	c-0.2,2.5-0.9,5-2,7.2c-0.6,1.4-1.4,2.6-2.7,3.4 M565.7,792c0.4-0.3,0.6-0.7,1.1-0.8c1.4-0.6,1.9,1.4,1.9,2.4l0.1,1
	c0,3.2-0.9,6.6-2.5,9.4c-0.6,1-1.4,2.2-2.7,2.4 M576.7,778.3c0.4-0.4,0.6-0.6,1.1-0.8c1.4-0.6,1.9,1.4,1.9,2.4l0.1,1
	c0,3.2-1,6.6-2.5,9.4c-0.7,1.1-1.4,2.2-2.7,2.4 M672.9,668.8c0.2,0.3,0.3,0.6,0.6,0.8c1,0.5,2.1-0.8,2.6-1.5l0.5-0.8
	c1.6-2.8,2.5-6.2,2.5-9.4c0-1.2,0-3.2-1.5-3.6c-0.7,0.2-1,0.5-1.6,0.9 M687.2,641.6c0.3-0.4,0.6-0.6,1.1-0.8
	c1.4-0.6,1.9,1.5,1.9,2.4v1c0,3.2-0.9,6.6-2.5,9.4c-0.6,1.1-1.4,2.2-2.6,2.5c-1.2-0.3-1.3-1.4-1.5-2.5 M694.6,639.9
	c0.1,0.6,0.1,1,0.4,1.6l0.3,0.6c1,1.2,2.4-0.4,2.9-1.2l0.6-0.8c1.6-2.8,2.5-6.2,2.5-9.4c0-1.3,0-3.2-1.5-3.5c-0.7,0.1-1,0.4-1.5,0.9
	 M705.6,625.2l0.1,1c0,0,0.5,3,2,2.4l0.5-0.3l0.6-0.6l0.5-0.6c1.9-2.6,2.8-6,3-9.1c0.1-1.4,0.3-4.3-1.5-4.7c-0.7,0.2-1,0.4-1.5,0.9
	 M720.3,600.6c0.4-0.3,0.6-0.6,1.1-0.8c1.4-0.6,1.9,1.4,1.9,2.4l0.1,1l-0.1,1.1c-0.2,2.5-0.8,5-1.9,7.3c-0.6,1.3-1.4,2.6-2.7,3.4
	 M731.3,586.9c0.4-0.3,0.6-0.6,1.1-0.8c1.4-0.6,1.9,1.4,2,2.4v2.1c-0.2,2.5-0.9,5-2,7.2c-0.6,1.4-1.4,2.6-2.7,3.3 M742.3,573.2
	c0.4-0.3,0.6-0.6,1.1-0.8c1.4-0.6,1.9,1.4,2,2.4v2.2c-0.2,2.5-0.9,5-1.9,7.2c-0.6,1.3-1.4,2.6-2.7,3.4 M753.4,559.6
	c0.4-0.4,0.6-0.6,1-0.8c1.4-0.6,1.9,1.5,2,2.4v1c0,3.2-0.9,6.7-2.5,9.4c-0.6,1.1-1.4,2.2-2.6,2.5l-0.4-0.1 M764.4,545.9
	c0.4-0.3,0.6-0.6,1-0.8c1.5-0.6,1.9,1.4,2,2.4v1c0,3.2-0.9,6.6-2.5,9.4c-0.6,1.1-1.4,2.2-2.6,2.5c-1.2-0.3-1.3-1.5-1.4-2.5
	 M775.5,532.2c0.4-0.3,0.6-0.6,1.1-0.8c1.4-0.6,1.9,1.4,1.9,2.4l0.1,1c0,3.2-0.9,6.6-2.5,9.4c-0.7,1-1.4,2.2-2.7,2.4 M786.5,518.5
	c0.4-0.3,0.6-0.6,1.1-0.8c1.4-0.6,1.9,1.4,1.9,2.4l0.1,1.1c0,3.2-0.9,6.6-2.5,9.4c-0.7,1-1.4,2.1-2.7,2.4 M797.5,504.9
	c0.4-0.3,0.6-0.6,1.1-0.8c1.4-0.6,1.9,1.4,1.9,2.4l0.1,1c0,3.2-0.9,6.6-2.5,9.4c-0.6,1.1-1.4,2.2-2.6,2.5l-0.5-0.1 M808.6,491.2
	c0.4-0.4,0.6-0.6,1-0.8c1.4-0.6,1.9,1.4,2,2.4v1c0,3.2-0.9,6.6-2.5,9.4c-0.6,1.1-1.3,2.2-2.6,2.4l-0.4-0.1 M819.6,477.5
	c0.4-0.3,0.6-0.6,1-0.8c1.5-0.6,1.9,1.4,2,2.4v1c0,3.2-0.9,6.6-2.5,9.4c-0.6,1.1-1.4,2.2-2.6,2.5c-1.2-0.3-1.3-1.4-1.5-2.5
	 M830.7,463.9c0.4-0.4,0.6-0.6,1-0.8c1.4-0.6,1.9,1.4,2,2.4v1c0,3.2-0.9,6.6-2.5,9.4c-0.6,1.1-1.4,2.2-2.7,2.5
	c-0.7-0.2-0.8-0.4-1.1-0.9 M841.7,450.2c0.4-0.3,0.6-0.6,1.1-0.8c1.4-0.6,1.9,1.4,1.9,2.4l0.1,1.1c0,3.2-0.9,6.6-2.5,9.4
	c-0.6,1-1.4,2.2-2.7,2.4c-0.9-0.2-1-0.8-1.4-1.6 M852.7,436.5c0.4-0.3,0.6-0.6,1.1-0.8c1.4-0.6,1.9,1.4,1.9,2.4l0.1,1
	c0,3.2-1,6.6-2.5,9.4c-0.6,1.1-1.4,2.1-2.7,2.5c-1.2-0.3-1.3-1.5-1.5-2.5 M863.8,422.9c0.4-0.4,0.6-0.6,1.1-0.8
	c1.4-0.6,1.9,1.4,1.9,2.4l0.1,1.1c0,3.2-0.9,6.6-2.5,9.4c-0.6,1.1-1.4,2.2-2.6,2.5c-1.5-0.4-1.5-2.3-1.6-3.5 M871.3,421.1
	c0.1,0.7,0.1,1,0.3,1.6l0.3,0.5c1,1.2,2.3-0.4,2.9-1.2l0.5-0.9c1.6-2.8,2.5-6.2,2.5-9.4c0-1.2-0.1-3.2-1.5-3.5
	c-0.7,0.1-1,0.4-1.6,0.9 M882.3,406.4v1.1c0.1,0.9,0.6,3,2,2.4l0.6-0.3l0.5-0.5l0.6-0.7c1.9-2.6,2.8-6,3-9.1
	c0.1-1.4,0.3-4.2-1.5-4.6c-0.7,0.1-1,0.4-1.5,0.9 M893.3,393.8c0.1,0.7,0.1,1,0.4,1.6l0.3,0.5c1,1.2,2.4-0.4,2.9-1.2l0.6-0.9
	c1.6-2.8,2.4-6.2,2.5-9.4 M806.7,477.7l-316.4-85.2 M492.7,385l319.4,86 M511.6,361.5l319.4,86 M1224.6,553.5l-319.4-86
	 M866.1,455.8l359.3,96.7 M772.3,520.2l-282-76 M1165.9,626.2l-282-75.9 M1164.4,628l-279.3-75.2 M1257.7,606.2l0.2,0.1
	 M1200.3,583.6l-316.4-85.2 M1205.7,576.9L886.3,491 M1279,579.8l0.2,0.1 M831.8,446.5l-3.6-1l-311.5-83.9l-3.6-1h-0.3
	c-1.4,0.5-3,3-3.5,3.8L495,382c-1,1.2-2.3,2.6-3.2,4.1c-1.7,3.2-1.6,6.5-1.6,10v6.9 M490.3,433.6v10.6c0.1,0.8,0.1,1.7,0.6,2.3
	l0.3,0.2l3.6,1l272.5,73.4l3.6,1 M1255.6,639.7v-30.6l2.3-2.8 M1255.6,639.7l2.3-3v-30.4 M1276.9,613.3v-30.5l2.3-2.9 M1276.9,613.3
	l2.3-3v-30.4"/>
<path class="st2" d="M100,1132.3l10.2-10.2"/>
<path class="st0" d="M100,1132.3"/>
</svg>
