<?xml version="1.0" encoding="utf-8"?>
<!-- Generator: Adobe Illustrator 21.1.0, SVG Export Plug-In . SVG Version: 6.00 Build 0)  -->
<svg version="1.1" id="Ebene_1" xmlns="http://www.w3.org/2000/svg" xmlns:xlink="http://www.w3.org/1999/xlink" x="0px" y="0px"
	 viewBox="0 0 1400 1400" style="enable-background:new 0 0 1400 1400;" xml:space="preserve">
<style type="text/css">
	.st0{fill:none;}
	.st1{fill:none;stroke:#000000;stroke-linecap:round;stroke-width:4;}
	.st2{fill:none;stroke:#FFFFFF;stroke-miterlimit:10;}
</style>
<path class="st0" d="M1300,238H100v924h1200V238z"/>
<path class="st1" d="M827.7,893.2l30.7-12.5 M858.4,625.2l-30.7,12.5 M821,630.1l13.9-32.5 M551.3,521.2l-13.8,32.5 M530.9,557.8
	l-3.3-21.6"/>
<path class="st1" d="M102.3,336.6c0.5-9.6,1.4-18.8,4.6-27.9c3-8.7,7.5-16.2,13.2-23.4l13.8-17l6.1-6.4c14.1-13,32.6-19.6,51.5-21.2
	c23.6-1.8,45.4,5.1,67.9,11.1l894.9,240.9l25.1,6.7l11,3.4c22.4,7.9,43,21,60.2,37.3c21.8,20.7,39.1,47.6,44.9,77.4
	c3,15.2,2,30.9,2,46.2v373.6c0,18.1,1.6,36.7-4.5,54c-3,8.7-7.5,16.2-13.2,23.4l-13.8,17l-6.1,6.5c-17.1,15.8-39.1,20.7-61.9,21.5
	c-20.2-1.2-38-6.2-57.5-11.4l-894.9-241c-15.8-4.2-31.9-7.8-46.9-14.4c-42.2-18.4-78.8-55.4-91.9-100.1c-5.4-18.7-4.6-37.1-4.6-56.5
	V362.7C102.3,362.6,102.3,362.6,102.3,336.6L102.3,336.6z M1266,1131.7c4.8-6.3,6.3-7.7,9.8-14.9c9.6-19.8,8-41,8-62.5V680.7
	c0-19.3,1-37.8-4.6-56.5c-13.1-44.7-49.6-81.6-91.8-100.1c-15.1-6.6-31.2-10.3-47-14.5L245.5,268.7c-19.6-5.3-37.3-10.3-57.5-11.4
	c-19.8,0.6-38.6,4.1-54.9,15.8c-6.5,4.7-7.6,6.4-13.1,12.1 M252.6,380.3c-3.4,1.1-6.5,1.4-10.1,1.6c-20.8-2-39.2-17.9-40.7-39.4
	 M344.8,572.2c-2,4.1-3.2,9.1-3.9,13.7l-0.4,6.9"/>
<path class="st1" d="M326.7,609.9c-0.1,1.3,0,3.4,0.4,7.1c4.1,34.9,34.3,64.4,66.8,74.8c17.9,5.6,39.1,5.9,55.1-5
	c22.4-15.3,23.1-44.9,12.8-67.5c-14.8-32.7-47.9-54.4-83.4-57c-20.2,0.7-39.7,8.2-48,28.2C327.9,596.8,327.2,603.1,326.7,609.9z
	 M340.6,592.8c2.2,38,31.1,70.3,66.9,81.7c18.2,5.8,40.9,6.4,56.8-6 M531,814.6l-0.1-1.2l-3.2-21.7V562.3c0-9.7-5.2-33.1,8.1-39.9
	c11.7-6,31.8,3.4,40.7,5.7l233.1,62.7c17.1,4.7,38.5,6.7,46.7,25.1c4.5,10.1,2.1,26.9,2.1,35.4v203.3c0,10.6,5.8,40.2-13.8,41.7
	l-21,1.2h-1.3l-1.3-0.2l-25.2-6.7l-233.1-62.8l-25.2-6.8c-9.9-2.7-8.7-20.5-9.5-26.2l-0.3-3 M823.6,897.5c2.3-0.4,3.9-1.8,4.1-4.3
	V637.7c-0.1-1.7-0.8-3.4-2-4.6c-1.2-1.5-2.8-2.6-4.6-3l-25.2-6.8l-233.1-62.8l-25.2-6.8l-1.3-0.3c-2.3,0-4.5,0.8-5.2,3.2l-0.1,1.1
	v255.6"/>
<path class="st1" d="M1165.5,593.5c-5.5-1.2-2.7-0.7-8.4-1.2c-3.9,0.1-7.6,0.4-11.3,2c-12.7,5.4-15.1,19.9-10.1,31.7
	c5.6,13.8,19.4,24.8,34.3,27c14.2,2,28.1-6.1,28.1-21.4c0-2.7-0.4-5.4-1.1-7.9C1192.8,608.6,1180,598.2,1165.5,593.5L1165.5,593.5z
	 M1147.1,593.9c-1.8,24.9,26.6,48.9,50.8,40.9"/>
<path class="st1" d="M653.5,670.7c-4.9,1.1-6.5,1.2-11.2,3.4c-13.1,5.9-21,19.4-29.5,30l-16.7,20.8c-11.7,14.4-25.5,26.6-25.5,46.1
	c0,10.9,3.5,21.5,9.1,30.8c14.6,25,45.7,44.9,75.5,40.1c20-3.4,28.6-18.3,40.8-33.5l16.9-20.7c7.8-9.8,20.3-21.5,24-34.7
	c3.9-14.4-0.3-29.9-7.7-42.4c-14.6-24.7-41.1-40.3-69.6-40.5C659.6,670,659.6,670,653.5,670.7L653.5,670.7z M600.8,750.4
	c26.7-4.7,53.9,11.4,65.7,35.6c7.8,16.1,7.2,37.8-9.9,47.5c-5.9,3.4-12.3,4.2-18.9,4.7c-23.5-1.5-45.2-15.3-55.6-36.8
	c-7.1-14.6-7.6-34,6.2-44.9C592,753.5,596.2,751.9,600.8,750.4L600.8,750.4z M679.7,828.7c12.8-17.4,10.7-38.6,0-56.6
	c-14.4-24.7-41-40.4-69.5-40.7c-12.3,1.3-21.7,4.8-30.5,13.8"/>
<path class="st1" d="M188.4,785.4c-0.3,1.2-0.3,2.5-0.1,3.9c2.8,20,24.5,37.3,44.6,35.2c2.5-0.3,5-0.8,7.4-1.8
	c16.5-7,14.6-27.2,5.9-39.7c-3.5-5-8.2-9.4-13.5-12.7c-6.4-4.1-13.1-6.1-20.7-6.7c-9.9,0.4-19.6,4.1-22.8,14.4c-1,3-1,4.1-1.2,7.3
	L188.4,785.4L188.4,785.4z M252.6,806.1c-3.4,1-6.5,1.4-10.1,1.5c-20.8-1.9-39.2-17.7-40.7-39.2"/>
<path class="st1" d="M188.4,359.6c-0.3,1.3-0.3,2.5-0.1,3.9c2.8,20.1,24.5,37.3,44.6,35.2c2.5-0.3,5-0.8,7.4-1.8
	c16.5-7,14.6-27.3,5.9-39.7c-3.5-5.1-8.2-9.4-13.5-12.7c-6.4-4.1-13.1-6.1-20.7-6.7c-9.9,0.4-19.6,4.2-22.8,14.5c-1,3-1,4.1-1.2,7.3
	H188.4L188.4,359.6z M252.6,380.3c-3.4,1.1-6.5,1.4-10.1,1.6c-20.8-2-39.2-17.9-40.7-39.4 M1147,1022.8c1.7,23.4,27.1,45.5,51,37.8"
	/>
<path class="st1" d="M1133.1,1039.9c-0.3,1.2-0.4,2.5-0.2,3.9c2.9,19.9,24.7,37.3,44.8,35.2c2.4-0.3,4.9-0.8,7.2-1.8
	c16.5-7,14.6-27.2,5.8-39.6c-3.5-5.1-8.1-9.4-13.3-12.8c-6.4-4.1-13.2-6.1-20.8-6.7c-9.9,0.4-19.5,4.2-22.8,14.6
	c-1.1,3-1,4.1-1.1,7.2L1133.1,1039.9L1133.1,1039.9z M1147,597.1c1.7,23.4,27.1,45.5,51,37.7"/>
<path class="st2" d="M100,1162l22.4-22.4"/>
<path class="st0" d="M100,1162"/>
</svg>
