<?xml version="1.0" encoding="utf-8"?>
<!-- Generator: Adobe Illustrator 21.1.0, SVG Export Plug-In . SVG Version: 6.00 Build 0)  -->
<svg version="1.1" id="Ebene_1" xmlns="http://www.w3.org/2000/svg" xmlns:xlink="http://www.w3.org/1999/xlink" x="0px" y="0px"
	 viewBox="0 0 1400 1400" style="enable-background:new 0 0 1400 1400;" xml:space="preserve">
<style type="text/css">
	.st0{fill:none;}
	.st1{fill:none;stroke:#000000;stroke-linecap:round;stroke-width:3;}
	.st2{fill:none;stroke:#FFFFFF;stroke-miterlimit:10;}
</style>
<path class="st0" d="M1300,135H100v1130h1200V135z"/>
<path class="st1" d="M146.5,943.4l8.2,2.2 M156.7,940.6l937.8,252.5 M1096.9,1225.2l-2.4,2.9 M1096.5,1223.2l8.2,2.2 M1094.5,1228.1
	L156.7,975.7 M154.7,969.6l-8.2-2.2 M1109.5,1225l-0.6-0.1 M1111.7,509.3l-8.2-2.2 M1238.2,791.1l8.3,2.2 M1239.5,798.7l8.2,2.2
	 M1242.9,822.8l-8.1-2.2 M212.1,835.2l912.1,245.6 M1128.5,1092l-8.1-2.2 M1122,1085.9l-913.7-246 M271.8,723.3l-48.9,114.8
	 M208.3,911.8l893.2,240.5 M228.8,920.7l856.2,230.4 M1100.9,1155.4l-5.9-1.6 M1096.9,1188L160.6,935.9 M1104.7,1201.4l-8.2-2.2
	 M178.5,836.2l-8.2-2.2 M160.6,253.2l-7.1-1.9 M717.7,1085.9c0.4-0.6,0.5-0.7,0.7-1.7c0.8-3.9-3.1-6.5-6.2-7.8l-2-0.6l-2.1-0.5
	c-2-0.3-2.4-0.2-4.4-0.3c-4,0.3-8.6,0.9-11.6,4 M705.1,1082.6c3.4,0.1,6.9,0.8,9.7,2.6 M156.7,976.7c-1.8-1.5-3.6-3.2-4.5-5.5
	 M156.7,971.6c-0.3,0.3-0.6,0.5-1,0.6l-4.1-1.2c-2.2-0.6-4.8-0.2-5.1-2.8l-0.1-0.8v-19.5c0-7.7,0.2-15.4,0.9-23
	c1.4-15.2,4.1-30.3,7.8-45.1c2.3-8.9,4.8-17.7,7.8-26.5c2.8-7.9,5.9-15.8,9.2-23.4l102-240l1.7-4.1 M279.5,598.7l-1.7,4.1L180.4,832
	c-3.3,7.7-6.4,15.6-9.1,23.5c-3,8.7-5.5,17.5-7.8,26.5c-3.8,14.8-6.5,29.9-7.8,45.1c-0.7,7.6-0.9,15.4-0.9,23v19.5
	c0,0.9,0,2.1,1.1,2.5 M1099.2,1226.1v5.4l-0.7,0.8c-0.7,0.6-1.2,0.8-2.1,0.9l-4.4-1.2L162.9,981.9c-1.8-0.5-4.9-0.4-5.8-2.6l-0.3-1
	l-0.2-1.2l-0.1-1.3v-35l3.8-4.7 M1096.7,1190.3l-2.2,2.8v35c0,1.8,0,4.2,2,5.1 M1099.2,1231.5c1.4,0.2,1.8,0.4,3.2,0.4
	c2.8-0.1,5.5-1.5,6.6-4.1c0.5-1.2,0.5-2.4,0.5-3.7 M1109.5,1225l2.9-3.5l40.1-49.7l2.9-3.5v-0.9l2.4-2.9l0.5-0.7
	c2.1-3.5,1.9-7.4,1.9-11.4v-17.3l0.1-2.5c0.3-5.7,1.7-11.4,3.6-16.7l1-2.6l1.7-4.2L1273.3,858c13.4-31.6,22.8-65.2,25.1-99.6
	c0.7-10.8,0.8-21.7-0.6-32.5c-0.7-5-1.6-10.1-3.3-14.9c-1-3-2.5-6-3.9-8.9l-94-198.2l-1.9-4.1 M1108.3,1228.9l2.8-3.6l40.2-49.7
	c1.5-1.9,3.4-3.5,3.8-6l0.2-1.4 M1154.8,415.7c-1.3-2.8-2.5-6.1-5-8.1c-1.9-1.6-3.6-1.7-6.1-2.3l-4.1-1.1l-2.1-0.6l-2.3,0.3
	c-4.3,1-7.8,4.5-10.5,7.8c-3.1,3.7-5.7,8-8,12.3c-3.3,6.1-6,12.6-8.2,19.2c-3.4,10-5.9,20.3-7.2,30.7c-1.1,8.9-1.7,18.2,0.2,27
	c0.8,3.7,2.3,7,4,10.4l130.8,275.8l2,4.1l0.6,1.4c0.6,2,0.7,4.1,0.7,6.2c0,6.6-1.5,13.1-3.7,19.2l-1,2.7l-1.8,4.2l-110.8,260.9
	c-6.1,14.3-11.4,28.9-15.4,43.9c-4.6,16.7-7.8,33.9-9.4,51.1c-0.7,7.7-0.9,15.3-0.9,23.1v14.9c0,1.1-0.3,4.4,0.2,6.1
	c0.6,1.8,4.1,1.8,5,2.1c1,0.3,3.6,1.9,4.9,0.8l0.4-0.5l2.4-3 M1147.9,406.4l-2.2-0.5l-2.3,0.2c-4.3,1-7.8,4.6-10.5,7.8
	c-3.1,3.8-5.7,8-8,12.3c-3.3,6.1-5.9,12.6-8.2,19.2c-3.4,10-5.9,20.3-7.2,30.7c-1.1,8.9-1.7,18.2,0.1,27c0.8,3.8,2.4,6.9,4,10.4
	l130.8,275.8l2,4l0.6,1.5c0.8,2.8,0.8,5.8,0.6,8.7c-0.4,5.7-1.7,11.4-3.6,16.7l-1.1,2.7l-1.8,4.1l-110.8,260.9
	c-6.1,14.3-11.3,28.9-15.4,43.9c-4.5,16.7-7.8,33.9-9.3,51.2c-0.7,7.7-0.9,15.4-0.9,23v19.4c0,1,0,2.2,1,2.5 M212.1,835.2l-3.8,4.7
	v72.6c-0.3,2.5-2.2,4.1-3.8,6l-16.6,20.6l-2.8,3.5 M208.3,907.7c-0.8,1.5-2.1,2.5-3,3.9v0.9l-2.8,3.5l-17.9,22.1l-2.9,3.5
	 M205.3,912.5c0.4,2.9,4.2,3,6.4,3.6l2.8,0.7l4.4,1.2 M198,150.7l-0.2-0.1l-4.1-1.1l-4.1-1.1l-2.1-0.5l-2.3,0.2
	c-4.3,1-7.8,4.5-10.5,7.8c-5,5.9-8.6,12.9-11.7,20c-5.9,13.4-9.8,27.6-11.7,42.1c-1.1,8.9-1.7,18.2,0.2,27.1c0.8,3.7,2.3,6.9,4,10.4
	l3.1,6.7l2,4.1 M197.8,150.6l-2.2-0.5l-2.4,0.2c-4.2,1-7.7,4.5-10.4,7.8c-3.7,4.4-6.7,9.5-9.3,14.7c-7.4,14.7-12,31-14.2,47.3
	c-0.9,7.7-1.4,15.5-0.4,23.1c0.4,3.6,0.6,3.9,1.5,7.2 M348.2,504.4c1-14.6,1.3-29.6-2.2-43.9c-1.2-5-3.2-9.6-5.4-14.3L216.4,184.4
	l-2-4.1 M676.2,751.3v-5.6 M799,784.3v-5.5 M166.7,282.2l47.7-59 M160.6,280.6l6.1,1.6 M173.8,395.1l-5.1-2.6 M180.9,441.3l5.3,2.5
	 M278.6,583.6l-5.2-2.5 M274.1,659.7l-5.3-2.5 M264.4,681.4l-5.2-2.5 M259.5,702.2l-5.2-2.5 M254.3,704.6l5.2,2.6 M370.9,630.5
	l-111.4,76.7 M268,722.3v-5.5 M377.8,641.3L268,716.8 M258.1,715.8l3.6-2.2 M1109.9,945.2l-4.6-4.5 M1109.5,908.9l6.6,0.7
	 M1114.8,936.3l-6.7-0.7 M1108.1,930.7l6.7,0.7 M1091.7,543.6l18.8-21.9 M1109.9,520.6l-12.7,15.8 M1085,543.6l6.6,0.6
	 M1086.4,539.4l5.3,4.2 M1098.3,533.1l11.1-13.8 M1098.3,533.1l-6.1-1.7 M1091.9,532.3l5.3,4.1 M1110.6,522.1l-19,22.1
	 M1112.1,885.4l6.6,0.6 M1119.9,809l-6.6-0.6 M1088.3,686.7l6.7,0.7 M1091.6,641.1l-6.6-0.7 M1109.9,662.3h-1.1 M1092.2,485.8
	l6.1,1.6 M166.7,236.6l-6.1-1.7 M241.5,429.7l-4-1.9"/>
<path class="st1" d="M648.5,752.4c0.1-1.6,0-2,0.6-3.5c1.4-3.5,4.9-5.9,8.2-7.3c6.3-2.8,13.7-3.3,20.4-2.1c3.6,0.6,7.2,1.8,10.3,3.9
	c1.3,0.8,2.4,1.7,3.4,3c0.9,1,1.5,2.1,1.9,3.4c1.8,5.9-3.7,10.5-8.5,12.6l-2.6,1c-3.8,1.3-7.8,1.6-11.8,1.7
	c-4.9-0.3-9.7-0.9-14.2-3.2c-2.7-1.3-5.3-3.2-6.8-5.9C648.8,754.4,648.8,754,648.5,752.4L648.5,752.4z M667.9,758.5
	c4.1,0.5,8.4,0.3,12-2c0.7-0.5,1.4-1.1,2-1.8l0.7-1l0.4-1.1c0.8-3.8-3.7-6.2-6.7-7c-1.9-0.5-3.6-0.6-5.5-0.6c-3.3,0.2-6.8,0.8-9.3,3
	c-2.2,2-2.7,4.9-0.5,7.1c0.6,0.7,1.5,1.2,2.3,1.7C664.6,757.8,666.2,758.1,667.9,758.5L667.9,758.5z M681.9,754.7
	c-2.6-3.4-7.3-4-11.3-4.1c-2.9,0.2-5.7,0.6-8.2,2.2c-0.8,0.5-1.7,1.2-2.2,1.9"/>
<path class="st1" d="M771.4,785.5c0.3,1.6,0.2,2,1.1,3.5c1.9,3.4,5.6,5.6,9.3,7c6.5,2.4,13.9,2.7,20.7,1.2c3.4-0.8,6.8-2.1,9.6-4.3
	c1.1-0.9,2.2-1.9,3-3.1c0.7-1,1.2-2.2,1.4-3.4c1.1-6.2-5.3-10.4-10.2-12.2c-3.8-1.5-7.7-1.9-11.7-2.1l-3.1,0.1
	c-4.7,0.3-9.4,1.3-13.5,3.7c-2.5,1.4-4.8,3.5-6,6.2C771.4,783.4,771.5,783.8,771.4,785.5L771.4,785.5z M789.8,778.5
	c4.5-0.7,9.7-0.6,13.5,2.2c0.7,0.5,1.3,1.1,1.8,1.9l0.5,1c1.3,3.7-2.9,6.3-5.8,7.3c-1.8,0.6-3.5,0.8-5.3,0.9c-3.5-0.1-7-0.5-9.9-2.7
	c-0.7-0.5-1.3-1.1-1.8-1.9c-1.7-2.7,0.1-5.4,2.5-7C786.7,779.4,788.2,779,789.8,778.5z M804.8,787.7c-2.6-3.4-7.3-4-11.2-4.1
	c-2.9,0.2-5.7,0.6-8.2,2.2c-0.7,0.5-1.7,1.2-2.1,1.9 M1115.1,839.8l-4.4-1.2L382.8,642.7c-3.1-0.9-5-1-7.3-3s-4-4.8-4.4-7.8
	l-0.1-1.4V568c0-8.9-0.3-18-2.5-26.7c-1-4.1-2.5-8.3-4.3-12.1c-1.6-3.1-3.5-6-5.4-8.9L249,354.3l-2.5-3.8v-56.4c0-2.2,0.2-4.8-0.3-7
	s-1.8-4.7-2.7-6.7c-3.4-7.8-6.5-15.6-10.6-23.1L216.8,228l-2.1-4c-0.2-0.3-0.3-0.6-0.3-1v-41.1c0-6.9,0.1-13.9-2-20.5
	c-0.9-2.7-2.1-5.5-4.2-7.4c-1.5-1.3-2.1-1.3-3.9-1.8l-6.2-1.7l-2.2,0.1c-4,0.7-7.3,3.8-9.9,6.7c-4.8,5.3-8.4,11.7-11.4,18.1
	c-7.2,15.2-11.8,31.9-13.4,48.6c-0.6,5.1-0.6,10.2-0.6,15.2v41.1l0.1,1.3c0.5,2.4,2.1,4.7,3.1,6.7l1.2,2.1l2.1,4l0.8,0.5l0.7,0.6
	l2.6,1.2l2.5,1.3l4.5-0.6l63.6-7.5l4.5-0.6 M245.3,284.6l-4.5,0.6l-63.8,7.6l-4.6,0.5l-5.3,1.4 M204.3,152.4l-2.2,0.1
	c-4,0.6-7.3,3.7-9.9,6.6c-4.8,5.3-8.3,11.6-11.4,18c-4.3,9-7.5,18.5-9.9,28.1c-1.7,6.8-3,13.8-3.7,20.8c-0.5,5.1-0.5,10.1-0.5,15.3
	v41.1l0.1,0.6l0.2,0.4l2.2,4c1.3,2.4,2.9,4.8,3.9,7.4c1.1,2.7,0.8,5.3,0.8,8.2v87.8c0,4.2,0,8.5,0.3,12.7c0.4,7.5,1.7,15.1,3.8,22.4
	c1.3,4.3,2.9,8.6,5,12.7c1.6,3.2,3.7,6.3,5.7,9.3l87.5,132.3c2.7,4,5.2,8.1,6.7,12.8c2.8,8.7,2.9,18.2,2.1,27.2
	c-1.1,11.2-3.9,22.1-7.8,32.6c-3.2,8.4-7.2,16.6-10.8,24.9c-1.7,3.7-3.3,7.3-4.5,11.2c-1.4,4.4-2.1,9-2.2,13.6
	c-0.1,3.5-0.3,6.9,1.4,10.1l0.7,1.3c0.3,0.4,1.9,1.4,2.4,1.6c2.5,1.5,5.5,2.1,8.4,2.8l822.9,221.6c2,0.5,4.7,1.5,6.9,1.6
	c0.8,0.1,1.5,0,2.3-0.2c1.9-0.5,3.2-2.3,3.6-4.2c0.2-1,0.2-2.9,0.2-3.6v-5.7l0.1-3.5l0.2-3.6l0.6-7.5c1.1-11.7,2.6-23.4,3.7-35.2
	c1-11,1.8-22,2.1-33.1c0.2-8.4,0.3-16.8-0.3-25.1c-0.4-5.3-1.2-10.3-2.3-15.5l-23.2-112.8c-1.4-7-2.5-14-3.1-21
	c-1-11.4-1.1-22.8-1.1-34.3V544l0.1-1.2c0.4-2.6,2.5-4.6,4-6.6l2.8-3.6l0.2-0.6l0.1-0.3v-45.6c0.1-14,2.8-28,7-41.3
	c3.2-10.2,7.3-20.2,13.1-29.1c2.5-3.8,5.2-7.6,8.8-10.5c2-1.6,4.4-3.1,7-3.4c1.9-0.2,3.1,0.4,5,0.9l2.8,0.8l2.1,0.6 M168.7,295.7
	V388c0,4.2-0.1,8.4,0.2,12.6c0.6,9.8,2.4,19.9,6.1,29c2.1,5.5,5.2,10.5,8.5,15.4L271,577.3c1.7,2.5,3.5,5.2,4.8,8
	c3.7,7.8,4.6,16.8,4.4,25.3c-0.3,13.4-3.5,26.7-8.2,39.3c-3.7,9.8-8.5,19.3-12.6,29c-2,4.6-3.5,9.3-4.3,14.2c-0.5,3-0.6,6-0.6,9.1
	c0,1.4-0.1,2.9,0.2,4.3c0.3,2.6,1.3,5.2,2.5,7.5l1.1,1.9l1.7,1.7c2.4,2.1,5.2,3.9,8.2,4.8l4.4,1.2l822.9,221.6
	c3,0.8,5.8,1.7,8.9,1.6c1.4-0.1,2.8-0.3,4.1-0.7c1.4-0.5,2-0.9,3.2-2c1.2-1.2,2.3-2.7,2.8-4.3c0.6-1.9,0.6-3.9,0.6-5.9v-5.8
	c0.1-3.6,0.3-7.2,0.6-10.8c1-13.1,2.9-26.1,4.1-39.2c1.7-17.6,2.7-35.4,2-53.1c-0.2-4.1-0.4-8.2-1-12.2l-0.6-3.7l-0.9-4.4
	L1096.2,692c-1.5-7-2.6-14-3.2-21.1c-1-11.3-1.1-22.8-1.1-34.2v-92.6l0.1-0.3l2.7-3.6c1.2-1.5,3.3-3.6,3.7-5.7l0.1-1.2v-41.1
	c0-5.1,0.1-10.2,0.6-15.3c0.9-9,2.8-18,5.3-26.7c2.7-9.3,6.1-18.4,10.7-26.9c2.5-4.7,5.3-9.3,9-13.3c2.5-2.9,5.9-5.9,9.8-6.6
	l2.2-0.1 M214.7,224.1l-2.9,3.5l-42,52.1l-2.8,3.5l-5.4,1.4 M378.4,641.5l0.7-0.7c1.8-1.5,4.2,0.1,6.2,0.6l725.4,195.3l4.4,1.2
	 M1099.6,946.2v-5.5l1.4-4.3l7.2-23.6l1.3-4.3 M1114.8,936.3l1.3-4.4l27.5-89.9l1.3-4.3v-62.5c0-10.7-0.1-21.5-1.2-32.2
	c-0.5-4.8-1.3-9.5-2.3-14.3l-29.2-142.1l-0.9-4.4v-58.9 M1114.2,939.7l1.3-4.4l27.4-89.7c0.8-2.8,1.7-5.1,2-7.9 M1109.1,664.2
	c-0.4-0.7-0.3-1.9-0.3-2.7c0.1-1.6,0.2-3.2,0.5-4.7c0.2-0.9,0.3-2,0.8-2.7 M1109.3,664.2c0.6-0.6,0.7-1.8,0.9-2.6
	c0.3-1.6,0.4-3.2,0.5-4.7c0-0.9,0.1-2-0.3-2.8"/>
<path class="st1" d="M237.5,429.5c-0.2-1.2-0.1-2.2,0.3-3.3c0.3-1,0.8-1.8,1.4-2.6c0.9-1.1,3.3-3.2,4.4-1.2l0.2,0.6
	c0.2,0.8,0.2,1.6-0.1,2.4c-0.5,2.4-2.1,5.3-4.7,5.6C238.1,430.8,237.9,430.4,237.5,429.5L237.5,429.5z M639.8,1056.1l2.2,1.7
	 M666.8,1054.9l-2.2,1.9 M644.6,1061.4c-0.8-0.6-1.4-1.1-1.9-1.9c-1.6-2.6,0.1-5.2,2.3-6.7c4.1-2.5,9.7-2.7,14.2-1.2
	c2.1,0.7,4.4,2.1,5.2,4.3c0.3,0.7,0.2,0.9,0.2,1.8 M631.8,1062.8c0-4.1-0.7-8.4,2-11.9c2.4-3.1,6.3-5,10-6.1
	c6.4-1.9,13.5-1.8,19.9,0.3c3.2,1,6.4,2.7,8.6,5.2c1.1,1.3,2.2,3.3,2.4,5.1v9.9c0,3.1,0.4,6-1.4,8.6 M674.7,1056.7
	c-0.2,1.2-0.1,1.4-0.5,2.5c-1,2.4-2.9,4.2-5,5.5c-3.3,2.1-7.2,3.2-11.1,3.7c-1.8,0.3-2.2,0.2-4.1,0.3 M636.4,1064
	c-2.2-1.7-4.2-3.8-4.5-6.7c-0.1-1.1,0-1.4,0.2-2.5"/>
<path class="st1" d="M651.8,1043.8c6.3-0.1,13.3,0.8,18.3,5.1c0.8,0.6,1.4,1.3,2,2.1c0.5,0.7,0.9,1.5,1.2,2.3
	c1.8,5.8-3.9,10.1-8.6,11.8l-1.8,0.6c-3.3,1.1-6.8,1.3-10.2,1.4c-5.2-0.2-10.5-1.1-14.9-4.2c-3-2-5.5-5.3-4.6-9.2
	c0.2-0.8,0.6-1.6,1-2.4c0.7-1.3,1.9-2.3,3-3.2c1.4-1,3-1.9,4.6-2.5C645,1044.5,648.3,1044,651.8,1043.8L651.8,1043.8z M640.4,1058
	c-0.4-0.8-0.6-1-0.6-1.9c-0.4-3.4,2.8-5.8,5.4-6.9c5.3-2.3,12.1-2.2,17.2,0.5c0.8,0.4,1.5,0.9,2.2,1.5c0.6,0.5,1.1,1.1,1.5,1.8
	c0.3,0.6,0.6,1.2,0.6,1.9c0.6,3.9-3.7,6.3-6.9,7.4c-2.1,0.7-4.3,0.9-6.5,1C648.6,1063.1,643.4,1062.1,640.4,1058z M631.9,1062.8
	v-2.8c0-1.3-0.6-3.5,1.1-3.7 M662,1061.4c1.7-1.2,2.6-2.6,2.6-4.6 M673.5,1054.6c0.5,0.1,0.8,0.2,1.1,0.6 M1098.3,1172.8l-0.7,0.6
	 M1075.1,1174.4l-2.3-1.8 M1098.7,1168.9c-0.3-0.4-0.7-0.8-1.1-1.1 M1097.3,1181.9c-3.8,1.3-7.6,1.8-11.6,1.8
	c-5.7-0.2-11.8-1.3-16.2-5.1c-0.7-0.6-1.4-1.3-2-2.1c-0.5-0.7-1-1.5-1.2-2.4c-1.8-5.7,4-10.2,8.7-11.9 M1097.9,1176.2
	c-3.3,2.7-7.2,3.5-11.4,3.7c-4-0.2-8.4-0.8-11.5-3.6c-0.5-0.5-1.1-1.1-1.4-1.8c-1.4-2.4-0.5-5.1,1.5-6.8 M1075,1162
	c-4.2,1.4-9,4.6-10,9.2c-0.5,2.6-0.2,5.5-0.2,8.2 M1065,1171.4c-0.2,1.1-0.2,1.3-0.1,2.5c0.4,2.9,2.3,5,4.5,6.7 M1066.1,1172.9
	c-1.8,0.3-1.1,2.4-1.1,3.7v2.7 M1075.1,1173.5c0,2,0.9,3.4,2.5,4.6 M1097.6,1173.4c0,2.1-0.9,3.4-2.5,4.7 M1097.6,1162.3l2,0.9
	 M1099.6,1162.8l-2-0.7 M1097.2,1183.7c-3.3,1-6.6,1.6-10.1,1.7 M209,941.2l-2.3-1.7 M231.5,940.2l2.2-1.9 M209,934.5
	c-0.7,0.6-1.3,1.3-1.7,2c-1.8,3.4,0.9,6.6,3.8,8.1c5.4,2.9,13.1,2.9,18.5-0.1c2.9-1.6,5.4-4.8,3.4-8.2c-0.4-0.6-1-1.3-1.5-1.8
	 M240.2,957.4c1.9-2.7,1.5-5.4,1.5-8.6v-4.1c0-3.5,0.4-6.7-1.6-9.7c-0.7-1-1-1.3-1.9-2.1c-0.7-0.8-1.8-1.5-2.7-2.1
	c-1.2-0.7-2.6-1.3-4-1.9 M209,929.1c-1.7,0.6-3.3,1.5-4.8,2.6c-1.2,0.9-2.3,2-3.1,3.2c-0.5,0.7-0.8,1.5-1,2.4
	c-1.4,5.8,4.7,9.9,9.4,11.6c5.2,1.8,11,2.1,16.4,1.3c3.2-0.5,6.3-1.5,9-3.1c1.3-0.9,2.6-1.8,3.6-3c0.6-0.7,1.1-1.4,1.5-2.3
	c0.3-0.8,0.6-1.6,0.6-2.4c0.2-5.2-4.9-8.5-9-10.1 M241.6,938.7c-0.2-0.5-0.6-0.6-1.1-0.6 M221,952.2c1.8-0.1,2.2-0.1,4.1-0.3
	c3.9-0.5,7.8-1.6,11.1-3.7c2.1-1.3,4-3.2,5-5.5c0.4-1.1,0.4-1.4,0.6-2.5 M231.5,940.2c0,2.1-0.9,3.5-2.6,4.6 M211.5,944.9
	c-1.7-1.1-2.5-2.6-2.6-4.5 M209,928.8c-5.3,1.7-11.8,6.8-9.8,13.1c0.2,0.9,0.7,1.7,1.2,2.5c0.8,1.2,1.9,2.1,3.1,3 M198.8,946.2v-2.8
	c0-1.3-0.6-3.5,1.1-3.7 M199,938c-0.4,2.7-0.2,5.5-0.2,8.2 M765.1,1083.9l1.1,2.9v8.5"/>
<path class="st1" d="M784.2,1095.5c-4.1,2.6-8.5,3.6-13.3,3.6c-2.5-0.1-5-0.3-7.4-1c-4-1.1-9.5-3.9-9.4-8.8c0-0.7,0.2-1.5,0.4-2.1
	c0.3-0.8,0.7-1.5,1.3-2.1c0.6-0.6,1.3-1.3,2.1-1.8c4.7-3.5,11.3-4.2,17-3.4c1.2,0.2,2.4,0.4,3.6,0.7l1.7,0.5
	c3.8,1.4,8.6,4.7,7.7,9.4c-0.2,0.7-0.5,1.4-0.9,2.1C786.2,1093.9,785.3,1094.7,784.2,1095.5L784.2,1095.5z M787.9,1104.8l0.6-1
	c1-2.1,0.6-4.6,0.6-6.8v-6.4c-0.1-1-0.1-1.6-0.3-2.5c-0.6-1.8-1.7-3.1-3.1-4.4c-2.9-2.7-7.3-3.9-11.2-4.3c-1.6-0.2-2.1-0.2-3.7-0.2
	c-4.7,0.2-9.5,1-13.5,3.7c-1.5,1.1-3.1,2.5-3.7,4.3c-1,2.6-0.6,5.3-0.6,8 M764,1094.5c-0.6-0.4-0.8-0.6-1.3-1.2
	c-1.7-2.4,0.2-4.8,2.4-6c3.6-1.7,8.3-1.8,11.8,0c2.3,1.1,4.3,3.5,2.5,5.9c-0.5,0.7-0.7,0.8-1.3,1.3 M772.5,1100.7l0.6-0.1l1.9-0.2
	c4.8-0.6,11.2-2.7,13.4-7.5c0.5-1,0.4-1.2,0.6-2.2"/>
<path class="st1" d="M782.3,1089.8c-1.1,4.8-7,6-11.2,6.2c-2-0.1-4-0.3-5.9-0.9c-2.8-1-6.5-3.5-5.3-6.9c0.2-0.6,0.6-1.2,1-1.7
	c0.4-0.6,1.1-1,1.7-1.5c4.1-2.5,9.7-2.8,14.2-1.2c2.1,0.7,4.4,2.1,5.2,4.2C782.4,1088.8,782.3,1089,782.3,1089.8L782.3,1089.8z
	 M779.9,1097.7c1.2,1.3,0.6,3.9,0.6,5.1 M762,1081.1l-0.2-0.2h-0.1 M752.9,1089.9c0,1,0,1.3,0.3,2.3c0.5,1.7,1.7,2.9,3,4.1
	 M529.6,1020.5l1.2,2.9v8.5"/>
<path class="st1" d="M548.7,1032.1c-4.1,2.6-8.5,3.6-13.3,3.7c-2.5-0.1-4.9-0.3-7.3-1c-4-1.2-9.5-4-9.5-8.9c0-0.8,0.2-1.5,0.5-2.2
	c0.3-0.7,0.7-1.4,1.3-2.1c0.6-0.7,1.3-1.3,2.1-1.8c4.8-3.4,11.3-4.1,17-3.4c1.2,0.2,2.5,0.4,3.6,0.8l1.6,0.5
	c3.8,1.4,8.7,4.7,7.8,9.4c-0.1,0.8-0.5,1.4-0.9,2.1C550.8,1030.4,549.8,1031.2,548.7,1032.1L548.7,1032.1z M552.5,1041.5l0.6-1
	c1-2.1,0.6-4.5,0.6-6.7v-6.3c0-0.9-0.1-1.6-0.3-2.5c-0.5-1.8-1.7-3.1-3.1-4.4c-2.9-2.7-7.3-3.8-11.1-4.3c-1.7-0.2-2.1-0.2-3.8-0.2
	c-4.7,0.2-9.5,1-13.5,3.7c-1.5,1.1-3.1,2.5-3.7,4.3c-1,2.6-0.6,5.3-0.6,8 M528.5,1031.1c-0.6-0.5-0.8-0.6-1.3-1.2
	c-1.8-2.4,0.2-4.9,2.4-6c3.5-1.7,8.2-1.7,11.7-0.1c2.3,1.1,4.3,3.5,2.6,6c-0.5,0.6-0.7,0.8-1.3,1.3 M537.1,1037.3h0.7l1.9-0.2
	c4.8-0.7,11.1-2.7,13.4-7.6c0.4-1,0.4-1.2,0.6-2.2"/>
<path class="st1" d="M546.8,1026.4c-1.1,4.8-7,5.9-11.2,6.1c-2-0.1-4-0.3-5.9-1c-2.8-0.9-6.5-3.4-5.3-6.9c0.2-0.6,0.6-1.2,1-1.7
	c0.5-0.6,1.1-1.1,1.8-1.4c4-2.6,9.7-2.8,14.1-1.2c2.1,0.8,4.4,2,5.2,4.3C546.9,1025.4,546.8,1025.6,546.8,1026.4L546.8,1026.4z
	 M544.5,1034.3c1.1,1.3,0.6,4,0.6,5.1 M526.6,1017.7l-0.3-0.2l-0.1,0.1 M517.5,1026.5c0,1,0,1.3,0.3,2.2c0.5,1.7,1.7,2.9,2.9,4.2
	 M1097.6,1158.4v18 M1050.2,1251.4v-30.7 M1072.6,1262.5v-35.7 M1093.7,1232.4v31.1 M1090.5,1263.1v-31.5 M1118.9,1216.5v38.2
	 M1122.8,1251.7v-35.2 M1075,1174.4c0-5.5-0.2-11.1,0-16.7c0.1-2.4,2.7-3.9,4.6-4.9c4.6-2.6,10.3-2,14.7,0.7
	c0.9,0.5,1.7,1.1,2.4,1.9c0.3,0.5,0.6,1,0.8,1.5c1.1,3.4-2.5,5.8-5.2,6.8c-2.1,0.7-4.3,0.9-6.5,0.9c-1.2-0.1-1.5-0.1-2.6-0.3
	c-3.5-0.6-7.9-2.5-8-6.6 M1093,1152.7c0.7,0.5,1.4,1,2,1.7c1.5,2,0.7,4.2-1.2,5.6c-2.3,1.7-5.2,2.1-8,2.1c-1,0-1.3,0-2.3-0.2
	l-1.1-0.3c-2.5-0.6-6.5-2.7-5.5-5.9c0.2-0.5,0.4-0.9,0.7-1.3c0.6-0.7,1.2-1.1,1.9-1.6 M1091.2,1161.2c1.5,3.8,1,1.5,1,6.9v11
	 M1127.2,1205.5c2.2,2.9,1.8,6.6,1.8,10v28.2c-0.1,0.5-1.7,3-2,3.3c-1.5,2.2-3.4,4.2-5.5,5.8c-4,3.2-9.2,4.3-14,5.8
	c-2.5,0.9-5,1.8-7.5,2.8c-1.8,0.7-3.6,1.5-5.4,2c-2.9,0.6-6.1,0.5-9,0.6c-3.6-0.1-7-0.3-10.6-0.9l-2.5-0.5l-0.8-0.2
	c-1.7-0.6-3.1-1.6-4.5-2.4c-2.1-1.3-4.4-2.4-6.6-3.4c-3.9-1.8-8.3-3.2-11.7-5.9c-2.1-1.7-3.7-3.8-5-6.2c-0.8-1.6-1.3-3.2-1.7-5
	 M1042.1,1218.5v21.2l0.6,1.8c0.5,1.4,1.2,2.7,2,4 M1042.4,1239.5l-0.4,0.1 M1082.7,1232.2c1.2-0.5,2.5-1,3.6-1.7 M1082.7,1232.2
	c-2.5-1.2-4.8-2.7-6.9-4.5 M1072.6,1262.5c3.6,0.4,7-1.5,10.1-3.1c3.3,2.1,6.9,4.1,10.9,4 M1129,1243.7l-0.9-0.2 M1122.8,1251.7
	c2.3-2.5,4-5.1,5.2-8.2 M1128.1,1216.2c0.6-1.8,0.9-3.4,1-5.2 M1118.3,1216.5c3.2-0.1,6.6,0.4,9.7-0.3 M1120.3,1214
	c1.5-1.3,3.1-3.1,4-4.9 M231.5,943.2v-18 M179.3,986.3v18.8 M187.1,1017.8l0.5,0.6 M204.4,1028.9V993 M234,1001v28.3 M209,941.2
	c0-5.5-0.2-11.1,0-16.6c0-2.5,2.6-4,4.5-5c4-2.2,9.4-2.3,13.4-0.1c1.3,0.7,2.7,1.5,3.6,2.7c0.3,0.5,0.6,0.9,0.8,1.5
	c1.1,3.3-2.5,5.8-5.1,6.8c-2.1,0.7-4.3,1-6.5,1c-1.2-0.1-1.5-0.1-2.7-0.3c-3.5-0.6-8-2.5-8-6.6 M226.9,919.5c0.7,0.5,1.4,0.9,2,1.6
	c1.5,2,0.7,4.3-1.1,5.6c-2.3,1.7-5.2,2.1-8,2.1l-2.2-0.2l-1.1-0.2c-2.5-0.6-6.5-2.6-5.5-5.9c0.2-0.5,0.4-0.8,0.7-1.3
	c0.5-0.7,1.2-1.2,1.9-1.6 M214.4,927.7c-1.7,3.7-1.1,1.5-1.1,6.9v11 M251.1,1022.8c-6.5,3.9-14.3,6.8-21.9,6.9
	c-4.3-0.1-8.5-0.3-12.8-0.3l-2.9,0.1h-2.1c-1.8,0-3.6,0-5.4-0.3c-4.2-0.6-8.6-2.2-12.4-4.1c-1.5-0.7-2.6-1.3-4-2.2l-1.7-1.1
	l-0.2-0.2c-0.3-11,0-22,0-33.1 M192.7,993.7c2.6-0.4,5.1-1,7.7-1.8 M176.9,985.6v6.5c0,3.6-0.3,7.2,1.1,10.6c1.1,2.7,3.2,5,4.9,7.3
	c2.3,3,4.3,6.4,4.7,10.2 M187.8,1021.8c1.5,0.5,3.5-0.4,4.8-0.9c3.3,3.7,7,6.7,11.7,8 M192.7,993.7v27.2c0.1,0.3,2.7,2.8,2.7,2.8
	c2.7,2.5,5.6,4.1,9,5.1 M192.7,1020.9v-27.3l-1-1.1c0,0-1.8-2.3-2.5-3.6 M245.8,1021.8l2.2,0.7c0.9,0.2,2.2,0.7,3.2,0.3
	c0.5-0.2,0.5-1.6,0.6-2c0.5-1.9,1.3-3.6,2.3-5.1c1.7-2.8,3.9-5.1,6-7.7 M245.8,1021.8c1.4,0.4,2.8,0.9,4.2,1.1
	c0.2,0,1.4,0.2,1.4-0.4v-16.8 M245.8,1021.8c-3.3,3.6-7.1,6.3-11.8,7.6 M152,212.7l-3.2-0.9 M141.3,193.4l-29.9-8.1 M101.5,210.1
	l44.4,12 M160.1,176.5l2.3,0.7 M156.1,194.9l-5.6-1.6 M109,171.1l42.8,11.5 M144.2,239l-42.8-11.5 M150.5,238.5l-0.9,2.6 M148.3,239
	l2.1-5.1 M144.8,208.1l-42.7-11.5 M154.8,199.9l-5.6-1.6 M154.8,199.9l-5.7-1.5 M170.3,158.1l-0.8,5.1 M172.1,159.3v-0.2 M172.4,157
	l-0.4,2.4 M124,144.4l42.8,11.5 M152.1,247.4c-1.2,1.3-2.1,2.7-3.8,3.3c-0.9,0.3-1.1,0.3-2.1,0.4c-1.3-0.1-2.4-0.2-3.6-0.7l-2.5-1.4
	l-4.3-1.2l-21.2-5.7l-4.4-1.2l-1.1-0.8c-1.5-1.1-2.7-2.5-3.9-3.9c-2.3-2.9-3.7-6.7-4.1-10.4c-0.3-2.6-0.1-5.1,0-7.7
	c0.1-2.7,0.2-5.4,0.2-8.1l0.1-7.2c0-1.5-0.1-3,0.1-4.4c0.8-5.4,2.2-10.9,3.7-16.2c1.2-4.4,2.5-8.8,4.4-13c0.6-1.3,1.4-2.6,2.2-3.8
	c1.7-2.8,3.3-5.6,4.8-8.5c3.2-5.7,5.7-12.2,11.2-16.1c2.1-1.4,4.4-2.5,6.9-3.1c0.6-0.2,3.1-0.6,3.7-0.6l4.3,1.2l21.2,5.7l4.3,1.2
	l2.9,0.1c2.2,0.3,4.4,1.4,5.6,3.5c0.6,1.2,0.6,2.6,1,3.8 M150.5,193.3c0.7-2.1,1.6-4.3,2.7-6.4c1.3-2.2,3-4.2,4.4-6.4
	c1.5-2.2,2.9-4.6,4.1-7l2.6-5.3c1.7-3.6,3.1-7.2,5.9-10 M168.3,145.3c0.5,5.9-1.7,11.2-4,16.5c-3,6.7-6.5,13.3-11.1,19
	c-1.7,2.1-3.7,3.9-5.7,5.8c-2.2,2.1-4.3,4.4-6.3,6.7 M101.8,197.5c0.6-2.1,2-3.9,3.4-5.6c1.9-2.3,4-4.4,6.2-6.5 M109.2,170.2
	c-0.5,1.9-0.3,3.8,0,5.7c0.5,3.2,1.3,6.3,2.2,9.4 M140.2,249c3.3-4.7,4.2-10.3,4.9-15.9c0.6-5.3,0.9-10.7,0.8-16.1
	c-0.1-2.3-0.3-4.6-0.6-6.8l-0.4-2.1c0.1-0.6,1.1-5.9,1.3-6.5c1.4-6.5,3.4-12.8,5.6-19.1 M144.8,208.1c-0.4-2.3-1.2-4.6-1.8-6.9
	c-0.7-2.6-1.2-5.2-1.7-7.9 M149.2,198.3c-0.5,2.3-0.7,4.6-0.8,6.9c-0.1,1.8,0.2,3.6,0.3,5.3c0.3,3.6,0.3,7.2,0.1,10.8l-0.5,5.9
	c-0.4,4-1,7.8,0,11.7 M143.9,250.8l-4.4-1.2l-26.6-7.1c-1.7-0.5-4-0.3-5-1.8 M110.2,240.9c-0.8,0.4-0.4,0.2-1.2,0.4
	c-1.3-0.2-2.1-1.7-2.9-2.6c-2.1-2.9-3.4-6.1-4.4-9.5 M150.4,249.3c-1-0.6-1.2-0.6-2-1.4c-2.5-2.4-3.4-5.8-4.2-8.9 M149.6,241.1
	c0.4,0.3,0.7,0.5,1.3,0.5 M172.4,157c0.9,0,0.4-0.1,1.3,0.2 M177.3,150.5l-1.2-0.1c-3.9,0.5-6.7,2.9-9.3,5.5 M125.6,142.8
	c2.4-2.4,5.1-4.3,8.2-5.6c0.8-0.4,2.4-1.2,3.3-1l4.4,1.2l26.6,7.1l4.4,1.2 M137.1,136.2c0.6,0.3,0.9,0.6,1.3,1.1 M190.5,225.4
	l-2.4-0.6l-2.4-0.6l-0.6-0.4c-1.7-1.3-2-4.2-2.1-6.1c-0.3-6.1,1.2-12.5,3.6-18.1c1.2-2.9,2.7-5.8,4.8-8c0.8-0.8,1.9-1.7,3.2-1.7
	l0.6,0.1l2.4,0.6l2.4,0.6l0.6,0.3c1.7,1.3,2,4.2,2.1,6.1c0.2,4.9-0.8,10-2.3,14.6c-0.6,1.8-1.3,3.6-2.1,5.3
	c-0.9,1.9-1.9,3.8-3.2,5.3c-1.1,1.3-2.3,2.3-4,2.6c-2.9-0.5-3.3-4.2-3.4-6.6v-1.6c0-3.8,0.7-7.5,1.7-11.1c1-3.5,2.3-7,4.2-10.2
	c1.3-2.1,3.4-5.3,6.3-4.8 M1180.1,439.2l-42.7-11.5 M1167,471.7l-42.7-11.5 M1154.2,483.4l-30-8 M1203.4,430.5l-11-2.9
	 M1124.2,509.5L1167,521 M1191.8,505.2l-0.7,1.5c-0.6,1-1.7,1.7-2.5,2.5c-1.3,1.2-2.5,2.5-3.7,3.9c-1.4,1.6-2.7,3.2-4,4.9
	c-2.9,3.6-5.7,7.4-10.4,8.8c-1.6,0.5-3.1,0.7-4.7,0.8c-3.1-0.1-5.9-1-8.9-1.8l-21.2-5.7c-3.3-0.9-6.5-1.4-9-4
	c-1.4-1.5-2.3-3.4-2.6-5.5v-1l0.1-2.9c0-2.6-0.1-5.2-0.4-7.9c-0.3-3.5-0.9-7.1-2.2-10.3l-0.6-1.6c-0.5-0.8-1.1-1.5-1.1-2.5
	c-0.1-2.1,0.4-4.4,0.6-6.4c0.7-5.3,1.4-10.7,2.9-15.7c0.7-2.5,2.4-4.8,3.6-7.1c1.9-3.7,3.6-7.6,5.1-11.4c1.3-3.1,2.3-6.3,3.3-9.4
	c0.8-2.5,1.3-5.3,2.3-7.8c0.6-1.6,1.5-2.9,2.5-4.2c1.7-2.5,3.6-4.8,5.7-6.8l1.3-1.2l0.6-0.5l4.4,1.1l31.3,8.5
	c2.9,0.8,5.5,1.2,7.7,3.1c2.8,2.4,5.4,6.5,9.7,5.7c0.5-0.1,1.1-0.3,1.5-0.6l0.7-0.6c1.3-2.3-4.1-2.4-4.5-2.5l-3.2-0.8l-4.4-1.2
	 M1186.6,424.2c-2.1-0.3-1-0.2-3.3-0.3c-2,0.1-3.6,0.4-5.5,0.9l-30-8.1c-3.6,1.7-6.5,4-8.8,7.3 M1121.2,473.5
	c0.1-3.6,0.6-7.3,1.3-10.9c1.1-5.1,2.7-10.2,4.8-15.1c1.8-4,4-8,7.4-10.9 M1147.8,416.8c0-1-0.1-2,0-2.9 M1120,483.6
	c0.6-3,2.5-5.7,4.2-8.2 M1161.4,526.9c1.3,0,2.3-0.9,3.1-1.9c1.3-1.5,2.4-3.3,3-5.2c0.7-2.1,0.8-4.3,0.8-6.5c0-1.3-0.1-2.6-0.2-3.9
	c-0.4-4-1.4-8.9-4.3-11.9c-1.7-1.7-1.5-1-5.2-2l-34.1-9.1l-4.4-1.2 M1123.5,462.2c-1,4.4-0.3,8.8,0.7,13.2 M1177.8,424.8
	c1,3.6,1.6,7.3,2.1,11c0.3,2.2,0.5,4.4,0.3,6.6c-0.3,2.2-0.8,4.3-1.4,6.4c-1,3.6-2.3,7.2-3.8,10.6c-1.6,3.5-3.3,7.3-5.8,10.2
	c-1.7,2.1-4,3.6-5.9,5.3c-3.1,2.7-6.1,5.6-9,8.5 M1165.6,500.1c0.2-11.2,2.1-22.1,5.2-32.9 M1163,496.8c-4.1-3.6-6.6-8.5-8.8-13.4
	 M1165.6,497.8c11.6-9.3,22.4-19.5,31.3-31.5c2.3-3.2,4.6-6.6,6.7-10l2.3-4c0.1-0.4,0-4.8,0-5.3c-0.2-5.2-1-10.5-3.8-15
	 M1177.8,424.8c3.4-0.9,6.8-1.4,10.2-0.2c1.4,0.5,1.7,0.8,2.9,1.6 M1191.1,506.7l1.1-2.2l2.2-4.5c2.8-6.3,5.2-12.8,7-19.5
	c0.7-2.7,1-5.6,1.4-8.3c0.6-3.9,1.2-7.8,1.9-11.6c0.5-3.1,1.2-6.2,1.5-9.3c0.5-7.1-0.4-14.6-2.9-21.3 M1179.5,445.7
	c3.5-6.3,7.7-13.5,14.6-16.5 M1205.9,452.2l-0.1,2.3 M1168.2,516c1.4,2.6,3.2,5.1,6.5,5.3c0.7,0.1,1.6-0.1,2.3-0.3
	c1.1-0.3,1.5-0.6,2.5-1.2 M1189.8,508.1c5.6-9.5,9.4-19.8,12.3-30.5"/>
<path class="st2" d="M100,1265l10.8-10.9"/>
<path class="st0" d="M100,1265"/>
</svg>
