<svg xmlns="http://www.w3.org/2000/svg" xmlns:xlink="http://www.w3.org/1999/xlink"
    viewBox="0 0 1200 1200" enable-background="new 0 0 1200 1200">
    <style type="text/css">.st0{fill:none;} .st1{fill:none;stroke:#000000;stroke-linecap:round;stroke-linejoin:round;stroke-width:3;} .st2{clip-path:url(#SVGID_2_);} .st3{fill:none;stroke:#FFFFFF;stroke-miterlimit:10;}</style>
    <path class="st0" d="M1200 317.9h-1200v564.2h1200v-564.2z"/>
    <path class="st1"
        d="M1180.3 826.7c-1.5-.4-3.8 2.9-5 7.4s-.9 8.5.6 8.9 3.8-2.8 5-7.4c1.2-4.5 1-8.4-.6-8.9zM45.5 515c-.5 2-.8 3.9-.8 5.4M44.7 575.6c0 2.1.5 3.4 1.2 3.6M568.4 655.7c-.6 2.1-.8 4-.8 5.5M567.5 716.3c0 2.4.7 3.9 1.7 3.8M590 661.6c-.6 2.1-.8 3.9-.8 5.4M589.2 722.2c0 2 .5 3.3 1.3 3.7M1112.1 864.1c.1 1.7.8 2.7 1.6 2.6M1113.9 799.6c-.8 1.8-1.3 3.7-1.6 5.5M1153.2 815.6c.5 0 1 0 1.4-.1M1152.4 812.4c-.3.5-.4 1.1-.4 1.7M1161.5 816.9c0-3-1.8-6-4.3-8.1-1.5-1.1-3.1-2-4.6-2.4M1155.1 815.2c0-1.3-1.1-2.7-2.6-3M1150.2 819.2c4.2 1.2 9.2.1 11.3-2.3M1.6 506.4c-.3 2.1 1.7 4 4.8 4.8M11.3 499.1c-3.4-.9-6.5 0-8 2.3M23.1 570.9c.1 1.5.6 2.4 1.2 2.6M24.8 506.4c-.8 1.8-1.3 3.8-1.6 5.5M7.8 566.8c.1 1.5.6 2.3 1.2 2.6M9.5 502.3c-.7 1.8-1.2 3.8-1.5 5.5M1.6 568.2c.3 1.8 2.2 3.3 4.8 4M39.8 463.9c-3-.8-5.6-.3-7.3 1.3M1190 781.5c0-2.9-1.8-5.8-4.3-8-1.5-1.2-3.1-2-4.6-2.4M1183.3 769.9c-.5-.2-1 .1-1.5.6M1184.4 771.5c-.2-.9-.7-1.5-1.1-1.6M1150.2 810.9c-.8 2.5-1.3 4.9-1.3 6.9M1149.1 874.1c.1 1.4.5 2.3 1.1 2.5M1190.8 779.1c-.1-1.3-1.3-2.5-2.8-3.2M1150.2 880.1c4.2 1.1 9.2 0 11.3-2.4M1133.8 870c.1 1.4.6 2.3 1.2 2.5M1135.5 805.4c-.7 1.8-1.3 3.8-1.6 5.5M1174.7 840.9l3.4.8M1129.8 779.8v-1M1112.7 862.1l-.7.9-522.8-140.8M1112.7 807l-.7.8-522.8-140.8M568.2 660.4l-.7.8-522.8-140.8M567.5 716.3l-522.8-140.7M567.5 716.3l.7-.7M44.7 575.6v-55.2M568.8 720.1l-522.9-140.9M571.1 651v-1M48.2 509.1l522.9 140.9M567.5 716.3v-55.1M573.4 647.9v-.9M1115.6 797.6v-1.1M592.7 655.7l522.9 140.8M573.4 647l21.8 5.8M589.2 722.2v-55.2M1113.3 866.7l-522.8-140.8M1149 872.9l1.2-1.6M1149 817.8l3-3.7M1155.1 815.2l-.5.3M1149 817.8l-15.3-4.1M1152.4 812.4l.1-5.9M1152 817.1v-3M1155.1 815.2l6.4 1.7v60.8M1137.2 802.3l15.3 4.2M8.8 569.2l-2.4 3M23.7 513.7l-.7.9M7.7 510.5l15.3 4.1M8.2 506.4l-5.9-1.6M11.3 499.1l15.3 4.2M26.6 504.4v-1.1M40.9 486.6v-.9M23 569.7l.7-.8M7.7 565.6l15.3 4.1M1181.1 771.1l-1141.3-307.2M1190 842.5v-61M1134.9 872.5l15.3 4.1M1149 872.9l-15.3-4.1M62.5 491.5l-21.6-5.8M1151.5 784.6l-21.7-5.8M45.5 515c.6-1.8 1.1-3.5 2.1-5l.6-.9 3.6-4.4 7.2-8.8 3.5-4.4M568.4 655.7c.5-1.6 1.1-3.4 2.1-4.9l.6-.8 2.4-3M590 661.6c.5-1.8 1.1-3.4 2.1-5l.6-.9 2.4-2.9M1112.2 805.2c-.3 2.8-.2 5.4-.2 8.2v50.7M1129.8 778.8l-3.5 4.4-7.2 8.9c-2.2 2.7-3.9 4.6-5.3 7.5M1150.2 880.1v-55.300000000000004c0-7.2-1.1-4.1 3-9.2M1190.8 779.9c-.7 2.4-2.7 4.1-4.2 6l-21.5 26.6-3.5 4.4M6.4 572.2v-55.300000000000004c0-6.3-1.1-4.2 1.3-7.3M23.2 512c-.3 2.7-.2 5.4-.2 8.2v49.6l.1 1.1M40.9 485.7l-3.5 4.3-7.2 8.9c-2.2 2.7-3.9 4.6-5.3 7.5M9 569.4l5.4 1.4 4.5 1.2 5.4 1.5h.4M7.9 507.9c-.4 2.8-.2 5.4-.2 8.2v50.7M1183.4 769.9l-5.4-1.4-1130.5-304.4-5.4-1.5h-.5c-2.2.8-4.4 4.5-5.3 5.6l-21.5 26.6c-2.2 2.7-3.9 4.6-5.4 7.5M32.6 465.2l-3.5 4.4-22.2 27.4-3.6 4.4c-.8 1.1-.6 2.2-1 3.4l-.5.8-.3.8v61.800000000000004M1184.4 771.5l.3 1.2M1150.2 810.9c1.4-3.6 3.3-5.7 5.9-8.8l21.4-26.5 3.5-4.4.7-.7M1149.1 874.1l-.1-1.2v-55.1M1161.5 877.7l3.5-4.4 21.5-26.5 3.5-4.4c.3-.4.7-1.1.7-1.7v-61.800000000000004M1133.9 811c-.3 2.8-.2 5.4-.2 8.3v49.6l.1 1.1M1151.5 784.6l-3.5 4.4-7.2 8.9c-2.2 2.7-4 4.6-5.4 7.5M1136.6 802.2c-1.9 2.4-3.6 7.5-3.6 11.3M1133.4 871.1c.3.8.6 1.2 1.1 1.3M1116.2 796.7c-1.9 2.4-3.5 7.5-3.5 11.3M1113 865.5c.3.8.7 1.3 1.1 1.3M1190 759.2c-2.4-.7-5.7 3.1-8.3 9.2M1192.4 772.5c1.1-7.4 0-12.6-2.4-13.3M1193.3 746.4c-2.3-.6-5.2 1.2-8 4.6M1173 740.8c-2.4-.6-5.3 1.2-8 4.6"/>
    <path class="st1"
        d="M1193.4 746.4zM1198.5 761.8c.3-9.1-1.7-14.5-5-15.4M1116.2 796.7l20.4 5.5M1112.7 808l20.3 5.5M1133 868.6l-20.3-5.4M1136.6 802.2l14.3-17.7M1150.9 785.5v-1l-20.4-5.6M1116.2 796.7l14.3-17.8M1134.8 872.3l-20.7-5.4M1181.7 768.4l-.4.9M1172.5 766.9l12.9-15.9M1165 745.5l-12.9 16M1193.3 746.4l-20.3-5.6M1133.4 871.1c-.7-2.6-.4-5.8-.4-8.1v-49.5M1113 865.5c-.7-2.5-.3-5.7-.3-8.1v-49.4M1190.8 779.4c.8-2.3 1.2-4.6 1.6-6.9M1190.8 792.6c4.6-9.6 7.2-20.3 7.7-30.8M47.6 509c-1.9 2.4-3.5 7.4-3.5 11.3M44.3 577.8c.3.8.7 1.3 1.1 1.3M27.2 503.5c-1.9 2.5-3.5 7.5-3.5 11.3M24 572.3c.3.8.7 1.3 1.1 1.4M100.9 466.1c-2.4-.6-5.7 3.1-8.2 9.1M103.4 479.1c1.1-7.2 0-12.3-2.5-13M104.3 453.2c-2.4-.6-5.2 1.1-8 4.6M83.9 447.7c-2.4-.6-5.2 1.1-8 4.6"/>
    <path class="st1"
        d="M104.4 453.2zM109.4 468.5c.3-9-1.7-14.5-5-15.3M27.2 503.5l20.4 5.5M23.7 514.8l20.3 5.5M44 575.4l-20.3-5.4M47.6 509l14.3-17.7M61.9 492.3v-1l-20.4-5.5M27.2 503.5l14.3-17.7M45.8 579.1l-20.7-5.4M92.7 475.2l-.4.9M83.4 473.7l12.9-15.9M76 452.3l-13 15.9M104.3 453.2l-20.4-5.5M44.3 577.8c-.6-2.5-.3-5.7-.3-8v-49.6M24 572.3c-.7-2.5-.3-5.7-.3-8v-49.5M108 480.3c.8-3.9 1.2-7.7 1.4-11.8"/>
    <path class="st1"
        d="M851.8 409.6c-3.3-.9-8 6-10.5 15.4-2.5 9.3-1.9 17.7 1.3 18.6 3.3.8 8-6.1 10.5-15.5 2.5-9.3 2-17.7-1.3-18.5zM822.3 438.6c-3.2-.8-7.9 6.1-10.4 15.4-2.6 9.4-1.9 17.7 1.3 18.5 3.2.9 7.9-6 10.5-15.3 2.4-9.4 1.9-17.8-1.4-18.6zM792.8 467.5c-3.2-.8-7.9 6-10.4 15.4-2.6 9.4-1.9 17.7 1.3 18.5 3.2.9 7.9-6 10.4-15.3 2.6-9.3 2-17.6-1.3-18.6zM763.4 496.6c-3.2-.9-8 6-10.5 15.4s-1.9 17.6 1.3 18.6c3.3.8 8-6 10.5-15.4 2.5-9.5 1.9-17.8-1.3-18.6zM733.8 525.6c-3.2-.9-7.8 6-10.4 15.3-2.6 9.4-1.9 17.7 1.3 18.6 3.2.9 7.9-6 10.5-15.4 2.5-9.4 1.9-17.7-1.4-18.5zM704.4 554.6c-3.3-.8-7.9 6-10.5 15.4-2.5 9.4-1.9 17.7 1.3 18.6 3.3.8 7.9-6 10.5-15.4 2.5-9.4 1.9-17.8-1.3-18.6zM910.7 351.6c-3.2-.8-7.9 6-10.4 15.4-2.6 9.4-1.9 17.7 1.3 18.6s7.9-6 10.4-15.4c2.6-9.5 2-17.7-1.3-18.6zM906 426.7c.7 2.4 1.6 3.8 2.8 4.3"/>
    <path class="st1"
        d="M938.1 405c-1.6-.4-4 3.1-5.3 7.7-1.3 4.8-.9 8.9.7 9.4 1.6.4 4-3.1 5.3-7.8 1.3-4.7 1-8.9-.7-9.3zM933.4 325.3c-4.9-1.3-10.4 1.3-15.9 6.8"/>
    <path class="st1"
        d="M933.5 325.3zM921.1 382.4c-1.8-.4-3.8.5-5.7 2.5M925.7 394.9c0-7.3-1.7-11.7-4.6-12.5M925.7 426.1c0 6.2 1.5 9.9 3.9 10.6 4.4 1.2 10.7-8.2 14.2-21 1.4-5.4 2.2-10.5 2.2-14.6M945.9 359.5c0-20-4.8-31.9-12.4-34.1M913.2 319.8c-4-1.2-8.6.4-13.1 4.2"/>
    <path class="st1"
        d="M674.9 583.6c-3.2-1-7.9 6-10.5 15.3-2.5 9.5-1.9 17.7 1.3 18.6 3.3.9 8-6 10.5-15.4 2.6-9.3 2-17.7-1.3-18.5zM645.5 612.7c-2.6-.7-6.1 3.5-8.7 10.1M647.9 625.7c1.1-7.2 0-12.3-2.4-13M571.8 650.1c-1.1 1.4-2.2 3.7-2.8 6.1-.6 1.9-.8 3.7-.8 5.2M568.2 716.6c-.1 1.9.4 3.1 1 3.6M592.2 655.6c-1.1 1.4-2.2 3.6-2.8 6.1-.5 1.9-.8 3.7-.8 5.2M588.5 722c0 2.5.7 3.9 1.8 3.8"/>
    <path class="st1"
        d="M881.3 380.5c-3.2-.8-7.9 6.1-10.4 15.4-2.5 9.4-2 17.6 1.3 18.5s7.9-6 10.4-15.4c2.4-9.3 1.9-17.6-1.3-18.5zM930.1 436.7l-21.3-5.7M915.4 384.9l-249.7 245.6M925.7 426.1v-31.2M945.9 359.5v41.6M913.2 319.8l20.3 5.6M588.5 666.9l-20.3-5.5M568.2 716.6l20.3 5.4M571.7 650.1l2.4-3M568.2 716.6v-55.2M592.1 655.6l-20.4-5.5M594.5 653.6v-1M574.1 647.1l20.4 5.5M592.1 655.6l2.4-3M588.5 722v-55.1M906 426.7c-.8-3.9-.6-7.7-.6-11.8v-20.1M917.5 332.1l-4 3.9-266.9 262.5-4 4-.8.9-.9 1-3.6 4.4-5.8 7.1-3.6 4.4M607.6 614.9l3.5-4.4 5.9-7.2 3.5-4.4.8-1 .9-.9 4-4 266.9-262.5 4-4 2.9-2.5M590 725.8l-5.4-1.5-9.6-2.6-5.4-1.4-.4-.2"/>
    <defs>
        <path id="SVGID_1_" d="M0 882.1z"/>
    </defs>
    <clipPath id="SVGID_2_">
        <use xlink:href="#SVGID_1_" overflow="visible"/>
    </clipPath>
    <path class="st3" d="M0 882.1l15.6-15.5"/>
    <path class="st0" d="M0 882.1z"/>
</svg>
