<?xml version="1.0" encoding="utf-8"?>
<!-- Generator: Adobe Illustrator 21.1.0, SVG Export Plug-In . SVG Version: 6.00 Build 0)  -->
<svg version="1.1" id="Ebene_1" xmlns="http://www.w3.org/2000/svg" xmlns:xlink="http://www.w3.org/1999/xlink" x="0px" y="0px"
	 viewBox="0 0 1400 1400" style="enable-background:new 0 0 1400 1400;" xml:space="preserve">
<style type="text/css">
	.st0{fill:none;}
	.st1{fill:none;stroke:#000000;stroke-width:2;stroke-linecap:round;stroke-linejoin:round;stroke-miterlimit:10;stroke-width:4;}
	.st2{fill:none;stroke:#FFFFFF;stroke-width:2;stroke-miterlimit:10;}
</style>
<path class="st0" d="M1300,184.4H100v1031.2h1200V184.4L1300,184.4z"/>
<path class="st1" d="M910.3,816.5l42.8-19.1 M998.3,628.7l-30.8-45.1 M1057.7,799.9l7.1-4.7 M1093.3,685.8l-2.4-7.3 M1081.4,669.2
	l-87.7-23.9 M955.5,780.7l88,23.8 M867.5,540.7H813l-26.1-2.2l-26.2-4.8l-24-7.1l-25.9-9.5l-23.9-9.6l-21.3-11.8l-21.5-14.4
	l-4.6-4.8 M565.7,745.1l9.6-2.4h26.2l26,2.4l26.2,2.4l26,4.9l23.8,6.9l26.2,9.7l21.5,11.7l23.7,12.1l19.1,14.3h2.2 M953.1,795.2
	l12-4.8 M1005.3,640.5l-7-9.3 M886.7,564.5h-4.8 M820.1,792.8l2.2,2.4 M941.3,557.3l-21.5-4.8 M889.1,543.2l-12-2.5 M630,474.3
	l-14.5-4.8 M542,740.5l14.1,4.6 M556.1,512.3l-11.8-4.8 M442.2,481.3l-47.5-14.1 M292.3,441L195,412.5 M152.2,576.5l95.1,26
	 M351.9,631.2l45,11.9 M501.5,671.5l12,2.3 M180.7,529h-2.3v6.9l2.3,2.6v7.1h2.4v4.7h2.4v2.2h2.4v2.6h2.3v2.2h2.4v2.6h4.8v2.3h7.1
	l2.4,2.3h4.7 M190.2,412.5l-40.4,4.7 M114.2,547.8l33.2,26.1 M910.3,1199.3l42.8-16.7 M998.3,1013.7l-30.8-45.2 M1057.7,1184.9
	l7.1-4.6 M1093.3,1070.7l-2.4-7.1 M1081.4,1054.1l-87.7-23.8 M955.5,1165.8l88,23.9 M867.5,925.7H813l-26.1-2.2l-26.2-4.8l-24-7.2
	l-25.9-9.4l-23.9-9.6l-21.3-11.9l-21.5-14.3l-4.6-4.6 M565.7,1130.3l9.6-2.4h26.2l26,2.4l26.2,2.2l26,5l23.8,7l26.2,9.6l21.5,11.7
	l23.7,11.9l19.1,14.2h2.2 M953.1,1180.3l12-5 M1005.3,1025.7l-7-9.5 M886.7,949.7h-4.8 M820.1,1177.7l2.2,2.6 M941.3,942.4
	l-21.5-4.7 M889.1,928.1l-12-2.4 M630,859.3l-14.5-4.7 M542,1125.5l14.1,4.8 M556.1,897.2l-11.8-4.7 M247.3,811.8L195,797.4
	 M152.2,961.4l95.1,26.1 M351.9,1016.2l45,11.7 M501.5,1056.5l12,2.4 M180.7,914h-2.3v7.1l2.3,2.4v7.2h2.4v4.6h2.4v2.4h2.4v2.4h2.3
	v2.3h2.4v2.3h4.8v2.6h7.1l2.4,2.4h4.7 M190.2,797.4l-40.4,4.9 M114.2,933l33.2,26 M1107.6,623.9l40.5-18.9 M1193.3,436.2l-31-45.1
	 M1255.1,607.3l4.8-4.8 M1290.6,493.1l-4.7-7 M1276.5,476.5l-85.6-23.6 M1152.7,588.4l88,23.6 M1064.8,348.3h-2.2l-26.2,2.2
	l-26.1-2.2l-26.2-2.4l-26.2-4.8l-26-7.2l-23.8-7l-24-11.9l-21.2-11.8l-21.6-11.9l-7-4.8 M986.3,612l4.8,2.3v2.6 M1150.3,602.5
	l12-4.6 M1202.8,450.3l-7.3-11.7 M1081.4,371.9h-2.3 M1017.4,602.5h2.2 M1138.5,367.4l-21.4-7.3 M1083.9,350.5l-9.6-2.2
	 M827.1,281.8l-16.6-4.8 M753.6,319.7l-11.9-2.4 M637.1,288.9L591.9,277 M489.5,248.5l-97.4-26.2 M347.1,384h2.4 M696.3,479
	l12.1,2.3 M375.5,338.7v4.8l2.5,7l2.3,4.8 M387.6,219.9l-40.5,4.8 M311.5,357.7l30.8,23.9 M1107.6,1009.1l40.5-19 M1193.3,821.1
	l-31-45.1 M1255.1,992.5l4.8-5 M1290.6,878.3l-4.7-7.1 M1276.5,861.7l-85.6-23.9 M1152.7,973.5l88,23.6 M986.3,997.1l4.8,2.4v2.3
	 M1150.3,987.5l12-4.6 M1202.8,835.5l-7.3-11.8 M1017.4,987.5h2.2 M1138.5,752.4l-21.4-7.3 M696.3,863.9l12.1,2.4 M418.3,1111.3
	l61.8,16.6 M774.9,248.5l-61.8-16.7 M268.7,1070.7l64.1,16.7 M627.5,208.1l-64.1-16.7 M955.5,792.8l-4.6-2.4l-5-2.5l-4.6-7.2l-2.4-7
	l-2.4-9.6l-2.3-11.7l2.3-11.9v-12l2.4-14.2l2.4-14.4l4.6-11.8l5-11.8l7-11.9l4.7-9.5l7.1-9.6l7.3-7l4.7-4.8H996l4.8,2.4l2.2,4.6h2.3
	 M938.9,733.4V769l2.4,7l4.6,7.3l5,4.6h9.3l7.3-2.2l2.2-2.4 M1007.7,647.8l-4.7-4.7l-4.7-4.8l-4.6-2.4h-5l-7,2.4l-4.7,4.8
	 M955.5,1177.7l-4.6-2.4l-5-2.2l-4.6-7.3l-2.4-7.1l-2.4-9.5l-2.3-11.7l2.3-12v-11.8l2.4-14.4l2.4-14.2l4.6-12l5-11.9l7-11.7l4.7-9.6
	l7.1-9.6l7.3-7l4.7-4.7l7-2.4l7.3,2.4l4.8,2.3l2.2,4.8h2.3 M938.9,1118.3v35.8l2.4,7l4.6,7.2l5,4.8h9.3l7.3-2.4l2.2-2.4
	 M1007.7,1032.9l-4.7-5l-4.7-4.6l-4.6-2.4h-5l-7,2.4l-4.7,4.6 M1152.7,600.3l-7-2.4l-4.7-2.6l-2.5-4.6l-4.8-9.6v-9.4l-2.2-9.5v-11.9
	l2.2-14.4l2.4-14.1l2.4-12.1l4.7-14l4.9-11.9l4.6-12.1l7.4-9.3l6.9-9.5l4.7-4.8l7.2-4.8l7.2-2.3h4.8l4.6,2.3l4.8,4.8l2.5,2.2
	 M1136.1,543.2l-2.4,11.9V567l2.4,9.5l2.4,7.1l4.7,7.1l4.9,4.6l4.6,2.6h5l7.1-2.6l2.2-2.1 M1205,457.6l-4.7-7.3l-4.8-4.5l-4.6-2.5
	h-4.8l-7.2,4.8l-4.6,2.2 M1152.7,985.1l-7-2.2l-4.7-2.4l-2.5-4.7l-4.8-9.5v-9.5l-2.2-9.5v-12l2.2-14.2l2.4-14.4l2.4-11.8l4.7-14.3
	l4.9-11.7l4.6-12.1l7.4-9.5l6.9-9.5l4.7-4.7l7.2-4.6l7.2-2.4h4.8l4.6,2.4l4.8,4.6l2.5,2.4 M1136.1,928.1l-2.4,12v11.8l2.4,9.5
	l2.4,7.1l4.7,7.3l4.9,4.7l4.6,2.4h5l7.1-4.8h2.2 M1205,842.7l-4.7-7.2l-4.8-4.8l-4.6-2.2h-4.8l-7.2,2.2l-4.6,4.8 M862.9,826.1
	l19-2.4l16.7-4.8l11.7-2.4v-2.4 M862.9,826.1l-7.2-5l-4.8-7l-4.6-9.6l-2.6-11.7l-2.4-14.5l-2.1-14.2v-16.6l2.1-16.5 M884.1,600.3
	l5,23.6v19.2l-2.4,18.8l-4.8,16.6l-9.5,16.8l-14.4,19L841.3,731 M884.1,600.3l7.3-11.9l9.6-11.9l9.3-7.1l7.1-7.2l9.5-2.3l7.3-2.6
	h7.1l7.2,4.9 M967.5,583.6l-4.9-4.7l-14.1-16.7 M953.1,795.2l-7.2,2.2h-4.6l-7.1-2.2l-4.9-2.4l-2.4-7.1l-4.6-9.7v-9.3l-2.5-12v-14.2
	l2.5-12l2.4-14.2l2.2-14.4l5-14.1l7-14.3l4.6-11.8l7.4-11.9l4.6-9.5l7.1-7.1l7.1-7.3l7.3-2.2l7.1-2.4l4.6,2.4l5,2.2l4.6,7.3
	 M841.3,731l-21.2-4.9l42.8-130.8l21.2,5 M1057.7,799.9l-4.6,2.4l-7.2,2.2l-4.8-2.2l-4.7-2.4l-2.5-4.7l-2.4-7.3l-2.2-9.6v-23.6
	l2.2-12l2.4-11.7l4.9-12.1l4.7-11.7l4.6-11.9l5-9.5l7-7.3l4.7-4.7l7.3-4.6h9.3l4.9,2.3l4.6,7"/>
<path class="st1" d="M1098.3,721.5l-2.4,11.9l-2.6,11.7l-4.6,12l-4.8,9.6l-4.8,9.3l-4.8,9.7l-7,7.1l-4.7,4.6l-4.9,2.5h-7.2l-2.4-2.5
	l-4.6-4.6l-2.4-7.1l-2.3-9.7v-21.3l2.3-12l2.4-11.7l4.6-12.1l5-9.3l4.6-11.9l4.9-7.1l4.7-7.3l7-4.8l4.8-2.2h4.8l4.8,2.2l4.6,4.8
	l2.6,7.3l2.4,9.3v9.7L1098.3,721.5z M955.5,780.7v-2.4l-4.6-2.3l-5-4.7l-2.4-7.2v-9.4l-2.2-12l2.2-11.7v-12.1l5-11.7l2.4-11.9
	l4.6-12l4.7-11.8l7.3-9.6l4.6-7l7.1-4.8l4.9-4.8h9.6 M565.7,745.1h-7l-7.1-2.4l-4.8-4.6l-7.3-7.1l-2.2-7.1l-4.8-12.1l-2.6-11.9
	l-2.2-14.1v-30.9l2.2-16.6l2.6-16.6l4.8-16.7l4.7-19.1l4.8-16.5l7.1-16.9l7-14l7.2-14.4l7.2-14.4l7-9.3l9.6-9.5l9.6-9.6l7.1-4.8
	l6.9-2.2l9.7-2.6l7,2.6l4.9,2.2 M877.1,540.7h-14.2l-9.5,4.9l-9.7,6.9l-6.9,7.4l-9.7,9.5l-7,14.2 M777.4,714.3l-28.7-40.5l-7-14.1
	l-7.2-14.4v-9.4l2.2-7.2l2.6-4.8l9.4-9.6l21.5-11.8l23.8-9.3l26.1-9.6 M777.4,714.3l-2.5,16.7v16.5l2.5,14.2v12l4.5,12l5,9.5
	l4.6,7.1l7,7.1 M786.9,716.5l-9.5-2.2 M820.1,583.6l9.5,2.3l-42.7,130.6 M820.1,792.8l-4.7-2.4l-7.3-4.7l-4.6-7.4l-2.4-7l-2.6-12
	l-2.3-11.8v-42.8l4.9-16.6l2.4-16.6l4.6-16.6l4.9-14.4l7.1-14.1l7-14.4l7.2-14.1l7-9.5l7.4-9.5l7-7.2l9.6-4.7l7.1-2.5l7.1-2.3
	l2.4,2.3 M829.6,585.9l9.6-12l7.1-11.7l9.4-7.1l9.6-7.3l7.1-4.6h16.7l4.6,2.4 M896.1,557.3l-2.4-11.7 M808.1,811.8l16.6-11.9
	 M808.1,811.8l-7-4.7l-4.9-7.2l-4.7-12l-2.4-9.6l-2.2-14.2v-47.6 M972.1,783.3l-4.6,4.6l-7.3,2.5l-4.7,2.4 M977,643.1l-7.3,7
	l-7.1,9.6l-4.7,9.5l-7,11.9l-2.4,14.2l-5,11.9l-2.2,14.3l-2.4,11.9 M841.3,821.1l21.6,5 M841.3,821.1l-7-7l-4.7-7l-4.9-9.7
	l-4.6-11.7v-12l-2.4-16.6v-14.4l2.4-16.6 M862.9,595.3l7.2-14.2l9.4-9.4l7.2-9.5l9.4-4.9l9.6-4.8l7-2.2l7.1,2.2 M798.5,809.4
	l9.6,2.4 M542,740.5l-4.7-2.4l-7.4-4.7l-4.5-7.3l-4.8-7.2l-4.7-11.7l-2.4-11.9v-42.8l2.4-16.6l2.2-19l2.5-16.6l4.8-16.7l4.5-19.1
	l7.4-14.2l7-16.6l7.3-14.4l9.3-11.8l7.2-11.8l7.2-9.6l9.5-7.1l7.1-7.3l9.6-2.2l7.1-2.3l6.9,2.3 M195,412.5h-4.8l-7.1,2.4l-4.7,2.3
	l-7.2,7.2l-7.1,7.1l-4.7,9.5l-7.2,11.9l-4.8,11.8l-4.7,11.8l-2.4,14.4l-4.7,14.3v11.9l-2.4,14v9.6l2.4,11.8l2.4,7.4l2.3,7.1l4.8,4.7
	l4.7,4.8h2.4 M209.2,507.5l7.2,4.8l7.2,4.8l2.3,7l2.4,9.6v9.5l-2.4,9.3l-2.3,7.4l-7.2,2.3l-4.8,2.3 M180.7,529l2.4-7.2l4.8-9.5
	l9.5-4.8h11.8 M114.2,547.8h-2.4l-2.4-7.1l-2.4-7l-2.3-9.6v-21.4l2.3-11.8l2.4-11.9l2.4-11.8l4.8-12.1l4.8-9.3l7-9.6l4.8-7l7.1-7.2
	l4.8-2.4l4.7-2.4 M862.9,1211l19-2.4l16.7-4.7l11.7-2.4v-2.2 M862.9,1211l-7.2-4.7l-4.8-7l-4.6-9.6l-2.6-12l-2.4-14.2l-2.1-14.3
	v-16.7l2.1-16.6 M884.1,985.1l5,24v18.8l-2.4,19l-4.8,16.7l-9.5,16.8l-14.4,18.9l-16.7,16.6 M884.1,985.1l7.3-11.6l9.6-12.1l9.3-7
	l7.1-7.1l9.5-2.6l7.3-2.3h7.1l7.2,4.9 M967.5,968.5l-4.9-4.6l-14.1-16.6 M953.1,1180.3l-7.2,2.3h-4.6l-7.1-2.3l-4.9-2.6l-2.4-7
	l-4.6-9.6v-9.4l-2.5-11.9v-14.3l2.5-11.8l2.4-14.4l2.2-14.2l5-14.4l7-14.2l4.6-11.9l7.4-11.7l4.6-9.6l7.1-7.1l7.1-7.1l7.3-2.4
	l7.1-2.5l4.6,2.5l5,2.4l4.6,7.1 M841.3,1115.9l-21.2-4.6l42.8-130.8l21.2,4.6 M1057.7,1184.9l-4.6,2.4l-7.2,2.4l-4.8-2.4l-4.7-2.4
	l-2.5-4.6l-2.4-7.2l-2.2-9.6v-23.7l2.2-11.9l2.4-12l4.9-11.9l4.7-11.9l4.6-11.7l5-9.7l7-7.1l4.7-4.7l7.3-4.8l4.6-2.2l4.7,2.2
	l4.9,2.4l4.6,7.1"/>
<path class="st1" d="M1098.3,1106.4l-2.4,11.9l-2.6,12l-4.6,11.8l-4.8,9.6l-4.8,9.4l-4.8,9.6l-7,7l-4.7,4.9l-4.9,2.3h-7.2l-2.4-4.6
	l-4.6-2.6l-2.4-7l-2.3-9.6v-21.3l2.3-11.9l2.4-12l4.6-11.9l5-9.3l4.6-12l4.9-7.2l4.7-7l7-4.9l4.8-2.4h4.8l4.8,2.4l4.6,4.9l2.6,7
	l2.4,9.6v9.6L1098.3,1106.4z M955.5,1165.8v-2.3l-4.6-2.4l-5-4.6l-2.4-7.3v-9.4l-2.2-11.9l2.2-12V1104l5-11.9l2.4-11.7l4.6-11.9
	l4.7-12l7.3-9.6l4.6-7l7.1-4.6l4.9-5h9.6 M565.7,1130.3h-7l-7.1-2.4l-4.8-4.9l-7.3-7.1l-2.2-7.2l-4.8-11.6l-2.6-12l-2.2-14.4v-30.8
	l2.2-16.6l2.6-16.6l4.8-16.6l4.7-19l4.8-16.7l7.1-16.7l7-14.2l7.2-14.4l7.2-14.2l7-9.4l9.6-9.6l9.6-9.6l7.1-4.6l6.9-2.4l9.7-2.5
	l7,2.5l4.9,2.4 M877.1,925.7h-14.2l-9.5,5l-9.7,4.6l-6.9,9.4l-9.7,9.7l-7,14.1 M777.4,1099.3l-28.7-40.4l-7-14.3l-7.2-14.3v-9.4
	l2.2-7.2l2.6-7l9.4-7.2l21.5-12l23.8-9.4l26.1-9.6 M777.4,1099.3l-2.5,16.6v16.6l2.5,14.4v11.8l4.5,12l5,9.6l4.6,7l7,7
	 M786.9,1101.7l-9.5-2.4 M820.1,968.5l9.5,2.6l-42.7,130.6 M820.1,1177.7l-4.7-2.4l-7.3-4.6l-4.6-7.2l-2.4-7l-2.6-12l-2.3-12v-42.8
	l4.9-16.6l2.4-16.6l4.6-16.6l4.9-14.2l7.1-14.4l7-14.2l7.2-14.2l7-9.4l7.4-9.6l7-7.1l9.6-4.9l7.1-2.2l7.1-2.4l2.4,2.4 M829.6,971.1
	l9.6-12.1l7.1-11.7l9.4-7.2l9.6-7.1l7.1-4.9h16.7l4.6,2.6 M896.1,942.4l-2.4-11.7 M808.1,1196.9l16.6-12 M808.1,1196.9l-7-5l-4.9-7
	l-4.7-11.8l-2.4-9.6l-2.2-14.3v-47.5 M972.1,1168.3l-4.6,4.8l-7.3,2.2l-4.7,2.4 M977,1027.9l-7.3,7.4l-7.1,9.3l-4.7,9.5l-7,12
	l-2.4,14.3l-5,11.7l-2.2,14.3l-2.4,11.9 M841.3,1206.3l21.6,4.7 M841.3,1206.3l-7-7l-4.7-7.4l-4.9-9.3l-4.6-11.9v-12l-2.4-16.6
	v-14.2l2.4-16.6 M862.9,980.5l7.2-14.2l9.4-9.5l7.2-9.5l9.4-4.9l9.6-4.7l7-2.4l7.1,2.4 M798.5,1194.3l9.6,2.6 M542,1125.5l-4.7-2.5
	l-7.4-4.7l-4.5-7l-4.8-7.3l-4.7-11.9l-2.4-11.7v-43l2.4-18.8l2.2-16.8l2.5-16.7l4.8-16.6l4.5-18.8l7.4-14.4l7-16.6l7.3-14.2l9.3-12
	l7.2-11.9l7.2-9.4l9.5-7.3l7.1-7.1l9.6-2.2l7.1-2.4l6.9,2.4 M195,797.4h-4.8l-7.1,2.5l-4.7,2.4l-7.2,7.1l-7.1,7.1l-4.7,9.6
	l-7.2,11.7l-4.8,11.9l-4.7,12l-2.4,14.2l-4.7,14.2v12l-2.4,14.3v9.3l2.4,12l2.4,7l2.3,7.2l4.8,4.9l4.7,4.6h2.4 M209.2,892.5l7.2,4.7
	l7.2,4.9l2.3,7l2.4,9.6v9.4l-2.4,9.6l-2.3,7l-7.2,2.6l-4.8,2.4 M180.7,914l2.4-7.3l4.8-9.5l9.5-4.7h11.8 M114.2,933h-2.4l-2.4-7.3
	l-2.4-7l-2.3-9.6v-21.2l2.3-12l2.4-12l2.4-11.7l4.8-11.9l4.8-9.6l7-9.6l4.8-9.3l7.1-4.7l4.8-2.6l4.7-2.2 M1057.7,633.5l21.4-2.3
	l16.8-2.5l11.7-4.8 M1057.7,633.5l-4.6-4.8l-5-7l-4.6-9.7l-4.7-11.7l-2.4-14.4v-47.4 M1079.1,407.7l4.8,23.8l2.4,21.4l-2.4,16.6
	l-4.8,16.6l-9.4,19.1l-14.2,16.6l-19.1,16.7 M1079.1,407.7l9.6-11.9l9.6-9.5l7-9.6l9.6-4.8l7-4.5l9.6-2.4l7,2.4l7.2,2.3
	 M1162.3,391.1l-2.2-4.8l-14.4-16.6 M1150.3,602.5v2.5l-7.1,2.3h-7.1l-4.6-2.3l-4.9-4.7l-4.7-7.1l-2.4-9.6l-2.4-9.7v-23.6l2.4-14.4
	l2.4-14.1l2.3-14.3l4.9-14.4l4.6-14.1l7.3-11.8l4.7-12.1l7-9.3l7.4-7.2l6.9-4.7l7.3-4.7h11.8l4.8,4.7l4.6,4.7 M1036.4,538.5
	l-21.5-4.8l42.8-130.7l21.4,4.7 M1255.1,607.3l-4.9,4.7h-11.7l-5-4.7l-2.2-4.8l-2.5-7.2l-2.2-9.4v-21.4l2.2-14.2l2.5-11.8l2.2-11.9
	l5-12.1l6.9-11.8l4.8-9.6l4.9-7l7-4.8l4.9-4.8h11.7l5,4.8l2.2,4.8"/>
<path class="st1" d="M1293.1,529v11.7l-4.7,11.8l-2.5,12l-4.8,12l-4.6,9.4l-7.2,7.3l-4.8,7.1l-4.6,4.7l-7.2,2.3h-4.8l-4.9-2.3
	l-2.3-4.7l-2.2-7.1l-2.4-9.6v-21.4l2.4-9.7l2.2-14l2.3-9.5l4.9-11.9l4.8-9.6l7.2-9.6l4.6-7l7.2-4.8l4.8-2.3l4.6,2.3l4.8,2.2l2.5,4.8
	l4.7,4.8v9.6l2.2,9.6L1293.1,529z M1152.7,588.4h-2.4l-2.2-4.8l-4.9-4.7l-2.2-7.2l-2.5-9.5v-21.5l2.5-14.1l2.2-12.1l4.9-11.8
	l4.6-11.8l5-11.9l4.6-7.3l7.2-9.3l4.8-4.8l6.9-4.7h9.7 M729.7,524.1v-4.8l-2.3-11.8l-2.3-11.8v-31l2.3-16.6l2.3-18.9l2.4-16.7
	l4.6-16.7l7.4-16.7l4.6-16.6l7.2-16.6l7-14.2l9.6-12l7-11.8l9.6-9.5l7.1-7.1l9.5-7.2l7.3-2.3h14.1l7.2,2.3v2.4 M1074.3,348.3h-7
	l-9.6,2.2l-7.2,2.6l-9.4,7l-7.2,7.3l-9.5,11.7l-9.5,12 M972.1,521.8l-26.2-40.5l-9.4-14.1l-4.6-14.3l-2.6-7.1l2.6-9.6l4.6-4.7
	l9.4-9.5l21.6-11.9l21.2-9.5l26.2-9.5 M972.1,521.8v47.6l2.4,14.2l4.7,11.7l2.5,9.7l7,7l5,4.9 M984.1,524.1l-12-2.3 M1014.9,391.1
	l12,2.4l-42.8,130.6 M1017.4,602.5l-7.1-2.2l-5-5l-4.5-6.9l-4.8-9.5l-2.3-11.9v-11.9l-2.6-11.9v-16.6l2.6-14.3l2.3-16.6l4.8-16.7
	l4.5-14.3l5-16.6l4.6-14.2l7.1-14.3l7.3-11.9l7.1-11.9l9.5-9.5l7.2-7.2l7-4.8l7.2-2.4h11.8 M1026.9,393.5l7-11.9l9.6-9.7l9.6-9.4
	l7-7.2l9.6-2.2l7-2.6h7.2l7,4.8 M1093.3,365l-2.4-9.7 M1005.3,619.3l16.7-9.6 M1005.3,619.3l-7-5l-4.6-7l-5-9.4l-2.4-12l-2.2-14.2
	l-2.4-14.4v-16.6l2.4-16.6 M1169.5,593.2l-4.7,2.1l-7.1,5h-5 M1174.3,450.3l-2.6,2.6l-4.7,7l-6.9,7.3l-7.4,11.8l-4.6,11.9l-4.9,11.8
	l-2.2,14.4l-4.9,11.9v14.2 M1036.4,628.7l21.3,4.8 M1036.4,628.7l-4.9-4.8l-7.1-7L1022,605l-4.6-9.7l-2.5-14.2v-47.4 M1057.7,403
	l9.6-11.9l9.4-12l7.2-7.2l9.4-6.9l7.2-4.9h16.6 M993.7,616.9l11.6,2.4 M715.5,519.3l-2.4-2.2l-2.3-11.9l-2.4-14.3v-14.4l2.4-16.6
	v-16.6l2.3-16.6l4.8-19l4.8-16.6l4.7-16.8l7.1-16.6l7.2-16.6l7-14.2l7.2-11.9l9.4-11.8l7.2-9.6l9.4-7.1l7.2-4.7l9.4-4.8h12
	 M392.1,222.3l-4.5-2.4l-7.3,2.4l-7,4.8l-4.8,4.7l-7.1,9.6l-7.2,9.4l-4.7,9.6l-4.7,11.8l-4.8,14.3l-4.8,11.9l-2.4,14.2l-2.3,14.3
	v23.6l2.3,9.6l2.4,9.6l2.4,7l4.7,4.9l4.8,2.4 M406.5,315l7,4.7 M375.5,338.7l4.8-9.4l4.8-7.2l7-4.8l9.6-2.3h4.8 M311.5,357.7
	l-2.4-2.4l-5-4.8l-2.1-7v-9.6l-2.4-11.8l2.4-9.5v-14.2l2.1-11.9l5-11.9l4.7-11.9l4.8-9.5l4.8-9.5l7.1-7.1l4.7-7.2l7.1-2.3l4.8-2.4
	 M1057.7,1018.6l21.4-2.4l16.8-2.5l11.7-4.6 M1057.7,1018.6l-4.6-4.9l-5-7l-4.6-9.6l-4.7-12l-2.4-14v-47.6 M1079.1,792.8l4.8,23.7
	l2.4,19l-2.4,19.1l-4.8,16.6l-9.4,18.9l-14.2,16.6l-19.1,16.8 M1079.1,792.8l9.6-12.1l9.6-9.4l7-9.6l9.6-4.6l7-4.7l9.6-2.4l7,2.4
	l7.2,2.3 M1162.3,776l-2.2-4.7l-14.4-16.6 M1150.3,987.5v2.6l-7.1,2.4h-7.1l-4.6-2.4l-4.9-5l-4.7-7l-2.4-9.6l-2.4-9.5v-23.7
	l2.4-14.2l2.4-14.4l2.3-14.2l4.9-14.2l4.6-14.4l7.3-11.7l4.7-11.9l7-9.6l7.4-7l6.9-4.8l7.3-4.8h11.8l4.8,4.8l4.6,4.8 M1036.4,923.5
	l-21.5-4.8l38.2-116.4 M1069.7,790.4l9.4,2.4 M1255.1,992.5l-4.9,4.6h-11.7l-5-4.6l-2.2-5l-2.5-7l-2.2-9.4v-21.4l2.2-14.4l2.5-11.8
	l2.2-12l5-11.9l6.9-11.7l4.8-9.6l4.9-7.1l7-4.9l4.9-4.6h11.7l5,4.6l2.2,4.9"/>
<path class="st1" d="M1293.1,914v11.7l-4.7,12l-2.5,12l-4.8,9.3l-4.6,12.1l-7.2,7l-4.8,7l-4.6,5l-7.2,2.4h-4.8l-4.9-2.4l-2.3-5
	l-2.2-7l-2.4-9.6v-21.2l2.4-9.6l2.2-14.2l2.3-9.5l4.9-11.9l4.8-9.6l7.2-9.6l4.6-7l7.2-4.7l4.8-2.3l4.6,2.3l4.8,2.2l2.5,4.9l4.7,4.6
	v9.6l2.2,9.6L1293.1,914z M1152.7,973.5h-2.4l-2.2-5l-4.9-4.6l-2.2-7.1l-2.5-9.5v-21.6l2.5-14.2l2.2-11.9l4.9-11.7l4.6-12l5-12
	l4.6-7.1l7.2-9.5l4.8-4.6l6.9-4.9h9.7 M729.7,909.1v-4.6l-2.3-12l-2.3-11.9v-30.9l2.3-16.6l2.3-19l2.4-16.7l4.6-16.7l2.6-7
	 M972.1,906.7l-26.2-40.4l-9.4-14.1l-4.6-14.4l-2.6-7.1l2.6-9.6l4.6-4.6l9.4-9.4l21.6-11.9l18.8-7.3 M972.1,906.7v47.7l2.4,14.1
	l4.7,12l2.5,9.6l7,7l5,4.7 M984.1,909.1l-12-2.4 M1019.6,797.4l-35.5,111.7 M1017.4,987.5l-7.1-2.4l-5-4.6l-4.5-7l-4.8-9.6l-2.3-12
	v-11.8l-2.6-12v-16.6l2.6-14.3l2.3-16.6l4.8-16.7l4.5-14.2l5-16.6l4.6-14.2l7.1-14.4l4.9-4.6 M1093.3,750v-4.9 M1005.3,1004.2
	l16.7-9.5 M1005.3,1004.2l-7-4.7l-4.6-7l-5-9.6l-2.4-11.8l-2.2-14.3l-2.4-14.4v-16.7l2.4-16.6 M1169.5,978.1l-4.7,2.4l-7.1,4.6h-5
	 M1174.3,835.5l-2.6,2.3l-4.7,4.9l-6.9,9.5l-7.4,11.7l-4.6,12l-4.9,12l-2.2,14.2l-4.9,11.9v14.1 M1036.4,1013.7l21.3,4.9
	 M1036.4,1013.7l-4.9-4.6l-7.1-9.6l-2.4-9.4l-4.6-9.6l-2.5-14.2v-47.6 M1090.9,752.4l2.4-2.4l7.2-4.9h16.6 M993.7,1001.8l11.6,2.4
	 M715.5,904.5l-2.4-2.4l-2.3-12l-2.4-14.2v-14.2l2.4-16.6v-16.6l2.3-16.7l4.8-19l4.8-16.8l2.4-9.3 M556.1,894.9l-4.5-2.4h-4.8
	l-7.3,2.4l-7,4.7l-4.8,7.1l-7.1,7.3l-7.1,9.5l-4.7,11.8l-7.3,14.4l-2.3,11.7l-4.7,14.4l-2.4,14.3l-2.6,14.1v23.7l2.6,9.5l2.4,9.5
	l4.7,5l2.3,4.6l7.3,2.4l4.7,2.3 M753.6,319.7l-4.9-2.4l-7-2.3l-5,2.3l-7,4.8l-7,7.2l-7.2,9.4l-4.7,9.6l-7.3,11.8l-4.6,11.8
	l-4.9,14.4l-2.4,11.9l-2.3,14.3l-2.4,14.2v23.6l2.4,9.6l2.3,9.6l2.4,7l4.9,4.8l4.6,2.5h4.9 M458.8,887.9v182.8 M520.6,826.1
	l-61.8,61.8 M520.6,759.3v66.8 M458.8,821.1l61.8-61.8 M458.8,638.3v182.8 M511.1,490.9l-9.6,9.5l-7,9.3l-7.1,14.4l-7.3,14.4
	l-7.2,16.6l-4.8,16.6l-4.6,16.7l-2.3,16.6l-2.4,16.7v16.6 M746.3,260.4L511.1,490.9 M796.2,277l-2.2-9.5l-4.9-9.5l-7.2-4.8l-4.5-4.7
	h-14.5l-9.3,4.7l-7.3,7.2 M511.1,1115.9l9.5-11.9 M458.8,1070.7v14.4l2.4,12l2.3,11.6l4.6,9.6l4.8,4.7l7.2,4.9h14.4l7-4.9l9.6-7.1
	 M556.1,509.7l-4.5-2.2h-4.8l-7.3,2.2l-7,4.8l-4.8,7.3l-7.1,7.2l-7.1,9.5l-4.7,11.8l-7.3,14.2l-2.3,12l-4.7,14.2l-2.4,14.3
	l-2.6,14.3v23.8l2.6,9.4l2.4,9.4l4.7,7.3l2.3,2.3l7.3,2.3l4.7,2.5 M698.9,759.3l-4.9,12l-2.4,12l-2.3,14.1l-2.4,14.4v23.7l2.4,9.6
	l2.3,9.5l2.4,7.1l4.9,4.6l4.6,2.6h4.9 M511.1,490.9l-61.7-16.6 M458.8,638.3l-61.9-16.6 M449.4,474.3l-9.7,9.5l-7,9.3l-7.1,14.4
	l-7.3,14.3l-7,16.7l-4.8,16.6l-4.8,16.6l-2.3,16.7l-2.5,16.6v16.7 M458.8,821.1l-61.9-16.6 M396.9,621.7v182.8 M746.3,260.4
	l-61.7-16.7L449.4,474.3 M520.6,826.1l-2.5-2.4 M458.8,887.9l-61.9-16.7 M399.4,868.9l-2.5,2.3 M458.8,1070.7l-61.9-16.6
	 M396.9,871.2v197.3l2.5,11.9l2.3,11.7l4.8,9.6l4.8,4.7l7,4.9 M713.1,231.8l-4.7-2.4l-7.1,2.4l-9.7,4.8l-7,7.1 M340,590.7l2.3-14.2
	v-12l2.5-14.2l4.7-14.4l4.7-11.8l4.7-14.4l4.8-11.8l7-9.6l7.3-7l7.1-7l4.8-4.8l7-2.3h7.3l4.5,2.3l2.6,2.2 M365.9,633.5h-7l-4.7-2.3
	l-4.7-4.8l-4.7-4.7l-2.5-9.7v-9.5l-2.3-11.8 M396.9,1042.3l-35.5,33.2l-7.2,7.2l-9.4,4.7h-14.3l-7.1-4.7l-4.8-4.7l-4.8-9.5l-2.3-12
	l-2.4-11.9V847.3l2.4-2.2 M373.3,721.5v-2.6l-64.2,61.8V581.1l2.4-16.6l2.3-16.7l4.8-16.7l4.8-16.6l7.1-16.6l7.1-14.1l7.2-14.3
	l9.4-9.6l7.2-9.6l235.3-230.4l9.5-7.1l7.2-4.7h14.1l7,4.7l5,4.8l4.6,9.5l2.5,9.5l2.4,14.2V277 M537.3,386.3l2.2-14.4l2.5-14.2
	l4.8-11.8l2.3-14.2l7-12l4.8-11.8l7.2-11.9l7.2-7.1l4.8-7.1l7-4.8l7-2.4h4.8l4.8,2.4l2.5,2.4 M340,975.8l2.3-14.4v-11.7l2.5-14.4
	l4.7-14.2l4.7-12l4.7-14.2l4.8-12l7-9.5l7.3-7.1l2.3-2.4 M365.9,1018.6h-7l-4.7-2.4l-4.7-4.9l-4.7-4.6l-2.5-9.6v-9.6l-2.3-11.7
	 M247.3,581.1l61.8,16.8 M247.3,581.1v-16.6l2.2-16.7l2.4-16.7l4.8-16.6l4.8-16.6l7.2-16.6l7-14.1l7.3-14.3l6.9-9.6l9.7-9.4
	l61.8,16.4 M247.3,764.1l61.8,16.6 M247.3,764.1v-183 M534.9,203.4l61.8,16.5 M299.6,433.9l235.3-230.5 M247.3,1013.7l61.8,16.6
	 M247.3,830.7l61.8,16.6 M247.3,1013.7v-183l2.2-2.2 M268.7,1070.7l-7.2-4.6l-4.8-4.9l-4.8-9.3l-2.4-12l-2.2-12v-14.2 M534.9,203.4
	l9.4-7.2l7.3-4.8l7.1-2.4l4.7,2.4 M458.8,823.7v61.8 M458.8,823.7l61.8-59.6v59.6 M458.8,885.5l61.8-61.8 M247.3,766.7v59.4
	 M247.3,766.7l211.5,57 M247.3,826.1l211.5,59.4 M520.6,764.1l-2.5-2.4 M249.5,764.1l-2.2,2.6 M370.7,723.9l-2.2-2.4 M396.9,699.9
	l-26.2,24"/>
<path class="st2" d="M100,1215.6l46.9-46.6"/>
<path class="st0" d="M100,1215.6"/>
</svg>
