<svg xmlns="http://www.w3.org/2000/svg" xmlns:xlink="http://www.w3.org/1999/xlink"
    viewBox="0 0 1200 1200" enable-background="new 0 0 1200 1200">
    <style type="text/css">.st0{fill:none;} .st1{fill:none;stroke:#000000;stroke-linecap:round;stroke-linejoin:round;stroke-width:3;} .st2{clip-path:url(#SVGID_2_);} .st3{fill:none;stroke:#FFFFFF;stroke-miterlimit:10;}</style>
    <path class="st0" d="M1189.9 0h-1179.8v1200h1179.7v-1200h.1z"/>
    <path class="st1"
        d="M670.9 110.3l-.1-4.2-.5-7.6-1-7.8-1.4-7.7-2-7.7-2.3-7.5-2.8-7.3-3.2-7.1-3.6-6.8-4-6.5-4.3-6.2-4.6-5.7-5.1-5.3-5.2-4.8-5.5-4.3-5.7-3.7-5.9-3-6-2.5-5.9-1.7-6.1-1.2-5.9-.4-5.9.2-5.7.9-5.6 1.5-5.4 2.1-5.1 2.7-4.8 3.3-4.6 3.8-4.2 4.4-3.9 4.9-3.5 5.4-3.1 5.9-2.6 6.2-2.2 6.6-1.8 7-1.3 7.2-.8 7.4-.2 7.2v1.2M554.7 79.2l.1-3.2.4-6.2.8-5.9 1.3-5.6 1.5-5.2 2-4.8 2.2-4.4 2.5-3.9 2.7-3.4 3-2.9 3.2-2.4 3.4-1.9 3.7-1.4 3.9-.8 4.2-.2 4.2.4 4.3 1 4.2 1.7 4.3 2.1 4.1 2.8 4.2 3.2 4 3.9 3.9 4.2 3.6 4.8 3.5 5 3.1 5.5 2.9 5.9 2.5 6.1 2.1 6.3 1.9 6.5 1.3 6.5 1 6.5.4 6.5.1 4.4v99M670.9 209.3v-99M645.2 209.3v3.2l-.5 6.1-.8 5.9-1.2 5.6-1.6 5.3-2 4.8-2.2 4.3-2.5 4-2.7 3.4-.7.7M611.8 261.5h-1.4l-4.2-.4-4.3-1-4.3-1.7-4.2-2.2-4.2-2.7-4.2-3.3-4-3.7-3.8-4.3-3.7-4.8-2.3-3.4M554.7 178.2c.1 12.8 2.5 25.5 7.1 37.4M529.1 178.2c.1 17.5 3.7 34.9 10.6 51M549.7 248.1l.2.4 4.3 6.1 4.7 5.7 5 5.3 5.3 4.8 5.4 4.2 5.7 3.7 5.9 3.2 6 2.3 5.9 1.8 6.1 1.1 6 .5 5.8-.2 5.8-.9 2.5-.7M642.8 276.3l4.4-3.6 4.2-4.4 3.9-5 3.5-5.3 3.1-5.8 2.7-6.3 2.2-6.6 1.7-7 1.3-7.2.8-7.5.3-7.1v-1.2M554.7 178.2v-99M529.1 79.2v99M989.8 917.3l1.5 2.3 2.8 3.8 3.2 3.5 3.6 3.2 4 2.8 4.1 2.3 4.3 1.8 4.4 1.2 4.5.6h2.5M995.4 885.9l-7.6-13.1M970 883.1l19.8 34.2M1022.6 863.5c-3.1-5.6-7.5-10.3-12.7-14M986.6 842h-.7l-4.1.8-3.8 1.4-3.5 2-2.9 2.4-2.4 2.9-1.9 3.2-1.3 3.5-.8 3.8-.2 4 .3 4.1.9 4.2 1.5 4.2 2 4 .3.6M987.8 872.8l-.6-1.2-1-2.3-.5-2.1-.2-1.6.1-1.3.3-.7.2-.4M1023.2 864.4l-.6-.9M233.8 643.7l-1.3-2.4-1.9-2.1-2.2-1.5-2.4-1.1-2.5-.6-2.7-.3-3.1.1-3.6.7-4.1 1.1-4.1 1.6-3.9 1.9-4 2-3.8 2.4-3.7 2.5-3.6 2.6-3.2 2.9-3.1 2.8-2.3 2.6M194 672.2l.8-.9 1.7-1.7 2.1-1.9 2.5-2 2.8-1.9 2.8-2 3-1.7 2.9-1.4 2.6-1.1 2.2-.8 1.5-.4 1-.2h.4M183.9 684.3l10.1-12.1M178.3 658.9l-19.8 23.7M193.3 673.2l-.7.9-1.3 1.4M158.5 682.6l-1.3 1.6-2.3 3.4-1.4 3.1-.8 2.7-.3 2.7.3 2.8.7 2.5 1.5 2.7 1.9 2.1 2.1 1.6 2.4 1h.2M196.1 669.9l-2.8 3.3M960.8 867.2c1.5 2.7 3.3 5.1 5.5 7.3M993.3 882.3l1.6-.5.6-.3M1007.2 868.7c4.7-12.3 3.6-26-3.1-37.3M986.3 841.7l.7 1.2 1.2 2.7.8 2.9.5 3 .1 2.9-.2 2.6-.5 2.2-.6 1.7-.8 1.2-.6.7-.5.3-.3.1M1004.1 831.4l-19.8-34.3M966.5 807.4l19.8 34.3M938.3 787.2c2.8 4.9 7.2 8.6 12.5 10.6M920.5 797.4l1.4 2.3 2.9 3.9 3.2 3.5 3.6 3.2 3.9 2.7 4.2 2.3 4.2 1.8 4.5 1.2 4.5.7 4.3-.2 4.2-.7 3.8-1.4 3.4-1.9 1.5-1.2M977.3 788.3c-.9-3.7-2.3-7.2-4.2-10.4M966.5 807.4c-1.4-2.7-3.7-5-6.6-6.2M958.8 822.7l-.6-1.3-1.1-2.6M984.3 797.1l-1.4-2.2-2.8-3.8-3.2-3.2-3.6-2.8-3.8-2.2-3.9-1.5-4-.7-4-.1-3.8.7-3.5 1.2-3.3 1.8-2.9 2.4-2.6 2.8-.7 1.1M935.1 812.7c.3 7.2 2.4 14.1 5.9 20.2M938.3 787.2l-19.8-34.3M900.7 763.2l19.8 34.2M889.6 743.9c1.9 3.3 4.2 6.3 7 8.8M922.1 759l1.5-.5 3.2-1.8 2.9-2.3 2.6-2.9 2.2-3.3 1.8-3.7 1.4-4.1.8-4.4.4-4.6-.2-4.7-.7-4.7-1.2-4.7-1.7-4.5-1.9-4.1-.4-.6M917.9 734.5c1-5.5 0-11.3-2.9-16.1M953.4 743.6c-3.6-6.2-8.7-11.5-14.6-15.3M916.8 722.2h-.2l-4.1.8-3.9 1.3-3.4 2-2.9 2.5-2.4 2.8-1.9 3.2-1.3 3.6-.8 3.7-.3 3.9.4 4.2.9 4.2 1.5 4.2 2 4 .3.6M935.5 753.9c-.7-1.2-1.5-2.4-2.5-3.5M916.4 744.1c-.4 3 .3 6.3 2.1 8.8M941 833l19.8 34.2M973.1 847.4l-14.3-24.7M932.8 708.1l-19.8-34.3M895.2 684.1l19.8 34.2M867 663.9c2.8 4.9 7.3 8.6 12.5 10.6M849.2 674.1l1.4 2.3 2.8 3.8 3.2 3.6 3.7 3.1 3.9 2.8 4.1 2.4 4.3 1.7 4.5 1.3 4.4.5h4.4l4.1-.8 3.9-1.4 3.4-2 1.4-1.2M906 664.9c-.9-3.7-2.2-7.2-4.1-10.4M895.2 684.1c-1.3-2.8-3.7-5.1-6.6-6.2M887.5 699.4l-.7-1.3-1.1-2.5M913 673.8l-1.4-2.3-2.8-3.6-3.2-3.4-3.6-2.7-3.8-2.2-4-1.4-4-.8-3.9-.1-3.8.6-3.6 1.3-3.2 1.9-2.9 2.2-2.6 2.9-.7 1.1M863.8 689.4c.4 7.2 2.4 14.1 6 20.3M935.5 753.9l16.3 28.1M973.1 777.9l-19.7-34.3M867 663.9l-19.8-34.3M829.4 639.9l19.8 34.2M818.2 620.6c1.9 3.3 4.2 6.3 7 8.8M850.7 635.8l1.5-.6 3.3-1.8 3-2.3 2.5-2.9 2.2-3.3 1.8-3.7 1.3-4.1.9-4.4.3-4.6-.2-4.7-.6-4.7-1.2-4.7-1.6-4.5-2-4-.4-.8M846.6 611.1c1-5.5-.1-11.2-2.9-16.1M882 620.3c-3.6-6.2-8.6-11.4-14.6-15.3M845.5 598.9h-.2l-4.1.7-3.8 1.4-3.5 2-2.9 2.4-2.4 2.9-1.9 3.3-1.4 3.4-.7 3.8-.2 4 .3 4 .9 4.3 1.5 4.3 1.9 3.9.4.6M864.2 630.6c-.7-1.3-1.5-2.4-2.5-3.4M845.1 620.8c-.5 3.1.2 6.3 2.1 8.8M869.7 709.6l19.9 34.3M903.8 727.5l-16.3-28.1M861.5 584.7l-19.8-34.2M823.9 560.8l19.8 34.3M795.6 540.5c2.9 4.9 7.3 8.6 12.6 10.6M777.9 550.8l1.4 2.3 2.8 3.9 3.3 3.5 3.6 3.1 3.9 2.9 4.1 2.3 4.3 1.7 4.4 1.2 4.5.6h4.4l4.1-.8 3.8-1.3 3.5-2 1.5-1.3M834.7 541.7c-.9-3.7-2.3-7.2-4.2-10.4M823.9 560.8c-1.4-2.9-3.7-5.1-6.7-6.2M816.2 576.1l-.7-1.3-1.1-2.5M841.7 550.5l-1.4-2.3-2.8-3.7-3.2-3.3-3.6-2.7-3.8-2.2-4-1.5-4-.7h-3.9l-3.8.6-3.5 1.2-3.3 1.9-3 2.3-2.5 2.8-.8 1.1M792.5 566.1c.3 7.1 2.4 14 5.9 20.2M864.2 630.6l16.3 28.1M901.9 654.5l-19.9-34.2M795.6 540.5l-19.7-34.2M758.1 516.6l19.8 34.2M746.9 497.3c1.9 3.3 4.2 6.3 7 8.9M779.4 512.4l1.6-.5 3.2-1.9 2.9-2.3 2.6-2.8 2.2-3.3 1.8-3.7 1.3-4.1.9-4.4.3-4.6-.1-4.7-.8-4.8-1.1-4.6-1.7-4.5-1.9-4-.4-.7M775.3 487.9c1-5.6 0-11.3-2.9-16.1M810.7 497c-3.6-6.2-8.6-11.4-14.6-15.3M774.1 475.6h-.1l-4.2.7-3.8 1.4-3.4 1.9-2.9 2.5-2.5 2.9-1.8 3.2-1.4 3.5-.8 3.8-.2 3.9.4 4.2.9 4.2 1.5 4.2 1.9 4 .4.6M792.9 507.3c-.7-1.3-1.6-2.4-2.5-3.5M773.8 497.5c-.4 3.1.2 6.2 2.1 8.8M798.4 586.3l19.8 34.3M832.4 604.2l-16.2-28.1M790.2 461.5l-19.9-34.3M752.6 437.5l19.8 34.3M724.4 417.2c2.8 4.9 7.2 8.7 12.5 10.6M706.5 427.5l1.5 2.3 2.8 3.8 3.3 3.5 3.5 3.3 3.9 2.7 4.2 2.3 4.3 1.8 4.4 1.2 4.5.6h4.3l4.2-.8 3.9-1.4 3.3-1.9 1.5-1.2M763.3 418.4c-.9-3.7-2.3-7.2-4.1-10.4M752.6 437.5c-1.4-2.9-3.7-5-6.6-6.2M744.9 452.7l-.7-1.2-1.1-2.5M770.3 427.2l-1.4-2.3-2.7-3.6-3.3-3.4-3.5-2.7-3.8-2.2-4-1.5-4-.7-3.9-.1-3.8.7-3.6 1.2-3.2 1.8-2.9 2.3-2.6 2.9-.8 1.1M721.1 442.8c.3 7.1 2.4 14 5.9 20.2M792.9 507.3l16.3 28.1M830.5 531.2l-19.8-34.2M724.4 417.2l-19.8-34.2M686.7 393.3l19.8 34.2M675.6 374c1.9 3.3 4.2 6.3 7 8.9M708.1 389.1l1.5-.5 3.3-1.9 2.9-2.2 2.6-2.9 2.2-3.3 1.8-3.7 1.3-4.1.9-4.4.3-4.6-.2-4.7-.6-4.7-1.2-4.7-1.6-4.5-2.1-4-.3-.7M739.4 373.6c-3.6-6.1-8.7-11.4-14.6-15.3M702.6 352.3l-4 .7-3.9 1.4-3.4 1.9-3 2.5-2.3 2.9-2 3.2-1.3 3.6-.8 3.7-.2 4 .3 4.1.9 4.2 1.6 4.2 1.9 4 .3.6M721.6 384c-.7-1.3-1.5-2.4-2.5-3.4M702.4 374.3c-.4 3.1.3 6.2 2.1 8.7M727.1 463l19.8 34.3M761.2 480.9l-16.3-28.1M703.6 363.2c.8-5.4-.3-10.9-3-15.6M718.9 338.2l-20.3-35.1M681.2 314.2l19.4 33.4M653 293.9c2.8 4.9 7.3 8.6 12.5 10.6M635.2 304.2l1.5 2.3 2.8 3.8 3.2 3.5 3.7 3.2 3.8 2.8 4.2 2.3 4.3 1.8 4.4 1.2 4.5.6 4.4-.1 4.1-.7 3.8-1.4 3.5-2 1.4-1.2M692 294.6c-.9-3.6-2.2-6.9-4.1-10M698.6 303.1l-1.5-2.3-2.7-3.7-3.2-3.3-3.6-2.8-3.8-2.1-4-1.5-4-.7-3.9-.1-3.8.7-3.6 1.2-3.2 1.8-2.9 2.4-2.6 2.8-.8 1.2M649.4 319.2c.4 7 2.5 13.7 5.9 19.7M721.6 384l16.2 28.1M759.2 407.9l-19.8-34.3M681.2 314.2c-1.3-2.8-3.7-5.1-6.6-6.2M673.6 329.5l-.7-1.3-1.1-2.6M653 293.9l-19.8-34.2M615.4 270l19.8 34.2M668.1 250.4l-1.4-2.3-1.9-2.7M642.7 230.1l-2.5-.6-4.5-.6-4.3.1-4.2.7-3.8 1.4-3.4 1.9-2.9 2.5-2.5 2.9-1.8 3.2-1.4 3.5-.8 3.8-.2 3.9.3 4.1.9 4.3 1.5 4.2 2 3.9.3.7M633.2 259.7l-.6-1.2-1-2.3-.5-2-.1-1.7.1-1.3.2-.7.2-.4.4-.3.7-.3 1-.1h.1M655.3 338.9l20.3 35.1M689.9 357.6l-16.3-28.1M653.4 265.9l12.6 22.1M687.9 284.6l-19.8-34.2M583.5 239.7l1.3-1.6 2.2-3.4 1.5-3.1.8-2.7.3-2.8-.3-2.7-.7-2.6-1.5-2.6-1.9-2.1-2.2-1.5-2.3-1.1-2.5-.7-2.7-.2-3.2.1-3.6.6-4.1 1.2-4 1.6-4 1.8-4 2.2-3.8 2.3-3.7 2.4-3.6 2.8-3.3 2.8-3 2.9-2.3 2.6M548.6 249.1l.8-.9 1.7-1.7 2.1-1.9 2.4-1.9 2.8-2 2.9-2 3-1.6 2.9-1.4 2.6-1.2 2.2-.7 1.5-.5 1-.1.4-.1M528.8 272.7l19.8-23.6M532.9 235.9l-19.8 23.6M528.8 272.7c-.6.7-1.1 1.4-1.4 2.1M547.9 250.1l-.7.9-1.2 1.2M513.1 259.5l-1.3 1.6-2.2 3.4-1.5 3.1-.8 2.7-.3 2.8.2 2.6.8 2.7 1.5 2.6 1.9 2 2.1 1.6 2.4 1.1 2.5.7 2.7.2 3.1-.2 3.7-.5 1.8-.6M549.7 275.5c4.9-3.1 9.2-6.9 13.1-11.1M543.7 306l1.5-2.1 2-3.6 1.6-3.9 1.1-4.2.6-4.5.1-4.7-.3-4.7-.9-4.7-1.5-4.6-1.8-4.4-2.3-4.1-2.2-3.1M524.4 245.9c-8.2-1.9-16.7 1.1-22.1 7.7M549.7 248.1l-1.8 2M579.4 244.6l4.1-4.9M527.4 293.3c2.5-4.1 3.1-9.1 1.7-13.7M523.4 330.1l20.2-24.1M527.4 293.3l-19.4 23.1M502.4 253.6l-20.3 24.2M498.3 290.4l9.8-11.7M517.1 305.7l-1.3-2.4-2-2.1-2.1-1.6-2.3-1-2.6-.6-2.7-.3-3.1.1-3.6.6-4.1 1.2-4 1.5-4 1.9-4 2.1-3.8 2.3-3.7 2.6-3.6 2.7-3.3 2.8-3 2.9-2.4 2.6M496.7 320.4c-7.3 3.2-13.9 8-19.4 13.8M482.1 277.8c-6.6 8.8-8.8 20-6.1 30.6M484.9 327.3l2.8 3.2 3.5 2.9 3.8 2.3 4 1.6 4 .9 4 .2 3.8-.5 3.5-1.1 3.4-1.7 3-2.2 2.7-2.8M498.3 290.4c-1.6 2.4-2.5 5.4-2.2 8.4M505.7 317.2c.9.4 1.9 0 2.4-.7M457.5 357.8l19.8-23.7M461.5 321l-19.8 23.6M457.5 357.8c-.5.7-1.1 1.3-1.4 2.1M476.6 335.2l-.7.9-1.2 1.1M441.7 344.6l-1.2 1.6-2.3 3.4-1.4 3-.8 2.8-.3 2.7.2 2.7.8 2.7 1.5 2.5 1.9 2.2 2.1 1.6 2.4 1 2.5.6 2.7.3 3.1-.1 3.7-.7 1.7-.5M477.9 361c5.4-3.5 10.3-7.7 14.5-12.5M479.2 332.1l-2.6 3.1M492.4 348.5l8.9-10.7M456.1 378.4c2.5-4.1 3.1-9.1 1.6-13.7M471.8 391.6l1.6-2 2-3.6 1.6-3.9 1.2-4.2.5-4.5.2-4.7-.4-4.7-.9-4.7-1.4-4.6-1.9-4.4-2.3-4.2-2.2-3M452.6 331.5c-8.2-1.9-16.7 1.1-22.1 7.7M452.1 415.3l19.7-23.7M456.1 378.4l-19.9 23.6M430.6 339.2l-19.8 23.7M426.5 376l10.3-12.3M445.8 390.7l-1.4-2.3-1.9-2.1-2.1-1.6-2.4-1-2.5-.7-2.7-.2-3.1.1-3.6.6-4.1 1.2-4 1.5-4 1.9-4 2.1-3.9 2.3-3.7 2.5-3.5 2.7-3.3 2.8-3 2.9-2.4 2.7M426.4 405c-7.7 3.2-14.7 8.1-20.4 14.2M410.8 362.9c-6.6 8.8-8.8 20.1-6.1 30.7M413.6 412.4l2.8 3.1 3.6 3 3.7 2.3 3.9 1.6 4.1.9 4 .2 3.8-.5 3.5-1.1 3.4-1.7 3-2.2 2.7-2.7M426.5 376c-1.6 2.4-2.4 5.2-2.3 8M433.8 402.8c.9.4 2 .1 2.5-.8M386.2 442.9l19.8-23.7M390.2 406.1l-19.8 23.6M386.2 442.9c-.6.7-1.1 1.4-1.4 2.1M405.3 420.3l-.8.9-1.1 1.2M370.4 429.7l-1.2 1.6-2.3 3.4-1.4 3-.8 2.8-.4 2.8.3 2.6.8 2.6 1.4 2.7 2 2.1 2.1 1.5 2.4 1.1 2.4.7 2.8.2 3.1-.1 3.6-.7 1.8-.5M406.6 446.1c5.4-3.4 10.2-7.7 14.5-12.5M407.9 417.2l-2.6 3.1M421.1 433.5l8.9-10.6M384.7 463.5c2.5-4.1 3.1-9.1 1.7-13.7M400.5 476.7l1.6-2.1 2-3.5 1.6-3.9 1.1-4.2.6-4.5.2-4.7-.4-4.7-1-4.7-1.3-4.6-1.9-4.4-2.3-4.2-2.2-3.1M381.3 416.6c-8.2-1.9-16.8 1.1-22.1 7.7M380.7 500.4l19.8-23.7M384.7 463.5l-19.8 23.7M359.3 424.3l-19.8 23.6M355.2 461.1l10.3-12.2M374.4 475.8l-1.3-2.3-1.9-2.1-2.1-1.5-2.4-1.1-2.5-.7-2.7-.2-3.1.1-3.7.7-4 1.1-4.1 1.5-4 1.9-3.9 2.1-3.9 2.3-3.7 2.6-3.5 2.6-3.3 2.8-3 2.9-2.4 2.7M355.2 490.1c-7.8 3.3-14.8 8.1-20.5 14.3M339.5 447.9c-6.6 8.8-8.8 20.1-6.1 30.7M342.3 497.5l2.8 3.1 3.5 3 3.8 2.2 3.9 1.7 4 .9 4 .2 3.8-.5 3.6-1.1 3.3-1.7 3.1-2.3 2.6-2.6M355.2 461.1c-1.6 2.4-2.4 5.2-2.3 8M362.5 487.9c.9.5 2 .1 2.5-.7M314.8 528l19.9-23.7M318.9 491.2l-19.8 23.5M314.8 528c-.6.7-1.1 1.4-1.4 2.1M334 505.4l-.8.9-1.1 1.2M299.1 514.7l-1.3 1.6-2.2 3.5-1.4 3-.8 2.8-.3 2.8.2 2.6.8 2.6 1.4 2.6 1.9 2.2 2.2 1.5 2.3 1.1 2.6.7 2.7.2 3.1-.1 3.6-.7 1.8-.5M335.3 531.1c5.4-3.4 10.2-7.7 14.5-12.5M336.6 502.3l-2.6 3.1M349.8 518.7l8.8-10.7M313.4 548.6c2.5-4.1 3.1-9.1 1.7-13.7M329.2 561.8l1.6-2.1 2-3.5 1.6-3.9 1.1-4.2.7-4.5v-4.7l-.3-4.7-1-4.7-1.3-4.7-1.9-4.4-2.3-4.1-2.2-3M310 501.8c-8.2-1.9-16.7 1.1-22.1 7.6M309.4 585.4l19.8-23.6M313.4 548.6l-19.7 23.7M288 509.4l-19.8 23.6M283.9 546.2l10.3-12.2M303.1 560.9l-1.3-2.3-1.9-2.1-2.1-1.5-2.4-1.1-2.5-.7-2.7-.2-3.1.1-3.7.7-4.1 1.1-4 1.5-4 1.9-3.9 2.1-3.9 2.3-3.7 2.6-3.6 2.6-3.2 2.9-3.1 2.8-2.3 2.6M283.8 575.2c-7.8 3.3-14.7 8.1-20.5 14.3M268.2 533c-6.6 8.8-8.8 20.1-6 30.7M270.9 582.6l3 3.1 3.4 3 3.7 2.2 4 1.7 4 .9 4 .2 3.8-.5 3.6-1.1 3.3-1.7 3.1-2.2 2.6-2.8M283.9 546.2c-1.6 2.4-2.4 5.2-2.3 8.1M291.1 572.9c.9.5 2 .2 2.6-.7M243.5 613.1l19.8-23.7M247.6 576.2l-19.8 23.7M243.5 613.1c-.5.6-1.1 1.4-1.5 2.1M262.6 590.5l-.7.9-1.1 1.2M227.8 599.9l-1.3 1.5-2.2 3.5-1.5 3-.8 2.8-.2 2.7.2 2.7.8 2.6 1.4 2.7 1.9 2.1 2.2 1.5 2.3 1.1 2.6.6 2.7.3 3.1-.2 3.7-.6 1.7-.5M263.9 616.2c5.4-3.4 10.3-7.7 14.5-12.5M265.3 587.4l-2.7 3.1M278.4 603.7l8.9-10.6M242.2 633.7c2.4-4.2 3-9.1 1.7-13.7M257.9 646.9l1.6-2.1 2-3.5 1.6-3.9 1.1-4.2.6-4.5.2-4.7-.5-4.7-.9-4.7-1.4-4.6-1.8-4.4-2.3-4.2-2.2-3.1M238.7 586.8c-8.2-1.9-16.8 1.1-22.1 7.7M238.1 670.5l19.8-23.6M242.2 633.7l-19.8 23.6M216.7 594.5l-19.8 23.6M212.6 631.4l10.3-12.4M196.9 618.1c-6.4 8.5-8.7 19.4-6.2 29.8M199.2 667.2l.2.3 3.1 3.4 3.5 2.9 3.8 2.2 3.9 1.7 4 .9 4 .2 3.8-.5 3.6-1.1 3.3-1.7 3-2.3 2.7-2.7M222.4 657.3l-.4.4-.5.4-.4.2h-.4l-.8-.2-1.1-.5-1.2-.8M212.6 631.4c-1.3 1.7-2.1 3.9-2.1 6.1M129.7 675.7l-21.8 5.8M1065 935.9l-3.7 1M1083.1 931.1l-3.6 1M1063.5 1123.8c8.8 13.8 21.8 24.3 37.1 30M1100.6 1195c11.3 4.2 23.5 4.9 35.2 1.9M1137.4 1196.4l3.3-1 5.5-2.3 5.3-2.9 5.1-3.5 4.9-4.1 4.4-4.6 4.1-5.2 3.8-5.6 3.4-6.1 3-6.6 2.5-6.9 2.1-7.2 1.6-7.6 1.2-7.8.7-8 .3-8.2-.3-8.3-.8-8.3-.9-6.5M1186.6 1085.7c-1.5-10.3-4-20.3-7.3-30M1128.7 1059.5l1.1 2.7 1.6 5.3 1.3 5.4 1 5.4.4 5.5v5.3l-.3 5.1-.8 4.9-1.1 4.4-1.5 4.1-1.8 3.7-2 3.2-2.3 2.7-2.5 2.2-2.6 1.7-2.8 1.3-1 .1M1121.6 1007.1c-.5 3.4-.7 6.9-.7 10.5M1179.2 1055.5l-2.7-5.6-3.1-6.8M1122.4 1036.7c1.2 7.8 3.4 15.5 6.4 22.8M1155.3 997.7l-33.3 9M1180 1057.8l-.7-3.2-3.6-10.8M1169.9 1033.8c.9 3.2 2.1 6.3 3.7 9.2M1170 1017.4c.1 9.1 2 18 5.7 26.3M1125.4 1115.9l-.5-.2-3.5-1.6-3.5-2.2-3.4-2.8-3.3-3.2-3.1-3.8-3-4.1-2.6-4.5-2.4-4.9-2-5.1-1.8-5.3-1.2-5.4-.8-5.5-.5-5.4v-5.1l.1-1.3M1049.8 897.4l2.1-2.1M1033.7 877.2l-2.1 2M1046.4 1081.9c2.8 15 8.6 29.3 17.1 41.9M1080.1 928.7l-39-67.3M1046.4 1081.9c-4.3-21.9-13.9-42.5-27.8-60M1047.4 1147l2.2 3.8 4.5 6.7 4.8 6.4 5.1 5.9 5.3 5.5 5.7 5 5.8 4.4 6 3.9 6.1 3.3 5.8 2.4 1.9.7M1014 1002.9c-.1-8.1-2.3-16.1-6.3-23.2M1093.9 1055.5v-.7M1014.1 1007.6c-.2 5 1.3 9.9 4.4 13.9M1014 1002.9v4.7M968.2 911.4l39.5 68.3M1026.1 1032.2l.3 2.2.1 2.7M1026.8 1071.1c.2 26.6 7.3 52.8 20.5 75.9M1026.6 1037.1l.2 34M215.2 714.7l-1.6-2.5M192 726.2l1.6 2.5M158.8 641.2l-37.8 45.1M191.4 745.4l20.7-24.8M214.5 717.9l15.6-18.7M193.7 681.7l-3.3-5.2M173.4 804.1l.1-3.3.5-3.5.8-3.1 1-2.6 1.1-2.2 1.1-1.7.8-.8M191.4 745.4c-3.8 5.3-5.7 11.6-5.5 18.1M173.2 838l.2-33.9M178.8 786.8c4.6-5.1 7.1-11.7 7-18.6M185.9 768.2v-4.7M151.8 904.6l2.3-2.9 3.8-5.6 3.4-6 3.1-6.5 2.6-6.8 2.1-7.2 1.8-7.5 1.2-7.8.8-8 .3-8.3M106.1 808l.1 2.8-.1 5.2-.6 5-.9 4.7-1.3 4.3-1.6 3.9-2 3.5-2.1 3-2.4 2.4-2.5 2-2.7 1.5-2.5.8M106.1 807.3v.7M95.1 925.6c8.3 1.6 16.9 1.4 25.1-.7M24.5 748.9l-3.7 9.5-2.5 9.6-1.3 9.7-.4 9.5.5 9.4 1.3 9.3 2.1 9.4 2.9 9.4 3.7 8.9 4.5 8.5 4.5 7.1 4.2 5.6 2 2.4 1.8 2 1.9 2 2.9 2.7 3.9 3.4 5.3 3.9 6.5 3.8 7.2 3M97.5 840.5l-2.2-.9-3.5-1.8-3.5-2.5-3.3-3-3.2-3.4-3.1-3.9-2.8-4.3-2.5-4.7-2.2-5.1-1.9-5.2-1.5-5.4-1.1-5.4-.7-5.4-.2-5.4.1-5.2.6-5 1-4.7 1.3-4.3 1.5-3.7.5-.9M121 924.7c12.1-3.3 22.8-10.3 30.7-20.1M24.6 748.8c3.6-6.7 5.4-14.3 5.3-21.9M13.3 775.6l-.6 4.1-.9 8-.4 8.1.2 8.3.5 8.3 1 8.4 1.6 8.3 1.9 8.3 2.4 8.1 2.8 8 3.3 7.8 3.6 7.5 4 7.3 4.3 6.9 4.7 6.4 5 6.2 5.2 5.7 5.6 5.1 5.7 4.7 5.9 4 6.1 3.5 6.2 2.9 6.2 2.3 6 1.5 1.5.3M28.5 738.5l-.7 1-.6.7M70.8 760.3c3.3-6.3 5.5-13 6.7-19.9M27.3 740.2l-2.5 3.6-3.4 4.6M20.9 749.1c-3.6 8.5-6.1 17.4-7.6 26.5M950.8 797.8c3 1.1 6 2.3 9.1 3.4M916.4 744.1c.7-3.1 1.3-6.3 1.6-9.6M879.5 674.5c3.1 1.1 6 2.3 9.1 3.3M845 620.8c.7-3.2 1.3-6.4 1.7-9.6M808.1 551.2c3.1 1.2 6.1 2.3 9.1 3.4M773.8 497.4c.7-3.1 1.2-6.3 1.7-9.5M736.9 427.9c3 1.1 6 2.3 9.1 3.3M677.2 370.8l4.5 5.7M702.4 377.1l.7-.7 2.9-6.1 1.1-7.4-.8-8.2-2.7-7.8-.9-1.7M703.7 363.2l-.1.4-.3 3.4-.3 4.4-.6 2.9M676.7 370l.5.8M702.7 345.2l-.4-.8M682.9 311l-.5-.8M665.5 304.6c3.1 1.1 6 2.3 9.1 3.3M656.9 335.8l-3-7.3-1.2-7.3M659.7 301.4l5.2-2.1 5.9.6 5.6 3.2 5 5.5 1 1.6M656.9 335.8l.5.7M529.1 279.6c-.3-1.9-.7-4-1.1-5.8M503 262.1l4.5-3.3 5.6-1 1.1.4M529.5 271.9l2.3 6.1 1.2 8.1-.9 7.7-2.7 6.3-.9 1.2M503 262.1l-.4.5M528 301.9l.5-.6M508.2 325.5l.5-.6M483.2 285.7l-.4.6M505.7 317.2c-3.2.4-6.3 1.4-9 3.1M482.7 286.3c-4 5.9-5.4 13.3-3.9 20.3M488.4 324.9c4.2 5.6 12.2 6.7 17.8 2.5.7-.6 1.3-1.1 1.9-1.9M457.8 364.7c-.3-1.9-.6-3.9-1-5.8M433.8 402.9c-2.6 0-5.1.8-7.3 2.1M386.4 449.8c-.3-2-.6-4-1.1-5.9M362.5 487.9c-2.6.1-5.1.8-7.4 2.1M315.2 534.9c-.3-2-.7-3.9-1.1-5.9M291.1 573c-2.6.1-5.1.9-7.3 2.1M243.8 620c-.3-1.9-.7-3.9-1.1-5.8"/>
    <path class="st1"
        d="M114.8 701.7l.6-1.3.2-1.7-.3-1.7-.7-1.6-1-1.2-1.3-.6-1.2.1-1.1.7-.6 1.3-.3 1.6.3 1.8.8 1.6 1.1 1.2 1.2.6 1.2-.1zM117.6 714.3l1.1-.5M120.3 687.6l-1.3-1.6-2.3-2.1-2.4-1.6-2.6-.9-2.6-.1-2.3.7-2.2 1.3M49 740.7l68.6-26.4M45.1 734.6l3.9 6.1M104.6 683.3l-59.5 51.3M127.8 678.2l-10.5 2.8M122.3 684.7l-.1-.2-2.4-2.1-2.5-1.4M113.3 694l-.3.7-.2 1.7.3 1.7.7 1.6 1 1.2.3.2M49 740.7l3.6-1M118.7 714.3l-66.1 25.4M71.5 734.1l37.5-14.4M71.4 734.6l37.6-14.4"/>
    <path class="st1"
        d="M1063.4 955.8l-.6-1.6-.3-1.8.4-1.6.7-1.2 1.1-.5h1.2l1.2.7 1 1.3.7 1.7.2 1.7-.3 1.6-.8 1.2-1 .6-1.2-.1-1.2-.7zM1123.8 1025.1l-63.3-58.2-2.1-2.4-1.9-2.9-1.4-3.3-.9-3.4-.5-3.5.1-3.5.7-3.2 1.1-2.8 1.6-2.3 1.9-1.7 2.4-1 2.4-.2 2.6.5 2.5 1.2 2.4 2 2.1 2.4 47.9 66.9M1095.3 937l-21.8 5.8M1095.3 937l46.1 64.4M1076.6 933.5l1.1-.7 2.4-.8 2.6-.1M1083.1 931.1h.1l2.5-.2 2.6.5 2.4 1.2 2.4 1.9 2.2 2.5M1068.1 935.8l14.6-3.9M1068.1 935.8h-2.5l-.6.1M1066.6 949.5l-.1.4-.3 1.6.1 1.7.7 1.7 1 1.2.5.4M1172.6 1088.4l-.1 10-1 9.6-3 14.1-5 12.6-6.7 10.8-8.3 8.5-9.4 6.1-10.4 3.4-11.1.6-11.3-2-11.4-4.9-10.8-7.4-10.2-9.8-9.1-11.7M1154 1049.4c2-.6 4.1-1.3 6-1.9M1166.5 1060.1l-4.7-9.4-1.7-3.2M1172.6 1088.4c-1-9.7-3.1-19.1-6.1-28.3M1124.8 1008.6l-.3 2-.2 2.1-.2 2-.1 2.1-.1 2.1v6.500000000000001M1124.8 1008.6l.4.4.6.5.4.4.5.5.4.5.5.5.5.5.4.5c-1.7 14.6.3 29.4 5.9 43.1l3.6 10.7 2.4 11.1.9 11.1-.5 10.8-1.9 10.1-3.3 9.1-4.4 7.9-5.6 6.4-6.6 4.7-7.2 2.7-7.8.9-8-1.1-8-3-7.8-4.8-7.3-6.6-6.6-8.1M1052 1083.3l1.1 4.7 1.2 4.6 1.5 4.5 1.8 4.4 1.9 4.3 2.1 4.1 2.3 3.9 2.5 3.8M1052 1083.3l-2.2-9.3-2.6-9.1-3.1-9-3.6-8.7-4-8.4-4.4-8-4.9-7.8-5.2-7.1-5.5-6.8M1016.4 1004.5l.1 4.6M1009 977.2l1.7 3.1 1.4 3.2 1.3 3.4 1 3.4.9 3.6.6 3.5.4 3.6.1 3.5M967.7 905.8l41.3 71.4M967.7 905.8l8.3-8.3 2.9.9M998.8 928.2l10.9 19 1.1 1.6 1.3 1.3 1.3.9 1.4.6 1.4.3 1.4-.1 1.2-.5 1.2-.9 2.6-2.6 1-1.2.7-1.5.5-1.7.2-1.9-.1-2-.4-2-.6-1.9-.9-1.7-27.6-47.8.2-8.3 6.1-6.1M1043.7 944.4l-42-72.7M1043.7 948.5v-1l-.1-.6v-.5l.1-.5v-1.5M1053.8 1062.5l-10.1-114M1054.6 1062.6h-.4l-.1-.1h-.30000000000000004M1131 1057.7l2.2 6.2 1.9 6.5 1.2 6.5.7 6.6.2 6.4-.4 6.3-.9 6.1-1.4 5.8-1.9 5.4-2.4 4.9-2.8 4.4-3.3 3.7-3.6 3.3-3.9 2.4-4.2 1.8-4.4 1.1-4.7.3-4.6-.5-4.7-1.1-4.7-2-4.7-2.6-4.4-3.3-4.3-3.9-4-4.5-3.7-5-3.3-5.4-2.9-5.9-2.5-6.1-2-6.4-1.6-6.5-1-6.6-.4-6.4.1-6.5M1124.3 1030.9l.5 3.4.5 3.4.7 3.4.8 3.4.9 3.4 1 3.2 1.1 3.4 1.2 3.2M1125.9 1028.1l-.2.3-.2.3-.2.4-.2.4-.1.3-.2.3-.3.4-.2.4M1123.9 1025.4l2 2.7M1154 1049.4c-6.5 1.9-13 4-19.4 6.3M1136.3 1196.8l-.5.1M1097.4 1188.8l6.1 1.8 6.1 1 6 .4 5.9-.4 5.8-1.1 5.6-1.7 5.4-2.5 5.1-3.1 4.8-3.8 4.5-4.4 4.1-5 3.8-5.6 3.3-6 3-6.6 2.4-7 1.9-7.3 1.5-7.7 1-8 .4-8.2-.1-8.3-.6-8.5-1.1-8.5c3.9-.3 7.7-.8 11.4-1.9M1133.5 1016.8l-4.8-4.2M1133.5 1016.8c2.9 3.5 6.4 6.6 10.2 9.1M1149.1 1031.7c-1.3-2.4-3.1-4.4-5.4-5.9M1149.1 1031.7c.8 6.1 2.4 12 4.9 17.6M1166.8 1043.1l2.1 3 6.6 9.4M1143.7 1025.8l2.7-.2 3.4.9 4.6 2.6 4.8 4.3 4 4.7 3.6 5M1168.3 1007.4l-34.8 9.4M1168.3 1007.4l1.7 8.1-.1 3.3M1170.3 1042.2l-2.4-5.3-1.8-5.5-.7-5.3.7-3.9 1.6-2.3 2.2-1.1M1176.4 1055.3l-4.6-10-1.5-3.1M1176.4 1055.3l-.9.2M1136.4 1196.8l.9-.3M1175.4 1055.5l5.2 15.2 3.5 15.9M1175.4 1055.5c-3.1 1.3-6.1 2.8-8.9 4.6M1184.2 1086.7c-1.6-10.7-4.2-21.3-7.8-31.4M1179.2 1055.6l-.1-.2-.9-.3-1.8.2M1045.5 1079.1l1.3 6.6 1.7 6.5 2 6.5 2.3 6.3 2.5 6.2 2.9 5.9 3.2 5.7 3.4 5.5M1048.6 1144.4l4.5 7.1 4.7 6.6 5 6.1 5.3 5.6 5.5 5.1 5.8 4.4 5.9 3.9 6 3.1 6.1 2.5M1029.2 1072.6l.4 9.3.9 9.4 1.7 9.3 2.2 9.2 2.7 9.1 3.4 8.8 3.9 8.6 4.2 8.1M1029 1038.7l.2 33.9M1045.5 1079.1l-1.4-5.4-1.5-5.4-1.8-5.2-2-5.2-2.2-5-2.4-4.9-2.5-4.8-2.7-4.5M1166.8 1043.1c-2.4 1.2-4.7 2.6-6.8 4.3M1160.1 1047.5c-2.7-5.8-6.4-11.2-11-15.7M1123.8 1007.4l1 1.2M1159.8 997.7l-36 9.7M1161.1 998.9l-1.3-1.2M1161.1 998.9l.5.4.5.6.5.4.5.5.5.5.5.5.5.5.5.5 3.2 4.6M1054.6 1062.7l1.5.5 1.7.4 2 .2 2 .2 2 .1 2-.2 1.7-.1 1.5-.3M1121.8 1007.1v-.4l.8.1 1.2.6M1121 1017.5c.3 2.8 1.3 5.5 3 7.8M1173.5 1043l-.6-.5-1-.3h-1.6M1124.3 1030.9l-1.4 2.8-.6 2.4.1.6M1159.8 997.7l-2.2-.3-2.3.3M1174.2 1043.9l1.4-.1M1169.7 1032.9l.2.8v.1M1169.9 1018.8c-.4 2.5-.6 5-.7 7.6.8 6 2.5 12 5 17.5M1090.9 1057.6l-21.9 5.9M1073.5 1061.1l4.2-78.4M1090 994l-3.5 63.7M1090.9 1056.5l-4.4 1.2M1090.9 1057.6v-1.1M1069.1 1062.3l-.1 1.2M1069.1 1062.3l4.4-1.2M1065.5 1059.4l-8.7-97.2M1065.5 1059.4l-11.7 3.1M1073.5 1061.1l-1-.1-1-.2-1-.2-1-.2-1-.2-1-.3-1-.3-1-.2M1055.2 942.4l.1-.7.2-1.8.5-1.7.5-1.5.7-1.4.8-1.3.9-1M1061.2 936.9l-2.3-3.9M1017.3 869.6l37.3 64.5M1039.1 863.7l-21.8 5.9M1072 929.4l4.3-1.2M1058.9 933l-4.3 1.1M1031.6 890.7l1.8 2.5 2.1 2.3 2.5 1.7 2.6 1.3 2.6.7 2.6.1 2.1-.7 1.8-1.2h.1M1031.6 879.2l-1.1 1.7-.7 2.2v2.4l.6 2.7 1.2 2.5M1072 929.4l2.7 4.6M1043.7 944.4l.9-3.1 1.9-2.8 2.4-1.9 2.7-1.4 2.7-1.1h.3M1001.7 871.7l.2-.3.3-.3.3-.3.3-.3.4-.3.3-.3.4-.3.4-.3c4.3.9 8.6.9 12.8.1M1086.7 1053.7l3.5-.9-2.2-23.5"/>
    <path class="st1"
        d="M1051.9 883.7l-1.7-2.4-2.2-2.3-2.5-1.7-2.7-1.3-2.6-.7h-2.4l-2.3.6-1.7 1.2-1.3 1.7-.6 2.1v2.4l.6 2.7 1.2 2.6 1.8 2.6 2.2 2.1 2.4 1.8 2.6 1.3 2.7.7h2.4l2.3-.5 1.7-1.2 1.3-1.8.6-2.1v-2.5l-.6-2.6zM1054.6 1062.6c4.8 1.1 9.8 1 14.6-.3M1039.1 863.7l1.2-.4.7-.5.4-.7-.2-.6-.6-.8-1.1-.6-35.1 9.3M1080.3 931.9l.1-.1-.1-2.3-.5-1.2-1.2-.4-2 .3h-.3M1052 1083.3l-1.8-.1-1.5-.2-1.1-.3-.8-.4-.4-.3v-.1M1016.5 1009.1l-.4 2.6.5 5.8 1.7 3.9.2.1.2.2M1090.9 1056.5l2-.7 1-.8-.3-.8-1.3-.7-1.4-.6h-.30000000000000004l-.1-.1h-.30000000000000004M966.9 906.8c.2 1.6.6 3.2 1.4 4.7M966.9 906.8v-.1l.1-.1.2-.2.1-.1.1-.2.1-.1.1-.1.1-.1M978 897l-2 .5M161.9 646.8l-42 50.1M168 656.1l-6.1-9.3M168.2 664.5l-.2-8.4M140.6 697.4l27.6-32.9M140.9 711.6l-.9-1.8-.6-1.9-.6-1.9-.1-2 .1-1.9.3-1.7.7-1.7.8-1.3M143.6 715.6l-2.7-4M153.9 717.9l-1 1-1.3.6-1.3.3-1.5-.1-1.4-.5-1.3-.9-1.3-1.2-1.2-1.5M181.5 685l-27.6 32.9M187.6 686.3l-6.1-1.3M195.9 699l-8.3-12.7M154.6 748.2l41.3-49.2M147.2 771.6l.2-3.4.4-3.4.6-3.2.8-3.1 1-2.9 1.3-2.7 1.5-2.4 1.6-2.3M147.2 776.2v-4.6M111.7 831.4l2.1-8.1 2.6-7.8 3.1-7.3 3.6-6.8 4.1-6.2 4.4-5.7 4.8-5.1 5.3-4.4 5.5-3.8M111.7 831.4l-1.1 4.1-1.2 3.9-1.6 3.7-1.7 3.5-2 3.2-2.1 3-2.3 2.7-2.5 2.4M29 759.3l-3.6 8.9-2.3 9.8-.9 10.7.5 11.1 2 11.2 3.2 10.9 4.5 10.3 5.6 9.3 6.5 8.1 7.3 6.8 7.7 4.9 8 3.3 8 1.2 7.8-.7 7.3-2.6 6.6-4.6M29 759.3c5.8-12.4 7.9-26.3 5.9-39.9M38.8 717.6l-.5.2-.5.2-.4.3-.6.2-.4.3-.5.2-.5.2-.5.2M39.7 734.9l.1-2.1v-4.300000000000001l-.1-2.2-.2-2.2-.1-2.1-.3-2.2-.3-2.2M39.7 734.9l-1.9 1.6.1.4.3.6.2.4.1.5.2.4.2.5.2.5.2.4M32.6 763.3l1.3-2.5 1.1-2.6 1-2.9.9-2.8.8-3 .7-3 .5-3.1.4-3.2M109.1 809.4v6.4l-.4 6.4-1 5.9-1.5 5.7-2 5.4-2.5 4.7-2.9 4.3-3.4 3.7-3.7 3-4 2.4-4.2 1.6-4.5.9-4.6.1-4.7-.6-4.8-1.4-4.6-2-4.7-2.7-4.4-3.5-4.1-4.1-4-4.5-3.6-5.2-3.3-5.5-2.8-5.9-2.4-6.2-1.9-6.3-1.4-6.6-.9-6.5-.3-6.5.2-6.5.7-6.1 1.2-5.8 1.8-5.5 2.2-5.2M109.1 809.4h.2l.1.1h.30000000000000004v.1l10.2-108.6.1-.5v-3.1l-.1-.5M197.1 700.6l.5 1.9.5 1.6.8 1.4.9 1.1 1 .7 1.1.4 1.1-.1-38.3 45.6-1.2.2-1.4-.1-1.4-.3-1.4-.5-1.4-.9-1.2-1-1.2-1.1-.9-1.3M195.9 699l.1.2.2.2.2.2.1.2.2.2.1.2.2.2.1.2 36-9.6M227.7 700.9l1.1-.5 1-.9.9-1.2.8-1.5.8-1.8.4-2 .4-2M203 707.6l24.7-6.7M187.6 686.3l29.5-7.9M232.2 689.3l-7.1-10.9M233.1 691l-.1-.2-.1-.2-.1-.3-.1-.2-.1-.2-.2-.2-.1-.2-.1-.2M181.5 685l30.2-8.1M193.7 721.6l-1.2 1.7-.6 1.5v1.1l.1.3M213.6 712.2l-.6-.5-1.2-.3-1.7.2-2.2.5-2.5 1-2.7 1.4-2.6 1.6-2.4 1.8-2.2 1.9-1.8 1.8M164.7 753.2l24.7-6.6M168.2 664.5l7-1.8M168 656.1l18.3-4.9M160.4 643.3l.1.4.1.5.2.4.2.4.2.5.2.4.2.4.3.5M160.4 643.3l29.7-7.9"/>
    <path class="st1"
        d="M195.3 724.1l1.8-1.9 2.1-1.8 2.5-1.9 2.6-1.6 2.6-1.4 2.6-.9 2.1-.6 1.8-.1 1.3.2.6.8v1.2l-.6 1.4-1.2 1.7-1.8 1.8-2.1 1.9-2.5 1.8-2.7 1.6-2.6 1.4-2.5 1-2.2.6-1.7.1-1.3-.3-.6-.7v-1.2l.6-1.4zM160.9 640.2l-1.2.3-.8.6-.3.5.2.5.5.6 1.1.6M119.9 696.9l-.3-3.4v-3.3l.5-2.5 1-1.4M160.9 640.2l21.8-5.9M190.3 633.6c-2.6-.1-5.1.1-7.6.7M148.1 651.4l1.7-1.9 2.2-1.9 2.5-1.7.9-.7M146.4 655.9l-.2-.3v-1.1l.7-1.5 1.2-1.6M164.7 753.2l-1.3 1.8-1.2 1.9-1 2.1-.9 2.3-.6 2.5-.5 2.5-.3 2.6-.1 2.8-1.2.2-1.4.3-1.6.1h-1.6l-1.6-.1-1.5-.2-1.5-.1-1.2-.3M171 805.7l.3-4.5.7-4.4 2.3-7.4 3.2-5.3 1.2-1.4M170.8 839.5l.2-33.8M170.9 805.7l-.2 33.9M163.3 786.8l3.5 3 2.4 4.5 1.1 4 .5 4.3.1 3.1M158.8 776.3v.6l.7 4.6 1.9 3.7 1.9 1.6M158.8 771.7v4.6M158.8 771.7l24.7-6.7M183.5 769.8v-4.8M178.7 782.7c3.1-3.6 4.7-8.2 4.7-12.9M183.5 765l.1-2.7.3-2.7.5-2.4.6-2.5.9-2.2 1-2.2 1.2-1.9 1.3-1.8M132.1 835.2h-2.7l-2.7-.1-2.8-.3-2.7-.4-2.6-.6-2.6-.7-2.3-.8-2-.9M158.3 792.5l-4-2.4-2.7-2.8-1.8-2.9-1.4-3.4-1-3.8-.2-1M132.1 835.2l1.9-6.8 2.3-6.4 2.8-6.2 3.1-5.6 3.6-5.2 3.8-4.7 4.2-4.2 4.5-3.6M163.3 786.8l-.3.9-.6.9-.5.9-.7.8-.6.7-.8.6-.7.5-.8.4M158.8 776.3l-1.2.3-1.4.2-1.6.1-1.6.1-1.6-.1-1.5-.1-1.5-.2-1.2-.4M108.8 718.1l3.5 64.6M115.5 698.3l-1.5 1.7M170.9 805.7l-1.3.3-1.4.2-1.6.1-1.6.1-1.5-.1-1.6-.2-1.4-.2-1.3-.2.6-2.3.4-5.8-.6-3.1-1.3-2M142.7 837.2l-1-.4-1.2-.5-1.4-.3-1.3-.3-1.5-.3-1.4-.1-1.5-.1h-1.3M142.7 837.2l1.4-4.7 1.5-4.5 1.8-4.2 2-4.2 2.2-3.8 2.3-3.6 2.6-3.5 2.7-3M142.7 837.2l-1.3 6-1.7 5.6-1.9 5.4-2.3 5-2.7 4.8-2.8 4.4-3.2 4-3.4 3.6M159.1 839.5l.1-33.8M139.7 900.7l4.3-5.8 3.8-6.4 3.4-7.1 2.7-7.6 2.2-8 1.5-8.5 1-8.7.5-9.1M90.7 919.1l6.2.8 6.1.1 5.8-.7 5.9-1.4 5.5-2.1 5.3-2.8 5.1-3.4 4.6-4.1 4.5-4.8M15.6 778.5l-1.1 7.9-.5 8.1-.1 8.4.4 8.4 1 8.4 1.5 8.5 1.9 8.4 2.4 8.3 2.9 8.2 3.4 7.8 3.7 7.6 4.2 7.2 4.5 6.8 4.9 6.4 5.1 5.8 5.4 5.4 5.6 4.8 5.8 4.1 6 3.6 6 2.9 6 2.1 6.1 1.5M15.6 778.5l.1 9.9 1 10.2 3.1 15.7 5 15.3 6.7 14.3 8.2 13 9.4 11.1 10.4 9.1 11.1 6.5 11.4 4 11.3 1.2 10.9-1.6 10.1-4.2 9.1-7M170.7 839.6l-1.3.2-1.4.3-1.5.1h-3.2l-1.6-.1-1.4-.3-1.2-.3M170.7 839.6l-.4 8.6-.8 8.5-1.4 8.2-1.9 7.9-2.3 7.5-2.9 7.1-3.4 6.7-3.7 6.1-4.2 5.5-1.2.2-1.3-.1-1.4-.3-1.4-.6-1.4-.8-1.3-1-1.1-1.1-.9-1.3M149.7 905.8l4.2-5.5 3.8-6.1 3.3-6.7 2.9-7.1 2.4-7.5 1.9-7.9 1.4-8.2.9-8.6.3-8.7M120.9 924.8l-.6.2M132.1 835.2l-1.2 5.3-1.6 5-1.8 4.9-2.1 4.5-2.4 4.2-2.6 3.9-2.9 3.6-3.1 3.3M97.2 857.9c4 6.1 10.1 10.4 17.2 12M123.4 876c-2.1-3.1-5.3-5.4-9-6.1M46.1 768.3l-1.6.3-1.7-.1-1.8-.3-1.9-.6-1.8-.7-1.8-1-1.5-1.3-1.4-1.3M109.1 805.1l-2 .8-1 1 .2 1.1 1.3.8 1.5.6M109.1 805.1l1.1-.3M46.1 768.3l21.8-5.8M71.9 877.8l.6.2M25.1 748.2l-.7 1.4.1 3.2 1.6 3.3 2.9 3.2M21.3 753.3c-2.9 8.1-4.8 16.6-5.6 25.2M26.3 743.7l-1.3 2.4-3.7 7.2M26.3 743.7l.1.4v.7M38.8 717.6l1.3-.5M54.1 724.1c-3.8-3.9-8.7-6.3-14-7M54.1 724.1v.6l.1.3v.8999999999999999l.1.3v.4c-5.4 1.7-10.3 4.6-14.5 8.2M40.1 717.1l36.1-9.6M45.1 734.6l-7.3 1.9M71.6 732.4l-.1 1.7-.3 3-.4 2.8-.5 2.9-.5 2.8 4.4-1.1M67.9 762.5l.9-2.1 1-2.1.9-2.2.8-2.2.7-2.3.8-2.4.6-2.3.6-2.4M52.4 750.3l-.6 2.4-.6 2.4-.7 2.3-.8 2.4-.8 2.1-.9 2.3-.9 2-1 2.1M56.7 749.1l-4.3 1.2M56.7 749.1l.6-2.8.4-2.9.4-2.8.2-3v-.1M34.9 719.4l-3.3 2.1-1.6 4.5v.8M39.3 740.2l2 3.7 2.9 3.4 2.9 2.1 2.6.9h2.7M52.2 739.8l.6 1.6 1 1.9 1 2 .9 1.9 1 1.9M26.3 743.7l.1-1.7.6-1.5.3-.3M76.4 732.7l.6 1.7.6 4-.3 2.9-1.1 2-1.9 1.1-.1.1M21.5 748.4c-1 1.4-1.1 3.3-.2 4.9M554.7 79.2l-.2.7-.9.7-1.6.7-2.2.6-2.6.5-3 .2h-3.1l-3-.1-2.9-.4-2.4-.5-1.9-.6-1.2-.8-.6-.8v-.2M645.2 110.3l.1.2.5.9 1.3.7 1.8.6 2.5.6 2.8.3 3.1.1h3l3-.3 2.6-.4 2.3-.6 1.6-.6.9-.9.2-.6M645.2 209.3l.1.2.5.8 1.3.7 1.8.7 2.5.5 2.8.3 3.1.2 3-.1 3-.2 2.6-.4 2.3-.6 1.6-.7.9-.8.2-.6M554.7 178.2l-.2.5-.9.8-1.6.7-2.2.6-2.6.5-3 .2-3.1.1-3-.2-2.9-.3-2.4-.5-1.9-.7-1.2-.7-.6-.9v-.1M1004.1 906.9l-2.2.7-2.4 1-2.4 1.4-2.4 1.4-2 1.6-1.6 1.5-1 1.3-.4 1 .1.5M1007.3 906.8l-.3-.2h-1.2l-1.7.3M984.2 872.6l-2.2.7-2.3 1.1-2.5 1.3-2.3 1.5-2 1.6-1.6 1.4-1 1.4-.4 1 .1.5M987.8 872.8l-.6-.5h-1.2l-1.8.3M1019.1 863.3l1.8-.3h1.2l.5.5M1009.5 868l.3-.1 2.3-1.5 2.5-1.3 2.3-1.1 2.2-.7M191.4 673.7l-2.1.3-2.4-.4-2.4-1-2.3-1.6-2.1-1.8-1.5-2.2-1-2.4-.4-2.1.3-2.1.8-1.5M194 672.2l-.8.7-1.8.8M171 697.5l-1.5.1-2.4-.5-2.4-1-2.3-1.4-2.1-2-1.5-2.1-1-2.3-.5-2.3.3-1.9.9-1.5M193.3 673.2l-.8 1.6-.3 1.9.4 2.2 1 2.3.3.4M988 838.4l1.7-1.5 2-1.5 2.5-1.4 2.4-1.3 2.3-1 2.1-.6 1.6-.2 1.2.1.3.4M986.3 841.7l-.1-.8.6-1.1 1.2-1.4M962.5 864.1l-1.2 1.3-.5 1.1v.7M965.2 861.7l-1 .8-1.7 1.6M968.2 804.2l1.7-1.5 2.1-1.5 2.3-1.5 2.5-1.3 2.3-1 2.1-.6 1.6-.2 1.2.2.3.3M966.5 807.4v-.7l.5-1.1 1.2-1.4M969.6 777.6l1.7-.3 1.3.1.5.5M962.5 780.8l.1-.1 2.4-1.2 2.4-1.1 2.2-.8M934.7 787l-2.2.7-2.3 1-2.5 1.4-2.3 1.5-2 1.5-1.6 1.5-1 1.3-.4 1.1.1.4M938.3 787.2l-.6-.4-1.2-.1-1.8.3M942.7 829.8l-1.2 1.3-.6 1.2.1.7M958.8 822.7l-.3-.4-1.1-.1-1.7.2-2.1.6-2.3 1-2.4 1.3-2.4 1.4-2.1 1.5-1.7 1.6M914.9 752.8l-2.2.7-2.3 1-2.5 1.4-2.3 1.5-2 1.5-1.6 1.5-1 1.3-.4 1.1.1.4M918.5 752.9l-.6-.4-1.2-.1-1.8.4M916.6 715.2l1.7-1.6 2.2-1.5 2.3-1.4 2.5-1.3 2.4-1 2-.6 1.7-.2 1 .2.4.3M915 718.3v-.6l.4-1.2 1.2-1.3M891.2 740.7l-1.2 1.4-.6 1.1.2.7M897.4 736.1l-.1.1-2.3 1.5-2.1 1.5-1.7 1.5M949.8 743.4l1.7-.3 1.3.1.6.4M935.5 753.9l-.1-.5.4-1 1-1.3 1.6-1.6 2.1-1.5 2.3-1.5 2.4-1.3 2.4-1 2.2-.8M896.8 680.9l1.7-1.5 2.2-1.5 2.3-1.5 2.4-1.2 2.4-1.1 2.1-.6 1.7-.2 1 .2.4.3M895.2 684.1l-.1-.7.6-1.1 1.1-1.4M898.2 654.4l1.8-.4 1.2.1.7.4M891.1 657.5l.1-.1 2.5-1.3 2.4-1 2.1-.7M863.4 663.7l-2.1.7-2.5 1.1-2.4 1.3-2.3 1.5-2.1 1.5-1.5 1.5-1 1.3-.4 1.1.1.4M867 663.9l-.6-.4-1.2-.2-1.8.4M871.3 706.5l-1.1 1.3-.5 1.2v.6M887.5 699.4l-.4-.3-1.1-.2-1.6.2-2.1.6-2.3 1-2.5 1.3-2.3 1.4-2.2 1.6-1.7 1.5M843.6 629.4l-2.1.8-2.5 1-2.4 1.3-2.3 1.6-2.1 1.5-1.5 1.5-1 1.3-.4 1 .1.5M847.2 629.6l-.6-.4-1.2-.1-1.8.3M845.4 591.9l1.7-1.6 2-1.5 2.4-1.5 2.5-1.2 2.3-1 2.1-.6 1.6-.2 1.1.1.4.3M843.7 595.1v-.8l.5-1.1 1.2-1.3M819.8 617.4l-1.1 1.4-.6 1.1.1.7M826.2 612.8l-.1.1-2.5 1.5-2.1 1.5-1.7 1.5M878.4 620.1l1.8-.4 1.3.1.5.5M864.2 630.6v-.5l.3-1.1 1-1.3 1.6-1.5 2-1.5 2.3-1.5 2.5-1.3 2.4-1.1 2.1-.7M825.5 557.6l1.7-1.5 2.1-1.6 2.4-1.4 2.5-1.3 2.3-1 2.1-.6 1.6-.2 1.1.2.4.3M823.9 560.8l-.1-.7.6-1.1 1.1-1.4M827 531l1.7-.3 1.3.1.5.4M819.8 534.2h.2l2.4-1.4 2.4-1.1 2.2-.7M792.1 540.4l-2.2.7-2.3 1.1-2.5 1.3-2.4 1.5-2 1.5-1.5 1.5-1.1 1.3-.3 1.1.1.4M795.6 540.5l-.5-.4-1.3-.1-1.7.4M800 583.2l-1.1 1.3-.6 1.1.1.7M816.2 576.1l-.4-.4-1.1-.2-1.6.2-2.1.7-2.3 1-2.4 1.3-2.5 1.4-2 1.6-1.8 1.5M772.3 506.1l-2.2.8-2.3 1-2.5 1.4-2.4 1.4-2 1.6-1.6 1.5-1 1.3-.3 1 .1.5M775.9 506.3l-.6-.5h-1.3l-1.7.3M774 468.6l1.7-1.6 2.2-1.5 2.3-1.4 2.4-1.3 2.4-1 2-.7 1.7-.2 1.1.2.4.4M772.4 471.8l-.1-.8.5-1.1 1.2-1.3M748.5 494.1l-1.1 1.3-.6 1.2.1.7M754.8 489.5l-.1.1-2.3 1.4-2.2 1.6-1.7 1.5M807.1 496.8l1.8-.3 1.2.1.6.4M792.9 507.3l-.1-.5.4-1.1 1-1.3 1.5-1.4 2.1-1.6 2.3-1.5 2.5-1.3 2.4-1.1 2.1-.7M754.2 434.3l1.7-1.5 2.2-1.6 2.3-1.4 2.4-1.3 2.4-1 2.1-.6 1.6-.2 1.1.2.3.3M752.6 437.5l-.1-.7.5-1.1 1.2-1.4M755.6 407.7l1.7-.3 1.3.1.6.4M748.5 410.9l.1-.1 2.5-1.3 2.4-1.1 2.1-.7M720.7 417.1l-2.1.7-2.4 1.1-2.5 1.3-2.3 1.5-2 1.5-1.6 1.5-1 1.3-.4 1.1.1.4M724.4 417.2l-.6-.4-1.3-.1-1.8.4M728.7 459.8l-1.1 1.4-.6 1.1.1.7M744.9 452.8l-.4-.3-1.1-.3-1.6.3-2.1.6-2.3 1-2.5 1.2-2.4 1.5-2.1 1.5-1.7 1.5M700.9 382.8l-2.1.7-2.4 1.1-2.5 1.4-2.2 1.4-2.1 1.6-1.6 1.5-1 1.3-.4 1 .1.5M704.6 383l-.6-.4-1.3-.1-1.8.3M702.7 345.2l1.8-1.5 2.2-1.6 2.5-1.6 2.6-1.3 2.3-.9 2.1-.6 1.6-.1.9.4.2.2M677.2 370.8l-1.2 1.4-.5 1.2.1.6M735.8 373.5l1.7-.3 1.3.1.6.3M721.6 384l-.1-.5.4-1 1-1.4 1.6-1.4 2-1.6 2.3-1.5 2.5-1.4 2.4-1 2.1-.7M684 364.9l-.7.4-2.5 1.5-2.3 1.6-1.8 1.6M700.6 347.6l-.1-.6.5-1.1 1.2-1.5M682.4 310.2l1.8-1.6 2.2-1.6 2.6-1.5 2.5-1.3 2.4-.9 2.1-.6 1.6-.1.8.3.2.2M681.2 314.2v-.7l.5-1.1 1.2-1.4M684.3 284.4l1.8-.3 1.2.1.6.4M678.1 287l1.6-.8 2.4-1 2.2-.8M649.5 293.8l-2.2.6-2.4 1.1-2.4 1.4-2.4 1.4-2 1.6-1.6 1.5-1 1.3-.4 1.1.1.4M653 293.9l-.5-.3-1.3-.2-1.7.4M656.9 335.8l-1.2 1.3-.5 1.2.1.6M673.6 329.5l-.1-.2-1-.4-1.5.1-2.1.6-2.4 1-2.6 1.2-2.5 1.5-2.2 1.7-1.8 1.5M629.7 259.5l-2.2.7-2.4 1.1-2.4 1.3-2.4 1.5-2 1.6-1.6 1.5-1 1.3-.4 1 .1.5M633.2 259.7l-.5-.4-1.3-.1-1.7.3M662.5 250.8l2-.7 1.8-.3 1.2.1.6.5M546.1 250.6l-2.2.2-2.4-.4-2.4-1-2.3-1.5-2.1-1.9-1.5-2.2-1.1-2.2-.3-2.3.2-2 .9-1.4M548.6 249.1l-.7.7-1.8.8M580.9 241.3l1.8-.8.8-.8M576.2 241.1h.2l2.4.4 2.1-.2M526.3 274.3l-2.2.2-2.4-.4-2.4-1-2.3-1.5-2.1-2-1.5-2.1-1.1-2.3-.3-2.3.2-1.9.9-1.5M528.8 272.7l-.7.8-1.8.8M561.1 264.9l1.5-.7M547.9 250.1l-.8 1.5-.3 2 .4 2.2 1 2.3 1.6 2.2 2 1.9 2.3 1.5 2.5 1.1 2.3.3 2.2-.2M528.5 301.3l1.7 2.2 2.3 1.9 2.5 1.4 2.6.8 2.3.2 2.2-.6 1.5-1.2M503 262.1l-1.2-2.3-.5-2.4.2-2.2.9-1.6M527.4 293.3l-.9 1.7-.2 2.1.5 2.4 1.2 2.4M508 267.7l-1.5-.9-2.2-1.9-1.7-2.3M508.2 325.5l1.8 2.2 2.2 1.9 2.5 1.4 2.6.8 2.4.1 2-.5 1.6-1.2.1-.1M508 316.4l-.8 1.7-.2 2.2.4 2.2 1.3 2.4M482.7 286.3l-1.2-2.4-.5-2.3.2-2.1.9-1.7M498.3 290.4l-1.6 1.2-2 .6-2.4-.2-2.6-.7-2.5-1.5-2.2-1.8-1.8-2.3M474.8 335.8l-2.2.1-2.4-.3-2.4-1-2.3-1.5-2.1-2-1.6-2.2-1-2.2-.3-2.3.2-2 .8-1.4M477.3 334.1l-.8.8-1.7.9M455 359.4l-2.2.2-2.4-.4-2.5-1-2.3-1.5-2-1.9-1.6-2.3-1-2.2-.3-2.2.2-2 .8-1.5M457.5 357.8l-.8.7-1.7.9M489.8 350.1l1.8-.9.8-.7M476.6 335.2l-.8 1.5-.3 2 .4 2.2 1 2.3 1.6 2.2 2 1.9 2.3 1.6 2.5.9 2.3.4 2.2-.1M431.2 347.8l-1.1-2.3-.6-2.3.1-2.1.8-1.6.2-.3M436.7 352.8l-1.6-1.1-2.2-1.8-1.7-2.1M456.7 386.9l1.7 2.2 2.1 1.9 2.4 1.3 2.4.9 2.4.2 2.1-.4 1.6-1 .4-.4M456.1 378.4l-.2.2-.8 1.8-.1 2.1.6 2.2 1.1 2.2M436.9 410.6l1.7 2.1 2.1 1.9 2.4 1.4 2.4.8 2.4.3 2-.4 1.7-1 .5-.4M436.2 402l-.1.3-.8 1.7-.1 2.1.6 2.2 1.1 2.3M411.4 371.4l-1.1-2.3-.6-2.2.1-2.1.8-1.7.2-.2M426.5 376l-.4.5-1.6 1-2.1.3-2.4-.2-2.4-.9-2.3-1.4-2.2-1.8-1.7-2.1M403.5 420.8l-2.2.2-2.4-.3-2.5-1-2.3-1.6-2-1.9-1.6-2.2-1-2.3-.3-2.2.2-2 .8-1.4M406 419.3l-.8.7-1.7.8M383.7 444.5l-2.2.2-2.4-.4-2.5-1-2.3-1.5-2-1.9-1.6-2.2-1-2.3-.4-2.3.3-1.9.8-1.5M386.2 442.9l-.8.8-1.7.8M418.5 435.1l1.7-.8.9-.8M405.3 420.3l-.9 1.5-.2 2 .4 2.2.9 2.3 1.6 2.2 2.1 1.9 2.3 1.6 2.5.9 2.3.5 2.2-.3M359.9 432.9l-1.1-2.3-.6-2.3.1-2.1.8-1.7.2-.2M365.4 437.9l-1.7-1.1-2.1-1.8-1.7-2.1M385.4 472l1.7 2.2 2.1 1.8 2.4 1.4 2.4.8 2.4.3 2-.4 1.7-.9.4-.5M384.7 463.5l-.1.3-.8 1.7-.1 2 .5 2.3 1.2 2.2M365.6 495.7l1.7 2.1 2.1 1.9 2.4 1.4 2.4.8 2.4.3 2-.4 1.7-1 .4-.4M364.9 487.2l-.1.2-.8 1.7-.1 2.1.5 2.2 1.2 2.3M340.1 456.5l-1.2-2.3-.5-2.2.1-2.1.8-1.7.2-.3M355.2 461.1l-.4.5-1.6.9-2.1.4-2.4-.2-2.4-.9-2.4-1.4-2.1-1.8-1.7-2.1M332.1 505.9l-2.1.2-2.5-.4-2.4-1-2.3-1.4-2-2-1.6-2.2-1-2.3-.4-2.2.3-2 .8-1.4M334.7 504.3l-.8.8-1.8.8M312.3 529.5l-2.2.3-2.4-.4-2.4-1-2.3-1.6-2-1.8-1.6-2.3-1-2.3-.4-2.2.3-1.9.8-1.6M314.8 528l-.7.7-1.8.8M347.1 520.2l1.8-.8.9-.7M334 505.4l-.9 1.5-.2 2 .3 2.2 1 2.3 1.6 2.2 2.1 1.9 2.2 1.5 2.5 1.1 2.4.3 2.1-.2M288.6 518l-1.2-2.3-.5-2.3.1-2.1.8-1.6.2-.3M294.2 523l-1.8-1.1-2.1-1.8-1.7-2.1M314 557.1l1.8 2.2 2.1 1.8 2.3 1.4 2.5.9 2.4.2 2-.3 1.6-1.1.5-.4M313.4 548.6l-.1.2-.8 1.8-.1 2 .5 2.3 1.1 2.2M294.3 580.8l1.7 2.2 2.1 1.7 2.3 1.5 2.5.8 2.4.3 2-.4 1.6-1 .5-.5M293.7 572.3l-.2.2-.8 1.7-.1 2 .5 2.3 1.2 2.3M268.8 541.6l-1.2-2.3-.6-2.2.2-2.1.8-1.8.2-.2M283.9 546.2l-.4.5-1.7.9-2.1.5-2.3-.3-2.5-.9-2.3-1.3-2.1-1.9-1.7-2.1M260.8 591l-2.1.3-2.5-.5-2.4-.9-2.3-1.6-2-1.9-1.6-2.2-1-2.3-.4-2.2.3-2 .8-1.5M263.3 589.5l-.8.7-1.7.8M241 614.7l-2.2.2-2.3-.4-2.5-1-2.3-1.6-2-1.8-1.6-2.3-1-2.2-.4-2.2.3-2.1.8-1.4M243.5 613.1l-.7.7-1.8.9M275.8 605.3l1.8-.8.8-.8M262.6 590.5l-.8 1.5-.2 2 .3 2.3 1 2.2 1.6 2.2 2 1.9 2.3 1.5 2.5 1 2.4.4 2.1-.2M217.3 603.1l-1.2-2.3-.6-2.3.2-2 .8-1.8.2-.2M222.8 608.1l-1.7-1.1-2.1-1.8-1.7-2.1M242.8 642.2l1.6 2.2 2.2 1.8 2.3 1.4 2.5.9 2.4.2 2-.3 1.6-1 .5-.5M242.2 633.7l-.2.3-.8 1.7-.1 2 .5 2.3 1.2 2.2M223 665.9l1.7 2.1 2.1 1.8 2.3 1.5 2.4.8 2.4.2 2.1-.4 1.6-.9.5-.5M222.4 657.3l-.2.3-.8 1.7-.1 2.1.5 2.2 1.2 2.3M197.4 626.7l-1.1-2.3-.5-2.3.1-2 .8-1.7.2-.3M212.6 631.4l-.5.4-1.6 1-2.1.3-2.3-.2-2.4-.9-2.4-1.4-2.2-1.8-1.7-2.1M117.6 714.3l1.1-.3M1065.9 1127l-1.1 1.3M1154 1049.4l4.4 13.7 2.7 14.2.8 14.1-.9 13.6-2.7 12.7-4.4 11.5-5.9 9.7-7.3 7.9-8.4 5.6-9.4 3.1-9.9.8-10.2-1.8-2.4-1M1066.4 1117.6l-2.2 2.7-1 2.2.3 1.3M1184.1 1086.6l1.1 8.8.7 8.8.1 8.6-.4 8.5-.9 8.3-1.4 8-1.8 7.7-2.4 7.3-2.8 7-3.3 6.4-3.7 6.1-4.1 5.5-4.4 4.8-4.8 4.3-5.1 3.7-5.5 2.9-5.6 2.4-3.5 1.1M1100.6 1195l-.9-.4-.8-.7-.7-1-.5-1.3-.3-1.3v-1.5M1137.3 1196.5l4.1-1.4 5.9-2.6 5.5-3.4 5.3-4.1 4.9-4.7 4.5-5.4 4-6 3.6-6.6 3.1-7.1 2.7-7.6 2.1-7.8 1.6-8.4 1-8.6.5-8.8-.1-9-.6-9.1-1.2-9.2M1186.6 1085.7l-.6.4-1.8.6M1174.2 1043.9l.8 2.8M1069 1063.5v5.8l.5 5.9 1 6 1.5 5.8 2 5.7 2.5 5.4 3 5.1 3.2 4.6 3.6 4.1 3.9 3.6 4.1 3 4.1 2.2 4.3 1.7 4.3.7 4.2.2 4.1-.7h.1M1131 1057.7l-1.1.6-.7.6-.4.4-.1.2M1169.2 1026.4l-.1 2.8.6 3.7M1125.1 1116.7l-.6-.2-4.2-1.6-4.3-2.2-4-3-3.9-3.6-3.6-4.1-3.2-4.7-3-5.1-2.4-5.3-2-5.7-1.6-5.9-1-6-.6-5.8.2-5.9 1.2-.4 1-.6.5-.5.3-.6M1054.2 945.7l-10.5 2.8M1076.3 928.2l-22.6-39.1M1047.8 879l-8.7-15.3M1024.8 943.1l-15.1 4.1M1047.4 1147l-.1-.4.2-.7.5-.6.6-.9M1007.7 979.7v-.4l.1-.6.5-.8.7-.7M1014 1002.9l.1.4.6.4.7.4 1 .4M1014 1007.6l.2.5.5.4.7.3 1.1.3M1027.9 1034.8l1.1 3.9M1026.6 1037.1l.1.5.4.4.8.3 1.1.4M1026.8 1071.1l.1.5.5.4.7.3 1.1.3M189.4 746.6l19.3-23M215.4 715.6l12.3-14.7M140.6 697.4l12-3.2M189.4 746.6l1-.4.9-.7.1-.1M143.6 715.6l15.7-4.2M140.9 711.6l17-4.6M178.7 782.7l.3.8.3.6.1.7v.6l-.1.5-.2.5-.3.4M171 805.7l1-.3.8-.4.4-.4.2-.5M183.5 765l1.1-.3.7-.4.4-.4.2-.4M170.8 839.5l1-.3.8-.3.4-.5.2-.4M183.5 769.8l1-.5.8-.3.4-.4.2-.4M121.1 924.7l1.6-.5 6.1-2.2 5.7-3 5.4-3.7 5-4.4 4.8-5.1M149.7 905.7l-4.7 5.1-5.1 4.5-5.4 3.7-5.8 3-6 2.2-1.8.6M149.7 905.8l1.1-.4.8-.7.2-.1M46.1 768.3l-2 4.6-1.6 5.1-1 5.3-.5 5.7.1 5.9.6 5.9 1.1 5.9 1.6 5.9 2.1 5.6 2.5 5.4 3 5 3.3 4.6 3.6 4 4 3.5 4.1 2.8 4.2 2.1 4.3 1.5 4.2.7h4.2l3.5-.6M106.1 808l.2.4.6.4.9.3 1.3.3M97 841.2l-4-1.4-4.3-2.1-4.1-2.9-3.9-3.5-3.6-4-3.3-4.6-3-5-2.6-5.3-2.1-5.7-1.6-5.8-1.1-5.9-.6-6v-5.8l.5-5.7 1-5.4 1.5-5 2.1-4.6M95.1 925.6l-.4-.1-1-.4-1-.8-.8-1-.6-1.2-.4-1.4-.2-1.6M72.5 878c14.4 5.8 30.8 2.6 41.9-8.2M70.8 760.3l-.6.9-1.1.7-1.2.6M54.1 724.1l4.5-1.2M15.6 778.5l-1.7-1.4-.6-1.3.1-.2M27.7 741.4l-1.4 2.3"/>
    <defs>
        <path id="SVGID_1_" d="M10.1 1200z"/>
    </defs>
    <clipPath id="SVGID_2_">
        <use xlink:href="#SVGID_1_" overflow="visible"/>
    </clipPath>
    <path class="st3" d="M10.1 1200l13.1-13"/>
    <path class="st0" d="M10.1 1200z"/>
</svg>
