<svg xmlns="http://www.w3.org/2000/svg" xmlns:xlink="http://www.w3.org/1999/xlink"
    viewBox="0 0 1200 1200" enable-background="new 0 0 1200 1200">
    <style type="text/css">.st0{fill:none;} .st1{fill:none;stroke:#000000;stroke-linecap:round;stroke-linejoin:round;stroke-width:4;} .st2{clip-path:url(#SVGID_2_);} .st3{fill:none;stroke:#FFFFFF;stroke-miterlimit:10;}</style>
    <path class="st0" d="M1095.5 0h-991v1200h991v-1200z"/>
    <path class="st1"
        d="M909.4 293.1l-20.9 25.9M323.6 1018.5l-20.9 25.9M1078.7 244l-106.4-28.7M469.7 588c-2.7 1.2-5.2 2.3-7.4 4.3-1.7 1.5-3.6 4.1-5 5.7-3.2 3.9-5.9 6.9-5.4 12M763.7 679.4c-3.7-.8-7.1-1.3-10.8-1.3-7.7.3-15.9 1.5-21.8 6.7-1.8 1.5-3.4 3.6-4.6 5.3M735.5 694.2l-3.3-1.1c-5.8-2.2-13.3-7.4-11.4-14.7.8-3 3.3-5.5 5.3-7.9 2.2-2.9 4.1-5.5 7.2-7.5 8.9-5.8 20.3-5.9 30.5-3.7M957.3 462.3c-2.4.6-3.3.7-5.5 1.8-4.3 2-7.1 6.1-7.9 10.8-.4 2.5-.2 7-.2 9 0 4.2-.3 8.3 1 12.3 3.2 10.7 12.4 17.8 22.6 21.3M955 483.4c1 2.9 1.2 3.4 2.8 6.2 4.5 7.5 11.4 12.2 19.6 14.9M867 517.7c10 15.3 23.7 27.7 40.4 35.6 7.8 3.7 16.1 5.9 24.4 8.2l70.6 18.9c5.3 1.4 11.6 3.2 17.1 4.3 13.4 2.2 28.1.8 39.9-6.7 6.1-3.7 10-9 14.6-14.5 4.3-5.3 8.8-10.5 11.6-16.9 4.1-9.3 3.9-19 3.9-29v-247.3l-.2-5.8-.6-5c-.8-5.1-2.4-12.5-7.7-15.1l-2.3-.6-2.6.2c-4.9 1.1-8.6 5.1-11.6 8.8l-6.3 7.7-254.8 315.5c-2.1 2.7-7 8.3-9.1 11.9-1.7 2.9-2.9 5.7-3.5 9-2.4 12.1 4.7 23 13.7 30.2 5.7 4.4 12 7.1 18 10.9 4.3 2.7 8.3 5.8 12 9.3 6.2 6 11.2 13.5 13.1 22 1.2 5.5.8 10.7.8 16.2v9.8l-.3 5.8c-.5 4.1-1.8 7.8-3.6 11.4-4.3 8.5-11.2 15.2-18.9 20.6-9.5 6.5-20.3 11.2-31.4 14.4-16.1 4.7-32.3 6.1-49 6.1l-18-1c-21.5.2-44.4 3.6-61.9 16.8-5.8 4.4-9.9 10-14.4 15.5l-307 380.3c-4.8 5.7-9 11.4-14.9 15.9-16.6 12.2-37.5 15.7-57.5 16.4-8.3-.2-16.4-.6-24.5-2.2l-7.7-1.7-9.5-2.6-70.6-19-9.5-2.5c-15.7-4.5-34-12.6-40.7-28.7-2.7-6.4-2.1-13-2.1-19.7 0-2.2-.3-11.2.4-14.7 1.5-8.6 7.4-15 12.8-21.6l81.1-100.3 6.2-7.7M848.4 675.3c-.3 5.3 0 6.5-1.6 11.6-4.3 13.7-15.9 23.7-27.9 30.5-22.4 12.8-48.2 16.2-73.6 16.3l-18-1c-21.5.2-44.3 3.5-61.9 16.9-5.8 4.3-9.9 10-14.4 15.5l-307 380.2c-4.8 5.8-9 11.5-14.9 15.9-16.6 12.2-37.5 15.6-57.5 16.4-8.3-.2-16.4-.6-24.5-2.2l-7.7-1.8-9.5-2.5-70.6-19-9.5-2.6c-15.7-4.4-34-12.6-40.7-28.7-1.7-4.1-1.5-5.2-2.1-9.5M792.4 612c3-6 6.7-10.4 11-15.7l254.8-315.4 6.3-7.7c1.9-2.4 5.3-6 8.8-5.1 4.6 1 5.4 8.1 5.7 11.7l.1 3.6v247.3c0 10 .3 19.6-3.8 28.9-2.2 5.1-3.2 6-6.5 10.4M408.7 663.5c-10.3-5.8-19.7-15-24.2-26-2.9-7.1-2.5-13.8-2.5-21.4 0-4.7-.5-11.2.3-16.2 1.4-10.9 8.2-20.2 16.4-27.3 8.3-7.2 18.4-12.4 28.6-16.3 15.2-5.5 31.5-8.4 47.7-9 8.8-.3 17.8.4 26.7 1M419.8 649.6l-4.7-2.6-7.2-4.1c-9.8-6.2-18.9-14.6-23.4-25.6-2-5.1-1.8-6.4-2.5-11.6M954.2 463l-.2 2v6c0 4.4 0 8 1 12.3M957.3 462.3c14-1 28.3 8.3 32.4 22 1.2 4.1 1 8.1 1 12.3 0 2.2.1 6.5-.3 9.1-1 5.7-5.1 10.2-10.5 11.8-2.5.8-3.4.8-6 .9-4.4-.3-2.3 0-6.7-.9M990.5 504.5c-2.1.8-4.3.8-6.4 1-4.4-.4-2.2-.1-6.7-1M772.7 683.4c-2.6-2-5.9-3-9-4M735.5 694.2c10.1 2.1 21.5 2.1 30.4-3.7 3-2 5-4.7 7.2-7.5 1.9-2.4 4.5-4.9 5.3-7.9 1.8-7.3-5.5-12.6-11.4-14.7l-3.2-1.1M229.6 1134.8l-22.4-6M229.6 1134.8l73.1-90.4M888.5 319l-564.9 699.5"/>
    <path class="st1"
        d="M568.9 524.1c-4.6 6.3-7.7 13.4-9.8 20.9-1.7 5.3-2.7 11-3.2 16.6l-.1 3.8.1 3.5c.3 3.8 2 12.1 7.6 10l1.7-.8 1.8-1.6c1.4-1.3 2.7-3 3.7-4.6 6.6-10.1 10.2-23 11-34.9l.1-3.9c0-4.7-.2-12.6-6-13.7-3.1.4-4.8 2.3-6.9 4.7zM445.5 677.1c-4.9 5.5-8.1 12-10.4 18.9-1.9 5.3-3.2 11-3.9 16.8-.7 5.5-1.1 11.6.7 16.9l.8 2 1.2 1.5c2.5 2.5 5.9.5 7.9-1.5 1.4-1.3 2.7-3 3.7-4.6 6.5-10.2 10.2-23 11-35l.1-3.8c0-4.7-.2-12.7-6.1-13.7-2.1.3-3.3 1.1-5 2.5zM320.1 832.3c-4.9 5.5-7.9 11.9-10.3 18.9-1.8 5.5-3.3 11-4 16.8-.8 5.5-1.1 11.6.7 16.8l.8 2.1 1.2 1.5c2.6 2.5 5.9.4 7.9-1.6 1.4-1.4 2.8-3 3.8-4.6 6.5-10 10.1-23 11-35l.1-3.7c0-4.7-.3-12.8-6.1-13.8-2.1.3-3.3 1.1-5.1 2.6zM229.6 1134.8v-165.4l.1-6.4c.8-12 3-23.8 6.4-35.2 3.8-12.9 8.8-25.7 16.3-36.9l3.2-4.4 6.2-7.6 358.3-443.7c60.9-75.2 124.5-148.6 193.8-216.3 36.1-35.3 73.1-69.7 111.8-102.1 26-21.5 52.6-42 79.9-61.9 18.7-13.6 38-26.4 57.4-38.8 4.7-3 11.4-9.1 17.9-7.6 6.3 1.5 9.1 9.1 10.4 14.7l1.1 5.5.6 6 .3 6.7v58.5c0 6.9.1 13.5-.6 20.2-1.5 13-5.1 25.9-11 37.7-3.5 7.3-8.3 13.1-13.3 19.4l-36.4 44.8-6.2 7.7"/>
    <path class="st1"
        d="M1067.4 96.3c4.8-11 8.5-23.6 7.5-35.8-.4-4.1-1.3-9.4-6-10.4-5.2 1-8.3 6-10.7 10.4-5.9 10.6-9.4 23.5-9.4 35.7 0 2 .3 4.4.6 6.5.3 1.5.8 3.2 1.6 4.6l1.1 1.4c3.4 3.3 7.7-1 9.9-3.6l1.8-2.5 1.8-3c.1 0 .1 0 1.8-3.3zM207.2 1128.8v-165.3l.2-6.5c.8-14.3 4-28.6 8.6-42.2 3.6-10.4 7.9-20.7 14.1-29.8l3.2-4.3 6.2-7.7 358.4-443.6c51.9-64.2 105.7-127.1 163.6-186.1 29.3-29.9 58.9-59.2 90-87.1 47.2-42.2 95.8-82.9 147.9-118.7 13.7-9.4 27.5-18.5 41.4-27.5 4-2.5 9.5-7.3 14.9-7.7l3 .3 9.6 2.6 3.2.8 9.6 2.6"/>
    <path class="st1"
        d="M243.8 962.3c.7 1.5.9 2.4 2 3.6 3.5 3.3 7.9-1 10-3.6l1.8-2.6 1.8-3c5.9-10.6 9.3-23.6 9.3-35.6 0-4.7-.2-12.7-6-13.8-6.4 1.2-10 8.5-12.5 13.8-2.9 6.5-5.1 13.4-6.4 20.3s-1.8 13.9 0 20.9zM626.1 455.5c-2.9 6.6-5.1 13.2-6.3 20.3-.8 4-1.2 7.9-1.2 12l.1 3.5c.3 3.7 1.8 12 7.6 10l1.7-1 1.8-1.5c1.4-1.2 2.7-3 3.7-4.6 6.7-10 10.3-23 11-35l.2-3.7c0-4.7-.2-12.6-6.1-13.8-6.4 1.2-9.8 8.5-12.5 13.8zM1010.7 88.1c5.1 3.6 4.8 11.7 4.4 17.3-.7 10.9-3.9 22.2-9.2 31.9-2.4 4.3-5.5 9.5-10.7 10.5-5.7-1.2-6-9.1-6-13.8 0-12.1 3.4-25 9.3-35.7 2.3-4.4 6.4-11.4 12.2-10.2zM951.5 132.5c2.7 3.7 3.2 8.1 3.2 12.6 0 11-3 22.3-7.7 32.3-2.5 5.3-6.1 12.6-12.4 13.8-5.7-1.1-6-9.1-6-13.8 0-12.1 3.4-25.1 9.3-35.6l1.8-3 1.8-2.5c1.8-2.3 5.3-6 8.6-4.6.1-.1.1-.1 1.4.8zM892.4 185.6c1.8 6.9 1.3 14.1 0 21s-3.4 13.8-6.4 20.4c-2.5 5.2-6.1 12.6-12.4 13.7-5.8-1.1-6.1-9-6.1-13.7 0-12.2 3.5-25.1 9.3-35.8l1.8-3 1.8-2.6c2.1-2.5 6.4-6.9 9.8-3.6 1.3 1.1 1.5 2.1 2.2 3.6zM822.4 237.6c-6.2 5-9.7 12.8-12.1 20.2-1.8 5.4-3.2 11.2-4 16.9-.6 5.4-1.1 11.5.8 16.8l.8 2 1.2 1.5c2.5 2.5 5.9.5 8-1.5 1.3-1.4 2.6-3 3.6-4.6 6.7-10.1 10.2-23.1 11-34.9l.2-3.9c0-4.7-.3-12.6-6.1-13.7-2.3.3-1.2 0-3.4 1.2zM762.1 297.6c-4.3 2.2-6.9 6.1-9.1 10.1-5.3 9.7-8.3 21-9.1 31.9l-.2 3.9.2 3.4c.4 3.7 1.8 12.1 7.5 10 4.3-1.6 7.2-6.4 9.2-10 5.3-9.7 8.3-21 9.1-31.9l.1-3.9c0-4.8-.1-12.7-6-13.8-.1 0-.1 0-1.7.3zM707.3 377.8c-.4 12.3-3.3 25-9.3 35.8-2.4 4.3-5.5 9.3-10.7 10.3-5.8-1-6-9-6-13.8l.1-3.7c.7-12 4.3-24.8 10.9-35 1.1-1.5 2.3-3.2 3.8-4.5l1.8-1.6 1.7-1c5.7-2 7.4 6.2 7.6 10.1-.1.1-.1.1.1 3.4zM382.8 754.7c-4.9 5.5-8.1 11.9-10.4 18.7-1.8 5.5-3.2 11.1-3.9 16.8-.8 5.5-1.1 11.6.7 16.9l.9 2 1.1 1.5c2.5 2.6 5.9.6 7.9-1.5 1.4-1.4 2.7-3 3.7-4.7 6.6-10.1 10.2-23 11-34.9l.2-3.9c0-4.7-.3-12.6-6.1-13.7-2.2.5-3.4 1.4-5.1 2.8zM506.2 601.6c-4.6 6.3-7.6 13.4-9.7 20.9-1.7 5.3-2.7 11-3 16.6l-.3 3.9.3 3.4c.3 3.9 1.8 12.2 7.5 10l1.7-.8 1.8-1.6c1.3-1.3 2.7-3 3.7-4.5 6.7-10.2 10.2-23 11-35l.2-3.9c0-4.7-.2-12.6-6.1-13.7-3.2.6-4.9 2.4-7.1 4.7zM909.4 293.1l6.2-7.6 60.6-75.1 6.2-7.7 1.1-1.2 1.1-.8c3.6-1.9 4.1 4.3 4.1 6.2v12.8"/>
    <defs>
        <path id="SVGID_1_" d="M104.5 1200z"/>
    </defs>
    <clipPath id="SVGID_2_">
        <use xlink:href="#SVGID_1_" overflow="visible"/>
    </clipPath>
    <path class="st3" d="M104.5 1200l22.4-22.4"/>
    <path class="st0" d="M104.5 1200z"/>
</svg>
