<svg xmlns="http://www.w3.org/2000/svg" xmlns:xlink="http://www.w3.org/1999/xlink"
    viewBox="0 0 1200 1200" enable-background="new 0 0 1200 1200">
    <style type="text/css">.st0{fill:none;} .st1{fill:none;stroke:#000000;stroke-linecap:round;stroke-width:4;} .st2{clip-path:url(#SVGID_2_);} .st3{fill:none;stroke:#FFFFFF;stroke-miterlimit:10;}</style>
    <path class="st0" d="M857.6 0h-515.2v1199.9h515.3l-.1-1199.9z"/>
    <path class="st1"
        d="M407 612.7l-34-9.1M413.3 499.9l-16.7-4.5M412.1 561.5l-39.1-10.5M381.4 516.6l-20.2-5.4M801.1 611.5l-4.5-8.3M773 658.7l-35.9-9.7M385.7 510.5l-16.2-4.3c-7.4.4-13.6 8-16.7 14.1-7.3 13.7-12.8 34.7-3 48.6.9 1.3 1.6 1.7 3.2 2.1l15.4 4.3M413.3 492.4c-4.9 0-10.9-.2-15.3 2.1l-1.4 1-5.4 7.4c-3.3 4.8-6.4 9.9-8.9 15.3-5.1 10.7-6.8 21.4-9.3 32.9-1.6 7.3-3.8 13.8-4.1 21.3-.6 10.7 1.5 20.9 4.1 31.3M369.2 583.8l-1.8-18.3-.1-4c0-13 3.6-26.7 9.8-38.1l2.1-3.8 12.1-16.8M365.5 507c-5 4-8.2 9.4-10.8 15.1-6 13.1-10.4 30.1-6.2 44.4M820.2 600.2l-36-9.7-23.5 3M737.1 701.6v-52.6l8.7-20.6 6.1-14.3 8.8-20.6M820.2 600.2c-4 3.3-9.6 3-14.4 3.1-15.5-.1-30.4-5.8-45.2-9.8M737.1 701.6l18 4.8 17.9 4.9 4.9.2c5.2.1 13 .8 17.7-2.3l1.1-.8 4.5-5.9c4.9-6.4 8.7-13.3 11.9-20.6 7.8-18.4 13-39.8 11.6-59.8-.7-7.7-2.3-18.7-11.6-19.2-15.2 4.3-20.5 23.8-26.9 36.2-3.6 7-8.2 13.3-13.1 19.6M773 711.3c2-6.1 3.7-12.2 4.3-18.6 1.1-11.3 1.1-22.2 3.4-33.2 2.7-12 7.6-22.8 11.4-34.5 2.3-7.2 3.5-14.4 4.6-21.8M823.9 617c-.8-5.7-2.1-11.2-3.6-16.8M801.1 702.6c-3.5 4-6.5 7-11.7 8.6-11.5-.7-11.5-16.4-11.8-25l-.3-6.6-.8-6.7-3.4-14.1M484.1 494.6l13.3-16.4M386.5 176.2v227.4M491.9 109.6l-105.4 66.6M731.8 558.5l57.6-71.3M736.6 540.5l57.5-71.3M833.4 387.2l22.1-27.4M707.8 430.9l2.2-4M764.7 709c-5.4 8.2-12.5 16.2-22.5 18.3-10.9-1.1-14.2-12.1-15.9-21.5-2.4-15.2-.8-31 1.7-46.1l3.7-17.7v-61.199999999999996c0-13.1-2.2-28.2 4.8-40.2l11.1-18.4 11.1-18.3c18.2-30.1 36.7-59.8 56.1-89.2 10.6-16 23.3-31.6 30.6-49.5 6.4-15.3 3.7-9.2 3.7-32v-80l2.7-8.9c1.1-4.6 2.1-10.1 2.8-14.7.5-3.6 1.6-9.5.3-13.4l-1.4-2.7-14.4-17-104.6-122.5-14.5-17-21.6-5.8-158.1-42.6-21.5-5.8-4.2-.8c-8.7.1-14.3 4.3-21.5 8.9l-18.9 11.9-88.1 55.7c-22.3 14.1-14.1 6.1-26.6 21.3l-7.7 9.8-4.3 6.1-.2 5.1v118.39999999999999c0 14.3-.3 28.1 1.6 42.2 4.8 36.2 16.4 71.7 30.4 105.4 6.4 15.2 13.4 30 20.2 45.1 4.2 9.2 10.4 20.1 12.8 30.7 2.4 10.2 1.2 22.7 1.2 32.5v61.2l-3.8 17.9c-2.2 13-3.5 26.5-2.4 39.7 1.2 13.9 5.5 28.7 14.5 39.7 15.7 18.8 41.3 26.1 63.9 16M756.8 718.8c-12.5 13.6-27.6 21.1-46 22-6.2-.5-12.5-1.1-18.2-3.6-3.5-1.4-8.6-3.7-11.8-6.3-22.9-17.3-28.1-45.7-25.9-73 .8-8.7 2.2-17.5 4-26l2.1-9v-58.2c0-6.1 1.5-20.6-1.1-29.1-6.2-20.6-28-23.8-45.8-28.6l-83.3-22.5c-9.7-2.7-18.8-6.1-28.7-6.8-2.9.2-3.8.1-6.6 1-16 5-11.5 26.2-11.5 38.3v58.3l-3.9 17.7c-2.2 13-3.6 26.5-2.3 39.7.7 8.7 2.5 16.9 7.8 24.2M661.1 622.9c1.9-4 4-7.8 7.3-10.9 17.9-17.3 44.8-1.9 56.2 15.1 3.2 4.7 5.2 9.7 7.3 14.9M413.3 556.2c2-4 4-7.8 7.3-10.8 17.8-17.4 44.9-2.1 56.2 15 3.2 4.8 5.3 9.6 7.3 14.9M386.5 176.2c-19.4-13.5-36.6-30.7-39.3-55.4M493.1 11l-5.5 3.9-7.3 5.9-18.8 12-74.3 46.9-18.8 11.9c-3 2.1-8.6 8.4-11.4 11.5M506.8 3c3.6 4.5 6.5 9.2 9.3 14.1M486.7 27.7c9.8-4.4 19.1-7.8 29.4-10.6M491.9 109.6c-9.8-26.5-13-54.5-5.2-81.9M480.4 20.8c2.2 2.3 4.3 4.6 6.4 6.9M758.7 503.8v-227.40000000000003l-14.5-17.1-76.5-89.3-14.4-17-21.6-5.9-118.2-31.8-21.6-5.7M758.7 276.4c27.6-3.7 53.6-13.4 76.6-29.3M849.2 253.2c-4.6-2.2-9.2-4.2-13.9-6.1M716 59.3c2 6.1 3.9 12.1 5.1 18.4l1.3 8.3 14.5 16.9 83 97.1 14.5 16.9.9 8.6c.6 7.2.4 14.3.1 21.6M855.3 222.4c-6.9-2.4-13.7-4.1-20.9-5.5M795.7 593.6c-.4-4.9-1.1-9.8-2.5-14.4l-3.7-8.5v-61.2c0-8.6-1.3-22.1 1.2-31.8 2.4-9.5 10.2-19.6 14.5-26.9 11.7-19.3 23.4-38.8 34.6-58.5 5.4-9.6 12.5-20.2 15.5-31l.2-1.1v-141.1M794.6 584.5c-1.4-6.1-2.9-11.6-5.2-17.3M855.5 360.3c-.2-2.3-4.8-4-6.3-4.8M720 57.1c-1.9.1-2.5 2-4 2.3l-14.5 1-6.2.8-8.7 1.9M696 84.1c-2.7-7.3-5.9-14.1-9.3-21.1M696 84.1c8.9.1 17.5.7 26.4 1.9M696 84.1c-15.5 22.1-30 45-42.7 68.8"/>
    <path class="st1"
        d="M401.2 252.3c-.5 8.1-.8 9.9-.2 18.2 1 13.9 5.2 27.3 8.6 40.7l7.1 28.2 5.5 21.7 2.3 7.4c8.6 23.7 28.2 43.2 50.9 53.9 11.8 5.5 24.7 8.3 37.2 11.5l120.2 32.4 21.5 5.8 7.9 1.7c16.2 2.7 34.1.4 47-10.4 13.1-10.9 15.6-27.3 20.2-42.9l5.5-19c4.6-16 9.9-31 9.8-47.8-.5-30.9-15.1-60.8-32.2-85.8-33.9-49.8-87.4-88-146.3-102-12.8-3.1-25.4-4.3-38.4-5.2-16.3.1-31.9 1.2-47.5 5.7-31.7 9.2-58.4 30.4-72.4 60.6-3.7 8.3-5.3 16.5-6.7 25.3zM708.3 430.3c-7.3 9-16.4 12.7-27.8 13.9-13.4-.2-25-4.2-38.3-7.8l-120.3-32.3c-10.5-2.9-22.5-5.2-32.6-9.9-14.6-7-27.1-18.7-34.1-33.2-4.8-10-6.9-22.2-9.4-32.4l-7.1-28.2-5.5-21.7-1.9-9.3c-2.7-18.2.5-35.8 9.8-51.6 4.2-7.4 5.9-8.9 11.2-15.3M470.1 187.7c11.2-6.2 5.5-3.4 17.2-8.6M485.8 179.7c10-3.4 19.5-5.7 29.9-7.4M514.2 172.5c19.1-1.6 37-.3 55.8 3.4M569.9 175.9c16.2 4.4 31.8 9.6 46.9 17.4 51.6 26.3 93.6 71.8 111.7 127.1M728.2 319.6c1.9 8.1 3 15.6 3.5 23.9M729 362.6l-6.2 21.4-5.5 19.1-6.4 21.5-1.5 4.3M730.5 357c1.2-9.9.9-4.9 1.2-14.9M472.3 186.5c-8.1 21.3-.2 45.3 5.1 66.1l7.2 28.3c2.6 10.1 4.6 22.2 9.3 32 7 14.6 19.4 26.4 33.9 33.4 10.2 4.9 22.3 7.2 32.9 10l120.2 32.3c10.9 3 26.1 9 38.5 7.7M711.9 391.9c2.7.7 5.4 1 8.3 1.1M495.3 305.5c8.5 16.6 21.6 29.9 38.6 37.6 10.3 4.7 22.2 7 32.8 9.8l120.4 32.4 21.5 5.8M473.9 224.6l5.4 21.6 7.1 27.9c2.9 11.2 4.8 21.5 9.2 32.1M471.3 210.2c-.2-7.4 0-14.1 1.2-21.3M470.7 187.4c-7.7 5.2-14 10.8-20.5 17.4M737.2 315.8l-2.7.1c-1.8-.2-2.6-.2-4.3-.7-6-1.6-6.7-8.6-8.7-13.6M560.9 1101.5l.5-1.2M657.1 1078.2v-181.4M662.6 895.2v-186.3M545.6 1153.3v-256.5M485.5 847.5v-307.5M524.5 482.8l-3.9 3.5M641.4 1113.9c-1.2-1.5-1.8-3.2-2.2-5.2M650.3 1083.4c-3.7 5.2-7.1 10.3-9.6 16.3M642.1 1114.6c4.9 3.4 11.1-.5 14.8-3.9 7.9-7.1 9-18.4 4.3-27.5M656.9 1077.9l2.6 2.9M651.9 1081.3c7.6 6.7 13 16.1 8.2 25.9M598.5 1117.8c-1.7 7.1-7.8 10.5-14.7 11.4-2.4-.1-6.3.2-8.3-1.4-2.4-2.1-2.5-6.4-2.5-9.2 0-7.6 2-14.8 4.7-21.7M561.7 1099.5c3.3-4.2 8-4 12.9-3.3M569.6 1125c-6.5-5.4-9.9-12.2-9.2-20.6M576.6 1128.3l-4.1-1.6M545.6 1056.4c-9.2 9-9.2 23.5 0 32.5M560.4 1107c-.4-6.2 2.3-11.1 9.2-11.2 1.7 0 3.3.1 5.1.4 10.2 1.9 25.7 9 23.9 21.6M485.5 847.5c7.7 22.5 26.8 36.4 48.2 45.2 40.9 16.6 87.3 15.6 128.9 2.5M639.2 1108.7c-.7-8.6 4.8-16.7 9.5-23.3 1.8-2.4 3.6-4.9 5.8-7.1 0 0 1.7-1.6 2.3-.4M545.6 1079.5v51.5c0 8.1-2.2 21.2 2.3 29.9l2.3 3.6 7.9 10.4c4.6 5.7 7.9 11.2 14 15 16.6 10.5 43.3 10.5 59.8-.7 5.4-3.8 8.7-9.3 12.7-14.5l7.3-9.3 2.5-3.6c4.9-8.8 2.7-23 2.7-31.5v-19.9M550.2 1164.6c8.9 10.2 20.7 15.4 33.8 17.8 23.2 4.5 51.2.8 67.8-16.9M530.8 484.5c-3.8 3.1-7 6.8-9.5 11.1-2 3.4-3.2 6.9-3.9 10.7-3.6 20.7 15.6 35.9 32.2 43.4 34.7 15.5 78.2 13.6 111.7-4M658.4 531.3c-15.8 11.7-35.7 14.9-54.9 15.8-20.7-.4-42.4-3.4-59.6-16.1-11.8-8.6-20-22.8-13.3-37.2 1.9-4 2.7-4.8 5.4-8M485.5 540c9.9-19.2 20.3-37.8 35.1-53.7M528.1 503.6c0 5.7-.5 11.6 1.5 17.2 5.9 16.6 25 25.6 40.8 29.8 29.5 8 64.9 5 90.1-13.4M485.5 540c7.7 22.5 26.8 36.4 48.2 45.1 40.2 16.5 86.5 16 127.5 3M717.3 740.2v87.10000000000001l-14.1 17.4-26.7 33-13.9 17.5"/>
    <defs>
        <path id="SVGID_1_" d="M342.4 1199.9z"/>
    </defs>
    <clipPath id="SVGID_2_">
        <use xlink:href="#SVGID_1_" overflow="visible"/>
    </clipPath>
    <path class="st3" d="M342.4 1199.9l20.9-20.9"/>
    <path class="st0" d="M342.4 1199.9z"/>
</svg>
