<svg xmlns="http://www.w3.org/2000/svg" xmlns:xlink="http://www.w3.org/1999/xlink"
    viewBox="0 0 1200 1200" enable-background="new 0 0 1200 1200">
    <style type="text/css">.st0{fill:none;} .st1{fill:none;stroke:#000000;stroke-linecap:round;stroke-width:3;} .st2{clip-path:url(#SVGID_2_);} .st3{fill:none;stroke:#FFFFFF;stroke-miterlimit:10;}</style>
    <path class="st0" d="M1140.4 0h-1080.8v1200h1080.8v-1200z"/>
    <path class="st1"
        d="M690.7 1135.1c-1.2-1-1.6-1.2-2.6-2.5-3.2-4.3-2.1-9.8-2.1-14.9 0-4.5-1-9.7 1.8-13.7 2.4-3.6 6.8-6 10.7-7.5 10.7-4 24.8-3.1 34 4.2 1.2 1 2.3 2 3.2 3.2.7 1.1 1.3 2.4 1.6 3.6 1.7 7.3-5.8 12.4-11.7 14.5l-2.9.9c-4.1 1.2-8.3 1.4-12.5 1.4l-3.3-.2c-7.2-.8-16.9-3.6-20.2-10.9-.8-1.6-.7-1.9-.9-3.6M693.8 1098.7c-1.9 1.3-3.6 2.6-4.9 4.5-.7 1-1.2 2.1-1.5 3.5-1.2 5.9 4 10.3 8.8 12.7 9.4 4.4 22 4.4 31.3-.1 4.7-2.3 10-6.8 8.6-12.7-.2-1.2-.8-2.3-1.5-3.4-1.3-1.9-3.1-3.1-5-4.5"/>
    <path class="st1"
        d="M711.5 1098c5.5.1 11.6 1.1 15.8 5 .8.8 1.6 1.8 2.1 2.9 2.5 6.2-4.7 10.5-9.5 11.9-2.6.7-5.2 1-7.8 1.1-5.6-.2-11.7-1.1-15.9-5.2-.8-.8-1.5-1.8-2-2.9-2.6-6.1 4.6-10.4 9.5-11.8 2.6-.7 5.2-.9 7.8-1zM723.9 1116.1c1.2-.8 1.7-1.1 2.7-2.3 2.7-3.4 1.2-7.4-2-9.8-3.8-2.9-8.7-3.5-13.4-3.6-4.5.2-9.3 1-12.9 4.1-3.2 2.7-3.7 6.7-.8 9.8 1 1.1 1.3 1.2 2.4 1.8M719.5 1098.9c-1.6 5-.8 1.6-.8 10.6v8.6M714 1141.5c6.2-.4 12.7-1.8 17.9-5.5 2.2-1.6 4.3-3.7 5.2-6.5 1.1-3.2.5-9.3.5-11.7v-8.399999999999999M701.4 1121.3l-.5 1.6v15M464.9 1074.3c-1.9-4.1-1.2-9.1-1.2-13.4v-7.3c0-5-.7-10 1.9-14.4 3.4-5.7 10.1-9.4 16.2-11.5 11-3.8 23.8-3.8 34.8 0 4.9 1.7 9.9 4.4 13.5 8.1 1.2 1.2 2.1 2.5 2.9 3.9 2.3 4.4 1.6 9.8 1.6 14.5v15.399999999999999l-.2 2.1c-1.9 8.9-11.9 13.7-19.7 15.9M463.8 1045.5c.1 1.9.1 2.4.7 4.3 2.4 7.1 9.9 11.3 16.5 13.6 12.2 4.2 26.6 4.1 38.5-.7 5.7-2.4 11.8-6.2 14.2-12.2.7-1.9.7-2.4.9-4.3"/>
    <path class="st1"
        d="M503.1 1031.4c2.9.5 5.7 1 8.4 1.9 5.3 1.9 12.2 6.8 10.2 13.5-.4 1.2-1 2.4-1.8 3.3-.9 1.2-2 2.1-3.2 3-5.5 3.7-12.1 4.5-18.5 4.7-3.8-.2-7.6-.7-11.3-2.1-5.4-2-12.3-6.8-10.3-13.5.4-1.2 1-2.3 1.8-3.3.9-1.1 2-2.1 3.2-2.9 6.3-4.3 14.2-5 21.5-4.6zM514.3 1054.4c1.5-1 2.9-2.1 3.9-3.6.6-1 1.1-2 1.3-3.1 1-6.5-6.6-10.4-11.7-11.8l-2.6-.6c-2.4-.4-3-.4-5.5-.5-5.9.1-12.1 1-16.9 4.7-4 3.1-5.5 8.1-2 12.2 1 1.2 1.6 1.6 2.9 2.6M522.4 1030.4c2.4 1.4 4.6 2.9 6.6 5 1 1.1 2 2.4 2.6 3.8 2.8 6 0 12.2-4.7 16.1-7.6 6.5-18.2 8.2-27.9 8.5-9.7-.3-20.2-2.1-27.8-8.6-4.7-4.1-7.4-10.2-4.5-16.1.7-1.4 1.6-2.8 2.7-3.9 1.9-2.1 4.2-3.6 6.6-5M484.3 1079.6v-7.6c0-8.3-.8-5.2.7-9.8M507.8 1056.7v-12.7c0-9.4-.9-5.6 1-11.5M169.1 1034l588.9 158.5M758 1193.5l8.7 5M758 1177.4l8.7 4.9M840.4 353.6l11.1 3M928.9 253.3l-59.7 140.5M858.1 390.9l11.1 2.9M934.1 431.1l-11.2-3M993.8 290.5l-59.7 140.6M1066.8 710.9l-11.1-2.9M1060.5 764.2l-11.1-2.9M1045.7 770.1l11.1 3M1044 773.5l8.7 5M1056.8 773.1v157.8M1052.7 936.3v-157.8M799.4 1068.3l-611.8-164.8M759.1 1161.3l-590.6-159M147.1 1015.5l12.2.7M760.3 1153.9l-586.7-158M159.3 1032.3l-12.2-.6M758 1184.4l-589.5-158.7M164.9 891.6l-12.2-.7M794.6 1074.8l-612.1-164.8M811.9 1068.4l-8.7-4.9M782 1094.7l-599.5-161.4M532.8 1039.4l243.7 65.7M184.1 538.2l11.2 3M194.5 544.8v157.9M195.3 699.1l-.8-.2M195.3 699.1v-157.9M182.3 544.2l12.2.6M199 532.3l-11.1-3M205.3 479l-11-3M67 190.8l18.7-43.8M87.1 150.8l11.1 2.9M104.1 186.6l-1.5 3.6M115.9 191l-11.1-2.9M110.3 196.4l-7.7-6.2M115.9 191l59.7-140.5M61.5 192.7l22.4-52.8M67 190.8l7.8 6.2M61.5 196.2l11.1 2.9M128.1 101l-8.8-2.4M879.4 272.1l11 2.9M154.1 104.6l3.5 7.4 104.8 221c3.8 7.8 7.2 15.5 9.4 23.8 2.2 8.5 3.5 17.3 4.3 26 1.7 17.2 1.5 34.4.4 51.6-1.8 25.2-5.7 50.3-11.2 75-7.5 33.4-17.8 65.9-30.9 97.5l-3.3 7.4-32.7 77.1c-1.7 3.9-3.6 7-3.9 11.2l-.7 8.1-17.7 206.7-.7 8.1-1.2 8.1-13.8 90.6-1.2 8.1"/>
    <path class="st1"
        d="M766.7 1198.5c0-8.4-.2-16.9.3-25.3.5-6.4 1.4-12.9 2.8-19.1 5.1-24.3 15.5-47.7 29.2-68.3 5.5-8.3 11.8-16 18.1-23.6l230.4-277.4 5.2-6.2c1.5-1.8 3-3.3 4.1-5.4 5.5-11.6 9.6-24 11.4-36.8 1-6.6 1.4-13.5.2-20.1-.8-4.6-3.1-8.5-5.1-12.8l-125.8-265.1c-1.6-3.3-2.9-7.4-5.6-10.3-4.8-5.2-11.9-8-18.1-11.1l-32-15.5c-2.9-1.4-6.8-3-9.7-4.9-3.7-2.5-4.3-6-6.4-10.2l-10.7-22.5c-2.6-5.5-5.2-10.6-6.4-16.5-3.4-16.1-1.6-33.4 1.3-49.4 2.2-12.5 5.5-24.8 9.8-36.8 4.6-12.9 10.3-25.6 18-36.8l3.6-4.8 3.6-4.1c4.7-4.8 12.4-10.9 19.4-7.4 5.7 2.8 7.9 10.1 10.4 15.2l10.6 22.5c2 4.3 2.6 7.7 6.4 10.1 2.9 2 6.9 3.6 9.6 4.9l32 15.6c5 2.4 10.2 4.6 14.7 8 2.2 1.6 4.4 3.5 5.7 6l3.5 7.4 126.7 267c3.6 7.8 7.1 15.5 9.3 23.8 3.3 12.3 4.6 25.2 5.3 37.9.7 15.6.3 31.3-1 46.8-4 46.6-14.8 92.9-30.5 136.8-4.3 12.2-9.3 24.3-14.3 36.2l-32.8 77.1-3.1 7.4c-1 2.1-2.6 3.7-4.1 5.4l-5.2 6.3-144.4 173.8-5.2 6.3-7 4.1-117.2 67.6c0 .2 0 .2-7 4.2zM776.3 1192.9c2.8 1.3 6.4 3 9.4 1.4l7.1-4.1 79.4-45.9 7.1-4.1c2.9-1.8 3.3-5.8 3.5-8.8M790.7 1184.6c-.2 3.6-.9 6.4-3.5 8.9M758 1193.5c0-8.4-.2-16.9.4-25.3.5-6.4 1.4-12.9 2.8-19.2 5.1-24.3 15.5-47.6 29.2-68.3 5.5-8.3 11.7-16 18.1-23.6l230.4-277.4 5.2-6.3c1.5-1.9 2.6-5.8 3.5-7.8 3.8-9 7.1-18 8.9-27.6 1.6-8.8 2.9-18.9.2-27.6l-1-2.5-3.5-7.4-125.8-265.1-3.6-7.4c-.9-1.9-3.3-3.2-5.2-4.1l-7.4-3.6-32-15.6-7.3-3.6-2.6-1.4c-3.5-1.9-7.1-4.3-9.5-7.5l-.8-1.4-3.5-7.4-10.7-22.5c-1.6-3.2-4-7.8-5.2-11.5-3.9-12.2-3.4-25.7-2.2-38.2 1.4-15.3 4.8-30.3 9.4-44.9 3.6-11.4 8-22.7 13.7-33.2 4.6-8.7 10.1-17.5 17.8-23.9 2.9-2.4 6.3-4.5 10.1-5 3.1-.4 5.3.7 8.6 1.5l5.5 1.5M871.1 401.2c5.3-5.2 2.7-1.9 6.5-10.7l53.3-125.6 3.2-7.5M980.8 280.2l-3.3 7.5-53.2 125.5c-3.8 9-1.3 5.7-6.6 10.8M187.6 903.5l-5.1 6.4v15.2c0 5.4.1 10.8-.4 16.1-.3 3.9-1.1 7.8-1.7 11.7l-5.3 35-1.2 8.1M159.3 1032.3c0-49.7 2-99.3 6.2-148.9l28.3-330.5c.3-2.8.2-8.5 1.5-11.8 2.3-6 5.1-11.7 7-17.8 2.9-9 4.8-18.4 5.2-27.8.2-4.6.1-9.5-1.2-14.1l-1-2.5-3.5-7.3-125.7-265.2-3.5-7.4c-.2-.5-.3-1.1.1-1.5.5-.5 1.4-.6 2.1-.6l8.1-.2 19.3-.3 8.1-.1c1.6 0 3.4-.2 4.8-1.1l.8-.8 3.2-7.6 53.4-125.5 3.1-7.5.5-1c.1-.9-.1-1.8-.5-2.5l-3.5-7.4-10.7-22.5c-2.5-5.1-4.7-12.4-10.3-15.2l-2.8-.9-5.5-1.5c-6.5-1.8-3.7-1.5-8.6-1.6l-3.3.8c-5.7 2.1-10.3 6.9-14 11.6-4.1 5.1-7.6 10.8-10.7 16.6-5.6 10.8-10 22.1-13.6 33.5-4.5 14.5-7.9 29.5-9.3 44.6-1 11-1.4 22.4.9 33.3 1.2 6 3.8 11 6.4 16.5l10.7 22.5 3.5 7.4c.2.5.3 1.1-.1 1.5-.6.5-1.4.5-2.1.6l-8.1.1-19.3.3-8.1.1c-1.8.1-4.4.2-5.5 1.9-1.9 2.8 3.6 10.9 3.6 10.9l125.7 265.1 3.5 7.4 1 2.4c1.7 6 1.6 12.4 1 18.5-.9 9.5-3.2 19-6.5 28-1.7 4.5-3.6 8.9-5.5 13.2-.8 2-1.6 3.8-1.8 6l-.7 8.2-28.3 330.5c-4.2 49.5-6.2 99.1-6.2 148.8M162.3 1012.8c.4 3.6 2.8 5.9 6.2 6.7M169.1 1034c-.5-.9-.5-2.1-.5-3-.2-1.8-.2-3.6-.2-5.3v-23.299999999999997l5.2-6.4M168.6 1029.6c-3.1-.3-5.8-1.2-8.5-2.6M173.6 937.9c.3 3.1 2.2 5.4 5.3 6.5 2.4.9.2-.1 2.8.6l7.9 2.1 288 77.5 7.9 2.1M148.3 4.5h-3.1l-3.2.8c-5.7 2.2-10.3 7-14 11.6-4.1 5.1-7.6 10.8-10.7 16.6-5.7 10.6-10.1 21.8-13.7 33.3-4.5 14.5-7.9 29.5-9.3 44.6-1.1 11-1.4 22.4.9 33.3 1.2 5.9 3.8 11 6.4 16.5l10.7 22.5c1.1 2.5 5 7.4 3.5 10.9"/>
    <path class="st1"
        d="M131.8 62.9l1.2-.2c3.3 0 3.8 4.8 4.1 7.2l.1 2.4-.1 2.6c-.5 7.6-2.7 15.5-6.4 22.2-1.7 3-3.8 6.6-7.4 7.2-4-.8-4.2-6.2-4.2-9.5l.1-2.6c.5-7.6 2.7-15.5 6.4-22.3 1.5-2.9 3.3-5.4 6.2-7zM119 95c3.2-5.3 5.1-11.4 6.2-17.4.5-2.8.9-5.7.7-8.6"/>
    <path class="st1"
        d="M885.1 265.7l1.1-.2c3.3-.1 4 4.8 4.1 7.2l.1 2.4-.1 2.7c-.5 7.6-2.6 15.4-6.4 22.1-1.7 3-3.8 6.5-7.4 7.2-4-.8-4.1-6.3-4.1-9.6v-2.6c.6-7.6 2.7-15.4 6.4-22.1 1.6-2.9 3.4-5.6 6.3-7.1zM872.4 297.7c3.1-5.2 5-11.3 6.2-17.3.5-2.8 1-5.7.8-8.6M718.6 1118.1c-2.6-.5-4.9-.7-7.5-.9-2.1.1-4.1.4-6.1.9M293.4 1003.6c-2.5-.6-4.8-.8-7.4-.9-2.1.1-4.1.3-6.2.9M500.6 1057.6h-.2l-2.5.1M265.5 1020.7c-1.2-1.1-1.6-1.2-2.6-2.6-3.3-4.3-2.1-9.8-2.1-14.9 0-4.5-1-9.6 1.7-13.6 2.5-3.6 6.8-6.1 10.8-7.5 10.7-4 24.9-3.1 34.1 4.2 1.2.9 2.3 2 3.2 3.3.7 1.1 1.3 2.3 1.6 3.6 1.7 7.2-5.8 12.3-11.6 14.4l-2.9 1c-4.1 1.1-8.3 1.4-12.6 1.4l-3.2-.2c-7.3-.8-16.9-3.6-20.3-10.9-.7-1.7-.6-2-.8-3.7M268.6 984.3c-1.9 1.3-3.6 2.5-4.9 4.5-.7 1.1-1.2 2.2-1.5 3.5-1.2 5.9 4.1 10.4 8.8 12.7 9.4 4.5 22 4.5 31.3 0 4.7-2.3 10-6.9 8.6-12.7-.2-1.2-.8-2.4-1.5-3.4-1.2-1.9-3-3.2-5-4.5"/>
    <path class="st1"
        d="M286.4 983.5c5.5.2 11.7 1.1 15.8 5.2.8.8 1.5 1.8 2 2.9 2.6 6.1-4.6 10.3-9.5 11.7-2.6.7-5.1 1-7.9 1.1-5.5-.2-11.7-1.1-15.8-5.1-.9-.8-1.6-1.8-2-2.9-2.6-6.1 4.6-10.4 9.5-11.9 2.6-.7 5.1-.9 7.9-1zM298.8 1001.7c1.1-.9 1.7-1.2 2.6-2.3 2.7-3.4 1.4-7.4-1.9-9.8-3.9-2.9-8.8-3.5-13.4-3.6-4.5.3-9.3 1.1-13 4.2-3.2 2.6-3.7 6.7-.8 9.8 1 1 1.3 1.1 2.4 1.8M294.3 984.5c-1.6 5-.8 1.6-.8 10.5v8.6M288.8 1026.9c6.2-.4 12.7-1.8 17.9-5.4 2.3-1.7 4.3-3.8 5.2-6.5 1.1-3.2.5-9.3.5-11.8v-8.399999999999999M276.2 1006.8l-.6 1.6v15"/>
    <defs>
        <path id="SVGID_1_" d="M59.6 1200z"/>
    </defs>
    <clipPath id="SVGID_2_">
        <use xlink:href="#SVGID_1_" overflow="visible"/>
    </clipPath>
    <path class="st3" d="M59.6 1200l14.6-14.6"/>
    <path class="st0" d="M59.6 1200z"/>
</svg>
