<svg xmlns="http://www.w3.org/2000/svg" xmlns:xlink="http://www.w3.org/1999/xlink"
    viewBox="0 0 1200 1200" enable-background="new 0 0 1200 1200">
    <style type="text/css">.st0{fill:none;} .st1{fill:none;stroke:#000000;stroke-linecap:round;stroke-width:4;} .st2{clip-path:url(#SVGID_2_);} .st3{fill:none;stroke:#FFFFFF;stroke-miterlimit:10;}</style>
    <path class="st0" d="M834.9 0h-469.8v1200h469.7l.1-1200z"/>
    <path class="st1"
        d="M658.8 1059.4c.4 11.8 4.9 21.3 11.4 25.7M690.5 985.5h-1.1M696.2 990.5c-1.3-3-3.5-4.7-5.8-5M555.7 953c-8 5.6-16.4 21.6-21.4 40-3.8 14.5-5 28-3.7 37.4M691.3 115.6l-1.3-.1M673 172.5c.7 1.2 1.7 1.9 2.6 2.1 5.6 1.5 13.8-10.4 18.1-26.7 4.3-16.4 3.3-30.8-2.4-32.3M671.1 162.1c.8 10.6 4.6 17.3 9.2 17.9 6.9.8 14-11.6 16-27.7.1-1.3.2-2.6.4-3.7M477.9 313.4v.5c0 31.9 44.7 57.8 100 57.8 54.9 0 99.5-25.6 100-57.3M477.9 739.6v.4c0 31.9 44.7 57.8 100 57.8 54.9 0 99.5-25.7 100-57.3M555.7 1127.1c2.4 6.6 24.4 8.4 49.8 4.1 15.1-2.6 28.2-6.7 36.5-11.2M456.1 739.5c0 .8-.1 1.6 0 2.3 0 38.9 54.5 70.4 121.8 70.4 65.8 0 119.5-30.2 121.7-68M662.6 1034.3c-2.9 9.1-4.1 17.9-3.8 25.1M699.6 743.2c.5-15.1-7.3-29.3-20.8-40.7M699.6 744.2v-1M456.1 313.4c0 .8-.1 1.7-.1 2.3 0 38.8 54.6 70.3 121.9 70.3 65.8 0 119.5-30.1 121.7-68M694.9 113c-2.4-.9-6.5 3.3-11.1 10.8M696.7 116.1c-.3-1.8-1-2.8-1.9-3.1M683.8 123.8c-8.2 13.5-12.6 27.6-12.6 38.3M456.1 75.5l-.1 2.3c0 38.9 54.6 70.3 121.9 70.3 65.8 0 119.5-30.2 121.7-68.1M677.9 60c0-15.5-10.6-29.6-27.8-39.9M508.6 18.3c-20.5 11.4-30.7 26.5-30.7 41.7 0 31.9 44.7 57.8 100 57.8 55.2 0 100-25.9 100-57.8M456.1 242.4c-1.3 22.2 15.5 42.3 42.7 55.8M488.8 29.8c-21 13-31.8 29.4-32.7 45.7M650.2 20.1c-19.6-11.8-45.9-17.8-72.3-17.9-26.9 0-51.4 6.2-69.3 16.1M699.1 71.6c-3.1-20.6-20.8-38.1-48.9-51.5M699.6 80.1c.1-3.1-.1-6-.5-8.5M498.8 298.2c23 11.4 51.2 16.9 79.1 16.7 65.8 0 119.5-30.2 121.7-68M472.9 280.2c-10.5 9.9-16.1 21.9-16.7 33.2M456.1 633c0 .8-.1 1.7-.1 2.3 0 38.8 54.6 70.3 121.9 70.3 65.8 0 119.5-30.2 121.7-68M699.6 315.4c-.1-12.4-5.6-24-15.1-33.7M699.6 317.9v-2.6M477.9 701.9c-13.8 11.1-21.1 24.7-21.7 37.6M456 1058.2c.1 19.6 14.1 37.3 36.5 50M500.4 881.4c16.8 8 36 12.9 55.3 14.8M677.9 314.4v-29.7M477.9 284.7v28.7M677.9 740.5v-65.2M477.9 675.4v64.2M555.7 1127.1v-230.9M699.6 744.2v247.3M677.9 701.9l.9.6M456.1 75.5v166.9M508.6 18.3l-19.8 11.5M699.6 247v-167M456.1 633v-319.6M699.6 317.9v319.6M682.9 280.2l1.6 1.4M456 1058.2l.1-318.7M509.9 1118.2l-17.4-10.1M509.9 1118.2l45.8-56.5M500.4 1112.2v-230.8M658.7 1061.1v-8.7M456.4 1021.3l-.1-2.9-.2-15.8M697.8 129.2c0 6.5-.4 13-1 19.4M677.5 735c.3 2.4.4 4.9.4 7.4M477.9 743.8c0-4.1 0-5.6.5-9.7M662.6 1034.3c5.3-15.3 12.6-29.6 22-42.8l1.9-2.5 1.7-2.2 1.7-1.9c1.7-2.1 6.9-7.8 8.5-2.6l.4 1.7.3 2.2.3 5.3M477.9 317.6c0-4 0-5.5.5-9.7M677.9 316.2l-.1-5.3-.3-2M696.7 116.1c.9 4.3 1 8.7 1 13.1M692.1 1059.8c-4.2-.8-8.2 1.5-9.2 5.1-.4 1.5-.3 3 .2 4.4M765.6 1009.2c-8.8-2.1-21.5 16.6-28.3 41.9-6.9 25.5-5.3 48.2 3.5 50.5h.1M698.4 1077.9c.7-.2 1.2-.5 1.7-.8 3.1-2.2 2.9-7.8-.4-12.2-2.1-2.9-5-4.7-7.6-5.1M766.4 1009.4l-.8-.2M740.9 1101.6l.6.2c9.1 2.6 22.2-16.2 29-41.7 6.8-25.7 4.9-48.4-4.2-50.8M767.1 1011.9c-3.5-.9-7.8 1.7-11.9 6.8M752.7 1022.3c-5.3 7.8-9.7 18.5-12.6 29.5-6.6 24.4-5.1 46 3.4 48.3 8.4 2.2 20.5-15.6 27-40 6.6-24.4 5.1-46-3.3-48.3M443.6 891c-14.4-2.3-34.6 28.2-45.5 68.9-11.2 41.7-8.7 78.7 5.8 82.6l.9.2M438.4 921.1c-8.9-2.2-21.4 16.5-28.3 41.9-6.9 25.5-5.3 48.2 3.5 50.5h.1M404.7 1042.6c4.9.8 10.5-2.2 16-8M419.9 884.6c-14.4-2.3-34.6 28.2-45.5 68.8-11.3 41.7-8.7 78.7 5.7 82.7l.9.2M456.1 911.2c-1.6-11.9-6.6-19.4-12.6-20.3M740.9 1101.6l-48.8-13.1M687.2 988.1l78.4 21.1M438.4 921.1l17.7 4.8M456.1 1025l-42.3-11.4M381 1036.3l23.7 6.3M443.6 891l-23.7-6.4M420.7 1034.7c4.4-5.1 8.3-10.3 11.5-16.1M638.9 1191.4v.2c-.3.8 3.1 2.8 7.6 4.5 4.4 1.5 8.3 2.1 8.8 1.3M655.3 1197.2c.3-.8-3.1-2.8-7.7-4.5-4.4-1.5-8.3-2.1-8.7-1.3M655.2 1197.4l.3-.3"/>
    <path class="st1"
        d="M646.3 1142.2c2.2-2.8 1-7.5-2.6-10.6-3.8-3-8.7-3.2-10.8-.4-2.2 2.8-1 7.5 2.7 10.5 3.6 3.1 8.4 3.3 10.7.5zM695 1089.7l-1.5-.4M689.4 1105.5c3.5.7 7.1-1.5 8.7-4.9 2-4.2.6-9.1-3.1-10.9M691 1107.6c7.6 3.7 20.1-1.5 28.2-11.8M816.3 920.9c-7.1-1.2-15.9 3.5-21.7 11M790 1023.5c8-6.4 15.8-22.2 20.6-40.1 5.1-18.7 5.6-35.8 2.2-45M798.8 1037.8c11.7-5.4 25-31.6 30.8-60.2M817 921l-.6-.1M829.6 977.7c1-3.3 1.7-6.8 2.1-10 3.5-24.1-3.1-45.1-14.7-46.7M788.1 1024l1 .4c8.3 2.2 20.3-15.3 26.8-39.1 6.3-23.3 5.3-44-2.6-47.3M690.9 1059.7l-57.7 71M638.8 1191.6l24.8-71M696.6 1091l2.4 1.7M645.9 1142.6l56.3-69.4M693.5 1089.3l-3.2-1.5M655.3 1197.2l28.3-80.4M691 1107.6l-2.3-1.2M807.6 943.3l-51.5 63.4M737.8 1001.7l57.2-70.3M789.5 1023.9l-16.3-5.1M774.5 1037.4l10.3 3.2M702.2 1091.2l-3.6.5h-1M683.3 1117.1c2.2-5.6 4.2-10.3 9-14.2M699.8 1090.6c-1.9.8-1 .6-2.6.8M791.6 1024.2l-5.3-.5M812.7 938.2l2.9-.3M808.1 942.8c3.8-4.1 1.8-2.3 5.8-5.6M798.8 1037.8c-4.9 2.9-2.4 1.9-7.4 3.3-3.7-.2-6-.2-9.4-2M555.7 1037.1l-25.1-6.7"/>
    <defs>
        <path id="SVGID_1_" d="M365.1 1200z"/>
    </defs>
    <clipPath id="SVGID_2_">
        <use xlink:href="#SVGID_1_" overflow="visible"/>
    </clipPath>
    <path class="st3" d="M365.1 1200l22.7-22.7"/>
    <path class="st0" d="M365.1 1200z"/>
</svg>
