<svg xmlns="http://www.w3.org/2000/svg" xmlns:xlink="http://www.w3.org/1999/xlink"
    viewBox="0 0 1200 1200" enable-background="new 0 0 1200 1200">
    <style type="text/css">.st0{fill:none;} .st1{fill:none;stroke:#000000;stroke-linecap:round;stroke-linejoin:round;stroke-width:3;} .st2{fill:none;stroke:#000000;stroke-linecap:round;stroke-linejoin:round;stroke-miterlimit:10;} .st3{clip-path:url(#SVGID_2_);} .st4{fill:none;stroke:#FFFFFF;stroke-miterlimit:10;}</style>
    <path class="st0" d="M1004.2 0h-808.4v1200h808.5l-.1-1200z"/>
    <path class="st1"
        d="M469.2 1071.9v20M536.1 1093.3v-21.4M315 1012.4l-2.7.5-4.9 1.5-4.2 2-3.5 2.5-2.4 2.9-1.4 3.2-.1 2M335.9 1013.1c-6.8-1.9-13.9-2.1-20.8-.7M348.4 1034.5l1.4-1.5 1.6-3.1.5-3.1-.6-3.1-1.7-2.9-2.5-2.6-3.7-2.3-4.4-1.9-3.1-.9M295.7 1026.9v17.8M351.9 1044.7v-17.8M672.7 1109.7l-2.7.4-4.9 1.5-4.2 2.1-3.4 2.4-2.6 2.9-1.3 3.2-.1 2M693.5 1110.3c-6.7-1.9-13.9-2.1-20.8-.7M706.1 1131.7l1.3-1.5 1.7-3 .5-3.3-.6-3.1-1.6-2.8-2.7-2.6-3.6-2.4-4.4-1.8-3.2-.9M653.4 1124.1v17.9M709.7 1142v-17.9M758.6 131.4l-9.4-2.6M293 4.9l-9.3-2.6M270.6 187.6l57.3-115.9M249.8 156.8l-15.1 30.7M216.9 1058.6l513.1 139.5M747 1193.7l49.2-48.1M526.9 1059.9c-14.2-7.4-30.8-8-45.5-1.6M474.2 1077.6l2.9 2.4 4.3 2.5 5.1 1.9 5.8 1.4 6.3.8 6.3.1 6.3-.6 6-1.2 5.4-1.8 4.5-2.3 2.5-1.8"/>
    <path class="st1"
        d="M532.2 1080l2.5-3.1 1.2-3.4v-3.3l-1.3-3.3-2.6-3.2-3.7-2.7-4.5-2.4-5.5-1.9-6.1-1.2-6.5-.7h-6.5l-6.4.7-6 1.3-5.4 1.9-4.7 2.4-3.6 2.8-2.4 3.2-1.3 3.3v3.4l1.4 3.2 2.5 3.2 3.7 2.7 4.6 2.4 5.5 1.8 6.1 1.3 6.4.7h6.5l6.4-.7 6.1-1.3 5.4-1.9 4.6-2.5zM532.2 1101.4c2.3-2.1 3.7-4.9 3.8-8.1M523.6 1106.8c3.2-1.3 6.1-3.1 8.6-5.4"/>
    <path class="st1"
        d="M521.3 1075.5l1.9-2.5.6-2.7-.8-2.8-2-2.5-3.2-2.1-4.1-1.7-4.9-1.1-5.2-.5-5.2.2-5.1.8-4.4 1.6-3.5 2-2.5 2.4-1.2 2.7.1 2.7 1.4 2.6 2.7 2.4 3.6 1.9 4.5 1.4 5 .8 5.4.1 5.1-.5 4.8-1.2 4-1.7zM517.9 1077.9l.4-.2 1.5-2.3.4-2.5-.9-2.4-2.2-2.2-3.2-1.8-4.1-1.3-4.6-.8h-4.8l-4.6.7-4.2 1.3-3.2 1.7-2.2 2.3-1.1 2.3.3 2.6 1.6 2.3.4.3M301 1032.2c12.3 8.3 28.1 9.4 41.5 2.9M348.7 1033.7c2-1.7 3.2-4.1 3.2-6.8M348.7 1051.5c2-1.7 3.2-4.1 3.2-6.8M339.6 1056.7c3.3-1.1 6.5-2.9 9.1-5.2"/>
    <path class="st1"
        d="M339.4 1029.7l1.6-2.3.4-2.5-.9-2.5-2.2-2.1-3.3-1.8-4-1.4-4.7-.6-4.8-.1-4.6.7-4 1.3-3.4 1.8-2.2 2.1-1 2.4.3 2.5 1.6 2.4 2.7 2 3.7 1.5 4.4 1.1 4.7.3 4.7-.3 4.5-.9 3.7-1.7zM336.3 1031.9l1.4-2.1.1-2.2-1.1-2.1-2.2-1.8-3.2-1.4-3.9-.8-4.1-.2-4.1.3-3.7 1-3 1.5-2 2-.8 2.1.5 2.2 1.2 1.5M658.6 1129.4c12.3 8.4 28.1 9.4 41.5 2.9M706.4 1131c1.9-1.7 3.1-4.2 3.2-6.8M706.4 1148.7c1.9-1.7 3.1-4.2 3.2-6.7M697.3 1154c3.4-1.1 6.5-2.9 9.1-5.3"/>
    <path class="st1"
        d="M697.1 1126.8l1.6-2.2.4-2.5-1-2.4-2.1-2.2-3.2-1.9-4.1-1.2-4.6-.7h-4.8l-4.7.6-4.1 1.3-3.2 1.8-2.3 2.2-1 2.4.3 2.4 1.6 2.3 2.7 2.1 3.7 1.6 4.3 1 4.8.3 4.7-.3 4.5-1 3.7-1.5zM694 1129l1.3-2 .2-2.1-1.1-2.1-2.2-1.9-3.2-1.3-3.8-1-4.2-.2-4.1.4-3.8 1.1-2.9 1.5-1.9 1.8-.9 2.2.6 2.1 1.1 1.6M766.7 138l-.6-1-3-3.2-3.5-2.1-3.7-.7-4.1.5-4.3 1.8-4.4 3-4.5 4.2-4.4 5.3-4.4 6.3-4.1 7.1-3.9 7.9-3.5 8.5-3.2 8.9-2.7 9.2-2.1 9.3-1.6 9.3-1 9-.4 8.6.2 8.1.9 7.2 1.3 6.5 2 5.5M749.2 128.8l-2.6-.3-4.1.5-4.3 1.7-4.5 3.1-4.4 4.2-4.4 5.2-4.4 6.3-4.2 7.2-3.8 7.9-3.6 8.4-3.1 9-2.6 9.2-2.2 9.4-1.6 9.2-1.1 9-.3 8.6.2 8 .8 7.3 1.4 6.4 2 5.5M711.7 257.2l24.2 53.4M702.4 254.6l24.2 53.4M742 1193.3l8.2-8M742 1182.3v11M783.1 1011.7c-25.9 53.2-39.9 111.4-41.1 170.6M932.5 707.2l-149.4 304.5M932.5 707.2c3.9-7.1 5-15.5 3-23.5M779.3 339l156.3 344.7M992.4 567.9l-155.6-346.5M965.4 779.6l5.7-12.3 5.4-13 5-13.4 4.5-13.9 4.1-14 3.4-14.2 3-14.1 2.4-14.1 1.7-13.8 1.1-13.5.6-13-.1-12.4-.7-11.8-1.4-10.9-2-10-2.6-9.2-3.1-8.1M815.8 1084.1l149.6-304.5M815.8 1084.1c-5.1 10.6-8 22.3-8.2 34.1M807.7 1129.2v-11M799.5 1137.3l8.2-8.1M767.9 329l-27.4-14.5M735.9 310.6c1.1 1.7 2.7 3.1 4.6 3.9M779.3 339c-2.7-4.4-6.7-7.8-11.4-10M765.4 332.4l-27.5-14.4M726.6 308c2.7 4.4 6.7 7.9 11.3 10M769.9 336.5c-1.1-1.7-2.7-3.2-4.6-4M926.2 681.2l-156.3-344.7M270.4 184.1l-24.2-53.4M246.2 130.7l-2-5.6-1.4-6.4-.8-7.3-.3-8 .4-8.6 1.1-9 1.6-9.2 2.1-9.4 2.7-9.2 3.1-8.9 3.6-8.5 3.8-7.9 4.2-7.1 4.3-6.3 4.4-5.3 4.5-4.2 4.4-3 4.4-1.8 4-.5 3.8.7 3.4 2 3 3.3.4.5M236.8 128.1l-2-5.5-1.3-6.4-.8-7.3-.3-8 .5-8.7.9-8.9 1.6-9.3 2.2-9.3 2.7-9.2 3.1-9 3.5-8.4 3.9-7.9 4.1-7.2 4.4-6.3 4.5-5.2 4.5-4.2 4.3-3 4.4-1.8 4-.5 2.7.3M261 181.5l-24.2-53.4M207 1036.9v11M248.1 866.3c-25.9 53.2-39.9 111.4-41.1 170.6M397.5 561.8l-149.4 304.5M397.5 561.8c4-7.2 5-15.6 3-23.5M244.3 193.6l156.3 344.8M457.4 422.5l-145.1-319.9M430.4 634.2l5.8-12.3 5.3-13 5-13.5 4.5-13.7 4-14 3.5-14.3 3-14.1 2.4-14 1.7-13.9 1.2-13.5.5-12.9-.1-12.5-.7-11.8-1.4-10.9-2-10.1-2.5-9.1-3.2-8.1M280.9 938.7l149.5-304.5M280.9 938.7c-5.1 10.7-8 22.3-8.2 34.2M272.7 983.8v-11M264.5 991.8l8.2-8M207 1047.9l6.3-6.1M266.2 189.8l1.3-.3 1.2-.3 1-.5.6-.7.4-.8.2-.9-.1-1.1-.4-1.1M259.3 183.8l.6-.1.5-.1.3-.3.3-.2.2-.3.1-.4-.1-.5-.2-.4M259.3 183.8l-20.1 1.6M239.2 185.4l-1.5.2-1.1.3-.9.6-.7.6-.4.8-.2.9.1 1.1.5 1.1M246 191.3l-.6.1-.5.1-.3.3-.3.2-.2.4-.1.3.1.4.2.5M266.2 189.8l-20.2 1.5M391.3 535.8l-156.3-344.8M773.7 1009.2l149.5-304.5M773.7 1009.2c-25.9 53.2-39.9 111.4-41 170.5M732.7 1190.8l9.3 2.5M732.7 1190.8v-11.1M213.3 1028.5l513.2 139.5M218.2 1023.7l-4.9 4.8M218.2 1023.7l513.2 139.5M731.4 1163.2l-4.9 4.8M213.3 1049.6v-21.1M726.5 1189.1v-21.1M731.4 1184.2v-21M731.4 1184.2c-.2 1.4.3 2.7 1.3 3.6M734.6 1191.3v4.8M734.6 1196.1l-1.5 1.3-1.5.7h-1.5l-1.2-.7-1-1.3-.9-1.8-.4-2.5-.1-2.7M213.3 1049.6c-.6 3.4.8 6.9 3.6 8.9M734.6 1196.1c5.9 2.3 12.5-.6 14.8-6.5.5-1.4.8-2.9.8-4.4M796.2 1145.6c2.2-2.3 3.4-5.3 3.3-8.4M274 969.2l469 127.5M278.9 964.4l-4.9 4.8M278.9 964.4l465.4 126.5M274 969.2v21.1M270.7 999.5c2.1-2.5 3.3-5.8 3.3-9.2M923.2 704.7c3.9-7.1 4.9-15.5 3-23.5M238.8 863.8l149.4-304.5M238.8 863.8c-25.9 53.2-39.9 111.4-41.1 170.6M207 1047.9l-9.3-2.6M197.7 1045.3v-10.9M208.6 1046.5c1.3 2.2 2.9 4.2 4.9 5.8M264.5 991.8c.2 3.6 2.7 6.8 6.2 7.7M388.2 559.3c3.9-7.2 5-15.6 3-23.5M530.7 1078l2.4-3.1 1.1-3.1-.1-3.4-1.4-3.2-2.7-3-3.1-2.3M481.4 1058.3l-1 .6-4.1 2.5-3 2.9-1.8 3.2-.5 3.2.8 3.4 2.1 3.1.3.4M529.6 1079l1.1-1M347.2 1031.7l2.1-2.7.9-2.9-.4-2.9-1.5-2.8-2.7-2.6-3.6-2.2-4.6-1.8-5.2-1.3-5.6-.5h-5.7l-5.5.6-5.2 1.2-4.6 1.8-3.7 2.2-2.6 2.7-1.5 2.7-.3 3 .9 2.9 2.2 2.7.4.4M342.4 1035.1l1.5-.9 3.3-2.5M295.7 1027v.7l1.1 3.1 2.2 2.9 3.4 2.6 4.4 2.2 5.2 1.6 5.9 1 6 .3 6-.3 5.8-1 5.2-1.7 4.4-2.1 3.4-2.6M704.8 1129l2.2-2.8.9-2.8-.3-3-1.6-2.8-2.7-2.6-3.7-2.2-4.5-1.8-5.2-1.2-5.5-.6h-5.8l-5.5.6-5.2 1.2-4.6 1.8-3.6 2.2-2.7 2.6-1.5 2.9-.3 2.9.9 3 2.1 2.6.4.4M700.1 1132.3l1.5-.9 3.2-2.4M653.4 1124.2v.8l1 3.1 2.3 2.9 3.4 2.6 4.5 2.1 5.2 1.7 5.7.9 6.1.4 6-.4 5.8-1 5.2-1.6 4.4-2.2 3.4-2.5M702.4 254.6l9.3 2.6M792.4 192.4l-56.5 118.2M735.9 310.6l-9.3-2.6M836.9 221.5l-57.6 117.5M750.2 1185.3l49.3-48M740.5 314.5l57.7-117.3M767.9 329l57.7-117.6M740.5 314.5l-2.6 3.5M765.4 332.4l2.5-3.4M769.9 336.5l9.4 2.5M926.2 681.2l9.4 2.5M270.4 184.1l57.1-116.3M236.8 128.1l9.4 2.6M261 181.5l9.4 2.6M245.3 191.4l-1 2.2M264.5 991.8l-35.6 34.8M260.7 180.9l-1.4 2.9M239.2 185.4l12.3-25M259.3 183.8l6.9 6M246 191.3l-6.8-5.9M244.3 193.6l-9.3-2.6M400.6 538.4l-9.3-2.6M923.2 704.7l9.3 2.5M773.7 1009.2l9.4 2.5M732.7 1179.7l9.3 2.6M213.3 1049.6l513.2 139.5M726.5 1189.1l4.9-4.9M731.6 1186.3l1.1.2M270.7 999.5l-30.8 30.2M270.7 999.5l46.2 12.7M349.8 1021.1l133.8 36.3M536.1 1071.7l138.4 37.6M707.6 1118.3l29.6 8.1M274 990.3l236.6 64.3M523.5 1058.1l215.3 58.6M248.1 866.3l-9.3-2.5M397.5 561.8l-9.3-2.5M207 1036.9l-9.3-2.5M327.4 67.8l-26.7-57.2M767 137.8l25.2 54.9M792.6 192.7c1.1 1.7 2.7 3.1 4.6 4M825.6 211.5l-28.9-15.1M836.8 221.4c-2.7-4.4-6.7-7.9-11.3-10M327.9 71.9l.2-.9.2-.9-.2-1.1-.5-1.1"/>
    <path class="st2"
        d="M285.5 73.9l-.2-3.4-.6-2.5-1.2-2-1.4-1-1.8.2-2 1-2 1.8-2 2.8-1.6 3.3-1.6 4-1.1 4-.6 4.1-.2 3.8.2 3.4.6 2.8 1.1 1.8 1.6 1h1.6l2-1 2-2 2-2.6 1.8-3.5 1.4-3.8 1.2-4.2.6-4zM275.5 71.3v-2.2M269.2 92.2l1.1-1.5 1.7-3.4 1.5-4 1.2-4 .6-4.2.2-3.8"/>
    <path class="st2"
        d="M751 199.6l-.1-3.3-.7-2.6-1.2-2-1.3-1-1.8.2-2 1-2.1 1.8-1.9 2.8-1.6 3.4-1.6 4-1.2 3.9-.6 4.2-.2 3.8.2 3.4.6 2.8 1.2 1.8 1.6.9h1.6l1.9-.9 2.1-2 2-2.6 1.8-3.6 1.3-3.8 1.2-4.2.7-4zM741.1 197.1v-2.2M734.7 218l1.2-1.6 1.6-3.4 1.6-4 1.2-4 .6-4.2.2-3.7"/>
    <defs>
        <path id="SVGID_1_" d="M195.8 1200z"/>
    </defs>
    <clipPath id="SVGID_2_">
        <use xlink:href="#SVGID_1_" overflow="visible"/>
    </clipPath>
    <path class="st4" d="M195.8 1200l13.9-13.9"/>
    <path class="st0" d="M195.8 1200z"/>
</svg>
