<svg xmlns="http://www.w3.org/2000/svg" viewBox="0 0 1400 1400"
    enable-background="new 0 0 1400 1400">
    <style type="text/css">.st0{fill:none;} .st1{fill:none;stroke:#000000;stroke-linecap:round;stroke-linejoin:round;stroke-miterlimit:10; stroke-width:3;} .st2{fill:none;stroke:#FFFFFF;stroke-miterlimit:10;}</style>
    <path class="st0" d="M1300 372.2h-1200v655.6h1200v-655.6z"/>
    <path class="st1"
        d="M133.2 682.6l2-1.5m5.4-19.7l-1.2-2.5m1109.9 365.2l7 2m-1102.3-650.5l-50.5 49.2m6.2 289.8l7.3 1.9m20.7-59.3l1.2.8.5.9m-6.2 23.7l-.4.2-1.8.5-1.3-.5-1.1-1.4-.6-2.3-.2-2.9.2-3.4.8-3.4.9-3.6 1.6-3 1.5-2.7 1.7-2 1.7-.9h1.5m-6.1 12l1.6-4 1.9-3.2 2-1.9 1.9-.4 1.4 1.6.7 2.6v3.8l-.9 4.4m0 0l-1.3 4-1.9 3.2-2.2 1.9-1.9.4-1.5-1.5-.5-2.7v-3.8l.7-4.4m1107 60.4l1.7.8 1.9.9 1.5 1.4 1.6 1.5 1.1 1.7 1 1.9.6 2 .1 1.9m40.8-61.2l1.9.7 1.7 1 1.8 1.3 1.5 1.5 1.1 1.7.9 2 .5 1.9.2 1.7m-59.9 44.4l.4.1.3.3.7.3.1.4.4.4.2.4.2.5v.4m-1129.8-316.3l1127.5 306.4m-1127.5-299.3l1127.5 306.4m-1077-362.6l1127.3 306.4M214.6 420l-1 1.3v1.6l1 1.3 1.9 1.1 2.5 1 2.6.4 2.9-.2 2.6-.5 2.1-1.2 1.3-1.3.6-1.3-.6-1.6-1.3-1.3-2.3-1-2.7-.6-2.8-.2-2.7.5-2.5.8-1.6 1.2zm955.4 259.5l-.9 1.6v1.5l.9 1.3 1.9 1.1 2.5.7 2.7.4 2.8-.1 2.7-.6 2.1-.9 1.3-1.4.6-1.5-.6-1.3-1.3-1.4-2.3-.9-2.6-.8h-3l-2.6.4-2.5.8-1.7 1.1zm-618.1-167.9l-1.2 1.8-.2 1.7.8 1.7 1.7 1.6 2.5 1.2 3 .8 3.5.4 3.4-.1 3.2-.7 2.9-1.1 1.8-1.4 1.2-1.6.2-2-.8-1.7-1.7-1.5-2.4-1.1-3.1-1-3.5-.2h-3.4l-3.2.8-2.7 1-2 1.4zm274.8 74.8l-1.2 1.6-.3 1.8.8 1.6 1.8 1.6 2.4 1.4 3.1.7 3.4.4 3.5-.2 3.2-.6 2.7-1.1 2-1.6 1.2-1.5.2-1.9-.8-1.7-1.7-1.6-2.5-1-3-1-3.4-.4-3.5.2-3.2.6-2.7 1.2-2 1.5zm421.4 419.1l.2 5.1.8 4.6 1.1 4 1.5 3.1 1.9 2.2 2.4 1.4 2.4.4m-10.3-284.6v263.8m50.4-313.2v229m-57.6-181.8v263.9m-68.8-318.1l2.1-.8 2.6-.4 3 .1 2.6.6.9.5m66 338.8l-.6-.1-2.3-1.4-1.9-2.3-1.5-3.2-1.2-3.8-.7-4.6-.2-5.3m-413.8-410.8l1.6-.7 2.7-1.2 3.2-.5 3.5-.3 3.4.4 3 .8 2.5 1.1.4.4m-294.8-74.5l1.3-.9 2.7-1.1 3.2-.6 3.4-.2 3.5.4 3.1.7 2.4 1.4.6.3m-356.2-92.6l.9-.2 2.6-.8h2.8l2.9.3 2.1.7m-126.4 4.4l.3-1.7.5-1.5.8-1.4 1.3-1.1 1.4-.7 1.7-.5h1.7l1.9.2m-2.3 8.8v-.9l.4-.4.2-.2.3-.2.4-.2h.6l.4.2m42.9-54.7l.7-.5 1.5-.8 1.5-.4 1.9-.2 2 .4m-52.8 321.6v-263.7m-7.3 261.8v-263.9m7.3 265.8l.2 5.4.6 4.5 1.1 4 1.5 3 2.1 2.4 2.1 1.2 2.7.5m0 0s40 2 40-48.7v-224.8m-49.4 271.4l-.3-.2-2.3-1.3-1.9-2.4-1.5-3.2-1.2-3.8-.7-4.5-.3-5.4m1146.6 47.9l50.4-49.4m-59.9 37.3l50.3-49.1m-40.8 61.2l-7.2-2.2m-2.3-2.8v-7.1m-1127.5-306.4v7.1m0-7.1l50.5-49.1m1079.3 629.3l7.2 2.1m-1139.3-573.5l-7.3-2.1m7.3 2.1l1.7-1.9m-9 263.7l7.3 1.9m1164.2 294.4l2-1.5m5.4-19.7l-1.2-2.5m-1.7-1.7l1.1.7.6 1m-6.2 23.7l-.4.1-1.8.6-1.3-.6-1.2-1.2-.5-2.3-.3-3 .3-3.4.8-3.4.9-3.7 1.5-3 1.6-2.7 1.6-1.8 1.7-1h1.6m-6.1 12l1.6-3.9 1.9-3.3 2-2 1.9-.3 1.4 1.5.7 2.7v3.8l-1 4.4m0 0l-1.3 4-1.9 3.2-2.1 1.9-1.9.4-1.5-1.6-.6-2.6v-3.8l.8-4.4m-13 49.4s40 2 40-48.7v-56.5"/>
    <path class="st2" d="M100 1027.8l15.6-15.6"/>
    <path class="st0" d="M100 1027.8"/>
</svg>
