<svg xmlns="http://www.w3.org/2000/svg" xmlns:xlink="http://www.w3.org/1999/xlink"
    viewBox="0 0 1200 1200" enable-background="new 0 0 1200 1200">
    <style type="text/css">.st0{fill:none;} .st1{fill:none;stroke:#000000;stroke-linecap:round;stroke-width:4;} .st2{clip-path:url(#SVGID_2_);} .st3{fill:none;stroke:#FFFFFF;stroke-miterlimit:10;}</style>
    <path class="st0" d="M1200 65.1h-1200v1069.8h1200v-1069.8z"/>
    <path class="st1"
        d="M216.8 986.3c-40.6-2.3-42.5-59.3-42.5-89.6 0-80.7 23.2-167 63-236.9 15.2-26.7 45.1-75.7 81.9-59M310.4 1013.5l-25.4 31.8c-28.8 35.3-58.3 81.2-107.9 85.2-28.8-5.6-61.3-7.8-85.7-24.9-17.3-12-26.3-33.3-32.1-52.8-14.4-49.6-13-103.9-8.4-154.9 11.5-126.6 49.1-259.2 116-368 21.1-34.1 47.7-64.3 72.9-95.5l207.7-257.2c26.4-33 58-84.2 100.4-102.7 12.7-5.5 24.1-6.4 37.1-3l63.7 17.2 10.7 5.5c17.3 12.2 26.3 33.6 32.2 53.1 10 35.3 11.7 72.9 10.7 109.6M648.7 88.6l-11.7-2.4c-57.4 4.5-94.5 68.8-126.3 107.9l-207.6 257.2c-25.3 31.3-51.6 61.4-72.7 95.7-33 53.3-56.9 112.3-75.8 171.7-23.1 73.3-38.8 149.9-42.5 226.5l-.8 28.9c0 50.7 2.3 127.3 54 153.9M512.4 620.3c-40.6-2.3-42.5-59.1-42.5-89.6 0-80.7 23.2-167 63-236.9 15.3-26.6 45-75.7 81.9-58.9M597.7 645.4l-14.4 24.9M1145.4 376.2l-530.6-141.3"/>
    <path class="st1"
        d="M802.5 620.3c-1.6 16-9.4 22.7-25.6 24.1-8.5-.8-16.2-2.3-24.1-6.3-8.1-4-15.7-9.6-21.1-17-15.9-20-6.9-49.4 20.7-51 18-1 34.6 11 43 26.1 4.8 7.8 6.4 15.2 7.1 24.1zM512.4 620.3l-5.1.4 467 125.9c11 3 62.1 26.7 86.8 15.8 67-29.3 98.2-94 117.3-160.4 10.4-35.6 17.2-72.7 17.2-110 0-37-11.5-61.9-28.2-94.9-7.4-14-15.5-20.8-31.2-21.4-30.6 8.6-49.4 37-64.7 63.3-36.2 64.2-57.5 140.8-62.1 214.4-2.1 34.3-5.4 94.2 32.7 111.5M1105.6 733.4c-12 6.3-6 4.3-18.2 6.6-31.2-6.4-32.5-48.7-32.5-74.3 0-65.4 18.8-135.1 50.5-192.5l9.6-16.2c10-15.2 33.1-47.6 56.1-37.7 6.9 3.3 8.5 7 13 13M478.9 138.3c-14.9 2.5-28.2 14.5-38.5 24.8-27.7 28.3-47.5 65.2-63.4 101.1M334.8 316.7c16.9-46.7 37.5-97 73.4-132.8l11.2-10 45.2-30.1M596.2 673.9l-276.9-73.1M19.9 948.7l18.7 38.6M216.8 986.3l-5.1.6 213.6 57.4c10.8 3 61.8 26.7 86.7 15.9 66.9-29.3 98-94 117.3-160.5 10.3-35.5 17-72.7 17-110 0-36.7-11.4-62-28.3-94.7-7.1-14-15.2-20.7-31.1-21.6-30.6 8.6-49.4 37-64.5 63.3-36.5 64.3-57.5 141-62.1 214.5-2.1 34.3-5.5 94.1 32.5 111.4M635.3 730.3c-6.6-9-10-12.3-21.3-14.7-27.9 5.3-45 32.3-57.6 55.6-31.8 57.2-50.4 127-50.4 192.4l.6 18.4c1.6 17.9 6.4 55.9 31.7 55.9 8 0 11.4-3 18.3-6.6M184.4 504.1c-15.7 2.5-28.9 14.2-39.7 24.9-20 20.5-35.6 45.7-48.9 71.3-46.2 88.7-74.3 194-74.3 294.2 0 34.3 1.3 82.4 28.7 107.8M32.6 973.9c-10-19.9-16.7-28.9-21.7-48-8.8-34.3-7.3-71.3-3.4-106.3 5.9-53.4 19.2-106.3 38.6-156.2 15.7-40 35.5-82.3 66.2-113.3l11.4-10.1 45.4-30.3"/>
    <defs>
        <path id="SVGID_1_" d="M0 1134.9z"/>
    </defs>
    <clipPath id="SVGID_2_">
        <use xlink:href="#SVGID_1_" overflow="visible"/>
    </clipPath>
    <path class="st3" d="M0 1134.9l44.2-44.2"/>
    <path class="st0" d="M0 1134.9z"/>
</svg>
