<?xml version="1.0" encoding="utf-8"?>
<!-- Generator: Adobe Illustrator 21.1.0, SVG Export Plug-In . SVG Version: 6.00 Build 0)  -->
<svg version="1.1" id="Ebene_1" xmlns="http://www.w3.org/2000/svg" xmlns:xlink="http://www.w3.org/1999/xlink" x="0px" y="0px"
	 viewBox="0 0 1400 1400" style="enable-background:new 0 0 1400 1400;" xml:space="preserve">
<style type="text/css">
	.st0{fill:none;}
	.st1{fill:none;stroke:#000000;stroke-linecap:round;stroke-width:2.5;}
	.st2{fill:none;stroke:#FFFFFF;stroke-miterlimit:10;}
</style>
<path class="st0" d="M1300,371.4H100v657.2h1200V371.4L1300,371.4z"/>
<path class="st1" d="M215.1,571.5l-0.3,0.1 M212.6,576.6c-0.1,1.1,0.1,1.8,0.6,1.9c0.7,0.2,1.6-1.2,2.2-3.2c0.5-2,0.4-3.6-0.3-3.9
	 M214.8,571.5c-0.6,0.2-1.4,1.6-1.9,3.2c-0.1,0.5-0.2,0.8-0.2,1.3 M1189.1,631.3c0.8,2.3,2.4,4.3,4.4,5.9c4,3.2,9,3.8,12.1,1.7
	 M1204.6,640.6c1-1.2,1.4-2.7,1.4-4.3 M1186.1,631c0,3.3,1.9,6.6,4.8,9c4.8,3.8,10.8,4.1,13.7,0.6 M1247,646.9
	c0.8,2.3,2.4,4.3,4.3,5.9c4,3.2,9,3.8,12.1,1.7 M1262.6,656.2c1-1.2,1.4-2.7,1.4-4.3 M1244.1,646.6c0,3.3,1.9,6.6,4.8,9
	c4.8,3.8,10.9,4.1,13.7,0.6 M1193.9,835.1h-0.3 M1191.5,840.2c-0.1,1.1,0.2,1.8,0.6,2c0.7,0.2,1.7-1.3,2.2-3.2
	c0.5-2,0.4-3.7-0.3-3.9 M1193.6,835.1c-0.6,0.3-1.4,1.6-1.9,3.2c-0.1,0.4-0.2,0.8-0.3,1.3 M410.6,421.8c0.8,2.3,2.4,4.4,4.4,5.9
	c4,3.1,9,3.7,12.1,1.7 M426.1,431c1-1.2,1.5-2.7,1.5-4.2 M407.7,421.4c0,3.2,1.9,6.6,4.8,9c4.7,3.8,10.8,4.1,13.6,0.6 M352.7,406.2
	c0.8,2.2,2.4,4.3,4.4,5.9c4,3.2,9,3.8,12.1,1.7 M368.2,415.4c1-1.2,1.4-2.7,1.4-4.2 M349.7,405.8c0,3.2,1.9,6.6,4.8,9
	c4.7,3.8,10.8,4.1,13.6,0.6"/>
<path class="st1" d="M1231.5,692.9c2.1-2.6,1-7-2.6-9.9s-8.1-3.1-10.2-0.4c-2.1,2.6-1,7,2.6,9.9
	C1224.8,695.3,1229.4,695.5,1231.5,692.9z M1220,681.7c-0.6,2.7,0.9,5.7,3.5,7.9c2.9,2.3,6.3,2.9,8.8,1.7"/>
<path class="st1" d="M1131.7,691c2.8-3.4,1.3-9.4-3.4-13.2s-10.8-4.1-13.6-0.6s-1.3,9.4,3.4,13.2
	C1122.8,694.3,1128.9,694.6,1131.7,691z M1116.1,676c-1.4,3.6,0.4,8.4,4.3,11.6c4,3.3,9.1,3.9,12.3,1.8"/>
<path class="st1" d="M908.5,605.9c2.1-2.6,0.9-7.1-2.6-9.9c-3.5-2.9-8.1-3-10.2-0.4c-2.1,2.6-1,7,2.5,9.9
	C901.8,608.4,906.4,608.5,908.5,605.9z M897.1,594.7c-0.5,2.7,0.9,5.7,3.5,7.9c2.9,2.3,6.4,2.9,8.8,1.6"/>
<path class="st1" d="M815.8,582.3c2.9-3.6,1.3-9.8-3.6-13.8s-11.3-4.2-14.1-0.6c-3,3.6-1.4,9.8,3.6,13.8
	C806.5,585.7,812.8,585.9,815.8,582.3z M799.3,566.7c-1.5,3.8,0.4,8.8,4.5,12.1c4.1,3.3,9.2,4.1,12.6,2"/>
<path class="st1" d="M718,554.6c2.1-2.6,1-7.1-2.6-9.9s-8.1-3-10.2-0.4c-2.1,2.6-1,7.1,2.6,9.9S715.9,557.3,718,554.6z M706.6,543.5
	c-0.6,2.7,0.9,5.7,3.5,7.8c2.8,2.3,6.4,2.9,8.7,1.7"/>
<path class="st1" d="M499,473c2.8-3.5,1.3-9.4-3.4-13.2c-4.7-3.8-10.8-4.1-13.6-0.6c-2.8,3.5-1.3,9.4,3.4,13.2
	C490.1,476.2,496.2,476.5,499,473z M483.3,457.9c-1.4,3.6,0.5,8.4,4.4,11.6c4,3.2,9.1,3.9,12.2,1.8"/>
<path class="st1" d="M426.1,523.5c2.9-3.5,1.3-9.4-3.4-13.2c-4.7-3.8-10.8-4.1-13.6-0.6c-2.8,3.4-1.3,9.4,3.4,13.2
	C417.2,526.7,423.3,527,426.1,523.5z M410.5,508.5c-1.5,3.6,0.5,8.4,4.3,11.6c4.1,3.3,9.1,3.9,12.3,1.8"/>
<path class="st1" d="M395,467.7c2.1-2.6,1-7-2.5-9.9c-3.6-2.8-8.1-3.1-10.2-0.5s-1,7.1,2.6,9.9C388.4,470.1,393,470.3,395,467.7z
	 M383.6,456.5c-0.6,2.7,0.9,5.8,3.5,7.9c2.8,2.3,6.4,2.9,8.7,1.7"/>
<path class="st1" d="M368.2,507.9c2.8-3.5,1.3-9.4-3.4-13.2c-4.7-3.8-10.8-4.1-13.6-0.6s-1.3,9.4,3.4,13.2
	C359.3,511.1,365.4,511.4,368.2,507.9z M352.5,492.8c-1.5,3.6,0.5,8.4,4.3,11.5c4,3.3,9.1,4,12.2,1.9 M1172.4,909.5
	c1.4-1.6,2.7-4.4,3.5-7.4c1.2-4.3,1.2-8.3,0.1-9.9 M1116,904c-6.9-0.7-15.3,5-23,14.4 M1158.7,902.1c-15.6-4.1-36,18-53.1,54.6
	 M1160.1,902.5c-0.5-0.2-1-0.3-1.4-0.4 M1168.9,883.9c-8.8-2.3-18.9,2.5-29,12.7 M1181,893.5c-3.5-5.3-7.7-8.5-12.1-9.6 M1174,911.6
	c0.3,0.4,0.6,0.6,0.9,0.7c1.9,0.5,4.5-3.4,6-8.8c1.1-4.3,1.2-8.3,0.1-9.9 M1163.6,903.4c-15.6-4.2-36,18-53.1,54.6 M1174,911.6
	c-3-4.6-6.6-7.3-10.3-8.2 M1107.5,946.4c-0.7,1.4-1.2,2.9-1.6,4.3c-1.4,5.3-1.1,10.1,0.7,10.6c1.2,0.3,2.6-1,3.8-3.3 M1123.1,905.8
	c-7.7-2.1-16.9,3.6-25.9,14.8 M1129.1,909.3c-1.9-1.9-4-3.1-5.9-3.6 M1097.2,904.2c-1.4,1.7-2.6,4.4-3.4,7.3
	c-1.5,5.4-1.1,10.1,0.7,10.6c0.8,0.2,1.7-0.3,2.7-1.5 M1128.3,886.4c-9.2-2.5-20.3,4.4-31.1,17.8 M1139.8,896.6
	c-3.2-5.9-7.3-9.3-11.6-10.3 M1094.2,1005.3c1.1-2.5,1.8-5.2,2.1-7.8"/>
<path class="st1" d="M1099.8,992.2c-1.9-0.5-4.5,3.4-5.9,8.8c-1.5,5.4-1.2,10.1,0.7,10.6s4.5-3.5,6-8.8
	C1102,997.5,1101.7,992.7,1099.8,992.2z M1204.6,733.1c2.8-3.5,1.3-9.4-3.5-13.2c-4.7-3.8-10.8-4.1-13.6-0.6
	c-2.8,3.5-1.3,9.4,3.4,13.2C1195.7,736.3,1201.8,736.6,1204.6,733.1z M1188.9,718.1c-1.4,3.6,0.5,8.4,4.4,11.5
	c4,3.3,9.1,3.9,12.2,1.8 M1100.3,884.7c-8.5,10.6-15.4,32.5-15.4,49 M1086.6,1022.9c1.2,3,2.9,4.5,4.8,4.6 M1299,637.5
	c-0.2-1.3-1.6-2.4-3.7-3 M1091.5,1027.6c2.7,0.3,5.8-1.9,8.8-5.6 M1080,1013.4c0.3,4.6,1.3,8,2.6,10.1 M1095.3,883.4
	c-8.5,10.6-15.5,32.5-15.5,48.9 M115.4,741.7c1.1-2.5,1.8-5.2,2.1-7.8"/>
<path class="st1" d="M121,728.7c-1.8-0.5-4.5,3.4-5.9,8.8c-1.5,5.3-1.1,10.1,0.7,10.6c1.8,0.5,4.5-3.4,5.9-8.8
	C123.1,733.9,122.8,729.2,121,728.7z M106.1,751.2c0.3,4.6,1.3,8,2.6,10 M121.5,621.2c-8.6,10.5-15.5,32.5-15.5,48.9 M323,372.8
	c-3.2-0.8-7-0.1-8.5,1.8 M116.5,619.8c-8.6,10.6-15.5,32.5-15.5,49 M102,755.7c0.9,3.6,2.4,5.8,4.2,6.6 M112.7,764
	c2.1,0.2,4.6-1.1,6.9-3.5 M137.1,640.5c-6.9-0.6-15.3,4.9-23,14.4 M144.3,642.2c-7.7-2.1-16.9,3.6-25.9,14.8 M150.2,645.7
	c-1.9-1.9-4-3.1-5.9-3.5 M118.3,640.7c-1.3,1.7-2.5,4.4-3.3,7.3c-1.5,5.3-1.1,10.1,0.7,10.6c0.8,0.2,1.7-0.3,2.6-1.5 M149.4,622.8
	c-9.3-2.4-20.3,4.5-31.1,17.9 M161,633c-3.3-5.8-7.3-9.2-11.5-10.3 M184.7,639.8c-15.6-4.1-35.9,18-53.1,54.7 M186.2,640.3l-1.5-0.5
	 M128.7,682.9c-0.7,1.4-1.2,2.9-1.6,4.3c-1.4,5.4-1.1,10.1,0.7,10.6c1.1,0.3,2.5-1,3.8-3.3 M179.7,638.5c-15.6-4.1-35.9,18-53,54.7
	 M181.2,638.9l-1.5-0.5 M195.1,648c0.3,0.4,0.6,0.6,0.9,0.7c1.8,0.5,4.5-3.4,5.9-8.8c1.2-4.4,1.2-8.3,0.1-9.9 M190,620.4
	c-8.8-2.3-19,2.5-29,12.7 M202,630c-3.5-5.3-7.7-8.5-12-9.6 M193.5,646c1.4-1.7,2.7-4.5,3.4-7.5c1.2-4.3,1.2-8.3,0.1-9.9
	 M1186.1,631l0.1-0.4 M1206,636.3v-0.4 M1186.5,630.6l-0.4,0.4 M1244.1,646.6l0.1-0.4 M1264,651.9l-0.1-0.4 M1244.4,646.2l-0.3,0.4
	 M1193,841.6l-1.5-0.5 M1191.5,839.5v0.7 M408,421.1l-0.3,0.3 M427.6,426.8l-0.1-0.5 M407.7,421v0.4 M350,405.4l-0.3,0.4
	 M369.6,411.1v-0.4 M349.8,405.4l-0.1,0.4 M1220.2,681.3l-0.2,0.4 M897.1,594.7l0.1-0.3 M816.7,580.6l-0.3,0.2 M706.6,543.5l0.1-0.4
	 M480.6,463.4l2.3-2.9 M383.7,456.2l-0.1,0.3 M212.6,576v0.6 M1105.5,956.7l-0.4,0.8 M1165,903.8l-4.9-1.3 M323,375.4v-2.6
	 M320.7,375.7l-6.1-1.2 M320.4,375.6l-5.8-1.1 M319.5,375.9l-4.9-1.4 M319.5,375.9v1.2 M1206.2,746L320.8,507.7 M1205.3,747.1
	L320.4,508.9 M319.5,509.9V397.2 M1193.5,761.8l-882-237.4 M311.5,519.9l884.9,238.3 M1279.3,655.6L309.2,394.4 M1293.2,637.5
	l5.5,1.3 M1298.4,639.4v137.3 M320.4,376.1l972.2,261.8 M1292.6,639.1v-1.2 M1293.4,638.1l5,1.3 M1293.5,637.9l-198.2,245.5
	 M1292.9,637.4l5.8,1.4 M309.2,390l972.2,261.7 M116.5,619.8l198.1-245.3 M112.7,764l-6.5-1.7 M126.7,693.1l-0.5,0.8 M1176,892.2
	l-3-3.9l-3.3-2.9l-3.3-1.8 M1116,904c2.7,0.6,5.2,1.3,7.8,2 M1139.8,896.6l-4.9-1.3l-2.4-3.7l-1.4-1.5c-1.6-1.7-3.3-3.2-5.5-4.1
	 M1129.1,909.3c-3.1,4.3-6.1,8.7-8.9,13.2c-4.6,7.7-8.7,15.7-12.6,23.8 M1094.2,1005.3c-0.8,1.7-0.4,0.9-1.3,2.4 M1096.4,994.8
	c0,1.8,0.1,0.9-0.1,2.7 M323,372.8l-2.7,3.4 M320.6,397.5v3.6l0.1,103.3v3.6l-0.3,0.8l-2.3,2.9l-4.3,5.3l-2.3,2.9v4.5 M309.2,394.4
	v-4.5l2.3-2.8l6.9-8.6l2.3-2.9c1.2-1.4,3.9,0.1,4.9,0.4L1290,635.6l3.6,0.9 M1100.3,884.7l2.3-2.8l193.5-239.6
	c1.1-1.4,2.4-2.4,2.9-4.1 M1086.6,1022.9c-0.8-2.3-1-2.5-1.4-5.1c-0.5-3.4-0.4-6.8-0.4-10.3v-73.9 M1100.3,1022l2.3-2.9l193.5-239.6
	c0.1-0.1,2.8-2.9,2.9-4.1V637.5 M1082.6,1023.5c0.8,0.9,1.3,1.9,2.5,2.3l6.4,1.7 M1079.8,932.3v74l0.2,7.1 M1292.9,637.4
	c0.5,0.1,0.6,0.2,0.6,0.6 M1281.4,652.9c0-2.4-0.3-0.9,2.3-4.1l6.6-8.2c1.4-1.8,1.8-2.4,3.1-3.6 M1295.3,634.5l-2.4,2.9v1.3
	 M115.4,741.7c-0.8,1.7-0.4,0.9-1.3,2.5 M117.6,731.2c0,1.8,0,0.8-0.1,2.7 M108.7,761.3c0.9,1.1,1.2,1.7,2.4,2.3l1.5,0.4 M106,670.1
	v74l0.1,7.1 M320.7,375.7l-0.3-0.1c-1.6,0-1.9,1.6-3.1,3L123.6,618.3l-2.3,2.8 M102,755.7c-0.6-2.7-0.7-3-0.9-5.9l-0.1-7.1v-73.9
	 M311.5,523.1l-2.3,2.8L123.7,755.6l-2.2,2.8l-1.9,2.2 M137.1,640.5c2.7,0.6,5.3,1.2,7.9,2 M161,633l-4.9-1.3l-2.4-3.7l-1.3-1.4
	c-1.6-1.7-3.3-3.2-5.5-4.2 M150.2,645.7c-3.1,4.4-6.1,8.7-8.8,13.3c-4.7,7.7-8.7,15.8-12.7,23.8 M195.1,648l-2.7-3.4l-2.9-2.6
	l-1.7-0.8l-1.6-0.9l-5-1.4 M187.6,620l3.2,1.8l3.3,3l3,3.8"/>
<path class="st2" d="M100,1028.6l10.3-10.3"/>
<path class="st0" d="M100,1028.6"/>
</svg>
