<svg xmlns="http://www.w3.org/2000/svg" xmlns:xlink="http://www.w3.org/1999/xlink"
    viewBox="0 0 1200 1200" enable-background="new 0 0 1200 1200">
    <style type="text/css">.st0{fill:none;} .st1{fill:none;stroke:#000000;stroke-linecap:round;stroke-width:3;} .st2{clip-path:url(#SVGID_2_);} .st3{fill:none;stroke:#FFFFFF;stroke-miterlimit:10;}</style>
    <path class="st0" d="M1104.9 0h-1009.8v1200h1009.7l.1-1200z"/>
    <path class="st1"
        d="M665.1 1138.7l-3-.5c-1.3 0-2.6 0-3.8.5-3.7 1.5-3.3 5.6-1.3 8.4 2.3 3.5 6.4 6.1 10.5 7.1 3.8 1 10.5.5 9.7-5.1-.2-.9-.5-1.6-.9-2.4-2.3-4.1-6.8-6.6-11.2-8zM676.2 1152c-7.4-1.6-14.5-5.6-19.8-11M378 949.9l.5-.9M495.3 1053.2l7.3-13.2M476.3 1055.3l7.6-13.6M493.1 978.5l-7.2 13M463.5 971.8l.5-.7M412.1 994.9l-21.2 38.5M379.7 1023.5l17.8-32.3M583.6 754.2l-61.6 111.7M583.6 814.4l-32.5 59.1M592.8 876.7l-3.7 6.5M594.7 877.1l-3.7 6.7M542.1 625.8l-118.7 214.9M555.1 629.2l-118.6 214.9M543.6 756.4l-13.9 25.4M528.2 754.3l-13.6 24.7M426.2 969.2l-3.1 6M411.8 965.5l-3.3 5.9M372.7 957.3c-4.2 7.7-2.7 2.8-.8 15.4l6.2 39.9 1.7 11c.8 5.1 6.6 8.6 11.2 9.8l10.6 2.7 64.1 16.5 10.6 2.8c2.3.5 5.1.8 7.3-.5 4.2-2.9.3-13.5 0-15l-6.1-40-1.7-10.9c-.9-5.1-6.6-8.6-11.2-9.8l-10.6-2.7-64.2-16.6c-4.4-1-8.8-2.7-13.5-3.1-3.4.1-6.3 1.2-6.1 5.1M503.1 1043l-4.1 7.5c-2.8 5.1-4.5 10.8-10.4 12.5-1.7.4-2.3.3-4.1.5-6.1-.2-11.6-2.2-17.6-3.7l-64.1-16.5-10.6-2.7-2.5-.8c-7.4-2.6-15.3-7.9-18.7-15.2-1.9-4.2-2.3-10.9-2.8-14.5l-6.2-40c-.2-1.8-3.1-11.8-1.1-15.7l4.8-8.6M360.7 954.4c3.5-6.2 11.3-6.1 17.3-4.5l10.7 2.7 64.2 16.6 10.6 2.7 2.4.8c7.6 2.6 15.4 7.9 18.9 15.4 1.9 4.2 2.2 10.8 2.8 14.5l6.1 40c.8 5 2.8 10.6 1.2 15.7"/>
    <path class="st1"
        d="M505.9 765.2c.1 1.9-.1 2.4.5 4.2 1.7 6.2 7.6 10.1 13.6 11.7 9.6 2.3 20.9-.2 27.9-7.4 1.6-1.7 2.9-3.7 3.7-5.9 3.3-8.6-2.7-16.4-10.6-19.3-3.4-1.3-7-1.6-10.7-1.6-9.3.8-19.8 4.7-23.3 14.1-.8 1.9-.8 2.3-1.1 4.2zM507.2 771.5c.9-6.2 5.4-11 10.8-13.8 11-5.9 27.9-5.1 34.3 6.9M747.5 923.9l-628.4-161.5M758.1 1192.3l-628.4-161.6M97.5 820.2l628.3 161.5M103.9 790l628.4 161.5M759.4 1146.8l23.2 6M350.7 1030.8l-14.3-92.5M336.4 938.3l168.6 43.2M519 1074.1l-14-92.6M350.7 1030.8l168.3 43.3M505.3 1057.2l-8.7-2.3M782.6 1152.8l1.7 10.9-5.4 9.6-4.5 8.2-5.3 9.6c-1.6 2.9-3.8 6.6-7.2 6.9l-.9-.2-10.6-2.7-607.1-156.1c-6-1.6-11.6-.6-13.2-6.6l-.3-1.7-1.6-10.8-29-188.8c-.9-5.6-2.2-11.2-1.9-17 .4-7.6 2.4-15.2 5.6-22l1-2 5.3-9.7 4.5-8.2 5.3-9.7M782.6 1152.8l-5.4 9.5-4.5 8.3-5.3 9.7c-.5.7-.9 1.6-1.9 1.7-.6-.3-.8-.8-.9-1.4l-1.7-10.9-28.9-188.8-1.6-10.9-.1-.7c-.3-5.9 4.5-12.1 6.9-16.5l4.5-8.3 5.4-9.5-1.7-10.9M760.9 1197.8c-1.9-1.3-2.4-3.4-2.8-5.5l-1.7-10.9-28.9-188.8c-.9-5.8-2.2-11.3-1.9-17.1.4-7.6 2.4-15.2 5.6-22l1.1-2 5.2-9.6 4.5-8.3 5.4-9.6"/>
    <path class="st1"
        d="M142.4 932c0-1.5-.1-1.9.3-3.3 1.7-5.8 8.7-7.1 13.9-6.7 10 .9 20.4 6.9 26 15.3 2.9 4.2 4.5 10.6-.1 14.5-.8.8-1.9 1.3-3 1.8-2 .8-3.9.9-6 1-8.8-.3-17.1-3.9-23.5-9.8-3.9-3.4-6.8-7.5-7.6-12.8zM184.9 942.2c-1.6.5-3.3.6-4.9.7-8.8-.3-17.1-3.9-23.6-9.8-3.1-2.9-5.8-6.3-7-10.4"/>
    <path class="st1"
        d="M178.2 862.5c.6-4 4.6-4.8 8.1-4.2 4.7.7 9.4 3.5 12 7.4 1.9 2.8 2.4 6.9-1.3 8.4-1.3.5-2.5.6-3.8.6-6.3-.7-14.6-4.9-15-12.2zM179.1 860.9c5.4 5.4 12.5 9.3 19.8 11"/>
    <path class="st1"
        d="M203.2 1026c.5 7.3 9.7 12.6 16.5 12 .8-.1 1.6-.2 2.3-.6 5.2-2.2 2.2-7.9-.6-10.6-1.2-1.2-2.4-2.2-3.9-2.9-2.4-1.3-4.9-2.2-7.6-2.4-3.3 0-6.1.9-6.7 4.5zM204.2 1024.3c5.4 5.4 13 9.3 20.4 11"/>
    <path class="st1"
        d="M250.4 958.6c.1-1.7 0-2.2.6-3.8 2.4-6.9 10.9-8.1 17.2-7.4 11.9 1 24.3 8 31.2 17.8 3.5 5.1 6.2 12.9 1.4 18.1-.9 1-1.9 1.7-3.1 2.4-3 1.5-6.1 1.9-9.4 2-11.3-.6-22.3-5.6-30.3-13.7-4.1-4.2-7.1-9.3-7.6-15.4zM257 948.8c3 13.4 16.8 22.7 29.3 25.9 5.6 1.4 11.7 1.9 17-.3M519 1074.1c-2-.6-2.6-.7-4.5-1.7-1.4-.6-2.6-1.5-3.7-2.5-5.8-4.9-5.5-12.6-6.5-19.5l-9.4-61-1.7-10.8M372.5 1027.5c-4.5 2.6-9.1 3.8-14.2 4.2-2.6-.1-4.9-.3-7.6-.9"/>
    <path class="st1"
        d="M552 1036.1c1 12.5 12.9 21.5 23.5 26 1.9.7 4 1.4 6 1.9 4.4 1.2 9.1 1.7 13.6.7 1.5-.3 3-.8 4.2-1.5 1.2-.6 2.3-1.4 3.2-2.4 6.3-7 .1-17.1-5.2-22.4l-2.2-2.2c-3.2-2.7-6.7-5.1-10.5-7-5.6-2.8-11.3-4.2-17.5-4.5-5.7.2-12.2 1.7-14.4 7.6-.6 1.6-.5 2.2-.7 3.8zM558.7 1026.3c3 13.4 16.8 22.7 29.4 25.9 5.5 1.5 11.6 2 16.9-.3"/>
    <path class="st1"
        d="M640.2 974.9l-3-.5c-1.3.1-2.5.1-3.8.6-3.7 1.6-3.3 5.6-1.3 8.5 2.4 3.4 6.4 5.9 10.5 7 3.8 1 10.5.5 9.7-5-.2-.8-.5-1.6-.9-2.3-2.1-4.4-6.7-7-11.2-8.3zM651.5 988.1c-7.4-1.6-14.5-5.6-19.8-10.9"/>
    <path class="st1"
        d="M670.3 1067.7c0-1.4-.1-1.9.2-3.3 1.7-5.9 8.7-7.1 14-6.7 9.9.9 20.5 6.8 25.9 15.2 2.9 4.4 4.5 10.8 0 14.7-.9.7-1.9 1.3-3 1.7-2 .8-4 .9-6.1 1-8.7-.3-17-3.9-23.5-9.8-3.8-3.3-6.7-7.6-7.5-12.8zM712.7 1077.9c-1.6.6-3.3.6-5 .8-8.7-.3-17.1-4-23.5-10-3.1-2.9-5.8-6.2-7-10.3M479.4 1012.2c-6.5-1.6-4.3-11.2-2.4-15.6M382.8 987.4l35.7 9.1M388 966.1l10.6 2.7 14 3.5 10.6 2.8.8.2c2 1.3 2.5 5.1 2.3 7.4-.3 5.2-2.3 12-7.9 13.7-2.2-.5-2.2-3.3-2.2-5.1.1-4.3 1.2-8.8 3.3-12.6.8-1.5 1.7-3 3.6-3.6M425.9 978.5c-.8-.8-.3-.6-1.3-.6-3.8 1.9-5 8.3-5.2 12.2-.1 1.7-.1 5.8 2.6 4.4M656.3 803.8l-.8-2.8M600 832l26.4 6.7M629.6 856.4v-.2M626.4 872.4c1.3-3.9 2.4-7.8 2.8-11.9.6-6.4.5-12.8 1.7-19.2 1.1-5.4 2.4-10.7 4.3-16l3.1-8.1c1.4-4.7 2.1-9.3 2.7-14.1M600 865.7c-1.3-4.7-2.6-9.5-2.8-14.3-.6-12.9 2.3-26.1 7.1-38.1 1.8-4.2 3.7-8.4 6.5-12.1.8-1.3 3-5.1 5.3-6 2.2-.9 4.8-1 7.2-1.1l5.8.1 10.6 2.7 5.2 1.4 10.6 2.7M614.5 796.2c8.7 2.2 17.7 5 26.5 6.9 3.3.7 7-.2 10.2-.2h1.5l9.8 2.6c1.8.4 3.3 1.1 4.7 2.3 5.2 4.6 5.2 13.6 4.8 19.8-.7 12.1-4 24.9-9.9 35.6-3.3 5.9-7.8 11.3-14.9 11.9l-1.2-.2-5.4-1.3-5.4-1.3-1.3-.6c-2.9-1.7-3.7-6-4.1-9.1-.5-3.4-.2-6.9-.6-10.4-.4-4.6-1.5-9.1-2.8-13.5M655.5 801c-1.7 1.6-3.7 1.3-5.8 2.2-2 .8-3.6 2.4-5 4.1-4.7 5.5-6.8 12.3-10.1 18.7-2.2 4.7-5.2 8.7-8.2 12.7M662.5 805.4c-5.6.4-9.2 6.4-11.8 10.8-6.6 11.8-10.2 25.8-10.9 39l-.1 3.7c0 5.2.1 14.2 6.3 15.9M666.7 847c-1.5 4.7-3.3 9.4-5.9 13.4-1.7 2.8-3.7 5.5-7.1 6.2-4.8-.9-4.8-7.7-4.8-11.5v-3.1c.7-10.2 3.5-21 9-29.6.9-1.3 1.9-2.8 3.1-3.9l1.4-1.3 1.5-.8c4.7-1.7 5.8 5.4 6 8.4l.2 2.9c0 4-.6 8-1.3 12M600 865.7l10.6 2.8 5.2 1.3 10.6 2.7c2.8.6 6.5.1 9.3-.1M614.5 796.2c-4.9 6.7-9.3 13.6-11.8 21.6-1.5 4.7-1.8 9.4-2.7 14.2l-2.2 7.9c-1 5.7-.8 11.2 0 16.8M442.9 748.9l-10-2.6-1.9-.1c-6.7.3-11.2 7.7-14 13-5.6 10.5-8.9 23-9.5 35-.3 5.5-.1 11.6 2.5 16.8 2.8 5.5 10.3 5.8 15.4 7.1l9.1 2.4M414.9 815.5c-4.7-3.3-4.9-10.2-4.9-15.5 0-13.4 3.5-27.5 9.4-39.5 2.6-5.4 6.6-13.6 13.4-14.1M660.4 819l3.8.9c1.7.6 3.4 5.1 3.7 5.8 1.3 2.8 1.4 5.9 1.2 9.1-.3 5.2-1.6 10.5-3.6 15.4-.9 2-1.8 4.1-3.1 5.9-2 3-5.4 5.8-8.9 6.4l-.9-.2-3.1-.8M664.3 820l-1.1-.2c-3.5.8-5.7 4.4-7.3 7.4-3.7 6.9-5.8 15-6.3 22.9-.2 3.9-.6 9.7 3 12.2M660.2 858.7c-1.3 1-.6.7-2 1-3.6-.2-3.7-5.2-3.7-8 0-7.4 2-15.5 5.8-22 1.5-2.6 4.8-7.4 7.8-3.9M620.9 577.4c-1.2 5.6-5.1 9.1-9.7 12.1M570.6 594c11.6 2.6 23.7 2.6 34.9-1.7M544.3 574.6l8.5 6.9 6.7 5.6 8.4 7.1 10.4-.6 10.3-.6 4.1-.3M584.3 593.2c8.3-.2 16.6-.7 24.8-1.1M619.3 579c-2 3-1.5 1.3-1.5 4.9M621.1 535.8c.7.7 5.4 5.8 5.4 6.2v28.5l-6.8 8.6-3.7 4.5-6.9 8.6M621.1 540.7c.8 4.9-2.9 8.7-5.5 12.4l-4.3 6.7-2.2 3.8v28.5M567.9 565.8c5.2-1.4 10.2-2.7 15.5-3.3 8.5-.9 16.4-1.2 24.2-4.7 3-1.4 5.8-3.1 8.2-5.4l4.2-4.7c1.9-2.2 4.1-4 6.5-5.8M609.1 563.6c-5.2-.8-10.2-1.3-15.5-1.6l-9.3.2c-7.9-.5-15.7-1.6-22.6-5.3-3.1-1.6-5.6-3.8-8.6-5.8-2.8-2-5.8-3.5-8.8-4.9M567.9 594.2v-28.4l-5.9-6.9c-4.2-4.5-10.3-8-12-14.4-.5-2.2-.3-2.6-.2-4.7M549.7 537.3l-1.1 1.5-2.2 3.5-2.1 3.9v28.4M550.6 579.8c2.6 6.7 9.1 10.2 15.4 12.7M577.7 663.3l-1.6-1.1M601.1 510.8v-11.6M583.7 512.5v-17.9M568.1 500.9l1.7 11M601.1 499.2l1.7 11M607.4 642.6v7.7l-.2 2c-1.5 7.3-11.2 10.2-17.6 10.9l-3.5.2c-5.4-.1-10.8-.8-15.7-3.4-2.8-1.5-5.6-3.8-6.7-6.8l-.3-2v-20M570.5 660c9 5.2 20 5.9 29.1.4M559.3 493.6c-2.8 2-2.2 1.4-4.5 3.8-6.6 6.5-5.1 15.4-5.1 23.8v10.3c0 5.1-1 11.1 1.4 15.9 3.1 5.9 9.4 9.5 15.5 11.7 11.7 4.1 25.3 4.2 36.9.2 2.4-.8 4.7-1.9 6.9-3 1.9-1.2 3.7-2.4 5.4-4 1.9-1.9 3.9-4.2 4.7-6.9 1.5-4.5.6-12.3.6-16.1v-21.3l-.2-1.6c-2.5-12.7-17.3-18.1-28.6-19.4-3.5-.5-4.4-.3-8-.4-7.7.4-14.6 1.7-21.6 4.9"/>
    <path class="st1"
        d="M554.8 509.5c3.5 6.9 10.1 10.6 17.3 12.5 11.9 3.1 27 2.4 37.4-4.9 1.6-1.1 3.1-2.4 4.3-4 1.1-1.3 2-2.9 2.5-4.4 2.7-9.1-6.8-15.8-14.1-18.4-5-1.9-10.2-2.6-15.5-2.8-3.5 0-4.6-.1-8.1.3l-4 .7c-8 1.7-19.8 6.6-20.5 16.3-.2 2.1.2 2.7.7 4.7zM601.1 499.2l-17.4-4.6-15.6 6.3M621.1 508.2c0 2.2.1 2.8-.6 4.9-3.3 9.9-15.7 14.3-24.8 15.9-3.7.7-4.7.6-8.6.9-3.7 0-4.7 0-8.6-.3-11.6-1.3-26.4-6.3-28.9-19.3M569.8 511.9l17.3 4.7 15.7-6.4M579.1 514.4c7.2-2.9 3-2.3 12.7.3M532.7 557.6l-4.2-1.1M516.6 571.9l11.9-15.4M659.1 590.1l-14.3 18.6M659.1 590.1v8.9M659.1 590.1l-10-2.5M623.9 630.3l-10.5 13.8M512.7 618.2l100.7 25.9M613.4 626.1v18M512.7 600.3l100.7 25.8M512.7 618.2v-17.9M699.9 750.4l-41.4 53.9M507.7 590l42-54.4M518.9 562.2l4.3 1.1M502.6 599l-4.9 6.4M487.6 602.8l10.1 2.6M628.4 639l10 2.5M618.4 618.4l31.3-40.7M669.7 600.9l-10-2.6M590.3 482.8l-2.9 3.9M699.9 561.7c-48.3 62.8-88.4 114.7-88.4 114.7-3.7 4.8-7.7 9.3-10.4 14.7-4 8-6.3 16.8-7.2 25.5-.5 5.4-.3 11-.3 16.4v132.8l.2 2.4.2 2.2c.4 3 1.7 8.8 6 7.3.9-.2 1.7-.8 2.4-1.3 1-.8 1.7-1.7 2.5-2.7l4.4-5.8M597.9 878l-10.1-2.6c-3.5-.9-4-6.7-4.1-9.7l-.2-2.4v-132.8c0-5.4-.2-11 .3-16.4.9-9.5 3.6-19.4 8.4-27.8 2.5-4.4 6.2-8.6 9.2-12.5l20.1-26.1 6.7-8.7-.1-1.3c-.2-1.3-.8-2.7-1.5-3.9-4.1-6.7-12.3-7.3-19.1-9l-89.3-22.9c-4.3-1.1-8.9-2.9-13.6-3.1-2.9.2-5.6 1.3-6.8 4.3l-.3 2.4-6.7 8.7-20.1 26.1c-3 3.9-6.7 8-9.2 12.5-4.8 8.4-7.5 18.3-8.4 27.8-.5 5.4-.2 11-.2 16.4v90.4M521.2 572.6c-3.3-.6-1.7-.4-4.9-.8-1.9.1-2.6 0-4.5.5-7.4 1.6-10.8 8.5-15.1 14l-6.7 8.8-1 1.7c-.5 1.3-.9 2.6-1.1 3.9l-.2 2.1-6.7 8.7-20.1 26.1c-3 3.9-6.7 8.1-9.1 12.5-4.8 8.4-7.4 18.3-8.5 27.8-.5 5.5-.2 11.1-.2 16.4v111.2M511 572.5l7.9-10.3.2-2.2c.3-2 1-4 2.2-5.6 9.3-12.5 19-24.6 28.5-36.9M521.2 554.4c1.2-1.3 1.3-1.8 2.8-2.9 4.4-3.3 9.9-3.2 15-2.1M638.4 641.5c-.7-10.2-8-18.8-17.6-22.3l-2.4-.8-10.7-2.7-89.3-23c-5.4-1.3-10.1-3-15.5-3.4-5.4.1-9.5 1.5-13 5.8M631.8 601c10.5 3.3 19.3 11.6 20 23.2M659.1 595.3c1.8 4.8-1.4 5.6-5.1 10.5l-5.7 7.4M637.1 603.1l12.6-16.3v-9.1l6.7-8.7s15.4-20 44.6-57.7M669.7 600.9c-.8-11.5-9.5-19.8-20-23.2M649.7 586.8c1.5.4 3 1 4.2 1.9M572.3 488.2l6.4-8.4"/>
    <path class="st1"
        d="M1031 766.1c-5.4 12.3 8.3 25.8 20.4 25 1.3 0 2.6-.2 3.9-.8 7.8-2.9 8-12 4.4-18.3-1.5-2.7-3.8-5.2-6.4-7-3.9-2.9-8.1-4.2-12.9-4.3-4.1.6-7 1.9-9.4 5.4zM1061.9 781.8c-2.4.7-1.1.5-3.7.7-11-.2-22.3-9.3-21.5-21.1"/>
    <path class="st1"
        d="M1033 181.8c-5.5 12.2 8.3 25.7 20.4 25.1 1.4-.2 2.6-.4 3.9-.9 7.9-2.9 8-12 4.4-18.3-1.6-2.8-3.8-5.2-6.4-7-3.9-2.9-8.1-4.2-12.9-4.2-4.2.4-7.1 1.8-9.4 5.3zM746.4 340.9l-1.7-10.9M744.7 341.6v-11.6M711.7 331.6l1.7 10.9M727.3 343.2v-18"/>
    <path class="st1"
        d="M693.2 371.6v-32.4l.3-2.1c1.5-8.3 9.5-14.1 17.1-16.6 11.9-4 24-4 36-.3 4.1 1.3 8.6 3.5 11.8 6.7 1.5 1.4 2.9 2.8 3.9 4.6 3.4 6.3 2.4 12.7 2.4 20v21.299999999999997c-.2 6.8-6.4 11.9-11.9 14.7-7.1 3.7-14.9 4.9-22.8 5.2-3.7 0-4.7 0-8.3-.3-7.4-.9-14.8-3.1-20.8-7.4-3-2.2-5.8-5.1-7-8.6-.7-2-.5-2.6-.7-4.8zM693.2 339.2c.2 2.2 0 2.7.8 4.8 2.5 6.8 9.8 11 16.2 13.3 12.4 4.5 27.2 4.3 39.3-.6 7.5-3 14-8 15.3-16.2"/>
    <path class="st1"
        d="M751.5 323.6c-7.6-4-15.4-5.4-24-5.5-4.8.3-9.7.9-14.4 2.5-7.5 2.5-17.7 9.1-15.1 18.6.5 1.5 1.3 3 2.2 4.2 1 1.3 2.3 2.6 3.7 3.7 8.4 6.3 20.2 7.9 30.3 7 7.6-.8 15.8-3.1 21.4-8.3 4.8-4.6 6.3-11.2 2.2-16.8-1.7-2.3-3.9-3.8-6.3-5.4zM743.3 319.2l-1.1.6M711.7 331.6l15.6-6.4 17.4 4.8M746.4 340.9l-15.7 6.4-17.3-4.8M735.4 345.4l-8.1-2.2-4.6 2M830.7 639.3v13.4M793.4 541l91.2 24.6M830.7 396.7v13.5M884.6 572.6l-6.9 8.6-40.1 49.6-6.9 8.6c-.9.9-11.8 5.2-13 5.6-13.1 4.8-26.8 7.9-40.7 9.5M765.7 668.9c17.7-1.3 35.2-4.4 51.9-10.6 1.2-.4 12.1-4.7 13-5.6l6.9-8.6 40.1-49.5 6.9-8.7M884.6 330l-6.9 8.5-40.1 49.6-6.9 8.6-6.3 3c-4.5 1.9-9 3.5-13.6 5.1-20.4 6.4-41.3 8.6-62.5 8.6-23.3-.9-46.4-4.5-68.1-13.7-11.8-5.1-23.1-11.8-32.2-20.8-7.4-7.3-13.4-16.2-15.7-26.5-.2-.9-1.5-8.4-.9-9.3l6.9-8.6 40-49.6 6.9-8.5M884.6 343.4l-6.9 8.6-40.1 49.6-6.9 8.6-6.3 2.9c-4.5 1.9-9 3.5-13.6 5-20.4 6.5-41.3 8.6-62.5 8.6-29.9-1.1-60.5-6.7-86-23-12.3-8-23.9-19-28.7-33.3-3-8.8-2.3-18.2-2.3-27.4M588.9 24.1v441.7M600.6 17.3l-11.7 6.8M654 48.2l-11.7 6.8M642.3 54.9v274.3M884.6 330l-199.4-53.7M884.6 330v22.4M878.6 350.8l6 1.6M884.6 563.6l-91.2-24.6M884.6 563.6v22.4M642.3 396.4v-10.4M497.2 584.6v-529.5c0-8.2-.6-16.5 2.5-24.3 1.8-4.5 4.7-8 7.7-11.8 3-3.7 5.7-7.4 9.6-10.2 9.1-6.7 21-7.9 31.8-6.1l5.2 1.2 10.6 2.9 19 5.1c4.5 1.2 10.4 2.4 15 4.4l1.9 1 9.5 5.5 34.4 19.8 9.5 5.5 1.5.6 10.6 2.9 251.3 67.6 10.7 2.9 1.9.3 11 .6 53.2 2.7c5.1.2 10.8.2 16 1.2l2.4.5 10.6 2.9 18.9 5c7.1 1.9 14.2 3.5 21 6.7 16.7 7.6 31.2 22.3 37 40 2.7 8.4 2.4 16.7 2.4 25.6v562c0 6.6.6 13.6-1 20.1-1.5 6.3-5.1 11-9.1 16-1.4 1.7-4.4 5.6-6.3 7.4-6.9 6.7-15.7 8.9-24.9 9.7-4.7-.2-5.6 0-10.2-.8l-5.2-1.2-10.6-2.9-18.9-5.1-10.6-2.9-1-.3-.9-.1-11-.5-53.3-2.7c-5.1-.3-10.8-.2-16-1.2l-2.4-.5-10.6-2.9-194.1-52.3-10.6-2.9M928.1 122.2l-7 8.7v673.9M930 122.5c-2 13.1-1.5 6.3-1.5 20.5v662.8M1089.1 810.1c2-3.2 2.7-3.9 4.2-7.4 3-7.8 2.4-16.1 2.4-24.2v-562.1c0-8.8.3-17.1-2.4-25.5-5.9-17.7-20.3-32.4-37.1-40.1-6.7-3.1-14-4.7-21-6.6l-18.9-5.2-10.6-2.9-1-.2-.9-.1-11-.5-53.3-2.7c-5.1-.2-10.8-.2-16-1.2l-2.4-.5-10.6-2.9-251.3-67.7-10.5-2.8-2.3-.7c-4.8-1.7-9.6-5-13.6-7.3l-34.4-19.8-9.5-5.5-1.6-.6-10.6-2.9-18.9-5.1-10.6-2.9-5.2-1.2c-4.5-.8-5.6-.6-10.1-.8-7.9.6-15.2 2.1-21.6 6.8-3.1 2.3-3.5 3.1-6.2 5.9M594.2 14.8l-6.9 8.6v444.3M655.5 48.9l-6.9 8.6v264M1012.7 127.4l-7 8.6v674.1M1005.2 126.3c-1.9 13.1-1.4 6.3-1.4 20.5v662.9M1061.9 197.7c-2.4.7-1.1.4-3.7.7-10.9-.2-20.5-10-21.5-21.1M800 478c4.7.1 9.8-1 14.3-2.7 2.7-1 5.2-2.4 7.6-4.1 2.4-1.7 4.4-3.7 6.2-5.9 12-15.5 6.2-37.4-4.5-51.9M802.1 469.2c10.6.3 20.4-1.3 28.7-8.2"/>
    <path class="st1"
        d="M548.1 43.3c-2.3-.6-4.1-.9-6.5-.9-2 .2-3.9.5-5.6 1.6-5.6 3.2-6.2 10.1-3.8 15.4 2.9 6.6 9.1 11.7 16.1 13.1 7.3 1.5 15.1-2.3 15.1-10.5 0-1.4-.3-2.8-.7-4.1-2.1-7.2-7.9-12-14.6-14.6zM563.2 63.4c-2.4.6-1.1.3-3.7.7-11-.2-22.5-9.3-21.4-21.1M838.1 570.5l-133.3 172.8M817.8 574.2l-19.4-4.9M838.1 566l-10.1-2.6M654.8 398.2l-68.8 89.3M838.1 566c0 4.1.2 8.6-2.4 12.3l-6.7 8.7s-135.2 171.5-159.3 202.9M838.1 566c-6.5 7.7-13.2 15.3-23.4 17.1-2.6-.1-3.3.1-5.6-.9-8.7-3.7-11.9-14.9-13.6-23.2l-.9-5.6-.7-6-.4-6.5c-.9-23.7 2.8-47.6 8.4-70.5 4.8-19.2 11-38.3 19.6-56.2M809.8 418.4l-6.7 8.8s-78.1 102.2-133.3 173.7M673.6 545.7c41-53.2 85.4-110.6 85.4-110.6l6.7-8.7M805.8 580.3c9.5-1.6 16.3-9.8 22.2-16.9M646.6 390.9c-25.5 33.2-51.5 66-77.2 99M550.9 514.1l.2-.2M388.9 966.3c-1-1-.4-.7-1.7-.9-5.1 2.7-6.7 11.2-7 16.3-.2 2.4-.1 7.9 3.5 6"/>
    <defs>
        <path id="SVGID_1_" d="M95.1 1200z"/>
    </defs>
    <clipPath id="SVGID_2_">
        <use xlink:href="#SVGID_1_" overflow="visible"/>
    </clipPath>
    <path class="st3" d="M95.1 1200l20.6-20.5"/>
    <path class="st0" d="M95.1 1200z"/>
</svg>
