<svg xmlns="http://www.w3.org/2000/svg" xmlns:xlink="http://www.w3.org/1999/xlink"
    viewBox="0 0 1200 1200" enable-background="new 0 0 1200 1200">
    <style type="text/css">.st0{fill:none;} .st1{fill:none;stroke:#000000;stroke-linecap:round;stroke-linejoin:round;stroke-width:2;} .st2{clip-path:url(#SVGID_2_);} .st3{fill:none;stroke:#FFFFFF;stroke-miterlimit:10;}</style>
    <path class="st0" d="M1040.1 0h-880.2v1200h880.2v-1200z"/>
    <path class="st1"
        d="M1025.9 1117l4.1 1.2M1038.7 222.8l-4.1-1.1M974.8 356l-808.6-217.6M975.4 355.2l-.6.8M220.2 5.9l-2-.6M167.8 74l-4.1-1.1M161.4 75.7l4.2 1.1M168.2 77.5v-2.9M975.4 1183.9l4.1 1.1M974.8 294.7l-808.6-217.7M167.8 73.8l2.8-3.4M168.2 74.6l806.9 217.2M977.7 292.1l4.1 1M979.5 295.9l-4.1-1.1M974.8 294.7l1.8-2.4M161.4 964.7l4.2 1.2M1008.5 342.6l4.1 1.1M246 49.6v3.3M514.6 121.9v3.3M591.4 146.3v-3.7M673 164.6v3.3M941.6 240.1v-3.2M194.7 765.7l1.8.5M211.9 897.9l4.2 1.1M198.5 850.7l-4.2-1.2M1008.7 984.9l1.8.5M1012.5 1069.8l-4.1-1.1M1027.6 1109.2c.2 3.7-1.4 7.3-2.9 10.6l-1.1 2.4-1.3 2.8c-3.3 7.2-7.1 14.2-11.5 20.7-2.4 3.7-5.2 7.1-7.9 10.6M989.8 1155.8c.4-.5.6-.7 1.1-1.1 1.1-.6 2.5-.5 3.6-.9l3-1.4 1.7-1.1c3-2.1 5.8-4.7 8.2-7.4l3.4-4.2M1031.7 1110.4c0 2.3-.5 4.4-1.2 6.5l-.5 1.3-1.2 2.8-1.1 2.4-1.2 2.8c-3.4 7.1-7.1 14.1-11.4 20.6-1.3 1.9-2.6 3.8-4 5.6"/>
    <path class="st1"
        d="M1038.7 222.8v886c0 3.4-.1 6.7-.5 10.1-.8 7-2.6 14.1-5.3 20.6-1.4 3.7-3.1 7.4-5.4 10.8-1.4 2-2 2.7-3.6 4.7l-29.6 36.6c-1.9 2.4-3.9 5.3-6.8 6.5l-1.5.5-1.4-.1c-2.3-.5-3.4-3.1-4-5.2-1.1-3.6-1-7.6-1-11.3v-883c0-4.1-.6-2.3 2-5.4l55.3-68.5c-.1 0-.1 0 1.8-2.3zM974.8 356v-58.4c0-2.4-.1-4.6.6-7 .7-2.2 1.9-3.7 3.5-5.5l50.7-62.9 1.9-2.3.5-.5c.4-.4 1.1-.5 1.4.1l.2.5c.1.5.1.6.2 1M1036.4 225.6c-.1-.7-.1-1-.3-1.7-.7-1.5-1.9-2.9-3.5-3.5l-1-.3-3-.8-802.6-216.1-2.9-.8-1-.2c-1.4 0-2.8.3-3.5 1.7l-.2.7-.2.8-1.9 2.4-53 65.6c-2.5 3.1-1.9 1.4-1.9 5.4v882.9c0 3.8-.1 7.7 1 11.4.5 1.7 1.3 3.5 2.8 4.6.8.6 2.5.9 3.3 1.1l2.1.6c1.7.3 3.1-.3 4.5-1.3 2.1-1.4 3.6-3.6 5.3-5.6l29.5-36.6c1.6-1.9 2.3-2.6 3.6-4.7 2.3-3.3 4-7 5.4-10.7 2.7-6.6 4.5-13.6 5.3-20.7.4-3.4.5-6.6.5-10.1v-735.5M196.8 920.6c2.3-3.3 4.6-6.6 6.6-10 3.1-5.1 5.7-10.6 8.1-16l1.2-2.8c.5-1.3 1.2-2.6 2.2-3.6l.5-.4c1.2-.6 1.8.4 2.1 1.4.2.8.2 1.2.2 2M170.6 979.3l-1.2-.6c-1.5-1-2.3-2.9-2.8-4.6-1.1-3.7-1-7.6-1-11.3v-886.1l2.6-3.2M170.9 70.5l-2.4 3.1-.3.7v.2l-1.9 2.4v61.4M168.5 69.9l1.9-2.4 50.7-62.8 1.9-2.4.5-.5c1.1-.9 2.6.2 3.7.5l802.6 216 2.9.8M167.8 74l.7-.5 2.9.8 801 215.6 3 .8M977.7 292.1l-2.3 2.7v886.1c0 3.8-.1 7.7 1 11.3.5 1.7 1.3 3.6 2.8 4.6.9.6 2.5 1 3.4 1.2l2.1.5M977.7 292.1c-.1-.5-.3-.7-.7-.8M976.6 293.3v-1l.1-.2.2-.7v-3.7M168.5 69.9l2.9.8 802.6 216.1 2.9.8 1 .3c1.6.7 2.9 2 3.5 3.6.3.7.3 1 .4 1.7M1010.8 1139.7c2.3-3.3 4.6-6.5 6.6-10 3-5.1 5.6-10.5 8.1-15.9l1.2-2.7c.6-1.3 1.2-2.6 2.3-3.6l.6-.4c1.1-.7 1.7.4 1.9 1.4.2.7.2 1.2.2 1.9M1011.1 1152.4c-1.1 1.4-2.9 3.6-4 4.9-2.9 3.4-6.1 6.4-9.8 8.9l-1.9 1.3-3.6 1.7-3.6.8-.5-.1-.7-.7c-.4-.8-.5-1.8-.5-2.7 0-3.7 1.2-7.6 3.4-10.6M1002.9 1156.2l-4 4.2c-1.8 1.7-3.7 3.2-5.8 4.7-2 1.3-4.2 2.6-6.6 3.2"/>
    <path class="st1"
        d="M1005.6 352.4v1.2c.1.9.5 2.8 1.8 2.6l.5-.2.6-.4.6-.7.6-.8c1.9-2.9 2.9-6.8 2.9-10.3 0-1 0-2-.4-2.8l-.8-.8-.5-.1c-1.5.5-2.3 1.9-3 3.2-1.5 2.8-2.2 6-2.3 9.1zM1005.6 352.9c1.8-3.2 3-7.1 2.9-10.8M1012.5 1069.8c0-1.3 0-2.9-1.3-3.6-1.1.1-1.8.8-2.3 1.7-1.3 1.9-2 4-2.6 6.2M1006.6 1081.5l.5.2c.7.1 1.2-.5 1.7-.9M1011.6 1075.3c-.6 1.7-1.2 3.2-2.2 4.7M1010.5 985.4c0-.6 0-1.2-.5-1.6-.7 0-1 .5-1.3 1-.6 1.1-.9 2.3-1.1 3.4M258.2 53.1c-1.7-1.6-3.8-2-6.1-2.1-2.2.1-4.3.5-5.8 2.1"/>
    <path class="st1"
        d="M245.4 51l.2-.7c.5-1.2 1.7-1.9 2.9-2.3 2.8-1.1 6.5-1 9 .8l.7.6.5.7c1.1 2.1-1 3.8-2.8 4.4-1.2.5-2.3.6-3.5.7h-1.3l-1.2-.2c-1.8-.3-4.1-1.2-4.5-3.2.1-.1.1-.1 0-.8zM526.9 125.4c-1.8-1.6-3.8-1.9-6.2-2.1-2.2.2-4.3.5-5.9 2.2"/>
    <path class="st1"
        d="M514 123.3l.2-.7c.5-1.2 1.7-1.9 2.9-2.3 2.8-1 6.5-1 9 .8l.7.6.5.7c1.2 2.2-1 3.8-2.8 4.5-1.2.5-2.3.6-3.6.7h-1.2l-1.2-.2c-1.7-.3-4.1-1.3-4.5-3.2v-.9zM608.9 146.8c-2-3.1-6.3-3.6-9.7-3.6-2.9.3-6.4 1-8.1 3.6"/>
    <path class="st1"
        d="M596 149.9c-1.2-.3-1.6-.5-2.6-1-1.9-1.1-3.6-3.1-2.5-5.3l.5-.9c.5-.6 1.3-1.2 1.9-1.6 2.7-1.5 6-1.9 9.1-1.4l1.5.4c2.4.6 6 2.4 5.5 5.4l-.2 1c-.3.7-.8 1.2-1.4 1.7-2.4 2-5.7 2.3-8.6 2.3-2.1-.3-1.1-.1-3.2-.6zM685.2 168.1c-1.8-1.6-3.8-2-6.2-2.1-2.1.1-4.2.5-5.8 2.1"/>
    <path class="st1"
        d="M672.4 166l.1-.7c.5-1.2 1.7-1.9 2.9-2.3 2.8-1.1 6.6-1 9 .8l.7.7.5.7c1.2 2.1-1 3.8-2.8 4.5-1.1.4-2.3.5-3.5.6l-1.3-.1-1.2-.1c-1.7-.4-4.1-1.3-4.5-3.3.1-.1.1-.1.1-.8zM197.1 933.3l-4 4.9c-2.9 3.4-6.2 6.4-9.8 8.8l-1.9 1.3-3.7 1.7-3.6.9-.5-.1-.7-.8c-.4-.8-.5-1.8-.5-2.7 0-3.7 1.2-7.7 3.4-10.7M189 937l-4 4.2c-1.8 1.7-3.8 3.3-5.8 4.7-2 1.3-4.2 2.6-6.5 3.2M198.5 850.7c-.1-1.3 0-2.9-1.3-3.5-1.1 0-1.7.7-2.4 1.7-1.3 1.8-2 4-2.6 6.2M192.6 862.3l.5.2c.7.1 1.2-.5 1.7-.8M197.6 856.2c-.6 1.7-1.2 3.2-2.2 4.7M196.5 766.2c0-.6 0-1.2-.5-1.5-.6 0-.9.5-1.2 1-.6 1-.9 2.2-1.1 3.4"/>
    <path class="st1"
        d="M941.8 240.4c-.5-.5-.6-.7-.8-1.4-.4-1.9 1.6-3.2 3.1-3.8 2.5-1 5.7-1 8.2.3.6.2 1.1.6 1.6 1.1l.5.7c1.2 2.1-1.1 3.8-2.8 4.5-1.2.4-2.3.5-3.6.6-2.3 0-4.4-.5-6.2-2zM941.8 240.4c1.2-1.2 2.9-1.8 4.6-2 2.6-.3 5.4.2 7.4 2M196.5 766.2c0 1.4-.3 2.9-1.1 4.1-.3.5-.6 1-1.2 1-.7-.5-.5-1.5-.5-2.3M196.8 920.6l-3.4 4.1c-2.4 2.9-5.1 5.4-8.2 7.4l-1.6 1.1-3.1 1.4c-1.1.4-2.5.4-3.5 1-.5.2-.7.5-1.2 1M189 937c2.8-3.4 5.5-6.9 7.9-10.5 4.3-6.6 8.1-13.6 11.4-20.7l1.2-2.8 1.1-2.4c1.4-3.3 3.1-6.9 2.9-10.6M197.1 933.3c1.3-1.9 2.7-3.8 4-5.6 4.3-6.6 8-13.6 11.4-20.7l1.2-2.8 1.1-2.4 1.3-2.8.5-1.2c.7-2.2 1.1-4.3 1.2-6.5M192.6 862.3c-1.5-2-.8-5.1-.4-7.4M194.3 849.5c.1 1.4-.2 2.9-.5 4.2-.4 1.9-1.1 3.8-2.1 5.5M198.5 850.7c-.1 1.9-.4 3.7-.9 5.5M1007.7 988.2v.7c0 .6.2 2.1 1.2 1.3l.2-.3.4-.5c.7-1.2 1-2.7 1.1-4.1M1006.2 1074.1c-.4 2.4-1.1 5.4.4 7.4M1008.4 1068.6c0 .8-.1 1.9-.2 2.7-.4 2.3-1.1 4.8-2.4 6.9M1012.5 1069.8c-.1 1.9-.4 3.6-.9 5.5"/>
    <defs>
        <path id="SVGID_1_" d="M159.9 1200z"/>
    </defs>
    <clipPath id="SVGID_2_">
        <use xlink:href="#SVGID_1_" overflow="visible"/>
    </clipPath>
    <path class="st3" d="M159.9 1200l14.6-14.6"/>
    <path class="st0" d="M159.9 1200z"/>
</svg>
