<?xml version="1.0" encoding="utf-8"?>
<!-- Generator: Adobe Illustrator 21.1.0, SVG Export Plug-In . SVG Version: 6.00 Build 0)  -->
<svg version="1.1" id="Ebene_1" xmlns="http://www.w3.org/2000/svg" xmlns:xlink="http://www.w3.org/1999/xlink" x="0px" y="0px"
	 viewBox="0 0 1400 1400" style="enable-background:new 0 0 1400 1400;" xml:space="preserve">
<style type="text/css">
	.st0{fill:none;}
	.st1{fill:none;stroke:#000000;stroke-linecap:round;stroke-linejoin:round;stroke-width:3;}
	.st2{fill:none;stroke:#FFFFFF;stroke-miterlimit:10;}
</style>
<path class="st0" d="M1300,312.9H100v774.3h1200V312.9L1300,312.9z"/>
<path class="st1" d="M1224.3,739.8L108,439.3 M175.8,317.2V314 M1288.8,618.6L172.5,318.1 M1225.1,738.8l-0.8,1 M1225.1,705.1
	l6.3,1.7 M1288.8,618.6l3.3-4.1 M1299.2,622.8l-67.8,84 M1224.7,704.4l-0.4,0.5 M108,404.4l1116.3,300.5 M100.9,402.4l6.3,1.7
	 M1227.6,694.4L111.3,393.8 M1254.8,979.2l6.3,1.7 M130.6,676.5l6.3,1.7"/>
<path class="st1" d="M783.1,530.3c0,0.7-0.1,1,0.3,1.6c0.6,1.2,1.9,2,3.1,2.5c3.1,1.3,7.1,1.2,10-0.5c0.6-0.3,1.2-0.8,1.6-1.3
	l0.5-0.8c1-2.3-1.3-4.1-3.1-4.9c-1.3-0.5-2.5-0.7-3.8-0.8c-2.1,0-4.3,0.2-6.2,1.3c-0.9,0.5-1.7,1.2-2.1,2.1L783.1,530.3L783.1,530.3
	z M797,533.5c-2-1.4-4.3-1.6-6.7-1.7c-2,0.2-3.8,0.6-5.4,1.7"/>
<path class="st1" d="M1182.7,608.2c3.6,1.4,7.6,1.8,11.3,0.7c1.8-0.5,3.6-1.4,4.7-2.8c1.5-1.8,1.1-4.2-0.6-5.7
	c-2.3-2.2-5.6-2.7-8.7-2.8c-3.1,0.1-6.4,0.5-8.8,2.6c-1.5,1.2-2.3,3-1.6,4.8c0.3,0.7,0.8,1.4,1.3,1.9
	C1181.3,607.5,1181.8,607.6,1182.7,608.2L1182.7,608.2z M1180.1,606.3c3.2-3.2,8.6-3.7,12.8-2.8c2,0.4,4.1,1.3,5.5,2.8
	 M1235.5,621.2c3.3-3.2,8.6-3.8,12.9-2.8c2,0.4,4.1,1.3,5.5,2.8"/>
<path class="st1" d="M1255.1,619c0-0.9,0.1-1.2-0.3-2.1c-0.4-1.1-1.3-2-2.3-2.6c-2.3-1.5-5-1.9-7.7-2.1c-1.7,0-3.3,0.2-4.9,0.7
	c-2.5,0.8-6.1,2.6-5.7,5.8l0.3,1c0.3,0.7,0.8,1.3,1.3,1.8c1,1,2.4,1.6,3.7,2.1c3.1,1,6.7,1,9.9,0.1c2.1-0.6,4.4-1.8,5.4-3.8
	C1254.8,620,1254.8,620,1255.1,619L1255.1,619z M1133.2,660.5l0.3,1c0.8,2,3.1,3.2,5,3.9c3.2,1,6.7,1,9.9,0.1c1.4-0.4,2.8-1,3.9-1.9
	c0.6-0.5,1.1-1.1,1.5-1.9l0.3-1c0.5-3.1-2.8-5.1-5.3-5.9c-1.6-0.5-3.3-0.7-5-0.8l-1.7,0.1l-1.7,0.2l-1.6,0.4
	c-2.3,0.7-5.2,2.1-5.6,4.7L1133.2,660.5L1133.2,660.5z M1134.4,662.9c3.2-3.2,8.6-3.8,12.9-2.8c2,0.4,4.1,1.3,5.5,2.8"/>
<path class="st1" d="M1188.5,675.4l0.3,1c0.8,2,3.1,3.2,5,3.8c3.2,1,6.7,1.1,9.9,0.1c1.4-0.4,2.7-1,3.8-1.9c0.6-0.5,1.2-1.1,1.5-1.9
	l0.3-1c0.5-3.1-2.8-5.1-5.2-5.9c-1.7-0.6-3.3-0.7-5-0.8l-1.7,0.1l-1.7,0.2l-1.6,0.4c-2.3,0.7-5.2,2.1-5.7,4.7
	C1188.5,674.3,1188.5,674.3,1188.5,675.4L1188.5,675.4z M1189.8,677.8c3.2-3.2,8.6-3.7,12.8-2.8c2,0.4,4.2,1.3,5.6,2.8"/>
<path class="st1" d="M1099.1,599.1l0.3,1c0.8,2,3.1,3.2,5,3.9c3.1,1,6.7,1.1,9.9,0.1c1.4-0.4,2.7-1,3.8-2c0.6-0.5,1.1-1.1,1.5-1.8
	l0.3-1c0.5-3.1-2.8-5.1-5.3-5.9c-1.6-0.5-3.2-0.7-4.9-0.8h-1.7l-1.7,0.2l-1.5,0.4c-2.3,0.7-5.2,2.1-5.7,4.8L1099.1,599.1
	L1099.1,599.1z M1100.3,601.5c3.2-3.2,8.6-3.7,12.8-2.8c2,0.5,4.1,1.3,5.5,2.8"/>
<path class="st1" d="M145.3,392.4c-0.3,0.9-0.5,1.1-0.3,2c0.3,2.6,3.1,4.1,5.3,4.9c4,1.3,9,1.1,12.7-1.1c0.7-0.4,1.5-1,2-1.6
	l0.6-0.9l0.3-1c0.5-3.1-2.8-5.1-5.3-5.8c-1.6-0.5-3.2-0.7-5-0.8c-3.3,0.1-7.4,0.6-9.7,3.5C145.9,391.5,145.9,391.5,145.3,392.4z
	 M146.2,396.9c3.2-3.2,8.6-3.7,12.9-2.8c2,0.4,4.1,1.2,5.5,2.8"/>
<path class="st1" d="M200.3,409.3l0.3,1c0.8,2,3,3.2,5,3.9c3.1,1,6.7,1.1,9.9,0.1c1.3-0.4,2.7-1,3.8-1.9c0.7-0.5,1.1-1.1,1.5-1.9
	l0.3-1c0.5-3.1-2.8-5-5.2-5.8c-1.6-0.5-3.3-0.7-5-0.8l-1.7,0.1l-1.7,0.2l-1.5,0.4c-2.3,0.7-5.2,2.2-5.7,4.8L200.3,409.3L200.3,409.3
	z M201.6,411.8c3.2-3.3,8.6-3.8,12.8-2.8c2,0.4,4.2,1.2,5.5,2.8 M191.9,340.3c3.2-3.2,8.6-3.7,12.8-2.8c2,0.4,4.2,1.3,5.6,2.8"/>
<path class="st1" d="M211.5,338.1c0-0.9,0.1-1.1-0.2-2c-0.4-1.1-1.4-2-2.3-2.6c-2.3-1.5-5-1.9-7.7-2.1c-1.7,0.1-3.3,0.2-4.9,0.7
	c-2.5,0.8-6.1,2.6-5.7,5.8l0.3,1c0.3,0.7,0.8,1.3,1.3,1.8c1,1,2.4,1.6,3.7,2c3.1,1,6.7,1.1,9.9,0.1c2.1-0.6,4.4-1.7,5.3-3.8
	L211.5,338.1L211.5,338.1z M247,349.8c-0.5,0.7-0.8,1-0.9,1.9c-0.5,3.1,2.8,5.1,5.3,5.9c4,1.3,9,1.1,12.7-1c0.7-0.4,1.5-1,2-1.6
	l0.6-1l0.3-1c0.5-3.1-2.8-5.1-5.3-5.9c-1.6-0.5-3.2-0.7-5-0.8c-2.7,0.1-5.4,0.4-7.7,1.8C247.9,348.7,247.8,349,247,349.8L247,349.8z
	 M247.3,355.2c3.2-3.2,8.6-3.7,12.8-2.8c2,0.4,4.2,1.3,5.5,2.8"/>
<path class="st1" d="M601.3,481.3c0,0.7-0.1,0.9,0.2,1.6c0.6,1.2,1.9,2,3.1,2.5c3.1,1.3,7.1,1.2,10-0.5c0.5-0.3,1.1-0.8,1.5-1.3
	l0.5-0.7c1-2.3-1.2-4.1-3.1-4.9c-1.3-0.5-2.5-0.7-3.8-0.8c-2.2,0-4.3,0.2-6.2,1.3c-0.9,0.5-1.6,1.2-2.1,2.1
	C601.5,480.6,601.5,480.6,601.3,481.3L601.3,481.3z M615.2,484.6c-2-1.4-4.3-1.7-6.7-1.7c-2,0.2-3.8,0.5-5.4,1.7"/>
<path class="st1" d="M280.1,414.1l0.3,1c0.8,2,3.1,3.2,5,3.9c3.1,1,6.7,1,9.9,0.1c1.4-0.4,2.8-1,3.8-1.9c0.6-0.5,1.2-1.1,1.5-1.9
	l0.3-1c0.5-3.1-2.8-5.1-5.2-5.9c-1.6-0.5-3.3-0.7-5-0.8l-1.7,0.1l-1.7,0.2l-1.6,0.4c-2.3,0.7-5.2,2.1-5.7,4.8
	C280.1,413.1,280.1,413.1,280.1,414.1L280.1,414.1z M281.4,416.6c3.2-3.2,8.6-3.8,12.8-2.8c2,0.4,4.1,1.2,5.5,2.8"/>
<path class="st1" d="M689.1,506.6l0.3,1c0.9,2.1,3.2,3.3,5.2,4c3.3,1.1,7,1.1,10.3,0.2c1.4-0.5,2.8-1.1,4-2.1
	c0.7-0.6,1.2-1.1,1.5-1.9l0.4-1c0.5-3.2-3-5.3-5.5-6.2c-1.7-0.5-3.4-0.7-5.2-0.8l-1.8,0.1l-1.7,0.2l-1.6,0.4c-2.4,0.7-5.4,2.3-5.9,5
	C689.2,505.5,689.2,505.5,689.1,506.6L689.1,506.6z M690.3,509.1c3.4-3.4,9-4,13.5-3.1c2.2,0.5,4.4,1.4,5.9,3.1"/>
<path class="st1" d="M198.3,372c-0.2,0.7-0.4,0.8-0.2,1.5c0.3,1.7,1.9,2.8,3.3,3.3c3.1,1.2,7.1,1.1,10-0.5c0.5-0.3,1.1-0.8,1.6-1.3
	l0.4-0.8c1.1-2.3-1.2-4.1-3.1-4.9c-1.3-0.5-2.5-0.7-3.8-0.8C203.5,368.7,200.1,369.2,198.3,372L198.3,372z M212,376
	c-2-1.4-4.3-1.7-6.7-1.7c-2,0.2-3.8,0.5-5.4,1.7"/>
<path class="st1" d="M1186.6,638.1c-0.2,0.7-0.4,0.9-0.3,1.6c0.3,1.6,1.9,2.7,3.4,3.3c3.1,1.2,7.1,1.2,10-0.5
	c0.5-0.3,1.2-0.8,1.6-1.3l0.5-0.7c1-2.3-1.2-4.1-3.1-4.9c-1.3-0.5-2.5-0.7-3.8-0.8C1191.7,634.7,1188.3,635.2,1186.6,638.1
	L1186.6,638.1z M1200.2,642.1c-2-1.4-4.3-1.7-6.7-1.7c-2,0.2-3.8,0.6-5.4,1.7 M175.8,314l-2.2,2.7l-63.4,78.5
	c-2.9,3.6-2.2,1.5-2.2,6.2v37.8 M175,457.3v223.3c0,3.6,0,7.2-0.4,10.9c-0.6,5.4-1.8,10.9-3.3,16.1c-1.8,6.2-4.1,12.5-7.4,18
	c-1.7,2.8-3.7,5.4-5.8,8l-34,42c-1.8,2.2-3.4,4.6-5.7,6.3c-1,0.7-2.1,1.4-3.3,1.7l-1.5,0.1l-6.3-1.7l-1.4-0.4
	c-1.6-0.8-2.6-2.4-3.3-4c-1.9-4.6-1.7-9.7-1.7-14.6V406c0-2.1-0.4-4.6,1-6.4l2.2-2.7l63.4-78.5c1.7-2.1,3-4.4,5.9-4.5
	c1-0.1,1.4,0.1,2.4,0.3 M1289.9,617.2l-3.3-0.9L177.9,317.8l-3.4-0.9c-0.9,0-1.4,0.5-2,1.2 M1289.3,618l-0.5,0.6l-2.2,2.7
	l-60.2,74.4l-2.1,2.8v41.3 M1224.3,698.5c3.3,1.2,6.3,3.6,7,7.2l0.1,1.1v363.9l0.1,3.3l0.3,3l0.5,2.6c0.7,2.7,2.2,6.3,5.4,6.6
	c3.5,0.3,6.4-2.9,8.3-5.3l2.2-2.8l34-42c2.1-2.6,4-5.1,5.8-8c2.2-3.8,4-8,5.5-12.1c2.6-7.1,4.4-14.5,5.3-22.1
	c0.4-3.6,0.4-7.2,0.4-10.8V622.6l-0.1-1.2c-0.7-3.6-3.7-6-7-7.2 M1237.8,1086.3l-6.3-1.7l-1.4-0.4c-1.6-0.8-2.6-2.4-3.3-4
	c-1.9-4.6-1.7-9.8-1.7-14.7v-357c0-1.5,0.8-3.6-0.8-4.4 M113.6,783.6l-1.4-0.4c-1-0.5-1.8-1.3-2.3-2.2c-1.3-1.9-1.8-4.4-2.2-6.6
	l-0.3-3l-0.1-3.3V407.6c0-3.7-0.7-2.6,0.4-4 M108,403.6h-0.3c-0.3,0.1-0.4,0.2-0.5,0.5 M108,404.4c0.1-3.7,1.2-7.5,3.3-10.5
	 M101.8,399.5l0.7-0.7c1.6-1.3,3.6-1.2,5.4-0.8"/>
<path class="st1" d="M1283.6,1009.3c0.3-2.1,0.8-4.1,1.6-6l0.6-1.3l0.7-1.2l0.6-1c0.7-0.9,2.4-2.8,3.6-1.4c1,1.3,0.9,3.6,0.8,5.2
	c-0.2,3.4-1.3,6.9-2.9,9.9c-0.8,1.3-1.7,2.6-3.2,3c-1.8-0.5-1.9-2.8-1.9-4.3l0.1-1.4C1283.4,1010.7,1283.4,1010.7,1283.6,1009.3
	L1283.6,1009.3z M1261.1,980.9c0.5,9.3,1.2,18.7,3.5,27.7l0.8,2.8c0.3,0.8,0.8,4.7,2.7,4.2l0.6-0.3c0.9-0.6,1.5-1.5,2.1-2.4
	c0.7-1.3,1.3-2.6,1.8-4c0.9-2.8,1.5-5.8,1.3-8.7c-0.2-2.5-1.4-4.9-1.9-7.3l-1.3-6.2l-1-6.8c-1.3-12.6-0.7-25.4,0.6-38
	c1.8-18.5,5.7-36.9,11-54.6c1.5-5.2,3.2-10.4,4.9-15.5c1.6-4.5,3.7-8.9,4.6-13.5l0.2-1.5l0.2-1.4v-1.3c0-1-0.1-2.2-0.5-3.2
	c-0.1-0.4-0.4-0.8-0.8-1l-0.5-0.1c-2.4,0.5-3.7,3.7-4.5,5.8l-1.2,3.2l-1.3,3.7c-4.2,11.5-7.8,23.2-10.8,35.1
	c-3.6,14-6.4,28.4-8.3,42.8c-0.6,4.6-1.1,9.1-1.4,13.7l-0.2,3l-0.3,3.5l-1.3,3.3l-1.1,2.9c-1.6,4.2-3.2,8.5-4.6,12.9
	c-5.4,16.3-9.5,33.1-12.2,50.1c-1.7,10.5-2.8,21.3-3.1,31.9v1.8l-0.1,3.5v1.3c0.1,1,0.4,3,1.8,3c1.1,0,2-1.2,2.5-1.9
	c1.9-2.7,3-6.3,3.5-9.6c0.3-2.1,0.3-4.2,0.3-6.3c0.1-2.6,0.1-5.1,0.3-7.6c0.6-8.3,1.6-16.6,3.1-24.8c1.4-7.7,3.1-15.3,5.1-22.8
	C1257.4,992.3,1259.3,986.6,1261.1,980.9L1261.1,980.9z M1239.2,1063.6c0.6-1.8,1.2-3.7,1.5-5.7c0.5-3.4,0.3-7,0.4-10.5
	c0.3-5.4,0.8-10.9,1.5-16.3c1.5-11.7,3.9-23.4,7-34.8c1.5-5.8,3.4-11.5,5.3-17.2 M1284.6,856.8c-1.1,4.7-3.2,9.2-4.8,13.9
	c-2.3,6.7-4.4,13.4-6.2,20.2c-5.4,19.6-9.2,39.9-10.4,60.2c-0.4,7.1-0.5,14.1,0,21.2c0.3,4,0.6,8,1.2,11.9l1.3,6.7
	c0.6,2.5,1.8,5,2.1,7.7c0.2,2.3-0.3,4.8-0.9,7.1c-0.4,1.5-0.9,3.1-1.7,4.5 M1266.7,856.7c0.1-0.7,0.2-1.8-0.5-2.3
	c-0.6,0-1,0.5-1.2,1c-0.5,0.9-0.8,1.8-1,2.8"/>
<path class="st1" d="M159.4,706.6c0.4-2.1,0.8-4,1.6-6l0.6-1.3l0.6-1.2l0.7-1c0.7-0.9,2.4-2.8,3.6-1.4c1.1,1.3,0.9,3.6,0.8,5.1
	c-0.3,3.4-1.3,7-3,10c-0.8,1.3-1.7,2.6-3.2,3c-1.8-0.5-1.9-2.8-1.9-4.3l0.1-1.4C159.2,708,159.2,708,159.4,706.6L159.4,706.6z
	 M136.9,678.2c0.5,9.3,1.2,18.6,3.5,27.7l0.8,2.8c0.2,0.8,0.7,4.7,2.7,4.2l0.6-0.3c0.8-0.6,1.5-1.5,2-2.4c0.8-1.3,1.3-2.6,1.8-4
	c0.9-2.7,1.6-5.8,1.3-8.6c-0.2-2.5-1.3-4.9-1.9-7.3l-1.3-6.2l-0.9-6.8c-1.3-12.6-0.7-25.5,0.5-38c1.9-18.5,5.7-36.9,11-54.7
	c1.5-5.2,3.1-10.4,4.9-15.5c1.5-4.5,3.7-8.9,4.6-13.5l0.3-1.5l0.2-1.4v-1.3c0-1.5,0-3.9-1.8-4.3c-2.4,0.5-3.7,3.7-4.5,5.8l-1.2,3.3
	l-1.3,3.7c-4.2,11.5-7.8,23.2-10.8,35.1c-3.6,14-6.4,28.3-8.3,42.8c-0.6,4.5-1.1,9.1-1.4,13.7l-0.2,3.1l-0.3,3.4l-1.3,3.3l-1.1,2.9
	c-1.6,4.2-3.1,8.5-4.6,12.9c-5.4,16.3-9.5,33.1-12.2,50.1c-1.7,10.5-2.8,21.3-3.1,31.9v1.8l-0.1,3.5l0.1,1.3c0.1,1,0.4,3,1.8,3.1
	c1.1,0,2-1.2,2.6-2c2-2.7,3-6.2,3.5-9.5c0.3-2.1,0.2-4.2,0.3-6.3c0.1-2.6,0.2-5.1,0.4-7.6c0.5-8.3,1.6-16.6,3.1-24.8
	c1.4-7.6,3.1-15.3,5.1-22.8C133.2,689.6,135.1,683.9,136.9,678.2L136.9,678.2z M115,761c0.7-1.9,1.2-3.7,1.5-5.6
	c0.5-3.5,0.3-7,0.4-10.5c0.3-5.4,0.8-10.9,1.5-16.3c1.5-11.7,3.9-23.4,7-34.8c1.6-5.8,3.4-11.5,5.3-17.2 M140.9,707.4
	c0.8-1.4,1.3-2.9,1.7-4.5c0.6-2.3,1-4.7,0.9-7.1c-0.2-2.5-1.4-4.9-2-7.3l-1.3-6.2c-1.7-10-1.9-20.3-1.5-30.5
	c0.4-10.3,1.6-20.5,3.3-30.6c2-11.8,4.5-23.5,7.8-35.1c1.8-6.3,3.8-12.6,5.9-18.8c1.5-4.4,3.5-8.7,4.6-13.3 M142.5,554
	c0-0.7,0.2-1.8-0.5-2.3c-0.6,0.1-0.9,0.5-1.2,1c-0.5,0.9-0.8,1.8-1,2.8 M1266.7,856.7c-0.2,1.2-0.4,2.4-1.1,3.5
	c-0.3,0.5-0.6,1-1.3,1c-0.9-0.6-0.5-2.1-0.4-3 M139.8,555.5c-0.1,0.5-0.1,0.9-0.1,1.4c0,0.6,0.2,2.1,1.1,1.4l0.3-0.3
	c0.9-1.1,1.2-2.6,1.4-4"/>
<path class="st2" d="M100,1087.1l8-8"/>
<path class="st0" d="M100,1087.1"/>
</svg>
