<svg xmlns="http://www.w3.org/2000/svg" xmlns:xlink="http://www.w3.org/1999/xlink"
    viewBox="0 0 1200 1200" enable-background="new 0 0 1200 1200">
    <style type="text/css">.st0{fill:none;} .st1{fill:none;stroke:#000000;stroke-linecap:round;stroke-linejoin:round;stroke-width:2;} .st2{clip-path:url(#SVGID_2_);} .st3{fill:none;stroke:#FFFFFF;stroke-miterlimit:10;}</style>
    <path class="st0" d="M1200 148.7h-1200v902.6h1200v-902.6z"/>
    <path class="st1"
        d="M407.8 448.9c-.7.5-.2 2.6 1.3 5.5M370.7 501.7c5.1 1.5 8.9 1.5 11.2.3M381.6 516.2c3-4.1 3.6-9.6 2.1-15.1M375.5 482.5c-3.2 1.5-3.8 6.9-1.4 12 2.4 4.9 6.9 7.8 10.1 6.4"/>
    <path class="st1"
        d="M375.6 482.5l-.1.1.1-.1zM371.4 485.1c-10.7-7.6-23.6-7.8-29.9-.5M344.9 483.8c-.4 2.1 0 4.6 1 6.8M358.7 477.4c-8.4-.3-13.2 2.2-13.8 6.4M365.1 478.7c-2.3-.8-4.5-1.2-6.5-1.3M373.4 482.9c-2.7-2-5.6-3.4-8.3-4.2M368.6 521c2.1 1.5 4.1 1.8 5.8 1.2M381.2 516.6c3.1-4.2 3.7-9.8 2-15.3M386.4 478.7c-4.9.8-8.2 5.8-7.4 11.3.8 5.6 5.5 9.4 10.6 8.7h.1M372.8 483.8c-1.4.7-2.7 3.2-3.5 6.7M343.1 482.9c-1.9 1.7-3.4 3.8-4.3 6M370.2 483.7c-10.1-6.3-20.6-6.3-27.1-.8M338.8 488.8c-.9 2-1.5 4.2-1.7 6.2M365.8 524.2c6-.2 11.2-2.7 14.6-6.5M380.4 517.7c3.1-3.4 4.8-7.7 5-12M368.8 498.4c.5 1.1 1 2.1 1.7 2.9M442 452.8c4.5-5.6 6-9.5 4.8-11.3M392.8 476.3c-3.2 1.6-3.8 6.9-1.4 12 2.4 4.9 6.9 7.7 10.1 6.4"/>
    <path class="st1"
        d="M393 476.2l-.2.1.2-.1zM393.9 457.2c-10.7-7.7-23.6-7.8-30-.5M398 454.6c-3.2 1.6-3.8 6.9-1.4 11.9 1.1 2.3 2.6 4 4.3 5.2"/>
    <path class="st1"
        d="M398.1 454.6l-.1.1.1-.1zM396 455c-3.6-2.6-7.6-4.2-11.2-4.9M369.8 451.9c-1.7 1.3-2.5 3.4-2.5 5.5M372.4 450.8c-1 .2-1.9.6-2.6 1.2M394.2 456.8c-10.7-7.8-23.5-7.8-30-.6-.7.7-1.3 1.6-1.7 2.3M395.5 455.8l-1 .7M421.4 440.9c-3.2 1.5-3.9 6.9-1.5 11.9.5 1 1.1 2 1.8 2.9"/>
    <path class="st1"
        d="M421.5 440.9l-.1.1.1-.1zM444.6 460.4c2.5-3.4 4-6.9 4.3-9.5M393.1 460.6c0 1.3.5 2.6 1.1 4M394.2 456.8c-.8.9-1.2 2-1.2 3.2M404.5 450.8l.1.2M374 483.7l-2.5 1.2M381.9 502l2.3-1.1 1.2-.6M373.9 483.2l-.4-.3M347.3 488.8l18.9 4.9-5.1 6.4M342.2 495.2l18.9 4.9M366.3 523.2l.3.1M368.6 521l-.2-.2M361.1 500.1l9.6 17.2M386.5 478.7h.2M370.2 483.7l1.5 1M333 507.5l9.5 17.2M361.4 529.6l-18.9-4.9M370.5 501.3l5.4 9.7M366.2 493.7l2.6 4.7M401.5 494.6h.2M381 449.5l4.8-5.8M379.4 449.5l6.4-5.8M404.5 450.8l-18.7-7.1M404.5 450.8l-.4.4M394.5 456.6l-.3.2M393.1 460v1.5M414.3 462.2c-2.1-2.4-3.8-5.1-5.2-7.8M364.4 456.3l1.4-1.6c1.3-1.1 2.7-2.1 4.2-2.9M385.1 500.4c1.1-.5 2.3-1 3.5-1.4M389.5 498.8l-1.4.4M347.4 479.7c-1.5.8-2.9 1.7-4.2 2.9l-1.5 1.6M375.9 511c-1.8 2.1-3.5 4.2-5.2 6.4-3.2 4-6.2 8.2-9.3 12.3M386.6 478.7l.9-.2.4-.1M387.6 478.5c1.3-.5 2.7-1 4-1.6M372.8 483.8c4.5-2.2 9-4.3 14-5.2M368.2 497.2c.2-2.3.5-4.5 1.1-6.7M337.4 501.6c-.4-2.2-.5-4.3-.3-6.6M347.3 488.8c-1.7 2.1-3.4 4.2-5.1 6.4-3.2 4.1-6.2 8.2-9.3 12.3M385 500.4c.3 1.8.4 3.4.3 5.2M361.4 529.6c1.7-2.1 3.4-4.2 5.1-6.4l9.3-12.3M375.6 497c1.3-.6 2.6-1.2 3.9-1.6l4.8-1.1c3-.9 5.8-2.1 8.6-3.5 9.2-4.5 17.8-10.3 25.9-16.5 8.3-6.4 16.4-13.3 23.1-21.4M395.5 475l-2.5 1.2M397.2 469.6l-.6.3-.8.5M391.4 477l1.6-.7.7-.4M399.8 472.5c-.5-.5-1-1-1.5-1.6M399.7 449c-1.3-.7-2.7-1.3-4.2-1.6M372.4 450.7c4.1-1.3 8.2-1.5 12.5-.7M393.9 457.2c-1.7 2.2-3.4 4.4-5 6.7M421.5 440.9c-3.5 1.8-6.9 3.6-10.2 5.7-2.9 1.9-5.7 3.9-8.7 5.5-2.3 1.3-4.7 2.5-7.1 3.7M448.9 450.8c.3-2.1.2-4.2-.5-6.1-1.1-3.1-3.6-5.8-6.7-7.1-2-.8-4-1-6.2-1-5 .4-9.5 2.2-14.1 4.3M388.7 498.9c1.2-.2 2.5-.4 3.6-.8 7.1-2 13.6-5.6 19.8-9.6 6.1-3.8 12-8.1 17.5-12.9 5.5-4.6 10.6-9.6 14.9-15.4M395.5 470.1l.6-.2 1.1-.4c2.2-.9 4.2-2.2 6.2-3.3 6.5-3.6 12.4-8.2 19.1-11.4M423 454.4c1.9-2 3.6-3.9 5.2-6M428 448.8l1.4-2.2M395.2 475.1c10.2-5.7 19.7-12.7 28.1-20.9M394.2 464.6c1.2 2.5 2.6 4.7 4.4 6.8M396.6 455.3l-.7-.4c-.7.5-1.1 1.2-1.7 1.8M384.9 437.7c-1.1-.7-2.1-1.1-3-1.2M381 438.1c.5 1.1 1.5 2.2 2.7 3.1M380.9 436.6c-.9 1.1.2 3.3 2.5 5M386.3 437c-2.8-2.1-5.7-2.7-6.9-1.5M403.7 446.9c-2.2-1.5-4.6-2.3-6.7-2.5M381 434.7c-.8.1-1.3.5-1.7 1-1.2 1.6.2 4.8 3.3 6.9M386.6 436.7c-2.1-1.6-4.1-2.2-5.7-2M404.6 445.7c-3-2.1-6.6-3-9.5-2.7M381.2 436.5h-.2M381 436.5l-.2.2M385.1 437.8l-.2-.1M394.6 444.9l-.6.2M383.6 441.2l4.4 3.4M380.8 437.8l.2.3M385.7 437.9l15.4 11.6M402.3 448.5l-.8 1.2M403.6 446.9l3.4 2.5M383.4 441.4l3.6 2.7M382.6 442.6l2.3 1.8M404.6 445.7l3.8 2.8M394 445.1c-.7.3-1.3.5-1.9 1M380.7 436.9l.1.9M386.6 436.7c-.4.4-.8.9-1.1 1.4M381.1 436.5h.8M382.6 442.6c.3-.5.7-.9 1.1-1.4M384.9 437.6c5.2 3.8 10.3 7.7 15.4 11.6M403.5 447.1l.8-1.1.3-.3M397.5 444.8c1.1.2 2.1.4 3.1.8M391.3 445.7c.9-.6 1.8-1 2.9-1.2M392.9 443.6c-1 .4-1.9 1-2.6 1.8M405 450.7c-1.5-1.6-3.3-2.8-5-4l-10.9-8.2-2.4-1.8M406.8 449.6c-2-1.5-3.9-3-6.2-4M403.2 446.9c1.2.9 2.2 1.8 3 3M403.3 444.9c.4.2 1.2.7 1.2.7M397.6 444.9l1.1.1M395 445.2c-.8.3-1.3.6-2 1.2M965.2 607c-3.2 2-4.7 3.8-4.2 4.6M979.1 602.7c-.4-.8-2.7-.6-5.7.4M1019.4 621.1c-.6-1.5-1.7-3.1-2.9-4.3"/>
    <path class="st1"
        d="M987.3 613.6zM986.9 616.2c.8-1.1.9-2.1.4-2.6M1017 653.7c6.1-8.3 2.3-21.7-8.3-30.3-7-5.6-15.4-7.9-22.3-6.7M989.3 614.9c-1 .1-1.9.6-2.5 1.5M1017.5 629.1c-4.2-7.2-11.8-12.4-19.4-14M1020.3 635.4c-.6-2.2-1.5-4.3-2.6-6.1M1021.2 642.7c.1-2.4-.2-4.8-.8-6.8M1017.4 653.3c2-2.6 3.3-6 3.6-9.1M961.9 613.5c2.5 4.7 5.7 8.9 9.1 12.3M961.9 613.4c-3.5-7.7-8.6-13.6-14.5-17.4M1017 653.8c6.5-8.1 2.9-21.9-8.1-30.7-7-5.6-15.3-7.9-22.2-6.7M1016.5 654.5l.5-.7M918.5 578c-3.2 2.7-5.9 6.7-7.3 10.5M909.2 604.5c1.8 17.6 14.8 35.3 31 43.2"/>
    <path class="st1"
        d="M949.1 629.4zM940.3 647.8c2.2 1 6-2.2 8.4-7.3s2.6-10 .4-11.1M995 656.9c-1.2-2-2.7-3.9-4.2-5.4M997.8 663.4c-.6-2.2-1.5-4.3-2.6-6.1M998.6 670.6c.1-2.4-.2-4.8-.8-6.8M994.8 681.3c2.1-2.6 3.3-6 3.7-9.1M990.8 651.5c-7-7.2-16.8-10.3-25.1-8.5M951.4 652c-1.9-2-4-3.6-6-4.7M917.5 620.5c6.7 12.3 16.9 21.6 27.9 26.7M917.9 578.5c-9.4 9.1-9.1 25.7-.5 42M925.4 573.8c-3 1.1-5.5 2.8-7.4 4.7M940.9 572.2c-4.9-.8-9.8-.3-13.8 1M979.8 603.9c-6.8-14.6-18.7-25.3-31.6-30M979.8 603.9c1.3 2.5 3 4.8 4.7 6.7M946.4 651.9c-1.7-1.5-3.5-2.7-5.1-3.6M994.5 681.7c6.1-8.2 2.3-21.6-8.4-30.3-7-5.6-15.3-7.9-22.2-6.7M994.4 681.9c6.6-8.2 3-22-8-30.9-7-5.6-15.3-7.9-22.2-6.7M993.1 683.3c.5-.5 1-1 1.3-1.4M962.9 639.6c-3.8-3.9-7.9-7-11.7-9M930.8 608.7c3.2 8.6 9.8 16.2 17.2 20.3M929.3 602c.2 1.9.6 3.9 1.1 5.6M947.7 596.2c-2.2-1.5-4.4-2.5-6.3-3.2M964.1 610.6c-1.2-2.8-2.7-5.4-4.4-7.7-8.1-10.7-20.5-15.1-27.6-9.8M964.1 610.6c2.7 5.1 6.1 9.7 9.8 13.4M931.7 593.3l-.6.7M971.2 626l-.3-.2M1020.7 637.3l4.3-8M1020.2 635.3l4.8-6-11.3-16.6M1009.5 620.2l-.9-1.2M1007.2 618.8l1.4.2M1013.7 612.7l-5.1 6.3M994.9 609.7l18.8 3M991 614.7l3.9-5M988.1 614.2l.2.2M1017.6 629.3l-.1-.3M1020.4 635.9l-.1-.5M1021 644.2l.2-1.5M940.3 647.8l1.1.5M995.1 657.2l-.1-.3M997.8 663.8v-.4M998.5 672.1l.1-1.5M961.6 641.9l2.4 2.6M989.1 676.4l-9.3-17.3-5.2 6.3M983.9 682.8l-9.3-17.4-18.8-5.2M955.4 689.5l-9.2-17.3M979.8 659.1l-18.9-5.3M927.1 573.2l-1.7.6M955.4 689.5l18.9 5.3M962.9 639.6l3.3 3.3M930.9 608.8l-.4-1.2M974.1 624.2l-.2-.2M930.1 595.8l.2-.5.5-.9M931.6 593.4l-.7.8-.3.5M973.5 603.1c-2.9 1-5.7 2.3-8.3 3.9M953.6 601.2c.5.1.9-.3 1.4-.5 1-.7 2-1.5 2.9-2.3 2.8-2.4 5.4-5 7.9-7.7.6-.7 1.3-1.4 1.8-2.2.3-.4.6-.8.6-1.3M1013.3 623.6c0 .9-1 2-1.6 2.6-1.8 2.2-3.8 4.2-5.8 6.2M985.4 618.5c.3-.6.6-1.3 1-1.8l-.6.9M988.3 614.4l1 .5M984.7 622.4c.1-.9.1-1.7.3-2.6M998.1 615.1c-1.8-.3-3.5-.5-5.3-.5-1.2 0-2.3.1-3.5.3M970.9 625.8c.5 0 1-.3 1.4-.5 1-.7 2-1.5 2.9-2.3 2.8-2.4 5.4-5 7.8-7.7.6-.7 1.3-1.5 1.8-2.2.3-.5.6-.8.6-1.4M986.8 616.3c-1 1.2-2.2 2.2-3.5 3.1-1.7 1.2-3.5 2.3-5.2 3.4M984.8 620.5c.3-1.2.7-2.3 1.3-3.4M925 636.5l1-.2c1.2-.7 2.3-1.7 3.4-2.6 2.8-2.4 5.4-5 7.8-7.8.6-.7 1.3-1.4 1.8-2.2 0 0 .5-.8.6-1.2l-1.2-1.2M909.2 604.5c-.4-3.8-.3-7.8.6-11.5.5-2.4.6-2.3 1.3-4.4M990.8 651.5c0 .5-.3.9-.6 1.3-.5.7-1 1.3-1.5 1.9-2.3 2.6-4.7 5.1-7.3 7.4M964.2 644.2c.4-.5.8-1 1.5-1.2M946.2 672.2c4.9-6.2 9.8-12.3 14.8-18.4M948.4 653.7l1.8 1.9 1.9 1.9.4.3c1.1.8 2.5 1.2 3.9 1.5M950.6 666.6c-.6-3.5-.5-6.8.4-10.2M948.3 574c-2.4-.8-4.9-1.5-7.4-1.8M988 614.2c-1.3-1-2.4-2.3-3.5-3.5M962.9 639.6c0 .5-.3.9-.6 1.3-.7 1-1.5 2-2.4 2.9-2.5 2.7-5.2 5.3-8 7.6-.7.6-1.5 1.2-2.2 1.7 0 0-.8.5-1.3.6l-2.1-1.9M989.1 676.4c-4.9 6.1-9.8 12.3-14.8 18.4M993.1 683.3c-.8.9-1.7 1.7-2.7 2.3-3.5 2.4-7.4 3.4-11.6 3.6M959.3 655.8c.5-3.4 1.6-6.7 3.4-9.6.4-.7.9-1.3 1.4-1.9M947.9 628.8c1.1.6 2.2 1.1 3.2 1.7M929.7 597l-.3 1.1-.1.9M929.6 597.2l.2-.6.3-1.1M932.7 592.8l.4-.2.9-.3M941.7 593.1c-1.3-.4-2.4-.7-3.6-.9M933.5 592.4c.8-.2 1.3-.3 2.2-.3M935.7 592.1c.9 0 1.9.1 2.8.2M931.5 593.6l.5-.4 1-.7M929.4 602.3c-.1-1.2-.1-2.4 0-3.6M1007.1 607.9c-.3 0-.4.5-.3 1 .1.5.3.8.6.8"/>
    <path class="st1"
        d="M1007.2 607.9zM1028.7 613.6l.1-.2-.1.2zM1026.8 614.8c1-.2 1.6-.6 1.9-1.2M1021.9 624.8c1.3-2.1 1.3-4.8.3-7.4M1027.1 614.5c-.2.1-.4.5-.3 1s.4.9.7.8M1030.7 612.8c-.1-2-2.2-4-5-4.9-1.7-.6-3.3-.7-4.7-.4M1020.9 607.5c-.2.1-.4.5-.3.9.1.5.3.8.7.8M1027.8 611.1c-1.7-1.5-4.4-2.3-6.4-1.8M1021.3 623.8c.7-1.8.5-3.9-.3-6M1030.5 613.9c.6-2.2-1.8-4.8-5.3-5.8-1.6-.5-3.2-.6-4.5-.3M1027.5 616.2c1.7-.3 2.7-1.2 3-2.3M1020.2 613.8c-1.1-1.4-2.4-2.6-3.8-3.5M1019.9 615.9c-1.4-2.1-3.3-3.8-5.4-5M1014 609c-2.4-1-4.9-1.4-6.8-1M1019.6 616.1c-1.3-2.2-3.4-4-5.6-5.1M1011.1 609.6c-1.5-.4-3-.4-4.2-.3M1007.4 609.7l.9-.1M1020.8 608.9l-13.3 2.8M1028.8 613v.4M1026.9 614.7l-10.3 2.2M1021 617.9l-.1-.2M1027.5 616.2l-9.7 2.1M1014.5 610.9l-.3-.1M1020.1 616.1l-.2-.3M1021.4 609.2l-12.7 2.7M1007.1 607.9l-10.2 2.1M1019.7 616.2l-.1-.1M1006.9 609.3l-6.2 1.3M1020.8 623c.2-.8.3-1.6.3-2.5M1005.3 610.8l-.4.5M1028.9 613.2c-.1-.6 0-.3-.2-.8M1028.7 612.4c-.3-.5-.6-.9-1-1.3M1020.2 613.8c.4.6.9 1.2 1.3 1.9M1020.6 617.8c.3.9.4 1.8.6 2.8M1030.7 612.8c.1.4-.1.9-.2 1.3M1020 616l2.9-.6 1.3-.2c1.2-.3 2.7-.4 3.9-.9M1013.8 610.8l.2.2 1 .5M1001.9 610.8l2.8-.6c2-.4 3.7-.9 5.7-.5M1021.3 607.4l-.2.1-3 .6-10.7 2.3-3 .6-.5.2M1021.3 615.3c-.7-2.1-2.4-4-4.4-5.1M1019.3 620.8l1.6-1.9M1021.4 615.5l-.1-.2M1021.1 620.8c-.1.7-.3 1.3-.6 1.9M17.2 798.4c0 1.7.4 2.7 1 2.9.7.2 1.6-.6 2.3-2"/>
    <path class="st1"
        d="M21.4 715.5c-1.1-.3-2.8 2.1-3.7 5.5-.9 3.4-.7 6.3.5 6.6 1.1.3 2.8-2.1 3.7-5.5.9-3.3.7-6.2-.5-6.6zM7.4 712.8c-1 1.8-1.8 3.8-2.4 5.8M3.7 810.7c.3.9.7 1.3 1.2 1.4M15.6 715c-1 1.7-1.8 3.7-2.4 5.7M11.5 810.3c0 4.1 1.7 5.3 3.8 2.7M21.4 742.5c-1.1-.3-2.8 2.2-3.7 5.5-.9 3.4-.7 6.3.5 6.6l.6-.1M21.9 742.9l-.5-.4M50.5 661.7l-3.5 4.3M17.2 712.4l-8.1-2.2M22.4 718.3l-3.3-.9M11.5 730.6l-8.1-2.2M11.5 810.3l-8.1-2.2M13.1 814.3l-8.2-2.2M25.2 690.2l8.2 2.2M25.4 800.5l-10.1 12.5M7.4 712.8c1-1.8 2.2-3.2 3.5-4.9l12.4-15.4 1.9-2.3M3.7 810.7c-.5-1.8-.3-3.7-.3-5.6v-73.7c0-1.8 0-3.6.1-5.3.3-2.6.8-5.1 1.6-7.6M15.6 715c1-1.8 2.3-3.2 3.6-4.9l12.4-15.4 1.9-2.3M11.5 810.3v-76.7c0-1.8-.1-3.5.1-5.3.2-2.6.8-5.1 1.6-7.6M949.2 668.5l-253.8-68.3M336 503.4l-74.6-20M1052 709.3l-73.4-19.8M951.5 682.2l-259.8-69.9M616.1 591.9l-250.6-67.4M338.4 517.1l-80.2-21.5M1029.2 737.5l-337.5-90.9M1026.8 740.5l-334.6-90.1M258.2 529.9l335.1 90.3M591 623.1l-382.9-103.1M995.1 680.9l65.5 17.6M995.7 680.1l15.4 4.1M1020.1 670.4l52 14M1011.1 684.2l10.2-12.6M1073.4 682.8l-53.8-14.5M708.4 584.5l228.9 61.6M943.9 649.8l-237.1-63.8M381.8 515.7l243 65.5M382.4 514.9l15.8 4.3M407.2 505.4l229.1 61.6M398.2 519.2l10.2-12.6M637.5 565.4l-230.8-62.1M340.8 485.5l-66.7-18M339.6 487.2l-66.8-18M1191.2 283.6l-.5.2M1191.7 284.5c0-.5-.2-.8-.4-.8M1192 280.7c-.4-.1-.7.1-1 .4M1192.8 281.8c-.2-.6-.4-.9-.8-1M1141.4 300.9c-.6 1.4-1.1 2.9-1.4 4.3M1198.8 698.7c.2-.5.3-1 .3-1.5M1197.5 700.5c.6-.5 1-1.1 1.3-1.8M875.5 928.4c-1.3.6-2 1.8-2 3.3M885.2 920.4c-1.3-.4-2.4-.3-3.4.1M909.4 890.5c-1.6-.4-3.1-.2-4.1.5M909.4 892.9c-.8-.2-1.5-.1-2 .3M929.1 1029.5l.1-.5M926 1031.3c1.6 0 2.8-.7 3.1-1.8M929.2 940.4c-.2-1.3-1.5-2.2-3.2-2.4M929.2 940.7v-.3M932.4 1029.6v-.5M926 1033.7c3.3.2 6-1.6 6.4-4.1M932.4 940.8c0-2.7-2.9-5-6.4-5.2M1196.1 608.7c-.1-1.3-1.4-2.3-3-2.3M1196.1 608.9v-.3M1199.1 608.8c0-2.8-2.7-4.9-6-4.9M1145 597.8c-.8 0-1.8.2-2.6.5-1.6.7-2.7 1.7-3.1 2.9M314.3 378.1c-.4-.8-.9-1.5-1.5-1.9"/>
    <path class="st1"
        d="M272.4 358.6l-.2.1.2-.1zM273.7 358.8c-.5-.3-.9-.4-1.3-.3M271 355.9c-.7.4-1.1 1.2-1.2 2.2M273.7 356.3c-1-.7-1.9-.8-2.6-.5M316.6 381.3c0-1.3-.4-2.7-1-4-.8-1.6-1.8-2.8-2.9-3.5M315.3 472.4c.5-.1 1-.8 1.3-1.6.1-.4.1-.8.1-1.1M276.3 466.5c-.6-.2-1.2.1-1.8.7M277.6 468.3c-.3-1.1-.8-1.7-1.3-1.9M82.6 706.3h-.5M83.9 708.2c-.3-1.1-.8-1.7-1.3-1.9M77.9 669.9c-.5-.7-1.3-1.2-2-1.4M80 668.8c-1.1-1.4-2.6-2.3-4.1-2.7M55.1 697.9c-1-1-2.2-1.7-3.4-1.9M50.8 710.2c0-1.5-.8-3.1-2-4.4M48.1 709.4c0-.8-.4-1.6-1-2.2M3.6 690c-.4.3-.5.7-.5 1.3M5.3 690.2c-.7-.4-1.3-.4-1.7-.1M1.9 687.4c-.8.5-1.1 1.5-1.1 2.6M5.3 687.7c-1.3-.8-2.6-.9-3.4-.3M.8 778.3c0 1.8 1.1 4.3 2.6 5.9M259.6 487.2c-1 2.9-1.5 5.6-1.5 7.9M904.3 896.7c-1.6-.4-3.1-.2-4.1.6M74.9 675.1c-1.1-1.4-2.6-2.3-4.1-2.7M709 185.7c-.8 1.9-1.1 3.9-1.1 5.5M707.9 279.4c0 1.6.4 2.6 1.1 2.7M315.9 382c0-1.8-1.1-3.6-2.7-4.9-.9-.7-1.8-1.2-2.8-1.5M271.4 358.3c-1.8-.5-3.6-.1-4.5 1M706.8 192.3c0-2.7-1.7-6.1-3.9-7.6M702.9 155.9c-2.3-.3-4.7 0-6.4.8M1197.5 612.6c0-2.7-2.4-5.6-5.4-6.4M1144 600c-1.8-.5-3.5-.1-4.5.9M1199.1 291c0-2.7-2.7-4.9-6-4.9M1145 303.8c-3.3 0-6 2.2-6 4.9M53.8 667.8l5.1-6.3-9.6-2.6M57.2 663.5l-7.9-2.1M703 150.4v2.5M930.9 903.9l5-6.3M926.4 895.1l9.5 2.5M934.3 899.6l-7.9-2.1M1199.1 376.9v-2.1M1190.5 281.7v2.4M1139.9 306.1l.1-.9M1139 308.6v88.4M1199.1 694.7v2.5M902.6 925l8.9 2.4M902.6 925v1.4M895.3 935.1l-12-3.3M896.2 933.9v-1M883.3 929.4l12.9 3.5M882.8 921.8l-.9-1.3M876.4 929.7l-.9-1.3M873.5 931.6v1.8M881.9 920.5l-6.4 7.9M889.7 921.6l-4.5-1.2M885.2 921.7v-1.3M907.4 893.2l-2.1-2.2M909.1 898l5.1-6.2M909.4 890.5v2.4M909.4 890.5l4.8 1.3M900.2 897.4l5.1-6.4M912.5 893.7l-3.1-.8M905.7 934.6v2.4M926 1031.3l-20.3-1M929.2 940.7v88.3M905.7 937l20.3 1M926 1033.7l-20.3-1M932.4 940.8v88.4M905.7 934.6l20.3 1M905.7 1030.3v2.4M1145 597.8v2.4M1193.1 603.9v2.5M1199.1 611.3h-1.8M1193.1 606.4l-.9-.1M1197.5 615l.6-.8M1197.5 614l.6.2M1199.1 608.8v2.8M1145 597.8l48.1 6.1M312.8 373.7v2.4M273.7 358.8l39.1 17.3M273.7 356.3v2.5M312.8 373.7l-39.1-17.4M316.6 469.6v-88.3M274.5 467.1l-.8.8M277.7 468.5l-.1-.2M83.9 708.2v.2M25.5 690.3v-1.4l8.9 2.4M40.9 702.6v1M40 704.8l-12-3.2M40.9 702.6l-12.9-3.5M75.9 666.1v2.4M71.1 667.3l4.8 1.2M75.9 666.1l-4.8-1.3M47.3 696.1v-1.3M51.7 696v1.3M51.7 696l-4.4-1.2M50.8 725.3v-15.1M48.1 724.6v-15.2M48.8 705.8l-1.7 1.4M5.3 690.2l13.6 7.8M.8 778.3v-88.3M932.5 251.6l-20.6-5.6M947 337.1v-62.6M947 337.1l-.8-.2M913 265.3v10.5M911.5 1023.1l-5.8 7.2M926.4 895.1l-5.1 6.2M930.9 903.9l-9.6-2.6M911.5 927.4l-5.8 7.2M902.6 925l-6.4 7.9M707.9 267.6l-1.1-5M707.9 270.1l-1.1-5M49.3 658.9l-5.1 6.3M53.8 667.8l-9.6-2.6M264.6 535.3l-147.1 182.1M263.7 535l-147.1 182.1M1139.3 307.2l-193.3-52M946 343.5l193 52M946 345.9l193 52M904.3 896.7l4.8 1.3M904.3 896.7l-19.1 23.7M904.4 896.8l3-3.6M904.8 896.9l3.3-4M909.4 890.5l234.6-290.5M839.8 315l-131.9-35.6M40.9 702.6l6.4-7.8M66 671.1l5.1-6.3M80 668.8l-5.1 6.3M66 671.1l4.8 1.3M51.7 696l19.1-23.6M48.8 705.8l6.3-7.9M315.9 382l-265.1 328.2M316.6 381.3l390.2-189M898.5 242.4l-190.6-51.3M1193 285.9l.7.2M1193 285.9h.1M1193 285.9l-.3.3M1193 285.9v.2M1191.7 285l-2.1-.6M1190.5 281.7l-487.5-131.3 7.4 32.7M707.9 279.4v-88.3M838.3 316.9l-129.3-34.7M702.9 184.7l-390.1 189M75.9 666.1l234.5-290.5M271.4 358.3l-266.1 329.4M25.5 688.9l-5.7 7.1M5.3 687.7l14.5 8.3M3.1 691.3l1.1-1.4M271.4 358.3l39 17.3M1.5 687.8l265.3-328.5M316.6 469.6l62.9-30.4M315.5 472.3l65.1-31.5M706.8 280.6l-321 155.5M381.1 438.4l2.7-1.4M382.2 440l3.6-1.8M702.9 184.7l-7.5-32.6M273.7 356.3l421.7-204.2M702.9 155.9l.8.2M1193.1 606.4v.2M1193.1 286.1v317.8M1192.1 606.2l-266.1 329.4M929.2 1027.3l-3.2 4M1197.5 700.9l-265.1 328.3M1199.1 611.3v83.4M1197.5 612.6l-265.1 328.2M1197.4 611.6h1.7M1197.5 612.6v2.4M1144 600l48.1 6.2M874.2 929.3l265.2-328.3M1199.1 291v317.8M1145 303.8l48.1-17.7M1139 601.5v-292.9M1145 597.8v-294M710.4 183.1l432 116.2M703 152.9l7 30.8M704.2 186v-27.5M49.3 658.9v2.5l-3.5 4.3M926.4 895.1v2.4l-3.4 4.3M1191.7 284.5v2M1142.4 301.8l2.8-1 42.4-15.7 2.9-1 .3-.3M1192.8 281.8c.3 1.4.2 2.7.2 4.1M1141.4 300.9l.5-.8c.9-1.5.8-.9 3.3-1.8l42.5-15.6c3.1-1.1 2.1-.3 3.3-1.5M1141.2 304.9c.1-.7.3-1.5.6-2.1l.5-.9v-2.5M883.3 931.8v-2.4l1.9-2.3 2.6-3.2 1.9-2.3M274.7 467l.2.6v.2M81.2 707.6v-.1l-.2-.7M34.4 691.3l-1.9 2.3-2.6 3.2-1.9 2.3v2.5M71.1 664.8v2.5l-3.4 4.2M80 668.8l-2.1 1.1-3.7 4.5M53.4 699.4c-.7-.5-.4-.3-1-.7M55.1 697.9l-1.7 1.5-1.9 2.3-2.5 3.2-1.9 2.3M3.4 781c-.5-1.3-.3-3-.3-4.3v-85.39999999999999M82.1 706.3c-1.8.6-2.8 2.4-3.9 3.8l-7.7 9.4-1.9 2.4-.7 1c-1.2 1.9-2 4.1-2.6 6.3M259.6 487.2c.6-1.4 1.1-2.8 2-4.1l.7-1 1.9-2.3 7.6-9.5 1.9-2.3M259.2 533.4c-1.3-2-1-4.6-1-6.9v-31.4M709 185.6c.4-.9.9-1.7 1.4-2.6M315.9 470.4l-.1.9c-.3 1.4-2 2.9-2.7 3.8l-1.9 2.4M315.9 382v88.39999999999999l-1.9 2.3-3.7 4.6M387.6 437.4l2.7-1.3 312.6-151.5 2.7-1.3c1-.5 1.1-1.8 1.2-2.7v-88.4M271 356l2.7-1.3 416.3-201.7c1.4-.7 3-2 4.7-1.3l.8.5M703.3 154.2c-1.7-.2-.7-.1-2.8-.1-1.5.1-2.9.3-4.4.7M1191.9 280.7l-2.9-.8-481.7-129.6-2.9-.8c-.7.1-.9.4-1.4.9M1198.1 697.7l.5-.8c.7-1.4.4-3.3.4-4.8v-80.4M931.4 1031.8l1.8-2.3 261.5-323.7c1.2-1.5 2.7-2.8 2.8-4.8v-2.5c1.3-6.4.6 14 .6-3.8v-80.4l.5-.8c.4-.8.4-1 .4-1.8M71.1 745.7c.1.5.5 1 1 1.5.5.3 1 .6 1.5.7M73.6 749.6c.2-.3.4-.7.3-1M72.2 746c-1.1-.6-2.3-.5-2.9.2-.7.8-.3 2.3.8 3.2 1.2.9 2.7 1 3.4.1M71.1 819.3c.3 1 1.4 2 2.5 2.2M69.2 821.8c.4.9 1.1 1.5 2 1.8M820.1 1020.9c.1.6.5 1.1 1 1.5s1 .6 1.5.7M760 943.7c.7 1.8 2.6 3.3 4.5 3.5M764.1 950.1c.8-1 .8-2.4 0-3.8M761 943.7c-1.6-.5-3.1-.2-3.9.8-1.1 1.5-.5 3.9 1.4 5.4 2 1.6 4.4 1.7 5.6.2M820.1 947.4c.3 1 1.4 1.9 2.6 2.1M822.7 951.3c.4-.5.4-1.3.1-2.1M820.8 947.5c-1-.3-1.9-.1-2.3.4-.7.8-.3 2.3.8 3.3 1.2.9 2.7 1 3.4.1M822.7 949.2c-.4-.8-1.1-1.5-2-1.8M822.7 1024.9c.7-.8.3-2.3-.8-3.2-1.2-1-2.7-1-3.4-.2-.7.9-.3 2.3.8 3.3v.1M820.3 1025.3c1 .3 1.9.2 2.4-.4M764.1 946.2c-.7-1.2-1.9-2.1-3.1-2.6M73.9 748.6c0-1-.7-2-1.7-2.5M73.6 823.2c.7-.9.3-2.3-.9-3.3-1.1-.9-2.7-1-3.3-.1-.4.5-.5 1.3-.1 2M71.2 823.7c1 .3 1.9.1 2.4-.5M861.2 1042.2c.1-.2.2-.4.2-.6M860 1042.4c.5.1.9 0 1.1-.3M30.6 817.9c0 .7.6 1.4 1.4 1.6M31.6 725c-.4 0-.7.1-.9.4M861.4 949.6c0-.7-.6-1.4-1.3-1.6M35.1 721.1c-.5-.1-1 0-1.2.4M70.3 745.7l-1.3 1.6M73.6 747.8l.1.1M73.7 821.5h-.1M70.3 819.3l-1.3 1.6M822.7 1023.1h.1M819.4 1020.9l-1.3 1.6M468.8 866.9l-11.6-3.1v61.9M458.2 924.5l-1 1.2M434.8 857.7l-11.6-3.1v61.9M424.1 915.4l-.9 1.1M760 943.7l-.1-.2M756.5 946.2l2.2-2.7M728.2 959.7l1.4-1.6M728.2 959.7v-6.1M736.4 955.8l-8.2-2.2M783.4 972.6l-1.4 1.6 8.2 2.2M790.2 970.3v6.1M822.8 949.5h-.1M819.4 947.4l-1.3 1.6M790.2 970.3l-8.2-2.2v6.1M736.4 955.8v6.1l-8.2-2.2M468.8 866.9v62l-11.6-3.2M434.8 857.7v62l-11.6-3.2M25.1 765.6l-10.4-2.8M861.3 1042.1l.4-.5M861.4 1041.6l.2-.3M861.4 1041.6v-16M32 819.5l828 222.9M30.6 802v15.9M861.4 1025.6l19 5.2M880.4 995.9l-10.8-2.9M880.4 1030.8v-30.1l-19-5.1M861.8 995.1l-.4.5M860 948l3.2-3.9M32 725l3.1-3.9M11.5 766.8l19.1 5.1M30.6 802l-19.1-5.2M820.3 1025.3c-.7-.3-.3-.1-1-.5M860 948l-2.9-.8-822.2-221.4-2.9-.8h-.4M861.4 995.6v-46l.2-.2M35.1 721.1l2.9.8 822.3 221.4c1.3.3 3 .4 3.9 1.5M30.6 771.9v-46l.1-.5 1.6-2 1.6-1.9M14.7 762.8l-3.2 4v30M876.7 972.8c-1.1-.3-2.8 2.1-3.7 5.5-.9 3.3-.7 6.3.5 6.5l.6-.1M877.2 973.2l-.5-.3M872.5 1028.6c0 1.7.4 2.7 1 2.9.7.2 1.5-.6 2.3-2M867.2 1043.2c.3.9.7 1.4 1.2 1.4M861.7 1041.7c.3.8.7 1.3 1.2 1.4M868.4 1044.6c.6.1 1.2-.3 1.8-.9M868.1 948.2c-.7.9-1.3 2.7-1.3 4M862.6 946.7c-.4.5-.8 1.3-1 2.2-.2.7-.3 1.3-.3 1.8"/>
    <path class="st1"
        d="M876.7 945.8c-1.1-.3-2.8 2.1-3.7 5.4-.9 3.4-.7 6.3.5 6.6 1.1.3 2.8-2.1 3.7-5.5.9-3.2.7-6.2-.5-6.5zM908.4 892.8l-3.3 4.1M866.8 1040.6l-5.4-1.5M861.4 1026.2l5.4 1.5M868.4 1044.6l-5.4-1.5M861.4 950.8l5.4 1.4M861.4 995l5.4 1.4M870.2 992.3l-3.4 4.1M870.2 992.3v.9M866.8 952.2v44.2M888.8 922.7l-20.7 25.5M888.8 922.7l-5.5-1.5M862.6 946.7l20.7-25.5M861.4 995v-44.2M868.1 948.2l-5.5-1.5M877.7 948.6l-3.2-.9M867.2 1043.2c-.5-1.8-.3-3.7-.3-5.6v-6.9c0-3.2-.6-2.2.5-3.5M861.7 1041.7c-.5-1.8-.3-3.7-.3-5.6v-6.9c0-3.2-.6-2.2.4-3.5M880.4 1031.1l-1.8 2.3-6.1 7.5-1.9 2.3-.4.5M452.3 821.4c-.3-.1-.6 0-.9.1M451.6 833.2c.6-1.1 1-2.4 1.3-3.5 1.1-4.2.8-7.9-.6-8.3M463.8 807.3c-.5-.2-1 .1-1.5.5M458.4 820.1c.1 1.4.6 2.3 1.3 2.4 1.4.4 3.5-2.7 4.7-6.9 1.1-4.2.9-7.9-.5-8.3M475.2 793.1c-.5-.1-.9.1-1.5.6M469.8 804.9c0 2.1.5 3.3 1.3 3.5 1.5.4 3.5-2.7 4.7-6.9 1.1-4.2.9-8-.6-8.3M486.6 778.9c-.4-.1-.9.1-1.5.6M481.2 790.7c0 2 .5 3.3 1.3 3.5 1.5.4 3.6-2.7 4.7-6.9s.9-7.9-.6-8.3M498.1 764.8c-.6-.1-1.4.3-2.1 1.2M492.7 777.6c.2 1.5.6 2.3 1.3 2.4 1.5.4 3.6-2.7 4.7-6.9 1.2-4.2.9-8-.5-8.3M509.5 750.7c-.6-.2-1.3.3-2.1 1.2M504.9 765.6l.5.3c1.5.4 3.5-2.7 4.7-6.9 1.1-4.2.9-7.9-.6-8.3M520.9 736.5c-.6-.1-1.3.3-2.1 1.3M515.7 750.2c.3.9.6 1.4 1.1 1.5 1.4.4 3.5-2.7 4.7-6.9 1.1-4.2.9-7.9-.6-8.3M532.4 722.4c-.6-.2-1.4.3-2.1 1.2M527 734.1c0 2.1.5 3.3 1.3 3.5 1.5.4 3.6-2.7 4.7-6.9 1.2-4.2.9-7.9-.5-8.3M543.8 708.2c-.6-.2-1.3.3-2.1 1.2M538.4 719.9c0 2.1.5 3.3 1.3 3.5 1.4.4 3.5-2.7 4.7-6.9 1.1-4.2.9-7.9-.6-8.3M555.2 694.1c-.7-.2-1.3.3-2.1 1.2M549.8 705.8c0 2.1.5 3.2 1.3 3.4 1.4.4 3.5-2.7 4.7-6.9 1.1-4.2.9-7.9-.5-8.3M566.7 679.9c-.6-.2-1.3.3-2.1 1.1M561.3 691.6c0 2.1.5 3.3 1.3 3.5 1.5.4 3.6-2.7 4.7-6.9s.9-7.9-.6-8.3M578.1 665.8c-.6-.2-1.4.3-2.1 1.2M573.2 680.2c.2.5.5.7.8.8 1.5.4 3.5-2.7 4.7-6.9 1.1-4.2.9-7.9-.5-8.3M589.5 651.6c-.6-.2-1.3.3-2.1 1.2M584.1 663.3c0 2 .5 3.3 1.3 3.5 1.5.4 3.6-2.7 4.7-6.9 1.2-4.2.9-8-.5-8.3M601 637.4c-.6-.1-1.4.3-2.1 1.2M596.4 652.4l.5.3c1.4.4 3.5-2.7 4.7-6.9 1.1-4.2.9-8-.5-8.4M612.4 623.3c-.6-.1-1.3.3-2.1 1.2M607.2 637c.3.9.6 1.4 1.1 1.5 1.5.4 3.5-2.7 4.7-6.9 1.1-4.2.9-7.9-.5-8.3M623.8 609.1c-.6-.2-1.3.3-2.1 1.2M618.4 620.9c0 2.1.5 3.3 1.3 3.5 1.5.4 3.6-2.7 4.7-6.9 1.2-4.2.9-7.9-.5-8.3M635.3 595c-.6-.2-1.4.3-2.1 1.2M630.6 609.9l.5.3c1.5.3 3.5-2.7 4.7-6.9 1.1-4.2.9-7.9-.5-8.3M646.7 580.9c-.7-.2-1.3.3-2.1 1.1M641.3 593.6c.2 1.4.6 2.3 1.3 2.4 1.4.4 3.5-2.7 4.7-6.9 1.1-4.2.9-8-.6-8.3M658.1 566.7c-.6-.2-1.3.3-2.1 1.2M652.8 579.5c.1 1.4.6 2.3 1.2 2.4 1.5.4 3.6-2.7 4.7-6.9s.9-7.9-.6-8.3M669.6 552.5c-.6-.1-1.4.3-2.1 1.2M664.1 564.2c0 2.1.5 3.3 1.3 3.5 1.5.4 3.5-2.7 4.7-6.9s.9-8-.5-8.3M681 538.4c-.6-.1-1.3.3-2.1 1.2M675.6 550.1c0 2.1.5 3.2 1.3 3.5 1.4.3 3.6-2.7 4.7-6.9s.9-7.9-.6-8.3M692.4 524.2c-.6-.1-1.4.3-2.1 1.2M687.8 539.2l.5.3c1.5.4 3.6-2.7 4.7-6.9s.9-7.9-.5-8.3M703.9 510.1c-.6-.2-1.3.3-2.1 1.2M698.7 523.8c.2.9.6 1.4 1.1 1.5 1.5.4 3.5-2.7 4.7-6.9 1.1-4.2.9-7.9-.6-8.3M715.3 495.9c-.6-.2-1.3.3-2.1 1.2M709.9 507.6c0 2.1.5 3.2 1.3 3.5 1.5.4 3.6-2.7 4.7-6.9s.9-7.9-.6-8.3M818.2 368.5c-.6-.2-1.4.3-2.1 1.2M814.4 383.8c1.5-.2 3.3-3.2 4.3-6.9 1.1-4.2.9-8-.5-8.3M816.1 369.7c-1.1 1.3-2 3.4-2.6 5.7-1.1 4.2-.9 8 .6 8.3h.4M829.6 354.4c-.6-.2-1.3.3-2.1 1.2M825.4 369.6c1.5.5 3.6-2.6 4.7-6.9 1.1-4.2.9-7.9-.6-8.3M827.5 355.6c-1 1.3-2 3.4-2.6 5.7-1.1 4.1-.9 7.8.5 8.3M841 340.2c-.6-.2-1.3.3-2.1 1.2M836.4 355.2l.5.3c1.4.4 3.5-2.7 4.7-6.9 1.1-4.2.8-7.9-.6-8.3M852.4 326.1c-.6-.1-1.3.3-2 1.2M847.5 340.5c.2.5.5.7.8.8 1.5.4 3.6-2.7 4.7-6.9s.9-7.9-.6-8.3M863.9 311.9c-.6-.2-1.4.3-2.1 1.2M858.7 325.6c.2.9.6 1.4 1 1.5 1.5.4 3.6-2.7 4.7-6.9 1.2-4.2.9-7.9-.6-8.3M875.3 297.8c-.6-.2-1.3.3-2.1 1.2M869.9 309.5c0 2.1.5 3.3 1.3 3.5 1.5.4 3.5-2.7 4.7-6.9 1.1-4.2.9-8-.6-8.3M886.8 283.6c-.6-.1-1.4.3-2.1 1.2M881.6 297.3c.2.9.6 1.4 1.1 1.5 1.4.4 3.5-2.7 4.7-6.9 1.1-4.2.9-7.9-.6-8.3M898.2 269.4c-.6-.2-1.3.3-2.1 1.2M892.8 281.2c0 2.1.5 3.3 1.3 3.5 1.5.4 3.5-2.7 4.7-6.9 1.2-4.2.9-7.9-.5-8.3M726.7 481.7c-.6-.1-1.3.3-2 1.2M723 497c1.5-.2 3.3-3.2 4.3-6.9 1.1-4.2.9-7.9-.6-8.3M724.7 482.9c-1.1 1.4-2.1 3.5-2.6 5.7-1.1 4.2-.9 7.9.6 8.3h.4M806.7 382.6c-.6-.1-1.3.3-2 1.2M801.4 394.4c0 2.1.5 3.2 1.3 3.5 1.5.4 3.6-2.7 4.7-6.9 1.2-4.2.9-7.9-.6-8.3M795.3 396.8c-.6-.2-1.4.3-2.1 1.2M789.9 408.6c0 2.1.5 3.2 1.3 3.4 1.4.4 3.5-2.6 4.7-6.9 1.1-4.2.8-8-.6-8.3M783.9 411c-.6-.2-1.3.3-2.1 1.2M778.5 422.7c0 2.1.5 3.3 1.3 3.5 1.4.4 3.5-2.7 4.7-6.9 1.1-4.2.9-8-.6-8.4M772.4 425.1c-.6-.2-1.4.3-2.1 1.2M767 436.9c0 2.1.5 3.2 1.3 3.4 1.5.4 3.6-2.7 4.7-6.9 1.2-4.2.9-7.9-.6-8.3M761 439.3c-.6-.2-1.3.3-2 1.2M755.6 451.1c0 2 .5 3.2 1.3 3.5 1.5.4 3.6-2.7 4.7-6.9s.9-8-.6-8.3M749.5 453.4c-.6-.2-1.3.3-2 1.2M744.2 465.2c0 2 .5 3.3 1.2 3.5 1.5.4 3.6-2.7 4.7-6.9s.8-7.9-.6-8.3M738.1 467.6c-.6-.1-1.4.3-2.1 1.2M733.5 482.5l.5.3c1.4.4 3.6-2.7 4.7-6.9s.9-7.9-.6-8.3M899.9 291.1c-1.3-.4-3.2 2.3-4.2 6M900.3 291.4l-.4-.3M895.5 271.4c-1 1.6-1.8 3.8-2.3 6M884.7 284.8c-1 1.3-2 3.5-2.6 5.7-.7 2.7-.8 5.2-.5 6.8M872.7 299.8c-1 1.6-1.8 3.7-2.3 5.9M861.8 313.1c-1 1.3-2 3.4-2.6 5.7-.7 2.7-.8 5.3-.5 6.8M850.4 327.3c-1 1.3-2 3.4-2.6 5.7-.8 3.1-.9 6.1-.2 7.5M838.9 341.4c-1 1.3-2 3.4-2.6 5.7-.9 3.7-.9 7 .1 8M804.1 384.7c-1 1.6-1.8 3.7-2.3 5.9M792.6 398.8c-1 1.7-1.8 3.8-2.3 6M781.2 413c-1 1.7-1.8 3.7-2.3 6M769.8 427.1c-1 1.6-1.8 3.7-2.3 6M758.4 441.3c-1 1.7-1.8 3.7-2.3 5.9M746.9 455.5c-1 1.7-1.8 3.7-2.3 5.9M743.6 477.9c-1.3-.3-3.2 2.5-4.2 6.3-.8 2.9-.8 5.5-.2 6.8M744.8 481.1c0-1.8-.5-3-1.2-3.2M736.1 468.8c-1 1.3-2 3.4-2.6 5.7-1 3.6-.9 7 0 8M712.6 497.9c-1 1.6-1.8 3.7-2.3 5.9M701.7 511.3c-1 1.3-1.9 3.4-2.6 5.7-.7 2.7-.9 5.2-.5 6.8M690.3 525.4c-1 1.3-2 3.4-2.6 5.7-1 3.7-.9 7 .1 8.1M678.3 540.4c-1 1.6-1.8 3.8-2.3 6M666.9 554.5c-1 1.7-1.8 3.7-2.3 5.9M656 567.9c-1.1 1.3-2 3.4-2.6 5.7s-.8 4.4-.6 5.9M644.6 582c-1.1 1.3-2.1 3.5-2.6 5.7-.6 2.3-.8 4.4-.7 5.9M633.2 596.2c-1.1 1.3-2 3.4-2.6 5.7-1 3.7-.9 7 .1 8M621.2 611.1c-1 1.7-1.8 3.8-2.3 6M610.3 624.5c-1 1.3-2 3.5-2.6 5.7-.7 2.7-.8 5.2-.5 6.8M598.9 638.6c-1.1 1.3-2 3.4-2.6 5.7-1 3.6-.9 7 .1 8M586.9 653.6c-1 1.6-1.8 3.7-2.3 6M576 666.9c-1.1 1.3-2 3.4-2.6 5.7-.9 3.1-.9 6.1-.3 7.5M564 681.9c-1 1.6-1.8 3.7-2.3 5.9M552.6 696c-1 1.7-1.8 3.8-2.3 6M541.1 710.2c-1 1.6-1.8 3.8-2.3 6M529.7 724.4c-1 1.6-1.8 3.8-2.3 6M518.8 737.7c-1 1.3-2 3.4-2.6 5.7-.7 2.8-.8 5.2-.5 6.8M507.4 751.9c-1 1.3-2 3.5-2.6 5.7-1 3.6-.9 7 .1 8M496 766c-1.1 1.3-2.1 3.5-2.6 5.7-.6 2.3-.8 4.3-.7 5.9M485.1 779.5c-1.3 1.1-2.5 3.6-3.2 6.4-.5 1.8-.7 3.4-.7 4.8M473.7 793.7c-1.3 1.1-2.4 3.6-3.2 6.4-.5 1.7-.7 3.4-.7 4.8M462.3 807.8c-1.3 1.1-2.4 3.6-3.2 6.4-.6 2.3-.8 4.3-.7 5.9M451.4 821.6c-1.4.8-2.9 3.5-3.7 6.8-.4 1.3-.6 2.6-.6 3.6M911.9 246.1c-.1-1-.4-1.6-.8-1.8M701 512.4l4.1 1.1M666.7 554.9l4.1 1.1M655.2 569.1l4.2 1.1M643.8 583.2l4.1 1.1M632.4 597.3l4.1 1.2M609.6 625.7l4.1 1M575.2 668.1l4.2 1.1M563.8 682.2l4.1 1.2M552.4 696.4l4.1 1.1M540.9 710.6l4.2 1.1M529.5 724.7l4.1 1.1M518.1 738.9l4.1 1.1M483.8 781.3l4.1 1.2M472.3 795.5l4.2 1.1M460.9 809.6l4.2 1.2M449.5 823.8l4.1 1.1M499.3 768.3l-4.1-1.1M510.8 754.1l-4.2-1.1M590.8 655.1l-4.1-1.1M602.3 640.9l-4.2-1.1M625.1 612.6l-4.1-1.1M682.3 541.9l-4.2-1.2M693.7 527.7l-4.1-1.1M716.5 499.4l-4.1-1.1M819.4 372l-4.1-1.1M883.9 285.9l4.1 1.2M861 314.3l4.2 1.1M838.2 342.6l4.1 1.1M830.9 357.8l-4.2-1M853.7 329.5l-4.1-1.1M876.6 301.2l-4.1-1.1M899.4 272.9l-4.1-1.1M728 485.2l-4.2-1.1M808 386.2l-4.1-1.2M796.6 400.3l-4.1-1.1M785.2 414.5l-4.2-1.2M773.7 428.6l-4.1-1.1M762.3 442.8l-4.2-1.1M750.8 456.9l-4.1-1.1M739.4 471.1l-4.1-1.1M744.8 481.1l-3.7-1.1M424.1 854.9v60.7M434.8 918.4l-10.7-2.8M896.1 270.6l-.6.8M873.2 298.9l-.5.9M804.7 383.9l-.6.8M793.2 398l-.5.8M781.8 412.2l-.6.8M770.4 426.4l-.6.7M758.9 440.5l-.5.8M747.5 454.6l-.6.9M713.2 497.1l-.6.8M678.9 539.6l-.6.8M667.5 553.7l-.6.8M621.8 610.3l-.6.8M587.5 652.8l-.6.8M564.6 681.1l-.6.8M553.2 695.2l-.6.8M541.7 709.4l-.6.8M530.3 723.6l-.6.8M913 265.4l-1 1.2M898.6 242.3l10.9 2.9M426.7 826.5l10.9 3M744.8 481.1c0 1.2-.2 2.3-.4 3.4M893.2 277.4c-.2 1.3-.4 2.5-.4 3.8M870.4 305.7c-.2 1.3-.4 2.5-.4 3.8M801.8 390.6c-.2 1.3-.4 2.5-.4 3.8M790.4 404.8c-.3 1.3-.4 2.5-.5 3.8M778.9 419c-.2 1.3-.4 2.5-.4 3.7M767.5 433.1c-.2 1.3-.4 2.5-.5 3.8M756.1 447.2c-.3 1.3-.4 2.5-.5 3.8M744.6 461.4c-.2 1.3-.4 2.5-.4 3.8M710.3 503.9c-.3 1.3-.4 2.5-.5 3.8M676.1 546.3c-.3 1.3-.4 2.5-.5 3.8M664.6 560.5c-.2 1.3-.4 2.5-.5 3.8M618.9 617.1c-.3 1.3-.4 2.5-.5 3.8M584.6 659.6c-.3 1.3-.4 2.5-.5 3.8M561.7 687.8c-.3 1.3-.4 2.5-.4 3.8M550.3 702c-.3 1.3-.4 2.5-.5 3.8M538.9 716.1c-.3 1.3-.4 2.5-.5 3.8M527.4 730.3c-.2 1.3-.3 2.5-.4 3.8M911.1 244.3h-.3c-1.4.5-2.4 2.3-3.2 3.3l-468.1 579.6-1.8 2.4M911.1 244.3l-2.9-.8-5.1-1.4-2.9-.7-.3-.1c-1.3.4-2.4 2.3-3.2 3.3l-468.1 579.5-1.9 2.3M912 266.6v-19.6l-.1-.9M776.5 894.8c-.7-.3-1.6.3-2.4 1.3M776.9 895.1l-.4-.3M776.3 894.8l-261.6-70.5M774 896.1l-260.9-70.2M443.8 805.3l-363.4-97.9M442.5 806.9l-363.5-97.9M929.2 1006.2l-10.5-2.9M929.2 1002.6l-11.1-3M762.6 910.3l-260.9-70.3M431.1 821l-363.4-97.8M929.2 955.1l-7.3-1.9M929.2 968.2l-11-3M869 938.9l-45.8-12.3M834.7 912.4l43.7 11.8M774 896.1l-1.9 2.3-7.6 9.5-1.9 2.4-.6.8c-1 1.6-1.7 3.3-2.2 5.1M879.7 922.6l-42.8-11.5c-1 .1-1.6.6-2.2 1.4l-1.9 2.3-7.7 9.5-1.9 2.3-.6.8c-1 1.6-1.7 3.3-2.2 5.1M904.4 393.8c1.3-.7 2.6-3.2 3.4-6.1.5-1.6.6-3.1.6-4.4M907.3 380.1c-1.3-.4-3.2 2.4-4.2 6.2-1 3.8-.8 7.2.5 7.5.3.1.5 0 .8-.1M908.4 383.3c0-1.9-.4-3-1.1-3.1M837.5 442.4c-.4-.1-.9.1-1.3.6M832.6 453.1c0 1.8.5 2.9 1.1 3.1 1.4.4 3.3-2.5 4.3-6.2 1-3.8.8-7.2-.5-7.6M930.4 357.1c1.5-.2 3.3-3.2 4.3-7 .5-1.8.7-3.4.7-4.8M795 448.5c-.6-.2-1.3.3-2.1 1.2M792.4 463.1c1.3-1.1 2.4-3.6 3.2-6.3 1.1-4.2.8-8-.6-8.3M793 449.7c-1 1.3-2 3.4-2.6 5.7-1.2 4.2-.9 7.9.5 8.3.5.1 1-.1 1.5-.5M817.9 420.1c-.6-.2-1.4.3-2.1 1.2M818.4 428.7v-.2c1.1-4.2.9-8-.5-8.4M815.3 440.1c.2-.6.3-1.2.3-1.7M817.4 442c.9-1.1 1.3-3.2 1.3-5.5M816.5 440.7c0 .5.2.9.4.9l.2-.1M817.4 435c-.5.8-.8 2-.9 3.4M814.7 445.3c.6-1 1-2.4 1.1-3.6M814.9 438.3c-.3-.1-.8.6-1.1 1.7-.1.2-.1.5-.1.7M815.2 438.9c0-.3-.1-.5-.3-.5M806.5 434.3c-.6-.2-1.3.3-2 1.2M802.8 449.5c1.5-.2 3.3-3.2 4.3-6.9 1.1-4.2.9-7.9-.6-8.3M804.4 435.5c-1 1.3-2 3.4-2.6 5.7-1.1 4.2-.8 7.9.6 8.3h.4M829.3 406c-.6-.2-1.3.3-2.1 1.2M826.7 420.6c1.2-1.1 2.4-3.6 3.2-6.3 1.1-4.2.8-7.9-.6-8.3M827.3 407.2c-1.1 1.3-2 3.4-2.6 5.7-1.2 4.2-.9 7.9.6 8.3.5.2 1-.1 1.5-.5M840.7 391.8c-.6-.2-1.3.3-2 1.2M838.1 406.5c1.3-1.1 2.5-3.6 3.2-6.3 1.1-4.2.8-8-.6-8.3M838.7 393c-1 1.3-2 3.4-2.6 5.7-1.1 4.2-.8 8 .6 8.3.5.1 1-.1 1.5-.6M852.2 377.7c-.6-.1-1.3.3-2 1.2M849.6 392.4c1.3-1.2 2.5-3.6 3.2-6.4 1.2-4.2.9-7.9-.6-8.3M850.2 378.8c-1.1 1.3-2 3.5-2.6 5.8-1.1 4.2-.9 7.9.6 8.3.5.1 1-.1 1.5-.6M872.3 369.7c.3-.8.5-1.5.5-2.1M875.1 349.4c-.6-.2-1.4.3-2.1 1.2M875.6 358v-.3c1.1-4.2.9-8-.5-8.3M874.5 371.3c.5-.6.9-1.5 1.1-2.4M871.9 374.5c.7-1 1-2.4 1.1-3.6M872.2 367.5c-.3-.1-.8.6-1.1 1.7l-.2.8M872.4 368c0-.3-.1-.5-.2-.5M863.6 363.5c-.6-.2-1.3.3-2 1.2M859.9 378.8c1.5-.2 3.3-3.1 4.3-6.9 1.1-4.2.9-7.9-.6-8.3M861.6 364.7c-1.1 1.3-2 3.4-2.6 5.7-1.1 4.2-.9 7.9.6 8.3h.4M886.5 335.2c-.6-.2-1.3.3-2 1.2M883.9 349.9c1.3-1.2 2.5-3.6 3.2-6.3 1.1-4.2.8-7.9-.6-8.3M884.5 336.4c-1.1 1.3-2 3.5-2.6 5.7-1.2 4.2-.9 7.9.5 8.3.5.1 1-.1 1.5-.5M897.9 321.1c-.6-.2-1.3.3-2 1.2M894.7 336.1c1.4-.7 2.9-3.5 3.8-6.8 1.1-4.2.9-7.9-.6-8.3M895.9 322.3c-1.1 1.3-2 3.4-2.6 5.7-1.1 4.2-.8 7.9.6 8.3.3.1.6 0 .9-.2M744.9 580c1.3-.8 2.9-3.5 3.8-6.8.5-1.8.7-3.5.7-4.9M748 564.9c-1.4-.3-3.5 2.7-4.7 6.9-1.1 4.2-.8 7.9.6 8.3.3.1.6 0 1-.2M749.3 568.4c0-2-.5-3.2-1.3-3.5M907.4 343c-.6-.2-1.3.3-2.1 1.2M906 356.2c.9-1.3 1.6-3.1 2.1-4.9 1.1-4.2.8-8-.6-8.3M902.1 355.8c.1 1.7.8 2.6 1.6 2.5M902.4 372.2c0 1.9.5 3 1.2 3.2 1.3.4 3.2-2.5 4.3-6.3.5-1.6.6-3.2.6-4.4M907.3 361.6c-1.3-.4-3.2 2.5-4.2 6.3-.4 1.6-.7 3.1-.7 4.3M908.4 364.7c0-1.8-.4-2.9-1.1-3.1M758.6 513.2c.1.4.2.6.4.6.5.2 1.3-1 1.7-2.5.3-.8.3-1.6.3-2.1M528.6 797.4c0 .6.2 1 .4 1.1.5.1 1.3-1 1.8-2.6.2-.8.3-1.5.3-2.1M486.4 830.6c-.3-.1-.6 0-.9.2M485.7 842.4c.5-1.1 1-2.3 1.3-3.5 1.1-4.2.8-7.9-.6-8.3M497.8 816.5c-.5-.1-1 .1-1.5.5M492.5 829.3c.2 1.5.6 2.3 1.2 2.4 1.5.3 3.6-2.7 4.7-6.9 1.2-4.2.9-7.9-.5-8.3M496.4 817c-1.3 1.1-2.5 3.6-3.2 6.3-.6 2.3-.9 4.4-.7 5.9M509.3 802.3c-.5-.1-1 .1-1.5.6M503.9 814c0 2.1.5 3.3 1.3 3.5 1.4.4 3.6-2.7 4.7-6.9s.9-7.9-.5-8.3M520.7 788.2c-.5-.1-1 .1-1.5.5M515.3 799.9c0 2.1.5 3.2 1.3 3.4 1.4.4 3.5-2.7 4.7-6.9 1.1-4.2.9-7.9-.6-8.3M526.9 787.7c.3 1.4 1.1 1.8 2 1.4M532.1 774c-.6-.2-1.3.3-2.1 1.1M531.2 786.2c.6-1.2 1.1-2.6 1.5-3.9 1.1-4.2.9-7.9-.6-8.3M543.6 759.8c-.6-.1-1.4.3-2.1 1.2M539 774.8l.4.3c1.5.4 3.6-2.7 4.7-7 1.1-4.2.9-7.9-.5-8.3M555 745.7c-.6-.2-1.3.3-2.1 1.2M549.8 759.4c.2.9.6 1.5 1 1.5 1.5.4 3.5-2.7 4.7-6.9 1.1-4.2.9-8-.6-8.3M566.4 731.5c-.6-.1-1.3.3-2.1 1.2M561 743.3c0 2.1.5 3.3 1.3 3.5 1.5.4 3.6-2.7 4.7-6.9s.8-7.9-.6-8.3M577.9 717.4c-.6-.1-1.4.3-2.1 1.2M572.5 729.1c0 2.1.5 3.2 1.2 3.5 1.5.3 3.6-2.8 4.7-6.9 1.2-4.2.9-7.9-.5-8.3M587.5 724.4c.1.7.3 1 .6 1.1.6.1 1.4-1.5 1.8-3.5.2-.9.2-1.7.2-2.4M588.7 718.1c-.5.7-.9 2-.9 3.3M587.8 723.4c0 .7.3 1.3.5 1.3M583.9 715c0 1.9.5 3.2 1.2 3.5M589.3 703.2c-.6-.1-1.3.3-2.1 1.2M589.8 711.8l.1-.3c1.1-4.2.8-7.9-.6-8.3M600.7 689.1c-.7-.2-1.4.3-2.1 1.2M595.3 700.8c0 2.1.5 3.3 1.2 3.5 1.4.4 3.6-2.7 4.7-6.9s.9-7.9-.5-8.3M612.1 674.9c-.6-.1-1.3.3-2.1 1.2M607.2 689.3c.3.5.5.7.8.8 1.5.4 3.5-2.7 4.7-6.9 1.1-4.2.9-7.9-.6-8.3M623.6 660.8c-.6-.2-1.3.3-2.1 1.2M618.2 672.5c0 2.1.5 3.3 1.3 3.5 1.5.4 3.6-2.7 4.7-6.9s.9-7.9-.6-8.3M635 646.6c-.6-.2-1.4.3-2.1 1.2M629.8 660.3c.2.9.6 1.4 1.1 1.5 1.5.4 3.6-2.7 4.7-6.9 1.2-4.2.9-8-.5-8.3M644.3 654.3c0 .6.2 1 .4 1 .5.1 1.3-1 1.8-2.6.2-.8.3-1.6.3-2.1M646.4 632.4c-.7-.2-1.3.3-2.1 1.2M646.9 641.1l.1-.3c1.1-4.2.9-7.9-.6-8.3M657.8 618.3c-.6-.1-1.3.3-2 1.2M652.5 630.1c0 2 .5 3.3 1.3 3.5 1.5.4 3.5-2.7 4.7-6.9 1.1-4.2.8-7.9-.6-8.3M669.3 604.1c-.6-.2-1.3.3-2.1 1.2M664.7 619.1l.5.3c1.5.4 3.6-2.7 4.7-6.9 1.2-4.2.9-7.9-.5-8.3M680.8 590c-.6-.2-1.4.3-2.1 1.2M675.4 602.8c.2 1.5.6 2.3 1.3 2.4 1.4.4 3.5-2.7 4.7-6.9 1.1-4.2.9-7.9-.5-8.3M692.2 575.8c-.6-.2-1.3.3-2.1 1.2M686.8 588.6c.2 1.5.6 2.3 1.3 2.4 1.4.4 3.5-2.7 4.7-6.9 1.1-4.2.9-8-.5-8.3M702.2 584.2c1 0 1.9-2.2 2-4.9v-1M702 582.4c.1.5.3.9.5.9l.2-.1M702.9 576.8c-.6.8-.9 2-.9 3.4M700.6 580c-.3-.1-.9.7-1.2 1.8-.2.5-.3.9-.3 1.3M700.9 580.8c0-.5-.1-.7-.3-.8M703.6 561.7c-.6-.2-1.3.3-2.1 1.2M704.1 570.3l.1-.3c1.1-4.2.9-7.9-.6-8.2M715 547.5c-.6-.1-1.4.3-2.1 1.2M709.6 559.2c0 2.1.5 3.3 1.3 3.5 1.5.4 3.5-2.7 4.7-6.9 1.1-4.2.9-7.9-.5-8.3M726.5 533.4c-.6-.2-1.3.3-2.1 1.2M721.9 548.3l.5.3c1.5.4 3.6-2.7 4.7-6.9s.9-7.9-.6-8.3M724.4 534.6c-1.1 1.3-2 3.4-2.6 5.7-1 3.6-.9 7 .1 8M737.9 519.3c-.6-.2-1.3.3-2.1 1.1M732.7 532.9c.2.9.6 1.4 1.1 1.5 1.4.4 3.5-2.7 4.7-6.9 1.1-4.2.8-8-.6-8.3M749.3 505c-.6-.2-1.3.3-2 1.2M743.9 516.8c0 2.1.5 3.2 1.3 3.5 1.5.4 3.6-2.7 4.7-6.9s.8-7.9-.6-8.3M757.5 509.6c-.4-.1-.9.7-1.2 1.8-.1.5-.2 1-.2 1.3M757.8 510.4c0-.5-.1-.7-.3-.8M760.7 490.9c-.6-.2-1.4.3-2 1.2M760.8 500.8l.5-1.6c1.2-4.2.9-8-.6-8.3M783.6 462.6c-.6-.2-1.4.3-2.1 1.2M781 477.2c1.3-1.1 2.5-3.6 3.2-6.3 1.1-4.2.8-8-.6-8.3M778.4 476.3c.3 1.4 1.1 1.9 2 1.4M772.2 476.7c-.6-.1-1.3.3-2 1.2M766.8 488.5c0 2.1.5 3.2 1.3 3.5 1.5.3 3.6-2.7 4.7-6.9s.9-7.9-.6-8.3M774.2 500.9c1.3.1 3.1-2.7 4.1-6.3.5-1.6.6-3.1.6-4.4M791.4 493.4h-.4M788 507.2c1.3-.2 2.9-2.9 3.9-6.3 1-3.8.8-7.2-.5-7.5M791 493.4c-1.3.2-2.9 2.9-3.8 6.3-1 3.8-.8 7.2.5 7.5h.3M808.5 492.5c-.1-1.2-.5-2-1-2.2M804.6 504c1.3-.7 2.6-3.2 3.4-6.1.4-1.6.6-3.1.6-4.4M817.8 470.5c-.2-.1-.5 0-.8.1M813.6 484l.5.3c1.3.3 3.2-2.5 4.2-6.3s.8-7.2-.5-7.5M817 470.6c-1.3.7-2.6 3.2-3.4 6.1-.9 3.3-.8 6.3 0 7.2M821.2 492.5c1.1-1 2.2-3.3 2.9-5.7.9-3.3.8-6.3-.1-7.3M823.6 479.3c-1.3-.4-3.2 2.4-4.2 6.2-1 3.8-.8 7.2.5 7.5.4.1.8-.1 1.3-.5M824.1 479.5l-.5-.3M837.3 473.8c.8-2.1 1.1-4.1 1-5.8M568 807.9c.7-1.9 1-3.7 1-5.1M583.9 788.3c.6-1.9 1-3.7 1-5.1M611.8 753.7c.7-1.9 1-3.7 1-5.2M909.4 306.9c-.6-.2-1.3.3-2 1.2M905.2 322.1c1.5.4 3.6-2.7 4.7-6.9s.9-7.9-.6-8.3M907.3 308.1c-1.1 1.3-2.1 3.4-2.6 5.7-1.2 4.2-.9 7.8.5 8.3M920.8 292.7c-.6-.2-1.3.3-2.1 1.2M915.5 305.6c.1 1.4.6 2.3 1.2 2.4 1.5.4 3.5-2.7 4.7-6.9 1.1-4.2.8-7.9-.6-8.3M929 310.9c0 1.9.5 3 1.2 3.1 1.3.4 3.2-2.4 4.2-6.3.5-2 .7-3.9.5-5.3M933.9 300.3c-1.3-.3-3.2 2.5-4.2 6.3-.4 1.6-.6 3.1-.6 4.4M935 302.5c-.1-1.4-.5-2-1.1-2.2M932.2 278.6c-.6-.2-1.4.3-2.1 1.2M932.3 288.5c.2-.5.4-1.1.5-1.6 1.1-4.2.8-7.9-.6-8.3M930.3 299c0 1.2.2 2 .6 2.1.7.1 1.4-1.4 1.8-3.4.2-.9.3-1.8.2-2.4M926.9 291.4c.1 1.3.5 2.1 1.1 2.4M931.6 293.7c-.5.7-.8 2-.9 3.3M930.6 298.9c0 .8.2 1.3.5 1.3M904.8 345c-1 1.7-1.8 3.8-2.3 6M836.1 443c-1.2 1-2.2 3.2-2.9 5.7-.4 1.6-.6 3.1-.6 4.4M837.2 464.9c-1.3-.4-3.2 2.4-4.2 6.2-1 3.8-.8 7.2.5 7.6.5.1 1.2-.3 1.9-1.1M838.3 468c0-1.9-.4-2.9-1.1-3.1M807.1 490.3c-1.4.2-3 2.9-3.9 6.3-1 3.8-.8 7.2.5 7.5.3.1.6 0 .8-.1M946 255.3c-.1-1-.4-1.6-.9-1.8M934.1 341.9c-1.5-.4-3.6 2.7-4.7 6.9-1.2 4.2-.9 8 .6 8.3h.4M935.4 345.4c0-2.1-.5-3.3-1.3-3.5M918.7 294c-1.1 1.3-2 3.4-2.6 5.7-.6 2.3-.8 4.4-.7 5.9M873.4 371.1c.1.6.5.8.8.4M870.7 373.8c0 .4.1.6.3.7.3.1.9-.6 1.3-1.6.2-.6.4-1.2.3-1.6M875.4 365.7c-.3-.1-.8.3-1.2 1.1M875.9 367.1c0-.9-.2-1.3-.4-1.4"/>
    <path class="st1"
        d="M872.5 369.6h-.2.2zM873 370.9c0-.7-.2-1.1-.5-1.2M870.5 364.3c.6.7 1.6.3 2.5-.9M873.7 370.2c.1.4.1.6.3.6.4.1 1-.7 1.3-1.9.2-.5.2-1 .2-1.5M870.4 374.2c.1.7.3 1.1.5 1.1M871.7 370.2c.5-.8.7-1.5.7-2.2M873.6 362.6c.8-1.3 1.5-2.9 2-4.6M872.4 366.6c-.5-.1-1.2.9-1.6 2.3-.2.5-.2 1-.3 1.5M872.8 367.6c0-.5-.2-.9-.4-1M873 350.5c-1 1.3-2 3.4-2.6 5.7-.6 2.3-.8 4.4-.6 5.9"/>
    <path class="st1"
        d="M815.3 440.5h-.2.2zM815.8 441.7c0-.7-.2-1.1-.4-1.2M813.3 435.1l.5.3c1.4.4 3.4-2.6 4.6-6.6M814.2 441.3c.4-.5.7-1.2.9-1.8M813.3 445.8c.2.4.5.5.8.2M815.2 437.5c-.5-.1-1.2.9-1.6 2.2-.2.6-.3 1.1-.3 1.5M815.6 438.4c0-.6-.2-.9-.4-1M817.8 434.8l-.5.2M818.3 437.6c0-1.8-.1-2.8-.5-2.8M817.4 441.2c.5-.6.8-1.7.9-3M813.5 444.6c0 .4.1.6.3.7.4.1 1-.6 1.3-1.6.3-.6.3-1.2.3-1.6M818.1 433.9c-.6-.1-1.5 1.4-1.8 3.3-.1.7-.1 1.3-.1 1.9M818.7 436.5c.1-1.5-.2-2.5-.6-2.6M816.2 441.7c.1.7.5.9.8.6M815.3 422.1c-1 1.7-1.8 3.8-2.3 6M780.9 464.6c-1 1.7-1.8 3.8-2.2 6M769.5 478.8c-1 1.6-1.8 3.7-2.3 5.9M757.7 508.7c-.5-.2-1.3.9-1.7 2.5-.2.7-.3 1.4-.3 1.9M758.1 509.9c0-.7-.2-1.1-.4-1.2M755.8 505.3c.4.9 1 1 1.7.6M758.9 512.3c0 .4.1.6.3.6.4.1 1-.8 1.3-1.9.1-.6.2-1.1.2-1.5M760.5 507.8c-.3-.1-.8.4-1.2 1.2M761 509.2c0-.8-.2-1.3-.5-1.4M758.1 492.9c-1 1.7-1.8 3.8-2.3 6M777.7 487.1c-1.3-.3-3.2 2.5-4.2 6.3s-.8 7.2.5 7.5h.2M778.8 490.2c0-1.8-.4-2.9-1.1-3.1M944.8 350.3c.5-1.3.9-2.6 1.1-3.9M746.7 507.1c-1 1.7-1.8 3.7-2.3 5.9M735.8 520.4c-1.1 1.3-2.1 3.4-2.6 5.7-.8 2.7-.9 5.2-.5 6.8M712.4 549.6c-1 1.6-1.8 3.7-2.3 5.9M700.9 563.7c-1 1.6-1.8 3.8-2.3 6M698.7 576.1c.2.5.5.8.8.8 1.4.4 3.4-2.5 4.6-6.6M703.5 575.7c-.6-.1-1.4 1.4-1.8 3.3-.1.7-.1 1.3-.1 1.9M704.2 578.3c.1-1.5-.2-2.5-.7-2.6M700.8 579.1c-.5-.1-1.3 1-1.7 2.5-.2.7-.3 1.4-.3 1.9M701.2 580.3c0-.7-.1-1.1-.4-1.2M703.4 576.5l-.5.3M703.9 579.3c.1-1.8-.1-2.8-.5-2.9M702.9 583c.5-.6.8-1.7.9-2.9M709.8 584.1c-.6-.2-1.3.1-1.9.7M710.8 585.2c-.3-.6-.6-1-1-1M695.8 599.7c-1.3 1.6-2.5 4.2-3.3 7.1-.6 2.2-.9 4.3-.9 6M691.7 647.1c0 3.6 1.3 5.2 3 4M690.1 577c-1.1 1.3-2 3.4-2.6 5.7s-.8 4.4-.7 6M678.7 591.2c-1.1 1.4-2 3.5-2.6 5.7s-.8 4.4-.7 5.9M667.2 605.3c-1.1 1.3-2 3.5-2.6 5.7-1 3.7-.9 7 .1 8M655.2 620.3c-1.1 1.7-1.8 3.7-2.3 6M645 645.7c.8-1.4 1.5-3 2-4.6M644.6 653.8c.1.3.1.5.3.6.4.1.9-.7 1.3-1.9.2-.5.2-1.1.2-1.5M646.4 649.3c-.3-.1-.8.3-1.2 1.1M646.8 650.6c0-.8-.2-1.3-.5-1.3M643.8 634.5c-1 1.6-1.8 3.8-2.3 6M632.9 647.8c-1 1.3-2 3.4-2.6 5.7-.7 2.7-.9 5.2-.5 6.8M621 662.8c-1.1 1.6-1.9 3.8-2.3 6M611.7 745.7c-1.2-.3-2.9 2.1-3.8 5.6-.9 3.4-.7 6.4.5 6.7.5.2 1.1-.2 1.7-.9M612.8 748.5c0-1.7-.4-2.6-1-2.8M610.1 676.1c-1 1.3-2 3.4-2.6 5.8-.9 3.2-.9 6.1-.3 7.5M598 691.1c-1 1.7-1.8 3.8-2.3 6M587.8 716.4c.8-1.3 1.5-2.9 2-4.6M588.7 724.4c.7-.9 1-2.6 1-4.8M589.4 717c-.7-.1-1.4 1.3-1.8 3.3-.1.7-.2 1.3-.1 1.9M590.1 719.6c.1-1.5-.2-2.5-.7-2.6M586.7 705.2c-1 1.7-1.8 3.8-2.3 6M583.8 780.3c-1.2-.3-2.9 2.2-3.8 5.5-.9 3.4-.7 6.4.5 6.8.5.1 1.1-.2 1.7-.9M584.9 783.1c0-1.7-.4-2.6-1.1-2.8M575.2 719.4c-1 1.7-1.8 3.7-2.3 5.9M567.9 800c-1.2-.3-2.9 2.2-3.8 5.6-.9 3.4-.7 6.4.5 6.8.5.1 1.1-.3 1.7-1M569 802.8c0-1.7-.4-2.6-1.1-2.8M563.8 733.5c-1 1.6-1.8 3.8-2.3 6M552.9 746.9c-1 1.3-2 3.4-2.6 5.7-.7 2.7-.9 5.2-.5 6.8M541.5 761c-1 1.3-2 3.4-2.6 5.7-1 3.6-.9 6.9.1 8M529 797c0 .3.1.5.3.6.4.1 1-.7 1.3-1.9.1-.5.2-1.1.2-1.5M530.7 792.5c-.3-.1-.8.4-1.2 1.1M531.1 793.9c0-.8-.2-1.3-.5-1.4M530 775.2c-1 1.3-2 3.5-2.6 5.7-.6 2.3-.8 4.4-.6 5.9M519.2 788.7c-1.3 1.2-2.5 3.6-3.2 6.4-.5 1.7-.7 3.4-.7 4.8M507.8 802.9c-1.3 1.1-2.4 3.6-3.2 6.4-.5 1.8-.7 3.4-.7 4.8M516.2 823.9c-.8-.3-1.7.3-2.6 1.4M517.1 825c-.2-.6-.5-.9-1-1M485.5 830.8c-1.4.7-2.9 3.5-3.8 6.7-.3 1.3-.6 2.6-.7 3.6M928 284c-.8 2.4-1.2 4.6-1.1 6.4M932.2 292.6c-.6-.1-1.4 1.4-1.7 3.3-.1.5-.1.9-.1 1.3M932.9 295.2c.1-1.5-.2-2.5-.7-2.6M931.6 299.9c.7-1 1-2.6 1-4.8M904.7 382.3l3.7.9M834.9 444.6l3.7 1M931.3 344.3l4.1 1.1M796.3 451.9l-4.1-1.1M819.2 423.6l-4.1-1.1M815.3 441.5l.5.2M814.8 440.4l.3.1M814.9 440.4l.6.2M817 434.9l.4.1M814.9 438.2l.7.2M814 438.6h.4M818.7 436.5h-.4M816.5 439.3l-.4-.1M815.1 440.5l.2-.4M817.4 442l-.7-.1M813.2 445.1h.1M813.8 445.3l-.6-.2M817.1 441.4l.3-.2M814.4 445.7l-.7-.2M814.7 445.3l-.3.4M813.3 441.2l.4-.4M813.4 440.7l.3.1M807.8 437.8l-4.2-1.1M830.6 409.5l-4.1-1.1M842 395.4l-4.1-1.2M853.5 381.2l-4.2-1.1M871.7 367.8l-.5-.1M872.8 367.6l-.7-.2M875.4 366.9l.5.2M873 370.9l-.5-.2M873.4 370.6h-.1M874 370.8l-.7-.2M874.5 371.3l-.7-.2M873.9 366.7h.1M873.9 366.7l.3.1M874.1 364.5l.3.1M873.9 366.8l.7.1M875.2 362.9l.5.1M876.3 352.8l-4.1-1.1M872 369.6l.3.1M872.7 369.8l-.7-.2M870.4 374.3l.6.2M870.4 374.3h.1M871.7 374.8l-.7-.1M871.9 374.5l-.2.3M870.5 370.4l.4-.5M870.6 369.9h.3M860.8 365.9l4.1 1.1M887.8 338.7l-4.2-1.1M899.2 324.6l-4.1-1.2M745.2 567.3l4.1 1.1M908.7 346.5l-4.1-1.1M903.8 358.3l.5-.2M902.1 354.8v1M904.7 363.8l3.7.9M757.9 493.3l4.1 1.1M756.2 516.6l-.2.2M756.1 516.5l.3.1M759.4 509l-.3-.1M761 509.2l-.4-.1M759 513.2l.7.2M758.5 512.8l.7.2M758.5 512.8h.2M757.1 513.4h.2M759.1 508.9l.7.2M756.9 509.9l-.4-.1M757.6 509.8l.5.1M756.7 509.4l.8.2M760.9 505.2l-.5-.2M746.4 507.4l4.2 1.2M735 521.6l4.2 1.1M723.6 535.8l4.1 1.1M712.2 549.9l4.1 1.1M700.7 564l4.2 1.2M677.9 592.3l4.1 1.2M666.4 606.5l4.2 1.2M655 620.7l4.1 1.1M643.6 634.8l4.1 1.1M620.7 663.1l4.2 1.1M609.3 677.3l4.1 1.1M597.9 691.4l4.1 1.1M586.4 705.6l4.2 1.1M575 719.8l4.1 1.1M563.5 733.9l4.2 1.1M552.1 748.1l4.1 1.1M540.7 762.2l4.1 1.1M529.3 776.3l4.1 1.2M530.7 793.7l.4.2M529.5 793.6l-.3-.1M529.2 793.5v.1l.7.1M529.2 797.6l-.6-.1M529.8 798.1l-.7-.2M529.7 791.4l-.3-.1M530.5 789.7l.5.1M517.8 790.6l4.2 1M506.4 804.7l4.1 1.1M495 818.9l4.1 1M483.5 833l4.2 1.1M526.9 787.7l-.1-.9M585.7 728.1l.3.2M588.1 724.9l.6.2M588.7 718.1l-.4-.1M585.4 722v-.3M587.8 722.4l-.3-.1M590.1 719.6l-.4-.1M585.1 722.8l.6-.7M585.3 722l.4.1M642.8 657.9l-.3-.1M646.4 650.5l.4.1M644.8 650.3l.4.1M642.2 651.4v.2M642.1 651.6l.4.1M644.9 650.3l-.1.1.7.1M644.8 654.7l.7.2M644.9 654.4l-.6-.1M645 648.1l.4.1M641.9 652.5l.6-.8M636.3 650.1l-4.1-1.1M646.1 646.5l.6.1M702.5 576.7l.4.1M702.2 583.6l.7.2M700.4 583.9l-.2-.1M699.9 579.8l.7.2M699.1 583.1l-.3-.1M693.4 579.3l-4.1-1.1M701.2 580.3l-.5-.1M699.7 580.2l.3.1M701.9 581.1l-.3-.1M703.9 578.2l.3.1M699.2 587l.3.1M700.7 585.5l.6.1M699.1 587.1l.2-.1M702.6 583.2l.3-.2M698.8 583.5l.3-.4M756 512.6h-.3M758.1 515.2l-.5-.2M759.3 506.7l.3.1M755.7 513.1l.3-.5M784.9 466.1l-4.1-1.1M773.5 480.3l-4.2-1.2M775.1 489.2l3.7 1M788.8 495.5l3.7 1.1M804.8 492.5l3.8 1M807.1 490.3h.4M824.8 482.4l-3.8-1M819 473.7l-3.8-1.1M834.6 467l3.7 1M554.4 802.6l1.5.5M616 726.4l1.6.4M677.6 650.1l1.6.4M569 802.8l-3.4-.9M584.8 783.1l-3.3-.9M612.8 748.5l-3.3-.9M906.5 309.3l4.1 1.1M922 296.3l-4.1-1.2M931.6 300.6l-.7-.1M929.5 300.6l-.4-.1M929.9 300.8l-.6-.2M929.5 301.3l-.5-.1M927.4 304l1.7-2.3M928.6 301.6l.5.1M929.5 295.5v5.1M927.7 302.5l.2-.2M927.7 302.3l.3.1M929.1 297.8v3.2M929.1 297.8l-.2-.1M929.1 297.8l-1.1 4.6M935.1 303.4l-3.7-1M929.5 303l-.4-.1M932.5 295l.4.2M933.5 282.1l-4.1-1.1M931.1 293.6l.5.1M926.8 290.3l.1 1.1M930.6 297.9l-.3-.1M458.2 864v60.7M468.8 927.6l-10.6-2.9M905.4 344.2l-.6.8M932.6 251.4l10.9 3M471.6 838.6l-10.8-2.9M947 274.6l-1 1.2M870.4 374.2l.3-.4M873.3 370.6l.4-.4M874.3 371.5l.2-.2M873.3 370.6l.1.5M813.2 445.1l.3-.5M814.2 442v-.7M814.4 445.7l-.2.3M818.3 438.2v-.6M817.4 442l-.3.3M815.8 421.3l-.5.8M781.6 463.8l-.7.8M770.1 477.9l-.6.9M758.5 512.8l.1.4M758.5 512.8l.4-.5M758.1 505.6l-.5.4M758.1 514.4l-1.7 2.2M758.7 492.1l-.6.8M777.5 496.7l140-173.3v61.4M747.2 506.3l-.5.8M712.9 548.7l-.5.9M699.5 587.1l1.8-2.3M701.5 562.9l-.6.8M701.6 581.5v-.6M703.8 580.1l.1-.8M691.7 647.1v-34.3M655.8 619.5l-.6.8M644.6 653.8l-.3.5M642.5 658.4v-6.7M644.4 646.5l.6-.8M644.4 633.7l-.6.8M621.5 662l-.6.8M598.6 690.3l-.6.8M585.7 722.1v6.6M587.2 717.3l.6-.8M587.2 704.4l-.5.8M575.8 718.6l-.6.8M564.3 732.7l-.5.8M701 652.8l-147.1 182.1M528.6 797.4l.4-.4M929.1 301l-1.1 1.4M929.1 303.4v-1.7M817 441.5l-.8-.2M814.2 442s.5-.6 1-.6M817.9 434.8l-.7-.2M814.3 438.1l.7.2M814.9 438.3l-.1-.7M814.3 441.2h.2l.7.2c.2.5.1.2.2.7M816.9 441.5l-.5.6M814.9 440.4l.2 1M817.7 434c.2.5.1.3.2.8M816.5 438.4c0 .8 0 1.5.1 2.3M813.9 445.3l-.6.5M813.3 435.1c-.7-1-.8-2-.8-3.1M872.1 367.5l-.1-.7M872.4 370.6c-.5.1-.9.6-.9.6M874 370.8l-.5.6M875.2 366.5l-.7-.2M872.2 367.5l-.7-.2M871.5 370.4h.3l.7.2c.3.5.2.3.3.7M875.5 367.4l-.2-.8-.3-.1c-.6.4-.9 1.2-1.3 1.8M875.1 366.5l-.1-.7M874.2 366.8l.3-2.1c1.4-3.7 1.3-.2 1.3-2.4M875.6 368.8c.1-.6.2-1.2.2-1.8M872 369.6l.3 1M871.1 374.5l-.5.5M870.5 364.3c-.5-.7-.6-1.3-.8-2.1M760.4 508.7l-.7-.2h-.1M758.7 513.6l.5-.6M758.9 510.5c.3-.6.7-1.7 1.5-1.8 0 0 .3.4.3.9M760.2 507.9l.1.8M529.7 793.2l.7.1M530.2 792.6l.2.7M529.3 797.6l-.5.6M529 795.2c.3-.5.7-1.7 1.5-1.8 0 0 .3.5.3.9M529.5 793.6l.2-2.2c1.4-3.7 1.3-.2 1.3-2.3M588.3 724.6l-.8-.2M588.3 724.6l-.6.6M588.5 717.7l.8.2M585.7 728.7c1-1.2.3-.2.3-3.4v-4.3M586.1 718.3c.8-.5.4-.2 1.1-1M587.8 723.4v-1.9M588.7 724.4l-.4.2M589.1 717.1c.2.5.1.3.2.8M646.1 650.2l-.7-.3v.1M644.5 655l.5-.6M646.4 651l-.2-.8-.3-.1c-.6.4-.9 1.1-1.3 1.8M646 649.4l.1.8M641.8 647.4c-.7-1-.7-2-.8-3.2M642.5 658.4c1-1.2.3-.3.3-3.4v-4.4M643.2 647.5c.8-.5.4-.2 1.1-1.1M645.2 650.4l.2-2.1c1.5-3.7 1.3-.3 1.3-2.4M703.4 576.6l-.8-.2M702.4 583.3l-.5.6M700.5 580l-.1-.8M698.7 576.1c-.3-.9-.4-1.7-.4-2.6M701.7 583.1l.7.2M698.7 588.8l2.6-3.2v-.8M699.5 587.1c.7-2.2 1.6-4.4 1.7-6.8M701.6 581.5v1.1M702 580.1c-.1.8-.1 1.5 0 2.3M703.2 575.8c.2.5.1.3.2.8M757.3 508.8l.1.8M755.5 518.3l2.6-3.1v-.8M760.9 504.4c0 2.1.1-1.3-1.3 2.3l-.2 2.2M756.4 516.6c.7-2.2 1.6-4.4 1.7-6.8M755.3 502.6c.1 1 .1 1.8.5 2.7M778.4 476.3c-.2-1.3-.1-.6-.2-2M837.3 473.8c-.5 1.4-1.1 2.6-1.9 3.8M555.9 793v10.1l-1.8 2.3-17.7 21.9-2 2.4M617.6 716.7v10.1l-2 2.3-21.9 27.2-1.8 2.3M679.2 640.4v10.1l-1.9 2.4-22 27.1-1.9 2.4M568 807.9c-.4 1.2-1 2.3-1.7 3.4M583.9 788.3c-.5 1.2-1 2.3-1.7 3.4M611.8 753.7c-.5 1.2-1 2.3-1.7 3.4M930.6 300.8l.5-.7M930.4 299.9l.7.3M929.1 303.4c.9-1-.1.4.3-2.1.6-3 .5 2.2.5-1.3M932.1 293.4l-.2-.8M931.4 293.2l.7.2M930.6 298.9v-1.9M931.6 299.9l-.5.3M904.3 358.1c.8-.5 1.2-1.1 1.7-1.8M902.5 351c-.2 1.3-.4 2.4-.4 3.8M945.1 253.5l-.3-.1c-1.4.5-2.4 2.4-3.1 3.3l-468.1 579.6-1.9 2.3M946 255.3v20.5M460.8 835.7l1.8-2.3 468.1-579.6c.4-.5 1.8-2.6 2.8-3.1l.8-.1 2.9.8 5.1 1.4 2.9.8M875.7 362.3l-1.5 1.9-.4 4.2M870.9 375.3l.8-.5M871.7 370.2c-.3.4-.2.2-.2 1M815.1 439.5l.1-.6M813.3 445.8l-.2-.7M816.2 441.7c-.1-.9-.1-1.8-.1-2.6M813 428.1c-.2 1.3-.4 2.5-.5 3.8M778.7 470.5c-.3 1.3-.4 2.5-.5 3.8M767.3 484.7c-.3 1.3-.4 2.5-.5 3.8M760.9 504.4l-1.6 1.9-.4 4.2M758.7 505c.9-1.3 1.6-2.6 2.1-4.2M757.8 510.4c-.1.9-.3 1.7-.5 2.6l-1.7 5.4M755.8 498.9c-.2 1.3-.4 2.5-.5 3.7M768.2 569.5v-61.3l1.9-2.4 2.2-2.6 1.9-2.3M944.8 350.3c-.8 1.8-1.9 3-3.1 4.6l-192.1 237.8-1.9 2.4M947 335.9l-1 1.2v3c0 2.1.1 4.2-.2 6.3M744.4 513c-.3 1.3-.4 2.5-.5 3.8M710.1 555.5c-.2 1.3-.4 2.5-.5 3.8M698.7 569.6c-.3 1.3-.4 2.5-.4 3.8M698.7 588.8l.9-2.9.2-.7c.5-1.5 1-2.9 1.1-4.4M702.2 584.2c-.5-.3-.5-1-.5-1.6M695.8 599.7l1.9-2.4 7.7-9.4 1.9-2.4.6-.7M679.2 640.4l-1.9 2.4-22 27.2-1.9 2.3v10.1M652.9 626.3c-.3 1.3-.4 2.5-.5 3.8M643.2 647.5l-.5.2c-.7-.1-.3.1-.9-.3M642.8 650.6c-.9 1.1-.6.5-.9 1.9M644.7 652l.4-4.2 1.6-2M641.5 640.4c-.3 1.3-.4 2.5-.5 3.8M618.6 668.7c-.3 1.3-.4 2.5-.5 3.8M595.8 697c-.3 1.3-.4 2.5-.4 3.8M617.6 716.7l-2 2.4-21.9 27.2-1.8 2.3v10M585.1 718.4c.7.1.3.1 1-.2M586 720.9c-.9 1.1-.6.5-.9 1.9M588.7 718.1l.4-.3.4.3s.2 1 .2 1.3M587.5 724.4c-.1-.8-.1-1.5-.1-2.2M584.4 711.2c-.3 1.2-.4 2.5-.5 3.7M572.9 725.3c-.2 1.3-.4 2.5-.4 3.8M561.5 739.5c-.3 1.3-.4 2.5-.5 3.8M555.9 793l-1.8 2.3-22 27.2-1.9 2.3v3.7M531 789.1l-1.6 1.9-.4 4.2M531.2 786.2c-.6 1.1-1.2 2.1-2.3 2.8M513.5 825.4l-1.9 2.3-7.7 9.5-1.8 2.3-.7.9c-1.1 1.7-1.9 3.6-2.4 5.6M928 283.9c.6-1.5 1.2-2.9 2.1-4.2M930.2 292.6c.9-1.3 1.5-2.6 2.1-4.2M929.6 293.3c-.8.5-.4.3-1.1.6l-.5-.1M929.5 295.5h-.1l-.7 2.9-.6 2.6-.7 3M930.3 297.1v1.8M931.6 293.7l.4-.3.3.3s.2.9.2 1.3M26.4 721.6c-.4.5-.8 1.4-1 2.2-.2.7-.3 1.3-.3 1.8M25.5 816.6c.3.9.7 1.4 1.2 1.4M40.4 720.7c-.5-.1-1.3.4-1.9 1.3M41.4 722.8c-.1-1.3-.5-2-1-2.1M77.4 669.4l-3.7 4.6M72.3 667.5l-3.5 4.3M52.5 700.2l.8-.9M47.1 696l5.4 1.5M52.5 700.2v-2.7M26.4 721.6l5.5 1.5M30.6 727.1l-5.5-1.5M30.6 771.3l-5.5-1.5M25.1 725.6v44.2M47.1 696l-20.7 25.6M25.1 801.1l5.5 1.5M25.1 814l5.5 1.5M31.5 819.3l-4.8-1.3M52.5 697.5l-1.9 2.3-16.8 20.8c-1.3 1.6-2.3 2.6-2.9 4.5M30.6 771.3v-41.1c0-1.3 0-2.5.1-3.8M30.6 802.6v9.8c0 1.5 0 3 .1 4.4M25.5 816.6c-.5-1.8-.3-3.7-.3-5.5v-6.9c0-3.2-.6-2.2.4-3.5M922.3 952.6c-1.3 1.7-2.5 4.3-3.3 7.1-.6 2.2-.9 4.3-.9 6M918.1 1000.1c0 3.7 1.3 5.2 3.1 3.9"/>
    <path class="st1"
        d="M898.5 1025.3c-1.1-.3-2.8 2.2-3.7 5.5s-.7 6.3.5 6.6c1.1.3 2.8-2.1 3.7-5.5.9-3.3.6-6.3-.5-6.6zM898.5 951.7c-1.1-.3-2.8 2.2-3.7 5.5s-.7 6.3.5 6.6c1.1.3 2.8-2.1 3.7-5.5.9-3.3.6-6.3-.5-6.6zM884.5 949c-.9 1.7-1.7 3.7-2.4 5.7M880.8 1046.9c.3.8.8 1.3 1.3 1.4M892.1 952.1c-.7 1.5-1.3 3.1-1.8 4.7M888.6 1046.4c0 2.4.6 3.8 1.5 4 .7.2 1.5-.3 2.3-1.3M927.6 897.8l-3.5 4.3M922.3 952.6l6.9-8.5M918.1 1000.1v-34.4M896.2 1027.2l3.3.9M894.4 948.6l-8.2-2.2M899.5 954.5l-3.3-.9M888.6 966.7l-8.2-2.2M888.6 1046.5l-8.2-2.3M890.2 1050.5l-8.2-2.2M902.3 926.3l8.2 2.3M905.7 1032.7l-13.2 16.4M911.3 1023.1c-.8 1-.8.5-.8 1.2M884.5 949c1-1.8 2.2-3.3 3.6-4.9l12.4-15.4 1.8-2.3M880.8 1046.9c-.5-1.9-.3-3.8-.3-5.6v-73.7c0-1.8 0-3.6.1-5.3.2-2.6.8-5.1 1.6-7.6M892.1 952.1c1.2-2.2 2.5-4 4.1-5.9l12.4-15.4 1.8-2.3M888.6 1046.5v-76.7c0-1.8 0-3.6.1-5.3.2-2.6.8-5.1 1.6-7.6M852.3 867.8c-.3-.1-.7-.2-1-.2-1.4 0-2.4.7-2.4 1.5 0 .5.6 1.1 1.4 1.3M853.8 869.1c0-.6-.6-1-1.5-1.3M850.3 870.4c.3.1.7.1 1 .1 1.4 0 2.5-.7 2.5-1.4M824.7 860.4c-1.1-.2-2.3.1-2.9.7M826.5 861.8c0-.7-.8-1.2-1.8-1.4M821.9 861.1c-.2.2-.3.5-.3.7 0 .8 1.2 1.4 2.5 1.4 1.4 0 2.5-.6 2.5-1.4M871.8 867.8c0-1.7-1.8-3.2-4.3-3.9M820.6 851.2c-1.1-.3-2.2-.4-3.2-.4-3 0-5.6 1-6.8 2.5M852.3 870.4v-2.6M825.1 860.5v2.6M729.6 953.9v4.6M736.4 955.8v4.6M729.6 958.5l6.8 1.9M736.4 960.3h.1M871.1 874.6v-4.9M820.6 851.2l46.9 12.7M759.8 916.2l50.7-62.8M783.4 968.4v4.6M790.2 970.3v4.5M783.4 973l6.8 1.8M790.2 974.8M871.8 867.8c-.1 1.7-1.5 2.9-2.6 4.2l-29.8 37-1.9 2.3M871.8 867.8v4.9c0 1.7-1.6 3.1-2.6 4.2l-26.5 32.8-1.9 2.3M1005.4 659.5c-1.5-6.7-5.9-13.1-11.7-17.7-10.8-8.7-24.4-10-32.3-3.6M1014.9 647.6c-1.6-6.8-6-13-11.7-17.7-11.6-9.4-26.6-10.3-33.9-2.1M1005.4 659.5l5.7 24.7M969.2 627.8l-8.1 10M1020.6 672.4l-5.7-24.7M440 799.9c4.9-5.7 3.1-15.2-3.9-21.2-4.4-3.8-9.9-5.2-14.6-4.4M435.7 803c1.8-.7 3.3-1.8 4.3-3.1M432.4 802.1l10.1-12.5M403.7 769.5l-8.1-2.1M377.9 762.6l-38.2-10.3M322 747.6l-6.8-1.9M297.5 740.9l-38.1-10.2M241.7 726l-6.8-1.9M217.2 719.5l-3 .5-13.9 3-2.9.6-1.9 2.3-6.4 7.9-1.9 2.4M383.6 479.3c-1-1-2.1-1.9-3.1-2.7-11.9-9.5-27.3-10.1-34.4-1.3l-.3.4M398 473.5c-2.2-3.4-5-6.4-7.9-8.6-11.6-9.3-26.4-10.1-33.8-2.1M398.1 519.2l-4.9-21.3M407.7 507.4l-3.3-14.2M356.4 462.8l-1.9 2.3-6.7 8.3c-1.3 1.6-2.6 3-3.5 4.9-.7 1.6-1.1 3.2-1.6 4.8M554.4 794.9v7.7l-1.9 2.3-17.7 22-1.9 2.3M677.6 642.3v7.7l-1.9 2.4-20.4 25.3-1.9 2.3M616 718.6v7.7l-1.9 2.3-20.4 25.3-1.8 2.4M898.5 976.3c-1.6 1-3.2 4-4.2 7.6-.5 2-.8 4-.8 5.5M901.9 977.1c-1.6-.4-3.9 3-5.1 7.6-1.3 4.5-.9 8.7.6 9.1.4.1.9 0 1.3-.4M902.8 978c-.2-.5-.6-.8-.9-.9M901.7 976.6c-1.7-.4-4.1 3.1-5.4 7.9-1.3 4.7-1 8.9.6 9.5"/>
    <path class="st1"
        d="M901.8 976.7zM896.9 994c1.8.5 4.3-3 5.6-7.8 1.3-4.7.9-9-.8-9.5M898.9 976.1c-1.4.1-3.4 3.1-4.5 6.8-.9 2.6-1.2 5.1-.9 6.6M880.4 986.5l-7.4-2M880.4 984.1l-7.9-2.2M880.4 974l-4.3-1.1M896 990l-.5.1-2-.6M896.9 994l-2-.5c-.5-.1-1-1-1-1-.5-1-.6-2.1-.6-3.2M898.9 976.1c1-.2 1.8.3 2.9.5M893.9 992.5c-.3-1-.4-1.9-.4-3M25.1 743.8l-4.3-1.2M25.1 756.2l-7.4-2M25.1 753.8l-7.9-2.2M215.3 708.3c-1 .8-.9 2.6.3 4.1l.6.6"/>
    <path class="st1"
        d="M215.4 708.2l-.1.1.1-.1zM215.7 706.3c-2.9 1.7-2.8 4.6-.1 7.3M214.7 709.8l.7-.6M214.6 707.2c.4-.3.8-.4 1.3-.5M215.7 713.6l.6.6h.2M322.1 727.8c-1.3 1.1-1.9 2.4-1.9 3.6M322 736.8c0 2.8 3.9 5 8.7 5 4.8 0 8.7-2.2 8.7-5M325.7 735.9c0 .9 2.5 1.4 5.5 1.4 1.6 0 3.1-.2 4.1-.5M326.2 742.3c3.6 1 7.6.7 10.7-.5M341.3 736.3c-.1-.8-.4-1.5-.9-2.1M327.2 765.8c1.2.3 2.4.4 3.5.3 5.7 0 10.4-2.6 10.5-5.8M320.2 758.9c-.5 3.4 2.2 5.9 7 6.9M326.3 739.1c3.6.9 7.6.6 10.6-.6M341.3 730.8c-.1-1.1-.8-2.1-1.8-3M338.3 728.1c0-1.2-.9-2.4-2.3-3.1M325.5 725c-1.5.9-2.3 2-2.3 3.1 0 2.4 3.4 4.4 7.6 4.4s7.5-1.9 7.5-4.4"/>
    <path class="st1"
        d="M336 720.1v-.2.2zM325.5 720.2c.1 1.6 2.4 2.9 5.2 2.9 2.9 0 5.2-1.3 5.2-3M335.2 719.5c0-1.4-2-2.7-4.4-2.7-1.5 0-2.9.4-3.6 1M326.7 718.4c-.3.3-.4.7-.4 1 0 1.5 2 2.7 4.4 2.7s4.4-1.1 4.5-2.6M327.2 717.9c-1 .6-1.6 1.3-1.6 2.1M325.5 727.2c.1 1.6 2.4 2.9 5.2 2.9 2.8 0 5.1-1.3 5.2-2.9M336 719.9c-.1-.8-.7-1.5-1.6-2.1M335.3 719.5c0-.8-.5-1.4-1.4-1.9M333.5 717.4c-.8-.3-1.8-.5-2.8-.5-2.5 0-4.5 1.2-4.5 2.6 0 1.4 2 2.6 4.5 2.6s4.5-1.2 4.5-2.6M337.2 727.1c0-.8-.4-1.5-1.2-2.1M325.5 725c-.8.7-1.2 1.4-1.2 2.1 0 2 2.9 3.7 6.4 3.7 3.6 0 6.4-1.7 6.4-3.7M320.9 734.7c-.4.7-.7 1.4-.7 2.1M302.7 759.2c1.2.2 2.4.3 3.6.3 5.7 0 10.3-2.6 10.5-5.9M295.7 752.3c-.5 3.4 2.3 5.8 7 6.9M316.7 729.7c-.1-.7-.4-1.4-.9-2M316.7 729.7l.1-.1M301.2 729.3c0 .9 2.5 1.5 5.5 1.4 1.6 0 3.1-.3 4.1-.6M301.8 735.7c3.6.9 7.6.7 10.6-.6M304.1 735.1c.7.1 1.5.1 2.1.1 4.8 0 8.7-2.3 8.7-5M297.5 729.1c-.6 3.1 2.1 5.3 6.6 6M296.4 728.1c-.5.7-.7 1.5-.7 2.1M316.7 724.2c-.1-1.1-.8-2.2-1.8-3M301.7 732.5c3.6 1 7.6.7 10.7-.6M312.6 720.5c0-.8-.4-1.5-1.1-2.1M301 718.4c-.8.7-1.2 1.4-1.1 2.1 0 2 2.9 3.7 6.4 3.7s6.4-1.7 6.4-3.7M313.8 721.5c0-1.2-.9-2.3-2.3-3.1M300.4 718.9c-1.2.8-1.7 1.8-1.7 2.8 0 2.4 3.4 4.3 7.6 4.3s7.5-2 7.5-4.4"/>
    <path class="st1"
        d="M311.5 713.5zM301 713.7c.1 1.6 2.5 2.9 5.2 2.9 2.9 0 5.3-1.3 5.3-3M310.5 712c-.2-.4-.7-.7-1.1-1M310.7 712.8c0-.3-.1-.6-.2-.8M309.9 711.3c-.9-.7-2.3-1.1-3.7-1.1-2.4.1-4.4 1.3-4.4 2.7 0 1.5 2 2.6 4.5 2.6 2.4 0 4.4-1.2 4.4-2.7M311.5 713.4c-.1-.8-.7-1.5-1.6-2.1M301 720.6c.1 1.6 2.5 2.9 5.2 2.9 2.8 0 5.1-1.3 5.3-2.9M302.6 711.3c-1 .5-1.5 1.3-1.6 2M310.7 712.9c0-1.4-2-2.6-4.5-2.6-1.1 0-2.1.2-2.9.5M303 711.1c-.9.5-1.3 1.2-1.3 1.8 0 1.4 2.1 2.6 4.5 2.6 2.5 0 4.5-1.2 4.5-2.6M297.6 721.2c-1.3 1-1.9 2.3-1.9 3.6M376.7 749.7c-.5.7-.7 1.4-.6 2.1M382.2 751.8c3.5.9 7.5.7 10.5-.6M407.9 764.3c3.6 1 7.6.7 10.7-.6M407.4 757.9c0 .9 2.5 1.5 5.5 1.4 1.6-.1 3.1-.3 4.1-.6M423 758.3c-.1-.7-.5-1.5-.9-2"/>
    <path class="st1"
        d="M423 758.3zM402 781.9v.2c0 3.4 4.7 6.1 10.5 6.1 5.7 0 10.3-2.6 10.5-5.9M402.6 756.7c-.5.9-.7 1.8-.6 2.6M420 750.2c0-1-.7-2-1.7-2.7M406.7 747.4c-1.1.9-1.7 1.8-1.7 2.7 0 2.4 3.3 4.4 7.5 4.4s7.5-1.9 7.5-4.4"/>
    <path class="st1"
        d="M417.7 742.1v-.2.2zM407.2 742.3c.1 1.6 2.4 2.9 5.2 2.9 2.9 0 5.2-1.3 5.2-3M416.7 740.6c-.3-.4-.6-.7-1.1-1M416.9 741.4c0-.3-.1-.5-.2-.8M416.1 739.9c-.9-.7-2.3-1.1-3.6-1-2.5 0-4.4 1.3-4.4 2.7 0 1.5 2.1 2.6 4.5 2.6 2.5 0 4.4-1.2 4.4-2.7M417.7 741.9c-.1-.8-.7-1.5-1.6-2.1M407.2 749.2c.1 1.6 2.4 2.9 5.2 2.9 2.9 0 5.1-1.3 5.2-2.9M408.9 739.9c-1 .6-1.6 1.3-1.6 2.1M417 741.5c0-1.4-2.1-2.6-4.5-2.6-1 0-2.1.3-2.8.6M409.2 739.7c-.8.5-1.3 1.2-1.3 1.8 0 1.5 2 2.6 4.5 2.6s4.5-1.2 4.5-2.6M418.9 749.1c0-.8-.4-1.5-1.1-2.1M407.2 747c-.8.6-1.2 1.4-1.2 2.1 0 2.1 2.9 3.7 6.4 3.7s6.4-1.7 6.4-3.7M408 761.1c3.6 1 7.5.7 10.5-.5M423 752.8c-.1-1.1-.8-2.2-1.8-3M410.3 763.7c.7.1 1.5.1 2.1.1 4.8 0 8.7-2.2 8.7-5M403.8 757.7c-.6 3 2.1 5.3 6.6 6M403.9 749.8c-1.3 1.1-1.9 2.4-1.9 3.6M382.1 757.3c3.5 1 7.6.7 10.6-.5M383 780.9c1.2.3 2.4.3 3.6.3 5.7 0 10.3-2.6 10.5-5.8M376.1 774c-.5 3.4 2.2 5.8 7 6.9M397.1 751.4c-.1-.7-.5-1.4-.9-2"/>
    <path class="st1"
        d="M397.1 751.4zM394.1 743.3c0-1.1-.7-2.1-1.7-2.8M380.8 740.5c-1.1.8-1.7 1.7-1.7 2.7 0 2.4 3.4 4.3 7.6 4.3 4.1 0 7.5-1.9 7.5-4.3"/>
    <path class="st1"
        d="M391.8 735.1zM381.4 735.3c.1 1.6 2.5 2.9 5.3 2.9 2.9 0 5.2-1.3 5.2-3M390.9 733.6c-.2-.4-.7-.7-1.1-1M391.1 734.4c0-.3-.1-.6-.2-.8M390.2 732.9c-.8-.7-2.3-1.1-3.6-1.1-2.5.1-4.4 1.3-4.4 2.7 0 1.5 2 2.6 4.5 2.6 2.5-.1 4.4-1.3 4.4-2.7M391.8 735c-.1-.8-.7-1.5-1.6-2.1M381.4 742.2c.1 1.6 2.5 2.9 5.3 2.9s5.1-1.3 5.2-2.9M383 732.9c-1 .6-1.6 1.3-1.6 2.1M391.1 734.5c0-1.5-2-2.6-4.5-2.6-1.1 0-2.1.2-2.9.6M383.4 732.7c-.9.5-1.3 1.1-1.3 1.8 0 1.4 2 2.6 4.5 2.6s4.5-1.1 4.5-2.6M393 742.1c0-.8-.4-1.5-1.1-2.1M381.4 740c-.8.6-1.2 1.4-1.2 2.1 0 2.1 2.9 3.7 6.4 3.7s6.4-1.6 6.4-3.7M382.2 754.1c3.5.9 7.5.7 10.5-.5M397.1 745.8c-.2-1.1-.8-2.2-1.8-3M384.5 756.7c.7.1 1.4.1 2.1.1 4.8 0 8.6-2.2 8.7-5M377.9 750.7c-.5 3.1 2.2 5.3 6.6 6M378 742.8c-1.3 1.1-1.9 2.3-1.9 3.6M246.8 744.2c1.3.3 2.5.3 3.6.3 5.7 0 10.3-2.6 10.5-5.8M239.9 737.2c-.5 3.4 2.2 5.9 6.9 6.9M215.4 731.7v.2c0 3.4 4.7 6.1 10.5 6.1 5.7 0 10.3-2.6 10.5-5.9M221.5 714.1c3.6 1 7.5.7 10.6-.6M241.7 715.1c0 2.8 3.9 5 8.7 5s8.7-2.2 8.8-5M245.9 720.7c3.6 1 7.6.7 10.7-.5M260.9 714.6c-.1-.7-.4-1.4-.9-1.9"/>
    <path class="st1"
        d="M260.9 714.7zM245.3 714.3c0 .9 2.5 1.4 5.5 1.4 1.6 0 3.1-.3 4.1-.5M257.9 706.6c0-1.1-.7-2.1-1.8-2.8M244.6 703.9c-1.1.8-1.7 1.7-1.7 2.7 0 2.4 3.4 4.3 7.5 4.3 4.2 0 7.5-1.9 7.5-4.3M241.8 706.1c-1.3 1.1-1.9 2.4-1.9 3.6M253.5 696c-1.8-1-4.6-1-6.4 0M256.8 705.5c0-.8-.4-1.5-1.1-2.1M245.1 703.4c-.7.6-1.1 1.4-1.1 2.1 0 2.1 2.9 3.7 6.4 3.7s6.4-1.7 6.4-3.7"/>
    <path class="st1"
        d="M255.7 698.4zM245.1 698.6c.2 1.6 2.5 2.9 5.3 2.9 2.9 0 5.3-1.3 5.3-3.1M255.6 698c-.2-.7-.8-1.3-1.6-1.7-.9-.6-2.2-1-3.6-1s-2.7.4-3.6 1c-1 .6-1.6 1.3-1.7 2.1M245.1 705.5c.2 1.6 2.5 2.9 5.3 2.9s5.1-1.3 5.3-2.9M260.9 709.2c-.2-1.1-.8-2.1-1.9-3M245.9 717.4c3.6 1 7.6.7 10.7-.5M240.5 713.1c-.4.7-.6 1.4-.6 2.1M220.8 707.7c0 .9 2.5 1.5 5.5 1.4 1.6 0 3.1-.3 4.1-.6M217.2 708.5c0 2.8 3.9 5.1 8.7 5.1s8.6-2.2 8.7-5M233.4 700c0-1-.7-2-1.7-2.8M220.1 697.2c-1.1.8-1.7 1.8-1.7 2.7 0 2.4 3.4 4.4 7.5 4.4 4.2 0 7.5-2 7.5-4.4M216 706.5c-.6.9-.8 1.8-.6 2.7M221.5 710.8c3.6 1 7.5.7 10.6-.5M236.4 702.6c-.1-1.1-.8-2.2-1.8-3M232.3 698.9c0-.8-.4-1.5-1.2-2.1M220.7 696.8c-.8.7-1.2 1.4-1.2 2.1 0 2 2.9 3.6 6.4 3.6s6.4-1.6 6.4-3.6"/>
    <path class="st1"
        d="M231.1 691.9v-.2.2zM220.7 692c.1 1.6 2.4 2.9 5.2 2.9 2.9 0 5.2-1.4 5.2-3M230.1 690.4c-.2-.4-.6-.8-1-1M230.4 691.2c0-.3-.1-.6-.3-.8M229.5 689.7c-.9-.7-2.3-1.1-3.7-1-2.5 0-4.4 1.3-4.4 2.7 0 1.5 2.1 2.6 4.5 2.6 2.5 0 4.4-1.3 4.4-2.7M231.1 691.7c0-.8-.7-1.5-1.6-2M220.7 698.9c.1 1.6 2.5 2.9 5.2 2.9 2.8 0 5.1-1.2 5.2-2.9M222.3 689.6c-1 .6-1.6 1.3-1.6 2.1M230.4 691.3c0-1.4-2-2.6-4.5-2.6-1.1 0-2.1.2-2.9.5M222.7 689.4c-.9.5-1.3 1.2-1.3 1.8 0 1.5 2 2.6 4.5 2.6s4.5-1.1 4.5-2.6M217.3 699.5c-1.5 1.3-2.1 2.7-1.8 4.1M299.8 739.7h-.2M300.3 739l.1-.1M301 738.2l.1-.2M297.8 738.3v-.3M299.6 739.7h.2M297.8 738v.3M297 736.6l.3 1.6M296.7 735.1l.4 1.7M297 736.1l-.1-.4M296.8 735.6l-.4-1.5M337.8 744.8l-.1-.1M336.9 743.1v-1.4M324.3 746.3h-.1M324.8 745.6l.2-.1M325.5 744.8l.1-.3M324.2 746.3h.1M321.5 742.7l-.1-.4M322.3 744.6v.3M322.3 744.6v.3M321.2 741.7l.3 1.7M320.9 740.7l.4 1.5M313.9 739h-.1M313.2 738.1l.1.1M313.9 739h-.1M324.7 725.6l-2.6 2.2M322 736.8v-1.2M339.5 735.3v1.5M336.9 741.7l4.4-5.3M320.3 737.4l5.9 4.9M321.5 743.1l.3 1.6M312.4 735.1v1.4M326.3 739.1l-6-4.9M325.5 727.2v-7.3M336 719.9v7.3M301.8 735.7l-6.1-4.9M316.7 729.7l-4.3 5.4M315 730.2v-1.5M295.7 727.6l6 4.9M311.5 720.6v-7.2M301 713.3v7.3M393.6 759.7l.1.1M394.2 760.6v-.1M392.7 758.1v-1.3M380.1 761.3l-.1.1M380.7 760.6l.1-.1M378.2 759.9l-.1-.3M380 761.4l.1-.1M377 756.8l.4 1.6M378.1 759.6l.1.3M381.3 759.8l.1-.2M377.4 758.2l.3 1.6M377.4 757.7l-.1-.4M377.1 757.2l-.4-1.5M407.3 766.6l-.1.2M403.9 766.6l.2.3M406 768.3h-.1M406 768.3h-.1M404.1 766.9l-.2-.3M406.6 767.6l.1-.1M403.1 764.3l.2.4M402.9 763.7l.4 1.7M403.1 764.2l-.5-1.5M403.5 766.7l-.3-1.6M419.5 766.7v.2M420.2 767.6v-.1M418.6 763.7v1.4M418.6 763.7l4.4-5.4M402 759.4l5.9 4.9M417.7 749.2v-7.3M407.2 741.9v7.3M408 761.1l-6-4.9M421.2 758.8v-1.5M392.7 756.8l4.4-5.4M376.1 752.4l5.9 4.9M394.2 760.6h.1M391.8 742.2v-7.2M381.4 735v7.2M382.2 754.1l-6.1-4.9M395.3 751.9v-1.5M245.1 723.1l.2-.2M241 720.7l.2.3M242 723.3l-.1-.3M242 723.3l-.1-.3M241.2 721.7l-.4-1.6M243.9 724.6l-.1.1M243.9 724.6l-.1.1M244.6 723.9l-.1.1M232.9 716.5v.1M232 713.5v1.4M256.5 721.5v-1.4M258.1 724v-.2M258.1 724v-.2M257.4 723.1l.1.1M241.2 721.5l.3 1.6M217.4 716.4l.1.3M220.7 716.3l-.1.2M217.4 716.4l.1.3M220.1 717.2l-.1.2M216.9 716.5l-.3-1.6M219.4 718l-.1.1M219.4 718l-.1.1M216.3 713.5l.4 1.6M216.5 714l-.5-1.6M216.5 714.1l.2.3M221.5 714.1l-6-4.9M236.4 708.1l-4.4 5.4M241 720.6l-.5-1.5M241.7 715.1v-1.1M259.2 713.7v1.5M256.5 720.1l4.4-5.4M239.9 715.8l6 4.8M245.1 705.5v-7.2M239.9 712.6l6 4.8M217.2 708.5v-1.1M234.6 707.1v1.5M221.5 710.9l-6-4.9M231.1 698.9v-7.2M220.7 691.7v7.2M215.5 706v-2.4M297.2 746.2c.2-1.8.4-3.6.3-5.5M338.4 745.6v-.1M337.4 744.2l-.1-.4M320.8 756.6c.4-1.4.7-2.8.9-4.2M315.2 738l.3-1.6.3-1.3M320.2 731.3v2.3l.1.6M339.7 744.6l.3-1.6.3-1.3M335.3 736.8l1.6-.6M320.3 731.9c.5 0 1 0 1.5.2 1.8.6 2.9 2.3 3.9 3.8M341.3 730.8c-1.9.3-2.9 2.2-3.6 3.7l-.7 1.7v2.3M340.3 742.1l1-4.4v-1.3M339.5 750.1c-.1-1.8 0-3.7.2-5.6M340 753.6l.7 2.8M339.5 749.7c.1 1.5.3 2.9.5 4.4M341.3 760.3v-1.7c0-.7-.4-1.5-.6-2.1M320.9 756.2c-.3 1-.6 1.7-.7 2.7M322 747.2c0 1.9-.1 3.7-.3 5.5M312.7 737.2l.2.4M341.3 730.8v2.3l-1.9 2.3-.6.8-1.9 2.4M336.5 725.4c1 .7 2 1.6 2.9 2.4M326.7 718.4l.8-.7M333.5 717.4l.9.5M321 741.1l-.7-2.4-.1-.5v-1.4M315 743.1c.2 1.5.3 2.9.6 4.4M316.8 753.7v-1.7c0-.8-.4-1.5-.6-2.2M296.4 749.6c-.3 1-.6 1.7-.7 2.7M321.8 744.3c.2 1.4.3 2.9.3 4.3M315.5 747.1l.7 2.8M315.2 738c-.2 1.8-.3 3.6-.2 5.6M316.7 729.7v1.4l-1 4.3M310.8 730.1l1.6-.5M295.7 725.2c.5 0 1 0 1.5.2 1.8.6 2.9 2.3 3.9 3.8M316.7 724.2c-1.8.2-2.9 2.1-3.6 3.7l-.8 1.7v2.3M297.5 742.1c-.1-1.5-.1-2.9-.3-4.4M296.3 750c.4-1.4.7-2.8 1-4.3M295.7 730.2v1.9l.8 2.4M314.9 721.2c-1-.8-1.9-1.7-2.9-2.4M312.4 731.9l1.9-2.3.6-.7 1.8-2.4v-2.3M303.4 710.9l-.8.4M297.6 721.2c1.1-.9 2.2-1.9 3.4-2.8M295.7 727.6v-2.9M393.3 759.2l-.2-.4M395.6 759.6l.2-1.6.4-1.2M377.5 767.8c.3-1.8.3-3.6.3-5.5M377.5 759.3c.2 1.5.3 2.9.4 4.4M376.6 771.6c.4-1.4.7-2.8 1-4.2M376.1 751.9v1.9l.8 2.4M382.2 751.8c-1.3-1.7-2.5-4-4.6-4.7-.5-.2-1-.2-1.5-.2M419 765.7l.2.4M422 763.7l-.2 1.3-.3 1.6M418.6 760.5v-2.3l.8-1.7c.8-1.5 1.7-3.4 3.6-3.7M417 758.8l1.6-.6M402 753.9c.5 0 1 0 1.5.2 1.8.6 3 2.3 3.9 3.8M422 764.1l1-4.4v-1.4M421.2 772.1c0-1.9 0-3.7.3-5.6M421.7 775.6l.7 2.9M421.2 771.6c.1 1.5.3 3 .5 4.4M402 781.9c0-.7-.1-1.4.2-2.1l.5-1.6M422.4 778.4c.2.7.5 1.4.6 2.2v1.7M403.7 769.2c0 1.9-.1 3.6-.3 5.5M403.5 766.3c.2 1.5.3 2.9.3 4.4M402.5 778.6c.4-1.4.7-2.8.9-4.3M402 759.4c0 2.2-.1.9.8 3.8M409.6 739.5l-.7.4M423 752.8v2.3l-1.9 2.4-.6.7-1.9 2.3M417.7 747c1.2.9 2.3 1.8 3.4 2.8M401.9 753.3v2.4l.1.5M407.2 747c-1.2.9-2.3 1.8-3.4 2.7M395.4 764.7c.1 1.5.3 3 .5 4.4M397.1 775.4v-1.7c0-.7-.3-1.5-.6-2.2M376.7 771.3c-.3 1-.7 1.7-.7 2.7M395.8 768.7l.7 2.8M395.6 759.6c-.2 1.9-.3 3.7-.2 5.6M397.1 751.4v1.3l-1 4.4M397.1 745.8c-1.9.3-2.9 2.2-3.6 3.8l-.8 1.7v2.3M383.8 732.5l-.8.4M397.1 745.8v2.4l-1.9 2.3-.6.7-1.9 2.4M391.8 740c1.1.9 2.3 1.8 3.4 2.8M376.1 746.4v2.8M381.4 740c-1.1.9-2.2 1.8-3.4 2.8M236.4 702.5c-1.9.3-2.9 2.2-3.6 3.8l-.7 1.6v2.3M232.4 715.5l.2.4M233.4 717.3l.2.1M234.9 716.3c-.3 1.9-.3 3.7-.3 5.6M235.8 728.3l-.7-2.9M259.6 732l.7 2.8M259.2 728.5c-.1-1.9 0-3.7.2-5.6M256.9 722.1l.2.4M259.7 732.5c-.3-1.5-.5-2.9-.5-4.4M260.9 738.7v-1.7c0-.8-.4-1.5-.6-2.2M240.5 734.6c-.3 1-.6 1.7-.6 2.7M241.7 725.6c0 1.8-.1 3.7-.3 5.5M215.4 731.7c0-.7-.1-1.4.1-2.1l.5-1.6M235.8 728.2c.3.7.6 1.5.6 2.2v1.7M215.9 728.4c.4-1.4.7-2.8 1-4.2M216.8 724.5c.2-1.8.4-3.6.3-5.5M217.2 720.4l-.3-4.3M260.9 709.2c-1.9.3-2.9 2.2-3.6 3.7l-.7 1.6v2.4M259.4 723l.3-1.6.6-2.7c.7-3.1.6-1.7.6-4M254.9 715.1l1.6-.6M239.9 710.2c.5 0 1 0 1.5.2 1.8.6 2.9 2.3 3.9 3.9M235.2 725.9c-.3-1.5-.4-3-.6-4.4M235.5 713.5l-.4 1.3-.2 1.6M241.8 706.1c1.1-.9 2.2-1.9 3.3-2.7M239.9 712.6v-2.9M255.6 698l.1.3v7.2M259 706.2c-1.1-1-2.3-1.9-3.4-2.8M256.5 716.9l1.9-2.4.6-.7 1.9-2.3v-2.3M241.7 727c0-1.5-.2-2.9-.3-4.4M240.5 735c.4-1.4.7-2.8 1-4.3M239.9 715.2v1.9l.8 2.4M235.5 706.1c.3.5.6.9.8 1.5.4 1.4-.1 2.7-.4 4l-.5 2.2M230.4 708.5l1.6-.5M215.5 703.6c.5 0 1 0 1.4.2 1.8.6 3 2.4 4 3.9M216.2 712.9c-.9-2.8-.7-1.6-.7-3.7M236.4 702.5v2.4l-1.9 2.3-.6.8-1.9 2.3M231.1 696.8c1.2.9 2.3 1.9 3.4 2.8M223 689.2l-.7.4M217.3 699.5c1.1-.9 2.2-1.8 3.4-2.7"/>
    <defs>
        <path id="SVGID_1_" d="M0 1051.3z"/>
    </defs>
    <clipPath id="SVGID_2_">
        <use xlink:href="#SVGID_1_" overflow="visible"/>
    </clipPath>
    <path class="st3" d="M0 1051.3l8.1-8"/>
    <path class="st0" d="M0 1051.3z"/>
</svg>
