<?xml version="1.0" encoding="utf-8"?>
<!-- Generator: Adobe Illustrator 21.1.0, SVG Export Plug-In . SVG Version: 6.00 Build 0)  -->
<svg version="1.1" id="Ebene_1" xmlns="http://www.w3.org/2000/svg" xmlns:xlink="http://www.w3.org/1999/xlink" x="0px" y="0px"
	 viewBox="0 0 1400 1400" style="enable-background:new 0 0 1400 1400;" xml:space="preserve">
<style type="text/css">
	.st0{fill:none;}
	.st1{fill:none;stroke:#000000;stroke-linecap:round;stroke-width:3;}
	.st2{fill:none;stroke:#FFFFFF;stroke-miterlimit:10;}
</style>
<path class="st0" d="M1300,294.6H100v810.8h1200V294.6L1300,294.6z"/>
<path class="st1" d="M1061,619.3v2.3 M1024.7,624.7l5.8-0.5l24.8-2.1c4.1-0.4,8.2-0.4,12.1-2.1c1.9-0.8,3.9-2,5.1-3.9
	c0.5-0.9,0.8-1.9,0.8-2.9c0-2.5,0-4.4-1.8-6.2c-3.3-3.4-8.5-4.1-12.9-4.2c-10.3,0.5-20.5,1.7-30.8,2.6"/>
<path class="st1" d="M1054.1,613l-0.8-0.9c-0.9-1.7,0.7-3.1,2.1-3.7c2.3-0.9,5.4-0.9,7.4,0.4l1.1,0.8c1.5,1.8-0.1,3.5-1.8,4.2
	c-1.1,0.5-2.2,0.6-3.3,0.6C1057,614.3,1055.5,613.9,1054.1,613L1054.1,613z M1053.4,612.2c1.7-2.3,5.4-2.5,8-1.8
	c1.1,0.3,2.1,0.9,2.8,1.8 M1073.1,610.8c-0.3,5.9-7.3,8.1-12.2,8.5l-5.7,0.5l-22.9,2l-5.7,0.5 M1024.7,622.8l1.8,0.1 M988.8,545.1
	v0.4 M1003.1,649l-2.4-1.3 M1023.3,590.7v5.2 M883.4,611.7v31.8 M880.8,644.8l2.6-1.3 M901.7,653.3l-1.9,1.6 M901.7,621.4v31.9
	 M862.9,617.3l0.9-0.1 M868.1,631.8l3.2-0.6 M866.2,590.1v-4.8 M1000.7,647.7v-31.9 M1018.4,637l-3-0.8 M958.6,537.3
	c-4.3-0.4-8.4-0.6-12.8-0.7l-4.2,0.1"/>
<path class="st1" d="M889.6,552.7c9-6.4,19.7-10.3,30.4-12.6c16-3.5,32.8-3.6,48.9-0.4c9.3,1.9,18.5,4.9,26.7,9.6
	c4.9,2.8,9.6,6.2,13.4,10.4c2.6,2.9,4.8,6.2,6.3,9.7c1,2.5,1.6,5.1,1.9,7.8c1.1,15-11.4,26.3-23.5,32.6c-2.3,1.3-4.7,2.4-7.1,3.3
	c-3.9,1.7-7.8,2.9-11.8,3.9c-10.1,2.6-20.5,3.6-30.9,3.6c-19-0.6-39.2-4.3-54.9-15.6c-3.5-2.6-6.8-5.5-9.4-9
	c-1.8-2.3-3.3-4.8-4.4-7.4c-1-2.4-1.7-5.1-1.8-7.7C872.4,569,880.4,559.3,889.6,552.7L889.6,552.7z M874.5,603.7
	c-0.5,0.1-1,0.2-1.4,0.5c-2.6,1.6-1.5,5.9-1.5,8.1v24.1l2,2.3c2.2,2.3,4.7,4.3,7.2,6.2 M931.7,662.1v-24.2c0-3-0.3-6.5,0.6-9.6
	 M948.9,662.7h-4.3c-4.4-0.1-8.6-0.3-12.9-0.6 M880.8,644.8v-24.2c0-2.1-0.9-6.3,1.3-8.2l1.3-0.8"/>
<path class="st1" d="M882.2,557.8c9.1-8.6,21.2-13.8,33.2-16.9c16.9-4.4,34.8-4.9,51.9-1.8c10.6,1.9,20.9,5.3,30.2,10.7
	c4.9,2.8,9.5,6.3,13.3,10.5c2.7,3,4.9,6.3,6.4,9.9c1.2,2.7,2,5.6,2.2,8.6c0.2,4.4,0.1,8.6-1.3,12.7c-4.4,12.8-16.9,21.1-28.7,26.1
	c-2.5,1-5.1,2-7.7,2.9c-11.3,3.6-23,5.2-34.9,5.4c-20.6-0.1-42.7-3.8-59.7-16.2c-4.3-3.2-8.3-7-11.2-11.5
	c-5.4-8.3-6.3-19.3-2.4-28.4C875.5,565.2,878.7,561.4,882.2,557.8L882.2,557.8z M880.8,614.9c-3.3-2.7-6.3-5.3-9.2-8.4 M878.6,557.8
	c3.3-2.7,6.8-5.2,10.6-7.4 M871.1,580.6c0.1,2.7,0.3,5.3,1.1,7.9c3.5,11.5,13.9,19.6,24.2,24.7c2.3,1.2,4.7,2.3,7.2,3.3
	c17.9,6.9,37.7,8.7,56.7,6.4c11.1-1.3,22.3-4.2,32.5-9.1c10.6-5,21.2-13,25.1-24.4c0.9-2.7,1.1-5.2,1.4-7.9 M983.2,543.2
	c0-0.5,0-1.2-0.5-1.3l-1,0.9 M933.4,537.7l-0.2-0.6 M916.3,540.6c0.1-2.1,1.9-1.4,4.4-1.8c4-0.7,8.4-1.6,12.5-1.7 M966.5,538.7
	c5.3,0.9,10.4,2.1,15.6,3.6 M1021.5,595.4c1.3-3.1,0.7-1.5,1.8-4.7 M966.4,539c0.8-1.8,2-0.4,4.5,0c4,0.8,7.9,1.8,11.8,2.9
	 M1026.5,622.9V593l1-4.9c0.2-2.5,1.1-6.8-2.5-6.9h-0.9 M974.3,659.6v-24.2c0-3.1,0.6-6.7-1.2-9.5 M1020.1,567.1
	c1.8,3,3.2,5.9,4.2,9.3 M980.6,624.1c2.3,2.6,1.5,6.2,1.5,9.4v24.1 M982.1,627.8c5-1.5,9.8-3.3,14.5-5.3 M1026.7,581.6v-3.8
	c-0.8-2.7-1.8-5.1-3-7.5c-0.8-1.5-1.4-3.4-3.2-3.4l-1.2,0.2 M1007,554.7c2.2-1,2.6,0,4.8,1.8c1.7,1.3,3.2,2.7,4.6,4.2l2.1,2.3
	l0.1,0.2l0.1,0.6v2.7 M1027.6,585.6V618c-0.3,2.2-0.5,2.8-1,4.9 M957.5,632.3c5.6-0.6,11.1-1.5,16.8-2.5 M1021.5,595.4
	c0.6,0.1,1.1,0.1,1.7,0.4c2.7,1.3,1.5,5.9,1.5,7.8v24.2l-1.2,2.4c-1.4,2.5-3.2,4.6-5.1,6.8 M957.5,662.2c5.6-0.6,11.1-1.4,16.8-2.5
	 M980.6,624.1L973,626 M924.2,627.3v26.2c0,6.3,0.9,3.9-0.8,7.5 M871.6,631.7l-0.3-0.5v-31.9 M862.9,617.3v-26.7
	c0-2.3-0.3-6,0.1-8.6l0.4-2.5c0.3-1.7,0.4-3.8,2.5-3.8h1.3 M916.6,539.6l0.9,0.8 M866.2,590.1c1.1,3.4,2.4,6.3,4.3,9.3 M899.8,654.9
	c-4.5-1.9-9-3.9-13.2-6.4 M867,590c-1.1,0.1-2.2,0.2-2.9,1.2l-0.3,1l0.7,2.5c0.6,1.6,1.3,3.3,2.2,4.8l1.4,2.4v29.9 M907.3,657.4
	c5.3,1.5,10.6,2.7,16,3.6 M974.3,657.6l2.6-0.6l3.7-1 M1022.3,595.5c-1.8,3.3-3.7,6.2-6.1,9 M957.2,628.9c5.4-0.6,10.8-1.4,16.1-2.4
	 M1026.7,577.8c-0.3-0.9-1-1.3-2-1.4l-1.2,0.1 M1024.2,581.2c-0.4-3.1-0.1-1.6-0.7-4.7 M988.8,545.1c1.7-1.5,2.1-0.5,4.9,0.8
	c2.3,0.9,4.5,1.9,6.7,3.2c2.5,1.3,3.5,1.1,3.5,3.6 M1018.4,637v-24.1c0-2.1,1.2-6.4-1.4-8.1c-0.4-0.3-0.9-0.4-1.5-0.5 M1007,554.7
	l-5.5-3.5 M895.9,547.5l-6.2,3.2 M871.3,599.3c-1.5,0.3-3,0.9-3.1,2.7 M907.3,655.2l-2-0.7l-3.6-1.2 M874.5,603.7l-3.2-4.4
	 M909.5,542c-4.8,1.4-9.4,3.1-14.1,5.2 M875.8,598.3c0-2.2-0.2-3.8,1.9-4.6 M909.9,542.5l-0.9-0.9l-3.7,1.1l-7.4,2.7
	c-2.5,0.9-3.8,0.8-3.8,3 M895.9,547.5c-0.4-0.3-0.7-0.6-1.2-0.7l-0.3,0.1 M923.3,631.1c-5.4-0.9-10.8-2.2-16-3.6 M865.8,575.7v-3.1
	l0.1-0.4v-0.3l1.4-2.6c1.2-2,1.8-2.7,3.1-4.6c0.8-1,1.8-3,3.5-2.8l1.1,0.3 M933.4,537.6c-5.5,0.5-10.8,1.4-16.2,2.4 M869,571.1
	c-1.3,3.1-0.7,1.6-1.7,4.7 M868.1,631.8c-1.4-2.3-2.7-4.6-3.6-7.2l-0.7-2.4v-30 M876.5,560.7c0-0.4-0.1-1.7,0.1-2.3l0.3-0.4l2.4-2
	c1.8-1.4,3.8-2.7,5.6-4c2.3-1.4,2.7-2.5,4.8-1.3 M941.6,536.8v0.4 M989.3,544.8c4.5,1.8,8.7,3.8,12.9,6.1 M1018.4,607.1
	c2.5-2.9,4.5-5.8,6.3-9.3 M1001.5,551.2c0.7-0.3,1.1-0.7,1.8-0.5 M1007.7,554.5c3.3,2.5,6.2,5.1,9,8.2 M1014,611.4
	c-3.6,2.9-7.1,5.4-11,7.7 M948.8,628.9l8.3-0.5 M1012,608.6c-3.4,2.8-6.9,5.3-10.6,7.5 M948.9,660.7l8.2-0.4 M1003.1,649
	c3.9-2.4,7.4-4.8,11-7.7 M1023.3,590.7c1.5,0.1,3,0.5,3.3,2.3 M981.7,542.7l7.1,2.4 M958.3,537.9l0.3-0.6 M958.6,537.3l0.1,0.6
	 M1025.1,581.2c0.1,3.4-0.1,6.3-0.9,9.6 M1015.4,604.3v26.1c0,6.4,1.4,4.4-1.4,7.2 M1000.7,647.7l-3,1.6l-1.1,0.5 M932.2,628.8
	c5.6,0.4,11,0.6,16.7,0.5 M994.5,619l6.2-3.2 M1014.3,565c-0.4-0.4-0.7-0.6-1.2-0.6h-0.4 M1016,562.8l3.3,4.4 M995.1,619.3
	c-4.5,2-9.2,3.7-14,5.2 M931.7,660.1l-3.4-0.4l-4.1-0.5 M883.4,643.5l2.7,1.9l0.5,0.3 M948.9,632.8h-4.3c-4.4-0.1-8.6-0.4-12.9-0.7
	 M882.7,612.1c-3.3-2.5-6.2-5.2-9-8.2 M879.3,558.1l-1.4-0.5l-0.9,0.3 M879.3,558.1l-4.3,4.1 M883.4,611.7l5.5,3.6 M924.2,627.3
	l8.1,1 M980.6,624.1v26.1c0,6.5-1.2,4.3,1.5,7.4 M1000.7,615.8l1.2,0.8c1.9,2,1.1,6.1,1.1,8.3v24.2 M1011.2,608.4
	c0.5,0.1,1.1,0.4,1.5,0.6c2.4,1.8,1.4,6.1,1.4,8.2v24.2 M1011.2,608.4l4.2-4.1 M1018.6,563.1c-0.3-0.4-0.6-0.5-1.1-0.6
	c-0.6,0-0.9,0.1-1.5,0.3 M982.1,657.7c5-1.5,9.8-3.3,14.5-5.3 M948.9,662.7v-24.2c0-3.2,0.1-6.4-0.1-9.6 M957.1,628.4
	c0.8,3,0.4,6.4,0.4,9.6v24.2 M957.1,628.4v26.2c0,6.3-0.5,3.8,0.4,7.6 M908.4,624.2c5.1,1.4,10.3,2.7,15.6,3.6 M886.6,618.6
	c4.3,2.4,8.7,4.5,13.2,6.3 M862.9,587.4c0.2-1.8,1.8-2,3.3-2 M874.3,561.9c-2.5,2.8-4.4,5.8-6.1,9 M908.9,623.8l-7.2-2.4
	 M923.3,660.9v-24.1c0-3.1-0.6-6.7,0.8-9.6 M908.9,623.8c-2.3,2.6-1.5,6.2-1.5,9.5v24.2 M901.7,621.4c-2.7,2.4-1.9,5.9-1.9,9.3v24.2
	 M888.3,615.6c4.3,2.4,8.5,4.4,12.9,6.2 M869,571.1l-1.2-0.1c-0.8,0-1.4,0.3-1.8,0.9 M886.6,648.5v-24.1c0-2.1-0.9-6.3,1.1-8.3
	l1.2-0.8 M867,590c-0.7-3.2-0.4-1.5-0.8-4.7 M866.4,575.7c-0.8,3.2-1.1,6.2-1,9.6 M996.6,652.4v-24.2c0-3.4,1-7-2.1-9.2
	 M1274.7,1053.2l-3.4-1 M1254.2,1098.5l7.8,2.1 M1298.2,1055.7l-36.2,44.9 M113.4,791.4l1136.9,306 M1290.5,1038.4l-6.9,8.5
	 M1250.3,1097.4l3.6-4.4 M1266.3,1026.1l7.8,2.1 M117,773.9l1136.9,306.2 M1157.3,518.3h0.5 M1168.5,513.5l-8.5,0.7 M1153.2,521.1
	l123.4,499.8 M1270.4,1021.1l7.8,2 M1298.2,1040.5l-7.7-2.1 M1297.9,1037.5l-8.6,0.7 M1298.2,1040.5l-13.7,17.1 M1262,1066.6
	l-7.8-2.1 M1250.3,1084.6L113.4,778.5 M149.8,731.4l-4.6-4.2 M145.2,730.1v-2.9 M923.7,447.5l4.6,4.2 M942.9,459.4L149.8,744.3
	 M109.5,790.4l3.9-4.9 M131.1,736.6l6.9-8.5 M145.7,740.5l4.1,3.8 M151,750.3L945.1,465 M145.7,730.1l-13.8,17.2 M109.5,790.4
	l-7.8-2.2 M101.7,754.2l7.8,2.2 M121.7,775.2l24-29.8 M113.8,715.8l7.8,2.1 M125.7,712.8l-7.8-2 M127.9,776.9l21.7-26.9
	 M121.4,730.1l4.5,1.3 M145.7,730.1l-7.7-2 M608.2,803.7v7.1 M920.4,887.8v7.1 M1256.6,1047.3L898.8,951 M327,730.5v6.8
	 M875.3,533.6v6.7 M1107.2,596v6.7 M1198.4,971.9v-6.7"/>
<path class="st1" d="M1275.5,1052.2c1.8-3.4,3.1-7.3,2.9-11.2c-0.1-1.2-0.2-2.9-1.8-3.2c-1.6,0.4-2.5,2-3.3,3.5
	c-1.3,2.7-2.1,5.7-2.2,8.8v1.2c0,0,0.5,3.9,2.3,3l0.6-0.4C1274.7,1053.4,1274.9,1053,1275.5,1052.2L1275.5,1052.2z M1255.7,1099v2.3
	l-0.8,0.9c-0.7,0.7-1.4,0.9-2.4,1c-2.1-0.9-2.2-3.7-2.2-5.8v-12.9l3.6-4.5 M1284.5,1057.6l-0.5-5.7l-1.8-21.4l-0.4-5.8
	c-0.1-1.2-0.4-2.7-1.8-2.9c-1.7,0.6-2.9,2.6-3.9,3.8c-2.6,3.2-4.9,6.3-6.7,10.1c-3.7,7.5-6.1,15.9-7,24.3c-0.6,4-0.4,8.1-0.4,12.3
	v28.3 M1298.2,1040.5v9.4c0,2.5,0.5,6.3-0.6,8.9l-0.7,1.3l-3.6,4.5l-23.6,29.2c-1.8,2.4-4,6.1-7.2,7.2c-1.3,0.5-1.8,0.5-3.2,0.7
	c-2.5-0.1-1.2,0-3.7-0.4"/>
<path class="st1" d="M1213.2,1044.9c0.3-0.6,0.4-0.9,0.4-1.5c-0.1-3-4.5-3.8-6.7-4.1c-1.4,0-2.6,0.1-3.8,0.6
	c-2.2,0.7-5.1,2.7-3.2,5.2c0.3,0.5,0.9,0.9,1.4,1.2C1204.8,1048.4,1210.5,1048.2,1213.2,1044.9L1213.2,1044.9z M1280.6,1021.9
	c-2.7-0.7-5.6-1.7-8.3-2.2c-1.8,0.6-2.9,2.6-3.9,3.8c-2.6,3.3-4.8,6.4-6.7,10.1c-3.6,7.6-6.1,16-7.1,24.2c-0.5,4.1-0.4,8.2-0.4,12.4
	v28.2 M1252.5,1103.2l-5.5-1.5L121.2,798.6l-5.5-1.5l-0.6-0.3c-1.6-1.1-1.6-3.8-1.6-5.5v-12.9l3.6-4.5 M109.5,790.4v-34l0.1-3.2
	c0.4-7.3,2.1-14.4,4.6-21.2c1.5-4.2,3.4-8.2,5.8-11.8c1.1-1.7,2.3-3.1,3.6-4.7l2.1-2.6c0.6-0.8,1.8-1.9,2.8-0.9
	c0.6,0.8,0.7,1.8,0.8,2.6l0.4,5.7l1.8,21.4l0.4,5.7 M1267.4,1093.8c-0.1,1.8-0.5,2.9-1.3,4.5 M1297.9,1040.4c0-4.7,0.1-2-1.5-8.5
	L1169.9,519l-1.4-5.5c-0.3-1-0.5-2.4-1.4-3.1l-4.3,0.3c-3.2,0.3-4.5-0.8-5,1.9l-0.2,1.3v1.5l-0.1,1.8l1.4,5.6l126.9,514l1.4,5.6
	 M1289.3,1039.8c0-3.5,0.1-1-1.4-7.2l-126.5-512.9l-1.4-5.5c-0.2-1-0.5-2.5-1.3-3.1 M1071.6,499.1l5.5,1.5l70.6,19l5.5,1.5l1.8-0.5
	c1.4-0.6,2.4-1.8,2.5-3.4 M896.3,951.1c8.1-0.1,16.1-1.1,24-3.2c7.9-2.1,15.5-5.3,22-10.3c2.3-1.9,4.5-4,6.3-6.4
	c1.6-2.1,3-4.4,3.8-7l0.9-3.6c1.8-11.8-7.7-21.3-17.3-26.6c-6.6-3.7-13.8-5.8-21.2-7.7l-301.1-81.1c-5.8-1.5-11.7-3.1-17.6-3.8
	c-4.3-0.5-8.5-0.7-12.7-0.8l-6.3,0.2c-7.1,0.5-14.3,1.7-21,4c-7.5,2.3-14.8,5.8-20.6,11.1s-10,12.9-8.7,21c0.5,2.6,1.4,5,2.6,7.2
	c2.3,4,5.4,6.9,9,9.8c1.7,1.3,4.1,2.8,5.8,3.7c6.7,3.7,13.8,5.6,21.1,7.6l301.1,81c5.8,1.6,11.6,3.1,17.5,3.8l6.2,0.6
	C890,950.8,890,950.8,896.3,951.1l5.5,1.4l349.1,94.1l5.5,1.5"/>
<path class="st1" d="M123.8,740.1c1.2-2.7,2-5.7,2-8.7c0-1.5-0.1-3.2-1.5-3.9c-1.6,0.1-2.5,1.6-3.2,2.8c-1.7,2.9-2.7,6.6-2.7,10v1.2
	l0.2,1l0.3,0.8c1.2,2.3,3.5-0.9,4.1-2.1C123.2,741.3,123.2,741.3,123.8,740.1z M113.4,792.4c-1.2-0.9-2.2-1.8-3.2-3 M538.4,854
	l-5.6-1.6l-375.2-101l-5.4-1.5l-0.9-1.1c-0.6-1-0.9-2-1.2-3c-0.5-2.3-0.1-5.6-0.1-7.3v-7.1 M539.9,855.1l-5.5-1.5L155.2,751.5
	c-3-0.8-9.4-1.5-9.4-6.1v-15.3 M149.8,731.4l5.4-2l767.7-275.8c5.2-1.9,11.7-5,16.7-0.8c0.9,0.8,1.8,1.7,2.2,2.8
	c1.2,2.3,0.9,5,2.1,7.5c0.1,0.4,0.8,1.6,1.2,1.8l5.6,1.4l43.6,11.8l5.5,1.5 M1015.3,539h-0.3c-1.4-0.1-2.6-0.2-3.8-0.8
	c-0.6-0.2-1.3-0.6-1.8-1.1c-1.7-1.6-1.3-3.7,0.6-5c1.6-1,3.5-1.4,5.3-1.5 M145.2,727.2l5.4-1.9l767.7-275.8
	c5.2-1.9,11.8-4.9,16.8-0.8l4.5,4.2 M101.7,788.2V760c0-4.2,0-8.2,0.4-12.4c1.1-9.4,3.9-18.9,8.6-27.1c1.5-2.6,3.3-4.9,5.2-7.3
	c0.5-0.7,2.3-3.6,3.9-3.8h0.5l3.9,1l3.9,1 M953.2,921.5c-0.8-5.9-4.7-10.9-9-14.7c-8.4-7.4-18.8-10.6-29.4-13.4l-301.1-81.1
	c-5.8-1.6-11.7-3.1-17.6-3.9c-4.3-0.5-8.5-0.6-12.7-0.8c-15.3,0.6-31.3,3.2-44.2,12.4c-5.6,4-11.5,10.1-12.4,17.3"/>
<path class="st1" d="M213.6,780.7c-0.8-0.4-1.1-0.5-1.8-1.1c-1.8-1.6-1.3-3.7,0.6-5c1.7-1.1,3.8-1.5,5.9-1.4c1.9,0,4.1,0.6,5.6,1.8
	c1.8,1.6,1.2,3.7-0.6,5c-1.8,1.1-3.9,1.3-5.9,1.4C216.1,781.3,214.9,781.1,213.6,780.7z M317.8,733.8c0.4-1.6,1.5-2.5,3-3
	c2.5-0.9,5.8-0.9,8.2,0.7l0.7,0.6l0.5,0.6c1.4,2.1-0.9,3.8-2.6,4.4c-1.3,0.4-2.4,0.6-3.6,0.6C321.5,737.5,318.1,736.8,317.8,733.8
	L317.8,733.8z M322.1,737.4c1.5-0.2,2.7-0.2,4.2,0.1"/>
<path class="st1" d="M866.2,536.8c0.2,2.1,1.8,3,3.7,3.6c2.5,0.7,5.8,0.5,8-1.2l0.6-0.6c1.6-1.9-0.1-3.8-2-4.5
	c-1.1-0.5-2.3-0.6-3.5-0.8C870.3,533.3,866.9,533.8,866.2,536.8z M870.6,540.4c1.4-0.1,2.7-0.2,4.1,0.1"/>
<path class="st1" d="M1098,599.2c0.2,2,1.8,3,3.7,3.5c2.5,0.7,5.8,0.5,8-1.1l0.6-0.7c1.5-1.9-0.2-3.8-2-4.6
	c-1.2-0.4-2.4-0.6-3.6-0.7C1102.1,595.7,1098.7,596.3,1098,599.2L1098,599.2z M1102.4,602.9c1.4-0.2,2.7-0.3,4.2,0"/>
<path class="st1" d="M1190,970.5c-0.4-0.5-0.6-0.7-0.9-1.3c-0.5-1.9,1.5-3.2,3-3.8c2.5-0.9,5.8-0.8,8.1,0.7l0.8,0.5l0.5,0.7
	c1.3,2-0.9,3.8-2.7,4.5c-1.2,0.4-2.3,0.5-3.6,0.5C1193.3,972.1,1191.6,971.7,1190,970.5L1190,970.5z M1193.5,972
	c1.5-0.1,2.7-0.2,4.2,0 M1235.4,1098.7c-9.1,3-18.6,4.1-28.2,4.1c-3.7-0.2-7.6-0.4-11.3-1c-2.4-0.4-4.8-0.8-7.2-1.4
	c-2.3-0.7-4.6-1.3-6.8-2c-10.2-3.6-20.9-9.9-24.4-20.8 M1236.9,1099.1c-9,3.5-18.7,4.5-28.2,4.7c-3.7-0.1-7.2-0.3-10.8-0.7
	c-2.3-0.3-4.9-0.8-7.2-1.3c-2.9-0.8-3.8-0.9-6.6-1.8c-11.1-3.6-23.1-10.6-26.7-22.4 M246.8,832.4c-9.2,3-18.5,4.2-28.1,4.2
	c-3.9-0.1-7.7-0.4-11.4-1c-2.5-0.3-4.9-0.8-7.3-1.4c-2.3-0.6-4.5-1.2-6.8-2c-10.1-3.6-20.8-10-24.4-20.8 M248.3,832.8
	c-8.9,3.5-18.8,4.5-28.2,4.7c-3.6,0-7.2-0.2-10.8-0.7c-2.3-0.2-4.9-0.7-7.1-1.2c-2.9-0.6-3.8-0.9-6.7-1.8
	c-11.1-3.6-23.1-10.5-26.6-22.4 M1199.7,1044.9c0-0.6-0.1-1,0.2-1.7c0.6-2.1,2.7-3,4.5-3.7c3.5-1.4,8.7-0.9,11.8,1.3
	c0.6,0.4,1.2,0.9,1.6,1.6c1.9,3.2-1.5,5.7-4.2,6.5c-1.5,0.5-3,0.6-4.6,0.7c-3.6-0.2-8.7-1.1-9.3-5.4 M211.1,778.7c0-0.5,0-1,0.2-1.7
	c0.6-2,2.7-3.1,4.6-3.7c3.6-1.2,8.4-1,11.7,1.2c0.7,0.5,1.3,0.9,1.7,1.7c1.9,3.1-1.6,5.6-4.2,6.4c-1.6,0.6-3.1,0.7-4.6,0.7
	c-3.6-0.1-8.7-1-9.3-5.4 M1015.3,530.4c-2.3,0.4-5.6,1.7-6.4,4.2c-0.1,0.6-0.1,1-0.1,1.7 M1008.7,535.6c0.5,3.2,3.6,4.6,6.6,5.1
	 M1048.3,497.1l4.9,1.2 M1048.8,515l-4.9-1.3 M1043.5,508.4l5.5,1.4 M996.4,495l-0.9-0.2 M1055.3,513l-0.9,0.1l-5.2-1.4l-0.4-0.3
	 M992.8,499.4c-0.7-1.2-1.5-2.5-1.9-3.9c-0.2-0.9-0.2-1.8,0-2.6c0.2-2.4,0.9-4.9,2.4-6.7l0.5-0.5l2.7-1.8"/>
<path class="st1" d="M1049,517c0.3,0.9,0.7,2.2,1.6,2.8c2.8,2.2,6.4,2.6,9,0.2c1.4-1.2,2.2-2.9,3-4.5c1.7-3.6,2.7-7.7,2.9-11.7
	c0.1-1.9,0-3.8-0.9-5.5c-0.3-0.6-0.3-0.9-0.9-1.4c-1.8-1.3-4.3-1.5-6.5-1.7c-2.7,0.8-4.4,3.5-5.5,6
	C1049.4,505.9,1048,511.7,1049,517L1049,517z M997.3,494c0.5-2.7,1.3-5.3,2.8-7.4c0.4-0.7,1.4-2,2.4-1.9l1.3,0.4 M1049.6,518.5
	c-1.5-5-0.1-10.8,1.7-15.5c1-2.7,2.3-5.3,4.5-7.2 M1064.9,498.7c-0.5-0.7-0.7-1-1.7-1.3c-2,0.1-3.4,2.3-4.4,4.1
	c-2.1,3.9-3.5,8.7-3.6,13.2v1.5c0,1.4,0.2,4.5,2.2,4.8c0.6,0.1,0.9-0.1,1.4-0.4 M1063.1,496.5h-0.7c-2.2,0.6-3.6,2.8-4.5,4.7
	c-2.1,4.1-3.4,8.9-3.6,13.5c-0.1,2.2-0.2,5.6,2.1,6.7 M995.3,496.3c0-2.2,0.6-4.6,1.4-6.7 M996.2,489.6c-0.8,2.4-1.4,4.9-1.4,7.5
	 M1001.3,484.6l0.2,0.5 M992.6,499c-1-3.3-0.1-7,1-10.1c0.7-1.8,1.5-3.5,2.8-4.7 M994.8,495.3c-3.2-0.9-1.9,0-3.9-2.3 M1053.3,521.2
	l-30.3,38 M1029.1,514.2l-7.8-2.2 M1015.3,557l7.7,2.2 M1023,533.3l-7.7-2.1 M1057.7,467l7.8,2.1 M1045,514.7
	c-1.9-0.8-1.8-3.7-1.6-5.4c0.3-4.2,1.6-8.8,4.5-11.9 M1015.3,557v-27.4c0.2-4.8,1.6-9.6,3.7-13.9c1.5-3.1,3.7-5.5,5.9-8.3l29.2-36.1
	c1.1-1.3,3.6-5.5,5.9-6.5c1.6-0.6,4.2,0.6,5.3,0.9l3.9,1l0.7,0.3c1.7,1.1,1.8,4.2,1.8,6.1v25.8l-6.3,7.9 M1069.2,466.9h-0.6
	c-2.9,0.8-5.1,4.7-6.7,6.6l-29.1,36.1c-2.3,2.7-4.5,5.2-5.9,8.2c-2.2,4.4-3.4,9.1-3.7,13.9l-0.1,1.6v25.9 M1050.8,497.7
	c-0.4-0.5-0.5-0.8-1.2-1c-0.8,0-1.1,0.3-1.7,0.8 M1045,514.7c0.5,0,0.9-0.1,1.3-0.4 M997.7,542.7l-2.9,3.6 M991.4,524.9l-7.9-2.2
	 M997.4,505.6l-7.8-2.1 M1005.2,495.9l-3.6,4.5l-0.7,0.8c-1.8,2.2-3.7,4.4-5.1,6.8c-2.6,4.6-4.1,10-4.5,15.3V545 M983.5,543.3v-20.6
	l0.1-1.6c0.3-4.8,1.6-9.6,3.6-13.9c1.5-3.1,3.8-5.5,5.9-8.2l7.1-8.8l3.6-4.5 M983.9,320.8l-1.2,9.7 M1003.5,336.1l-20.8-5.6
	 M985.8,317l-1.5,2.5 M985.8,317l20.9,5.6 M1007.3,322.5l-0.4-0.1 M1011.8,321.6L991,316 M1013.8,318.3l-20.8-5.7 M997.9,296.9
	l-1.5,2.4 M997.9,296.9l20.8,5.6 M1018.7,516.3l-11-2.8 M1014.5,325.7l3.9,1.1 M1003.5,336.8l-20.8-5.6 M1017.2,304.9l-20.8-5.6
	 M995.9,301.1l20.9,5.6 M984.3,319.5l20.9,5.6 M1004.7,326.5l-20.8-5.7 M995.9,301.1c0.1,3.3-0.7,6.7-2,9.8c-0.8,1.8-2,3.5-2.9,5.1
	 M1013.8,318.3c0.9-1.7,1.5-3.3,2-5.1 M1046.5,480.8l-0.8-5.6l-22.6-164.4l-0.7-5.7l-0.1-0.3c-1.8-3.2-5.6-3.4-8.7-4.2l-9.8-2.7
	l-5.5-1.5l-0.4,0.4 M982.7,330.5v0.7l0.7,5.6l23.5,170.9l0.8,5.7c0.1,0.9,0.3,1.8,0.6,2.7l0.5,1.2c1.5,3,5.1,3,8.1,3.8
	 M1026.6,505.5l-0.8-5.8l-21.5-157.3l-0.8-5.7v-0.6l0.7-4.9c0-0.4,0.1-4.6,1.1-6.2l1.4-2.5l0.4-0.4l0.6,0.9c0.1,0.4,0.4,0.9,0.9,1
	c1.4,0.5,2.7-1.7,3.3-2.6l2-3.3 M991,316l-1.2,1.6"/>
<path class="st1" d="M1010.6,337.9l0.1,0.9c0,1.3,0.6,4.3,2.6,3.2l0.9-0.8l1-1.3c1.9-3,2.9-6.8,3.2-10.4c0.1-1.6,0.4-4.9-1.7-5.4
	c-1.6,0.2-2.6,1.8-3.3,3.2C1011.7,330.5,1010.9,334.2,1010.6,337.9z M1015.8,313.2l0.6-2.3l0.3-2.2c0.1-1.3-0.1-2.7,0.5-3.8l1.5-2.5
	l0.6-0.4 M984.3,319.5c-0.2,0.4-0.3,0.9-0.4,1.3 M995.9,301.1c0-0.7,0.2-1.2,0.5-1.8 M1007.2,322.2c-7-1.8-13.9-3.7-20.9-5.6
	l-0.5,0.4 M1001,480.5l-1.5-0.4 M996.9,486.8l-1.6-0.4 M1003,479.4l-1.5-0.4c-3.2,0.5-5.1,4.6-6.2,7.3c-0.3,0.6-0.4,1.4-0.4,2
	l0.3,0.9c1.8,0.6,1.5,0.5,3.5,0.1 M1003.1,479.6c-1.1,0.1-2,0.8-2.7,1.6c-1.5,1.7-2.5,3.6-3.4,5.6c-0.4,0.8-0.8,2.2-0.2,2.8
	 M1001.2,485.3c0.1-0.9,0.3-2.5,1.7-1.7l0.4,0.3l0.4,0.8 M1002.3,484.7l-0.7-1.1"/>
<path class="st2" d="M100,1105.4l16.7-16.7"/>
<path class="st0" d="M100,1105.4"/>
</svg>
