<svg xmlns="http://www.w3.org/2000/svg" xmlns:xlink="http://www.w3.org/1999/xlink"
    viewBox="0 0 1200 1200" enable-background="new 0 0 1200 1200">
    <style type="text/css">.st0{fill:none;} .st1{fill:none;stroke:#000000;stroke-linecap:round;stroke-width:4;} .st2{clip-path:url(#SVGID_2_);} .st3{fill:none;stroke:#FFFFFF;stroke-miterlimit:10;}</style>
    <path class="st0" d="M1030.3 0h-860.6v1200h860.6v-1200z"/>
    <path class="st1"
        d="M570.2 959.8l-57.8-14.8M606 817.1l-47.6-12.2M577.8 230.8l-.5 578.8M577.1 993.3v3.2l-1.2 18.2c-4.4 20.9-17.9 38.5-33.7 51.9-14.2 12.1-17.7 13.1-31.7 20.4-30.4 15.9-64.1 24.9-98.2 28.7l-31.3 1.9-31.6-.9c-42.9-3.2-87.2-14.3-123.6-37.4-21.3-13.6-41.1-31.3-49.5-56-5.1-15.4-3.6-26.4-3.6-42.7l.7-716.7.1-24.5M312.9 124.1c-16.2 2.5-32.1 7.5-47.4 13.2-20.5 7.8-40.3 17.4-57.1 31.8-25.8 21.9-43 54.4-31.4 88.4l8.5 17.5c10.3 16.4 24.8 28.2 40.8 38.4 36.5 23.2 80.6 34.4 123.5 37.6 54.6 4.1 112.4-4.1 161.2-29.4 24.2-12.6 46.7-29.4 59.2-54.5l6.4-17.9c5.4-26.3-5.9-51.7-23.9-70.6-23.8-24.8-58-40.1-90.7-49.1l-28.2-6.2M986.4 800.3l3.2 4.4M912.2 1146.2l-2.8.4M914.1 1146l-1.9.2M850.2 902.4l-239-64.3M914.6 782.2l-239-64.3M821.7 1144.7l-239.1-64.4M582.6 949.5l239.1 64.2M876.6 1171.7l-6.6 8.1-1.9 2"/>
    <path class="st1"
        d="M853.1 1165.8c.5 3 .7 4.4 1.7 7.2 2.4 5.4 7 7.3 11.9 3.9 5.5-3.9 10.9-12.3 15.1-16.9l7.3-7.6 7.3-6.7c4.4-3.9 9.1-7.5 14.2-10.5 6.1-3.5 13-6.6 20.1-7.6 5-.6 9.7 1.2 14.4.5 3.9-.5 7.1-4 9.6-7 14.9-18.4 17.2-43.6 20.8-66.1 2.8-17.4 6.1-34.6 10.2-51.8 8-34.8 18.7-68.5 31.2-101.9 4.8-13 8.1-26.8 8.1-40.7 0-5.4-.3-11.2-2.8-16-3.4-6.3-11.5-5-17.2-8.2-6.1-3.3-11.2-8.3-15.1-14.1-7.1-10-11.3-21.8-14.4-33.6-1.5-6.3-1.8-21.3-11.5-21.3-11.4 3.7-17.1 18.8-20.9 28.9-8 20.2-16.1 40.2-25.6 59.8-8.6 17.1-17.9 33.9-28.5 49.8-10.6 15.9-22.8 28.2-29.3 46.3-4.4 12.8-7.5 26.5-7.1 40 .4 10.7 3.8 21.3 5 32 1.7 13.5 2.2 27.2 2.2 40.9 0 21-1.5 42-3.9 62.8-1.5 13-3.8 25.2-2.8 37.9zM869 1180.8c-5.6 9.4-17.7 14.9-28 16.6-3.4-.2-7.8 0-11-1.6-4.7-2.2-6.9-7.9-8-12.5-3.3-12.5-2-26-.3-38.5l2-15.4 1.7-14.9 1.8-28.7c.5-16.9.2-33.9-1.8-50.7-1.4-10.6-4.4-21.1-5.1-31.9-.8-12.2.8-24.7 3.2-36.9 3.7-18.2 9.7-36.5 19.1-52.7 6.6-11.2 15.7-20.9 22.9-31.5 12.3-18.5 22.8-38.1 32-58.3l11.7-27.2 5.4-14.4 5.6-13.1c4-8.6 8.9-17.4 15.7-24.3 3.2-3.4 7.8-7 12.8-7 3.4.2 6.8 1.9 9.7 3.6 2.1 1.2 3.3 2 5 3.7 3.4 3.1 8 13.4 10.2 17.3M982.2 792.2c-3.6-9.8-5.8-19.6-8.5-29.7M974.7 766.4l.4-.3M981.3 790c3.7 8.3 1.7 4.2 6.3 12.5M1017 840.2l.3-.1M914.1 1146c4.4.5 8.6 1.1 12.9.5 23.1-3.9 35.2-29.9 41.9-49.7l3.1-10.8c1.4-5.4 2.4-10.8 3.1-16.2l4.7-30.1 6.1-30.6c3.4-15.5 7.5-30.7 11.9-45.9 4.3-15.1 9.2-30 14.5-44.8 3-8.6 6.6-16.9 9.1-25.7l3-11.5c4.6-21.3 7.3-53.4-14.6-66.8-2.9-1.8-5.9-2.8-9.3-3.7l-9.3-4-2-2.2M909.4 1146.6c-7.5 2.6-.7 0-7 3.1M874.9 1173.7c6.1-6.7 12.2-12.8 19.1-18.8M903.9 1148.5c-7.9 5-4.2 2.4-11.3 7.7M832.8 1196.6l-23.6-6.3-191.8-51.6-23.6-6.3c-2.6-.7-3.3-.5-5.4-2.6-7.1-6.7-7.4-19.6-7.4-28.7-.1-12 2.2-24 3.6-35.9 1.8-14.6 3.1-29.1 3.4-43.7.6-16.9.2-33.9-1.8-50.8-1.3-10.6-4.5-21.1-5.1-31.8-.8-12.4.8-25 3.3-37.3 3.8-18.3 9.9-36.8 19.5-53 4.1-7 9.3-12.7 14.1-19.1l13.8-20c9.8-15.7 18.5-32.1 26.2-48.8l12-27.9c4.7-12.1 8.8-24.5 15.1-35.8 4.7-8.3 11.2-19.4 20.9-22.8 2.1-.8 3.8-.8 5.9-.2l23.8 6.3 192.2 51.8 23.7 6.3M588.2 1004.4c-15-6.3-17-27.9-17.9-41.8l-.2-9.3c0-26 4.7-52 11.9-76.8 6-21.3 14.1-42.1 25.2-61.3l4.9-8c7.8-12 20.3-29.4 36.6-27.7M512.4 945c-3.7-6.1-4.4-14.9-4.8-21.3l-.1-6c0-16.8 3.1-33.7 7.7-49.9 3.9-13.8 9.2-27.4 16.3-39.9l3.2-5.1c5-7.7 13.2-19.1 23.7-18M312.8 230.7v-188.4l.2-4.7c2.4-14.1 17.3-21.9 28.7-27.8 19.5-10.2 47.6-9.2 66.6 1.8 8.6 4.9 17.7 9.4 22.6 18.3 5.7 9.9 3 24.3 3 33.9v163.79999999999998M312.8 42.3c4.9 25.5 36.7 33.2 58.9 33.5 5.6.1 11.1-.2 16.4-1s10.5-2 15.4-3.6c11.4-3.7 24.1-10.6 29-22.3 1.6-4.1 1.3-5.2 1.5-9.5M408.3 11.6c11.5 6.8 19.1 19.8 9.3 31.7-2 2.6-4.7 4.8-7.6 6.7-10.9 7.3-24.1 9.1-37 9.6-12.8-.6-26-2.6-37-10-8.7-6-14.9-16.2-9.6-26.5 1.5-2.8 3.6-5.2 6-7.3 3.4-3.1 5-3.7 9.3-6M408.3 11.6c11.5 6.8 19.1 19.8 9.3 31.7-2 2.6-4.7 4.8-7.6 6.7-10.9 7.3-24.1 9.1-37 9.6-12.8-.6-26-2.6-37-10-8.7-6-14.9-16.2-9.6-26.5 1.5-2.8 3.6-5.2 6-7.3 3.4-3.1 5-3.7 9.3-6M312.8 230.7c4.9 25.5 36.7 33.2 58.9 33.5 5.5.1 11-.2 16.3-1s10.5-2 15.4-3.6c11.4-3.7 24.1-10.6 29-22.3 1.6-4.1 1.3-5.1 1.5-9.4"/>
    <defs>
        <path id="SVGID_1_" d="M169.7 1200z"/>
    </defs>
    <clipPath id="SVGID_2_">
        <use xlink:href="#SVGID_1_" overflow="visible"/>
    </clipPath>
    <path class="st3" d="M169.7 1200l27-27"/>
    <path class="st0" d="M169.7 1200z"/>
</svg>
