<svg xmlns="http://www.w3.org/2000/svg" xmlns:xlink="http://www.w3.org/1999/xlink"
    viewBox="0 0 1200 1200" enable-background="new 0 0 1200 1200">
    <style type="text/css">.st0{fill:none;} .st1{fill:none;stroke:#000000;stroke-linecap:round;stroke-width:3;} .st2{clip-path:url(#SVGID_2_);} .st3{fill:none;stroke:#FFFFFF;stroke-miterlimit:10;}</style>
    <path class="st0" d="M939.6 0h-679.2v1200h679.2v-1200z"/>
    <path class="st1"
        d="M449.1 279.8c-6.7-9.2-16.4-15.6-27.1-18.4M424.2 205.5c-8.2 23.8-9.2 48.8-2.1 56M455.6 152c-7.4-1-17.2 12.5-24 31.9M465.1 229.2c-11.7-12-26-19.9-40.9-23.8M485.2 327.7c12.7-36.6 3.9-73.8-20.1-98.5M526.7 409.7c14.4 3.8 26.2 4.4 27.4 1.5M465.3 369.4c-20.4-4.9-30.6-3.5-24.3 2.9M634.2 262c-52.2-14.1-109.5 17.9-128 71.4M628.5 324.5c-26.4 0-50.6 18.3-59.4 43.4M634.2 262c-7 20.3-8.7 41.6-4.7 51.9M666.5 208.7c-7.5-2.1-17.8 11.6-24.8 31.8M666.5 208.7l.1-.1"/>
    <path class="st1"
        d="M505.6 313.7c-3.2-3.2-8.4-3-11.8.4s-3.6 8.7-.5 11.8c3.1 3.1 8.4 2.9 11.8-.5s3.6-8.6.5-11.7zM641.7 240.5l-210.1-56.6-7.4 21.5M665.7 208.5l-210.1-56.5M470.3 370.7l14.9-43M491.3 376.4l14.9-43.1M628.1 324.5l2.5.1M641.7 240.5l-7.5 21.5M667.4 209.2l-.9-.5M447.6 277.9c-5.6-5.1-12.2-7.6-19.2-10M454.1 325.6c1.8-6.7 3.6-13.1 3.2-20.1-.3-7.1-.9-8-2.6-14.8M454.9 291.5c-3.3-8.2-1.3-4.1-6.1-12.2M422 261.4c7.1 7.3 3.8 4.9 9.1 8.2M485.2 327.7c-8.5-2.2-17-4.2-26-4.2l-2.5.4c-5.1 1.1-5.2 9.1-6.3 12.5l-7.3 21.1-3.8 10.9M465.3 369.4c24.8 6.7 50.8 12.4 73.1 25.7 5.5 3.3 9.6 7.2 14 12.1 2.1 2.1 1.7 1.7 1.7 4M460.8 387.6c-4-2.2-6.4-3.3-10.1-5.9-3.4-2.5-6.8-6.4-9.7-9.3M554.2 411.1l3.8-10.9 7.3-21.2 3.8-10.9v-1.2c-.2-1.1-1.1-2.1-1.8-2.9-3.2-3.4-6.4-7-10.3-9.7-5.4-3.8-11.4-6.6-17.3-9.2-10.9-4.8-22.1-8.6-33.5-11.9M374.2 829.2c1-2.7-10.1-9-24.6-14.1-14.2-4.8-26.5-6.7-27.9-4.3M374.2 829.3v-.1M321.7 810.9l-.1.2c-.9 2.7 10.1 8.9 24.6 14 14.2 4.9 26.5 6.8 28 4.3M369.7 814.6c-5.3-2.6-11.4-5.1-17.4-7.2-18.1-6.2-33.7-8.6-34.9-5.2v.1M466.9 369.8l-43.3 125.2M532.8 392l-30.5 88.1M321.8 812.2l-4.3-8.6-.2-1.2 3.8-10.9 41.5-120 3.8-11M432 683.2l-3.8 11-41.3 119.7-3.9 11-.5.8-8.8 4.1M383 824.9c-.4-2.1-1.7-3.2-3.4-4.4-3.1-2.3-6.5-4.1-10-5.8M503.8 315.5c-2.2-2.3-5.9-2.1-8.3.3-2.4 2.3-2.6 6-.4 8.2.7.7 1.5 1.1 2.3 1.3M502.8 324.2l.5-.5c2.4-2.3 2.6-6.1.4-8.2M505.6 313.7c-3.1-3.1-8.4-3-11.8.4s-3.7 8.6-.6 11.8c1 1 2.1 1.6 3.4 2M504.2 326.2l.8-.7c3.4-3.4 3.7-8.6.6-11.8M502.8 324.2l1.4 2M497.5 325.4l-.9 2.5M500 328l-2.5-2.6M527.2 10c-3.4-.5-7.2 1.3-10.7 4.9M294.1 473c-2.9 26.8 2 45.2 11.4 47.7M305.6 520.7l.1-.1M330.9 541.2c-7.4-11.4-16.2-18.2-25.3-20.4M274.1 512.3l.1-.2M299.4 532.7c-7.4-11.5-16.2-18.3-25.3-20.4M263.9 454.5c-5.1 31.9-.6 54.6 10.1 57.7M275 412.7c-5.3 13.9-9.1 28.5-11.2 41.9M495.6 1.5c-3.4-.5-7 1.3-10.7 4.9M527.9 10.1l-.7-.2M534.7 17.7c-1.7-4.4-4.1-6.9-6.8-7.5M414.6 422.1c9.5 7.6 19.5 12.6 29.1 14.8M402 306.4c-9.3 61.3-3.7 102.1 12.6 115.8M352.2 519.2l-40.5-41.2M274 512.3l31.5 8.4M527.2 10l-31.6-8.5M420 148.1c6.3-9.8 13.4-19.4 21.1-28.2 6-6.9 12.5-13.3 18.5-20.1 6.7-7.5 12.7-15.6 18.4-23.8 6.4-9.4 12.5-19 18.1-28.8 6.3-11.1 11.5-22.9 20.3-32.3M394.8 191c-5.6 10.5-10.5 21.3-15.4 32.2-10.5 23.6-19.8 47.8-27.8 72.4-5.8 18.1-10.9 36.2-17 54.1-5.4 15.8-11.4 31.6-17.8 47-4.2 10.1-8.8 19.9-12.4 30.1M330.9 541.2c3.8 6.6 7.2 13.4 11.9 19.3M299.4 532.7c3.8 6.6 7.3 13.5 12.1 19.4M484.9 6.4c-8.8 9.4-13.9 21.2-20.2 32.3-5.7 9.9-11.7 19.5-18.1 28.8-5.6 8.3-11.7 16.4-18.3 23.9-9.4 10.7-19.6 20.6-28.2 32-14.8 19.5-27.4 40.9-38.5 62.6-16.6 32.5-30.1 66.6-41.3 101.2-5.8 18-10.9 36.2-17 54.1-8.2 24.3-18.1 47.9-28.1 71.4M537.2 31.9c-.1-4.9-1.1-9.5-2.5-14.2M408.5 275.4c-2.6 10.2-4.6 20.6-6.5 30.9M446.4 429h-1.7l-8.5 1.2-8.3.3-.8-.1M658.1 639.7c7.6 12.4 16.7 19.8 26.3 22.1M625.9 607v-.2M651.1 627.4c-7.4-11.5-16.2-18.3-25.3-20.4M615.7 549.2c-5.1 32-.6 54.6 10.1 57.7M626.8 507.4c-5.3 13.9-9.1 28.5-11.2 41.8M847.5 96.2c-3.4-.6-7.1 1.3-10.7 4.8M748.3 684.9c5.7 9.5 14.4 9.3 23.7 1.2M721.5 662.1c-6.1-1.6-12.5-1.6-18.5-.1M748.3 684.9c-7.6-12.9-17-20.4-26.8-22.8M684.4 661.8c6.1 1.7 12.6 1.7 18.5.2M626.6 631.1c7.6 12.6 16.7 19.9 26.4 22.2M594.3 598.5l.2-.1M619.6 618.9c-7.4-11.5-16.2-18.3-25.3-20.4M584.1 540.7c-5 32-.6 54.7 10.2 57.7M595.3 498.9c-5.3 13.9-9 28.5-11.2 41.8M815.9 87.8c-3.4-.6-7 1.3-10.7 4.9M848.2 96.3l-.8-.1M855 103.9c-1.7-4.4-4.2-6.9-6.8-7.6M819.8 222.8c10.7 0 24.8-22.2 32.6-51 3.4-12.8 5.1-25 5.2-35.1M814 223.4c-11 .6-30.2 18.8-46.1 43-4.8 7.3-8.8 14.5-12 20.9M720.9 401.4c-5.6 44.7-3.5 76.3 4.6 93.8M725.6 495.3c3.3 11.2 18.1 21.9 36.1 27.1 13 3.8 25.4 4 34.7 1.4M801.5 523.9c-1.7-.4-3.4-.5-5.1-.2M812.8 538.4c-2.5-8.6-6.5-13.4-11.3-14.5M594.3 598.5l31.5 8.4M651.1 627.4l7 12.3M765 515.3l6.2.1M770.3 515.5l31.6 8.5M653 653.3l31.4 8.5M619.6 618.9l7 12.3M847.5 96.2l-31.6-8.4M814 223.4l5.8-.6M756 691.6l-31.3-8.4M836.7 101c-8.8 9.4-14 21.3-20.3 32.4-5.6 9.8-11.6 19.5-18 28.8-5.7 8.2-11.8 16.4-18.4 23.9-9.4 10.7-19.5 20.6-28.2 32-14.9 19.4-27.4 40.8-38.5 62.7-16.5 32.4-30.1 66.5-41.3 101.2-5.8 18-10.9 36.2-17 54.1-8.3 24.2-18.1 47.8-28.1 71.4M747.4 516.7h.8l8.3-.3 8.5-1.1M796.5 523.8l.1-.1M724.7 683.2c-2.1-1.2-3.2-1.7-3.8-2.1M772 686.1l5.8-5.9 1.4-1.9M805.2 92.6c-8.7 9.4-13.9 21.2-20.2 32.3-5.7 9.8-11.7 19.5-18.1 28.8-5.7 8.2-11.8 16.3-18.4 23.8-9.4 10.7-19.5 20.6-28.1 32-14.9 19.5-27.4 40.8-38.6 62.6-16.5 32.5-30 66.6-41.3 101.2-5.8 18-10.9 36.1-17 54-8.3 24.3-18.1 47.9-28.2 71.5M857.6 136.7c0-11.1.8-22.1-2.5-32.8M720.9 401.3c6.1-39.6 17.4-77.9 34.9-114M814.6 547.1l-.1-1.5-1.7-7.2M415.6 457.5l-11.2 32.3M410.9 456.2l-6.6 33.5M584.5 585.3l-80.6-21.6M583 537.8l4.3-12.7M412.7 456c-36.8-9.9-73.6-19.8-110.3-29.7l-1.7.1-6 1.6c-2.5.6-7 .8-8.6 3.4M431.1 473.3l-7.8-7.9-7.7-7.9-2.1-1.3c-8.4 0-16.4 4.4-24.6 5.5-8.5 0-16.6-2.7-24.7-4.9l-45.9-12.3c-7.4-2-15-3.8-22.2-6.5-3.5-1.3-8.2-2.8-10-6.5M407.7 493.1l-3.3-3.4c-7 1.8-15 4.5-22.2 5.5-8.5 0-16.6-2.7-24.6-4.9l-45.9-12.3c-8.4-2.2-17-4.2-24.9-7.6-2.2-.9-5.8-2.2-7.1-4.5l-.2-.9 2.2-11.4 4.4-22.1M380.8 530.5l-11.3-3-1.3-.4-11.2-3-4.8-4.9M584.4 539.3l-1.4-1.5c-6.4 1.7-12.5 3.6-19.2 3.7-16.7-.4-32.7-4.5-48.8-8.8l-45.9-12.3-11.1-3.1c-2.5-.6-5.1-1.3-6.9-3M457.7 480.8c1.8 1.7 4.5 2.3 6.9 3l11.2 3.1 45.9 12.3c13.7 3.7 27.3 7.3 41.5 8.4 4.7.4 9.6.6 14.3-.3l5.9-1.5c3.2-.8 6.7-2.7 9.7-.8M451 514.3v-.5l2.3-11.4 4.4-22.2M591.1 504.1l-110.2-29.7-1.7.2-10.3 2.6-10.4 2.7-.8.3M692.8 248c-5.3-1.4-12.9 9.8-17 25-1.7 6.2-2.5 12.1-2.6 17M694.4 248.9c-.5-.4-1.1-.7-1.6-.9M693.3 221.4c-11.3 7-22.4 29-28.5 54.4-3.6 15.7-4.8 30.5-3.9 42.1M661.8 212.9c-14.3 10.3-25.9 36.2-30.6 65.1-3.1 20-2.4 38.7 1.3 52.8M804 93.8c-27.8-6.7-62.5 22.5-97 75.7"/>
    <path class="st1"
        d="M880.6 165c-5.3-1.4-13 10-17.1 25.5-4.2 15.4-3.2 29.1 2.1 30.5 5.4 1.4 13.1-9.9 17.2-25.4s3.2-29.1-2.2-30.6zM857.2 114.7c9.3 6.7 20 8.3 30.5 5.6M892.7 120.2c-1.7-.4-3.4-.4-4.9 0M895.7 208.4c.9-3 1.8-6 2.5-8.6 10.8-40.2 8.4-75.8-5.5-79.5M704.8 663.1c2.9 13.2 9.1 19.3 16.2 18M674.7 659.2c1.8 7.6 7.2 13.5 12.4 13.8M860.2 111.6l31.5 8.5M704.6 661.7l.2 1.4M717.2 681.2l-31.5-8.5M693.3 221.4l8.8-5.7c14-10.3 26.1-23.8 36.5-37.6 15.3-20.5 29-43.2 49.6-59M632.5 330.9l2.5 4.1c2.7 3 6.3 3.2 10.1 4.2l6.7 1.8M707 169.6c-8.4 10.6-17.1 21.4-27.4 30.3-8.8 7.5-8.4 6.9-17.7 13M857 111.7c3.8-.3 1.8-.4 5.8.7M853.8 355.3c7.8-29.5 14.1-59.5 22.7-88.8 5.7-19.6 12.5-38.8 19.2-58.1M853.9 355.1c-7.2 24.9-14.9 49.7-24.2 73.9-6.5 16.8-13.9 33.3-20.8 49.9-5.8 14.1-11.1 28.3-16 42.7M768.9 264.9c1.3 32.5-2.7 64.8-10.3 96.4-4.8 19.7-11.5 38.9-17.9 58.3-6.3 19-13.2 38.1-20.4 56.8M793.9 235.1c4.8 11.6 5.9 24.4 6.5 36.8.4 11.8.4 23.6-.4 35.4-1.8 25.9-6.6 51.7-13.6 76.8-4.2 14.8-9.3 29.3-14.2 44-9.5 28.6-20.4 56.7-31.4 84.7M536.2 152.5c-9-2.4-19.4 2.7-29.6 13.3M555.2 178.8c-4-15.6-10.7-24.2-18.9-26.3M592.9 36.9c-28.7-5-62.1 23.2-95.9 76M597.7 38.1c-1.6-.5-3.3-.9-4.8-1.2M420.3 147.9c-14.3 10.3-26 36.2-30.6 65.1-3.1 20-2.4 38.6 1.2 52.8M562.7 28.6c-28.7-6.1-62.7 22.6-97.2 75.8M566.2 29.6c-1.2-.4-2.5-.7-3.6-.9M611.6 46.3c10.3 9.4 22.4 12 34.7 8.9M651.1 55.2c-1.7-.4-3.4-.4-4.9 0M662.9 98.7c1.9-25.1-2.9-40.9-11.8-43.5M429.5 190.3l-3.2 9.2M618.7 46.6l31.4 8.4M662.8 100.4l.1-1.7M518.3 156.2c2.4 4.5 4.2 9.2 5.4 14.1M645.7 167.8c-3.7 10.8-7.1 21.7-10.4 32.6M614.7 46.7c4.5-.3 2.3-.6 6.6.5M614.7 46.7l-2.1.4M457.6 152.5c15.7-10.3 27.8-25 39.4-39.5M428.2 280.8l-3.3-2.3c-5.3-5.8-5.2-15.4-5.5-22.7M390.9 265.8l2.6 4.1c3.4 3.7 10.9 4.4 14.5 5.3l9.1 2.5 11.2 3 4 .2c4-.7 7.5-3.8 10-6.8M465.5 104.5c-8.4 10.7-17.1 21.5-27.4 30.4-8.8 7.6-8.4 6.9-17.7 13M611.6 46.3l-6.6-5c-6.2-3.7-11.2-4.4-18.4-6.3l-9.1-2.5-11.2-3M599.4 332.2c-5.6 16.5-11.6 33-18.2 49.1-8.4 20.3-17.3 40.4-25 61M640.6 94.4c-6.3-1.7-15.6 11.9-20.6 30.4s-3.9 34.9 2.5 36.7M640.6 94.4l.1-.1M880.8 164.8c-1.8-.5-4 .6-6.1 2.7M871.5 171.7c-3.3 5-6.1 11.7-8 18.6-4.2 15.6-3.4 29.3 1.9 30.8 5.3 1.4 13.1-10 17.3-25.6s3.4-29.3-1.9-30.7M622.5 161.5l74.8 20.2M743.9 122.2l-103.3-27.8M874.7 167.5l-2.5 2.9-.7 1.3M692.8 248c-5.3-1.4-12.9 9.9-17.1 25.3-1.6 5.8-2.4 11.3-2.6 15.9M694.4 248.9c-.5-.4-1.1-.7-1.6-.9M673.2 289.2v.7M938.2 743.7c0-1-.1-2-.2-2.8M897.7 771.6c23.7-2.5 40.2-14.3 40.5-27.8M894.6 799.8c.8.8 2.3 1.3 3.8 1.1M692.6 954.2c1.1 6.2 4.4 12.7 8.3 16.2M742.5 859.8c-11.4 5.9-23.3 18.1-32.6 32.4M682.8 950.4c2.3 11.2 8 18.2 15.8 20.8M881.4 819.9c16.1 1 31.1-2.3 40.7-8.1 7.9-4.3 12.7-9.6 14.5-15M733.8 853.9c6.2-3.4 11.9-7.1 16.5-10.5M737.4 853.7c17.3-9.3 30.9-21 40-33.5M742.5 859.8c20-9.9 35.5-22.9 45.9-36.9M750.1 843.6c6.5-4.8 12.3-10.1 17-15.4M881.2 747.9c-9.8.5-18.3 3.4-23.8 7.6M932.2 723c0-14-19.4-25.4-43.3-25.4s-43.3 11.4-43.3 25.3c0 2.3.4 4.5 1.3 6.3M881.2 747.9c2.7.2 5.3.4 7.8.4 23.9 0 43.3-11.4 43.3-25.3M852.3 742.9c.6-4.6-1.3-9.3-5.3-13.7M845.2 753.6c4.4-3.3 6.7-7 7.1-10.7"/>
    <path class="st1"
        d="M917.9 725.6c0-6.9-9.7-12.6-21.7-12.6s-21.8 5.6-21.8 12.6c0 6.9 9.7 12.5 21.8 12.5 12 0 21.7-5.6 21.7-12.5zM938.2 772.9c0-.4 0-.8-.1-1.3M898.4 800.8c23.4-2.6 39.7-14.5 39.8-28M938.1 771.6c-.4-4.9-3.2-10-7.2-13.3M938.2 789.4c0-.6 0-1.2-.1-1.8M881.7 817.5c1.1 0 2.1.1 3 .1 29.1.8 53-11.7 53.5-28.2M881.7 817.5c-8.2.4-15.2 2.8-19.8 6.3M702.3 960.5c4.7 9.7 13.7 13.8 23.4 11.9M755.8 861.9c14.3-8.6 26.1-18.7 34.5-29M881.7 755.9c-8.1.5-15.2 2.9-19.8 6.3M938.1 728.5c.6-8.7-5.5-17-15.6-23.4M881.7 755.9c30.3 1.7 55.4-10.5 56.4-27.5M920.8 704.1c-8.9-4.9-20.4-7.4-31.9-7.4-13.3 0-25.4 3.4-33.9 8.6-10.9 5.7-16.4 15.6-15.1 25.1.6 4.5 2.7 8.4 5.8 11.5M894.2 796.8v2M898.4 800.8l-4.1-1.6M913.3 702l1.4-.8M938.1 726.2v16M839.8 729.3v3M937.3 794.6l-.7 2.1M729.4 856.2l4.4-2.3M732.8 856.1l4.6-2.4M938.1 787.7v-16.1M920.8 704.1l1.8 1M826.1 781.4c-7 6.9-14.1 13.8-20.7 21-6 6.5-11.6 13.5-17.1 20.4M816.6 777.7c-7.3 7.2-14.5 14.2-21.4 21.7-6.2 6.7-11.9 13.8-17.7 20.8M897.7 771.6c-1.3.4-2 .8-3.1 1.5M711.8 975.8c-4.2-.8-7.5-2.5-10.7-5.3M692.6 954.2c-2.7-16 1.7-31.7 8.3-46.2M701.1 907.7c2.5-5.4 5.5-10.5 8.7-15.5M682.8 950.4c-2.2-12.7.1-25.3 4.6-37.3 5-13.5 12.6-26.2 22-37.1 6.7-7.9 14.3-15.1 23.5-19.9M705.7 973.8l-4.5-1.8-2.6-.8M894.6 799.8c-.4-.5-.2-.2-.4-1M894.2 796.8v-22.5c0-.6.2-.7.4-1.2M841.2 754.3c2.9-2.7 4-3.3 5.4-7.1M812.2 778.7c7.8-7.1 15.6-14 23.9-20.4l5.1-4M881.4 819.9c-6.5.7-12.2 1.9-18.1 4.6M864.5 823.7c-12.3 7.7-23.2 17.9-33.9 27.6M831.1 849.4c-.2 2.7-2.9 4.2-4.8 6.1l-6.7 7.1M798.1 890.6c6.5-9.9 13.6-19.2 21.5-28.1M798.4 890.2c-1.9 3.1-.1.2-2 3.2M682 944l.2 1.2M739 968c-2 1.4-5.9 3.9-8.1 5.1M730.4 973.3c-4.2 1.9-8.5 3-13.2 3.1-2.9 0-5.6-.4-8.3-1.3M697.3 970.6c-15.4-6.7-19.4-24.9-17.5-40.2 2.5-20.9 13.9-40.8 27.7-56.3 6.3-7.1 13.7-14 22.4-18.2M813 777.8c-10.1 9.6-19.8 19.4-29 29.8-6 6.8-11.3 14.1-17.3 21M857.3 755.5c-10.8 8.2-21.1 16.8-31.2 25.9M816.6 777.7c9.3-8.4 18.7-16.4 28.6-24.1M725.8 972.4c12-2.6 20.3-12.1 28-20.9 8.5-9.5 16.3-19.5 23.7-29.7 8.7-12.1 16.2-24.8 24.1-37.4 2.6-4.2 5.9-8.4 8.9-12.3 14.2-18.8 32.9-33.9 51.4-48.2M755.8 861.9c-5.8 3.3-11.8 6-17.2 10.1-15.7 11.9-28.1 29.7-35 48.1-4.7 12.6-7.3 27.8-1.3 40.5M861.8 762.3c-9.2 7.2-18.3 14.2-26.8 22-16.4 14.9-30.9 31.3-44.6 48.6M846.6 747.2c0-3.3.2-1.5-.8-5.3M577.1 982.5c-3.2 5-5.8 11.6-7.6 18.3-4.2 15.6-3.2 29.5 2.1 30.9.6.2 1.3.2 1.9-.1M581.4 1075.5c4.2 10.5 10.1 15.6 17 15.9M705.2 1006.6c-5.4-1.5-13.2 10.1-17.5 25.8-4.2 15.7-3.3 29.6 2.1 31 .6.2 1.4.2 2 0M706.9 1007.6c-.5-.6-1.2-.9-1.7-1M672.3 1084.3c4.9 9.4 13.2 14.7 22 15.1M684.2 1096.6c3.1.2 8.8-3.8 13-9.1M529.8 1044.8c5.1 38.1 25.2 44.1 48 17.3M420.9 862.7c12.3 53.2 90.8 91.9 182.1 92.1 26.9 0 52.5-3.3 74.4-9.1M419.6 792.7v.8c0 58.3 81.9 105.6 183.1 105.7 35.4.1 68.5-5.7 95.7-15.4M419.4 846v2.9c-.4 59.2 81 107.7 181.9 108.2 28.6.2 55.7-3.6 78.9-10.1M786.6 795.9v8.9M476.1 898.2l-5.7-3.3v-18.9M476.1 898.2v-18.9M470.4 876l5.7 3.3M476.1 898.2v-18.9M494.5 907.1v-18.9M501 890.8l-6.5-2.6M494.5 907.1l6.5 2.6M501 890.8v18.9M559.4 924.6v-18.9M559.4 924.6l-7.8-1.2M551.6 904.5v18.9M551.6 904.5l7.8 1.2M583.1 927l7.9.4M583.1 908.1v18.9M583.1 908.1l7.9.4M591 927.4v-18.9M623.1 908.1l-8.1.4M615 946.3v-37.8M623.1 945.9v-37.8M615 946.3l8.1-.4M521.8 935.6v-37.8M529.1 899.7v37.8M653.1 1106.4l-57.3-15.4M529.8 948.2v96.6M450.3 899.4l4.6 3.8v-37.8M450.3 899.4v-37.9M454.9 865.4l-4.6-3.9M679.8 945.1l-2.4.6M654.4 923.4l-7.7 1.2M646.7 905.7v18.9M646.7 905.7l7.7-1.2M654.4 923.4v-18.9M682.6 917.1l-5.6 1.5M684.3 897.8l-7.3 1.9M677 918.6v-18.9M684.3 912.2v-14.4M700.1 883.2l-1.8.6M419.4 846v-55.5M786.5 791.9c0 8.9.4 4-1.4 14.6M529.8 1044.8c-12.6 7-26.1 14.9-40.8 16.9-1.1 0-2.3 0-3.4-.3M529.1 899.7l-7.3-1.9M521.8 935.6l7.3 1.9M581.5 1075.5c-1.9-5.8-4-11.9-4.4-18v-101.49999999999999M723.1 981.6c.1-2.5.2-3.3-.6-5.7M719.5 978.1c2.2 3.5 1.2 1.4 2.9 6.4M722 976c-2.4 1.4-4.3 4-6.1 6.1l-3.8 4.6-4.5 5.9c-9.6 12.2-19.3 24.6-26.9 38.2-1.5 2.7-7.7 14.2-8.3 17.5v35.9M577.1 1057.5c20.7 19.2 43.4 36 69.8 46.6 14 5.6 30.3 8.6 45 4.6M482.8 930.7c0 17.1-.2 34.2 0 51.4s.8 34.2.4 51.4l-.4 6.3v9.1c0 .9-1.5 9.6 1.4 11.8l2 .8 11.2 3 40 10.8 11.2 3M420.5 852v-26.2c0-13.2.6-7.8-.8-16.2M438.3 868.5l-3.4-4.2v-19M426.8 851.3l-2.2-4.5v-18.9M438.3 868.5v-19l-3.4-4.2M424.6 827.9l2.2 4.5v18.9M419.8 809.6v26.299999999999997c0 13.2-.6 7.8.7 16.2M530.5 732.3c82.7 21.3 178.8 3.2 224.9-40.8M528.1 740.1c91.6 23.6 199 .4 241.4-52M454.4 705.5c18.6 14.9 42.6 26.1 68.4 33.2M471 707.3c15.7 10.1 34.7 18.1 54.2 23.5M550 708.1c44.6 11.4 94.3 7.3 131.6-8.5M554.8 692.6c48.9 12.4 104.6 4.4 138.6-17.9M423.1 808.8c9.9 32 44.7 58.3 91.8 73.9M643.2 883c15.4 5.4 33.1 2.8 45.5-5.5M656 840.4c-22.5 9.8-32.4 21.4-28.1 30.7M528.8 886.8c59.3 15.3 125 10.8 175.3-8.8M618.5 437.2c-45.1-3-82.9 7.1-109.9 26.5M616.8 438.1c-45-3.2-87.7 9.4-110.6 30.5M423.8 789.7c.1 2.2.5 4.6 1.1 6.8 1.9 7.8 5.5 13.5 8 12.9 1.3-.3 2.1-2.1 2.3-4.8M681.5 699.7l18.6-23.1M549.7 576v72M554.8 577.4v74.1M419.5 719.5l.1 73M515 882.7l8.6 2.7M549.7 691.2l-5.6-1.7M618.5 437.2l1.5.2M507.6 464.6l1-.9M619.6 438.4l-2.8-.3M424.2 778.8l.9-.3M786.6 673.9v105.5c0 10.3 0 20.2-3.9 30M544.7 706.8c-5.1-1.7-10.2-3.2-15.2-5.2M681.5 699.7c3.5-4.4 6.3-9.1 8.9-14.1 1.6-3.3 3.4-6.9 4-10.5M688.7 877.5c3.8-2.8 7.8-5.9 10.5-9.8l3.7-6M627.9 871c2.7 6.3 9.3 9.7 15.3 12M702.9 861.7c1.6-4.1 3.2-8 3.2-12.5l-.6-4.3-.2-1.3-1.6-3.2-.8-1.3c-5.1-5.3-11.4-6.1-18.5-6.3-10 .8-19.2 3.6-28.5 7.4M554.8 662.2v18.9c0 8.6 1 17.9-3.8 25.5-3.6 6-8.9 11.3-13.3 16.8-3.2 3.9-8.6 8.6-9.5 14.3l-.2 2.5v144.29999999999998c0 1.1.1 1.5.7 2.5M528.1 881.1l-2.8 3.4-.9.8h-.8c-.6-.9-.7-1.4-.7-2.5v-144.29999999999998l.3-2.5c.9-5.7 6.3-10.4 9.5-14.3 4.4-5.5 9.6-10.8 13.3-16.8 5.1-8.2 3.8-18.5 3.8-27.6M433.5 795.3c.6 2.2 1 4.1 1.4 6.3M425.1 778.5c3.9 3.5 5.6 9.1 7.4 13.8M423.8 789.7c-.2-3.7-.9-7.3.4-10.9M636.4 868.7c3.2-5.2 5.7-11.5 7.4-18.2M628.1 865.4l6.9-2.1M640.7 848.6l-5.7 14.7M637.5 850.8l-4.2 10.5M644.8 846l-1 4.5M635 863.3c-.3-1.1-.6-1.3-1.7-2l-5.1 1.6M628.1 861.4l.1 3.1-.1.9M636.4 868.7c-3.7 5.1-1.6 2.9-5.9 6.6M466.6 921.3c-9.2 4.4-19.4 22.9-25.3 44.8-5.7 21.1-6 40.4-1.6 49.6M454.8 1012.1c-2.1 2-1.2 5.1 1.9 7.4M474.5 1023.8c1.2-1.4.2-4.2-2.3-7.1"/>
    <path class="st1"
        d="M474.1 1024.2l.3-.4-.3.4zM461.4 924.8c-8.4 3.2-17.9 20-23.5 40.3-5.1 18.8-5.4 35.9-1.4 44.2"/>
    <path class="st1"
        d="M743 1023.3c-4.3-1.2-10.5 8-13.7 20.3-3.4 12.4-2.6 23.4 1.7 24.4 4.2 1.2 10.3-7.9 13.7-20.3 3.3-12.3 2.5-23.2-1.7-24.4zM739.2 1016.2c-5.3-1.5-13.1 9.9-17.2 25.4-4.2 15.4-3.2 29.1 2.1 30.6 1.3.3 2.8-.1 4.2-1.1M742.2 1019.2c-.8-1.7-1.9-2.6-3-2.9M712.3 1066c.5-1.1-.5-3.3-2.5-5.2l-1.1-.9M707.6 1059.1l-1.2-.5c-3.1-1.4-6.3-.9-7 .9-.8 1.8 1.2 4.4 4.3 5.7l.8.4M577.1 1032.5l-7-1.8M464.7 922.3l-5.9 3.9M688.2 1062.5l14.1 3.8M713.6 1069.3l10 2.7M727.3 1013.1l12.5 3.4M703.4 1006.7l23.9 6.4M742.2 1019.2l3.2 6.4M734.2 1067.2l-5.9 4M456.1 1011.2l-2.3 4.4M461 1010.3c2.8.5 1.4.1 4.1 1.1M436.5 1009.4c.8 1.8 3.2 7.4 5.2 9.5 3.2 3.5 10.3 4 13.6 4.8l16.7 4.6 11.2 2.9M712 1066.5c-.5.2-.8.4-1.4.4M470.4 1024.8l-1.9-.2M465.1 1011.5l2.1 1M474.1 1024.2c-.8.4-1.3.6-2.2.7M456.7 1019.5c3.1 2.1 6.2 3.5 9.9 4.6M469.1 1013.7c1.1.9 2.1 1.9 3.2 3M461 1010.3h-1.9M457.4 1010.6c-1.1.4-1.7.8-2.6 1.5M714.9 1107.8c3.9-9 6.7-18.9 8.4-28M692.5 1186.7v.5c.1 2.1 2.7 3.6 6 3.5 2.9-.2 5.3-1.7 5.5-3.6M708.6 1102.7c4-9.3 6.6-19.6 7.9-28.9M723.3 1079.8l1.3-7.6M704 1187.1l-2.5-43.9M691.1 1161.4l1.4 25.3M710.5 1063.5l-28.5 135.1M670.6 1195.8l34.9-137.6M716.8 1070.2l-.4 3.6M748.4 970.6l-21.1 42.5M737 1015.7l21.9-40M682 1198.6c-3.9-.3-7.8-1.4-11.4-2.8M701.5 1142.3c0-4.8.8-9.3 2.5-13.9 1.4-3.6 3.6-6.5 5.5-9.9 2.6-4.5 3.1-6 5.3-10.8M708.6 1102.7c-1.8 3.9-7.3 12-9.6 15.6M769.9 933.3l-.1 3.5v.4M768 949.7c-2.2 9.3-5.1 18-9.4 26.5M756.2 950.2c-1.7 6.9-4.1 13.5-7.4 19.9M757.3 948.8c4.4.9 9.2.5 13.4-.8 9.6-2.9 16.3-10.3 17.2-18.2M765.8 938.6c5.7-.9 10.5-5.4 11-10.2M756.7 949.6c4.6 1.1 9.6.8 14.1-.6 9.5-2.9 16.2-10.1 17-17.9M798.7 899.9c1-1.7 0-4.2-2.3-6.5"/>
    <path class="st1"
        d="M798.5 900.4l.2-.4-.2.4zM789.7 917.7c.3-.6.3-1.5.1-2.2M785.7 919.9c2 0 3.5-.9 4-2.2M781.9 916.9l2.1.3M789.7 917.5l8.8-17.1M786.1 910.4c1.7 1.6 2.8 2.9 3.8 5.1M787.8 931.2c.4-2.4.6-5.2-.2-7.5-1.9-4.9-4.3-5.4-3-9.5M784.2 916.3c.4-1.2.6-1.9 0-2.9M776.6 928.9c0-1.3-.3-2.3-.9-3.4M861.4 576c-9.7-2.5-23.4 17.9-30.9 45.7-6.5 24.3-6.1 46.1.6 53.1"/>
    <path class="st1"
        d="M861.7 576.1l-.3-.1.3.1zM867.8 580.8c-9.1-2.5-22.1 16.8-29.1 43.1-7.1 26.3-5.5 49.6 3.6 52 7.9 2.2 18.8-12.2 26.3-33.7M870.9 582.6c-1-.9-2.1-1.5-3.1-1.8M866.3 578.4c-.6-.2-1.1-.4-1.7-.5M868.6 642.1c10.7-32.2 9.4-58.9-2.3-63.7M805.6 561c-9.7-2.6-23.4 17.9-30.9 45.7-6.6 24.3-6.1 46.1.6 53"/>
    <path class="st1"
        d="M805.9 561.1l-.3-.1.3.1zM849.6 611.3l19.4 5.2M859.6 648.5l-17.5-4.7M869 616.5l-4.6-20.3M775.3 659.7l3.2 2M778.2 661.6l55.8 15.1M869 616.5l-3.3 11.1-2.8 9.8-3.3 11.1-13.8 11.9M864.4 596.2l-13.9 11.9-3.2 11.1-2.9 9.9-3.2 11.1 4.6 20.2M805.9 561.1l11.2 3 33.4 9c12.3 3.4 7.9.9 14 4.8M810.1 544.2c-12.7-3.5-31.2 23.8-41.2 60.9s-7.7 69.9 5.1 73.4c5.9 1.5 13-3.4 19.8-12.7M810.6 544.4l-.5-.2M820.9 565.1c-1.3-11.9-5.1-19-10.3-20.7M797 540.7c-12.8-3.4-31.2 23.9-41.2 60.9s-7.8 69.9 5.1 73.3M797.4 540.8l-.4-.1M773.6 678.3l-13.2-3.5M797.4 540.8l13.2 3.6M791.8 785.8c2.5 3.9 5.7 5 9.2 3.6M824.4 686.3c-9.7-2.7-23.9 18.2-31.6 46.5-.2.7-.4 1.4-.5 2M828.2 688.7c-1.1-1.3-2.4-2.2-3.7-2.5M791.8 736.7l.5-1.9M824.6 686.3l-38-10.2M791.7 788.5c.4-3.5-1.1-6.8-1.6-10.2-.8-5.9-.9-11.8-.6-17.7.2-6.2.8-12.4 1.6-18.6l.7-5.3c.3-5.7-.1-13.8-.2-19.5-.3-9.9-1.7-19.7-4.9-29.1M786.6 781.8c.3-4.8 0-10 0-14.7 0-10.5.2-22.2 0-32.9M797.4 789.9c-7.8-2.1-4.1-.2-10.7-5.8M831.7 689.7c-9.6-2.1-23.2 18.2-30.5 45.6-6.6 24.6-6.1 46.7.9 53.3M831.7 689.7l-7.9-2.1M831.7 689.7l.7.3M790.3 779.6c-2.6-10.8-1.7-21.8 0-32.7M918.6 767.4c-2 7.6-1.5 14.3 1.1 15 .4.1 1 .1 1.4-.2M914.7 767.8c-2.1 8.5-1.4 16 1.6 16.7M902.4 770.8c-1.7 3.9.6 8.8 5.3 11.1.8.4 1.5.7 2.2.9M922.4 781.4c2.2-2 4.4-6.5 5.9-11.4 1.1-4 1.5-7.7 1.3-10.4"/>
    <path class="st1"
        d="M918.7 725.6c0-7.3-10.1-13.1-22.5-13.1-12.5 0-22.6 5.9-22.6 13.1 0 7.2 10.1 13 22.6 13 12.4 0 22.5-5.8 22.5-13zM846.3 705.4c-7.4 5.7-9.1 17.4-5.6 31.7M860.8 702.3c-6.2-.7-11.1.4-14.5 3.2M838.3 690c-9.8-2.2-23.8 18.7-31.4 46.9-5.5 20.3-6.2 39-2.5 49.2M854.6 694.4c-9.8-2.7-24 18.2-31.7 46.7-3.2 11.8-4.7 23-4.8 32.2M861.1 702.2c-1.6-4.6-3.8-7.2-6.5-7.8M853 700.1c-8.7-2.4-21.3 16.3-28.2 41.7-2.9 10.8-4.4 21.1-4.3 29.4M854.1 700.5l-1.2-.4M829.1 691.3c-9.9 3.7-20.6 22.5-26.7 45-2.9 10.9-4.3 21.4-4.3 30.1M918.6 767.4l.4-1.3M905.7 713.8v.6M852.8 699.9l8.3 2.3M840.8 737.1v17.5M838.3 690l16 4.3M922.4 781.4c-4.8 3.2-2.6 2.7-6 3.1l-6.5-1.7M835.4 758.8c1.1-7.5 3.2-14.5 5.3-21.7M798.1 766.4c.4 7.6.9 14.5 4.8 21.2M829.1 691.3c4.2-1.7 2.1-1.3 6.2-1.4M853 700.1c-8.6-2.4-21.2 16.2-28.1 41.5-2.9 10.8-4.3 21.3-4.3 29.6M854.1 700.5l-1.2-.4M854.6 694.4c-9.7-2.7-24 18.1-31.6 46.4-3.2 12-4.8 23.2-4.9 32.5M861.1 702.2c-1.5-4.6-3.8-7.1-6.5-7.8M835.8 690c-9.8 1.5-22.1 21.7-29 47.1-5.3 19.6-6.1 37.7-2.9 48.2M825.2 693.6c-8.8 6.4-17.5 23.3-22.7 42.5-6.2 22.9-5.7 43.8.4 51.5M804 785.2l.4.9M854.7 694.4l-16-4.3-5.9-.1c-3.1 1-4.9 1.9-7.6 3.6M301.2 566.8c-6.7-1.4-11.6-1.3-12.2.2M306.6 636.1c.8-.9-.1-3.2-2.2-6.3M295.4 631.1c5.9 4.4 10 6.1 11.1 4.9M290.7 596.9c-1.7 7.8-.1 15 3.9 20.3M297.9 582.2c-2.2 2.9-3.9 5.8-5.1 8.4M306.4 587.9c5.2 10.9 12.7 21.5 21.5 30.9M277.2 601.1c-2.9 7.8.9 16.6 9.1 22.9M382.4 664.5c-24.9-7-42.1-8.2-43.8-3.7-1.1 3.2 5.3 8.6 16.4 14.7M453.7 700.6c1.7-4.7-12.8-14.1-34.9-23.4M449.3 703.1c2.7-.4 4.1-1.3 4.4-2.5M547.4 684.2c.3-.7.5-1.4.6-1.9M518.6 699.1c15.1-.6 25.2-6.3 28.8-14.9M490.9 692.6c-1.3 1.5-.7 3 1.3 4M506.1 685.6c7.4-3.3 11.5-11.3 12.2-21.5M532.3 627.8c.7-2.8-10.7-9.5-25.8-14.7-7.8-2.8-15.2-4.7-20.5-5.6M459.2 600.1c8.9 3.7 18.2 6.2 26.7 7.4M446.1 591.1c-.5-3.4-12.4-9.7-27.1-14.9-14.7-5.1-27.6-7.3-30.4-5.2M505.1 686.1l.3-1M288.9 568.1l.1-1.1M279.6 594.4l9.2-26.6M292.8 590.6l-2.1 6.3M277.2 601.1l5.7-15.5M548.1 682.2l3-9.1M532.3 627.8l-15.4 44.6M430.8 686.6c2.9.4 5.9.8 8.8.7M357.8 659c2.4 1.9 4.8 3.5 7.4 4.9M499.4 528.5c4.6 2.9 9.1 5.6 12.2 10.3M488.7 608l3.7-11 15.8-45.6 3.8-10.9-.4-1.7-4.2-8.2M518.6 699.1l.1 3.1-.4.7-1.2 1.7c-2.2 1.9-6 2.3-8.5 2.8M468.8 664.3c13 6.3 25.6 13 37.4 21.3M525 621.2c-2.7 7.8-5.4 17.3-8.6 24.9l-2.2 1.4c-4.3 2.3-8.6 4.4-13.1 6.2-9.9 4-20 6.9-30.3 10-6.3 1.8-12.6 3.4-19.1 4-6.5-.1-12.2-1.3-17.9-4.2-2.4-1.3-5.5-3.5-6.5-6.1-1.6-3.8-.8-7.2-1.5-11.2-.8-4.7-1-5.7-2.6-10.6-4-12.2-10.1-23.6-15.8-34.9l8.5-25.5M415.4 575.1l-3.8 10.9-1 3-3.8 10.9-1.5.9-7 3.6-4.8 2.6c-7.4 4.2-15.1 8.8-20.8 15.1l-3.3 4.3M425.8 646.2c-18.8-6.7-37.5-12.8-56.7-18.3M392.8 497.9c7.2-2.2 14.7-1.1 22.1.2 12.7 2.2 25 5.8 37.3 9.9M399.8 494.7c.8-1.5.8-.8 3.9-1.3 2.3-.4 5.5-.3 7.9-.1 14.2 1.1 28.2 5.3 41.6 9.7M399.8 494.7l-7 3.2-1.1 1-3.8 10.9-17.2 49.9-3.8 10.9M328 618.8c-8.3-1.2-16.5-2.1-24.9-2.3-5.9.3-3.1 0-8.4.8M289.9 630.9c-4.6-4.9-8.8-9.9-11.6-16M295.4 631.1l-8.1-6.2-1.1-.9M294.6 617.3c3.3 4.2 6.6 8.2 9.7 12.5M310.8 552.1c-2.8 8.2-5.5 16.8-8.6 24.9-.5 1.3-3.9 4.7-4.3 5.2M306.4 587.9c-1.4-3-2.3-5.1-3.4-8.4-.2-.4-.7-1.9-.6-2.4 2.7-8.4 5.8-16.8 8.6-25M388.6 571.1l-3.8 10.9-11.6 33.5-3.8 11c-1.1 3.4-1.6 9.1-5.1 11-2.1 1.2-2.9 1.2-5.2 1.4-13.6-.9-22.5-10.7-31.3-20.1M293 590.3c4.3-12.5 8.3-25.1 13-37.4M360.3 678.2c-19.2-9.3-37.4-20.7-54.3-33.7-6.9-5.4-17-11.3-19.8-20.4M355 675.5l4.1 2.1 1.2.6M418.9 677.2c-12-4.9-24.1-9.1-36.5-12.8M427.8 701.3c7 1.2 14.3 2.6 21.5 1.8M544.5 689c-2.7 3.3-4.5 5.7-8.2 8.4l-8.4 5.1c-10.5 5.3-22.5 5.1-34 5.4-5.8 0-11.6.2-17.4-.2-17-1-34-3.4-50.7-6.8M492.2 696.6c2 1.2 4.4 1.6 6.7 2 6.4 1.1 13.3.4 19.8.4M506.1 685.6c-5.2 2.2-10.7 3.5-15.2 7M525.3 621.3c-2.8 8.2-6 16.7-8.6 25-.3.9.8 4.4.8 4.9.8 4.2 1.1 8.6.8 12.9M550.8 674l6.7-19.4M528.4 638.9c7.4 2.9 14.9 5.6 21.9 9.5 2.9 1.7 5.5 3.3 7.2 6.2M446.1 591.1c3 4.6 8.3 6.7 13.1 8.9M306 552.9c4.9-1.8 10.6-.2 15.5.9 7.2 1.6 14.2 3.9 21 6.5 7.2 2.8 14 6.4 21.2 9.1 5.2 1.9 10.6 3.6 16 4.6 2.4.4 5.7 1.2 7.9-.2M722.4 984.5v27.3M723.1 981.6v30.2"/>
    <defs>
        <path id="SVGID_1_" d="M260.4 1200z"/>
    </defs>
    <clipPath id="SVGID_2_">
        <use xlink:href="#SVGID_1_" overflow="visible"/>
    </clipPath>
    <path class="st3" d="M260.4 1200l14.2-14.2"/>
    <path class="st0" d="M260.4 1200z"/>
</svg>
