<svg xmlns="http://www.w3.org/2000/svg" xmlns:xlink="http://www.w3.org/1999/xlink"
    viewBox="0 0 1200 1200" enable-background="new 0 0 1200 1200">
    <style type="text/css">.st0{fill:none;} .st1{fill:none;stroke:#000000;stroke-linecap:round;stroke-width:3;} .st2{clip-path:url(#SVGID_2_);} .st3{fill:none;stroke:#FFFFFF;stroke-miterlimit:10;}</style>
    <path class="st0" d="M1101.5 0h-1003v1200h1002.9l.1-1200z"/>
    <path class="st1"
        d="M774.9 310.6l-1.5-10.1M773.4 311.1v-10.6M743.3 302l1.6 10M757.5 312.6v-16.4"/>
    <path class="st1"
        d="M726.5 338.4v-29.4l.3-2c1.4-7.5 8.7-12.8 15.6-15.1 10.9-3.6 21.9-3.7 32.8-.3 3.8 1.2 7.8 3.2 10.7 6.1 1.4 1.3 2.7 2.7 3.6 4.3 3.2 5.7 2.2 11.6 2.2 18.2v19.5c-.2 6.2-5.8 10.9-10.9 13.5-6.4 3.4-13.5 4.4-20.6 4.8-3.4-.1-4.3 0-7.6-.4-6.5-.7-13.4-2.7-18.9-6.8-2.8-2-5.2-4.6-6.3-7.8-.9-2.1-.7-2.6-.9-4.6zM726.5 309c.2 2 0 2.4.7 4.4 2.2 6.2 8.8 10.1 14.8 12.2 11.3 3.9 24.7 3.8 35.8-.6 6.7-2.8 12.8-7.3 13.8-14.9"/>
    <path class="st1"
        d="M779.6 294.8c-6.9-3.7-14-4.9-21.8-5.1-4.5.3-8.8.9-13.1 2.2-6.9 2.4-16.2 8.4-13.7 17 .4 1.4 1.1 2.7 1.9 3.8 1 1.3 2.2 2.4 3.5 3.4 7.6 5.8 18.3 7.2 27.5 6.3 6.9-.6 14.3-2.7 19.4-7.5 4.6-4.2 5.8-10.2 2.1-15.2-1.6-2-3.6-3.5-5.8-4.9zM772.1 290.7l-.9.6M743.3 302l14.2-5.8 15.9 4.3M774.9 310.6l-14.3 5.7-15.7-4.3M764.9 314.6l-7.4-2-4.2 1.7M356.2 972.1l.5-.6M463 1066.3l6.8-12.1M445.8 1068.2l6.9-12.5M461 998.3l-6.6 11.8M434.1 992.1l.3-.6M387.2 1013.3l-19.3 34.9M357.7 1039.3l16.3-29.4M543.5 794l-56.2 101.8M543.5 848.8l-29.7 53.8M551.8 905.5l-3.3 6M553.5 905.9l-3.3 6.1M505.6 676.9l-108 195.8M517.5 680l-108 195.8M507.1 796l-12.8 23.2M493 794.1l-12.3 22.5M400.2 989.8l-3 5.4M386.8 986.4l-2.9 5.4M351.4 978.9c-3.8 7-2.4 2.5-.7 13.9l5.6 36.5 1.5 10c.7 4.6 6 7.8 10.2 8.9l9.7 2.5 58.4 15 9.7 2.5c2.1.5 4.6.7 6.6-.5 3.8-2.6.2-12.3.1-13.7l-5.6-36.4-1.4-9.9c-.9-4.6-6.1-7.9-10.2-9l-9.7-2.4-58.4-15c-3.9-1.1-8.1-2.5-12.2-2.9-3.1.1-5.8 1.2-5.5 4.6M470.1 1057l-3.7 6.9c-2.6 4.5-4.1 9.9-9.6 11.3-1.4.4-2 .3-3.7.5-5.5-.2-10.6-1.9-16-3.4l-58.4-15-9.7-2.5-2.2-.6c-6.9-2.3-14-7.1-17.1-13.9-1.7-3.9-2-9.9-2.5-13.3l-5.6-36.4c-.2-1.5-2.8-10.7-1-14.3l4.4-7.8M340.4 976.3c3.1-5.7 10.2-5.5 15.8-4.2l9.7 2.5 58.4 15 9.7 2.5 2.3.7c6.8 2.3 13.9 7.2 17 14 1.8 3.8 2 9.7 2.5 13.1l5.6 36.5c.7 4.5 2.4 9.6 1 14.3"/>
    <path class="st1"
        d="M472.7 804c.1 1.8-.1 2.1.4 3.8 1.5 5.7 6.9 9.3 12.3 10.7 8.6 2.2 19.1-.2 25.3-6.8 1.4-1.5 2.7-3.3 3.4-5.3 3-7.8-2.4-15-9.6-17.6-3.2-1.2-6.5-1.5-9.8-1.5-8.5.7-18 4.3-21.2 12.9-.6 1.7-.6 2.1-.8 3.8zM473.9 809.8c.7-5.6 4.8-10.1 9.8-12.7 10-5.3 25.3-4.5 31.2 6.3M692.7 948.6l-572.4-147.2M702.4 1192.9l-572.4-147.1M100.7 854l572.3 147.2M106.5 826.5l572.4 147.2M703.6 1151.5l21.1 5.3M331.2 1045.9l-12.8-84.3 153.4 39.5M484.7 1085.4l-12.9-84.3M331.2 1045.9l153.5 39.5M472.1 1069.9l-7.9-2M724.7 1156.8l1.5 10-4.9 8.8-4.1 7.6-4.8 8.7c-1.4 2.6-3.4 6-6.6 6.3l-.7-.2-9.8-2.6-552.9-142.1c-5.4-1.4-10.5-.6-12-6l-.3-1.5-1.5-9.9-26.3-172c-.8-5.1-2-10.2-1.8-15.5.4-6.8 2.2-13.8 5.2-20l.9-1.8 4.8-8.8 4.2-7.5 4.8-8.8M724.7 1156.8l-4.8 8.8-4.2 7.5-4.8 8.8c-.4.7-.9 1.5-1.7 1.6-.5-.2-.7-.7-.9-1.3l-1.5-9.9-26.3-172-1.5-10-.1-.6c-.3-5.3 4.2-11 6.3-15l4.1-7.6 4.9-8.7-1.5-9.9M705 1198c-1.7-1.2-2.3-3.1-2.6-5.1l-1.5-9.9-26.4-171.9c-.7-5.2-1.9-10.3-1.7-15.6.4-6.8 2.2-13.8 5.1-20.1l1-1.8 4.8-8.8 4.2-7.5 4.9-8.7"/>
    <path class="st1"
        d="M141.6 955.9c0-1.2-.1-1.7.3-2.9 1.5-5.4 7.9-6.5 12.7-6.1 9 .7 18.6 6.2 23.6 13.8 2.6 4 4.1 9.8-.1 13.4-.8.7-1.7 1.2-2.8 1.6-1.8.6-3.6.8-5.5 1-7.9-.3-15.5-3.6-21.4-9-3.5-3.2-6.1-7-6.8-11.8zM180.3 965.2c-1.5.5-3 .6-4.5.6-7.9-.3-15.6-3.6-21.4-9-2.8-2.6-5.3-5.7-6.3-9.5"/>
    <path class="st1"
        d="M174.1 892.6c.5-3.7 4.2-4.4 7.4-3.9 4.3.6 8.6 3.1 11 6.7 1.8 2.6 2.2 6.3-1.1 7.7-1.1.5-2.3.5-3.5.5-5.7-.5-13.3-4.5-13.8-11zM175 891.1c4.9 4.8 11.4 8.5 18.1 10.1"/>
    <path class="st1"
        d="M197 1041.5c.4 6.6 8.8 11.4 15 11 .7 0 1.5-.2 2.2-.5 4.7-2 2-7.3-.6-9.7-1.1-1.1-2.3-2-3.5-2.7-2.3-1.2-4.5-1.9-7-2.1-3-.1-5.6.7-6.1 4zM197.9 1039.9c4.8 4.8 11.8 8.5 18.6 10"/>
    <path class="st1"
        d="M239.9 980.2c.2-1.5.1-2 .6-3.5 2.2-6.2 9.9-7.3 15.6-6.8 10.8 1.1 22.1 7.4 28.5 16.4 3.2 4.6 5.6 11.6 1.3 16.4-.9.8-1.9 1.6-2.9 2.2-2.6 1.4-5.5 1.7-8.4 1.8-10.4-.5-20.4-5.1-27.7-12.5-3.7-3.9-6.5-8.6-7-14zM246 971.2c2.7 12.2 15.2 20.6 26.7 23.6 4.9 1.3 10.5 1.7 15.4-.4M484.7 1085.4c-1.8-.6-2.4-.6-4.1-1.5-1.3-.6-2.4-1.4-3.4-2.3-5.3-4.5-5.1-11.4-6-17.8l-8.5-55.6-1.5-9.9M351.1 1042.9c-4.1 2.3-8.1 3.5-12.9 3.8-2.4 0-4.6-.3-7-.7"/>
    <path class="st1"
        d="M514.7 1050.7c1 11.3 11.7 19.6 21.4 23.6 1.8.7 3.6 1.3 5.5 1.8 3.9 1.1 8.4 1.5 12.5.6 1.2-.3 2.6-.7 3.8-1.4 1.1-.5 2-1.3 2.9-2.2 5.7-6.2.1-15.5-4.7-20.4l-2-1.9c-2.9-2.6-6.2-4.7-9.6-6.4-5.1-2.6-10.4-3.8-16-4.2-5.1.2-11 1.5-13.1 7-.6 1.5-.6 2.1-.7 3.5zM520.8 1041.8c2.7 12.2 15.2 20.7 26.7 23.6 5.1 1.3 10.5 1.7 15.5-.4"/>
    <path class="st1"
        d="M595 994.9l-2.7-.4c-1.2.1-2.3.1-3.5.5-3.4 1.4-2.9 5.1-1.2 7.7 2.2 3.2 5.8 5.5 9.5 6.4 3.5 1 9.6.5 8.8-4.5-.1-.7-.4-1.5-.8-2.1-1.8-4-6-6.3-10.1-7.6zM605.2 1007c-6.7-1.4-13.2-5.1-18.1-10"/>
    <path class="st1"
        d="M622.3 1079.5c0-1.3-.1-1.7.3-3 1.5-5.4 7.8-6.5 12.6-6.1 9 .9 18.6 6.2 23.7 13.9 2.6 4 4.1 9.7-.1 13.3-.7.7-1.8 1.2-2.7 1.6-1.8.7-3.6.9-5.5 1-7.9-.3-15.5-3.5-21.4-8.9-3.5-3.3-6.1-7-6.9-11.8zM661 1088.8c-1.5.5-2.9.6-4.5.6-8-.3-15.6-3.6-21.4-8.9-2.9-2.7-5.3-5.7-6.3-9.5M448.6 1029c-6-1.4-4-10.2-2.3-14.3M360.6 1006.4l32.5 8.3M365.2 987l9.7 2.5 12.7 3.2 9.6 2.4.7.2c1.9 1.2 2.4 4.6 2.3 6.7-.3 4.9-2.1 11-7.2 12.7-2-.5-2-3.1-2-4.7.1-3.9 1.1-8 3-11.4.8-1.5 1.6-2.9 3.2-3.4M399.7 998.3c-.7-.7-.3-.5-1.1-.6-3.5 1.7-4.6 7.6-4.8 11.1-.2 1.5-.1 5.3 2.4 4M609.7 839.1l-.7-2.5M558.4 864.8l24.1 6.2M585.3 887.1v-.2M582.5 901.7c1.1-3.7 2.1-7.1 2.4-11 .5-5.9.5-11.7 1.6-17.5.9-4.9 2.2-9.8 3.8-14.5l2.8-7.5c1.3-4.2 1.9-8.5 2.4-12.8M558.4 895.5c-1.2-4.2-2.4-8.6-2.6-13-.5-11.8 2.1-23.8 6.5-34.6 1.6-3.9 3.4-7.7 5.9-11.1.8-1.1 2.8-4.6 4.8-5.4 2.1-.9 4.5-.9 6.6-1l5.3.1 9.7 2.4 4.8 1.3 9.7 2.4M571.6 832.2c7.9 2.1 16.1 4.6 24.1 6.3 3 .5 6.3-.2 9.3-.2h1.3l9 2.3c1.5.5 2.9 1 4.3 2.2 4.6 4.1 4.7 12.3 4.4 17.9-.6 11.1-3.7 22.7-9.2 32.5-3 5.4-7 10.4-13.5 11l-1.1-.2-4.9-1.2-4.9-1.2-1.1-.5c-2.7-1.6-3.4-5.5-3.9-8.4-.4-3.1-.2-6.2-.5-9.4-.4-4.2-1.4-8.2-2.4-12.2M609 836.6c-1.5 1.5-3.5 1.2-5.3 2-1.9.8-3.4 2.2-4.5 3.7-4.4 5-6.4 11.2-9.3 17-2.1 4.2-4.6 7.9-7.4 11.6M615.3 840.5c-5.2.5-8.4 5.9-10.7 10-6 10.7-9.3 23.4-10 35.6l-.1 3.2c0 4.7.2 13 5.7 14.5M619.1 878.6c-1.2 4.2-2.9 8.5-5.3 12.2-1.6 2.5-3.5 5-6.5 5.6-4.4-.8-4.4-7-4.4-10.5l.1-2.8c.6-9.3 3.2-19.2 8.1-26.9.8-1.2 1.7-2.5 2.7-3.6l1.4-1.1 1.2-.7c4.3-1.7 5.4 4.9 5.6 7.6l.1 2.7c0 3.7-.5 7.2-1.2 10.9M558.4 895.5l9.7 2.6 4.8 1.2 9.7 2.6c2.6.5 5.9.1 8.4-.2M571.6 832.2c-4.6 6.1-8.5 12.4-10.7 19.7-1.3 4.2-1.6 8.5-2.5 12.9l-2 7.1c-.9 5.2-.7 10.2 0 15.3M415.3 789.2l-9.2-2.4h-1.6c-6.2.3-10.3 7-12.8 11.8-5.1 9.7-8.1 21-8.7 31.9-.3 5.1-.1 10.7 2.3 15.3 2.6 5 9.3 5.3 14 6.5l8.4 2.2M389.8 849.7c-4.3-3-4.5-9.4-4.5-14 0-12.2 3.2-25 8.6-36 2.3-4.9 6.1-12.4 12.2-12.9M613.4 853l3.5.9c1.7.5 3.1 4.5 3.4 5.3 1.2 2.5 1.3 5.4 1.2 8.2-.4 4.8-1.5 9.6-3.4 14-.7 1.9-1.7 3.8-2.8 5.4-1.9 2.7-4.9 5.2-8.1 5.8l-1-.2-2.8-.6M616.8 853.9l-.9-.3c-3.3.7-5.3 4-6.7 6.8-3.4 6.3-5.4 13.7-5.8 20.9-.3 3.6-.6 8.8 2.7 11.1M613.2 889.1c-1.2.9-.6.6-1.9 1.1-3.4-.3-3.4-4.9-3.4-7.5 0-6.8 1.9-14.1 5.3-20 1.4-2.3 4.4-6.9 7-3.6M851.7 582.3v12.3M817.7 492.7l83.1 22.4M851.7 361.2v12.3M900.8 521.5l-6.3 7.8-36.5 45.2-6.3 7.8c-.9.8-10.9 4.6-11.8 5.1-11.9 4.5-24.5 7.2-37.1 8.7M792.5 609.3c16.2-1.2 32.1-4 47.4-9.6 1-.4 11-4.3 11.8-5.1l6.3-7.9 36.5-45.2 6.3-7.7M900.8 300.5l-6.3 7.8-36.5 45.1-6.3 7.8-5.8 2.7c-4 1.7-8.1 3.2-12.4 4.6-18.5 5.9-37.6 7.8-56.8 7.8-21.3-.9-42.3-4.1-62-12.5-10.7-4.6-21-10.7-29.5-19-6.7-6.5-12.1-14.7-14.2-24.1-.2-.9-1.4-7.6-.9-8.5l6.3-7.8 36.5-45.2 6.3-7.9M900.8 312.8l-6.3 7.8-36.5 45.1-6.3 7.8-5.8 2.7c-4 1.7-8.1 3.2-12.4 4.6-18.5 5.9-37.6 7.8-56.8 7.8-27.2-1-55.1-6.1-78.4-21.1-11.2-7.2-21.7-17.3-26.1-30.3-2.7-8.1-2-16.6-2-25M631.5 22v402.2M642.1 15.8l-10.6 6.2M690.8 44l-10.7 6.1v249.7M900.8 300.5l-181.7-49M900.8 300.5v20.5M895.4 319.5l5.4 1.5M900.8 513.3l-83.1-22.3M900.8 513.3v20.5M680.1 361.1v-9.5M548 532.5v-482.3c0-7.5-.6-15 2.2-22.1 1.7-4.1 4.3-7.3 7.1-10.7 2.7-3.4 5.2-6.8 8.7-9.4 8.3-6 19.1-7.2 29-5.5l4.7 1.1 9.6 2.6 17.3 4.6c4.1 1.1 9.4 2.1 13.7 4l1.7.9 8.7 5 31.3 18.1 8.7 5.1 1.4.5 9.6 2.6 228.9 61.6 9.7 2.6 1.7.2 10.1.6 48.6 2.4c4.5.2 9.8.1 14.5 1.1l2.2.4 9.6 2.6 17.3 4.7c6.5 1.8 13 3.2 19.2 6 15.2 7.1 28.4 20.4 33.6 36.5 2.6 7.7 2.3 15.2 2.3 23.3v512c0 6 .5 12.3-1 18.3-1.5 5.7-4.6 10-8.3 14.5-1.4 1.6-4.2 5.2-5.7 6.8-6.3 6-14.3 8-22.7 8.7-4.2-.2-5.1 0-9.3-.7l-4.7-1.1-9.7-2.7-17.2-4.6-9.6-2.6-.9-.2-.8-.1-10.1-.5-48.6-2.4c-4.6-.2-9.8-.2-14.5-1l-2.1-.5-9.7-2.7-176.8-47.5-9.6-2.7M940.4 111.3l-6.3 7.9v613.8M942.1 111.5c-1.8 12-1.3 5.8-1.3 18.7v603.9M1086.9 737.8c2-2.9 2.6-3.6 3.9-6.8 2.9-7 2.3-14.6 2.3-22.1v-511.9c0-8 .3-15.6-2.3-23.3-5.3-16.2-18.5-29.4-33.7-36.4-6.1-2.9-12.6-4.4-19.2-6.1l-17.2-4.6-9.6-2.6-.9-.2-.8-.1-10.1-.6-48.6-2.4c-4.6-.2-9.8-.2-14.5-1.1l-2.1-.5-9.7-2.7-228.9-61.6-9.6-2.6-2.1-.6c-4.3-1.5-8.6-4.6-12.3-6.7l-31.3-18.1-8.7-5-1.5-.6-9.6-2.6-17.3-4.7-9.6-2.6-4.8-1.1c-4.2-.7-5.1-.6-9.3-.7-7.1.5-13.8 1.9-19.6 6.2-2.9 2.1-3.2 2.8-5.6 5.4M636.3 13.5l-6.3 7.9v404.6M692.2 44.5l-6.3 7.9v240.3M1017.4 116.1l-6.3 7.9v613.8M1010.7 115c-1.8 12-1.3 5.8-1.3 18.7v603.9M1062.3 180.1c-2.1.6-1.1.4-3.4.6-9.9-.2-18.7-9-19.6-19.2M823.7 435.4c4.4.1 9-.9 12.9-2.4 2.6-1 4.8-2.2 7-3.9 2.1-1.5 3.9-3.3 5.6-5.3 11-14.2 5.5-34.1-4-47.3M825.7 427.4c9.6.3 18.5-1.2 26.1-7.5"/>
    <path class="st1"
        d="M594.3 39.4c-2-.5-3.8-.9-6-.9-1.8.2-3.4.5-5 1.4-5.1 2.9-5.6 9.2-3.5 14.2 2.6 5.9 8.3 10.5 14.6 11.8 6.7 1.4 13.7-2.2 13.7-9.6 0-1.3-.2-2.6-.5-3.8-1.8-6.3-7.1-10.7-13.3-13.1zM608.1 57.8c-2.2.5-1.1.3-3.5.6-10-.2-20.3-8.5-19.5-19.2M577.5 632.9c-1.2 5.1-4.6 8.4-8.9 11M531.5 648.1c10.6 2.4 21.7 2.3 31.9-1.6M507.6 630.4l7.8 6.3 6.1 5.1 7.6 6.3 9.5-.4 9.3-.5 3.8-.3M544.2 647.3c7.5-.2 15-.6 22.5-1M576 634.4c-1.9 2.7-1.4 1.1-1.4 4.5M577.6 595.1c.5.6 4.8 5.3 4.9 5.6v26l-6.3 7.8-3.2 4-6.3 7.8M577.6 599.5c.7 4.4-2.6 8-4.9 11.2l-4 6.2-2 3.5v25.9M529.1 622.2c4.6-1.2 9.4-2.3 14.2-2.9 7.7-.7 14.8-1.1 22-4.3 2.6-1.2 5.3-2.8 7.5-4.9l3.8-4.3c1.8-1.9 3.8-3.5 6-5.2M566.7 620.4c-4.7-.8-9.4-1.3-14.1-1.5l-8.4.1c-7.2-.3-14.3-1.4-20.7-4.7-2.9-1.5-5.1-3.6-7.8-5.3-2.6-1.8-5.3-3.2-8.1-4.5M529.1 648.1v-26l-5.4-6.2c-3.8-4.1-9.4-7.3-10.9-13.1-.4-1.9-.3-2.3-.2-4.3M512.5 596.4l-.9 1.4-1.9 3.2-2.1 3.5v25.9M513.4 635.1c2.4 6 8.4 9.3 14 11.6M696.3 535.4v8.2M696.3 535.4l-13 17M687.1 533.1l9.2 2.3M497.1 614.8l-3.9-.9M482.4 627.9l10.8-14M577.3 504.9l-10.8 13.9M577.3 504.9l3.9 1M612.2 644.5l-13 16.9M612.2 644.5v8.2M612.2 644.5l-9.1-2.4M580.2 681.2l-9.8 12.5M478.9 670.1l91.5 23.6M570.4 677.3v16.4M478.9 653.7l91.5 23.6M478.9 670.1v-16.4M858.3 519.5l-246.7 320.1M474.3 644.4l38.2-49.5M484.5 619.1l3.9.9M469.6 652.5l-4.5 5.9M456 656.1l9.1 2.3M584.2 689l9.1 2.4M706 545.3l-9.2-2.4M575.1 670.3l28.5-37M622 654.4l-9.3-2.4M839.9 522.9l-17.6-4.4M858.3 515.4l-9.1-2.2M691.5 362.8l-144.6 187.6M568.6 510l3.9 1M858.3 515.4c0 3.9.4 8-2 11.2l-6.1 7.9-140.7 182.5c-3.8 4.9-6.7 10.7-13 12.6M858.3 515.4c-5.8 7.1-11.9 13.9-21.3 15.5-2.3-.1-2.9.1-5.1-.7-7.9-3.4-10.8-13.6-12.3-21.1l-.9-5.1-.6-5.5-.4-5.9c-.9-21.6 2.6-43.4 7.7-64.2 4.3-17.5 10-34.9 17.8-51.1M832.6 381l-6.1 8-257.6 334.1c-3.4 4.4-7 8.5-9.5 13.5-3.6 7.2-5.7 15.2-6.5 23.2-.5 4.9-.3 10.1-.3 14.9v121.1l.2 2.2.2 2c.3 2.7 1.6 7.9 5.5 6.8.8-.3 1.5-.9 2.2-1.3.9-.7 1.5-1.5 2.2-2.4l4.1-5.3M556.4 906.7l-9.2-2.4c-3.1-.8-3.6-6.1-3.7-8.7l-.1-2.2v-121c0-4.9-.3-10.1.2-15 .9-8.7 3.4-17.7 7.7-25.3 2.4-4.1 5.6-7.8 8.4-11.4l18.4-23.7 6.1-8-.1-1.2c-.2-1.3-.7-2.6-1.4-3.6-3.6-6.1-11.2-6.6-17.4-8.2l-81.3-21c-3.9-1-8.2-2.6-12.3-2.8-2.7.3-5.2 1.2-6.2 3.9l-.4 2.2-6.1 8-18.3 23.8c-2.8 3.6-6.2 7.3-8.5 11.3-4.4 7.6-6.8 16.7-7.7 25.3-.4 4.9-.3 10.1-.3 14.9v82.39999999999999M486.5 628.5c-2.9-.5-1.4-.4-4.4-.6-1.7.1-2.3-.1-4.1.3-6.7 1.4-9.9 7.8-13.7 12.8l-6.1 7.9-1 1.6c-.5 1.1-.9 2.3-1 3.5l-.2 2-6.2 7.9-18.3 23.8c-2.8 3.5-6.1 7.3-8.4 11.4-4.3 7.6-6.8 16.5-7.7 25.3-.4 4.9-.2 10.1-.2 15v101.3M477.3 628.5l7.2-9.4.2-2c.3-1.8 1-3.6 2-5.1 8.4-11.3 17.3-22.4 25.9-33.6M486.6 612c1-1.2 1.3-1.6 2.6-2.6 4-3 8.9-2.9 13.7-2M593.3 691.4c-.6-9.4-7.3-17.2-16.1-20.4l-2.2-.7-9.7-2.4-81.3-20.9c-4.9-1.3-9.3-2.8-14.2-3.1-4.9.1-8.6 1.4-11.8 5.2M587.3 654.4c9.7 3 17.6 10.6 18.3 21.1M612.2 649.3c1.7 4.3-1.2 4.9-4.6 9.4l-5.2 6.8M592.2 656.3l11.4-14.8v-8.2l6.1-7.9 176.7-229.1 6.1-8M676.2 547.3l11.4-14.8v-8.2c9.7 3 17.6 10.5 18.4 21M687.7 532.5c1.3.4 2.7.9 3.9 1.7M689.6 566.4c-.6-10.4-8.6-18-18.3-21M696.3 540.2c1.6 4.4-1.2 5.1-4.7 9.5l-5.2 6.7M622 654.4c-.8-10.5-8.7-18-18.3-21.1M603.6 641.5c1.3.5 2.7.9 3.8 1.8M829.1 528.5c8.7-1.5 14.8-9 20.1-15.4M533.1 551.7l6.1-8 9-11.7c3.9-5 7.2-11.3 13.8-12.8 1.4-.3 2.8-.4 4.2-.3 2 .1 2.5.3 4.4.6M684.1 356c-37.8 49-76.6 97.2-113.3 146.9-1.1 1.4-1.7 3.3-2 5.1l-.2 1.9-7.2 9.4M570.8 502.9c1-1.2 1.2-1.6 2.4-2.6 4-3 9-3 13.8-2M538.1 711.2l-1.4-1M559.3 572.4v-10.7M543.5 573.9v-16.5M529.3 563.3l1.5 9.9M559.3 561.7l1.6 10M565.1 692.3v7l-.1 1.8c-1.4 6.7-10.3 9.3-16.1 10l-3.1.3c-5.1-.2-10-.8-14.5-3.2-2.5-1.3-5.1-3.4-6-6.1l-.4-1.9v-18M531.4 708.1c8.2 4.9 18.3 5.5 26.6.5M521.3 556.6c-2.6 1.8-2 1.3-4.2 3.5-6 5.8-4.6 14-4.6 21.7v9.4c0 4.6-1 10.1 1.3 14.5 2.8 5.3 8.6 8.7 14.2 10.6 10.5 3.8 23 3.8 33.6.3 2.2-.8 4.3-1.6 6.2-2.8 1.8-1 3.5-2.1 5-3.5 1.8-1.7 3.5-3.9 4.3-6.3 1.3-4.2.6-11.2.6-14.6v-19.5l-.2-1.4c-2.4-11.5-15.9-16.6-26.1-17.7-3.2-.4-4.1-.3-7.2-.4-7 .4-13.4 1.6-19.7 4.6"/>
    <path class="st1"
        d="M517.2 571.1c3.1 6.3 9.2 9.6 15.9 11.4 10.8 2.9 24.5 2.2 34-4.4 1.5-1 2.9-2.2 3.9-3.6 1-1.2 1.8-2.6 2.2-4.1 2.6-8.3-6.2-14.3-12.8-16.7-4.6-1.7-9.3-2.3-14.2-2.6-3.2 0-4.1-.1-7.3.4l-3.6.6c-7.3 1.5-18.1 6-18.7 14.7-.2 2 .1 2.5.6 4.3zM559.3 561.7l-15.8-4.3-14.2 5.9M577.6 569.8c0 2 .1 2.6-.5 4.6-3 8.9-14.3 12.9-22.7 14.4-3.4.6-4.3.5-7.7.8-3.5 0-4.4.1-7.8-.3-10.6-1.2-24.1-5.8-26.3-17.6M530.8 573.2l15.8 4.3 14.3-5.8M539.4 575.6c6.5-2.7 2.7-2.1 11.5.2"/>
    <path class="st1"
        d="M617.6 1144.2l-2.7-.5c-1.2 0-2.3.1-3.5.6-3.4 1.3-2.9 5.1-1.2 7.6 2.2 3.2 6 5.5 9.6 6.5 3.5.9 9.6.4 8.8-4.6-.2-.7-.4-1.4-.8-2.1-1.9-4-6.1-6.3-10.2-7.5zM627.8 1156.3c-6.7-1.4-13.1-5.2-18-10"/>
    <path class="st1"
        d="M1034.2 697.8c-4.9 11.1 7.5 23.5 18.5 22.8 1.2-.1 2.4-.3 3.6-.7 7.2-2.7 7.4-11 4.1-16.7-1.5-2.6-3.5-4.8-6-6.5-3.5-2.6-7.3-3.8-11.7-3.8-3.8.4-6.4 1.7-8.5 4.9zM1062.3 712.1c-2.1.6-1.1.4-3.4.7-10-.3-20.4-8.5-19.6-19.3"/>
    <path class="st1"
        d="M1035.9 165.6c-4.9 11.2 7.6 23.4 18.6 22.8 1.2-.1 2.4-.3 3.5-.8 7.1-2.6 7.4-11 4-16.7-1.4-2.5-3.5-4.7-5.9-6.4-3.5-2.6-7.3-3.8-11.7-3.8-3.7.4-6.3 1.7-8.5 4.9zM365.2 987c-.9-.9-.3-.6-1.5-.8-4.6 2.3-6.2 10.1-6.4 14.8-.2 2.1-.1 7 3.2 5.3"/>
    <defs>
        <path id="SVGID_1_" d="M98.5 1200z"/>
    </defs>
    <clipPath id="SVGID_2_">
        <use xlink:href="#SVGID_1_" overflow="visible"/>
    </clipPath>
    <path class="st3" d="M98.5 1200l18.8-18.7"/>
    <path class="st0" d="M98.5 1200z"/>
</svg>
