<?xml version="1.0" encoding="utf-8"?>
<!-- Generator: Adobe Illustrator 21.1.0, SVG Export Plug-In . SVG Version: 6.00 Build 0)  -->
<svg version="1.1" id="Ebene_1" xmlns="http://www.w3.org/2000/svg" xmlns:xlink="http://www.w3.org/1999/xlink" x="0px" y="0px"
	 viewBox="0 0 1400 1400" style="enable-background:new 0 0 1400 1400;" xml:space="preserve">
<style type="text/css">
	.st0{fill:none;}
	.st1{fill:none;stroke:#000000;stroke-linecap:round;stroke-linejoin:round;stroke-width:3;}
	.st2{fill:none;stroke:#FFFFFF;stroke-miterlimit:10;}
</style>
<path class="st0" d="M1300,159.8H100v1080.5h1200V159.8L1300,159.8z"/>
<path class="st1" d="M216.5,233.8v-4.6 M583.4,332.6V328 M688.3,361.4v-5.1 M799.7,390.8v-4.5 M188.2,163.8v-3 M1218.5,565.8
	l80.7-99.9 M185.1,164.6l1104.5,297.3 M1292.6,458.1l-3,3.8 M1215,554.3L110.5,256.9 M100.9,264.9l6.6,1 M107.5,266.7L1211.9,564
	 M1212.9,564.3l5.6,1.5 M1212.4,563.4l-0.5,0.6 M100.9,264.9l5.6,1.5 M1218.5,1220.9l-5.6-1.5 M1212.9,595.9l-1,1.2 M107.5,299.7
	l1104.4,297.4 M106.5,921.6l-5.6-1.6 M1166.7,489.6v-4.5 M146.4,648.1l2.4,0.7 M169.9,828.7l5.6,1.5 M145.9,762.7l5.6,1.5
	 M1258.4,947.5l2.4,0.6 M1281.8,1128.1l5.7,1.5 M1257.8,1062l5.6,1.5 M233.2,234.1c-2.3-2.4-5.8-2.9-8.9-2.9
	c-2.8,0.3-5.4,0.8-7.5,2.9"/>
<path class="st1" d="M215.7,232c0.8,2.5,2.9,3.7,5.4,4.4c3.4,0.9,7.4,0.7,10.5-1.1c0.7-0.4,1.4-1,1.9-1.5l0.5-0.9
	c1.3-2.7-1.5-4.9-3.7-5.8c-1.5-0.6-3-0.8-4.6-0.9h-1.6l-1.5,0.1c-2.6,0.4-6.5,1.7-6.9,4.8L215.7,232L215.7,232z M600.1,332.9
	c-2.4-2.4-5.7-2.8-8.9-2.9c-2.8,0.3-5.4,0.8-7.5,2.9"/>
<path class="st1" d="M582.6,330.8c0.8,2.5,2.9,3.8,5.4,4.4c3.4,0.9,7.4,0.7,10.5-1.1c0.6-0.4,1.4-1,1.8-1.6l0.6-0.9
	c1.3-2.7-1.5-4.9-3.7-5.8c-1.5-0.6-3-0.8-4.5-0.9h-1.6l-1.6,0.2c-2.6,0.4-6.4,1.7-6.9,4.7V330.8L582.6,330.8z M712.2,361.9
	c-0.5-1-1.5-1.7-2.4-2.3c-2.9-1.9-6.1-2.3-9.4-2.6c-4.4,0.1-9.9,0.9-12.5,4.9"/>
<path class="st1" d="M689.1,363.4c5.2,4,12.7,4.6,18.7,2c1.1-0.5,2.1-1,3-1.8c0.8-0.7,1.4-1.4,1.8-2.3l0.4-1.3
	c0.7-3.8-3.4-6.3-6.5-7.2c-2-0.7-4-0.9-6.1-1c-3.8,0.1-7.9,0.7-10.9,3.2c-1.8,1.5-2.9,3.7-2,6C687.8,362.2,688.3,362.5,689.1,363.4
	L689.1,363.4z M816.4,391.1c-2.4-2.4-5.7-2.8-8.9-2.9c-2.8,0.3-5.4,0.8-7.5,2.9"/>
<path class="st1" d="M798.9,389c0.8,2.5,3,3.8,5.4,4.4c3.4,0.8,7.4,0.6,10.5-1.1c0.7-0.4,1.4-0.9,1.9-1.6l0.6-0.9
	c1.3-2.7-1.5-4.9-3.7-5.8c-1.5-0.6-2.9-0.8-4.5-1h-1.6l-1.6,0.2c-2.5,0.4-6.4,1.7-6.9,4.7C798.9,388.1,798.9,388.1,798.9,389
	L798.9,389z M107,265.9c-1.3,1.6-0.4,0.3-0.4,4.7v646.8c0,3.9-0.1,7.8,0.5,11.6c0.4,2.7,1.1,5.6,2.6,7.9l1.3,1.6l1.5,1
	c3.5,1.6,7.2-1.2,9.5-3.5l2.1-2.4l2.6-3.2l40.4-50c2.5-3.1,4.8-6.1,6.8-9.5c2.7-4.5,4.8-9.5,6.6-14.4c3.1-8.5,5.2-17.3,6.2-26.2
	c0.5-4.3,0.5-8.6,0.5-12.9V321.1 M149.2,859.8c3.1-4.5,6.2-9,9-13.7c4.1-7,7.7-14.4,11-21.8l1.7-3.8c0.8-1.7,1.7-3.6,3.1-4.9
	l0.8-0.5c1.5-0.8,2.4,0.6,2.8,1.9c0.3,1,0.2,1.7,0.3,2.7 M114.1,940.1l-5.6-1.6c-1.5-0.4-1.9-0.3-3.2-1.5c-1.8-1.6-2.7-4.1-3.3-6.3
	c-1.3-4.8-1.1-9.9-1.1-14.8V269.1c0-2-0.5-5.1,0.9-6.9l2.6-3.2l75.5-93.5c1.7-2.1,3.1-4.7,6-4.9c0.9,0,1.3,0.1,2.3,0.2 M107.5,299.7
	v-39l2.6-3.2l75.5-93.5l2.6-3.2 M185.1,164.6c0.4-0.4,0.6-0.7,1.1-1c0.4-0.2,0.5-0.2,1-0.1l4,1.1l1095.5,294.9l4,1.1 M1211.9,597.1
	v-39l2.6-3.2l72.5-89.7l2.6-3.3l0.5-0.6 M1292.6,458.1c3,1.1,5.9,3.3,6.5,6.6l0.1,1.1v651c0,4.3,0,8.6-0.5,12.9
	c-1,8.9-3.1,17.7-6.2,26.2c-2.3,6.2-5,12.3-8.7,17.7c-1.5,2.2-3,4.1-4.8,6.2l-40.4,50c-2.1,2.6-4.1,5.4-6.8,7.4
	c-1.2,0.9-2.5,1.7-4,2l-1.8,0.1l-5.6-1.5c-1.6-0.4-2-0.4-3.2-1.5c-1.7-1.7-2.7-4.1-3.2-6.4c-1.3-4.9-1.2-9.8-1.2-14.8V568.3
	c0-1.3,0.9-4.5-0.9-5.3 M1226,1239.4l-1.7-0.5c-1.2-0.5-2.1-1.5-2.8-2.6c-1.5-2.3-2.2-5.2-2.6-7.9l-0.4-3.6l-0.1-4V565.7l-0.1-1.1
	c-0.7-3.4-3.5-5.6-6.5-6.6 M107.5,266.7c0-3.4,1.1-6.9,3.1-9.7 M107.5,260.7c-1.5-0.3-0.8-0.2-2.3-0.2c-1.5,0.2-2.4,0.6-3.4,1.7
	 M1261.1,1159.1c3.1-4.5,6.3-9,9-13.7c4.1-7,7.7-14.4,11-21.7l1.7-3.8c0.8-1.8,1.7-3.6,3.1-4.9l0.8-0.5c1.5-0.8,2.4,0.6,2.7,1.9
	c0.3,1,0.2,1.6,0.3,2.7"/>
<path class="st1" d="M1166.7,489.6c-0.4-0.7-0.7-0.9-0.8-1.8c-0.4-2.4,2-4.2,4-4.9c3.6-1.5,8.4-1.4,11.9,0.6
	c0.7,0.4,1.3,0.9,1.9,1.5l0.6,0.9c1.6,3.3-2.5,5.6-5.1,6.3c-1.6,0.4-3.1,0.5-4.7,0.5C1171.4,492.4,1168.8,491.8,1166.7,489.6z
	 M1166.9,489.9c3-3.1,8.2-3.4,12.2-2.3c1.6,0.4,3,1.1,4.2,2.3 M141.2,878.9l-5,5.8c-3.7,3.9-7.7,7.4-12.2,10.3
	c-3.1,1.9-1.5,1.1-4.7,2.5c-2.6,1.1-1.5,0.8-3.2,1.2 M120.5,881.7c-2.9,4.1-4.6,9.5-4.6,14.6c0,1.2,0.1,2.6,0.6,3.7
	c0.2,0.5,0.5,0.9,1,1.1c0.8,0.3,2.5-0.3,2.9-0.5l2.2-0.5c2.4-0.8,4.8-2.1,7-3.5c4.5-2.8,8.5-6.4,12.2-10.3l5-5.8 M151.4,765.7v-1.6
	c0-1.7-0.1-4.4-2.1-4.9c-1.3,0.3-2.1,1.2-2.9,2.2c-1.6,2.2-2.5,4.8-3.2,7.4 M146.5,779.2c-0.7,0.7-1.2,1.1-2.1,1.2
	c-0.8-0.2-0.4,0-1.1-0.5 M150.5,770.9c-0.8,2.7-1.7,5.1-3.2,7.4 M148.8,649.7c0.1-0.9,0.3-2.8-0.9-3c-1.8,0.7-2.4,3.5-2.8,5.2
	 M148.8,649.7c-0.2,1.6-0.6,3-1.3,4.4c-0.4,0.7-0.8,1.3-1.6,1.7c-1.2-0.2-1-2.1-0.9-3l0.1-0.9 M149.2,859.8l-4.6,5.7
	c-3.3,3.8-7,7.3-11.2,10.1l-2.2,1.5l-4.2,2c-1.5,0.5-3.4,0.5-4.8,1.2c-0.7,0.4-1,0.8-1.6,1.4 M146.9,880.5c3.4-4.6,6.9-9.1,9.9-14
	c4.6-7.3,8.6-14.9,12.4-22.6c1.6-3.3,3.1-6.6,4.6-9.9l1.7-3.8l0.6-1.7c1-2.9,1.5-5.8,1.6-8.9 M172.2,818.1c0.2,5.1-2,9.9-4,14.4
	l-1.1,2.4l-1.7,3.8c-4.2,9-8.9,17.9-14.2,26.3c-3.1,4.9-6.5,9.4-9.9,14 M143.3,779.9c-1.9-3.2-0.8-7.6,0-11 M145.9,762.5
	c0,1.7-0.2,3.4-0.6,5.1c-0.6,2.8-1.5,5.7-3,8.1 M151.4,765.7c-0.2,1.7-0.5,3.4-0.9,5.1 M1253.2,1178.3l-5,5.8
	c-3.7,3.9-7.7,7.5-12.3,10.3c-3.1,2-1.5,1.2-4.7,2.5c-2.6,1.1-1.5,0.8-3.2,1.2 M1232.5,1181c-2.9,4.2-4.6,9.5-4.6,14.6
	c0,1.2,0.1,2.6,0.6,3.7c0.2,0.5,0.5,0.9,1,1.1c0.8,0.3,2.5-0.3,2.9-0.4l2.3-0.5c2.4-0.8,4.8-2.1,7-3.5c4.5-2.8,8.6-6.4,12.2-10.3
	l5-5.7 M1263.4,1065.2l0.1-1.6c0-1.7-0.1-4.4-2.1-4.9c-1.3,0.3-2.1,1.1-2.9,2.2c-1.6,2.2-2.4,4.8-3.2,7.4 M1258.5,1078.6
	c-0.7,0.7-1.2,1-2.1,1.2c-0.8-0.2-0.5,0-1.1-0.6 M1262.5,1070.2c-0.8,2.6-1.8,5.1-3.3,7.4"/>
<path class="st1" d="M1260.8,949c0-0.9,0.3-2.8-0.9-3c-1.9,0.7-2.4,3.5-2.8,5.2c-0.1,0.7-0.2,1.1-0.2,1.8s0.2,2.7,1.4,1.9l0.4-0.3
	l0.4-0.5C1260.1,952.6,1260.5,950.8,1260.8,949L1260.8,949z M1284.1,1117.4c0.2,5.1-2,10-4,14.5l-1.1,2.4l-1.7,3.8
	c-4.2,9-8.9,17.9-14.2,26.3c-3.1,4.8-6.5,9.4-9.9,14 M1232.5,1181c0.6-0.6,0.9-1,1.6-1.4c1.4-0.8,3.3-0.7,4.8-1.2l4.2-2l2.2-1.5
	c4.2-2.8,7.9-6.3,11.2-10.1l4.6-5.7 M1258.9,1179.9c3.4-4.6,6.8-9.2,9.9-14c4.6-7.3,8.7-14.9,12.5-22.6c1.6-3.3,3.1-6.6,4.6-9.9
	l1.7-3.8l0.7-1.7c1-2.9,1.5-5.8,1.6-8.8 M1255.2,1068.3c-0.8,3.4-1.9,7.7,0,11 M1262.5,1070.2c0.4-1.7,0.7-3.4,0.9-5.1
	 M1254.3,1075.1c1.5-2.4,2.4-5.3,3-8.1c0.3-1.7,0.6-3.4,0.5-5.1"/>
<path class="st2" d="M100,1240.2l7.9-7.8"/>
<path class="st0" d="M100,1240.2"/>
</svg>
