<svg xmlns="http://www.w3.org/2000/svg" xmlns:xlink="http://www.w3.org/1999/xlink"
    viewBox="0 0 1200 1200" enable-background="new 0 0 1200 1200">
    <style type="text/css">.st0{fill:none;} .st1{fill:none;stroke:#000000;stroke-width:4;} .st2{clip-path:url(#SVGID_2_);} .st3{fill:none;stroke:#FFFFFF;stroke-miterlimit:10;}</style>
    <path class="st0" d="M1043.5 0h-887v1200h886.9l.1-1200z"/>
    <path class="st1"
        d="M458.2 773.5c-7.5-2-18.3 14-24.2 35.7-5.9 21.8-4.6 41 2.9 43 7.6 2 18.4-13.9 24.3-35.7 5.8-21.7 4.5-40.9-3-43zM279.7 945.3c-3.7 4.5-6.9 11.9-9.1 19.7-1.7 6.1-2.4 12-2.4 16.7M1036.6 13c-2.1-.6-4.7 1-7.1 4"/>
    <path class="st1" d="M1037 13.1l-.4-.1.4.1zM729.7 612.5c-7.5-2.4-16.2 1-24.7 8.3"/>
    <path class="st1"
        d="M730.1 612.7l-.4-.1.4.1zM240.2 934.6c-3.6 4.6-6.9 12-9 19.8-1.7 6.1-2.5 12-2.4 16.7M997.2 2.4c-2.2-.6-4.7 1-7.3 4.1"/>
    <path class="st1"
        d="M997.6 2.5l-.4-.2.4.2zM1040.9 22c-.4-3.9-1.4-6.7-2.8-8M1037.6 120.1c1.8-6.1 2.9-11.8 3.2-16.9"/>
    <path class="st1"
        d="M1010.1 90.1c-7.5-2-18.3 14.1-24.1 35.7-5.9 21.8-4.5 41.1 2.9 43.1 7.5 2 18.3-13.9 24.2-35.7 5.9-21.8 4.5-41.1-3-43.1zM872.1 261c-7.4-2-18.3 13.9-24.1 35.7-5.9 21.7-4.5 41 2.9 43 7.5 2 18.3-13.9 24.3-35.7 5.8-21.8 4.4-40.9-3.1-43zM734.1 431.8c-7.4-1.9-18.3 14.1-24.1 35.9-5.9 21.8-4.6 41 2.9 43s18.3-14 24.3-35.7c5.8-21.9 4.5-41.2-3.1-43.2zM596.2 602.7c-7.6-2-18.3 13.9-24.3 35.7-5.9 21.8-4.5 41.1 2.9 43.1 7.6 2 18.4-13.9 24.2-35.7 6-21.9 4.7-41.1-2.8-43.1zM320.2 944.4c-7.5-2-18.3 14-24.2 35.7-5.8 21.8-4.6 41.1 3 43.1 7.5 2 18.3-13.9 24.2-35.8 5.9-21.7 4.6-41-3-43zM389.2 858.9c-7.5-1.9-18.3 14.1-24.1 35.9-5.9 21.7-4.6 41.1 3 43.1 7.5 1.9 18.3-14.1 24.2-35.9 5.8-21.7 4.4-41-3.1-43.1zM527.1 688.1c-7.5-2-18.3 13.9-24.2 35.7-5.8 21.7-4.5 41.1 3 43.1s18.3-14.1 24.3-35.9c5.9-21.6 4.5-40.9-3.1-42.9zM665.1 517.2c-7.5-2-18.3 14.1-24.2 35.7-5.8 21.8-4.5 41.1 3.1 43.2 7.5 2 18.3-14 24.2-35.9 5.9-21.6 4.5-41-3.1-43zM803.1 346.4c-7.5-2-18.3 14-24.1 35.7-5.9 21.8-4.5 41 2.9 43 7.5 2.1 18.3-13.9 24.2-35.8 6-21.5 4.6-40.9-3-42.9zM941.1 175.6c-7.4-2-18.2 13.9-24.1 35.7-5.9 21.8-4.5 41.1 2.9 43.1 7.5 2 18.3-14.1 24.3-35.7 5.8-21.8 4.5-41.1-3.1-43.1zM855.7 474.4c-12-3.4-29.4 22.4-38.8 57.2-9.4 34.8-7.1 65.6 4.8 68.8 12 3.2 29.5-22.3 38.8-57.1 9.4-34.8 7.3-65.7-4.8-68.9zM812.9 556.2c5.9-13.9 10.2-29 12.2-43.1M268.2 981.7v177.7M1029.5 17l-749.8 928.3M268.2 1159.4l-39.4-10.5M228.8 971.1v177.8M989.9 6.4l-749.7 928.2M870.3 650.4l167.3-530.3M825.2 513.1l1-7.5M811.9 558.6l1-2.4M704.9 620.9c-6.8 6.3-12.3 13.1-18.1 20.2l-411.7 509.9-6.9 8.5M1038.1 13.9l-1.1-.8-10.6-2.8-18.4-5-10.4-2.8M1040.9 103.2c.6-22.2.1-45.9.1-67.3v-10.9l-.1-3.1M592.3 909.9c3.6-4.3 4.8-9.9 4.1-15.7M578.2 916.8c6-.4 10.8-3.1 14.1-6.9M854.7 949.3c0 9.6 5.7 19.5 14.3 26.7 10.6 8.6 23.5 11.1 33.1 7.3M898.2 992c8.3-10.4 3.8-28-10.2-39.3-14.1-11.3-32.3-12-40.6-1.7-2.2 2.8-3.5 5.9-3.9 9.2M843.3 963.6c0 9.6 5.7 19.6 14.3 26.7 14.1 11.3 32.3 12 40.6 1.7M854.7 793.7c0 9.6 5.7 19.6 14.3 26.7 10.6 8.6 23.5 11.2 33.1 7.4M898.2 836.4c8.3-10.4 3.8-28-10.2-39.2-14.1-11.3-32.3-12-40.6-1.7-2.2 2.7-3.5 5.9-3.9 9.2M843.3 808c0 9.7 5.7 19.7 14.3 26.7 14.1 11.4 32.3 12.1 40.6 1.7M475.8 545.6c-7.5.8-15.8 6.4-23.7 14.9M929 694.4c-8.3-2.3-18.4 4.1-28.2 16.3M946.8 742.5c0-28.3-6.9-45.1-17.8-48.1"/>
    <path class="st1"
        d="M943.3 1086.3l.3-.3-.3.3zM922.1 1091.4c9 2.4 16.9.2 21.2-5M936.2 668.2c-10.6-2.9-23.1 4.9-35.3 20.3M958.3 728.4c0-35.5-8.6-56.5-22.1-60.2M322.4 1174.1c13.6 3.6 29.8.2 36.2-7.6M158.8 1119.3c-.4 6.5 5.9 12.2 15.7 15M322.4 1196.3c13.6 3.7 29.8.2 36.2-7.6M158.8 1141.5c-.4 6.5 5.9 12.2 15.7 15M843.5 960.2l-.2 3.4M843.5 804.7l-.2 3.3M394.8 743.3l-39.7-63.1M729.6 612.7l208.2 55.9M808.8 802.3v22.2M946.8 1075.8l11.5-14.2M922.1 1091.4l-398.3-107.2M174.5 1134.2l147.9 39.9M174.5 1156.4l147.9 39.9M596.2 901c-2.2.8-4.2 1.3-6.6 1.6M855.1 945.4l-.4 3.9-11.4 14.3M855.1 789.9l-.4 3.8-11.4 14.3M475.8 545.6h4.3l3.9.9 10.5 2.9 36.2 9.7 10.5 2.8M386.9 753l-5.7-9.1-20.3-32.3-5.8-9.3v-22.1l6.8-8.5 78.4-97 6.7-8.4 5.1-5.8M946.8 742.5v322.4c0 4.6.8 11.5-.8 16.5-.8 2.2-1.2 2.7-2.4 4.6M620.8 864l10.6-2.2 166.7-35c14.1-3.1 8.4.6 17.4-10.7l78.3-97 6.9-8.4M958.3 728.3v322.5c0 6.9 1.3 15-3.3 21l-5.7 7.2-5.7 7.1M358.6 1166.5l6.9-8.5 248.5-307.7 6.8-8.4 10.6-2.2 166.7-35.1c14.1-3 8.4.6 17.4-10.6l78.3-97 6.9-8.4M358.6 1188.7l6.9-8.5 248.5-307.6 6.8-8.6v-22.1M228.8 1029.8l-6.9 8.5-53.7 66.5c-2 2.5-7.6 8.1-9 12.4l-.4 2c-.1 4.8 0 17.4 0 22.2"/>
    <defs>
        <path id="SVGID_1_" d="M156.5 1200z"/>
    </defs>
    <clipPath id="SVGID_2_">
        <use xlink:href="#SVGID_1_" overflow="visible"/>
    </clipPath>
    <path class="st3" d="M156.5 1200l22.5-22.4"/>
    <path class="st0" d="M156.5 1200z"/>
</svg>
