<svg xmlns="http://www.w3.org/2000/svg" xmlns:xlink="http://www.w3.org/1999/xlink"
    viewBox="0 0 1200 1200" enable-background="new 0 0 1200 1200">
    <style type="text/css">.st0{fill:none;} .st1{fill:none;stroke:#000000;stroke-linecap:round;stroke-width:4;} .st2{clip-path:url(#SVGID_2_);} .st3{fill:none;stroke:#FFFFFF;stroke-miterlimit:10;}</style>
    <path class="st0" d="M1004.7 0h-809.4v1200h809.3v-1200h.1z"/>
    <path class="st1"
        d="M817.5 1151.8v-309.3M934.3 346.6c15.3 13.1 28.6 28.5 39.6 45.6 8.6 13.6 15.3 28.3 19.5 43.8 17.8 67.5-20.9 130.4-72.5 171-95 74.9-221.8 93.6-339.1 94-105.1-5.6-215.7-26-301.3-91.8-52.4-40.3-92.7-102.6-75.8-170.7 3.9-15.5 10.3-30.2 18.6-43.9 12.4-20.3 28.5-36.7 46.1-52.4M798.6 271.4l32.7 12.4c83.3 35.3 182.3 112.1 156.6 214.8-3.8 15.2-10 30-18.3 43.3-13.8 22.8-32.5 42.5-53.6 58.9-93.5 73.6-218.2 92.1-333.5 92.4-110.7-3.8-235.9-29.9-318.8-108.8-13.3-12.5-23.9-25.2-33.6-40.5-6.9-10.8-16.7-30.3-19.1-43-3.4-19.9-5.5-24.2-4.1-44.6 7.3-95.8 110.1-158.8 193.1-184.8M817.5 842.5c29.1-12 56.9-24.2 83.2-41.9 41-27.2 78.8-65.3 92.2-114.1 10.3-36.9 4.8-88.2 4.8-122.3v-3.6l-.3-79.7M201.1 460.9c-.2 148.7 2.5 296.9 2.5 445.7v79.7c1.3 22 17.4 47.4 30 64.4 28.3 37.8 68.9 65 110.5 86.5 107.7 55.3 237 68.2 355.5 49.2 35.6-5.8 70.5-14.5 104.1-27l31.1-12.8 50-62.1 43-52.8 50-61.9c25.8-35.3 17.4-75.4 17.4-117.6v-177.3M320.4 1123.6c120.7 61.9 259.2 79.3 392.5 56.1 41.7-7 81.9-19.5 121.9-33.1M739.7 521.4c-45.2 33.5-96 42.7-151 42.8-47.4-3.8-88.8-13.6-128-41.4M400.1 270.3c-37.5 12-73.8 29.4-105.8 51.9-19.2 13.8-37.1 29.5-51.7 47.8-13 15.9-23.6 34.1-30.2 53.6-3.9 12.4-6.3 24.7-6.7 37.7-3.6 96.3 91.6 160.7 170.6 192 18.3 7.5 37.2 13.6 56.4 18.8 144.5 39.1 319.5 30.2 450.1-48.2 21.3-12.5 41.1-27.5 58.6-45.2 15-15.2 28.1-32.7 37.4-51.9 5.8-11.9 10-24.4 12.2-37.1 17-93.5-67.1-164.1-142.6-199.8l-49.7-19.9M707.8 31c41.6 23.8 90.2 48.8 90.8 103v297.6M400.1 361.9v-234c1.3-51.7 61.1-84.1 101.3-102.2 62.6-28.2 145.9-27.4 206.4 5.3 11.4 6.1 22 13.6 31 22.8 7.5 7.7 13.8 16.9 17 27 17 50.5-39.4 85.2-79.4 98.2-23.4 7.5-46.9 9.7-71.4 11.3-45.8-1.3-93.2-7.2-131.2-35.2-31.9-23.4-45.8-62.5-18.9-95.7 9.7-12 15.3-14.9 28-23.9M400.1 127.9c4.1 56.4 52.4 87.7 102.9 103.8 16.3 5.2 33.5 8.9 50.5 11.3 18 2.3 36.1 3.4 54.1 3 72.9-1.7 177.1-27.8 191-111.9M490.6 540c-27.5-15.9-57.7-30.2-76.1-56.7-24.4-35-14.4-89-14.4-125.8v-184.5M798.6 179v264.2c-1.3 46.7-48 71.8-82.7 92.1M459.5 522c91.3 45.3 202.3 45.2 291.1-7"/>
    <defs>
        <path id="SVGID_1_" d="M195.3 1200z"/>
    </defs>
    <clipPath id="SVGID_2_">
        <use xlink:href="#SVGID_1_" overflow="visible"/>
    </clipPath>
    <path class="st3" d="M195.3 1200l55.2-55.2"/>
    <path class="st0" d="M195.3 1200z"/>
</svg>
