<?xml version="1.0" encoding="utf-8"?>
<!-- Generator: Adobe Illustrator 21.1.0, SVG Export Plug-In . SVG Version: 6.00 Build 0)  -->
<svg version="1.1" id="Ebene_1" xmlns="http://www.w3.org/2000/svg" xmlns:xlink="http://www.w3.org/1999/xlink" x="0px" y="0px"
	 viewBox="0 0 1400 1400" style="enable-background:new 0 0 1400 1400;" xml:space="preserve">
<style type="text/css">
	.st0{fill:none;}
	.st1{fill:none;stroke:#000000;stroke-width:3;}
	.st2{fill:none;stroke:#FFFFFF;stroke-miterlimit:10;}
</style>
<path class="st0" d="M1300,135H100v1130h1200V135z"/>
<path class="st1" d="M146.6,943.3l8.2,2.2 M156.9,940.6l937.4,252.3 M1096.8,1225l-2.5,3 M1096.4,1223l8.1,2.2 M1094.3,1228
	L156.9,975.6 M154.8,969.5l-8.2-2.2 M1109.3,1224.8l-0.6-0.1 M1111.6,509.3l-8.2-2.2 M1238.1,791l8.1,2.2 M1239.3,798.7l8.2,2.2
	 M1242.7,822.7l-8.1-2.2 M212.2,835.1l911.8,245.5 M1128.4,1091.8l-8.2-2.2 M1121.9,1085.8L208.4,839.9 M271.9,723.3l-48.8,114.8
	 M208.4,911.8l892.9,240.4 M229,920.6l855.8,230.4 M1100.8,1155.3l-6-1.6 M1096.7,1187.8l-936-252 M1104.5,1201.3l-8.1-2.3
	 M178.7,836.1l-8.2-2.2 M160.7,253.4l-7-2 M717.7,1085.8c0.4-0.6,0.5-0.8,0.7-1.7c0.8-3.9-3.1-6.5-6.1-7.7l-2-0.6l-2-0.4
	c-2-0.3-2.5-0.3-4.4-0.3c-4.1,0.3-8.6,0.9-11.6,4 M705.1,1082.4c3.3,0.1,6.8,0.8,9.7,2.6 M156.9,976.6c-1.9-1.5-3.6-3.2-4.5-5.5
	 M156.9,971.5c-0.3,0.3-0.6,0.5-1,0.5l-4.1-1.1c-2.2-0.6-4.8-0.3-5.1-2.8l-0.1-0.8v-19.4c0-7.7,0.2-15.4,0.9-23.1
	c1.3-15.2,4.1-30.3,7.8-45.1c2.3-8.9,4.8-17.8,7.8-26.5c2.7-7.9,5.9-15.8,9.2-23.5l101.9-239.9l1.8-4.2 M279.6,598.7l-1.8,4.2
	L180.5,832c-3.3,7.7-6.5,15.5-9.2,23.5c-3,8.7-5.5,17.5-7.8,26.5c-3.7,14.8-6.5,29.9-7.8,45.1c-0.7,7.7-0.9,15.3-0.9,23.1v19.4
	c0,0.9,0.1,2.2,1.1,2.5 M1099.1,1225.9v5.3l-0.7,0.8c-0.6,0.6-1.2,0.9-2.1,0.9l-4.3-1.2l-928.7-250c-1.9-0.5-5-0.5-5.9-2.7l-0.3-1
	l-0.1-1.2l-0.1-1.4v-35l3.8-4.7 M1096.6,1190.1l-2.3,2.8v35.1c0.1,1.8,0.1,4.2,2,5 M1099.1,1231.3c1.4,0.3,1.9,0.4,3.2,0.4
	c2.7-0.1,5.4-1.4,6.5-4.1c0.5-1.2,0.5-2.4,0.5-3.7 M1109.3,1224.8l2.8-3.5l40.2-49.7l2.8-3.6v-0.9l2.4-3l0.4-0.7
	c2.2-3.5,1.9-7.5,1.9-11.4v-19.8c0.4-5.7,1.7-11.4,3.7-16.7l1-2.7l1.8-4.2l106.6-251c13.5-31.5,22.8-65.2,25.1-99.5
	c0.8-10.8,0.9-21.7-0.6-32.5c-0.7-5-1.6-10.1-3.3-14.9c-1-3-2.4-5.9-3.8-8.8l-94-198.2l-2-4.1 M1108.2,1228.7l2.9-3.5l40.1-49.7
	c1.5-1.9,3.3-3.4,3.8-5.9l0.1-1.5 M1154.7,415.7c-1.3-2.8-2.5-6-5-8.1c-1.9-1.5-3.6-1.6-6.1-2.2l-4.1-1.1l-2.2-0.5l-2.3,0.2
	c-4.3,1-7.7,4.6-10.5,7.8c-3.1,3.7-5.7,7.9-7.9,12.2c-3.3,6.1-5.9,12.6-8.2,19.2c-3.4,9.9-5.9,20.2-7.3,30.6
	c-1.1,8.9-1.7,18.2,0.2,27.1c0.8,3.7,2.3,6.9,4,10.3l130.8,275.7l2,4.1l0.5,1.5c0.6,1.9,0.7,4.1,0.7,6.1c0,6.5-1.5,13.1-3.7,19.2
	l-1,2.6l-1.8,4.2l-110.7,260.7c-6.1,14.3-11.4,28.9-15.5,43.9c-4.5,16.7-7.8,33.8-9.4,51.1c-0.6,7.7-0.8,15.3-0.8,23.1v14.9
	c0,1-0.3,4.3,0.2,6c0.5,1.8,4.1,1.8,5,2.1c0.9,0.3,3.6,1.8,4.9,0.8l0.5-0.5l2.4-3 M1147.7,406.4l-2.2-0.5l-2.3,0.2
	c-4.3,1-7.8,4.6-10.4,7.8c-3.1,3.8-5.7,8-8,12.3c-3.3,6.1-5.9,12.6-8.1,19.2c-3.4,9.9-5.9,20.3-7.3,30.6c-1.1,8.9-1.7,18.2,0.2,27.1
	c0.8,3.7,2.4,6.9,4,10.3l130.9,275.7l1.9,4.1l0.5,1.5c0.8,2.8,0.8,5.8,0.7,8.7c-0.4,5.6-1.7,11.4-3.7,16.7l-1,2.6l-1.7,4.2
	l-110.8,260.7c-6.1,14.3-11.4,28.9-15.5,43.9c-4.5,16.7-7.8,33.8-9.3,51.1c-0.8,7.7-0.9,15.3-0.9,23.1v19.4c0,0.9,0.1,2.2,1.1,2.5
	 M212.2,835.1l-3.8,4.8v72.5c-0.3,2.4-2.2,4.1-3.7,6L188,939l-2.8,3.5 M208.4,907.6c-0.8,1.5-2.1,2.5-3,3.9v0.9l-2.8,3.6l-17.8,22.1
	l-2.8,3.5 M205.4,912.4c0.5,2.9,4.2,3,6.4,3.6l2.9,0.8l4.3,1.1 M198.2,150.9l-0.2-0.1l-4.1-1.1l-4.1-1.1l-2.2-0.5l-2.3,0.3
	c-4.3,1-7.8,4.5-10.4,7.8c-5,5.8-8.7,12.8-11.7,19.8c-5.9,13.3-9.8,27.7-11.7,42.1c-1.1,8.8-1.7,18.1,0.1,26.9c0.8,3.8,2.3,7,4,10.4
	l3.2,6.7l1.9,4.1 M197.9,150.8l-2.2-0.5l-2.3,0.3c-4.2,1-7.7,4.5-10.4,7.8c-3.7,4.5-6.7,9.6-9.3,14.7c-7.3,14.8-12,31.1-14.1,47.4
	c-1,7.6-1.5,15.5-0.5,23.1c0.5,3.5,0.6,3.8,1.5,7.2 M348.3,504.5c1-14.6,1.3-29.6-2.2-43.9c-1.3-5-3.3-9.7-5.5-14.3L216.4,184.5
	l-1.9-4.1 M676.2,751.2v-5.5 M798.9,784.3v-5.6 M166.9,282.3l47.7-59.1 M160.7,280.7l6.2,1.6 M174,395.2l-5.2-2.6 M181.1,441.3
	l5.2,2.6 M278.7,583.7l-5.2-2.6 M274.2,659.7l-5.2-2.5 M264.5,681.4l-5.2-2.5 M259.6,702.2l-5.1-2.5 M254.5,704.6l5.1,2.6
	 M371,630.5l-111.4,76.7 M268.1,722.3v-5.5 M377.9,641.3l-109.8,75.5 M258.3,715.8l3.5-2.3 M1109.9,945.1l-4.6-4.5 M1109.3,908.8
	l6.7,0.7 M1114.6,936.2l-6.6-0.7 M1108,930.6l6.6,0.7 M1091.6,543.6l18.7-21.9 M1109.9,520.7l-12.8,15.8 M1084.8,543.6l6.7,0.7
	 M1086.3,539.4l5.3,4.2 M1098.1,533.1l11.1-13.7 M1098.1,533.1l-6.1-1.7 M1091.7,532.3l5.4,4.2 M1110.5,522.1l-19,22.2
	 M1111.9,885.3l6.7,0.6 M1119.8,809l-6.6-0.7 M1088.2,686.7l6.6,0.7 M1091.5,641l-6.7-0.6 M1109.8,662.3l-1.1-0.1 M1092,485.8
	l6.1,1.7 M166.9,236.8l-6.2-1.7 M241.7,429.7l-4.1-1.9"/>
<path class="st1" d="M648.6,752.4c0-1.6-0.1-2,0.6-3.6c1.4-3.4,4.9-5.8,8.2-7.3c6.3-2.7,13.7-3.3,20.3-2.1c3.7,0.6,7.3,1.8,10.3,3.8
	c1.3,0.8,2.4,1.8,3.4,2.9c0.8,1,1.5,2.2,1.9,3.4c1.8,5.9-3.7,10.5-8.6,12.6l-2.5,1c-3.9,1.3-7.8,1.6-11.7,1.7
	c-4.9-0.2-9.7-0.9-14.2-3.1c-2.7-1.4-5.3-3.2-6.7-5.9C648.8,754.3,648.8,753.9,648.6,752.4L648.6,752.4z M667.9,758.4
	c4.1,0.5,8.4,0.3,11.9-1.9c0.7-0.5,1.5-1.1,2-1.8l0.6-1l0.4-1c0.8-3.8-3.8-6.2-6.8-7c-1.9-0.5-3.6-0.6-5.6-0.6
	c-3.2,0.2-6.8,0.8-9.3,3c-2.3,1.9-2.6,4.9-0.5,7.1c0.7,0.6,1.5,1.3,2.3,1.7C664.5,757.7,666.2,758.1,667.9,758.4L667.9,758.4z
	 M681.9,754.7c-2.6-3.3-7.3-4-11.3-4.1c-2.8,0.2-5.7,0.6-8.1,2.2c-0.8,0.4-1.7,1.1-2.2,1.8"/>
<path class="st1" d="M771.4,785.4c0.3,1.7,0.2,2,1,3.6c1.9,3.4,5.6,5.6,9.3,7c6.5,2.4,13.9,2.7,20.7,1.1c3.4-0.8,6.8-2.2,9.6-4.3
	c1.1-0.9,2.2-1.9,3-3.1c0.7-1,1.2-2.2,1.4-3.4c1.1-6.1-5.3-10.3-10.2-12.2c-3.8-1.4-7.7-1.9-11.7-2.1l-3.1,0.1
	c-4.6,0.3-9.4,1.4-13.5,3.8c-2.5,1.4-4.8,3.4-5.9,6.2C771.3,783.4,771.4,783.8,771.4,785.4L771.4,785.4z M789.8,778.5
	c4.5-0.8,9.7-0.6,13.5,2.2c0.7,0.5,1.3,1.1,1.8,1.8l0.5,1c1.3,3.7-2.9,6.3-5.9,7.3c-1.8,0.5-3.5,0.7-5.3,0.9c-3.4-0.1-7-0.5-9.8-2.7
	c-0.7-0.5-1.4-1.1-1.8-1.9c-1.7-2.7,0-5.4,2.4-7C786.7,779.4,788.2,778.9,789.8,778.5z M804.7,787.7c-2.6-3.4-7.3-4.1-11.3-4.1
	c-2.8,0.2-5.7,0.6-8.2,2.2c-0.8,0.5-1.7,1.1-2.2,1.9 M1115,839.8l-4.4-1.2L382.9,642.7c-3.1-0.8-5-1-7.3-3c-2.2-1.9-4-4.8-4.4-7.7
	l-0.1-1.4v-62.5c0-9-0.3-18-2.5-26.7c-1-4.1-2.5-8.3-4.3-12.1c-1.5-3.1-3.5-6-5.4-8.9L249.2,354.5l-2.5-3.8v-56.4
	c0-2.1,0.2-4.8-0.3-7c-0.5-2.3-1.8-4.6-2.7-6.7c-3.4-7.7-6.6-15.6-10.6-23l-16-29.4l-2.2-3.9l-0.3-1v-41.1c0-6.9,0.1-13.8-2-20.4
	c-0.9-2.7-2-5.5-4.2-7.4c-1.5-1.3-2-1.3-3.9-1.8l-6.2-1.7l-2.2,0.1c-4,0.7-7.4,3.8-9.9,6.7c-4.8,5.3-8.3,11.7-11.4,18.1
	c-7.2,15.1-11.8,31.9-13.4,48.6c-0.6,5.1-0.6,10.1-0.6,15.2v41.1l0.1,1.3c0.4,2.3,2,4.7,3.1,6.6l1.2,2.2l2.2,3.9l0.8,0.6l0.6,0.5
	l2.6,1.3l2.6,1.3l4.5-0.5l63.6-7.5l4.5-0.5 M245.4,284.8l-4.4,0.5l-63.9,7.6l-4.5,0.5l-5.3,1.3 M204.4,152.5l-2.2,0.1
	c-4,0.6-7.4,3.7-10,6.6c-4.7,5.2-8.3,11.6-11.4,18c-4.3,9-7.5,18.5-9.9,28.1c-1.7,6.8-3,13.7-3.7,20.7c-0.5,5.1-0.5,10.2-0.5,15.2
	v41.1l0.1,0.6l0.1,0.4l2.2,4c1.3,2.4,2.8,4.8,3.8,7.4c1.1,2.7,0.9,5.3,0.9,8.2v87.7c0,4.2,0,8.5,0.3,12.7c0.5,7.5,1.6,15.1,3.8,22.4
	c1.3,4.3,2.9,8.7,5,12.7c1.7,3.2,3.7,6.3,5.7,9.3l87.5,132.2c2.7,4,5.2,8,6.7,12.7c2.8,8.7,3,18.3,2.1,27.3
	c-1.1,11.2-3.8,22.1-7.8,32.6c-3.3,8.4-7.2,16.6-10.8,24.9c-1.7,3.7-3.3,7.4-4.5,11.2c-1.4,4.5-2.1,9.1-2.3,13.7
	c0,3.5-0.2,6.9,1.4,10.1l0.8,1.3c0.4,0.4,1.9,1.4,2.4,1.7c2.5,1.5,5.6,2,8.3,2.8L1095,939.7c2,0.5,4.7,1.5,6.9,1.7
	c0.7,0,1.5,0,2.3-0.2c1.9-0.4,3.2-2.3,3.6-4.2c0.2-1,0.1-2.8,0.1-3.7v-2.5l0.1-3.3l0.1-3.4l0.2-3.6l0.5-7.5l3.8-35.1
	c1-11,1.8-22.1,2.1-33.1c0.3-8.3,0.4-16.8-0.3-25.2c-0.4-5.2-1.2-10.3-2.3-15.5l-23.2-112.7c-1.4-7-2.5-13.9-3.1-21.1
	c-0.9-11.4-1.1-22.8-1.1-34.2v-92.3l0.1-1.1c0.4-2.6,2.6-4.6,4-6.6l2.8-3.6l0.3-0.6V486c0.2-14,2.8-27.9,7-41.2
	c3.2-10.1,7.3-20.2,13.2-29.1c2.4-3.9,5.2-7.6,8.8-10.5c2-1.7,4.4-3.2,7-3.4c2-0.2,3.1,0.3,5,0.9l2.8,0.8l2.1,0.6 M168.8,295.9v92.2
	c0,4.2,0,8.4,0.3,12.6c0.6,9.8,2.4,19.9,6.1,29c2.1,5.5,5.2,10.5,8.4,15.4l87.5,132.2c1.7,2.6,3.5,5.2,4.8,8
	c3.7,7.8,4.6,16.8,4.4,25.3c-0.3,13.4-3.5,26.7-8.3,39.2c-3.7,9.8-8.4,19.3-12.6,29c-1.9,4.5-3.5,9.2-4.3,14.2c-0.5,3-0.6,6-0.6,9.1
	c0,1.3,0,2.9,0.1,4.3c0.4,2.7,1.3,5.2,2.6,7.5l1.1,1.9l1.7,1.7c2.3,2.1,5.1,3.9,8.1,4.9l4.4,1.1L1095.1,945c3,0.8,5.7,1.7,8.9,1.6
	c1.4,0,2.8-0.3,4.1-0.8c1.5-0.5,2.1-0.8,3.2-1.9c1.3-1.2,2.2-2.7,2.8-4.3c0.6-2,0.5-3.9,0.5-5.9v-5.8c0.1-3.6,0.3-7.3,0.6-10.9
	c1-13.1,2.8-26.1,4.1-39.2c1.7-17.6,2.8-35.4,2-53.1c-0.2-4.1-0.4-8.2-1-12.2l-0.6-3.7l-0.9-4.4l-23.2-112.7
	c-1.4-7-2.5-13.9-3.1-21.1c-0.9-11.4-1.1-22.8-1.1-34.2v-92.2l-0.1-0.4l0.1-0.3l2.7-3.6c1.1-1.5,3.3-3.6,3.7-5.7l0.1-1.3v-41.1
	c0-5.2,0.1-10.2,0.5-15.3c0.9-9,2.8-18,5.3-26.7c2.7-9.3,6.1-18.4,10.7-26.9c2.5-4.7,5.3-9.3,8.9-13.3c2.6-2.9,6-5.9,9.9-6.6
	l2.2-0.1 M214.8,224.3l-2.8,3.5l-42,52l-2.9,3.6l-5.3,1.3 M378.5,641.5l0.7-0.7c1.8-1.5,4.2,0.1,6.2,0.6l725.2,195.3l4.4,1.1
	 M1099.5,946.1v-5.5l1.4-4.3l7.2-23.6l1.2-4.3 M1114.6,936.2l1.4-4.3l27.5-89.9l1.3-4.3v-62.5c0-10.8-0.1-21.5-1.2-32.2
	c-0.5-4.8-1.4-9.5-2.4-14.3l-29.1-142l-0.9-4.4v-58.8 M1114.1,939.6l1.3-4.4l27.4-89.6c0.8-2.8,1.7-5.1,2-7.9 M1109,664.1
	c-0.4-0.7-0.3-1.9-0.3-2.7c0-1.5,0.2-3.2,0.4-4.7c0.2-0.8,0.3-2,0.9-2.7 M1109.1,664.2c0.6-0.7,0.7-1.8,0.9-2.7
	c0.3-1.6,0.4-3.1,0.5-4.7c0-0.8,0.1-2-0.3-2.7"/>
<path class="st1" d="M237.6,429.6c-0.1-1.1,0-2.2,0.3-3.3c0.4-0.9,0.8-1.8,1.4-2.6c0.9-1.1,3.3-3.2,4.4-1.1l0.2,0.6
	c0.2,0.7,0.1,1.6-0.1,2.4c-0.5,2.3-2.1,5.2-4.7,5.5C238.2,430.9,238,430.4,237.6,429.6L237.6,429.6z M639.7,1055.9l2.3,1.8
	 M666.8,1054.7l-2.3,2 M644.6,1061.3c-0.8-0.5-1.4-1.1-1.9-1.9c-1.6-2.6,0.1-5.2,2.3-6.6c4.1-2.5,9.7-2.7,14.2-1.1
	c2,0.7,4.4,2,5.2,4.2c0.3,0.8,0.2,1,0.2,1.8 M631.9,1062.7c0-4.1-0.8-8.4,1.9-11.8c2.4-3.2,6.3-5,10-6.1c6.4-1.9,13.6-1.8,19.9,0.3
	c3.2,1.1,6.3,2.7,8.6,5.2c1.1,1.4,2.3,3.2,2.3,5.1l0.1,1.3v8.6c0,3.1,0.4,5.9-1.5,8.7 M674.7,1056.6c-0.1,1.1-0.1,1.4-0.6,2.5
	c-0.9,2.3-2.9,4.1-5,5.4c-3.3,2.1-7.2,3.3-11.1,3.8c-1.9,0.3-2.3,0.2-4.1,0.3 M636.4,1063.9c-2.2-1.7-4.1-3.8-4.5-6.8
	c-0.1-1,0-1.4,0.1-2.4"/>
<path class="st1" d="M651.7,1043.7c6.3-0.1,13.3,0.8,18.4,5.1c0.7,0.6,1.4,1.3,2,2.1c0.5,0.7,0.9,1.5,1.1,2.4
	c1.8,5.7-3.9,10-8.6,11.8l-1.8,0.6c-3.3,1-6.8,1.3-10.2,1.4c-5.2-0.2-10.5-1.1-14.8-4.2c-3-2-5.6-5.4-4.6-9.1c0.1-0.9,0.5-1.7,1-2.4
	c0.8-1.3,1.9-2.4,3.1-3.2c1.4-1,3-1.9,4.6-2.5C645,1044.4,648.4,1043.9,651.7,1043.7L651.7,1043.7z M640.4,1057.9
	c-0.3-0.8-0.6-1-0.7-2c-0.4-3.3,2.8-5.6,5.5-6.8c5.2-2.3,12.1-2.2,17.2,0.5c0.8,0.4,1.5,0.9,2.2,1.5c0.5,0.5,1.1,1.1,1.5,1.8
	c0.4,0.6,0.6,1.2,0.7,1.9c0.5,4-3.8,6.4-6.9,7.4c-2.1,0.7-4.3,0.9-6.5,1C648.6,1063,643.4,1062,640.4,1057.9L640.4,1057.9z
	 M631.9,1062.7v-2.7c0-1.4-0.7-3.4,1.1-3.7 M662,1061.3c1.6-1.1,2.6-2.6,2.6-4.6 M673.6,1054.5c0.5,0.1,0.8,0.2,1,0.7
	 M1098.1,1172.7l-0.6,0.6 M1075,1174.2l-2.3-1.8 M1098.6,1168.8c-0.3-0.5-0.6-0.9-1.1-1.2 M1097.2,1181.8c-3.8,1.3-7.6,1.8-11.6,1.9
	c-5.6-0.3-11.7-1.4-16.2-5.1c-0.7-0.6-1.4-1.4-2-2.2c-0.5-0.7-0.9-1.5-1.1-2.3c-1.8-5.7,4-10.2,8.7-11.9 M1097.7,1176
	c-3.3,2.7-7.2,3.6-11.4,3.7c-4-0.2-8.3-0.8-11.5-3.6c-0.6-0.5-1.1-1.1-1.5-1.8c-1.4-2.4-0.5-5.1,1.5-6.9 M1074.9,1161.9
	c-4.2,1.4-9.1,4.6-10,9.2c-0.5,2.6-0.2,5.5-0.2,8.2 M1064.9,1171.2c-0.2,1.1-0.3,1.4-0.1,2.6c0.4,2.8,2.3,4.9,4.5,6.7 M1066,1172.8
	c-1.8,0.3-1.1,2.4-1.1,3.7v2.7 M1075,1173.3c0,2,0.9,3.4,2.5,4.6 M1097.4,1173.3c0.1,2-0.9,3.4-2.5,4.6 M1097.5,1162.1l1.9,0.9
	 M1099.5,1162.7l-2-0.8 M1097.1,1183.5c-3.3,1-6.6,1.5-10.1,1.7 M209.1,941.1l-2.2-1.7 M231.6,940.2l2.3-2 M209.1,934.5
	c-0.7,0.5-1.3,1.2-1.7,1.9c-1.8,3.4,0.8,6.5,3.8,8.1c5.4,2.9,13.2,2.9,18.6-0.1c2.9-1.6,5.4-4.8,3.4-8.2c-0.4-0.6-1-1.4-1.5-1.8
	 M240.4,957.3c1.8-2.7,1.5-5.5,1.5-8.7v-4.1c0-3.4,0.4-6.7-1.6-9.7c-0.7-1-1-1.4-1.9-2.2c-0.8-0.8-1.8-1.5-2.7-2
	c-1.2-0.8-2.6-1.3-4-1.9 M209.1,929.1c-1.7,0.6-3.3,1.5-4.8,2.6c-1.1,0.9-2.2,2-3,3.2c-0.5,0.7-0.8,1.5-1,2.4
	c-1.4,5.8,4.8,9.9,9.4,11.5c5.2,1.9,11,2.2,16.4,1.3c3.2-0.5,6.3-1.5,9-3.2c1.4-0.8,2.6-1.8,3.6-3c0.6-0.8,1.1-1.5,1.4-2.3
	c0.3-0.8,0.6-1.6,0.6-2.4c0.3-5.2-4.8-8.4-9-10.1 M241.7,938.6c-0.2-0.5-0.5-0.6-1-0.6 M221.1,952.1c1.8-0.1,2.2,0,4.1-0.3
	c3.9-0.5,7.8-1.6,11.1-3.7c2.1-1.3,4.1-3.2,5-5.5c0.5-1.1,0.4-1.4,0.6-2.5 M231.6,940.2c0,2-0.9,3.4-2.6,4.6 M211.7,944.8
	c-1.6-1.1-2.6-2.5-2.6-4.5 M209.1,928.8c-5.2,1.7-11.7,6.8-9.8,13.1c0.3,0.9,0.7,1.7,1.2,2.5c0.8,1.2,1.9,2.1,3.1,3.1 M199,946.1
	v-2.7c0-1.4-0.6-3.4,1.1-3.7 M199.1,938c-0.3,2.7-0.2,5.4-0.2,8.2 M765,1083.7l1.2,3v8.5"/>
<path class="st1" d="M784.2,1095.4c-4.1,2.6-8.6,3.5-13.3,3.6c-2.5-0.1-4.9-0.3-7.3-1c-4-1.1-9.6-3.9-9.6-8.8
	c0.1-0.8,0.2-1.5,0.5-2.2s0.7-1.4,1.3-2c0.6-0.7,1.3-1.3,2-1.9c4.8-3.4,11.4-4.2,17.1-3.4c1.1,0.2,2.4,0.4,3.6,0.7l1.7,0.5
	c3.8,1.4,8.7,4.7,7.7,9.4c-0.2,0.8-0.5,1.4-0.9,2.2C786.2,1093.7,785.2,1094.5,784.2,1095.4z M787.9,1104.6l0.5-0.9
	c0.9-2.2,0.5-4.6,0.5-6.8v-6.4c0-0.9,0-1.6-0.3-2.5c-0.6-1.7-1.8-3.1-3.1-4.3c-2.9-2.7-7.3-3.8-11.2-4.3c-1.6-0.2-2.1-0.2-3.8-0.2
	c-4.6,0.2-9.5,0.9-13.4,3.7c-1.5,1.1-3.1,2.5-3.7,4.3c-1,2.6-0.6,5.3-0.6,8 M763.9,1094.3c-0.5-0.4-0.8-0.6-1.3-1.3
	c-1.8-2.4,0.2-4.8,2.4-6c3.5-1.7,8.2-1.7,11.7,0c2.3,1.1,4.3,3.5,2.6,6c-0.5,0.6-0.7,0.8-1.3,1.3 M772.5,1100.5h0.6l1.9-0.2
	c4.9-0.6,11.2-2.6,13.4-7.5c0.4-1,0.4-1.2,0.5-2.3"/>
<path class="st1" d="M782.2,1089.6c-1,4.8-6.9,6-11.1,6.1c-2-0.1-4-0.3-5.9-0.9c-2.7-0.9-6.5-3.4-5.2-6.9c0.1-0.6,0.5-1.2,1-1.7
	s1.1-1,1.8-1.5c4-2.5,9.7-2.7,14.1-1.1c2.1,0.7,4.4,2,5.2,4.2C782.3,1088.7,782.2,1088.8,782.2,1089.6L782.2,1089.6z M779.9,1097.6
	c1.1,1.3,0.6,3.9,0.6,5.1 M762,1080.9l-0.3-0.1h-0.1 M752.9,1089.7c0,1-0.1,1.3,0.3,2.3c0.6,1.7,1.7,2.9,3,4.2 M529.7,1020.4
	l1.1,2.9v8.4"/>
<path class="st1" d="M548.8,1032c-4.1,2.6-8.5,3.5-13.3,3.6c-2.5,0-4.9-0.3-7.4-0.9c-4-1.1-9.6-4-9.5-8.9c0-0.8,0.2-1.5,0.5-2.2
	c0.3-0.8,0.8-1.4,1.3-2c0.6-0.7,1.3-1.3,2-1.9c4.7-3.4,11.4-4.2,17-3.4c1.3,0.2,2.4,0.5,3.6,0.7l1.7,0.6c3.8,1.4,8.7,4.6,7.7,9.4
	c-0.2,0.8-0.5,1.5-0.9,2.1C550.9,1030.3,549.8,1031.1,548.8,1032L548.8,1032z M552.5,1041.3l0.5-1c1-2.1,0.6-4.5,0.6-6.8v-6.4
	c0-0.9,0-1.6-0.3-2.4c-0.5-1.8-1.8-3.1-3.1-4.3c-2.9-2.7-7.3-3.8-11.2-4.3c-1.7-0.2-2.1-0.2-3.7-0.2c-4.7,0.2-9.5,1-13.4,3.8
	c-1.5,1-3.1,2.5-3.8,4.3c-0.9,2.6-0.6,5.3-0.6,8 M528.6,1031c-0.6-0.5-0.9-0.6-1.3-1.2c-1.7-2.4,0.2-4.9,2.5-6
	c3.5-1.8,8.2-1.8,11.7-0.1c2.3,1.1,4.2,3.5,2.6,5.9c-0.5,0.6-0.7,0.8-1.3,1.3 M537.1,1037.2h0.7l1.9-0.2c4.8-0.7,11.1-2.7,13.3-7.5
	c0.4-0.9,0.4-1.2,0.6-2.3"/>
<path class="st1" d="M546.9,1026.2c-1.1,4.9-7,5.9-11.2,6.1c-2-0.1-4-0.3-6-0.9c-2.7-0.9-6.4-3.4-5.2-6.9c0.1-0.6,0.5-1.1,1-1.7
	c0.5-0.5,1.1-1,1.7-1.4c4-2.6,9.7-2.7,14.2-1.2c2.1,0.7,4.4,2,5.2,4.2C546.9,1025.3,546.8,1025.5,546.9,1026.2L546.9,1026.2z
	 M544.5,1034.2c1.1,1.3,0.6,4,0.6,5.2 M526.7,1017.6l-0.3-0.2h-0.2 M517.5,1026.4c0,1,0,1.3,0.3,2.3c0.6,1.8,1.7,2.9,3,4.2
	 M1097.5,1158.3v17.9 M1050.1,1251.3v-30.8 M1072.5,1262.3v-35.7 M1093.5,1232.3v31 M1090.3,1262.9v-31.5 M1118.7,1216.3v38.1
	 M1122.7,1251.5v-35.2 M1074.9,1174.2c0-5.5-0.2-11.1,0-16.7c0-2.4,2.7-3.9,4.5-5c4.6-2.6,10.3-2,14.7,0.7c0.9,0.5,1.7,1.1,2.3,1.9
	c0.3,0.4,0.6,1,0.8,1.5c1.1,3.4-2.5,5.9-5.2,6.8c-2.1,0.7-4.3,0.9-6.5,0.9c-1.2-0.1-1.5-0.1-2.6-0.3c-3.5-0.6-7.9-2.4-8-6.6
	 M1092.8,1152.5c0.8,0.5,1.4,0.9,2,1.7c1.5,1.9,0.7,4.2-1.1,5.6c-2.2,1.7-5.2,2.2-8,2.2c-1-0.1-1.3-0.1-2.2-0.2l-1-0.3
	c-2.5-0.6-6.5-2.7-5.5-6c0.1-0.4,0.4-0.9,0.6-1.3c0.5-0.6,1.2-1.1,1.9-1.6 M1091.1,1161.1c1.5,3.8,0.9,1.6,0.9,6.9v11
	 M1127.1,1205.3c2.3,2.8,1.8,6.6,1.8,10v28.2c0,0.4-1.8,2.9-2,3.3c-1.5,2.2-3.4,4.2-5.5,5.9c-4,3.2-9.2,4.3-14,5.8
	c-2.5,0.8-5,1.7-7.4,2.7c-1.8,0.7-3.6,1.5-5.4,1.9c-2.9,0.7-6,0.6-9,0.6c-3.6-0.1-7.1-0.4-10.6-0.9l-2.6-0.5l-0.8-0.3
	c-1.7-0.6-3.1-1.6-4.6-2.4c-2.1-1.2-4.3-2.3-6.6-3.4c-3.9-1.8-8.3-3.2-11.6-5.9c-2.1-1.7-3.8-3.8-5-6.3c-0.8-1.6-1.3-3.2-1.7-4.9
	 M1041.9,1218.3v21.1l0.6,1.8c0.5,1.4,1.1,2.7,1.9,4.1 M1042.3,1239.3l-0.4,0.1 M1082.6,1232c1.3-0.5,2.5-1,3.7-1.7 M1082.6,1232
	c-2.5-1.3-4.8-2.7-6.9-4.5 M1072.5,1262.3c3.6,0.4,7.1-1.4,10.1-3.1c3.3,2.1,7,4.1,11,4.1 M1128.9,1243.5l-1-0.2 M1122.7,1251.5
	c2.3-2.5,4.1-5.1,5.2-8.3 M1127.9,1216c0.6-1.8,0.9-3.4,1-5.3 M1118.2,1216.3c3.2-0.2,6.5,0.3,9.7-0.3 M1120.2,1213.9
	c1.6-1.4,3.1-3.1,4-4.9 M231.7,943.1v-18 M179.5,986.2v18.8 M187.3,1017.7l0.5,0.5 M204.6,1028.8v-35.9 M234.1,1000.8v28.5
	 M209.1,941.1c0-5.5-0.1-11.1,0-16.6c0.1-2.5,2.7-4,4.5-5c4-2.2,9.4-2.3,13.4-0.1c1.3,0.7,2.7,1.5,3.6,2.7c0.3,0.4,0.6,0.9,0.8,1.5
	c1.1,3.4-2.4,5.9-5.1,6.8c-2.2,0.7-4.3,0.9-6.5,0.9c-1.1,0-1.5,0-2.7-0.2c-3.5-0.6-7.9-2.5-8-6.6 M227,919.4
	c0.8,0.5,1.4,0.9,1.9,1.7c1.6,1.9,0.8,4.2-1,5.6c-2.3,1.7-5.2,2.1-8,2.1l-2.3-0.2l-1-0.2c-2.6-0.7-6.5-2.7-5.5-6
	c0.1-0.5,0.3-0.9,0.6-1.2c0.5-0.7,1.2-1.2,1.9-1.7 M214.6,927.6c-1.7,3.7-1.1,1.5-1.1,6.9v11 M251.2,1022.7c-6.5,4-14.2,6.8-22,6.9
	c-4.2-0.1-8.5-0.3-12.8-0.3l-3,0.1h-2.1c-1.7,0-3.6,0-5.3-0.3c-4.2-0.6-8.6-2.2-12.3-4.1c-1.5-0.7-2.6-1.3-4.1-2.2l-1.7-1l-0.1-0.2
	c-0.3-11,0-22.1,0-33.1 M192.9,993.6c2.6-0.4,5.2-1,7.7-1.8 M177.1,985.5v6.5c0,3.6-0.3,7.2,1.1,10.6c1,2.7,3.1,5,4.9,7.3
	c2.2,3,4.3,6.4,4.7,10.2 M188,1021.7c1.5,0.4,3.5-0.4,4.9-0.9c3.2,3.7,6.9,6.6,11.7,8 M192.9,993.6v27.2l2.7,2.9
	c2.6,2.4,5.6,4.1,9,5.1 M192.8,1020.8v-27.3l-1-1.1c0,0-1.9-2.4-2.6-3.6 M245.9,1021.6l2.2,0.8c0.9,0.2,2.2,0.6,3.1,0.3
	c0.5-0.2,0.5-1.6,0.6-2c0.5-1.9,1.3-3.6,2.3-5.1c1.7-2.8,4-5.1,6-7.6 M245.9,1021.6c1.3,0.5,2.7,0.9,4.1,1.1
	c0.3,0.1,1.4,0.2,1.5-0.3v-16.8 M245.9,1021.6c-3.3,3.6-7.1,6.4-11.9,7.7 M152.2,212.8l-3.3-0.8 M141.5,193.6l-29.9-8.1
	 M101.7,210.2l44.3,12 M160.3,176.7l2.3,0.6 M156.3,195.1l-5.6-1.7 M109.2,171.2l42.7,11.5 M144.3,239.1l-42.7-11.5 M150.8,238.6
	l-1.1,2.6 M148.5,239.2l2-5.1 M145,208.2l-42.7-11.5 M154.9,200.1l-5.6-1.7 M154.9,200.1l-5.6-1.5 M170.5,158.2l-0.8,5.1
	 M172.3,159.4L172.3,159.4 M172.6,157.2l-0.5,2.4 M124.2,144.5l42.7,11.6 M152.3,247.6c-1.2,1.2-2.1,2.7-3.8,3.3
	c-0.9,0.3-1.1,0.3-2,0.4c-1.3,0-2.5-0.2-3.6-0.6l-2.4-1.4l-4.3-1.1l-21.2-5.7l-4.4-1.1l-1.1-0.8c-1.5-1.1-2.7-2.4-3.9-3.9
	c-2.3-2.9-3.7-6.8-4.1-10.4c-0.3-2.6-0.1-5.1,0-7.7l0.3-8.1l0.1-7.2c0-1.4-0.1-2.9,0-4.3c0.7-5.5,2.1-11,3.6-16.2
	c1.3-4.3,2.6-8.8,4.4-13c0.6-1.3,1.4-2.6,2.2-3.8c1.7-2.8,3.3-5.6,4.9-8.5c3.2-5.7,5.7-12.2,11.2-16.1c2.1-1.4,4.4-2.5,6.8-3.1
	c0.6-0.1,3.1-0.6,3.7-0.5l4.3,1.1l21.2,5.7l4.3,1.2h2.8c2.3,0.3,4.5,1.4,5.6,3.4c0.6,1.2,0.6,2.6,1,3.9 M150.7,193.4
	c0.8-2.2,1.6-4.3,2.8-6.4c1.3-2.3,3-4.3,4.4-6.4c1.5-2.3,2.8-4.7,4.1-7.1l2.6-5.3c1.6-3.6,3-7.2,5.9-10 M168.5,145.5
	c0.4,5.9-1.7,11.2-4.1,16.5c-2.9,6.7-6.4,13.3-11,19c-1.7,2.1-3.7,3.9-5.7,5.8c-2.2,2.2-4.3,4.4-6.2,6.8 M102,197.6
	c0.7-2.1,2-3.9,3.4-5.6c1.9-2.3,4-4.5,6.2-6.5 M109.4,170.4c-0.5,1.9-0.3,3.8,0,5.7c0.4,3.2,1.3,6.3,2.2,9.4 M140.3,249.1
	c3.3-4.7,4.2-10.4,4.9-15.9c0.6-5.3,0.9-10.7,0.8-16.1c-0.1-2.3-0.3-4.6-0.6-6.8l-0.3-2c0-0.6,1.2-5.9,1.3-6.5
	c1.5-6.5,3.4-12.8,5.7-19.2 M145,208.3c-0.4-2.3-1.3-4.6-1.9-6.9c-0.6-2.6-1.2-5.2-1.7-7.8 M149.3,198.4c-0.4,2.3-0.7,4.6-0.9,6.9
	c-0.1,1.8,0.2,3.5,0.4,5.4c0.3,3.6,0.3,7.2,0.1,10.8l-0.4,6c-0.4,3.9-1.1,7.8,0,11.7 M144,251l-4.3-1.2l-26.6-7.2
	c-1.7-0.4-4-0.3-5.1-1.8 M110.4,241.1c-0.8,0.4-0.4,0.3-1.2,0.4c-1.3-0.1-2.1-1.6-2.9-2.6c-2.1-2.9-3.3-6.2-4.3-9.6 M150.6,249.4
	c-0.9-0.6-1.1-0.6-1.9-1.4c-2.5-2.4-3.4-5.8-4.2-9 M149.7,241.2c0.4,0.3,0.8,0.5,1.4,0.4 M172.6,157.2c0.9,0,0.4-0.1,1.3,0.2
	 M177.5,150.6h-1.2c-3.9,0.5-6.6,2.8-9.3,5.5 M125.7,142.9c2.4-2.3,5.1-4.3,8.2-5.6c0.8-0.4,2.4-1.2,3.3-1l4.3,1.2l26.6,7.2l4.3,1.2
	 M137.3,136.3c0.6,0.3,0.9,0.6,1.3,1.1 M190.6,225.6l-2.4-0.7l-2.3-0.6l-0.6-0.3c-1.8-1.3-2-4.2-2.1-6.1c-0.4-6.2,1.2-12.6,3.6-18.2
	c1.1-2.9,2.7-5.8,4.9-7.9c0.8-0.8,1.9-1.7,3.1-1.7l0.7,0.1l2.3,0.6l2.4,0.6l0.6,0.4c1.7,1.3,1.9,4.1,2.1,6.1
	c0.3,4.9-0.8,9.9-2.3,14.5c-0.6,1.8-1.2,3.6-2,5.3c-0.9,1.9-1.9,3.8-3.3,5.4c-1,1.3-2.2,2.3-4,2.6c-2.8-0.5-3.2-4.2-3.3-6.6v-1.6
	c0-3.7,0.7-7.4,1.7-11s2.3-7.1,4.2-10.2c1.3-2.1,3.3-5.3,6.3-4.8 M1180,439.3l-42.8-11.5 M1166.9,471.8l-42.7-11.5 M1154,483.5
	l-29.9-8.1 M1203.2,430.6l-10.9-2.9 M1124.1,509.5l42.8,11.6 M1191.6,505.3l-0.6,1.5c-0.5,0.9-1.7,1.7-2.5,2.4
	c-1.3,1.3-2.5,2.6-3.7,3.9c-1.4,1.6-2.7,3.2-4.1,4.9c-2.9,3.7-5.7,7.4-10.4,8.9c-1.5,0.5-3.1,0.7-4.7,0.8c-3.1-0.1-5.9-1-8.9-1.8
	l-21.2-5.7c-3.3-0.9-6.6-1.5-9-4.1c-1.4-1.5-2.3-3.4-2.5-5.5v-3.9c0.1-2.7,0-5.3-0.3-7.9c-0.3-3.6-0.9-7.1-2.3-10.4l-0.6-1.6
	c-0.4-0.8-1-1.6-1.1-2.5c0-2,0.4-4.4,0.6-6.4c0.7-5.2,1.4-10.6,2.9-15.7c0.7-2.5,2.4-4.7,3.6-7c1.9-3.7,3.6-7.6,5.1-11.4
	c1.2-3.1,2.3-6.3,3.3-9.4c0.8-2.6,1.3-5.3,2.3-7.7c0.6-1.6,1.5-2.9,2.5-4.3c1.7-2.4,3.5-4.8,5.7-6.8l1.3-1.1l0.6-0.5l4.4,1.2
	l31.4,8.4c2.8,0.8,5.4,1.1,7.7,3.1c2.9,2.4,5.5,6.5,9.8,5.6c0.5-0.1,1.1-0.3,1.5-0.5l0.7-0.6c1.3-2.3-4.1-2.4-4.5-2.5l-3.2-0.8
	l-4.4-1.2 M1186.4,424.3c-2.1-0.3-1-0.3-3.2-0.3c-2,0.2-3.6,0.5-5.5,0.9l-30-8c-3.6,1.7-6.5,4-8.8,7.3 M1121,473.6
	c0.1-3.6,0.6-7.3,1.3-10.9c1.1-5.2,2.6-10.3,4.8-15.1c1.8-4,4.1-8,7.3-11 M1147.7,416.9c0-1-0.1-2,0-2.9 M1119.9,483.6
	c0.6-3,2.5-5.7,4.2-8.2 M1161.2,527c1.4,0,2.3-0.9,3.1-1.9c1.3-1.5,2.4-3.4,3-5.2c0.7-2.1,0.8-4.3,0.8-6.5c0.1-1.3,0-2.6-0.1-3.9
	c-0.4-4-1.4-8.9-4.4-11.9c-1.7-1.7-1.5-0.9-5.1-1.9l-34-9.1l-4.4-1.1 M1123.3,462.2c-1,4.5-0.3,8.8,0.8,13.2 M1177.6,424.9
	c1,3.7,1.6,7.3,2.1,11c0.2,2.2,0.4,4.4,0.2,6.6s-0.8,4.3-1.4,6.4c-1,3.6-2.3,7.1-3.8,10.5c-1.5,3.6-3.3,7.3-5.7,10.3
	c-1.8,2-4,3.6-6,5.4c-3.1,2.7-6,5.5-9,8.4 M1165.4,500.1c0.2-11.2,2.2-22.1,5.3-32.8 M1162.9,496.9c-4.1-3.6-6.7-8.4-8.9-13.4
	 M1165.4,497.9c11.7-9.4,22.4-19.5,31.3-31.5c2.4-3.2,4.6-6.5,6.7-10l2.3-4c0.1-0.5,0-4.9,0-5.3c-0.3-5.2-1-10.5-3.8-15
	 M1177.6,424.9c3.3-0.8,6.8-1.3,10.2-0.2c1.4,0.5,1.7,0.8,2.8,1.6 M1191,506.8l1.1-2.2l2.2-4.6c2.8-6.2,5.2-12.8,7-19.5
	c0.7-2.7,0.9-5.6,1.4-8.3c0.6-3.9,1.2-7.8,1.8-11.6c0.5-3.1,1.2-6.2,1.4-9.3c0.6-7.2-0.4-14.6-2.8-21.3 M1179.3,445.8
	c3.5-6.3,7.7-13.5,14.6-16.5 M1205.7,452.3l-0.1,2.3 M1168.1,516c1.4,2.6,3.2,5.2,6.4,5.3c0.8,0,1.6-0.1,2.4-0.4
	c1.1-0.4,1.5-0.6,2.5-1.1 M1189.7,508.1c5.6-9.6,9.4-19.8,12.3-30.4"/>
<path class="st2" d="M100,1265l12.7-12.7"/>
<path class="st0" d="M100,1265"/>
</svg>
