<svg xmlns="http://www.w3.org/2000/svg" xmlns:xlink="http://www.w3.org/1999/xlink"
    viewBox="0 0 1400 1400" enable-background="new 0 0 1400 1400">
    <style type="text/css">.st0{fill:none;} .st1{fill:none;stroke:#000000;stroke-linecap:round;stroke-width:3;} .st2{clip-path:url(#SVGID_2_);} .st3{fill:none;stroke:#FFFFFF;stroke-miterlimit:10;}</style>
    <path class="st0" d="M1300 224.6h-1200v950.8h1200v-950.8z"/>
    <path class="st1"
        d="M1229.9 1141.6l-.3.3M1238.2 1144.2l-8.6-2.3v-24.6M1238.2 1119.5l-8.6-2.2M1219.9 1069.9l25.5 6.9M1217.5 1072.9l25.5 6.8M130 796.5l1108.2 298.4M162.6 785.2l-25.4-6.8M134.8 781.4l25.5 6.8M1208.7 1070.4l-1039.6-279.8M162.6 785.2v.3M138.6 823.5l-8.6-2.4M138.6 848.1v-24.6M130 845.9l8.6 2.2M1238.2 1168.9l-1108.2-298.4M1242 1139.2l.2.1M658.8 1010.5l-9.3-2.5M650.3 1007.2l-.8.8M649.5 938.7v69.3M658.8 941.2l-9.3-2.5M658.8 1010.5v-69.3M718.7 1022.8l-9.3-2.5M710.2 1019.4l-.8.9M709.4 958.7v61.6M718.7 961.1l-9.3-2.4M718.7 1022.8v-61.7M1269.9 1104.7h.2M1199.2 1031.8l-998-268.7M1198.7 1034.1l-998.1-268.7M1262.9 1062.8l-.1-.1M1262.9 1062.8l2-2.4M1270.1 1075.7v-13.7M1266.1 1074.6v-13.9M1262.9 1059.7v3.1M1238.2 1119.5l4-4.9v-20.900000000000002c0-1.7-.4-4.6.8-6.3l2.4-2.9v-7.7M1238.2 1119.5v-26.200000000000003c.3-3.4 1.2-6.8 2.6-9.9 1.2-2.5 2.8-4.5 4.6-6.6M1212.7 1088.1c.2-4.5 1.2-9 3.3-12.9 1.1-1.9 2.5-3.5 3.9-5.3M1203.9 1085.6c.1-4.9 1.4-10 4-14.1l.8-1.1 2.3-3 9.1-11.2 2.4-3M130 821.1v-24.6l.1-1.5c.3-3.4 1.1-6.8 2.5-9.9 1.1-2.5 2.9-4.6 4.6-6.7M155.4 803.4c.3-4.5 1.3-9 3.3-12.9 1-1.9 2.5-3.5 3.9-5.3M164.4 805.8c.2-4.9 1.4-10 4.1-14.2l.7-1.1 2.4-2.9 13.4-16.7 2.4-3M130.2 845.6l-.2.3v24.6M1242.2 1139.3v24.6l-4 5M1242.2 1139.3l-4 4.9v24.7M155.7 877.4v1.4l.2 1.2.3 1c.8 2 3.3 1.9 5.1 2.4l1049.6 282.6 3.7 1c.4.1 1.4-.3 1.4-.3 1.1-.7 2-2.1 2.8-3M1214.5 1167c-1.9-.8-1.9-3.3-1.9-5M1266.1 1134.3v-24.700000000000003l4-4.9M1266.1 1134.3l4-5v-24.6M155.7 803.3l8.5 2.3M169 790.6l-8.6-2.4M187.2 768.1l-2.4 2.9-13.5 16.7c-1.2 1.4-2.5 2.9-3.5 4.5-2.3 4.1-3.5 8.8-3.7 13.4M155.7 803.3c.2-4.6 1.3-9.4 3.6-13.3 1-1.7 2.4-3.2 3.5-4.6l13.5-16.8 2.4-2.8M138.6 823.8v24M130 845.5l8.6 2.3M130 821.5l8.6 2.3M130 870.8l8.6 2.3M137.3 778.2l8.6 2.3M130.2 821.3l-.2.2v24M138.8 872.8c-.4.5-.3.3-.2 1.3.1 1.1.5 3.5 2.1 3.7 1.1.1 2-1 2.7-1.8l1.4-1.6M140.2 877.7l-3.6-.9-1.3-.4c-1.8-.5-3.9-.3-4.7-2.2l-.2-.7-.2-.8c-.1-.6-.4-1.6 0-2.2M147.9 765.1l-2.4 3-5.8 7.1-2.4 3v.3M145.9 780.8v-.3l2-2.5M1266 1134.8l4.1-5.1-.2-.1M1229.6 1166.8l8.6 2.3M1242.4 1164l-.2-.1M1229.6 1141.6l8.6 2.2M1242.4 1138.8l-4.2 5M1266 1063.9v10.7M1262.8 1063.3l.8-1M1262.8 1063.3v-3.7M1237 1074.2l8.6 2.4M1244.8 1085.6l-.2-.1M1245.4 1084.5h.2M1238.2 1119.9l-8.6-2.4M1242.4 1114.7h-.2M1253.3 1136.2l4.2 1.1M1229.9 1166.6c-.5.5-.3.2-.2 1.3.1 1.1.3 2.6 1.2 3.3l.5.3 3.6 1 1.3.4 3.6 1c.6.1 1 .1 1.5-.1 1.6-.8 3.2-3.3 4-4.4l17.7-21.7c1.1-1.5 2.5-2.9 3.5-4.6 2.3-3.9 3.5-8.6 3.7-13.1M1266 1134.8v-25.2l4.1-5.2v-8.399999999999999M1242.4 1138.8v25.2l-4.2 5.1v1.1c.1 1.4.4 2.8 1.6 3.6M1259.7 1059.1l-2.4 2.9-9.4 11.6-2.3 3v7.9l-.8 1.1-1.2 3.6-.1.4-1.1 3.5v21.6l-4.2 5.2v23.9M1266 1063.9l-2.4-1.6-.2-.1M1237 1074.5v-.3l2.4-2.9 8.7-10.7 2.4-3M1229.9 1117.3l-.3.2v24.1M1253 1112l-.5.2c-1.6 0-1.7-2.4-1.7-3.6 0-3.2 1-6.6 2.6-9.4l.4-.6c.5-.8 1.7-2.4 2.8-1.7l.5.6"/>
    <path class="st1"
        d="M1250.9 1145.5c0-1.7.3-3.2.6-4.8.3-1.3.8-2.5 1.4-3.7l.5-.8.4-.7c.5-.8 2.1-2.6 3-1.4l.3.4.4 1.1c.1.5.1 1.1.1 1.6 0 3.2-1 6.5-2.5 9.2-.6 1-1.3 2.1-2.5 2.5-1.7 0-1.7-2.2-1.7-3.4zM1204 1085.5l8.6 2.3M1217.4 1072.9l-8.6-2.4M1222.5 1066.4l-2.4 3-.4.5c-1.1 1.5-2.6 3-3.5 4.6-2.4 4.1-3.5 8.7-3.7 13.4M1204 1085.5c.2-4.6 1.3-9.3 3.7-13.3 1-1.7 2.3-3.2 3.5-4.6l9-11.1 2.4-3M976.7 529.4l-293.6 363.5M977.1 537.6l-285 352.9M1276.3 239.4l-536.3 664.1M1284.4 328l2.1-2.6M800.5 903.1l-2.5-2M792.3 895.4l.3-.9M809.2 866.1l.6 8.5M807.2 876.2l-2-5.1M816.3 864.6l-3.2-3.4M819.5 853.5l.4-.6M819.2 858.6l1.8 2.2M818.7 859.3l1.7 2.1M813.1 861.2h.1M801.1 883.7l-2-5.1M792.7 903.5v9.2M792.3 913.3v-4.6M793.8 909.1l-.3.9M1075.4 586.8l-273.1 338.1M1075.4 589.2l-271.5 336.2M1273.5 341.4l-194.5 240.8M1274.6 342.7l-195.6 242.2M718.7 1021.9l-8.5-2.3M710.2 958.9v60.7M1228.4 226.5l-165.3 204.6M1238.1 271.1l-27.4-7.3M1226.7 251.8v16.3M658.8 1009.6l-8.5-2.2M650.3 938.9v68.5M792.7 912.7l-.4-.1M789.9 911.8l-.5-.2M805 873.3l.4.1M818.4 864.1l-.4-.2M819.2 858.6l-.6-.1M818.6 854.4l.6.2M821 860.8l-.6.6M811.6 868.4l.6.1M809.4 875.1l-.5-6.1M813.1 870l.3.1M813.1 870.6v-9.2M819.5 853.5l-.4.4M821 860.8l-1.4-.4M818.4 858.8l-.4-.2M818 855.6l.4.1M818.7 859.3l-.7-.2M818 859.7h.4M818.4 859.2l-.4-.6M820.3 853.9l.7.1M809.4 875.1l.4-.5M809.4 874.4l.4.2M808.9 869l-.3-.1M804.9 880.7l-.4-.1M802.5 876.5h.4M807.1 877.9l-1.7-4.5M802.9 876.5l.4 6.1M791.7 908.6l.6.1M789.3 898.8l1 .3M794.9 910.2l-1.4-.4M792.4 894.8l1.1.3M793.8 904.1l.7.2M795.2 904.4h-.3M794.6 901l.8.2M794.9 901.5l-.5-.2M795.8 901.5l.4-1M795.2 900.2l1 .3M797.3 901l.7.1M797.3 900.8l.3.1M797.6 897.3v3.6M797.6 906.5l-.3-.1M796.2 906l-.5-.1M800.3 894.1l-2.3 7M800.5 903.1l-.6.7M798.9 888.1h-.4M799.3 880.9l-.3-.1M799.3 880.9l1.8 4.5M803.3 882l.5.1M795.9 893.2l-.4-.1M789.9 910.8v-3.8M789.9 910.8l-.5-.1M792.7 912.7l-.4.6M789.4 916.2l.5.1M1262 241.5l-23.9 29.6M1065 485.4l-1.9-.4M1065 485.4l-33.5 41.6M1276.8 280.3l-5.3-1.5M1262 241.5c3.2-3.2 8.2-3.6 12.5-2.6 1.7.4 3.3.9 4.9 1.8 1 .6 2 1.3 2.8 2.1 1.7 1.6 3 3.5 3.7 5.6l.5 3-2.4 2.9-528.5 654.5-2.4 2.9M683.1 892.9c.7-.8.7-1 1.7-1.6 3.4-2.2 7.3-.7 10.9.3l40.6 10.9 3.6 1 1.6.5c3.1 1.3 5.6 3.6 7.3 6.6M1283.1 332.2l2.3-3c1.6-2.1 1.1-5.3 1.1-7.7l.1-66.3v-3.8M789.4 916.8v-5.5c0-3.9-.8-2.7.5-4.3M793.8 904c0-1.1.3-2.2.9-3.2.3-.7 1-1.2 1.5-.4M793.8 909.1c.4.8.8.6 1.3-.1.5-.8.8-1.7.6-2.7M794.9 910.2s-.5.5-.8.5l-.6-.7M792.6 894.5c1.6 0 1.5-2.4 1.5-3.6v-3c0-3.3-.6-2.3.5-3.7M791.3 888.2v6.8M790 898.3c.8-.5.9-1.8.9-2.7v-3.8c0-3.3-.6-2.3.5-3.6M799.1 878.6v.1l-.3 3.8-.2 2.4-.2 3.8M797.6 900.9l1.1-3c1.1-3.3.3-2.2 1.6-3.8M794.6 891v-6.8M795.4 893.7l.6-3.7.8-5.8c.6-4-.2-2.7 1-4.3M801.1 883.7l.7-3.7.6-2.6.6-3.6.1-.2M804.5 881.2l.2-3.8.2-2.5.2-3.8h.1M807.2 876.2l.7-3.7.5-2.6.8-3.7v-.1M816.7 856.8l-.4.5v7.3M812.2 867.6c-2 2.6-1.8 1.4-1.8 3.3M818.4 858.8c1.1-1.2 2.6-3 2.1-4.9M818 864.6v-9.3l.8-1.2.3-.2M797.3 907.1v-5.5c0-4-.8-2.8.4-4.3M794.2 903.2c0 .6 0 1.1.7 1.2M795.2 904.4c.9.1 1 .8 1.1 1.6M792.7 903.5l-.4.5v3.8l-2.4 3M1072.3 559.4c-3 3.8-4.5 9-4.5 13.7v1.3c.1 1.3.8 3.9 2.7 2.8M1272.9 277c-3.1 3.8-4.3 8.8-4.5 13.6M1268.7 327.4c-.4 2.1-.5 4.4.1 6.5M1275.8 316.7c-.6-.5-.3-.3-1-.5-.5.1-1 .3-1.4.6M1234.7 241.9l.6-.9c.6-1.4.3-3.4.3-4.7v-4c0-.8 0-1.1-.3-1.8-1.2-2.6-4.4-3.5-6.9-4l-1.6-.3h-1.5c-1.2.1-1.7.1-2.8.5-2.5.9-3.9 3.4-5.5 5.3l-151.4 187.4-2.4 2.9M1210.7 263.8l2.4-3 19.2-23.7c1.4-1.7 2.5-2.8 3.2-4.8M793.8 904l.3 1.1c.6.5 1.5.2 1.7 1.1M794.1 904.2c.4.3.5.8.5 1.2M790 898.3l-.4.1h-.2M795.4 893.7c1.2-1.5.4-.3 1-4.3l.8-5.8.6-3.8M810.4 870.8c2-2.5 1.8-1.3 1.8-3.3M818 864.6l.4-.5v-4.4l.3-.4M816.6 866.2l-1.6-1.7-1.6-1.7-.3-.1M819.2 858.6c1-1.1 1.6-2.5 1.7-4.1 0-.6.2-1.4-.4-1.9l-.5.2M819.3 853.6l.9.2.2.1M813.4 862.8v7.3l-.3.5M807.1 877.9l.1-.1.7-3.7.3-1.4.7-3.7M818.4 858.8c0-3.5-.7-2.3 1.1-4.5l.8-.5M816.6 866.2l.1-.1v-9.3M803.3 882.6l.5-.5-.3-3.7-.1-1-.3-3.8M801.1 885.4l.1-.1.6-3.7.4-1.3.7-3.8M804.5 881.2l.4-.5.5-7.3M799.3 880.9l-.4 7.2-.5.6M794.6 891c0 1.2-.1 2.3-.6 3.3-.3.5-.6 1.2-1.2 1.3l-.4-.1M794.2 903.2c.1-.6.8-2.8 1.6-1.7M794.9 910.2c.9-1.3 1.3-2.6 1.4-4.2M797.3 902l.3.1 2.3 1.7M800.5 903.1c-2.4-.6-1.3 0-3.2-1.6M791.3 895c0 1.1-.1 2.2-.6 3.3-.3.5-.6 1.1-1.2 1.2l-.4-.1M797.3 907.1c.9-1.1.4-.4.4-2.8v-2.2M789.4 916.8l.5-.5v-4.5l2.4-3.1M1234.7 234.2v7.7l-2.4 2.9-14.1 17.5-2.4 2.9M1216.9 263.9v.2l-.1 1.3M1268.4 290.6v1.3c.1 1.2.6 3.7 2.4 3l.6-.4.7-.6.7-.9c2.2-3.2 3.4-7.5 3.7-11.4l.1-1.4c0-1.6-.1-4-1.9-4.4-.8.2-1.2.5-1.9 1.1M1070.3 573.3l-2.5-.7M1078.2 579.1l-5.3-1.3M1068.4 576.5l2.1.6M1077.8 560.5v-.1M1077.8 560.5v1.9M1077.6 574.6l-1.2.3-3.8-1M1077.6 559.5l2.6.7c1.1.3 3 .3 3.6 1.6 2.1 3.8.8 8.8-.9 12.5-.7 1.5-1.8 4-3.8 4.1-1.4-.4-1.5-2.4-1.5-3.8 0-3.5 1.1-7.3 2.9-10.3l.5-.8c.5-.7 1.6-2.1 2.7-1.4l.5.7M1076.2 562.6c.8.1 1.5 0 2.1-.4.6-.4.8-1 .1-1.4l-.6-.3M1080.1 578.3c-.8.5-1.1.8-1.9.8-1.7-.5-1.7-2.7-1.7-4.2v-1.1c.2-3.5 1.3-7.3 3.2-10.4.6-1.1 1.6-2.5 3.1-2.6M1075.4 560.8c-.8.7.2 1.5.8 1.7M1076.2 562.5v-20.8M1075.4 544.8l-6.8-1.5M1075.4 558.5v3.5M1076.1 580.4h.1M1076.2 580.3v-1.7M1074.7 581.5l-.4-.2M1075.4 578.4v2.6M1076.1 580.4l-.5.6M1075.7 580.8M1075.7 580.8l-.6.5M1073.8 580.8l.4.5M1074.4 581.4l-.3-.3M1075.3 581.1l-.5.3M1074.6 581.4l.5-.1M1074.5 581.4h.2M1076.2 583.2v6.4M1082.5 548.8v12M1077.6 545.3l2.8.7 2.9.7c1.1.2 1.4 1.2 1.3 2.2v9.3c0 2.1.1 3.4-.1 5.2M1075.4 558.4v-17.400000000000002c.3-.8 1.8-.7 2.2-.1v21.6M1080.1 578.1c-1 1.9-2.3 4.3-4.6 4.6-2.3-.5-2.6-3.6-2.8-5.5l-.1-1.3c-.4-6.2.7-12.7 3.1-18.4M1079.1 559.9v-1.2c0-1.6.1-4-1.5-4.9M1077.6 547.7l5.3 1.1h.3c1.1 0 1.1-1.6.4-2.2M1077.6 555c.6-.4 1 .5 1.1 1 .4 1.2.3 2.6.3 3.9M1070.4 576.4c-.3-5.2.3-10.6 1.8-15.7.6-2.2 1.4-4.9 3.2-6.5M1067.7 545.3l.4.1 3.7.9 3.6.8M1075.4 541.1c.2.9 2.1.9 2.2 0M1082.5 548.8c.4.8 1.7.7 2.1.1M1082.7 548.8l.2.4M1084.1 562.3c1.7-.3.7-3.8.7-4.3v-9.3M1068.4 543.3c1.3 0 1.2 2 0 2.2h-.3M1080.3 578.1c-1.1 2.3-2.9 5.6-5.8 5.6-3.3-.5-3.7-4.6-4-7.3M1079.1 580.2c0 3.4-.2 6.8-.7 10.1-.1 1.2-.3 2.8-1.7 2.9-1.6-.3-1.3-2.9-1.3-4.1v-5.4M1079.1 580.7l-.9.7M1077.6 586c.1-1.4.2-2.7.2-4.1M1073.8 580.9c-.5-1-.7-1.9-1-3M1077.8 591.4c-.4-3.1-.1-6.3-.1-9.4M1076.4 589.6c0 1-.3 2.6.3 3.5M1077.6 589c-.1.5-.7.6-1.2.6s-.9-.1-1-.6M1077.8 591.4v.3M1010.3 551.6c-1.3.4-.6.3-1.9.5l-1-.1-3.6-.9-18.3-4.9c-1.3-.3-3.9-.8-5.3-1.8-1.2-1-1.9-2.5-2.4-4-.9-2.9-1.2-5.9-1.2-8.8 0-9.8 2.4-19.7 6-28.7 1.1-2.7 2.4-5.2 3.6-7.8l20.7-42c2.2-4.4 4.1-8.7 5.3-13.5.6-2.9 1.1-5.7 1.2-8.7l.1-1.6v-29.6c0-3.5 0-6.9.4-10.4.8-5.8 2.1-11.5 4.1-17 1.9-5.3 4.3-10.7 8-15 1.5-1.6 3.7-3.8 6.1-3.7l.9.2 3.6.9 18.4 4.9 3.7 1 .8.3c1.2.8 2 2.2 2.5 3.6 1.4 3.9 1.1 8.3 1.1 12.4v110.8M1058.6 360.7l-.8-.2c-3.8.3-6.3 3.7-8.2 6.6-4.8 7.1-7.6 15.7-9.2 24.1-1 5.2-1.2 10.1-1.2 15.3v31.2c-.1 2.9-.6 5.8-1.3 8.7-1.2 4.8-3.1 9.1-5.3 13.6l-20.6 42c-1.7 3.3-3.2 6.6-4.6 10.1-2.1 5.5-3.5 11.3-4.4 17.2-.6 4.3-1 8.8-.6 13.1.4 3.6 1.2 8.3 5 9.6"/>
    <path class="st1"
        d="M1009.5 535.8c-1.4-3.5-.9-7.5-.3-11.1.5-2.7 1.1-5.2 2.1-7.7.5-1.4 1.1-2.8 1.8-4.1l.6-1.1.7-1 .7-.9c1-1.3 3.1-3.4 4.8-1.9l.8 1.1c.3.5.5 1.1.6 1.8.3 1.1.3 2.4.3 3.5 0 6-1.6 12.4-4.5 17.7-1.2 2.2-2.8 4.9-5.4 5.5-1-.2-1.5-.8-2.2-1.8zM1047.2 395.6c.1.5.2.8.5 1.1l.3.4c1.2 1.2 2.8-.5 3.4-1.5l.5-.7c2.2-3.5 3.4-8.1 3.4-12.2 0-1.5-.1-4.4-2.1-4.4-1.9.5-3 2.6-3.8 4.3-1.8 3.9-3 8.7-2.2 13zM1046.9 452.3v.9c.1 1.2.6 4.2 2.5 3.4l.4-.3 1-.9c.3-.4.7-.9 1-1.4 2.1-3.3 3.2-7.3 3.4-11.2v-1c0-1.5-.1-4.3-2.1-4.4-1.6.4-2.6 2-3.3 3.4-1.8 3.5-2.7 7.6-2.9 11.5zM1260.2 1116.7l-.4-.1M1258.8 1116.2l.4.1M1260.8 1114.4l-1.2-.4M1259.1 1114.8l1.1.3M1254.8 1109.8l1.4.4M1261.8 1113.5l-.2-.1M1257.5 1114.2l-1.3-.3M1260 1115.5l-1.1-.3M1256.8 1115.5l1.4.3M1257 1117.3l1.4.4M1263.9 1099.2c-.1-.8-.3-2.3-1.3-2.7l-1.4-.3-.4-.1c-1.6.3-2.5 1.8-3.2 3.1-1.2 2.2-2 4.6-2.4 7.1-.4 1.7-.5 3.5-.3 5.3.1.6.3 1.2.6 1.8.3.4.9.5 1.1 1 .4.8.3 2.2.4 3l.1.5h.1c1.4.5 1.2.7 2.1-.1l.5-.6.1-1.6M1258.6 1118.2l-.3-.5c-.1-.8 0-2.1-.3-3l-.8-.8c-.4-.3-.6-.8-.8-1.4-.4-1.6-.3-3.2-.1-4.8.4-2.4 1.1-5 2.2-7.3l.5-1c.7-1.3 1.9-3.4 3.6-3M1257.5 1112.4c-.5-1.1-.5-2.4-.5-3.6.2-2.1.7-4.3 1.6-6.3.5-1.1 1.3-2.8 2.4-3.3M1259 1116.4l-.2-.8c.1-.8.4-1.2.9-1.9M1260 1115.5l-1 1M1260.2 1116.7v-1.6c.1-.4.8-.9 1-1.5M1260.2 1116.7c.8-1.1 1.5-2.1 1.6-3.4M1255.2 1096.9l3.3.9M1250.8 1108.4l4 1.1M1251.4 1111.5l3.8 1.1M1261.4 1110.1l-2.5.5-1.6-.5M1265.9 1102.2c-.3-.6-.9-2.6-1.9-2.9l-1.7-.4c-1.7 0-2.7 2.2-3.3 3.6-1.1 2.3-1.7 5-1.7 7.6 0 1 0 2.6.8 3.3l.4.1 1.7.4c.8.2 2.8-1.5 2.8-1.5.7-.5 1.2-1.3 1.6-2 .9-1.7 1.4-3.6 1.6-5.4 0-1.1.3-3.3-1.2-3.4-1 .4-1.6 1.3-1.9 2.2-.9 1.6-1.4 3.5-1.6 5.4 0 1-.2 3.8 1.6 3.2M1260.2 1113.9c-1.5-.6-1.4-3-1.2-4.3.2-2.8 1.1-6 2.6-8.4.6-.8 1.4-1.7 2.4-1.8M1249.7 1054.1l-8.4-2.3M1252.6 1041.2l-8.9-2.5M1253.6 1039.5l-8.4-2.3M1284.5 1061.3l8.4 2.2M1277.9 1065.8l.6.6M1284.2 1064.6v1.2M1280.2 1069.1l-.9-1.5M1284.2 1065v1M1282.1 1043.7l-2.8-.3M1287.3 1042.1l1.3-1M1253 1058.9l-1.7-.5M1251.9 1058.5c-1.9-.3-2.1-2.5-2.2-4.1M1226.7 1032.2l-20.4-5.4c-1.4 0-2.3 1.6-2.8 2.7-1.4 2.5-2.2 5.5-2.2 8.4 0 1.1 0 2.3.6 3.2l.7.4 3.6 1 12.9 3.4 3.7 1"/>
    <path class="st1"
        d="M1210 1042.7c.5 0 1.5-.4 1.5-.4.5-.3.5-1 .4-1.5-.3-1.3-1.2-2.7-2.6-2.7-1.5.1-2.2 1.6-1.5 2.9.3.9 1.2 1.4 2.2 1.7zM1207.4 1040c.5 1.8 3.1 1.7 4.4 1.2M1205.9 1026.8l-3.6.4-.3.1c-.8.3-1.5 1.4-1.9 2.2-.9 1.7-1.4 3.7-1.6 5.7-.1 1-.2 2.2.2 3.2.3.8 1.4 1.4 2 1.8l1.5 1.1M1226 1034c-7.2-2-14.5-3.8-21.6-5.8l-3.4.1M1288.4 1051l-.6-1.1M1287.4 1050.8l3.7 1 1.2.3 3.7.9.2.2c.9.8 1.1 2.2 1.1 3.3l-.1 1.4c-.4 2.2-1.4 5.1-3.8 5.7-1.1-.2-1.2-1.6-1.2-2.5.1-2.2.7-4.6 1.9-6.6.4-.7 1-1.6 1.9-1.5M1294.7 1062.7l-.5.3c-.8-.3-.8-1.2-.9-1.9-.1-1.9.5-4.1 1.5-5.7.5-.7 1.4-1.9 2.1-.8M1295.1 1054.9l-.8-.9-7.3-2M1284.4 1062.4c.5-.3 1.2-.8 1.2-.8M1262.8 1039.3l-1.6-1c-.8-.5-1.5-1.1-2.4-1.4-2 .3-3.2 2.4-4.1 3.9-1.9 3.6-3.1 7.6-3.3 11.7-.1 1.7-.2 4 .8 5.5.8 1.2 2 .7 3.3.7 1.7-.1 2.1 0 3.8.2M1269.6 1041.7l-1.8-.4c-1.6.1-2.7 2-3.5 3.3-1.7 3.1-2.6 6.7-2.7 10.3-.1 1.4-.1 3.4.9 4.4l.4.3 1.7.6 1.6.5 2.8.8c2.7.9 5.2 2.1 7.6 3.3M1288.1 1041.6c1.1-1 2.2-2.2 3.8-2.7l1.3-.2c.6 0 1 0 1.6.2 2.6.8 3.3 4.1 3.7 6.4v.3l.1 1.2v1.4c0 3.7-.6 7.4-1.5 10.9-1 3.5-2.3 7.1-4.1 10.3-1.7 2.8-4.1 6-7.6 6-4.1-.6-4.8-5.9-4.8-9.2 0-5.2 1.2-10.5 3-15.4 1.4-3.7 3.1-7.3 5.9-10.1M1297.7 1047.3c-.2-2.1-.5-5-3-5.5-1.9.1-3.1 1.6-4.2 3M1285.1 1043.2c-2.7 1.1-4.1 4.1-5.2 6.6-1.3 3.1-2.1 6.4-2.4 9.8-.1 1.8-.3 3.8.3 5.5.3 1 .9 1.7 1.5 2.5M1284.2 1067.6c.1 1.1.3 1.9.5 2.8.2.6.4 1.1.8 1.6 1.2 1.6 3 .8 4.2-.3 2.7-2.5 4.2-6.2 5.5-9.5M1297.8 1049.4l-1 .4c-.7 0-1.2-.6-.8-1.3.3-.5.8-.8 1.3-1.1h1l-.2 1.6-.3.4-.1 1.5s-.4 3-.5 4.5M1284.2 1064.7c.4-6 1.9-12.2 4.7-17.4M1288.7 1047.8l.1-.2.6-1.1M1254.2 1038.6l1.7.5 1.8 1 3.8 1.7c2.3.9 4.7 1.4 7.1 2 2.7.6 5.4 1.2 8.1 1.6 1.9.3 3.9.6 5.7 0 1.6-.5 2.9-1.1 4.2-2.1.5-.4 1.1-1.2 1.9-1.2 1.3-.1 3 1.4 2.2 2.7l-1.4 2.1M1284 1043.5c-1 .2-2.1 0-2.9.5-1.4.8-2.2 2.2-2.9 3.5-1.6 3.1-2.6 6.6-3.1 10.1l-.1 1.2c-.1 1.9-.3 4.9 1.6 6.1M1276.4 1064.7c1.1.8.7.5 1.5 1.1M1284.8 1062.2c2.1 1.9 4.1 3.9 5.7 6.4.5.8 1.5 1.7 1 2.8M1284.2 1065.8c.1 1.3.1 2.4.3 3.8M1280 1068.5c.8 1.9.5 1.1 1.1 2.7M1269.4 1041.7c3.3.5 6.5 1.4 9.9 1.8M1284.5 1043.4c2.2-1 1.2-.5 2.9-1.5M1284.9 1043.3l-1.2.3M1266.1 1060.7c-1.5-1-1.5-3.3-1.4-4.9.1-3.6 1.1-7.3 2.8-10.4.8-1.4 1.9-3.3 3.6-3.5M1262.5 1039.2c1.9.9 3.7 1.6 5.7 2.2M1249.7 1054.4c-.1-4.4.8-8.8 2.8-12.9.7-1.5 1.6-3.2 3-4.3.4-.4 1-.8 1.6-.8l.5.1 1.7.5M1259.1 1059l3.9.7M1284.8 1077.2l-.9.2M1259 1070.9l-1.7-.5M1264.4 1094l1.7.6M1280.7 1104.1l-.6-1.3M1277.8 1099.5l.8.9M1276.4 1098.7l-2.5-1.3M1284.2 1098.5v1M1284.2 1098.8v1.5M1257.7 1070.7l-.5-.2c-2.3 0-3.7 2.8-4.6 4.6M1285.6 1095.5l-1.2.8M1284.7 1094.2l7.5 2.1 1.3-.5M1287.4 1084.6l3.7 1 1.1.3 3.7 1 .3.1.4.6c.5 1.1.8 1.9.7 3.1-.2 2.6-1.2 5.9-3.9 6.8h-.3l-3.7-1.1-1.1-.3-3.7-1M1295.8 1086.9h-.3c-.8.3-1.2 1-1.6 1.7-1.1 1.7-1.6 3.8-1.7 5.9-.1.9-.1 2.4.9 3M1294.6 1096.7l-.5.1c-.7-.3-.8-1.3-.8-2 0-1.8.5-3.7 1.4-5.2.3-.5 1.1-2.1 1.9-1.6l.3.5M1287.8 1083.6c.3.5.5.8.6 1.3M1257.5 1092.7h-1.9l-1.8.1h-.5c-2.1-.8-2.1-3.8-1.9-5.7.1-4 1.2-8.1 3-11.8.8-1.5 1.9-3.5 3.5-4.3 1.3-.7 2.2.4 3.2 1.1 1.5.8 1.9 1 3.3 1.7M1264.7 1094.1l-1.9-.6-.4-.3c-.8-.8-.9-2.3-.9-3.5-.1-3.5.8-7.1 2.2-10.3.7-1.5 1.6-3.3 3.1-4.1.9-.6 1.7-.1 2.7.1l1.6.3 5.7 1.2c2.5.4 3 .4 5.5.6M1290.7 1106.2c-1.5 1.6-3 2.9-5.3 3l-1.2-.3c-3.3-1.5-3.7-5.8-3.7-8.8v-1.6c.3-4.6 1.4-9.3 2.9-13.8 1.1-3 2.4-5.9 4.3-8.4.7-.9 1.4-1.7 2.3-2.4.5-.4 1.1-.8 1.7-1 .6-.3 1-.3 1.6-.3 3.4-.2 4.6 3.7 5.1 6.3v.3l.1 1.2v2.7c-.1 3.1-.6 6.4-1.5 9.5-1.1 4.4-2.8 8.7-5.5 12.5M1284.3 1101.9c.1.9.2 1.6.5 2.4.2.5.4 1.1.8 1.5l.4.6c1.9 1.5 4.1-.7 5.2-2.1l.7-1.1.7-1.1M1293.6 1100.1c.6-1.4 1.1-2.7 1.6-4.1M1297.1 1089.3c.6-3.3 1-6.8.3-10.1-.4-1.6-1-3-2.6-3.5-2.1.1-3.3 1.9-4.6 3.3M1288.6 1081.8c-2.6 5.4-4.1 11.2-4.4 17.2M1249.9 1089.9l1.7.5h2.1c1.4 0 2.7.1 4.1.3 2.4.4 4.8 1.1 7.1 1.9 2.7.8 5.2 1.6 7.8 2.7 1.8.8 3.7 1.5 4.9 3 1.1 1.4 1.9 2.7 2.6 4.3 0 0 .5 1.5.8 1.9.9 1 3 .6 3.3-.6.2-.6 0-1.2-.1-1.7 0-1.1 0-1.4-.1-2.4M1280.1 1102.8c-.8-1.5-2.1-2.7-2.4-4.5-.4-1.9-.3-4 0-5.9.4-3.4 1.4-6.7 2.8-9.8.8-1.6 1.7-3.3 3.1-4.6.8-.7 1.7-1.1 2.6-1.5M1288 1083.3c2.8-.7 5.5-1.7 8-3.1.8-.5 2.5-1.2 2.2-2.5M1288.6 1081.8c.8-1.4 1.7-2.8 2.8-4.1M1278 1099.8c-.8-.6-1.8-1-2.3-1.9-1.1-2-.8-4.8-.5-6.9.5-3.4 1.5-6.9 3.3-9.9.7-1.1 1.6-2.6 2.9-3.2.8-.4 1.7-.2 2.6-.4M1288.4 1075.2c-1.3.9-.5.4-2.4 1.5M1266.5 1094.7c-1.9-.5-1.9-3.4-1.7-4.9.1-3.6 1.1-7.3 2.8-10.5.8-1.4 1.9-3.3 3.6-3.5M1268.2 1075.3l-2.1-.7-1.9-.7M1252.6 1075c-1.6 3.6-2.8 7.6-3 11.7 0 1.6-.1 3.9 1 5.2.6.6 1.9.8 2.7 1M1263.2 1093.6c-2-.4-3.9-.8-6-.9M1266.2 1094.7c2.7.8 5.2 1.6 7.7 2.7"/>
    <path class="st1"
        d="M1291.7 1099.7c.5-.7 1.4-.5 1.8.2.3.6.2 1.2 0 1.8l-.7.6c-.9-.4-1.4-1.7-1.1-2.6zM1222.5 1051l13.6 3.6M1236.1 1074.2v-15.8c0-2.9 0-5.8.4-8.7.6-4.3 1.6-8.4 3.2-12.3 1.4-3.4 3.1-7.3 6-9.7.5-.4.9-.7 1.5-1l.7-.2c2-.5 3.1 1.5 3.6 3.2l.5 2.3c.3 2.3.1 4.7.1 7M1243.1 1052.3l-.9.2c-1.4-.4-1.4-2.3-1.4-3.5 0-3.3 1-6.9 2.7-9.7l.4-.7c.5-.7 1.6-2 2.5-1.4l.6.6M1222.5 1070.6v-15.899999999999999c0-2.4-.1-4.6.1-7 .6-5.9 2.2-11.9 4.8-17.2 1-2.1 2.2-4.2 3.8-5.9.8-.8 1.8-1.6 3-1.9 1.4-.3 4.4.9 5 1.1l6.4 1.7 3.6 1M151.3 744.7l-5.9-1.7M132.3 755.3l-2.1-.5M120.4 728.5l1.1 1.6M115.2 753.3l-1.9.8M112.6 754.6l-1.3.9M146.5 757.1c-.9 1.2-1.8 2.7-3.5 2.9-1.8-.3-1.9-2.4-2.1-4M148.2 757.5l-2.2-.5s-2.3-.4-2.9-1.1c-.8-1-.8-2.7-.6-3.9.2-2.6.9-5.2 2.1-7.6.5-.9 1.1-2.1 2.2-2.6.9-.4 2.2.3 3 .5l2.3.6M170.7 747.9l3.6 1.1 19.6 5.2 3.6 1.1.3.1 3.1 2.2.5 1.1c.3 1.1.2 2.4-.1 3.5-.3 1.9-.9 3.8-1.9 5.4-.3.6-.8 1.3-1.4 1.6-1.3.5-3 .4-4.4.5l-26.9-7.3M169.1 749.5l3.8.9 18.9 5.1 3.6 1 3.5 2M197.4 755.2c-1.4 0-2.3 1.6-2.9 2.7-1.4 2.6-2.1 5.6-2.2 8.4 0 1.2.1 3 1.3 3.5M197.7 769.4c-1.4-.1-1.4-2.2-1.3-3.2.1-2.4.8-5 2.1-7.1.5-.8 1.4-2 2.4-1.6"/>
    <path class="st1"
        d="M186.2 764.7c-.3-1.3-1.1-2.6-2.5-2.7l-1.2.4-.5.8c-.6 1.4.7 3 2 3.3.7.1 1.9.1 2.2-.7-.1 0-.1 0 0-1.1zM181.8 763.9c.5 1.8 3 1.7 4.4 1.2M138.6 737.2l-1.8-.4c-1.7.1-2.8 2-3.5 3.4-1.7 3.1-2.7 6.8-2.8 10.2-.1 1.3 0 2.9.6 4.1.5 1 1.6.9 2.7 1.4 1.6.5 1.9.7 3.4 1.4M140.9 756c-.1-4.8 1-9.8 3.3-14l.6-1 .6-.9c.8-1 2.4-2.9 3.8-1.6l.4.4c.3.4.4.8.5 1.4.3.8.3 1.1.3 1.9M140.5 737.6c1.7.1 2.1.2 3.9.2l2.1-.2.4.1 1.7.5M142.6 759.9c-.5-.1-1.6-.3-2.2-.8-1.3-1.1-1.3-3.3-1.3-4.8 0-4.1 1.1-8.2 2.8-11.7.9-1.9 2.2-4.7 4.6-5.1M140.7 737.6l-3.4-.7M120.7 753s-2.9.2-3.7-.5c-.5-.4-.8-1.1-.9-1.8-.3-1.3-.3-2.7-.3-4.1.3-3.8 1.4-7.9 3.2-11.3.7-1.2 1.6-2.7 2.9-3.5 1.4-.8 2.6.3 3.9.9 3.6 1.6 7.5 2.8 11.4 4.1M145.4 740.1l-1.7-.4h-1.8c-1.9-.1-3.8-.3-5.6-.7s-3.5-1-5.3-1.5c-4-1.2-8.2-2.3-11.9-4.4-2.5-1.4-4.6-3.6-6.4-5.8-.9-1.1-1.6-2.6-3.2-2.6-.8.2-1.1.8-1.6 1.6-1.1 1.6-1.9 3.3-2.7 5.1-1.7 4.1-2.9 8.4-3.5 12.8-.3 2.3-.4 4.9-.1 7.2.3 2.3 1.1 5.6 3.6 6.4.6.2 1 .3 1.6.3.5 0 .9-.1 1.4-.3 1.2-.4 2.2-1.4 3.2-2.2M122.1 730.8c-.6-.8-1-1.3-2-1.4-2.1.3-3.3 2.4-4.3 4.2-2.2 4-3.6 8.9-3.7 13.6v2.3c.1 1.2.5 3.4 1.9 3.8.6.3 1.4-.1 1.9-.3M120.4 753c2.5.3 3.1.4 5.6.8l3 .8 1.6.2M140.4 759.1l-3.2-1.9M134 735.8l-.5-.1c-1.8.1-2.8 2-3.6 3.4-1.7 3.2-2.7 6.9-2.8 10.5-.1 1.5-.1 4.4 1.8 5M121.8 730.5c1.2 1 .6.5 1.9 1.4M108.8 725c1.4-1.9 3.8-4.3 6.4-3.7.6.1.9.3 1.5.6l1 .8c.9 1 1.3 2.4 1.7 3.7M110 756.7c-.7.5-1.3.7-2.1.8-3-.3-3.4-4.2-3.6-6.6v-1.5c0-3.4.5-6.8 1.4-10.1 1-3.8 2.4-7.7 4.3-11.3l.8-1.2.8-1.1.8-1.1c1.3-1.4 3.6-3.3 5.4-1.5.5.5.6.8.9 1.4M119.1 725.9c.9 2.1.4 1.1 1.6 3M117.9 752.9c-1.3 0-.6-.1-2.1.1M112.2 754.9c2-1.1 1.1-.6 2.7-1.5M135.3 770.2l1.9.6M113.5 787.9l1.8-.8M131.3 788.5c-.8-1.1-.8-2.9-.8-4.3.1-3.5 1.1-7.1 2.8-10.3.6-1.1 1.4-2.4 2.5-3.1 1-.5 2 0 3.1.3 1.6.3 2 .3 3.5.4M131.2 788.9c-1-.3-2.4 0-3.1-.8-.8-.9-.9-2.4-1-3.5-.1-3.2.7-6.5 1.9-9.5.6-1.5 1.4-3.1 2.6-4.4.4-.5.9-.9 1.6-1.1.7-.3 1.7.3 2.2.5M133.8 769.7c-2.7-.9-5.4-1.8-8-2.9M119.6 761c.8 1.2 1.5 2.4 2.5 3.5M128.9 788.5c-2.8-.7-5.6-1.2-8.4-1.6-1.5-.1-3.1.4-3.9-1.1-.7-1.4-.8-3.1-.7-4.5.1-3.9 1.2-7.9 2.9-11.4.6-1.2 1.4-2.4 2.3-3.4.5-.5 1-.9 1.7-1 1-.2 3.4 1.4 3.4 1.4M121.5 764c-.5-.5-.8-.6-1.4-.6-2.1.5-3.3 2.6-4.3 4.4-2.2 4.1-3.5 8.9-3.6 13.6v1.2l.1 1.1c.1 1.2.5 3.3 2 3.7.6.1 1.4-.3 1.9-.4M111.5 789.3c-1.2 1-2 1.8-3.5 2.1-3-.3-3.5-4.1-3.6-6.5v-3c.2-4.1 1.1-8.2 2.3-12.1 1-3.1 2.3-6.3 4.1-9.1l.8-1.1.8-1c1.3-1.4 3.6-3.5 5.4-1.7l.5.6c.5.8.8 1.8 1.2 2.7M110.5 790.1c-1.2 1.1-2.4 1.6-4.1 1.6-.7-.1-1.2-.2-1.8-.5-1.1-.6-1.8-1.7-2.2-2.7-.7-1.9-.9-3.8-1-5.8-.1-4.7.9-9.5 2.4-14.1 1.1-3.3 2.5-6.5 4.5-9.3 1.8-2.4 4.8-5.3 8-3.5l1.1.8c.4.5.8 1.1 1.1 1.7M121.9 764.4c1.1.9.5.5 1.8 1.3M101.9 786.6c.8 2.1 3.4.4 4.6-.2l1.9-.7c1.6-.7 3.4-1.2 5.2-1.4 1.7-.2 3.5 0 5.3.3 1.9.3 3.8.5 5.6 1 2.4.5 4.9 1 7.2 1.7M118.2 786.7c-1.8 0-.9 0-2.5.3M113.9 787.8c-1.8 1-.9.4-2.7 1.7M147.9 761.7l13.7 3.7M147.9 781.3v-15.899999999999999c0-3-.1-5.8.3-8.7.5-4.2 1.6-8.3 3.1-12.3 1-2.4 2.2-4.8 3.7-7 1.1-1.6 3-4.1 5.2-3.9l.7.1 3.6 1 6.5 1.7c1.2.3 3.6.5 4.7 1.7.8.9 1.2 2.3 1.4 3.5.5 2.7.3 5.5.3 8.2M168.5 763l-.8.2c-1.4-.4-1.4-2.3-1.4-3.5 0-3.3.9-6.9 2.7-9.8l.4-.7c.5-.7 1.6-2 2.6-1.4l.5.6M174.6 737.2h-.6c-3.2.3-5.4 3.8-6.7 6.4-3.1 5.7-4.9 12.2-5.6 18.6-.2 2.3-.1 4.6-.1 7v15.899999999999999M1274.4 336.1l-3.2-.8M1271 331.6l3.4.9M1277.7 332.8l-1.1.2M1279.3 317.9l3.4 1 .8.4.8 1.5c1 2.1.5 4.9 0 7.2l-.6 2.2c-.5 1.6-1.1 3.2-2.1 4.6-.6.8-1.3 1.5-2.4 1.7-1.4-.4-1.5-2.4-1.5-3.7 0-3.5 1-7.4 2.8-10.3l.4-.8c.5-.7 1.7-2.1 2.7-1.6l.7.7M1276.8 329.8c.4-2.9 1.4-5.8 2.8-8.3.7-1.2 1.6-2.5 3.1-2.7M1278.8 319.2l-.3.9M1280.2 336.2c-.7.5-1.1.9-1.9 1l-1.5-.4M1278.3 337.2c-1-.3-1.3-1-1.6-1.9M1275.8 318.6c-1.1.4-.8 1.6.2 2M1271.8 337.9l.3.7M1273.7 338.9l.2-.1M1273.4 339.1l.5-.3M1273.1 339.2l.4-.1M1272.9 339.2h.3M1272.8 339.2l.3.1M1272.6 339.1l.3.2M1272.4 338.9l.2.3M1274.2 338.6l.3-.4M1274.3 338.4l-.5.5M1272.1 338.5l.3.4M1272 338.4h.3M1276.6 318.6v-6.7M1281.1 314.7l-.4.2M1281.1 314.7M1281.1 314.8v-.1M1281.2 314.7l-.2.1M1275.9 320.5l-.1-7.4M1276.4 307.7v-7.4M1284.8 295.9l-14.7 23.6M1278 309.5l.1 10.8M1278.3 337.2v3.8c.1 4.9.2 9.9-.4 14.8-.1 1.3-.1 3.6-1.8 3.8-1.6-.3-1.4-2.7-1.4-3.9v-3.8l-.1-12.5-.1-3.8v-.9M1274.7 355.5c0 .7 1.2.7 1.7.5l.5-.3-.1-3.8-.1-12.5c0-2.5-.2-5.2-.1-7.7.1-2.6.5-5.2.9-7.7.5-2.8 1.3-5.7 2.7-8.2l.8-1.2.4-.3c1.4-1 1.7 1.4 1.7 2.2.1.9.1 1.7.1 2.6M1279.1 318.2c-1.5 4.3-2.3 8.7-2.5 13.3-.1 2.6.1 5.2.1 7.8 0 5.7.2 11.4.1 17.1M1275.7 356.1c0 .8 0 1.6.1 2.4l.3 1M1276.9 353.1l.3-5.4M1271 320.8l.3-.4 1.9-3.2 10.7-17.2c1.5-2.3 3-2.7 1.5-3.7l-.4-.3-1-.4-2 3.2-10.7 17.2c-.8 1.2-2.7 3.4-2.7 5.3v3.8l.1 5.4v3.8c0 .7.1 1.5.3 2.2.5 2.2 1.6 5.4 4.5 4.9l1-.3M1271.9 338c-.5-1.3-.6-2.5-.8-3.9M1274.4 335c-.2-2.7 0-5.3.3-7.9.4-3.8 1.3-7.5 2.7-11M1283.1 319v-1.4c0-1.6 0-4.9-2.4-4.9-1.4 0-2.2 1.4-2.8 2.4M1271 320.8l-.1.6.1 3.8v5.3c0 1.8 1.1 4.2-1.1 4.4-.4 0-.9 0-1.1-.5M1270.9 321.4v4l.1 5.3v3.8l.2 1.3.2 1.1c.3 1.6 1.1 4.1 3.2 3.6M1274.4 334.6v1.1l.1.1c.5.6 1.9.5 2.2-.3M1278.4 347c-.1.5-.8.7-1.2.7h-.3M1281 318.4c0-1 0-2-.2-3.1M1280.1 315.9c.5-.7.3-.4.7-1M1278 305.3l-.1-2.9c0-1.6.7-3.3-1-3.5-2.2 0-1.2 2.7-1.2 4.5v1.7l.1 3.8M1269.3 319.2c.5-.1 1.6.8 1.6.8l.4.4M1268.7 321.3c0 1 1.7.8 2.2.3M1275.7 299.7c.2.8 2.1.8 2.2 0M1269.9 319.3c-.5.9-.7 1.6-.8 2.5M1276.9 355.4c0 .7 0 1.4.1 2v.5M1255.9 365.8c-.8 4-2.2 8.2-4.5 11.6-1 1.6-2.5 3.6-4.6 3.8-1-.2-1.6-.8-1.9-1.7M1233.7 393.2l3.7 1.1 1.9.4c1.7.5 3.5 1.4 5.4.9 1.4-.3 2.7-1.4 3.8-2.3 2-1.9 3.6-4.2 4.9-6.6 5.3-8.9 8.1-19.3 9.3-29.4M1238 387.9c.5 2.5 1.1 5.6 3.3 7.1.7.4.8.4 1.6.6"/>
    <defs>
        <path id="SVGID_1_" d="M100 1175.4z"/>
    </defs>
    <clipPath id="SVGID_2_">
        <use xlink:href="#SVGID_1_" overflow="visible"/>
    </clipPath>
    <path class="st3" d="M100 1175.4l14.9-14.9"/>
    <path class="st0" d="M100 1175.4z"/>
</svg>
