<svg xmlns="http://www.w3.org/2000/svg" xmlns:xlink="http://www.w3.org/1999/xlink"
    viewBox="0 0 1400 1400" enable-background="new 0 0 1400 1400">
    <style type="text/css">.st0{fill:none;} .st1{fill:none;stroke:#000000;stroke-linecap:round;stroke-width:2;} .st2{fill:none;stroke:#000000;} .st3{clip-path:url(#SVGID_2_);} .st4{fill:none;stroke:#FFFFFF;stroke-miterlimit:10;}</style>
    <path class="st0" d="M924.1 100h-448.2v1200h448.2v-1200z"/>
    <path class="st1"
        d="M793 121.7l-.5-.1M791.6 120.3v1.1M792.8 121.5v-.7M792.7 121.2v-1.2M792.9 121.5v-.6M792 120.3v1.1M791.1 119.9v1.1M790.7 119.9v1.2M790.6 120.5v1M790.5 121.7v-1.1M790.4 121.7v-1.1M794.8 123.3v-.6"/>
    <path class="st1"
        d="M793 120.3l-.3-.2c-.3.1-.5.2-.9.3l-.9-.5c-.5 0-.2.5-.5.7s-.8-.1-1.1.1l.1.2.6.4-.2.5h.7c.4 0 .5 0 .9.1l.6.2.4-.6.8-.2.2-.1-.1-.1-.7-.2.4-.6zM792.7 120.1c-.4-.1-.8-.2-1.2-.2h-.3M790.7 120c-.4.1-.7.3-1 .7M790.1 121.7c-.3-.2-.5-.5-.5-.8M791.9 122.1h-.3c-.4 0-.8-.1-1.2-.2M790.2 121.7l.3-.2.2-.5c.4-.1.6.3 1 .4.3 0 .6-.2 1-.2M792.3 122c.4-.1.8-.3 1.1-.7M793 120.2c.3.2.5.5.5.8M788.8 123.7c-.5-.3-1-.6-1.4-1.1-.5-.6-.5-1.7-.2-2.4.2-.4.6-.7 1-1 1.3-.8 3.2-1 4.7-.7l.6.1c1.2.3 2.9 1.3 2.5 2.7l-.2.4-.5.7c-1 .9-2.5 1.1-3.8 1.2-1.7-.1-4.2-.6-4.4-2.7M789.3 123.8l-.3-.1-.5-.2M796 121c0 .3 0 .7-.1 1-.3.8-1.1 1.3-1.8 1.7M794.8 123.3c-.4.2-.6.4-1 .5M691 147.9v27.3M701.3 174.1v-27.5M782 168.3v17.6M632.9 187.9l-14.9 10.2M618 201.3v-3.2M664.3 193.7l-22.3 15.4M777.2 194.5l-1.9-.5-72.2-19.4-1.8-.5-1-.2c-1-.2-2-.2-3-.2-2.1.1-4.2.5-6.1 1.6M691.7 147.5l-.7.4-1.6 1.1-24.5 16.9-1.5 1.1M700.3 146.4l1 .2 1.8.5 77 20.7 1.9.5.9.3M923.1 548.1v-366.3M923 549v-366.2M923.1 181.9v366.09999999999997c-.1.9-.5 2-.7 2.7l-28.6 93.7-.5 1.8M923.1 181.9c-.1 1-.4 1.8-.7 2.7l-28.6 93.6c-.8 2.5-.5 1.2-.5 3.8v364.2M891.7 642.5l1.5.4M477.2 545.3v-4.3M923.1 548.1c0 .7.1 1.3 0 1.9-.2 1.2-.6 2.3-.9 3.4l-28.6 93.7c-.6 2-1.2 3.9-2.4 5.6-2.7 3.6-7 5.8-11.3 6.8-1.6.3-3.2.5-4.9.5-1.8-.1-3.4-.1-5.2-.3l-10.8-1.2c-4.9-.5-9.7-1.1-14.5-1.7-11-1.3-21.9-2.7-32.8-4.4-9.6-1.4-19.1-2.8-28.7-4.5-13.5-2.3-27.1-4.8-40.5-7.5-27.7-5.6-55.2-12.1-82.4-19.5-22-6.1-43.8-12.8-65.4-20.2-12-4.2-24-8.6-35.8-13.1-9.6-3.6-19-7.5-28.4-11.5-11.8-5-23.7-10.2-35.3-15.7l-8-3.8c-1-.5-2.1-1-3-1.5-3.2-1.9-5.7-4.8-6.7-8.4-.5-1.9-.4-3.8-.4-5.7 0-1.4-.1-2.8.4-4.1M476.9 538.6c0 1.1-.1 1.4.3 2.4 1.2 3.8 4.9 5.8 8.3 7.4l11.1 5.2c6 2.9 12.1 5.6 18.3 8.3 10.1 4.4 20.2 8.7 30.4 12.7l12 4.7 1.8.7c10.6 4 21.2 7.8 31.8 11.6 10.3 3.5 20.5 6.9 30.8 10.1 6.8 2.2 13.5 4.2 20.3 6.1 11.3 3.2 22.6 6.5 33.9 9.3 17.4 4.4 34.7 8.7 52.2 12.3l13.9 2.9 1.9.4c11.3 2.2 22.6 4.3 33.9 6.3 7.3 1.3 14.6 2.5 21.9 3.5 11.5 1.8 23 3.4 34.5 4.9 11.7 1.5 23.3 2.7 35 4 1.4.2 2.7.3 4.1.4 3.8.1 7.6-.4 11.2-1.7 2.9-1 5.8-2.6 7.6-5.1.7-1 .7-1.3 1.2-2.4M892.9 648.9c.5-2 .3-4.1.3-6.1M923.1 548.7c0 1.1-.3 1.8-.7 3l-28.6 93.7c-.5 1.5-.9 2.9-1.8 4.2-1.3 1.8-3.1 3-5 4-2.4 1.2-4.9 1.9-7.5 2.4-1.4.2-2.8.3-4.2.4-2.1 0-4.1-.1-6.2-.4-6.2-.7-12.3-1.2-18.5-2-11.6-1.4-23.2-2.8-34.8-4.4-11.5-1.6-22.9-3.5-34.4-5.3-12-2-23.9-4.3-35.8-6.6-7.2-1.4-14.3-2.9-21.5-4.5-11.1-2.4-22-4.9-33-7.6-28.4-6.9-56.5-14.9-84.2-24-10.8-3.6-21.6-7.3-32.3-11.2l-1.8-.7-12.2-4.6c-6.4-2.4-12.8-4.9-19.1-7.5l-11.7-4.9-1.8-.7c-10-4.2-20-8.6-29.8-13.2l-1.8-.8-11-5.2c-3-1.5-6.3-3.1-7.8-6.3-.5-1-.5-1.2-.7-2.3M483.7 547.6v2.5c0 1.6-.2 3.5.8 4.9.3.5.4.5.9.9M871 651.9c0 2-.1 4 .1 6 0 .6 0 1.6.5 2M923.1 548.3c0 .7-.6 2.2-.7 2.5l-28.6 93.7-.6 1.8M922.7 551.6c.2-.9.3-1.7.3-2.6M617 195.7v2.8M771.2 220v1.4M771.2 220.9h.2M765.7 216v3.1M644.4 183.3v3.1M632.9 187.9v-3.2M735.1 127.2v1.3M787.5 141.2v1.4M781.3 168.1v-3.1M786.7 170.4v-1.3M786.8 170l.2-.1M702 146.8v-3.2M664.9 162.7v3.2M690.5 145.1v3.2M477.2 177.6v4.3M855.1 102.3l-.9-.4M855.1 102.2l-.9-.3M614.7 199.1l-.1-.2M617 198.5h.5M515.3 175.5l.9-.8M621.2 217l.9-.8M779.8 192.8l.2-.4M780 192.5l-.5.6M662.8 166.3l.4.5M662.6 165.6l.1.5M662.5 165.6l.2.5M735.1 127.2l1.5-1.3M737.2 248.3l.9-.8M749.1 134.3l1.1.7M758.9 134l.9-.8M773.8 142.7l-1.5-1.1M787.5 141.2l1.4-1.3M787.2 122.2l-1-.7M796 121.2l.8-.7M860.4 268.4l.8-.8M770.3 223l-.9-.6M660.9 150.4c0-.4.2-.7.6-.8.6-.2 1.3-.2 1.8.1.3.1.6.4.4.8l-.3.3M623.1 177.3c-.3-.1-.6-.2-.9-.2-.6 0-1.5.2-1.5 1M779.4 220.8c0-.4.2-.7.6-.8.7-.3 2.3-.2 2.3.8M793.1 185.2c0-.8-.7-.9-1.3-1-.5 0-1 .1-1.3.4M617.5 198.5h-.5M770.8 222.4c-.4-.7-.5-.8-1.1-1.4-1.6-1.5-3.8-1.9-5.8-2.5l-117.7-31.7-1.8-.5-1.2-.3c-1-.2-1.4-.1-2.5-.2-2.3 0-4.7.3-6.9 1.5-.8.4-1.9 1.2-2.5 1.6l-12.3 8.5-1.5 1M615.5 199.9c.4-.6.9-1 1.5-1.5M781.3 168.1c1.4.5 2.8 1 3.9 2 .4.3 1 1 1.2 1.4M663.4 167l1.5-1.1 24-16.5c1.2-.8 2.2-1.6 3.5-2.1 2.7-1.1 5.5-1.2 8.3-.7M663.5 167.1c.4-.5.9-.9 1.4-1.2M781.3 168.1l-1.9-.5-75.5-20.3-1.9-.5-1.2-.3"/>
    <path class="st1"
        d="M476.9 179.5c0 1-.1 1.4.3 2.4 1.2 3.8 4.9 5.8 8.3 7.4l11.1 5.2c9.8 4.7 19.8 9 29.8 13.3 5 2.2 10.2 4.2 15.3 6.4 6.3 2.6 12.7 5.1 19.1 7.5l12.2 4.5 1.8.7c10.7 3.9 21.5 7.6 32.3 11.2 16.5 5.4 33.2 10.4 49.9 15.1 10.8 3 21.6 5.7 32.4 8.4 5.8 1.5 11.6 2.8 17.4 4.2 7.1 1.7 14.2 3.3 21.3 4.7l13.9 2.9 1.9.4c11.3 2.2 22.6 4.2 33.9 6.3 7.3 1.3 14.6 2.5 21.9 3.6 18.3 2.7 36.5 5.3 54.9 7.3l14.6 1.6 4.1.4c3.8.1 7.6-.4 11.2-1.7 2-.7 3.9-1.6 5.5-2.9 1.1-.9 2.1-2 2.8-3.3l.5-1.2v-3.5l.6-1.9 28.6-93.7.5-1.9.1-.6c.2-1.9-.4-3.6-.9-5.4l-6.7-21.9c-.2-.8-.5-1.7-.8-2.4-.5-1.2-1.2-2.2-2.1-3l-.3-.3-1.5-1.2-53-43.7-1.5-1.2-.9-.7c-1.4-1-3.1-1.3-4.8-1.4l-.8.1-1.9.2-316 32.2-1.9.2c-1.1.2-2.1.5-3.1 1-.8.4-1.6 1-2.4 1.5l-39.7 27.3c-1.1.8-2.2 1.5-3.3 2.4-2.4 2.1-4.2 5-4.6 8.2-.2 1-.1 2.1-.1 3.2v.4c.1-.3.1-.3.1 1.7zM923.1 181.4c0 .1 0 .1-.1.7l-.5 1.8-28.6 93.7c-.5 1.5-.9 2.9-1.8 4.2-1.3 1.8-3.1 3-5 4.1-2.4 1.2-4.9 1.9-7.5 2.3-1.4.2-2.8.3-4.2.4-2.1-.1-4.1-.1-6.2-.4l-18.5-2c-11.6-1.4-23.2-2.8-34.8-4.5-11.5-1.6-22.9-3.5-34.4-5.4-12-1.9-23.9-4.2-35.8-6.6-7.2-1.3-14.3-2.9-21.5-4.4-11.1-2.5-22-4.9-33-7.6-28.4-6.9-56.5-14.9-84.2-24-10.8-3.6-21.6-7.3-32.3-11.2l-1.8-.7-12.2-4.5c-6.4-2.4-12.8-4.9-19.1-7.5-5.1-2.1-10.3-4.1-15.3-6.4-10-4.3-20-8.6-29.8-13.3l-11-5.2c-3.3-1.6-7.1-3.6-8.3-7.4-.3-1.1-.3-1.3-.3-2.4M923 182.8c0-.9 0-1.8-.3-2.7-.8-2.7-3.3-4.7-6-5.6-1-.3-1.2-.3-2.2-.4 1 0 1.3-.1 2.3 0 2 .3 4 1.2 5.2 2.9.4.5.6 1.1.8 1.8M856.4 103l-.6-.5c-.8-.4-1.5-.5-2.3-.6-.8.1-1 0-1.8.2l-.9.3-1.9.2-316 32.2c-2.5.2-1.4-.2-3.5 1.3l-39.8 27.4c-1 .7-2.2 1.4-3 2.4-.4.4-.7.9-.8 1.4-.2.5-.2 1-.2 1.5.2 2.9 3.3 4.1 5.5 5.2l10.9 5.2 3.5 1.6c9.2 4.2 18.4 8.3 27.7 12.3 10.1 4.2 20.3 8.3 30.5 12.3l1.8.7 12 4.5c10.5 3.9 21.2 7.5 31.9 11.1 6.6 2.2 13.2 4.4 19.9 6.4 10.4 3.2 20.8 6.3 31.3 9.2l1.8.5 13.1 3.5c17.1 4.6 34.3 8.5 51.5 12.3 7.1 1.6 14.2 3.1 21.3 4.4 11.8 2.3 23.6 4.6 35.4 6.5 11.3 1.8 22.6 3.7 34 5.3 11.5 1.6 22.9 3 34.4 4.4 6.1.7 12.2 1.3 18.3 1.9 1.6.2 3.1.4 4.7.3 2.2-.1 4.4-.6 6.2-1.6.9-.5 1.8-1.1 2.5-1.9.8-1 1-2.2 1.4-3.4l28.6-93.7c.8-2.4.8-1.2 0-3.7l-6.6-21.7c-.8-2.5-.1-1.5-2.1-3.1l-53-43.6-1.5-1.2-.2-.6c-.1-.4-.3-.9-.7-1M906.7 148.7c1.4-.5 2.9-.8 4.3-.3.7.2.8.4 1.3.8M914.9 152.9c-.8-2.1-2.6-3.5-4.7-4-1-.2-1.2-.2-2.2-.3l-1.2.1M530.1 133.5c.6.1.7 1.1.9 1.6M526.2 134.9c.6-.3.7-.4 1.4-.5 1.2-.2 2.3.2 3.4.7M488 164.6c-.8-.4-1.6-.6-2.5-.7-.6 0-.9-.1-1.5.2l-.7.3M489.3 173.3c-2.8 2.1-4.7 5.4-5.4 8.9-.4 2-.2 4.2-.2 6.3M871 292.7c0-5.5 0-11 1.5-16.3M884.7 271.4c1 .2 1.2.2 2.2.5 2.7.8 5.1 2.9 6 5.6.3.9.3 1.7.3 2.6M617.5 198.5c-.7.5-1.3.9-1.8 1.5M615.3 199.8l-.2-.2-.5-.6M614.8 199.2c.1-2.2 2.2-3.5 3.8-4.6l12.7-8.8c.6-.4 1.7-1.2 2.5-1.6 2.1-1.1 4.6-1.5 6.9-1.5 1.9 0 3.7.5 5.5 1l117.7 31.7 1.8.5 1.2.4c1.9.7 4.3 2.2 4.3 4.6M767 234.9v-.2l.6-1.9 3.2-10.3c.2-.7.4-1.8.9-2.5 1.1-1.8 3.2-2.3 5.1-2.2.2-.9.3-1.2.2-2.1-.4-3.1-3.2-5.2-5.7-6.4l-1.5-.6-1.6-.5-1.8-.5-117.7-31.7c-1.8-.5-3.5-1-5.4-1.2-1.6-.2-2.1-.2-3.6-.2-2.4.1-4.7.4-7 1.1-1 .4-2 .7-3 1.2s-1.9 1.3-2.9 1.9l-12.7 8.7-2.6 1.8c-1.3 1.2-2.4 2.7-2.6 4.6-.1.6 0 1.3.2 1.9.2.8.6 1.5 1.1 2.1 1.9 2.5 5.1 3.6 8 4.6l10.8 3.6c9.8 3.2 19.5 6.1 29.4 9.1 10 3 20 5.6 30 8.4 5 1.3 10.2 2.6 15.3 3.9 6.3 1.6 12.7 3.2 19.1 4.6l11.8 2.6 3.8.8 11.9 2.5c1.8.4 3.6.7 5.4.8 3.4.2 6.9-.2 10.1-1.4 2.1-.8 4.2-2.1 5.6-3.9.8-1.2 1.2-2.5 1.6-3.9l3.2-10.4.5-1.8M776.8 214.7c-.7.1-.9.1-1.6.4-1.7.6-3.3 1.9-3.9 3.6-.2.6-.1.7-.2 1.4M765.7 216c.1-2.7.8-5.5 2.5-7.7M644.4 183.3c.1-2.7.8-5.5 2.4-7.7M628.5 177.9c2.6 1.4 4.2 3.9 4.4 6.9M612.6 188.8c2.5 1.4 4.2 3.9 4.4 6.9M615.3 199.8c.9.7.5.4 1.2.8M616.5 202.2l.4-.4.4-.2c.9-.5 2.1.2 2.9.5 8.5 2.8 17.1 5.7 25.7 8.3l9.5 2.9 1.8.6c13.4 3.9 26.9 7.7 40.4 11.2 13.8 3.5 27.6 6.8 41.5 9.8l13.9 2.9M752.3 238.7c.2-.3.4-.7.8-.9l.2-.1 1.3.2 1.3.1c1.8.1 3.5 0 5.3-.3M761 237.9c1.5-.3 2.8-.8 4.2-1.4M766.4 235.6l.2-.2.5-.6M772.5 231.9h-.8c-1.5.1-2.9.5-4 1.7-.4.5-.4.6-.7 1.2M765.2 236.5c.8-.4.4-.2 1.2-.8M616.4 200.6c1.3.7.7.3 2 .9M507.2 176.9l-1.6-1.2-.1-.5s.2-1 .5-1.4c1.1-1.3 3.1-1.7 4.7-1.7 1.5-.1 3.2.3 4.4 1.2.3.2.6.5.8.8l.2.5c.4 1.4-.9 2.5-2.1 3-1 .4-2.1.5-3.1.6-1.7-.1-3.7-.3-4.9-1.6-.3-.4-.3-.5-.5-.9M613.2 218.6l-1.7-1.3-.1-.5c0-.7.4-1.4 1-1.9 1.6-1.3 4-1.5 5.9-1.2l.8.2c1.4.4 3.4 1.5 3 3.2l-.2.5c-.2.3-.4.6-.7.9-1.2 1-2.8 1.2-4.3 1.3-1.7-.1-3.6-.4-4.9-1.7-.3-.4-.3-.4-.5-.9M623.1 177.3l.4.3c.5.7-.5 1.1-1 1.1l-.4.1c-.6-.1-1-.2-1.3-.7"/>
    <path class="st1"
        d="M657.1 163.1c-.2-.8-.3-1.1-.2-1.9.1-1.8 1.2-3.4 2.5-4.6.7-.6 1.9-1.3 2.6-1.8l22.4-15.5c.9-.6 1.9-1.3 2.9-1.8 2.5-1.3 5.3-2 8.1-2.3 2.4-.2 4.8-.1 7.2.3l3.6.9 75.6 20.3c2.2.6 4.4 1.2 6.4 2.3 2.3 1.4 4.6 3.8 4.3 6.7-.1.8-.5 2.2-.8 2.9l-5.8 19c-.2.8-.5 2.1-1 2.9-1.6 3.1-5.3 4.7-8.4 5.5-1.8.5-3.6.7-5.5.8-1.6 0-2.1 0-3.8-.1-1.8-.2-3.6-.7-5.5-1.2l-94.3-25.4c-3.4-.9-7.2-2-9.4-5-.4-.8-.5-1-.9-2zM660.5 155.8c2.5 1.4 4.2 3.9 4.4 6.9M786.8 170c0-2.4-2.4-3.9-4.3-4.6l-1.2-.4-1.8-.5-75.6-20.3-1.9-.5-1.2-.3c-1.1-.2-1.3-.1-2.5-.2-2.4 0-4.7.3-6.9 1.4l-2.5 1.6-22.4 15.4c-1.6 1.2-3.8 2.3-3.8 4.6M662.9 166.6c.9.8.5.4 1.3 1M664.1 167.5c.9.5 1.1.6 2.1.9l1.2.4 1.8.5 94.3 25.4 1.8.5 1.1.3M766.4 195.5c1.4.2 2.7.4 4.1.4 1.5-.1 2.8-.2 4.2-.5M778.9 193.7c-1.4.8-2.8 1.3-4.4 1.7M779.9 192.5c.2-.5.4-.9.8-1.3 1.2-1.4 3-1.8 4.8-1.7M792.4 166.8l-.8-.1c-1.8.2-3.5.7-4.4 2.3-.4.7-.6 1.8-.8 2.4l-5.8 19-.5 1.8M778.5 193.8c1-.7.5-.3 1.5-1.1M786.7 169.1c.1-.6 0-.8.2-1.4.6-1.7 2.1-3 3.9-3.6.7-.2.8-.2 1.6-.3M763.8 196c.5-.5.9-1 1.6-.8M665.8 169.6c.4-.5.9-1 1.6-.8M664 167.4v-.1l.9-1.4M662.4 165.6l.3.6.1.2M781.3 165c.1-2.7.8-5.5 2.4-7.7M704.4 135.9c-1.6 2.2-2.3 5-2.4 7.8M686.1 138.2c2.5 1.4 4.3 3.9 4.4 6.9M663.4 150.8c-.4.2-.7.2-1.1.2-.5 0-1.1-.1-1.4-.7"/>
    <path class="st1"
        d="M719.9 126.9c.1.6.1.7.4 1.3.7 1.3 2.1 2.1 3.5 2.6 2.4.9 5.2 1 7.7.4 1.3-.3 2.5-.8 3.6-1.6.4-.3.8-.7 1.1-1.2.3-.4.5-.8.5-1.3.4-2.3-1.9-3.9-3.8-4.6-1.4-.5-2.9-.7-4.3-.8-1 0-1.3 0-2.3.2l-1.1.2c-1.9.5-4.2 1.4-5 3.4-.4.6-.3.8-.3 1.4zM722.9 130.4c-.5-.4-1-.8-1.2-1.3l-.2-.5-1.4-1M721.6 126.8c-.3.6-.2 1.2-.1 1.8M735 126.9c.2.4.2.4.2.9 0 1.2-.7 1.9-1.6 2.6M729.2 249.8l-1.7-1.3-.1-.5c0-.7.4-1.4 1-1.8 1.6-1.3 4-1.5 6-1.2l.8.2c1.3.4 3.5 1.5 3 3.2l-.2.5c-.2.4-.4.6-.8.9-1.2 1-2.8 1.2-4.3 1.3-1.7-.1-3.6-.3-4.9-1.7-.3-.3-.4-.5-.5-.9"/>
    <path class="st1"
        d="M750.8 136c-.5-.3-.7-.4-1-.8l-.4-.4c-.6-1-.2-2.1.7-2.8 1.2-1 2.8-1.3 4.3-1.3s3.2.3 4.4 1.2c.3.2.6.5.8.9l.2.5c.4 1.4-.9 2.5-2.1 3-1 .4-2 .6-3.2.6-1.3-.1-2.5-.3-3.7-.9zM773 142.9c-.4-.5-.5-.7-.7-1.3-.6-2.2 1.4-3.9 3.2-4.7l1-.4c2.1-.7 4.5-.8 6.7-.4 1.3.2 2.6.7 3.8 1.4.5.3 1 .7 1.3 1.1.3.4.6.8.7 1.3.7 2.2-1.3 3.9-3.2 4.7l-1 .4c-1.4.4-2.9.6-4.4.7-2.1-.1-4.2-.5-6.1-1.6-.7-.5-.7-.6-1.3-1.2zM775.3 144.5c-1.1-.8-2.2-2.2-1.4-3.6M787.3 140.9c.2.4.2.4.2.9.1 1.2-.7 1.9-1.5 2.6M782.3 220.5c0 .8-.9.9-1.5 1-.6-.1-1.1-.2-1.4-.7"/>
    <path class="st1"
        d="M786.1 121l.1.5c.3 1 1.4 1.7 2.3 2 1.5.6 3.3.7 4.8.4 1-.2 1.9-.5 2.7-1.1.2-.2.5-.5.7-.9l.2-.5c.4-1.8-1.6-2.9-3-3.2-.8-.2-1.6-.3-2.4-.3l-.8.1-.8.1c-1.3.3-3.2 1-3.5 2.5-.2-.1-.2-.1-.3.4zM793.1 184.9c.1.8-.9 1-1.5 1h-.3c-.5-.1-1.3-.4-1-1l.1-.2M852.3 269.9l-1.6-1.2-.1-.5c0-.5.2-1 .6-1.4 1.1-1.3 3.1-1.8 4.7-1.8 1.5 0 3.2.3 4.4 1.2.3.2.6.5.8.8l.2.5c.4 1.4-.9 2.5-2 3-1 .4-2.1.6-3.2.7-1.7 0-3.6-.3-4.9-1.7-.4-.3-.4-.5-.6-.9M769.5 222.4c-1.5-.8-3.1-1.2-4.8-1.7l-117.7-31.7-1.9-.5-1.1-.2c-1.2-.2-2.3-.3-3.5-.4-1.2 0-1.2 0-2.4.1-.9.1-1.7.2-2.6.2-.9-.1-1.8-.2-2.7-.4M766.6 221.3c-.8-.4-.8-1.4-.9-2.2M645.2 188.6c-.8-.3-.8-1.3-.8-2.1M618.1 198.1l-2 2.4M618.1 198.1v3.2M509.6 175.3v.7M510.4 175.9v-1.1M509.4 175.9v-.5M509 175.1l.5.2M510.7 175.8v-1.1M511.3 175.5v-1.2M515.1 176.9v-.6M509.7 175.7v-1.2M512.1 176.2c-.7-.1-.3-.9-.4-1.5 0-.2 0-.4-.3-.4l-.8.5c-.3 0-.6-.3-1-.3-.5 0 .1.5-.1.8l-.7.2-.1.1.2.1.7.2.4.5.6-.1c.3-.2.5-.1.9-.1l.7-.1-.2-.5.7-.4.1-.2-.2-.1c-.2 0-.8.1-1-.2M511.2 174.4l-.4-.1-1.1.2M511.8 176.1c-.1-.3 0-.5-.4-.5-.3.1-.5.4-.9.4-.3-.1-.6-.2-.9-.2M508.9 175.6c0-.4.2-.6.5-.8M512 176.4c-.4.1-.8.2-1.2.2h-.4M510 176.5c-.5-.1-.7-.3-1-.7M512.7 175.1c-.3-.4-.6-.5-1-.7M507 177.4c-.2-.3-.3-.3-.5-.7-.1-.3-.1-.4-.1-.8-.1-.3-.1-.6.1-1 .2-.7 1-1.2 1.6-1.5 1.8-.8 4.1-.8 5.8.1.4.2.8.5 1.1.9.4.7.5 1.7.1 2.4-.2.3-.3.4-.5.6M506.4 175.4c.1 1.1.9 1.8 1.9 2.2 1.7.7 3.7.6 5.4-.1.8-.4 1.5-1 1.6-1.9M512.8 175.4c0 .4-.2.5-.5.8M731.5 248.1v.7M732.3 247.5v1.1M731.4 248.7v-.5M730.9 247.9l.6.2M732.6 247.5v1.1M731.6 248.5v-1.2M733.2 247.1v1.2M737 249.6v-.5M734 249c-.7-.1-.3-.9-.4-1.5 0-.2 0-.4-.3-.4l-.8.5-1-.3c-.6.1.1.6-.1.8l-.7.3-.1.1.2.2.8.3.3.5.5-.1c.4-.2.5-.2 1-.1l.7-.1-.2-.5.7-.4.1-.2c-.2-.4-1 .2-1.2-.3M733.1 247.1l-.4-.1-1.1.2M733.7 248.8c-.1-.3 0-.5-.4-.5-.4.1-.5.4-.9.4-.3 0-.6-.1-.9-.2h-.1M730.8 248.3c0-.4.2-.6.5-.8M733.9 249.2c-.4.1-.8.2-1.1.2h-.4M731.9 249.2c-.4-.1-.7-.3-1-.7M734.2 249c.3-.3.5-.4.5-.8M733.6 247.2c.4.1.7.3 1 .7M729 250.2c-.8-.6-1-1.9-.4-2.8.2-.4.5-.7 1-1 1.8-1.1 4.5-1.1 6.3-.1.4.2.8.5 1.1.9.4.6.5 1.7.1 2.4-.2.3-.3.4-.5.6M728.3 248.1c.1 1.2.9 1.8 1.9 2.2 1.6.7 3.7.7 5.3-.1.8-.4 1.5-1 1.7-1.9M667.3 258.3l-4.1-1.1M667.3 258.3l.2-.2M667.3 256.7l-4.1-1.1M663.6 255c-.8 1-.5.3-.5 2.2M667.3 258.3c0-1.9-.3-1.2.5-2.2M667.3 615.1l-4.1-1.2M667.5 614.8l-.2.3M667.3 613.5l-4.1-1.2M663.2 612.2v1.7000000000000002M667.4 613.4l-.1.1v1.6M667.5 258.2h-.2M667.5 258.2v-1.6M523.9 206.8l-.5.4M523.3 207.1l.6-.3M490.6 191.7l-.5.4M490 192.1l.5-.4M484.7 188.9l-.6.4M520.5 336.3l-.2-.2M520.3 432.2l-25.8-11.7M663.2 612.2v.1M667.5 615v-1.6M891.5 644.9v-358.2M667.9 256.1l-.4.5M663.5 255l-.3.4v.2M663.2 613.8c-6.1-1.7-12.3-3.3-18.4-5.1-11.4-3.3-22.8-6.9-34.1-10.5-7.2-2.2-14.3-4.6-21.3-7.1-10.9-3.9-21.8-7.8-32.7-11.9l-1.8-.7-13.2-5.3c-6.1-2.4-12.3-5-18.3-7.6l-.1-.1-1.8-.8-29.7-13.5c-2.1-.9-4.1-1.9-6.3-2.9-3.2-1.6-6.7-3.4-7.9-7-.5-1.4-.4-2.9-.4-4.4v-354.7M477.9 183.5c.4.9.4 1 1.1 1.9 1.7 2.2 4.2 3.5 6.6 4.7 11.9 5.7 23.9 10.9 36 16.4 5.5 2.5 11 4.7 16.6 7 6.7 2.8 13.6 5.5 20.4 8.1l13.5 5 1.8.7c11.5 4.2 23.3 8.2 35 12 11.9 3.9 23.9 7.6 35.9 11.1 6.1 1.8 12.3 3.4 18.4 5.1"/>
    <path class="st1"
        d="M491.6 419.6v-93.30000000000001c0-.7-.4-2.8.8-3.1h.6c.3 0 .5.1.8.2l1.7.8 22.3 10.1c1.5.7 3.3 1.3 3.9 3 .2.8.1 1.9.1 2.7v91.4c0 .5.4 2.4-.5 3l-.5.2c-1.1-.1-2-.6-2.9-1.1l-22.3-10.1c-1.4-.6-3.1-1.2-3.8-2.8-.2-.3-.2-.7-.2-1zM493.2 420.2c-.4.2-.9.3-1.4.4M491.6 419.6c.5.2 1.2.4 1.6.2l1.1-.5c.3-.1.7.1 1 .2M494.5 324.4c-.5.6-.2 1.6-.2 2.3v92.60000000000001l.1.3.2.6.1.1 1.8.8 22 10 1.8.8.2-.1.5-.4v-94.5M521 337c.1.5.4.7.8 1"/>
    <path class="st1"
        d="M520.6 336.4v94.60000000000001l-.1.4c-.1.2-.3.5-.2.8l.1.1c.1.1.5.7.6.4l.1-.4v-93.30000000000001c0-.9.3-1.9-.3-2.5l-.3-.3.1.2zM520.3 336.2l-.4-.2c-.2-.2-.3-.5-.3-.9M520.6 336.4l-1.8-.8-20.9-9.4-1.8-.8c-.6-.3-1-.6-1.6-.6h-.2l-1.1-.2h-.3c-.5 0-.9-.1-1.3-.3M491.8 323.5c.4.4.8.6 1.4.7M494.1 324.2l-.5-.1-.4.2.1.2v95.20000000000002l-.1.4c.2.4.8.4 1.1.3l.5-.1.2-.4c.3-.7.1-1.9.1-2.5v-92.8M520.1 336c-8.7-4.1-17.5-7.9-26.2-11.9M493.8 323.4c0 .4.1.8.5 1M493.8 422.6c0-.8.3-1.4.7-2M518.6 430.1l1 .4c.1 0 1 .4 1.2.6l.2 1.2c0 .5.4.7.8.9M520.3 432.2c-.4.6-.7 1.3-.7 2M663.2 612.2c1.5.4 2.9.8 4.3 1.2M891.7 286.4v357.79999999999995l-.1.3-.1.3-1 1.2c-.8.7-1.6 1.4-2.5 2-2.7 1.7-5.9 2.7-9 3.2-1.4.2-2.8.3-4.2.4-2.1 0-4.1-.1-6.3-.4l-15.2-1.6c-7.6-.8-15.2-1.7-22.8-2.7-6.3-.8-12.6-1.7-18.8-2.6l-14.9-2.2-1.9-.3c-18.5-3-37.1-6.3-55.5-10.1-18.1-3.6-36.2-7.7-54.1-12.3-5.9-1.5-11.8-3-17.7-4.6M667.5 256.6l17.7 4.6c12 3 23.9 5.8 35.9 8.4 36.8 8.1 74 14.4 111.3 19.2l1.9.3 15.1 1.8 3.8.4 15.2 1.6c1.3.1 2.7.3 4.1.4 3.8.1 7.7-.4 11.3-1.7 2.5-.9 5.1-2.2 6.9-4.2M854.6 268.2v.7M855.4 267.7v1.1M854.5 268.8v-.5M854 268l.6.2M855.8 267.7v1.1M854.7 268.6v-1.2M856.3 267.2v1.2M860.2 269.8v-.6M857.2 269.1c-.7-.1-.2-.9-.4-1.5-.1-.2-.1-.4-.3-.4-.4 0-.5.4-.9.5l-.9-.3c-.6 0 .1.5-.1.8l-.7.2-.1.1.2.2.8.2.4.5.5-.1c.4-.2.5-.2.9-.1h.7l-.2-.5.7-.5.1-.2c-.3-.3-1 .2-1.2-.3M856.3 267.2h-.4s-.8.1-1.1.2M856.8 268.9c-.1-.3 0-.5-.4-.5-.4.1-.6.4-1 .4-.3-.1-.5-.2-.8-.2h-.1M853.9 268.5c0-.4.2-.6.5-.8M857 269.3c-.4.1-.7.2-1.1.2h-.4M855.1 269.4c-.4-.2-.7-.3-1-.7M857.4 269.1c.3-.2.5-.4.5-.8M856.8 267.4c.4.2.7.3 1 .7M852.1 270.3c-.2-.3-.4-.4-.5-.7-.2-.3-.1-.4-.2-.7 0-.3 0-.6.1-1 .2-.7 1-1.2 1.6-1.5 1.8-.8 4.1-.8 5.8.1.4.2.8.5 1.1.9.5.6.5 1.7.1 2.4-.2.3-.3.4-.5.6M851.4 268.3c.1 1.2.9 1.8 1.9 2.2 1.7.7 3.8.6 5.3-.1.9-.4 1.5-1 1.7-1.9M495.3 420.3v-94.3M496.2 325.3l22.7 10.4M518 430.6v-94.3M495.3 326l22.7 10.3M518.9 335.7v94.2M518 430.6l-22.7-10.3M495.8 420.1v-22M517 407.6l-21.2-9.5M496 397.9l-.2.2M496 397.9l21.3 9.6M517.3 429.4v-21.9M516.6 418.1v-10.2M517 429.7v-22.1M516.6 407.9l-9.9-4.5M517 407.6l.3-.1M495.8 420.1l21.2 9.6M516.6 429.1v-10.2M506.7 414.4l9.9 4.5M506 414.1v10.2M496.1 409.7l9.9 4.4M517 429.7l.3-.3M518 430.6l.9-.7M518 336.3l.9-.6M496.2 325.3l-.9.7M500.8 351.9l-4.8-2.2M500.8 352.7v-.8M499.7 361.1l-3.7-1.7M500.8 361.5l1.7.8M502.5 363.2v-.9M500.8 361l-.8-.3M500.8 361v.5M504.3 393.1l-8.3-3.7M504.3 393.9v-.8M500.8 388.5l-4.8-2.1M500.8 389.3v-.8M500.8 382.5l-4.8-2.2M500.8 383.3v-.8M500.8 343.3v-.8M500.8 340.2v-.8M500.8 336.5l-.7-.2M500.8 336.5v.9M504.3 350.6l-4.2-1.8M504.3 351.5v-.9M497.3 367.4l.3-.5M498.9 364.9v2.4M517.1 354.6l-8.2-3.7M517.1 355.4v-.8M512.2 350.1l-.5.4M496.9 334.8l.3-.2M498.1 335.8l.3-.3M496 334.4l-.2.2M496.4 334.9l-.6-.3M495.8 335.4l4.7 2.2M500.8 337.4l-.3.2M500.5 336.7v.9M500.5 336.7l.3-.2M496.4 333.3l.2-.2M498.1 331.6l.3-.2M500 333.2l.3-.2M500.6 335.1l.3-.2M499.8 336.4l.7.3M495.8 334.6v.8M504.3 393.9l-.3.2M504.3 393.1l-.3.2M504 394.1v-.8M504 394.1l-5.3-2.4M498.5 392.4l2 3M500.8 395.2l-.3.2M500.5 394.3l.3-.2M495.8 392.6l2.1-1M498.5 392.4l-2.7 1.3M495.8 392.6v1.1M495.8 389.6v.8M495.8 389.6l.2-.2M495.8 389.6l8.2 3.7M503 389.5l-.3.2M502.8 390.2l.3-.2M500.5 388.7l.3-.2M500.8 389.3l-.3.3M500.5 388.7l-4.7-2.1M495.8 387.4v-.8M496 386.4l-.2.2M495.8 387.4l4.7 2.2M500.5 388.7v.9M496 380.3l-.2.3v.8M495.8 380.6l4.7 2.1M500.8 382.5l-.3.2M495.8 383.6l.2-.2M495.8 383.6v.9M498.8 384.6l-2.8-1.2M499.8 384.9h-.2M500.6 383.7l-.3.2M500.6 385l.3-.3M500.5 383.5v-.8M500.5 383.5l.3-.2M500.5 383.5l-.6-.2M498.8 384.6l-.2.3M496 374.3l-.2.2M496 374.3l8.3 3.7M499.9 377.2l4.1 1.9M495.8 374.5l8.2 3.7M504 379.1v-.9M504.3 378l-.3.2M504 379.1l.3-.2M495.8 374.5v.8M495.8 378.5v-.9M496 377.4l-.2.2M498.6 378.9l.3-.2M500.6 377.6l-.3.2M500.6 378.9l.3-.2M499.3 378.8l.2.1M497.5 373.1l-.3.3M497 372.4l-.3.2M496.4 371.4l.3-.2M496.5 369.5l.3-.3M497.9 364.3v3.8M497.2 367.3h.1M497 367.6l.3-.2M497 366.1l-.3.2M496.6 364.9l-.2.2M496.7 363.1l-.3.2M498.1 363.5l.3-.2M498.6 364.7v2.9M500.9 366.8l-.3.2M498.9 367.3l-.3.3M498.4 369.4l-.3.2M500.2 364.8l-.3.2M500.5 363.5v-.9M500.5 361.8l1.7.7M502.2 363.3v-.8M502.5 362.3l-.3.2M502.2 363.3l.3-.1M502.2 363.3l-1.7-.7M499.7 363.2l.8.3M500.8 363.3l-.3.2M499.7 363.2v-.9M500.8 361l-.3.2M499.7 360.9l.8.3M499.7 362.3l-3.9-1.8M495.8 359.6v.9M495.8 359.6l.2-.2M500.9 357.2l-.3.2M498.1 353.7l.3-.2M497.2 353.3l-.3.1M496.6 355.3l-.2.1M499.9 355.3l.3-.2M497.3 356.9l-.3.2M498.1 358l.3-.2M495.8 359.6l3.9 1.8M500 360.7l-.3.2M499.7 361.4v-.5M500.5 361.8v-.6M500.5 361.8l.3-.3M499.9 371.2l.3-.2M500.6 373.4l.3-.3M500.3 374.4h.1M500.1 374.7l.3-.3M500.1 374.7l-1-.5M503 353.7l-.3.3M503.1 353.4l-.3.2M502.7 353.1l.3-.2M495.8 348l8.2 3.7M499.8 348.9l4.2 2M504 351.7v-.8M504 351.7l.3-.2M504.3 350.6l-.3.3M500.6 347.6l.3-.2M495.8 347.1l.6.3M495.8 347.1v.9M496 346.9l-.2.2M497.2 347.1l-.3.2M498.1 348.2l.3-.2M496.4 345.8l.2-.2M498.1 344.1l.3-.2M496.4 343.9l.3-.2M500.3 345.6l-.3.2M500.8 352.7l-.3.3M500.8 351.9l-.3.2M495.8 350l4.7 2.1M500.5 353v-.9M500.5 353l-4.7-2.2M495.8 350l.2-.3M495.8 350v.8M517.1 355.4l-.2.3M517.1 354.6l-.2.2M516.9 355.7v-.9M516.9 355.7l-4.3-2M508.6 351.1l.3-.2M508.6 348.7v1.1M510.2 349.2l-1.6.6M510.6 343.9l.2-.2M512.4 345.9l.3-.3M512.9 348.2l-2 .7M513.6 346.9l.3-.2M513.9 347.9l.1.3M514.8 349.6l.3-.2M516.6 349.2l-.3.3M516.2 347.8l-.3.3M514.7 347l.3-.2M514 348.8l.3-.2M512.4 347.3l-2.1.8M508.9 348.5v.1M509.2 345.6l.3-.3M508.6 351.1l8.3 3.7M509.2 353.8l.3-.3M509.7 355.3l.3-.3M510.9 356.2l.3-.2M509.2 352.2l-.6-.3M508.6 351.1v.8M513.7 355.6l-.3.2M501.3 410.9l-.2.2M506 424.3l-9.9-4.4M496.4 409.8v9.9M506 424l-9.6-4.3M496.1 419.9v-10.2M496.4 419.7l-.3.2M516.6 429.1l-9.9-4.4M507.1 414.6v9.8M516.6 428.8l-9.5-4.4M506.7 424.7v-10.3M516.6 418.1l-9.9-4.4M507.1 403.6v9.8M516.6 417.7l-9.5-4.3M506.7 413.7v-10.3M507.1 413.4l-.4.3M507.1 424.4l-.4.3M517.1 343.9l-4.2-1.9M508.6 341.3l8.3 3.7M517.1 343.9l-.2.3M516.9 345v-.8M516.9 345l.2-.2M512.6 342.3l4.3 1.9M513.4 340.9l.3-.2M510.1 340.4l-.4.2M508.6 341.3v-.9M508.9 340.2l-.3.2M509.2 340.7l-.6-.3M509.2 339.1l.3-.2M511.2 337.2l-.3.2M510.9 341.5l.3-.2M512.8 339.1l.3-.3M500.8 340.2l-.3.3M500.8 339.4l-.3.2M500.5 340.5v-.9M500.5 343.5v-.9M500.8 342.5l-.3.1M500.5 343.5l.3-.2M496.4 339.7l.2-.2M497.6 338.3l.3-.2M496.6 340.6l.3-.3M497.5 340.9l-.3.2M498 341.2l-.3.2M497.2 337.9l-.3.2M500.5 383.5c.4.6.5 1.4.2 2M498.8 384.6l.8.2"/>
    <path class="st1"
        d="M496.5 337.9l-.2.2.2-.2zM496.8 339c-.5 1 .4 1.8 1.2 2.2l1.4.6 1.4.6M496.7 337.9c.5-.1.8.1 1.3.2l2.9 1.3M496.7 331.2l-.4.3M500.2 336.2c.8-.4.7-1.5.5-2.2-.5-1.5-1.9-2.8-3.5-2.9M496.7 333.3c.2 1 .8 1.8 1.8 2.2.3.2.8.4 1.2.2M500.2 348.7c.8-.4.8-1.5.5-2.2-.5-1.5-1.9-2.7-3.5-2.9-.4.1-.7.2-.9.4M496.7 345.8c.2 1 .8 1.8 1.8 2.3.4.1.8.3 1.2.1M500.3 368c.7-.6.6-1.6.3-2.4-.5-1.4-1.9-2.5-3.4-2.7-.4 0-.7.1-.9.4M496.9 364.2l-.2.7c0 .8.5 1.4 1 2M498.9 367.3l.4.1M500.4 374.4c.5-.7.5-1.7.2-2.5-.5-1.4-1.8-2.7-3.4-2.7-.3 0-.7.2-.9.4M497.5 373.1c-.5-.7-1.2-1.9-.6-2.7M500.1 358.7c.8-.5.9-1.5.6-2.4-.4-1.5-1.7-2.9-3.3-3.1-.3 0-.6.1-.9.2M496.7 355.4c.1 1 .8 1.9 1.7 2.4.4.2.8.3 1.2.1M500.8 395.2v-1.1l-1.4-2.1M500.6 377.5c.3.5.4 1.1.3 1.7-.1.2-.2.5-.5.6M503.1 390.2c.1-.4-.2-.8-.5-1M502.9 353.8c.5-.3 0-1.1-.3-1.2M512.8 345.8c-.5-.9-1.1-1.6-2-2.1M510.6 347.8c-.4-.6-.8-1.3-1-2-.1-.4-.1-.8.2-1.1M512.2 350.1l-1-1.3M513 342c.7-.4.8-1.2.6-1.9-.3-1.3-1.2-2.3-2.4-2.8M509.5 339.1c.2 1 .8 1.8 1.7 2.2.4.2.8.4 1.2.2M513.2 354c.5.8.8 2.4-.2 2.9M509.5 353.7c.2 1 .8 1.8 1.7 2.2.3.2.8.3 1.2.1M516.6 349.4c0-1.1-.6-2.1-1.6-2.6M514 348.2c.3.5.7 1.3 1.4 1.3M498.1 400.5l-.7.4c-1 .7-1.2 1.7-1.3 2.9M504.7 411c-.5.3-1 .5-1.6.5-.7 0-1.3-.2-2-.4M506 408.7c.2-3.3-2-6.3-4.9-7.8M496.4 331.5l-.5.5c-.5 1 0 2.1.6 2.9"/>
    <path class="st1"
        d="M497.7 335.5c.7.4 1.8.8 2.1-.2v-.4l-.1-.6c-.3-1-1.3-1.8-2.4-2-.8.1-1.1.7-.9 1.5.2.7.7 1.3 1.3 1.7zM499.8 336.4c.8-.4.9-1.4.6-2.3-.5-1.5-1.9-2.7-3.5-2.8-.3 0-.6.1-.8.3M496.9 332.4c-.2.2-.2.6-.2.9M496.4 331.5c.3-.2.4-.3.8-.4M498.7 391.7l1.8 2.6v1.1M495.8 390.4l1 .4c1.1.5.8.2 1.2.7M502.6 389.1h-.3l-.6.4c-.2.4.3 1.1.8 1.1.3 0 .4-.4.3-.6-.1-.4-.4-.7-.8-.7l-.2.1M503.1 390.2l-.4.4M495.8 383.6l1.4.6 1.4.6c.2.1.6.3.9.2.3 0 .4-.3.4-.5.1-.5-.2-1-.5-1.4-.4-.3-.8-.6-1.2-.7l-2.4-1.1M499.9 383.3l.4.6c.4.7.5 2.2-.6 2.2l-1.1-.3-2.9-1.3M500.2 386l.5-.5M495.8 377.6l1.4.6 1.5.7c.2.1.5.2.8.2s.4-.3.4-.5c.1-.5-.2-1.1-.5-1.4-.4-.3-.8-.5-1.2-.7l-2.4-1.1M496 377.4c1 .5 2.1.9 3.1 1.3M499.9 377.2l.4.6c.4.7.5 2.1-.6 2.2-.4 0-.7-.2-1.1-.3l-2.9-1.3M497.2 373.4c-.3-.4-.5-.8-.7-1.2-.2-.7-.2-1.6.5-1.8h.4l.4.1c.9.3 1.7 1.2 1.9 2.2.1.4.1 1-.3 1.3l-.4.3M500.1 374.7c.6-.8.5-1.7.2-2.5-.5-1.4-1.8-2.7-3.4-2.7l-.7.2c-.8.5-.8 1.6-.5 2.4l.2.6.1.3 1.1.5M498.6 367.6c.5.1 1.1-.1 1.2-.7v-.6c-.2-.7-.6-1.3-1.2-1.6M497.9 368.1c.5.2 1.1.5 1.7.4 1.1-.3 1.1-1.7.8-2.6-.5-1.4-1.9-2.5-3.5-2.6l-.5.1c-1.1.4-.9 1.9-.6 2.7l.3.7c.2.3.5.6.8.9M497.6 366.9c-.5.3-.2.1-.7.7M497.9 364.3l-.6-.2c-.8 0-1.1.6-.9 1.4.1.6.5 1.1 1 1.6M499.6 367.3l-.4.1M496.6 353.4c-.3.2-.6.4-.7.7-.3.5-.2 1.3-.1 2 .4 1.1 1.2 2.2 2.4 2.7.4.2 1 .3 1.5.2.3-.1.5-.2.7-.4"/>
    <path class="st1"
        d="M499.8 357.3c.1-1.4-1.1-2.8-2.5-3-.8.1-1.1.8-.9 1.6.2.9.9 1.7 1.7 2.1.5.2 1.2.4 1.6-.2l.1-.5zM496.3 353.7c.6-.4 1.2-.3 1.9 0 1.1.5 2 1.7 2.3 2.8.2.8.2 1.8-.5 2.4M496.7 355.4c0-.4 0-.7.2-1M502.6 352.5l-.3-.1-.6.4c-.2.5.3 1.2.8 1.1.3-.1.4-.4.3-.6-.1-.4-.4-.7-.8-.7l-.2.1"/>
    <path class="st1"
        d="M499.8 347.6c.1-1.4-1.2-2.7-2.5-2.8-.8 0-1.1.7-.9 1.4.2 1 1 1.8 1.9 2.1.5.2 1.1.2 1.4-.4l.1-.3zM496.4 347.4c-.3-.4-.5-.8-.7-1.3-.3-1 0-2.3 1.2-2.3l.6.1c1.3.3 2.5 1.4 2.9 2.7.3.8.2 1.8-.6 2.3M496.9 344.9c-.2.2-.2.6-.2.9"/>
    <path class="st1"
        d="M511.5 353.3c.6.5 1 1.1 1.1 1.8.1.7-.2 1.2-.9 1.2-1.2-.1-2.3-1-2.5-2.2l-.1-.6.1-.4c.5-.8 1.8-.2 2.3.2zM509.2 352.2l-.5.5c-.4.5-.3 1.3 0 1.9.4 1.2 1.5 2.2 2.8 2.6l.7.1c1.2-.1 1.4-1.4 1.1-2.4l-.6-1.2M509.5 348.2c-.8.3-.5.1-1 .5M509.7 348.3c-.6-1-1.2-1.9-1.2-3.1-.1-.8.5-1.7 1.4-1.8.4 0 .7.1 1 .2M510.3 348.1c-.5-.7-1.1-1.6-1.1-2.5-.1-.6.4-1 1-.9.5.1.8.4 1.1.8.4.5.8 1.2 1 1.8M512.9 348.2c.4.8.8 1.7 1.6 2.1.9.5 1.9.1 2-.9M513.1 347.1c.4-.1.8-.2 1.2-.2.8.1 1.4.7 1.7 1.4.4.6.5 1.6 0 2.1"/>
    <path class="st1"
        d="M513.5 348c.2.3.4.7.5 1l.3.4c.3.3 1.1.6 1.2-.1s-.5-1.4-1.2-1.4c-.3-.1-.5 0-.8.1zM513.1 347.1c-.7-1.4-1.5-3.2-3.3-3.3-.3 0-.5 0-.8.2M515 346.8l-.6-.1c-.5 0-.9.1-1.3.4M511.9 350.3l-1-1.4M510.3 348.1c.6-.4 1.4-.6 2.1-.9M512.8 345.8l.3.4.3.6M510.2 349.2l1.1 1.5.6-.4.3-.2M509.7 352.8c-.3.2-.3.6-.2.9M497.5 400.8c-1.3 1-1.2 2.9-.8 4.3.7 2.4 2.4 4.7 4.7 5.7 1.1.5 2.4.6 3.5 0M504.7 411c.8-.7 1.1-1.4 1.3-2.4M501.1 411.1c-2.8-1.4-4.8-4.2-4.9-7.3M498.1 400.5c1-.2 1.9 0 2.9.4"/>
    <path class="st1"
        d="M512.7 340.7c-.1-1.3-1.3-2.4-2.5-2.6-.8.1-1.1.7-.9 1.5.2 1 1 1.8 1.9 2.1.5.2 1.2.2 1.4-.4l.1-.6zM512.6 342.3c.8-.5.9-1.4.6-2.3-.5-1.5-1.9-2.7-3.5-2.8l-.5.1c-1.3.4-.9 2.1-.4 3l.3.5M509.7 338.1c-.3.2-.3.7-.2 1M511.2 337.2c-.4-.2-.7-.3-1.2-.3-.5.1-.8.2-1.2.5M500.5 340.5l-1.4-.7c-.6-.2-1.5-.8-2.3-.9-.8.2-.4 1.5 0 1.9.2.3.6.4.9.6l2.7 1.2M500.5 343.5l-1.4-.6c-.7-.3-1.6-.6-2.2-1.1-.9-.7-1.6-2.2-1-3.2l.5-.5M500.5 339.6l-1.4-.7c-.7-.3-1.5-.8-2.3-.9l-.7.2M496.2 338.1c.4-.3.2-.2.5-.3M615.5 216.8v.7M616.3 217.4v-1.1M615.3 217.5v-.6M614.9 216.6l.5.3M616.6 217.3v-1.1M617.2 217v-1.1M621 218.4v-.6M615.6 217.2v-1.2M618 217.7c-.7-.1-.2-.9-.4-1.5-.1-.3 0-.4-.3-.4-.4.1-.5.4-.8.5-.3 0-.6-.2-1-.3-.6.1.1.6-.1.8l-.7.2-.1.1.2.1.8.2.4.6.6-.1c.4-.1.5-.1.9-.1l.7-.1-.2-.5.7-.4.1-.2-.2-.1c-.3 0-.8.1-.9-.2M617.1 215.9h-.4s-.7.1-1.1.2M617.7 217.6c-.1-.4-.1-.5-.4-.5-.4 0-.6.4-.9.4-.3-.1-.6-.2-.9-.2M614.8 217.1c0-.4.2-.6.5-.8M617.8 217.9c-.4.1-.7.2-1.1.2l-.4-.1M615.9 218c-.4-.1-.7-.3-1-.7M618.6 216.6c-.3-.4-.6-.5-1.1-.7M612.9 219c-.7-.7-.9-1.9-.4-2.8.2-.4.6-.7 1-.9 1.8-1.1 4.5-1.1 6.3-.1.4.2.8.5 1.1.9.4.6.5 1.7.1 2.4-.2.3-.3.4-.5.6M612.3 216.9c.1 1.1.9 1.8 1.9 2.2 1.7.7 3.7.7 5.3-.1.9-.4 1.5-1 1.7-1.9M618.7 216.9c-.1.4-.2.6-.5.8M754.8 132.5v1.2M753 133.8v.5M753.1 134v-1.2M753 133.3v-.5M753.1 134.3v-.7M753.9 132.7l.2.4M755.3 133.1v1.1M754.2 133v1.1M754.7 133.8v-1.2M755.1 133.8v-1.1M755.8 136.7v-.5M753.9 133.1v1.1M755.5 133.3v1.1M755.8 134.6v-.6s1.2-.6.5-.7l-.7.1c-.5-.1-.2-.7-.6-.8-.4 0-.5.5-1 .5-.3-.1-.5-.2-.9-.3l-.2.3M753.8 134.8l-.5-.2-.4-.2-.2-.2s-.4-.1-.1-.2l.3-.1.4-.2-.3-.7M753.1 134c.2 0 .7.2 1 .1.3-.1.5-.5.8-.5l.4.6.4.1M756.4 133.5c0 .4-.1.6-.4.8M752.6 134.2l1 .3c.2.2.1.5.4.5.3 0 .5-.3.9-.4h1c.4-.1 0-.4-.1-.5M755.7 134.6c-.4.2-.8.2-1.2.3l-.3-.1M754.7 132.6h-.3c-.4 0-.8.1-1.2.2M752.5 133.9c-.1-.4.1-.6.4-.9M757.1 136.4c.5-.3.8-.4 1.2-.7.7-.7 1-1.9.5-2.7-.2-.4-.6-.7-.9-1-1-.7-2.2-.8-3.4-.8s-2.4.2-3.4.9c-.4.3-.9.8-1 1.3v1c0 .4.2.8.4 1.1.4.4.9.7 1.3 1M758.9 133.7c-.2 2.1-2.8 2.5-4.5 2.6-1.7-.1-4.2-.5-4.5-2.5M751.1 136c.4.2.7.4 1.2.5M757.4 136.2l-.5.3h-.2M755.1 132.7c.4.1.8.3 1.1.6M730.2 125.5v3.7M730.6 124.3l-.4 1.2M725 130v1.2M721.6 128.8v-2M725.3 128.8l-.5-.4-.2-.3c-.5-.9.3-1.8 1.1-2.2 1.5-.8 3.5-.8 5-.1 1 .4 1.9 1.5 1.2 2.5l-.5.6M735 128.9v-1.2c0-.7.1-1.4-.2-2-.3-.7-.8-1.2-1.5-1.6-1.4-1-3.2-1.3-4.8-1.3-1.3 0-2.5.1-3.7.5-1.5.5-3.3 1.6-3.3 3.4 0 .3.1.6.2.9.1.3.3.6.5.8.2.3.5.5.9.8 2.4 1.6 5.9 1.7 8.6.8 1.2-.4 2.6-1.2 3.1-2.5.2-.4.1-.5.2-.9"/>
    <path class="st1"
        d="M733 127.1c.1-.3.1-.4.1-.7-.3-1.6-2.4-2.2-3.7-2.4-.6-.1-.7-.1-1.3-.1-.8.1-1.7.2-2.5.5-1 .4-2.4 1.3-2.1 2.6l.3.7.7.7c1.6 1.2 4 1.4 5.9.8 1.1-.4 2.2-.9 2.6-2.1zM782.4 139.6v3.7M782.8 138.3l-.4 1.3M773.9 143v-2M777.5 144.2v1.1M777.6 142.9c-.1 0-.1 0-.4-.4l-.2-.3c-.6-1.1.4-2.1 1.4-2.4 1.5-.7 3.5-.7 5 .2.8.5 1.4 1.3.9 2.2l-.2.3-.3.3h-.1"/>
    <path class="st1"
        d="M784.3 142.5c.3-.2.4-.3.7-.6l.4-.8c.4-1.5-1.4-2.5-2.5-2.8l-.6-.2c-.6-.1-.7-.1-1.3-.1-.9 0-1.7.1-2.5.3-1.3.4-3.2 1.6-2.4 3.2l.5.7.8.6c2.1 1.1 4.9 1 6.9-.3zM787.3 143v-1.2c0-.5.1-1.1-.1-1.7-.3-.9-1-1.5-1.7-2-1.5-.9-3.2-1.2-4.9-1.2-1.3 0-2.5.1-3.8.6-1.4.5-3.2 1.8-3.1 3.5 0 .3.1.6.3.9s.4.6.6.8l.9.8c2.5 1.5 5.9 1.6 8.6.6 1.2-.5 2.5-1.3 3-2.6.2-.4.1-.5.1-.9M756.1 643.2l.2 159.1M724.1 927.3l.4 371.8"/>
    <path class="st2" d="M761.3 1287.9l-.4-360.4M759.6 1287.9l-.4-360.7"/>
    <path class="st1"
        d="M844.3 996.7c-.2-.8-.1-.5-.2-1.2M829.3 894.8c-.3-.7-.3-.9-.7-1.6-1.2-1.9-3-3.3-5.1-3.9l-3.8-1c-1.2-.4-2.1-.2-2.5-1.4-.3-.8-.4-1.9-.3-2.8.1-2.6.8-5.2 1.9-7.5.4-.9 1-1.8 1.7-2.4.3-.3.7-.5 1.1-.5l.5.1 1.8.5 1.8.5c2.2.6 4.3 1.2 6.3 2.2 4.7 2.5 8.8 6.8 10.6 11.8l.4 1.1.2.5.5 2.3v1c.1 1.3.2 2.5.2 3.8l.1 96.5c0 .9.2 1.8-.2 2.7-.7 1.7-2.7 2.5-4.3 2.9l-1.3.2-1.3.1h-1.3l-1.3-.2-1.2-.3c-1.5-.5-3.3-1.5-3.6-3.2l-.1-.8v-1.9l-.1-96v-1.9M829.1 894.3l.2.6.1.8c.1.6.4 1.1.8 1.5.7.8 1.8 1.4 2.8 1.7 2.5.9 5.3.8 7.8-.1 1.2-.5 2.5-1.3 3.1-2.5l.2-.7M844.2 999.8c-1-1.3-.8-2.9-.8-4.4l-.1-96.5c0-2.3-.1-4.4-.7-6.6-.6-2.1-1.7-4.1-2.9-5.9-2.3-3.4-5.5-6.3-9.2-8.3-3.3-1.8-7-2.5-10.6-3.5M823.4 889.3l-.4-.3c-.7-.9-.7-2.4-.6-3.4.1-2.6.8-5.2 2-7.5.4-.9.9-1.8 1.7-2.4.3-.3.6-.5 1.1-.5l.4.1M757.7 792.9l1.9.5 48.2 13c2.3.6 4.5 1.3 6.6 2.4 3.4 1.8 6.4 4.5 8.6 7.8 1.2 1.7 2.1 3.5 2.7 5.5.6 2.1.7 4.2.7 6.4v46.5M757.7 791.7l1.9.5 49.7 13.4c2.1.5 4.2 1.1 6.2 2.1 3.5 1.8 6.5 4.6 8.6 7.9 1 1.6 1.8 3.2 2.3 5 .6 2.1.6 4.3.6 6.4l.1 46.1v1.9M794.1 831.2c.1-2.6.7-5.3 2.1-7.5l.5-.7 1.2-1.5 10.6-13.1c.5-.6 1.3-1.9 2.2-2.3l.4-.1"/>
    <path class="st1"
        d="M794.1 831.2l-1.8-.5-124.3-33.4c-1.2-.3-2.4-.7-3.6-.9l-1.6-.1c-1.3.2-1.9.1-3.1.6-2.4.9-4 2.9-4.5 5.3-.2 1.1-.1 2.4-.1 3.5l.1 88.6c0 1.2 0 2.3.1 3.6.2 1.1.6 2.2 1.1 3.2 1.7 3.4 4.7 6.1 8.2 7.5 1.2.5 2.3.7 3.6 1.1l54.2 14.6c1.5.4 3 .8 4.5 1.3 2.6.9 5.2 2 7.9 2.6 1.7.4 3.5.6 5.3.9 1.5.3 3 .7 4.5 1.1l47.9 12.9c2.3.6 4.6 1.2 6.9.7 2.9-.6 5.3-2.7 5.9-5.8.2-1.1.2-2.4.2-3.5l-.1-88.6c0-1.8 0-3.5-.5-5.2-1.2-3.6-3.9-6.5-7.2-8.4-1.6-.5-2.1-.5-3.6-1.1zM666.1 796.8c.1-2.5.7-5.3 2.1-7.5l.5-.7 1.2-1.5 10.6-13.1 1.2-1.5.5-.5c.2-.2.6-.5.9-.4l1.9.5 40.2 10.8 1.9.5M741.6 932.2c-2.4-.4-4.9-.7-7.2-1.4-2.5-.7-4.9-1.7-7.4-2.5-1.8-.7-1.6-.5-3.5-1.1l-54.3-14.6c-2.1-.6-4.2-1.1-6.1-2.1-3.5-1.8-6.6-4.6-8.6-7.9-1-1.6-1.8-3.3-2.4-5-.6-2.1-.6-4.3-.6-6.4l-.1-88.7c0-1.2-.1-2.6.1-3.8l.4-1.8.2-.8c.4-1.1.7-1.8 1.3-2.8.7-1 1.5-2.1 2.3-3l10.6-13.1c.8-1 1.6-2.1 2.6-2.9 2.3-1.9 5.1-3 8.1-3.3 1.3-.1 2.6-.1 3.9.1l2.1.5M741.5 932.2c1.3.3 2.7.6 4.1 1l47.9 12.9c1.9.5 3.9 1 5.9 1.1 3 .1 6.1-.6 8.6-2.2 1.6-1 2.9-2.5 4-3.9l10.6-13.1c1-1.3 2.2-2.6 3-4.2.6-1.3 1.1-2.8 1.3-4.2.2-1.2.2-2.5.2-3.8v-24.4M825 924.8l.8-1.8.5-1.9c.2-1.3.2-2.7.2-4.1l-.1-24.2v-1.9M805.3 936.7c2.5.5 5.4.5 7.5-1.1.7-.5 1.5-1.6 1.8-2.1l10.6-13.1c.2-.2 1.3-1.5 1.6-2.1l.2-.7M810.8 942.5l1.2-1.6.8-1.8c.7-1.9.6-4 .6-6l-.1-88.7c0-2.1 0-4.2-.6-6.3-.6-2-1.6-3.8-2.7-5.5-2.2-3.2-5.2-5.9-8.6-7.7-2.1-1.1-4.3-1.8-6.6-2.4l-124.3-33.5-4.2-1-2.3-.2-2.2.2c-1.3.2-2.8.6-4 1.2l-1.7 1.1-1.4 1.3M757.5 643.4v1.9l.2 151c0 1.6.2 3.2-.6 4.6-.9 1.9-2.6 3.2-4.4 4.1-2.3 1.2-4.8 1.9-7.4 2.2l-2.4.1h-2.4c-1.9-.2-3.9-.5-5.7-1.1-1-.3-2-.7-2.9-1.2-1.9-1.2-3.9-2.6-4.6-4.8-.4-1.1-.3-2-.3-3.3l-.2-157.8v-1.9M805.2 844.3c2.5.5 5.5.5 7.6-1.1.6-.5 1.4-1.7 1.8-2.1l10.6-13c.2-.2 1.3-1.6 1.6-2.2l.2-.7M794.2 943.8c.1.8 0 2.1.8 2.6l.4.1M742.6 929.9c0 .8 0 2.1.8 2.6l.4.2M724.1 924.9c0 .8 0 2.1.8 2.6l.4.2M666.2 909.4c.1.8 0 2.1.8 2.6l.4.1M651.5 893l.1.7c.4 1.5 2.1 2.2 3.5 2.7M651.4 800.5v.7c.4 1.6 2.1 2.2 3.5 2.7M727 784.7l-1.9-.5-41.6-11.2c-1.4-.4-2.9-.8-4.2-1l-2.3-.2-2.2.2c-1.3.2-2.8.6-4 1.3l-1.7 1-1.4 1.3M844.3 996.6c.3.7.7 1.5 1.2 2.1M829.4 996.1l.2 2.1.5 2.3.2.5.4 1.1c1.3 3.5 3.6 6.6 6.4 9 1.1 1 2.4 1.7 3.7 2.5M897.7 1014.1l-53.4-14.4.7-.7c.3-.3.8-.6 1.3-.6l.6.1 1.9.5 49.7 13.4 1.9.5c.4.2.7.8.8 1.1.4 1.1.4 2.3.4 3.4-.1 3.1-1 6.2-2.4 9-.6 1.2-1.4 2.7-2.7 3.4l-.7.1-.5-.1-1.8-.5-49.7-13.4c-.8-.2-1.8-.2-2.4-.9-.6-.8-.7-1.9-.7-2.8-.2-2.5.4-5.1 1.2-7.5.6-1.8 1.5-3.4 2.5-5M900.2 1012.9l-.5-.1-.7.2c-1.3.6-2.1 2.2-2.7 3.4-1.4 2.7-2.2 5.9-2.4 8.9 0 1.3-.1 3 .8 4.1l.4.4"/>
    <defs>
        <path id="SVGID_1_" d="M475.9 1300z"/>
    </defs>
    <clipPath id="SVGID_2_">
        <use xlink:href="#SVGID_1_" overflow="visible"/>
    </clipPath>
    <path class="st4" d="M475.9 1300l9.7-9.6"/>
    <path class="st0" d="M475.9 1300z"/>
</svg>
