<svg xmlns="http://www.w3.org/2000/svg" xmlns:xlink="http://www.w3.org/1999/xlink"
    viewBox="0 0 1400 1400" enable-background="new 0 0 1400 1400">
    <style type="text/css">.st0{fill:none;} .st1{fill:none;stroke:#000000;stroke-linecap:round;stroke-linejoin:round;stroke-width:3;} .st2{clip-path:url(#SVGID_2_);} .st3{fill:none;stroke:#FFFFFF;stroke-miterlimit:10;}</style>
    <path class="st0" d="M1300 127.8h-1200v1144.5h1200v-1144.5z"/>
    <path class="st1"
        d="M1223 1167.3l-1.1-.3M1222.3 1165.8l.7.2M1223.1 1164l-1.5-.4M1223.5 1166.7h.4M1220.2 1165l1.5.4M1217.9 1167.3l-1.5-.4M1223 1167.8l-.7-.2M1223 1167.3s.1-1.6-.3-1.8M1219 1165.5c1.2.3 1.8-1.7 2.7-2.1.5-.2 1.7.1 1.8.7l.2.9.1 1.1-.8 1.2M1223.4 1163.8c-1.1.1-1.4 1.9-2.6 2.1l-.6-.1c-1.7.1-2.7 2-3.3 3.3-1.6 3.1-2.7 7-2.4 10.5.1 1.1.5 3.7 2.2 2.9l.5-.3.6-.5.6-.8M1220.1 1165.8l-1.5-.4c-1.6.1-2.6 2-3.3 3.3-1.5 2.9-2.3 6.2-2.4 9.5 0 1.2 0 2.9.9 3.8.5.4 1.4.5 1.9.6M1222.7 1165.5c-.7.2-.8 1.4-.8 1.9M1223.9 1166.7c-1 1.4-.8.7-.8 2M1223.9 1166.7c0 1.1 0 2.1-.2 3.2"/>
    <path class="st1"
        d="M1218.2 1168.2c-.9 1.5-1.6 3-2.1 4.7-.3 1.1-.5 2.2-.6 3.3-.1 1.1-.3 3.4.8 4.2l.4.1 1.8.5.9-.3 1.9-1.3.4-.3c1.5-1.5 2.1-4 2.3-6 .1-.9.1-1.9-.2-2.7 0 0-.9-2.4-1.6-2.9l-.4-.1-1.8-.5c-.8.1-1.2.6-1.8 1.3zM1218.5 1181c-1.3-.5-1.3-2.2-1.3-3.3.1-2.8.9-5.8 2.4-8.3.5-1 1.2-1.9 2.3-2M1218.2 1168.2c2.7.8 1.4 0 3.7 2.6M1223.9 1170.4c-.2-.4-.3-.5-.8-.6-1 .4-1.5 1.3-1.9 2.2-.7 1.6-1.2 3.4-1.3 5.1 0 1 .1 2.8 1.5 2.3M185.3 889.4c.2-1.7.1-3.6-.6-5.2-.2-.5-.5-1-.9-1.4-1-.9-2.4-.9-3.7-1.1-2.4.3-3.7 3.1-4.7 5M178.7 887.7c.8-1.5 1.6-3 2.9-4 .6-.5 1.5-.8 2.2-.3.4.2.5.5.8.9M183.3 882.6l-.5-.1c-2.4.3-3.8 3.1-4.7 5M178.9 882.1c-1.8 1.2-2.9 2.7-3.8 4.6M1245.9 280.3l5.5 1.5M1283.4 204.6l8.7 2.3M1234.3 181.1l-27.3-7.3M1261.4 194.7l3.5.9M1245.9 158.4l5.5 1.5M1259.7 178.6c1.7-.7 4.3-2.4 6.4-1.9l3.8 1.1 19.6 5.2 3.8 1.1.9.3c1.4.7 2.3 2.1 2.9 3.4 1.2 2.6 1.5 5.7 1.6 8.5.2 4.9-.3 9.7-1.1 14.5-1.1 6.2-2.9 12.3-5.2 18.1-1.1 2.8-2.5 5.5-3.8 8.3l-21.9 44.7-1.8 3.6-.8 1.6c-2.3 5.3-3.7 10.9-4.3 16.6-.4 4.6-.1 9.2-.1 13.9"/>
    <path class="st1"
        d="M1249.2 292c1.4-3.5 2.4-7.4 2.1-11.1 0-1.4-.4-3.7-2.2-3.7-1.7.4-2.7 2.1-3.5 3.5-2 3.6-3.1 8-3.1 12.1 0 .6 0 1.2.1 1.8.1.5.2 1.1.3 1.5.1.3.3.7.6 1 .8.8 1.9.3 2.6-.3 1.5-1.4 2.3-3.2 3.1-4.8zM1279.9 231c.4.3.5.5 1 .5 2.1.4 3.8-2 4.8-3.5l.8-1.1c1.6-2.7 2.8-5.8 3.7-8.8 1-3.7 1.8-7.4 1.8-11.2l-.1-1.4c-.1-2.3-.6-6-3.4-6-2.7.7-4.4 3.6-5.7 5.9-2.7 5.2-4.5 11.4-4.8 17.3 0 2.8 0 6.1 1.9 8.3zM1263.1 177.1l3.8 1.1 19.5 5.3 3.9 1 1.1-.4c.9-.2 1.1-.1 1.9 0M1290.4 184.5l-3.7 1.6-18.1 7.9c-1.7.8-3.2 1.8-5.2 1.9-3.1-.7-3.6-4.8-3.7-7.4v-34.8c0-2.7.1-5.5-.2-8.1-.3-2.1-.6-4.3-1.6-6.2-.5-1-1.1-1.9-2.1-2.5l-.8-.4-3.9-1.1-19.5-5.3-3.9-1-1-.2c-4.6.4-7.7 5.1-9.8 8.7-2.5 4.3-4.5 8.9-5.9 13.6-1.9 5.8-3.2 11.8-3.7 17.9-.2 2.8-.2 5.7-.2 8.6v165.3"/>
    <path class="st1"
        d="M1245.2 175.4c1.7-.9 2.7-2.6 3.5-4.3 1.5-3.1 2.4-6.7 2.6-10.2l.1-1c0-1.6-.1-4.6-2.3-4.7-1.7.5-2.7 2.1-3.5 3.6-1.8 3.3-2.9 7.3-3.1 11.1v2.1c.1 1.1.3 3.4 1.8 3.7.4-.1.6-.1.9-.3zM1254.9 136.4l-1-.1c-4.6.4-7.7 5.1-9.8 8.7-2.6 4.3-4.4 8.9-5.9 13.5-1.9 5.8-3.2 11.9-3.8 18-.2 2.9-.2 5.7-.2 8.7v163.4M151 841.4c0-1.3 0-2.6-.4-3.9-.2-.6-.5-1.3-1.2-1.6-.7-.4-1.6-.6-2.3-.6-.9 0-1.5.2-2.2.7M147.3 855c-.9 1.6-2 3.4-3.9 4-.9 0-1.8-.2-2.6-.6-1.5-.9-1.6-3.2-1.6-4.6-.1-4.7 1.1-9.6 3.2-13.7.9-1.8 2.5-4.8 4.9-4.8M129.2 830.4c3.2 1.1 7 1.9 10.2 2.8 2 .5 4.6.6 5.7 2.5M145.1 835.7c-.5-.7-.9-1-1.8-1-1.8.6-2.9 2.2-3.7 3.8-2.1 3.7-3.3 8.2-3.5 12.5l-.1 1.3.1 1.2c.1 1.4.5 4.2 2.5 3.9.4-.1.5-.2.8-.4M153 842l-2.6-.7-2.6-.7h-.3c-1.1.4-1.6 1.3-2.2 2.1-1.3 2.2-2.1 5-2.2 7.6-.1 1.1-.1 2.5.5 3.4.5.9 2.8 1.1 3.2 1.2l2.5.7M142.9 859c-2.2-.9-2.1-4.1-2-6.1.1-4.6 1.5-9.6 3.8-13.6.9-1.6 2.2-3.6 4.2-3.6M117 854.9c-2.7.8-3.4.9-6 1.9-.9.3-2.9 1.5-4.2 1.6h-.7999999999999999c-4.3-.8-4.8-6.3-4.8-9.9v-1.6c.3-7.2 2.3-14.7 5.6-21.1 1.4-2.8 3.3-5.8 6-7.5l.8-.4.2-.1.8-.2h.3c.4 0 .7.2.9.5l2.2 2.6c1.5 1.7 3.1 3.4 4.7 5l2.5 2.2 2.6 2.1c1.3 1 4.2 1.4 5.2 1.7l5.9 1.6 3.9 1c.6.1.8.9 1.3 1.3.4.2.8.4 1.3.3M141.4 858.6c-2.7-1-2.7-4.5-2.6-6.9.2-3.9 1.3-7.8 2.9-11.3 1-1.9 2.1-3.8 4-4.9M139.3 857c-.7.2-1.1.5-1.8.5-2.1-.3-2.2-3.2-2.3-4.8v-1.3c.1-4.6 1.5-9.6 3.9-13.6.9-1.5 2.6-4.3 4.7-3.4M145.3 835.8l-.7-.1c-1.7.6-2.7 2.1-3.6 3.6-1.9 3.5-3.1 7.7-3.3 11.7-.1 1.6-.1 3.4.6 4.9.2.4.7 1.1 1.2 1.1M137.3 857.5l-3.9-1-5.8-1.6c-1.5-.4-3.2-1.1-4.8-1.2M123 853.7h-.2c-2.3 0-2.6-3.1-2.6-4.9v-1.3c.2-4.8 1.5-9.8 3.9-13.9.7-1.2 1.5-2.4 2.6-3.2.5-.4 1.1-.7 1.8-.6.4.1.8.4 1.2.6M114.8 817.5h1c2.3.4 3.2 2.4 4.6 4.1 1.7 2.1 2.1 2.5 3.9 4.4M129.7 830.6l-.6-.1c-1.8.6-2.8 2.2-3.7 3.6-2.3 4.1-3.7 9-3.9 13.6 0 1.9-.1 5.2 2.1 6M118.4 819c-.6-.6-1-.9-1.9-1.1-3.5.2-5.9 4.1-7.4 6.8-2.2 3.9-3.7 8.3-4.8 12.6-1 3.7-1.6 7.6-1.6 11.3v1.6l.1 1.6.2 1.4c.3 1.9 1.1 4.9 3.4 5.1.6.1.9-.1 1.5-.2M122.9 853.7h-.1l-3.2.6-3.2.7M128.9 830.1l-2.3-1.9-2.4-2.3M167.8 846l3.9 1.1 18.7 5.1c2.8.8 3.5.5 5.2 1.9.4.3.6.9.7 1.3.2 1 .1 2.1 0 3.1-.3 2.1-.9 4.3-2 6.1-.4.7-.9 1.5-1.6 1.8l-.4.1-1.2.2h-.4l-3.9-1.1-18.8-5.1-3.9-1"/>
    <path class="st1"
        d="M178.8 854.3c2.9.4 2.6 5.6-.3 5.7-1.5-.1-2.7-1.4-2.6-2.9.1-1.5 1.4-2.8 2.9-2.8zM194.2 853.1h-.3c-1 .4-1.7 1.2-2.2 2.1-1.3 2.2-2 5-2.2 7.6-.1 1.3-.2 3.3 1.1 3.9M176 856.6c.4.3.9.5 1.4.6 1.1.3 2.2.6 3.3.7M192.2 866.5c-1.3 0-1.4-1.8-1.4-2.9-.1-2.6.7-5.5 2.1-7.8.5-.9 1.4-2.4 2.6-1.8M167.6 846l3.9 1.1 18.5 4.9c4.3 1.2 2.7.3 4.9 1.8M1209.7 1141l-7.7-2.1M1205.7 1125.4l7.6 2.1M1215.6 1146.8c-.6.3-1.1.4-1.7.5-2.6-.2-2.6-3.7-2.6-5.7.1-4.2 1.2-8.7 3-12.5.8-1.6 1.7-3.3 3.2-4.4.8-.7 1.9-1 2.8-.3.5.4.6.6.9 1.1l.2.1.8-.4c1.8-.4 3.4.5 5.1 1l6.2 1.7 3.8 1.1M1231.3 1152.1c-2.3-.8-2.4-3.7-2.3-5.8 0-4.7 1.4-9.6 3.6-13.6 1-1.8 2.5-4.3 4.9-3.9M1244.7 1142.6c1.7-5.1 3.4-10 6.9-14.1M1246.6 1137l5.8 1.6.2.2c.9.9 1.2 2.3 1.2 3.4 0 .8-.1 1.6-.3 2.3-.5 2.4-1.6 6-4.5 6.6-1.9-.4-4-1.1-5.8-1.6M1241.2 1128.2c-1.6.2-3.3.2-4.7 1.3-1.4 1.2-2.3 2.9-3.2 4.5-1.7 3.6-2.8 7.5-3 11.4-.2 1.8-.2 3.8.5 5.5.6 1.5 2.1 2.2 3.3 3.3 2.1 1.8 2.5 2.3 4.5 4.4M1238.2 1158.3l2 2.4c1.4 1.8 2.2 3.6 4.4 4.2.6.2 1.6.1 2.2-.2 2.2-.9 3.8-2.7 5.2-4.7 2.3-3.3 3.8-7.1 5-10.9 1.5-4.6 2.4-9.5 2.5-14.4v-1.6c-.1-3-.5-6.8-3.3-8.6-.6-.4-1.2-.4-1.9-.5-1.5.1-2.9 1-4.4 1.5-3 1.2-6.1 1.9-9.2 2.7M1221.6 1125.3c-1.8 1.1-2.9 2.9-3.8 4.7-1.7 3.5-2.7 7.4-3 11.3-.1 2.4-.1 6.3 2.8 7.1M1223.8 1125.1l-.5-.2c-2.4.2-3.9 3.2-4.9 5.2-1.9 3.8-3 8.2-3.1 12.5 0 1.6.1 3.4.9 4.7.9 1.6 3.4 1.5 4.7 1.8l5.9 1.6 3.9 1.1M1230.9 1151.9l1 .6M1243.2 1149.7c-.4 3.4-.5 6.7.2 10M1243.9 1161.2c.3.5.4.7.8 1.1 2 1.8 4.4-.5 5.6-1.9l.8-1 .8-1.2c2.2-3.4 3.6-7.4 4.7-11.2 1.1-4 1.9-8.2 1.8-12.3l-.1-1.5c-.1-2.4-.7-6.3-3.8-6.5-.9.3-.5.1-1.3.5M1242.4 1163.6c-2-2.8-2.1-6.6-1.9-10 .3-7 2.2-14.3 5.4-20.7 1.6-3.2 3.5-6.5 6.7-8.3M1253.6 1126.9c-.8.5-1.4 1.1-2.1 1.7M1252.4 1138.5h-.4c-1.1.2-1.8 1.4-2.3 2.4-1.1 2.1-1.8 4.6-1.9 7.1 0 1 .1 2.3 1 3M1244 1161.3c-.5-1.2-.3-.6-.7-1.8M1253.6 1140.4c-.2-.4-.3-.6-.7-.7-1.1.1-1.7 1.1-2.1 1.9-1 1.9-1.6 4.1-1.6 6.3 0 1 .1 2.9 1.6 2.2M1243.2 1149.7c.5-3 1.2-5.9 2-8.9M1252.7 1147.4l3.5 1.2.8.4M1244.8 1142.4c1.7.5 3.4.9 5.1 1.5M1237.1 1128.7h1.2M1220.2 1124.3c-.7-.5-1.7-.6-2.5-.9-2.4.2-3.9 3.2-4.9 5.2-1.9 3.8-3 8.2-3.1 12.5 0 1.6 0 4 1.3 5.2.5.6 1.3.6 2 .8M1215.4 1146.8c-.4.2-.1.1-.8.3-2.4-.1-2.5-3.5-2.5-5.2 0-4.7 1.4-9.7 3.7-13.7l.6-1 .6-.9c.8-.9 2.2-2.4 3.5-1.5.4.3.4.4.6.8M1221.2 1125.4h-.5c-1.7.4-2.7 2-3.5 3.5-2 3.5-3.2 7.7-3.4 11.7-.1 1.9-.2 4.4 1.3 5.9M1220.6 1125.9c.5-.3.9-.6 1.4-.8M1175.1 1131.7l-3.9-1.1-1-.3c-2.8-.8-3.5-.5-5.3-1.9-.7-.7-.7-2.1-.7-2.9.1-2.4.8-5 1.9-7.2.4-.9 1.1-1.9 2-2.3 1.8-.7 4 .4 5.5.8l1.7.5 3.9 1.1M1166.1 1129.1c-.6-.9-.7-1.9-.7-3.1 0-2.6.8-5.3 2-7.6.4-.9 1.1-2.1 2.1-2.6h.8l3.6 1 3.6 1M1190.9 1121.4c-2.3-.6-5.1-1.5-7.4-2-.6-.1-1.3-.1-2-.2-.6-.1-1.2-.3-1.8-.6l-.5-.4M1184.2 1119.6c-.3-1.3-1.3-1.9-2.6-2.1-.9 0-1.6.2-2.3.8M1180.1 1133.1c-.7.6-1.4.8-2.3.8-1-.2-1.8-.6-2.3-1.4l-.2-.5-.2-.5c-.1-.5 1-.5 1.3-.5 1 .1 1.8.7 2.6 1.2.3.3.7.7 1.1.9l7.1 1.9M160.1 861.4l-10.9-3M166.8 862.4l1.2 3.2M165.1 875.7v4.8M169 860.8l-1 4.8M166.5 874.5l-.1.1M166.6 877l-.4-.1M167 877.2l-.2-.2M173.6 870v-7.9M162 868.4v3.9M166.5 873.9l-.2.2M169.5 870.4l-1.3 3.7M163.1 872.8l.2-.1M169.5 875.1l-1.2-.8M165.6 879.8l.1-.1M165.9 879.2l-.3.6M163.4 880.3l-.3-.1M163.4 880.9l-.3-.1M165.8 879.7h-.2M169.5 870.4l.4-.5M163.7 870.6l.1-.2M168.9 861.1l.2.1M162 872.3l-.2-.1M170.3 861.2l-.1 2.9M166.7 863.8l.3.1M169.1 861.2l.3 3.8M168.2 876.7v-1.9M167 877.3l.1-.2M171.5 861.5l.3.6M171.8 862l.1-.4M171.8 862l.1-.1M162.7 872.5l.6.2M168 866.6l.1-.1M168 866.6l1.1-5.4M167 863.9l1 2.8M166.1 875.7h-.3M170.5 863.7l.1-2.4M170.5 863.7l-.3-.1M160.7 874.9l.6.2M167.4 877.3l-.4-.1M165.8 876.2l.4.1M164.9 879l-.4-.1M163.4 877.9v2.4M168.2 871.9v2.2M168.3 874.3l1.6-4.4M167.1 874.5l.2-.6M167.9 874l.3.1M168.3 874.3l-.4-.1M166.7 868.4l-.3-.1M166.7 868.4l.3-4.5M166.2 874.4l.3.1M160.1 886.5v-21.1c0-2.4-.1-4.7.1-7.1.3-3.3 1.1-6.7 2.2-9.9 1.2-3.4 2.7-7.2 5.5-9.7.4-.4.9-.8 1.4-1l.6-.2c2-.4 2.9 1.8 3.3 3.4.2.8.3 1.6.3 2.4l.1 1.3v3M165.9 860c-.5.2-.2.1-.8.2-1.4-.3-1.5-2.2-1.5-3.4 0-3.2 1-6.7 2.7-9.4.5-.8 1.8-2.5 2.9-1.5l.3.5M149.2 883.6v-21.1c0-2.3-.1-4.7.1-7 .5-5 1.9-10 4.1-14.4.9-1.9 2.1-3.8 3.6-5.3.6-.5 1.3-1.1 2.1-1.2.5-.1.7 0 1.2.1l3.9 1 3.2.9 3.9 1.1M166.1 863.2c-.3 1.8-.9 6.4-1.3 8.2l-.3.3M167.4 877.6c0-.6 0-1.1-.6-1.2M163.4 880.3c2-2.5 1.5-1.1 1.5-4.3M167.1 874.5v-.2M169.4 865l.3-.4-.3-3.7M164 865.9c0 1.6.2 3.7-.1 5.5M167 877.3v.8M161.8 872.6v.3M163.8 870.4v-4.1M163.7 871v-.4M165.9 879.2l.1.2M162 868.4l-.2.3v3.9M164.9 879c-1.9 2.4-1.5 1.1-1.5 3.7M163.2 872.2l-.3.1h-.2M166.3 874.1c-.3.7-1.1 2.3-.2 2.8M167.3 873.9l-.3-.3-.5.3M164.5 871.8l1.2-8.2.3-.4M166.4 868.7l.4-6.3M166.4 874.6c-.2.3-.6 1.2-.2 1.6l.6.2M169.1 875.5l-.9-.7h-.3M168.2 871.9l-.3.4v4.7M162.6 872.9l.5-.1M163.3 872.7c.3-.4.4-.8.6-1.3M161.3 874.5c.3-.5.4-1.1.4-1.6M162 872.3c0 .9 0 1.7-.4 2.4-.1.4-.4.7-.7.8l-.3-.1M169.3 875.3l-.2-.1-1.2-.8M163.4 872.1c.2-.3.3-.7.4-1.1M166.1 876.2l.3.8M166.1 876.9l.7.1M163.4 877.9l-.3.4v4.7M167 874.4l-.7-.3M161.3 874.6l-.3.1h-.2M166.8 874.3l-.3.2M1218.5 1208.6l-.3-.1M1218.5 1207l-1.2-.3M1214.7 1202.2l-1.4-.4M1219.2 1206.2l-1.3-.4M1215.1 1209.3l1.4.4M1217.5 1208.3l-.5-.2M1216.4 1207.4l-1.5-.4M1217.2 1207.1l1 .3M1214.3 1205.4l1.5.4M1218.2 1207.4v1.6c-.1.4-1 1.1-1.4 1.2-.7-.2-1.7 0-1.7-.9l-.2-2.3c0-.4-.1-.7-.2-1-.1-.4-.4-.5-.7-.9-.2-.3-.3-.6-.4-1-.5-1.5-.4-3.1-.2-4.6.4-2.8 1.2-5.7 2.7-8.2.5-.9 1.2-1.9 2.1-2.4.4-.1.6-.1 1-.1l1.4.4c1.1.4 1.3 1.9 1.4 2.8M1216.8 1210.2l-.3-.5c0-.8 0-2.4-.3-3.3l-.7-.9c-.3-.3-.4-.6-.5-1-.4-1.5-.3-3.1-.1-4.6.3-2.5 1-5 2.1-7.2.7-1.3 1.8-3.5 3.6-3.4M1220.2 1204.7c-.1 1.6-.7 2.6-1.7 3.9M1219.7 1205.1c-.1.4-.2.8-.5 1.1l-.7.8v1.6M1217.2 1208.4l-.2-.8c.2-.9.7-1.5 1.2-2.1M1217.2 1208.4c.5-.1.8-.8 1-1"/>
    <path class="st1"
        d="M1215.5 1202.8c-.1-1.8.1-3.4.6-5.2.3-1.1.7-2.1 1.2-3.1s1.2-2.5 2.4-2.9c.3-.2.4-.1.8 0l1.9.5.5.8 1.1 2 .1.5c.3.9.2 2 0 2.9-.3 1.8-.9 3.9-2.1 5.3l-.4.3-2 1.3c-.4.3-.3.3-.8.4-1.6-.5-2.7-.4-3-2-.2 0-.2 0-.3-.8zM1222.2 1192l-.4-.1c-1.2.2-1.8 1.2-2.4 2.1-1.4 2.4-2.2 5.5-2.2 8.3 0 1.1.1 2.3 1 3.1M1223.8 1194.8c-.3-.4-.2-.2-.6-.4-.9 0-1.4.9-1.8 1.6-1 1.7-1.6 3.8-1.6 5.8 0 .6.1 2.5 1.2 2.2l.4-.2M1215.4 1201.9c2.7.7 1.2.6 4.5-.1M1206 1145.1l-1.3-3.2M1200 1147.8v3.9M1211.5 1149.4v-2.7M1203.1 1159.9v-4.8M1206.9 1140.2l-.9 4.9M1204.5 1156.5l-.4-.1M1204.9 1156.7l-.2-.2M1207.4 1149.8l-1.3 3.7M1206.3 1153.7l1.1.8M1204.3 1153.5l.1-.2M1204.9 1153.9h.2M1201.3 1152.1l-.2.2M1204.3 1154.1l.1-.1M1187.1 1137.9l10.9 2.9M1203.5 1159.3l.1-.2M1203.8 1158.6l-.3.6M1201.3 1159.7l-.3-.1M1201.3 1160.3l-.3-.1M1203.6 1159.2l.1-.2M1207.4 1149.8l.3-.4M1201.6 1150.1l.1-.2M1206.9 1140.5l.2.1M1200 1151.7l-.3-.1M1208.2 1140.6l-.1 2.9M1204.6 1143.2l.3.1M1207.1 1140.6l.2 3.8M1206.1 1156.1v-1.8M1205 1156.8v-.3M1208.3 1143.2l.2-2.5M1208.3 1143.2l-.2-.1M1204 1155.2l-.3-.1M1206.1 1151.4v2.1M1206.3 1153.7l1.4-4.3M1204.6 1147.8l.3-4.5M1204.6 1147.8l-.3-.1M1205.9 1146.1l-1-2.8M1206 1146.1l1.1-5.5M1206 1146.1v-.2M1199.3 1154.5l-.6-.1M1205.3 1156.8l-.4-.1M1203.7 1155.5l.5.2M1205 1154l.2-.7M1206.1 1153.5h-.2M1205.9 1153.6l.4.1M1201.3 1157.4v2.3M1202.4 1158.3l.4.1M1200.6 1152l.7.1M1204.1 1153.9l.3.1M1211.5 1127v-3l-.1-1.4c-.1-2.1-.5-5.3-2.9-5.7-1.5.1-2.5.9-3.4 2-1.2 1.3-2.1 2.9-2.9 4.4-2.2 4.5-3.6 9.5-4.1 14.4-.3 2.4-.2 4.7-.2 7.1v21M1205.2 1157.1c.1-.6.1-1.1-.5-1.3M1207.4 1125.9c-.2-.4-.5-.6-1-.7-1.2.2-2 1.5-2.6 2.5-1.4 2.6-2.2 5.7-2.2 8.7v.8c.1.9.3 2.6 1.4 2.5.4 0 .5-.1.8-.2M1201.6 1150.1v.3M1204.9 1157.6l.1-.8M1201.9 1145.4c0 1.6.2 3.7-.1 5.5M1201.7 1145.7v4.2M1202.5 1151.3l.2-.4c.4-1.8 1-6.4 1.3-8.2M1207.3 1140.4l.3 3.7-.3.3M1202.8 1155.5c0 3.2.5 1.8-1.5 4.2M1199.7 1152.3v-.3M1209.2 1117c-3.8-1.1-7.7-2.2-11.5-3.1-2.6.2-4.4 3.1-5.6 5.2l-.7 1.3c-2.2 4.5-3.6 9.5-4.1 14.5-.2 2.3-.1 4.7-.1 7v21.1M1203.8 1158.6l.1.3M1200 1147.8l-.3.3v3.9M1202.8 1158.4c-1.9 2.4-1.5 1.1-1.5 3.7M1201.2 1151.6l-.3.1h-.2M1204.3 1153.5c-.4.7-1.1 2.3-.2 2.8M1205.2 1153.3l-.3-.3-.5.3M1202.5 1151.3c.2-1.8.8-6.4 1.2-8.3l.3-.3M1204.3 1148.1l.4-6.2M1204.3 1154.1c-.2.4-.6 1.2-.2 1.6l.6.2M1207 1155l-.9-.7-.2-.1M1206.1 1151.4l-.2.3v4.7M1200.5 1152.3l.6-.1M1201.3 1151.5c.2-.3.3-.7.4-1.1M1198.6 1154.8c.4.2.6-.1.8-.4.5-.8.6-1.7.6-2.7M1207.2 1154.7h-.2l-1.1-.8M1201.8 1150.8c-.1.5-.3.9-.5 1.3M1204 1155.6l.3.7M1204 1156.3l.7.2M1198.7 1154.2l.5-.1M1204.9 1153.9l-.7-.3M1199.7 1152.3c0 .6-.1 1.2-.4 1.7M1201 1162.4v-4.7l.3-.3M1204.7 1153.7l-.3.3M152.6 905.7l7.3 1.9M165 891.6l-7.3-1.9M189.4 890.6v-12.3M152.6 905.7c.2-4.9 1.4-10 3.9-14.2 1.1-1.8 2.5-3.3 3.7-4.9l16.1-20 2.5-3.1M186.1 865.4l-2.5 3.2-16.1 20c-1.3 1.6-2.7 3.1-3.7 4.8-2.5 4.3-3.7 9.3-3.9 14.2M1179.3 1164.7l-7.3-2M1174.2 1180.7l-7.3-2M1187.1 1155l-2.5 3.1-2.8 3.4c-1.2 1.6-2.6 3.1-3.7 4.9-2.4 4.2-3.6 9.3-3.8 14.2M1166.9 1178.7c.2-4.9 1.4-10 3.9-14.2 1.1-1.8 2.5-3.4 3.7-4.9l10.1-12.5 2.5-3.1M1204.7 1177.2h-.2M1190.5 1237.2l7.3 2M1231.5 1224l.2.1M1227.3 1177.2l4.4-5.4M1231.5 1171.7l.2.1M1227.3 1177.2v-22.9M1223.9 1153.6l.9-1.1M1223.9 1153.6v-3.6M1198.4 1165.8l7.2 1.9M1202.2 1208.2h-.2M1190.5 1211.7l7.3 2M1202.2 1233.8l-4.4 5.4M1214 1231.7l3.8 1.1M1231.7 1224.1l-4.4 5.5M1205.4 1176.1l.2.1M1202 1260.5l.2.1M1197.8 1266l-7.3-1.9M1220.6 1149.1l-2.5 3.1-10 12.4-2.5 3.1v8.5l-.9 1-1.2 3.9-.1.4-1.2 3.8v22.9l-4.4 5.5v25.5M1202.2 1233.8v26.8l-4.4 5.5.1 1.1s.3 2.2.9 3.1c1.2 1.8 3.1.2 4.1-1l2.5-3.1 18.6-23.2c1.3-1.5 2.7-3.1 3.7-4.9 2.5-4.2 3.7-9.1 3.9-14M1227.3 1229.6v-26.9l4.4-5.4v-25.5M1227.3 1154.3l-2.5-1.8h-.3M1213.4 1147.1l-2.6 3.2-9.9 12.3-2.5 3.2v.2M1213.1 1180h-.2c-1.3-.4-1.3-2.2-1.3-3.3 0-3.1.9-6.5 2.5-9.2l.4-.7c.6-.8 1.9-2.1 2.8-.9M1213.7 1204.4c-.5.2-.3.1-.8.2-1.3-.4-1.3-2.2-1.3-3.3 0-2.9.8-5.8 2.1-8.4.6-1.1 1.7-3.2 3.2-2.7M1190.7 1211.4l-.2.3v25.5"/>
    <path class="st1"
        d="M1211.7 1240.4v.8c.1 1 .6 3.1 2 2.3l.8-.7c.4-.3.6-.7.9-1.2 1.5-2.5 2.4-5.8 2.4-8.8 0-1.2 0-2.9-1.3-3.3-1.1.1-1.8 1.1-2.4 2-1.6 2.6-2.3 5.8-2.4 8.9zM1190.7 1263.8c-.4.6-.1 1.6 0 2.3l.2.9.3.7c.8 1.9 2.8 1.7 4.7 2.2l3.6 1M136.3 953.4v-25.5M129 925.9l7.3 2M136.3 953.4l-7.3-1.9M129 978.3l7.3 2M136.8 880l7.3 1.9M129 951.5v-25.6l.2-.3M136.5 980c-.4.6-.3.2-.1 1.4.1 1.3.5 3.8 2.1 3.9 1.2.1 2.2-1 2.9-1.8l1.5-1.8M138 985.2l-3.6-1c-1.9-.5-3.9-.4-4.8-2.3l-.3-.7-.2-.9c-.1-.7-.4-1.8 0-2.4M149.2 864.7l-2.6 3.1-7.3 9.1-2.5 3.1v.2M144.1 882.2v-.3l5.1-6.3M1284.5 407.6l-495.6 613.7M1273.6 316.3l-550.9 682.1M1284.5 329.1l-547.7 678.1M1207 312.8l-544.6 674.4M671.8 984.7l535.2-662.6M700.1 1124.2l-9-2.5M691.1 1057.3v64.4M958.6 689.9l-29-7.8M965.1 638l-35.5 44.1M1233 350.1l-29-7.9M1207 338.5l-3 3.7M636.5 1111.2l-9-2.4M627.5 1036.1v72.7M1258.5 318.6l-25.5 31.5M994.2 645.9l-29.1-7.9M965.1 646.2l23.6 6.4M994.2 645.9l-35.6 44M1274.1 351.7l-5.5-1.5M1006 717.6l-5.5-1.4M1274.1 410.6l-5.5-1.4M1258.5 318.6c2.6-2.6 6.3-3.5 10-3.3 7.5.4 15.8 5.6 16.1 13.8v74.5c0 2.5.5 5.9-1.2 8.2l-2.5 3.1-487.6 603.7-2.5 3.1M1269.3 425.1c-.7.6-1.2 1-2.1 1.2-1.9-.5-2-3-2-4.7l.1-1.6c.3-4.1 1.6-8.6 4-12l.7-.9.8-.7.7-.4c1.9-.8 2.5 1.9 2.6 3.2l.1 1.4M662.4 987.2c.7-.9.8-1.1 1.8-1.7 3.7-2.3 7.8-.8 11.6.2l43.1 11.6 3.9 1.1 1.8.6c3.4 1.4 5.9 3.8 7.8 6.9M1001.9 714.2c-3.1 3.9-4.8 9.4-4.8 14.5v1.4c.2 1.3.8 4 2.6 3.2.7-.3.9-.6 1.4-1.1M1270 348.2c-3.2 4-4.6 9.4-4.8 14.5M965.1 638v8.2l-2.5 3.2-25.2 31-2.5 3.2M1265.3 362.7l.1 1.4c.1 1.3.7 4 2.6 3.2l.6-.4.8-.6.7-1c2.4-3.4 3.7-7.9 4-12l.1-1.6c0-1.7-.1-4.2-2-4.7-.9.2-1.3.6-2.1 1.2M1001.2 732.1c3.2-3.9 4.8-9.5 4.8-14.5 0-1.7-.1-4.2-2-4.7-.9.2-1.4.6-2.1 1.2M1274.1 410.6c-.2 5.1-1.5 10.4-4.8 14.5M160.1 886.5l-23.5-6.3M134.1 883.3l23.4 6.3M260.4 909.7l-90.2-24.3M165.1 891.6l1006.8 271.1M1086.7 1132.2l90.2 24.2M1100.3 1123.5l84.9 22.9M1176.9 1156.4v.3M1197.8 1187.2l-1068.8-287.8M160.1 886.8v-.3M1179.4 1164.8l23.5 6.3M1182 1161.6l23.4 6.3M1190.5 1211.4l7.3 1.9M1190.5 1211.4v26.2M129 978l1068.8 287.7M136.3 953.7v-26.1M129 925.6l7.3 2M129 951.8l7.3 1.9M1201.8 1234.2l.2.1M1190.5 1237.6l7.3 1.9M1190.5 1237.6l.2-.3M1187.1 1138.7l-86.8-23.3-13.6 16.8M274 892.9l-13.6 16.8M183.8 876.8l84.7 22.8M183.8 868.6l90.2 24.3M194.6 863.9l969.8 261.1M1164.8 1122.4l-969.3-260.9M636.5 1112.1l-9.8-2.6M636.5 1112.1v-73.6M626.7 1035.9l9.8 2.6M626.7 1035.9v73.6M627.5 1108.6l-.8.9M700.1 1125.2l-9.8-2.7M700.1 1125.2v-65.5M690.3 1057.1l9.8 2.6M690.3 1057.1v65.4M691.1 1121.5l-.8 1M1231.5 1197.6h.2M1227.5 1176.6v-25.6M1224.1 1150.1v2.9M1223.9 1153h.2M1226.1 1150.5l-2 2.5M129 925.6v-26.2l.1-1.6c.3-3.6 1.2-7.3 2.7-10.6 1.2-2.6 3-4.8 4.8-7.1M152.4 905.8c.2-4.7 1.3-9.5 3.5-13.7 1.1-2 2.6-3.8 4.1-5.6M1176.9 1156.4c-2 2.4-4.2 4.9-5.9 7.5-2.8 4.4-4.1 9.8-4.3 15M160.1 907.8c.2-5.2 1.4-10.6 4.3-15 1.7-2.6 3.9-5 5.8-7.4M1174.4 1180.9c.2-4.7 1.3-9.5 3.5-13.7 1.1-2.1 2.6-3.8 4.1-5.5M1197.8 1213.3l4.2-5.2v-26.1l.1-.4c.1-1.7 1-2.6 2-3.8l1.3-1.6v-8.2M1197.8 1213.3v-26.1l.1-1.6c.3-3.6 1.2-7.3 2.7-10.6 1.2-2.7 3-4.8 4.8-7.1M1202 1234.3l-4.2 5.2v26.200000000000003M1202 1234.3v26.200000000000003l-4.2 5.2M129.2 951.5l-.2.3v26.200000000000003M152.6 984.3l.1 1.5.2 1.3.3 1c.9 2.2 3.5 2.1 5.5 2.7l1013.8 272.9 3.9 1c.4.1 1-.1 1.4-.4 1.2-.7 2.1-2.1 3-3.2M1176.3 1264.7c-2.1-.8-2-3.4-2.1-5.3M1100.3 1115.4v8.1l-2.5 3.2-3.1 3.8-2.5 3.1M186.3 865.5l-2.5 3.1v8.2M1227.5 1229v-26.2l4.2-5.2M1227.5 1229l4.2-5.3v-26.099999999999998M1227.5 1176.6l4.2-5.2v-19.1"/>
    <defs>
        <path id="SVGID_1_" d="M100 1272.2z"/>
    </defs>
    <clipPath id="SVGID_2_">
        <use xlink:href="#SVGID_1_" overflow="visible"/>
    </clipPath>
    <path class="st3" d="M100 1272.2l11.7-11.6"/>
    <path class="st0" d="M100 1272.2z"/>
</svg>
