<?xml version="1.0" encoding="utf-8"?>
<!-- Generator: Adobe Illustrator 21.1.0, SVG Export Plug-In . SVG Version: 6.00 Build 0)  -->
<svg version="1.1" id="Ebene_1" xmlns="http://www.w3.org/2000/svg" xmlns:xlink="http://www.w3.org/1999/xlink" x="0px" y="0px"
	 viewBox="0 0 1400 1400" style="enable-background:new 0 0 1400 1400;" xml:space="preserve">
<style type="text/css">
	.st0{fill:none;}
	.st1{fill:none;stroke:#000000;stroke-linejoin:round;stroke-width:3;}
	.st2{fill:none;stroke:#FFFFFF;stroke-miterlimit:10;}
</style>
<path class="st0" d="M1300,257H100v886h1200V257z"/>
<path class="st1" d="M1288.1,897.8c-2.3-0.6-5.6,4.3-7.4,11c-1.8,6.6-1.4,12.6,0.9,13.2c1,0.3,2.2-0.5,3.3-1.9 M1290.2,903.3
	c0-3.2-0.8-5.2-2-5.5 M1284.9,920c2.9-3.6,5.3-11.1,5.3-16.7 M1284.1,954c-2.3-0.6-5.6,4.3-7.4,11c-1.8,6.6-1.4,12.5,0.9,13.1
	c0.9,0.3,2.1-0.4,3.2-1.8 M1286.1,961.2c0.3-4.2-0.5-6.8-1.9-7.2 M1277.2,863.8c0.8,0.6,1.8,0.2,2.9-0.8 M1284.1,839.9
	c-2.3-0.6-5.6,4.3-7.4,11c-1.1,4.1-1.4,8-0.9,10.5 M1286.1,847.2c0.3-4.2-0.5-6.8-1.9-7.3 M1278.6,801.8c-2.3-0.7-5.6,4.2-7.4,10.9
	c-1.8,6.6-1.4,12.6,0.9,13.2c0.9,0.3,2.1-0.5,3.3-1.9 M1280.5,809c0.3-4.2-0.5-6.8-1.9-7.2 M1270,1037.7c-2.3-0.7-5.6,4.3-7.4,10.9
	c-1.8,6.7-1.4,12.6,0.9,13.2c1.2,0.3,2.6-0.9,4-3 M1271.8,1046.7c0.7-5.1-0.1-8.5-1.8-9 M1251.5,1073.9c-1.4,2.1-2.5,4.9-3.4,7.9
	c-1.8,6.7-1.3,12.5,0.9,13.2c1,0.3,2.1-0.5,3.3-1.9 M1255.6,1070.9c-1.2-0.3-2.7,0.9-4.1,3 M1252.4,1093.1c1.7-2.1,3.2-5.4,4.2-9.1
	c1.8-6.6,1.4-12.5-0.9-13.1 M1229,910.7c-1.1,3.1-1.8,6.4-2.1,9.2 M224.1,376.4c6.3,1.6,13.6,0.1,16.6-3.5 M151.3,350.1
	c-0.3,0.6-0.5,1.3-0.5,2c0,4,5.6,7.2,12.5,7.2c4.9,0,9.3-1.6,11.3-4.2 M175.8,352.1c0-4-5.6-7.2-12.5-7.2c-5.7,0-10.5,2.2-12,5.3
	 M174.6,355.1c0.8-1,1.2-2.1,1.2-3 M1183.2,541c0-2.9-3-5.4-7.3-6.6 M1159.4,538c-0.8,1-1.1,2-1.1,3c0,4,5.6,7.3,12.5,7.3
	s12.5-3.3,12.5-7.3 M296.4,302.3c0-2.5-2.2-4.7-5.5-6 M272.5,299.3c-0.8,1-1.2,2-1.1,3c0,4,5.6,7.2,12.5,7.2s12.5-3.2,12.5-7.2
	 M230.3,284.6c0-1.7-1-3.3-2.7-4.5 M206.5,281.5c-0.8,1-1.2,2.1-1.2,3.1c0,3.9,5.6,7.2,12.5,7.2s12.5-3.3,12.5-7.2 M180.6,599.6
	c-2.3-0.6-5.7,4.3-7.4,11c-1.8,6.7-1.4,12.5,0.9,13.2c1,0.3,2.1-0.5,3.2-1.8 M182.6,605.1c0-3.3-0.8-5.2-2-5.5 M177.4,621.8
	c2.9-3.6,5.3-11.1,5.3-16.7 M176.5,655.8c-2.3-0.6-5.6,4.3-7.4,11c-1.8,6.7-1.4,12.6,0.9,13.2c0.9,0.2,2.1-0.5,3.2-1.9 M178.5,663
	c0.3-4.2-0.5-6.8-2-7.2 M169.6,565.7c0.8,0.5,1.8,0.2,2.9-0.8 M176.5,541.8c-2.3-0.6-5.6,4.3-7.4,11c-1.1,4.1-1.4,8-0.9,10.5
	 M178.5,549c0.3-4.1-0.5-6.8-2-7.2 M171,503.6c-2.3-0.6-5.6,4.3-7.4,11c-1.8,6.7-1.4,12.6,0.9,13.2c1,0.3,2.2-0.5,3.3-1.9
	 M173,510.8c0.3-4.1-0.5-6.8-2-7.2 M162.5,739.5c-2.3-0.6-5.6,4.3-7.4,11c-1.8,6.6-1.4,12.5,0.9,13.2c1.2,0.3,2.6-0.9,4.1-3
	 M164.2,748.5c0.7-5.1-0.1-8.5-1.8-9 M143.9,775.7c-1.4,2.1-2.5,5-3.3,7.9c-1.8,6.6-1.4,12.5,1,13.2c1,0.3,2.1-0.5,3.3-1.9
	 M148,772.7c-1.2-0.3-2.7,0.9-4.1,3.1 M144.8,794.9c1.7-2.1,3.2-5.5,4.1-9.1c1.7-6.6,1.4-12.5-0.9-13.2 M121.4,612.5
	c-1.2,3.2-1.9,6.4-2.1,9.2 M110.6,829.2c0.4,5.2,1.5,9.2,3,11.5 M114.3,367.3c-2.1-0.6-3.8,0.5-3.8,2.4 M1208.6,665.3
	c0-1.3-0.7-2.5-1.8-3.5c-0.6-0.5-1.3-0.8-1.9-1 M1209.8,1131.5c1.1,4.1,2.7,6.5,4.8,7.5 M114.3,358.8c-5.1-1.4-9.5,0-11.7,3.3
	 M1218,667.8c0-4.3-2.5-8.8-6.4-11.9c-2.2-1.8-4.5-3-6.8-3.6 M1218,1123.4c0,18.8,7.9,24.2,17.6,12.2 M1281.4,1079
	c9.7-12.1,17.6-37,17.6-55.8 M1299,567.6c0-4.3-2.5-8.7-6.4-11.9c-2.2-1.7-4.5-2.9-6.8-3.5 M195.2,258.6c-4.4-1.2-8.3-0.3-10.7,2
	 M102.2,833.4c1.1,4,2.8,6.5,4.8,7.4 M118.1,843.8c2.4,0.2,5.2-1.3,7.9-4 M173.8,780.8c9.8-12.1,17.6-37,17.6-55.8"/>
<path class="st1" d="M1128.6,608.6c0-4-5.6-7.2-12.5-7.2s-12.5,3.2-12.5,7.2s5.6,7.2,12.5,7.2
	C1123.1,615.8,1128.6,612.6,1128.6,608.6L1128.6,608.6z M1137,608.6c0-6.7-9.3-12-20.8-12c-11.5,0-20.8,5.4-20.8,12
	c0,6.7,9.3,12,20.8,12C1127.6,620.6,1137,615.3,1137,608.6L1137,608.6z M1194.6,626.4c0-4-5.5-7.2-12.5-7.2
	c-6.9,0-12.5,3.2-12.5,7.2s5.6,7.2,12.5,7.2C1189.1,633.6,1194.6,630.4,1194.6,626.4z M1203,626.4c0.1-6.6-9.3-12-20.8-12
	s-20.8,5.4-20.8,12c-0.1,6.6,9.3,12,20.7,12.1C1193.7,638.4,1203,633,1203,626.4L1203,626.4z M1249.2,558.8c0-4-5.5-7.2-12.4-7.2
	s-12.5,3.2-12.5,7.2s5.6,7.2,12.4,7.2C1243.6,566.1,1249.2,562.8,1249.2,558.8z M1257.6,558.8c0-6.7-9.4-12-20.9-12
	c-11.5,0.1-20.8,5.4-20.8,12.1c0,6.6,9.4,12,20.9,12C1248.2,570.8,1257.6,565.5,1257.6,558.8z M127.8,604.8c-1.7-0.5-3.9,2-5.7,5.9
	 M129.8,610.3c0-3.2-0.8-5.2-2-5.5 M119.3,732.2c0,3.2,0.8,5.1,2,5.5c2.3,0.7,5.6-4.3,7.4-10.9c0.7-2.8,1.1-5.5,1.1-7.7
	 M161.6,757.7c1.4-3,2.2-6.1,2.6-9.2 M175.7,559.9c1.3-3,2.2-6.1,2.6-9.1 M170.2,521.7c1.3-2.9,2.2-6.1,2.6-9.1 M1126.2,612.8
	c-2.4-1.9-6.2-3-10.1-3c-4.2,0-7.8,1.2-10.1,3 M1192.3,630.6c-2.4-1.9-6.2-2.9-10.1-3c-4.1,0-7.8,1.2-10.1,3 M1246.8,563.1
	c-2.4-1.9-6.2-3-10.1-3c-3.6,0-6.8,0.9-9.1,2.3 M1174.2,542.6c-5.1-0.9-10.5,0.3-13.5,2.7 M1175.9,534.5c-6.3-1.7-13.6-0.1-16.6,3.5
	 M289.2,304.3c-4.9-1.4-10.8-0.6-14.4,1.6 M290.8,296.3c-2.1-0.8-4.6-1.2-6.9-1.2c-5,0-9.3,1.7-11.4,4.2 M223.2,286.5
	c-5.5-1.5-11.9-0.5-15.4,2.3 M227.6,280.1c-2.5-1.8-6.1-2.7-9.8-2.7c-5,0-9.3,1.7-11.3,4.2 M173.3,356.3c-2.4-1.9-6.1-3-10-3
	c-4.1,0-7.8,1.1-10.1,3 M239.4,374.1c-2.4-1.9-6.1-3-10.1-3c-4.2,0-7.8,1.1-10.1,3 M241.8,369.9c0-4-5.6-7.2-12.5-7.2
	s-12.5,3.2-12.5,7.2c0,2.8,3,5.3,7.3,6.5 M240.6,372.9c0.8-1,1.2-2,1.2-3 M1235.3,903c-1.6-0.4-3.8,2-5.6,6 M1237.4,908.5
	c0-3.3-0.8-5.2-2-5.5 M1226.8,1030.4c0,3.3,0.8,5.2,2,5.5c2.3,0.7,5.6-4.3,7.4-10.9c0.8-2.8,1.1-5.5,1.1-7.7 M1269.2,1055.8
	c1.3-2.9,2.2-6.1,2.6-9.1 M1283.3,858.1c1.3-3,2.2-6.1,2.6-9.2 M1277.7,819.9c1.3-3,2.2-6.1,2.6-9.1 M1280.9,862.2l-0.8,0.9
	 M1237.4,1017.3V908.5 M1229.7,909l-0.7,1.7 M173.3,564l-0.8,0.9 M129.8,719.1V610.3 M122.2,610.8l-0.8,1.7 M110.5,369.6l2-2.4
	 M110.5,369.6l-9.4-2.5 M1299,567.6l-81,100.2 M1208.6,665.3l9.4,2.5 M1208.6,1120.8l9.4,2.6 M101.1,822.7l9.4,2.5 M1204.8,660.8
	L114.3,367.3 M1225.6,1141.9l-11.1-3 M1204.8,652.4L114.3,358.8 M1218,1123.4V667.8 M1281.4,1079l-45.7,56.6 M1299,567.6v455.6
	 M195.2,258.6l1090.6,293.6 M118.1,843.8l-11.1-3.1 M191.4,388v337 M1286.1,959.5l-6.5-1.7 M123.3,608.6l6.5,1.7 M120.4,716.6
	l9.4,2.5 M150.1,778.2l-6.6-1.7 M164.5,745l-6.6-1.7 M178.6,661.3l-6.6-1.7 M176,603.4l6.6,1.7 M172,545.5l6.6,1.7 M178.5,549
	l-0.2,1.8 M166.5,507.3l6.5,1.8 M173,510.8l-0.3,1.8 M1104.8,605.6v6 M1170.9,623.3v6.1 M1225.4,555.8v6 M1159.4,538v6 M272.5,299.2
	v6.1 M206.5,281.5v6 M152,349v6.1 M218,372.9v-6.1 M1230.8,906.7l6.6,1.8 M1227.9,1014.8l9.5,2.5 M1257.6,1076.4l-6.5-1.8
	 M1272.1,1043.3l-6.6-1.9 M1283.6,901.6l6.6,1.7 M1279.6,843.7l6.5,1.7 M1286.1,847.2l-0.2,1.7 M1274.1,805.5l6.5,1.7 M1280.5,809
	l-0.2,1.8 M1285.1,966.8l-1.1,3.7 M1180.7,545.3l-1.5-1c-1.6-0.9-3.3-1.3-5-1.7 M293.9,306.6c-1.6-1.1-2.9-1.7-4.8-2.3 M227.9,288.8
	c-1.6-1.1-3-1.7-4.7-2.3 M177.5,668.6l-1.1,3.6 M195.2,258.6l-2.6,3.2l-75.7,93.7l-2.6,3.3v8.5 M1285.8,552.2l-2.6,3.2l-75.7,93.7
	l-2.7,3.3v8.4 M113.6,840.6c1,1.3,1.4,2,2.8,2.7l1.6,0.5 M110.5,369.6V821l0.1,8.2 M1209.7,1131.5c-0.6-3.1-0.8-3.4-1-6.7l-0.1-8.1
	V665.3 M102.2,833.4c-0.6-3.1-0.8-3.4-1-6.7l-0.1-8.2V371.3c0-3-0.4-6.6,1.5-9.2l2.6-3.2l76.8-95l2.6-3.2 M173.8,780.8l-2.6,3.2
	l-40.5,50.2l-2.6,3.2l-2.2,2.4 M1285.1,966.8c0.4-1.8,0.8-3.6,1-5.5 M1284,970.5c-0.9,2.1-1.8,3.9-3.1,5.8 M119.3,732.2V621.7
	 M120.4,615.8v96.6c0,4,0,7.9-1.1,11.8 M161.6,757.7c-0.9,2-0.5,1.1-1.5,2.9 M177.5,668.6c0.5-1.8,0.7-3.7,0.9-5.6 M176.4,672.2
	c-0.9,2.1-1.8,4-3.1,5.8 M175.7,559.9c-0.7,1.5-1.5,2.8-2.4,4.1 M169.6,565.7c-0.8-0.7-1-1.4-1.4-2.5 M170.2,521.7
	c-0.7,1.5-1.5,2.8-2.4,4.1 M1227.9,913.9v96.7c0,4.1,0.1,7.9-1.1,11.8 M1226.8,1030.4V921.6l0.1-1.7 M1269.2,1055.8
	c-1,2-0.5,1.1-1.6,3 M1283.3,858.1c-0.7,1.4-1.5,2.7-2.4,4.1 M1277.2,863.8c-0.8-0.7-1-1.4-1.4-2.4 M1277.7,819.9
	c-0.7,1.5-1.5,2.8-2.4,4.1"/>
<path class="st2" d="M100,1143l10-10"/>
<path class="st0" d="M100,1143"/>
</svg>
