<?xml version="1.0" encoding="utf-8"?>
<!-- Generator: Adobe Illustrator 21.1.0, SVG Export Plug-In . SVG Version: 6.00 Build 0)  -->
<svg version="1.1" id="Ebene_1" xmlns="http://www.w3.org/2000/svg" xmlns:xlink="http://www.w3.org/1999/xlink" x="0px" y="0px"
	 viewBox="0 0 1400 1400" style="enable-background:new 0 0 1400 1400;" xml:space="preserve">
<style type="text/css">
	.st0{fill:none;}
	.st1{fill:none;stroke:#000000;stroke-linecap:round;stroke-width:3;}
	.st2{fill:none;stroke:#FFFFFF;stroke-miterlimit:10;}
</style>
<path class="st0" d="M1248.6,100H151.4v1200h1097.1L1248.6,100z"/>
<path class="st1" d="M1027.1,229.2v7.5 M1043,357.2l-8,10 M1143.2,488.4l-8,9.9 M1147.4,487.5l17.2,4.6 M1027.1,229.2l-8,10
	 M1001.9,234.5l17.2,4.7 M1118.1,419.4l-70.4-63.3 M1107.9,281.7l-60.2,74.4 M1117.1,418.6l51.3-63.5 M1099,292.7l69.4,62.4
	 M1092.3,1226.7L160.9,975.9 M1101.9,110.9l-17.2-4.6 M1032.5,196.8l-17.2-4.5 M1107.3,258.4L1043,338 M1108.5,260.9L1043,342
	 M1133.8,244.8l-8,9.9 M1135.2,498.3v788.2 M1132.3,1288.3l2.2-2.6 M152.9,1024.6l979.4,263.7 M1131,436.4l-8,10 M1143.2,460.8
	l-8,10 M1092.3,1101.9L243.7,873.4 M1092.3,1140.6L243.7,912.1 M1092.3,1145.2l-850-228.8 M1092.3,1089.9L251.7,863.5
	 M1144.5,1288.4v7.2 M1092.3,1234.5l-2.9,3.5 M1043,264l-8,9.9 M291.2,963.8v15.4 M949.9,1141.1v15.5 M624.6,1062.9v-15.4
	 M1133.8,151.6l-8,9.8 M1221.8,323.9l-8,10 M1234.1,348.4l-8.1,9.9 M1178.3,345.1l-60.2,74.3 M1107.9,281.7l70.4,63.4 M1168.4,355.1
	l9.9-10 M1079.2,229.3l-14.9-4 M1110,106.2l-1.4-0.1c-6.4,1.8-11.2,10.4-14.7,14.7l-53.5,66.3c-3.9,4.8-8.3,9.6-11.4,15
	c-6.4,11.2-9.5,24.3-9.9,37.1 M1000.6,238.8c4.5,1.2,8.9,2.3,13.1,4.4c9.4,4.8,17.4,13.4,20.2,23.7c1.7,6.2,1,13.4,1,19.6v80.7
	 M1135.2,498.3v-14.9c0-6.3,0.7-13.6-1.1-19.9c-3.2-11.2-12.2-18.1-20.5-25.6l-69.2-62.3l-9.4-8.4 M1164.6,492.1
	c-5.5,5.5-12.6,7.1-20.2,7.4c-3.2-0.2-6.1-0.5-9.2-1.2 M1143.2,463.4c9.2,8.2,20.4,15.4,21.4,28.7 M1023.2,234.2
	c9.6,5.5,17.9,14.9,19.5,26.3l0.2,3.5v93.3 M1143.2,488.4v-14.9c0-6.2,0.7-13.5-1.1-19.9c-3.2-11.2-12.2-18.1-20.5-25.7l-69.2-62.3
	l-9.4-8.4 M1143.2,488.4c1.6,0.3,3,0.2,4.2-0.9 M1143.2,482.4c1.6,1.4,3.9,2.7,4.2,5.1 M1092.3,456.5l-9.4-8.5l-64.3-57.9
	c-7.7-7-17.8-14.1-17.9-25.6V251.4c0-14.2-2.6-9.3,3-16.4 M1244.8,392.9c-0.2-2.3-0.1-2.9-0.7-5.1c-2.6-8.9-10.6-14.5-17.2-20.4
	l-108.9-98l-9.4-8.5c-0.4-0.3-0.7-0.7-0.9-1.1c-0.2-0.4-0.3-0.8-0.3-1.3V130.2l8-9.9c0.2-0.5-0.4-5.5-0.5-6.1l-0.6-2.5
	c-1.8-6.4-6.6-6-12.8-7.7l-8.6-2.3h-1.4c-6.4,1.8-11.2,10.3-14.7,14.6l-53.6,66.3c-3.8,4.8-8.2,9.6-11.4,15
	c-6.4,11.2-9.4,24.3-9.9,37.1 M1237.6,377.2c1.8,0.8,2.3,0.9,3.9,2.1c7.4,5,5.3,12.7,5.3,21v777.4l-0.3,2l-1.8,3.9l-0.2,2.5
	c-0.2,1.6-0.7,3.1-1.6,4.5l-1.4,1.9l-7.9,9.8l-64.3,79.6c-3.9,4.8-7.6,11.7-14,13.6c-2.2,0.7-2.9,0.6-5.2,0.7
	c-3.8-0.2-1.9,0-5.7-0.7 M160.9,975.9l-8,9.9v38.7c0,2.6,0.2,5.6,1.5,7.9c0.3,0.6,1,1.6,1.7,1.8l12.2,3.2L1125,1295
	c2.1,0.6,11.9,5.2,16.5,2.9c1.4-0.7,1.9-1.3,3.1-2.4 M1092.3,456.5v779.7l8.2,9.6l26.5,31l8.2,9.6c0.5,0.5,5.5,1.4,6,1.5
	c8,1.3,17.2,0.4,23.4-5.1 M1133.8,244.8l9.4,8.5l69.2,62.3c8.3,7.5,17.3,14.4,20.5,25.7c1.9,6.2,1.1,13.6,1.1,19.9V374 M1114,121.7
	c9.6,5.6,18,15,19.5,26.4l0.2,3.5v93.2 M1074.1,216.6c-4.5,0.3-7.3,4.4-9.4,7.9c-5.6,9.2-8.7,20.4-9.4,31.2c-0.3,4.8-0.9,14.2,5,16
	 M1055.5,253.4c3.1-7.4,5.5-15,6.2-23 M1074.1,216.6c5.9,1.8,5.3,11.1,5,16c-0.7,10.6-3.8,21.9-9.4,31.2c-2.1,3.5-4.9,7.6-9.4,7.9
	 M1236.2,375.8l-7.9,9.9l-64.3,79.5l-7.9,9.8l-9.9,10 M1244.8,392.9l-7.9,9.8l-64.3,79.5c-10.6,13.1-7.9,5.6-7.9,22.5v778.1
	 M1244.8,392.9v778c0,16.9,2.6,9.4-7.9,22.5l-64.3,79.5l-7.9,9.9 M1246.8,387.6c-0.3,2.1-0.9,3.4-2.1,5.3 M1226,366.6v-8.3l-0.2-3.6
	c-1.9-13-12.1-21-21.3-29.3l-69.2-62.3l-9.4-8.5 M1107.3,132.3c9.1,5.3,16.7,15,18.3,25.6l0.2,3.5v93.3 M188.2,983.3l7.9-9.8
	l38.2-47.3l7.9-9.8l0.6-1c2-4.2,0.8-13.9,0.8-15.9v-26l8-9.9 M314.9,985.1c-0.3-2.7-0.2-3.3-1.3-5.9c-5.3-11.6-20.7-16.1-32.3-17.3
	l-5.1-0.4c-4.6,0-5.8-0.1-10.4,0.4c-11.4,1.3-26.8,5.9-31.8,17.5c-1.1,2.5-1,3.2-1.2,5.9 M237.9,996.7c-3-3.6-4.6-6.6-5.1-11.3
	 M312.6,993c-2-3.6-5.3-6.4-8.8-8.5c-8.4-5.1-18-6.8-27.6-7.5c-9.8,0.1-19.6,1.1-28.6,5.5c-4.9,2.3-9.8,5.7-12.5,10.5 M281.8,1008.5
	c2.9-0.2,7.1-1.1,9.9-1.9c8.5-2.4,18.2-7,22-15.6c1-2.5,0.9-3.2,1.2-5.9 M653.8,1072.5c-0.1,3.2,0.2,3.9-0.9,7
	c-4.1,12.3-17.9,17.8-29.1,21.1 M554.5,1081.7c3.4-7.5,10.9-12.4,18.1-15.6c17.6-7.7,39.4-8,57.4-1.5c6.1,2.2,12.2,5.4,16.9,10.1
	c1.8,1.7,4.1,4.4,5,6.8 M554.6,1082c-1.7-4.3-1.1-2-1.9-6.6 M653.8,1072.5c-0.6-3.2-0.5-3.9-2.1-6.8c-7-13.5-24.9-18.8-38.8-20.4
	c-5.4-0.6-6.9-0.5-12.2-0.5c-5.4,0.4-6.9,0.3-12.1,1.2c-13,2.3-30.3,8.5-35,22.4c-1,3.1-0.8,3.8-0.8,6.9 M973.7,1162.4
	c-0.2,2.7-0.1,3.4-1.2,6c-4.4,10-16.8,14.8-26.8,16.7l-5.2,0.8 M893.8,1170.3c3.4-6.1,10.3-9.9,16.6-12.2
	c13.8-5.1,30.3-5.1,44.1-0.1c6.3,2.3,13.3,6.2,16.8,12.3 M896.6,1174.1c-3-3.7-4.5-6.6-5-11.3 M973.7,1162.4
	c-0.3-2.6-0.2-3.2-1.3-5.8c-5.3-11.6-20.8-16.1-32.3-17.3l-5.1-0.4c-4.7,0-5.7-0.1-10.4,0.5c-11.5,1.3-26.8,5.9-31.8,17.5
	c-1.1,2.5-0.9,3.1-1.2,5.9 M1137.1,1298.4c-2.7-1.7-3.8-4.5-4.4-7.6l-0.4-2.5l-8.2-9.6l-26.5-31.1l-8.2-9.6l-12.2-3.3L165.1,989.2
	l-12.2-3.3 M1164.6,1282.9c-0.3,3.5-1.1,6-3.2,8.8"/>
<path class="st2" d="M151.4,1300l14.5-14.4"/>
<path class="st0" d="M151.4,1300"/>
</svg>
