<?xml version="1.0" encoding="utf-8"?>
<!DOCTYPE svg PUBLIC "-//W3C//DTD SVG 1.1//EN" "http://www.w3.org/Graphics/SVG/1.1/DTD/svg11.dtd">
<!-- Generator: PTC Arbortext IsoDraw 7.3 -->
<svg width="100%" height="100%" viewBox="0 0 106.39 55.488"
 xmlns="http://www.w3.org/2000/svg" xmlns:xlink="http://www.w3.org/1999/xlink"
 fill-rule="evenodd" clip-rule="evenodd" stroke="#000000" stroke-linecap="round" fill="none" xml:space="preserve">
 <g id="Standardebene">
 </g>
 <g id="Z5450">
  <g>
   <line stroke-width="0.2" stroke-linecap="butt" stroke-linejoin="round" x1="4.82" y1="0.236" x2="105.058" y2="27.222"/>
   <line stroke-width="0.2" stroke-linecap="butt" stroke-linejoin="round" x1="106.078" y1="28.033" x2="105.846" y2="27.971"/>
   <line stroke-width="0.2" stroke-linecap="butt" stroke-linejoin="round" x1="101.201" y1="32.71" x2="101.519" y2="32.319"/>
   <line stroke-width="0.2" stroke-linecap="butt" stroke-linejoin="round" x1="1.334" y1="4.552" x2="101.572" y2="31.539"/>
   <line stroke-width="0.2" stroke-linecap="butt" stroke-linejoin="round" x1="101.572" y1="32.151" x2="101.572" y2="31.539"/>
   <line stroke-width="0.2" stroke-linecap="butt" stroke-linejoin="round" x1="101.697" y1="32.427" x2="101.519" y2="32.38"/>
   <line stroke-width="0.2" stroke-linecap="butt" stroke-linejoin="round" x1="101.784" y1="32.262" x2="102.465" y2="32.445"/>
   <line stroke-width="0.2" stroke-linecap="butt" stroke-linejoin="round" x1="0.786" y1="8.023" x2="101.381" y2="35.106"/>
   <line stroke-width="0.2" stroke-linecap="butt" stroke-linejoin="round" x1="105.846" y1="28.257" x2="105.888" y2="28.268"/>
   <line stroke-width="0.2" stroke-linecap="butt" stroke-linejoin="round" x1="105.888" y1="28.207" x2="105.888" y2="28.268"/>
   <line stroke-width="0.2" stroke-linecap="butt" stroke-linejoin="round" x1="105.058" y1="27.269" x2="105.058" y2="27.222"/>
   <line stroke-width="0.2" stroke-linecap="butt" stroke-linejoin="round" x1="0.505" y1="5.057" x2="1.04" y2="5.2"/>
   <line stroke-width="0.2" stroke-linecap="butt" stroke-linejoin="round" x1="0.984" y1="5.472" x2="0.315" y2="5.293"/>
   <line stroke-width="0.2" stroke-linecap="butt" stroke-linejoin="round" x1="0.786" y1="5.737" x2="0.965" y2="5.785"/>
   <line stroke-width="0.2" stroke-linecap="butt" stroke-linejoin="round" x1="0.965" y1="5.724" x2="101.201" y2="32.71"/>
   <line stroke-width="0.2" stroke-linecap="butt" stroke-linejoin="round" x1="101.384" y1="33.228" x2="102.063" y2="33.412"/>
   <line stroke-width="0.2" stroke-linecap="butt" stroke-linejoin="round" x1="101.381" y1="32.82" x2="101.201" y2="32.771"/>
   <line stroke-width="0.2" stroke-linecap="butt" stroke-linejoin="round" x1="102.275" y1="32.743" x2="101.594" y2="32.56"/>
   <line stroke-width="0.2" stroke-linecap="butt" stroke-linejoin="round" x1="102.465" y1="32.506" x2="101.784" y2="32.323"/>
   <line stroke-width="0.2" stroke-linecap="butt" stroke-linejoin="round" x1="1.056" y1="5.144" x2="0.505" y2="4.996"/>
   <line stroke-width="0.2" stroke-linecap="butt" stroke-linejoin="round" x1="0.783" y1="6.145" x2="0.104" y2="5.963"/>
   <line stroke-width="0.2" stroke-linecap="butt" stroke-linejoin="round" x1="54.28" y1="16.533" x2="52.003" y2="15.919"/>
   <line stroke-width="0.2" stroke-linecap="butt" stroke-linejoin="round" x1="19.792" y1="7.248" x2="18.493" y2="6.899"/>
   <line stroke-width="0.2" stroke-linecap="butt" stroke-linejoin="round" x1="87.765" y1="25.548" x2="86.466" y2="25.199"/>
   <path stroke-width="0.2" stroke-linecap="butt" stroke-linejoin="round" d="M2.42 11.792L2.42 12.292L2.42 21.498L2.42 21.998L2.427 22.138C2.439 22.265 2.488 22.545 2.68 22.495L2.749 22.466L2.82 22.411C2.991 22.253 3.096 22.019 3.176 21.806C3.277 21.542 3.344 21.259 3.366 20.975L3.371 20.821L3.371 20.321L3.371 11.115L3.371 10.615C3.37 10.439 3.363 10.189 3.173 10.115C2.964 10.13 2.838 10.348 2.748 10.516C2.538 10.907 2.439 11.35 2.42 11.792z"/>
   <path stroke-width="0.2" stroke-linecap="butt" stroke-linejoin="round" d="M2.42 21.801C2.572 21.492 2.66 21.135 2.686 20.792L2.692 20.638L2.692 20.138L2.692 11.13L2.692 10.63"/>
   <path stroke-width="0.2" stroke-linecap="butt" stroke-linejoin="round" d="M103.7 39.06L103.7 39.56L103.7 48.765L103.7 49.265L103.706 49.404C103.718 49.533 103.768 49.811 103.959 49.762L104.028 49.732L104.1 49.677C104.271 49.518 104.375 49.286 104.456 49.073C104.557 48.808 104.625 48.526 104.646 48.243L104.652 48.088L104.652 47.588L104.652 38.383L104.652 37.883C104.65 37.707 104.644 37.456 104.453 37.381C104.243 37.396 104.117 37.615 104.028 37.781C103.817 38.174 103.718 38.618 103.7 39.06z"/>
   <path stroke-width="0.2" stroke-linecap="butt" stroke-linejoin="round" d="M103.7 49.069C103.852 48.761 103.939 48.402 103.965 48.06L103.971 47.905L103.971 47.405L103.971 38.396L103.971 37.896"/>
   <path stroke-width="0.2" stroke-linecap="butt" stroke-linejoin="round" d="M101.603 32.112C101.683 32.134 101.78 32.161 101.784 32.262L101.784 32.323L101.594 32.56L101.552 32.621C101.346 32.957 101.384 33.353 101.384 33.728L101.384 53.591C101.384 53.978 101.353 54.393 101.463 54.773C101.504 54.911 101.569 55.066 101.692 55.151L101.796 55.198L102.137 55.289C102.189 55.304 102.465 55.402 102.59 55.387C102.811 55.36 102.986 55.165 103.12 55.006L103.433 54.618L104.918 52.78C105.129 52.518 105.341 52.273 105.507 51.981C105.915 51.265 106.156 50.432 106.253 49.615C106.296 49.258 106.29 48.902 106.29 48.54L106.29 28.679L106.29 28.179L106.284 28.103C106.257 27.87 105.995 27.902 105.795 27.849"/>
   <path stroke-width="0.2" stroke-linecap="butt" stroke-linejoin="round" d="M105.027 27.26L105.117 27.158L105.173 27.114C105.376 26.992 105.421 27.307 105.427 27.435"/>
   <path stroke-width="0.2" stroke-linecap="butt" stroke-linejoin="round" d="M102.477 55.381L102.373 55.334C102.248 55.249 102.185 55.094 102.144 54.956C102.078 54.734 102.066 54.503 102.063 54.274L102.063 53.774L102.063 33.912C102.063 33.71 102.043 33.451 102.079 33.234C102.108 33.064 102.165 32.881 102.275 32.743L102.465 32.506L102.465 32.445L102.778 32.057L105.573 28.597L105.888 28.207L105.878 28.091C105.864 28.01 105.837 27.934 105.801 27.859C105.647 27.545 105.356 27.35 105.027 27.26"/>
   <path stroke-width="0.2" stroke-linecap="butt" stroke-linejoin="round" d="M105.094 27.28L104.781 27.669L101.986 31.129L101.671 31.518L101.671 32.13"/>
   <path stroke-width="0.2" stroke-linecap="butt" stroke-linejoin="round" d="M101.201 32.771C101.201 32.329 101.32 31.849 101.603 31.5"/>
   <path stroke-width="0.2" stroke-linecap="butt" stroke-linejoin="round" d="M102.465 32.445C102.456 32.341 102.459 32.314 102.426 32.213C102.302 31.841 101.969 31.597 101.603 31.5"/>
   <path stroke-width="0.2" stroke-linecap="butt" stroke-linejoin="round" d="M101.603 31.5L101.603 32.112L101.572 32.151C101.555 32.173 101.543 32.2 101.534 32.226C101.525 32.256 101.519 32.287 101.519 32.319L101.519 32.38L101.201 32.771"/>
   <path stroke-width="0.2" stroke-linecap="butt" stroke-linejoin="round" d="M101.697 32.427L101.381 32.82L101.381 33.32L101.381 34.606L101.381 35.106"/>
   <path stroke-width="0.2" stroke-linecap="butt" stroke-linejoin="round" d="M0.981 5.496C0.681 5.868 0.786 5.634 0.786 6.237L0.786 7.524L0.786 8.023"/>
   <path stroke-width="0.2" stroke-linecap="butt" stroke-linejoin="round" d="M5.009 9.16L5.009 9.66L5.009 21.274C5.009 21.635 5.016 21.99 4.972 22.349C4.876 23.164 4.634 23.998 4.227 24.714C4.062 25.006 3.849 25.251 3.639 25.513L2.153 27.35C1.914 27.647 1.698 28.01 1.31 28.12C1.078 28.108 1.233 28.123 0.857 28.022L0.517 27.931L0.413 27.884C0.29 27.798 0.225 27.643 0.185 27.507C0.074 27.128 0.104 26.711 0.104 26.324L0.104 6.463C0.104 6.086 0.066 5.689 0.273 5.354L0.315 5.293L0.505 5.057L0.505 4.996C0.51 4.913 0.513 4.862 0.544 4.785L0.592 4.695L0.906 4.306L3.701 0.845C3.879 0.625 4.051 0.297 4.36 0.238C4.439 0.223 4.516 0.222 4.594 0.232L4.721 0.257L4.788 0.275"/>
   <path stroke-width="0.2" stroke-linecap="butt" stroke-linejoin="round" d="M4.788 0.275L4.879 0.172C5.062 0.002 5.317 0.178 5.52 0.233L104.793 26.958L105.275 27.088"/>
   <path stroke-width="0.2" stroke-linecap="butt" stroke-linejoin="round" d="M106.195 27.957C106.064 27.983 105.942 28.201 105.888 28.268"/>
   <path stroke-width="0.2" stroke-linecap="butt" stroke-linejoin="round" d="M4.721 0.257L4.407 0.646L1.612 4.105C1.276 4.522 1.298 4.328 1.298 4.602"/>
   <path stroke-width="0.2" stroke-linecap="butt" stroke-linejoin="round" d="M0.965 5.785C0.965 5.343 1.084 4.862 1.366 4.512"/>
   <path stroke-width="0.2" stroke-linecap="butt" stroke-linejoin="round" d="M0.592 4.695C0.651 4.623 0.659 4.602 0.738 4.554C0.931 4.431 1.157 4.456 1.366 4.512"/>
   <path stroke-width="0.2" stroke-linecap="butt" stroke-linejoin="round" d="M0.8 5.968C0.77 6.195 0.783 6.408 0.783 6.645L0.783 26.507L0.783 27.007C0.786 27.236 0.8 27.468 0.864 27.689C0.905 27.826 0.97 27.981 1.092 28.067L1.197 28.114"/>
   <path stroke-width="0.2" stroke-linecap="butt" stroke-linejoin="round" d="M51.634 15.882C51.649 15.766 51.643 15.737 51.698 15.628C51.829 15.378 52.1 15.221 52.356 15.127C52.984 14.896 53.819 14.917 54.386 15.303C54.475 15.362 54.557 15.433 54.622 15.519C54.679 15.592 54.722 15.673 54.743 15.763C54.85 16.207 54.392 16.516 54.037 16.646C53.762 16.748 53.481 16.777 53.189 16.789C52.834 16.774 52.484 16.728 52.162 16.564C51.975 16.468 51.79 16.329 51.695 16.135C51.64 16.027 51.648 16 51.634 15.882z"/>
   <path stroke-width="0.2" stroke-linecap="butt" stroke-linejoin="round" d="M51.731 16.193C51.883 15.968 52.112 15.827 52.365 15.736C52.835 15.564 53.375 15.553 53.856 15.682C54.162 15.763 54.488 15.916 54.661 16.193"/>
   <path stroke-width="0.2" stroke-linecap="butt" stroke-linejoin="round" d="M18.147 6.759C18.198 7.009 18.382 7.155 18.612 7.245C19.062 7.419 19.711 7.408 20.092 7.078C20.15 7.027 20.199 6.972 20.231 6.903C20.417 6.527 19.957 6.262 19.658 6.181C19.495 6.137 19.335 6.128 19.166 6.125C18.769 6.152 18.181 6.27 18.147 6.759z"/>
   <path stroke-width="0.2" stroke-linecap="butt" stroke-linejoin="round" d="M18.292 7.044C18.44 6.895 18.643 6.815 18.844 6.774C19.28 6.682 19.786 6.742 20.128 7.043"/>
   <path stroke-width="0.2" stroke-linecap="butt" stroke-linejoin="round" d="M86.121 25.059C86.171 25.309 86.355 25.454 86.585 25.544C87.034 25.719 87.685 25.707 88.066 25.378C88.123 25.327 88.171 25.272 88.204 25.204C88.39 24.826 87.93 24.562 87.632 24.481C87.468 24.437 87.308 24.428 87.138 24.425C86.742 24.452 86.155 24.571 86.121 25.059z"/>
   <path stroke-width="0.2" stroke-linecap="butt" stroke-linejoin="round" d="M86.265 25.344C86.412 25.196 86.615 25.115 86.817 25.074C87.253 24.981 87.759 25.042 88.1 25.343"/>
  </g>
 </g>
</svg>
