<?xml version="1.0" encoding="utf-8"?>
<!DOCTYPE svg PUBLIC "-//W3C//DTD SVG 1.1//EN" "http://www.w3.org/Graphics/SVG/1.1/DTD/svg11.dtd">
<!-- Generator: PTC Arbortext IsoDraw 7.3 -->
<svg width="100%" height="100%" viewBox="0 0 52.408 57.262"
 xmlns="http://www.w3.org/2000/svg" xmlns:xlink="http://www.w3.org/1999/xlink"
 xmlns:itedo="http://www.itedo.com/svgfilter/1.0" xmlns:extra="http://www.itedo.com/svgfilter/1.0/extra"
 xmlns:_DEFAULT_DTD_="http://www.itedo.com/svgfilter/1.0/DTD/_DEFAULT_DTD_"
 fill-rule="evenodd" clip-rule="evenodd" stroke="#000000" stroke-linecap="round" fill="none" xml:space="preserve">
 <g id="Standardebene" itedo:apstype="layer">
 </g>
 <g id="Z5356_x0020_Ball_x0020_joint_x0020_adapter" itedo:apstype="layer">
  <g>
   <g id="K_M-KUGELGELENKM10KUGEL_M6_INNE" class="hotspot hotspot_K_M-KUGELGELENKM10KUGEL_M6_INNE" itedo:apstype="grobject">
    <desc>K_M-KUGELGELENKM10KUGEL_M6_INNE</desc>
    <line stroke-width="0.2" x1="3.692" y1="47.871" x2="7.775" y2="42.814"/>
    <path stroke-width="0.2" d="M5.746 48.107C7.687 48.009 9.547 49.112 10.416 50.863C11.067 52.179 10.964 53.954 9.481 54.64C9.055 54.838 8.632 54.877 8.173 54.899C6.399 54.756 4.774 53.74 3.971 52.121C3.389 50.945 3.367 49.368 4.546 48.548C4.919 48.289 5.31 48.195 5.746 48.107z"/>
    <path stroke-width="0.2" d="M15.878 48.695L14.621 50.252L12.797 52.511C11.948 53.563 11.262 54.768 9.881 55.115C9.419 55.231 9.266 55.21 8.788 55.228C7.511 55.112 6.365 54.695 5.349 53.895C4.679 53.365 4.102 52.704 3.692 51.954C2.852 50.418 2.765 48.259 4.411 47.219C4.7 47.036 5.019 46.906 5.349 46.823C5.706 46.734 6.075 46.7 6.442 46.71C8.539 46.768 10.55 48.171 11.539 49.984C12.067 50.95 12.339 52.13 11.993 53.204C11.856 53.625 11.775 53.698 11.539 54.067"/>
    <path stroke-width="0.2" d="M21.44 39.395C19.911 36.485 16.617 34.674 13.4 34.643C12.441 34.743 11.5 34.914 10.705 35.503"/>
    <path stroke-width="0.2" d="M24.146 41.82C24.3 40.575 23.876 39.218 23.318 38.121C22.047 35.619 19.623 33.655 16.914 32.924C16.14 32.716 15.394 32.658 14.598 32.643C13.429 32.749 12.33 32.993 11.387 33.74C10.836 34.176 10.432 34.765 9.994 35.307"/>
    <path stroke-width="0.2" d="M10.035 35.319C11.615 33.872 13.853 33.694 15.856 34.232C18.932 35.061 21.686 37.493 22.716 40.527"/>
    <path stroke-width="0.2" d="M16.486 32.831L17.609 31.439C18.242 30.652 18.814 29.663 19.804 29.271C22.024 28.393 24.643 30.018 25.721 31.928C26.152 32.691 26.405 33.591 26.265 34.469C26.097 35.53 25.239 36.307 24.6 37.097L23.481 38.479"/>
    <path stroke-width="0.2" d="M27.682 38.052C27.091 38.162 26.503 38.191 25.902 38.203C25.227 38.176 24.553 38.125 23.891 37.972"/>
    <path stroke-width="0.2" d="M16.899 32.32L16.64 31.696"/>
    <path stroke-width="0.2" d="M16.214 29.397C16.556 30.16 16.992 30.85 17.652 31.384"/>
   </g>
   <g id="K_M-KUGELGELENKM8AUSSENTEIL_ANY" class="hotspot hotspot_K_M-KUGELGELENKM8AUSSENTEIL_ANY" itedo:apstype="grobject">
    <desc>K_M-KUGELGELENKM8AUSSENTEIL_ANY</desc>
    <path stroke-width="0.2" d="M16.978 26.681C15.949 28.461 16.051 30.474 16.893 32.325"/>
    <path stroke-width="0.2" d="M27.524 38.249C28.137 37.918 28.676 37.59 29.135 37.052C30.798 35.11 30.371 32.29 29.199 30.222C27.519 27.266 24.431 25.359 21.067 25.114C20.329 25.138 19.637 25.185 18.931 25.425C18.501 25.571 18.103 25.765 17.728 26.021C17.37 26.265 17.053 26.553 16.78 26.888C15.385 28.603 15.593 30.884 16.379 32.807"/>
    <path stroke-width="0.2" d="M23.678 38.941C24.964 38.755 26.257 38.85 27.524 39.128"/>
    <path stroke-width="0.2" d="M27.524 42.628L27.524 40.628L27.524 40.249L27.524 38.249L27.995 37.665L28.417 37.45C28.794 37.232 29.117 36.969 29.422 36.662"/>
    <path stroke-width="0.2" d="M29.804 42.908C30.515 42.668 31.185 42.362 31.812 41.944C32.287 41.627 32.728 41.256 33.121 40.841C35.795 38.006 35.628 33.753 34.14 30.387C32.051 25.664 27.504 21.942 22.478 20.778C21.46 20.542 20.46 20.463 19.417 20.425C18.143 20.487 16.925 20.632 15.727 21.105C14.914 21.426 14.151 21.87 13.483 22.434C11.396 24.195 10.556 26.922 10.801 29.588C10.926 30.94 11.332 32.185 11.832 33.438"/>
    <path stroke-width="0.2" d="M31.227 42.972C34.234 42.207 36.996 40.645 39.174 38.429C40.082 37.506 40.878 36.435 41.686 35.435L48.731 26.719L49.987 25.164L50.543 24.393C51.18 23.478 51.621 22.4 51.914 21.326C52.872 17.8 52.002 13.968 50.283 10.823C47.436 5.617 42.165 1.6 36.328 0.422C35.24 0.203 34.17 0.131 33.064 0.1C30.251 0.103 27.379 0.941 25.219 2.794C24.227 3.645 23.451 4.703 22.634 5.716L15.426 14.64C14.285 16.053 13.085 17.472 12.279 19.117C10.894 21.946 10.244 25.059 10.506 28.207C10.63 29.689 11.005 31.099 11.46 32.506"/>
    <path stroke-width="0.2" d="M14.169 16.196C14.818 15.468 15.464 14.814 16.28 14.269C19.652 12.021 24.042 12.047 27.8 13.188C33.363 14.878 38.307 19.036 40.823 24.292C42.335 27.449 42.99 31.216 41.746 34.576C41.42 35.46 40.957 36.216 40.429 36.991"/>
    <path stroke-width="0.2" d="M46.008 26.318L46.033 26.285L46.069 25.611C46.148 24.812 46.311 23.945 46.737 23.248C46.88 23.015 47.093 22.736 47.381 22.679C47.948 22.568 48.063 23.397 48.063 23.772C48.063 24.71 47.692 25.67 47.219 26.466C47.03 26.783 46.758 27.277 46.35 27.324C45.996 27.166 46.043 26.603 46.033 26.285"/>
    <path stroke-width="0.2" d="M50.543 24.393C51.033 23.541 51.454 22.713 51.72 21.759C52.716 18.192 51.758 14.346 49.987 11.186C47.146 6.115 42.03 2.17 36.357 0.84C35.215 0.572 34.085 0.461 32.917 0.393C30.463 0.432 28.08 0.848 26.001 2.234C25.285 2.711 25.153 2.875 24.522 3.451"/>
    <path stroke-width="0.2" d="M10.757 28.635C10.51 27.736 10.606 28.19 10.468 27.275"/>
   </g>
   <g id="NONE-263" class="hotspot hotspot_NONE-263" itedo:apstype="grobject">
    <desc>NONE-263</desc>
    <path stroke-width="0.2" d="M15.837 14.131L13.557 13.516C13.13 13.744 12.887 14.164 12.686 14.593C12.345 15.323 12.131 16.143 12.096 16.951C12.08 17.298 12.055 17.932 12.393 18.167L12.759 18.28"/>
   </g>
   <g id="NONE-247" class="hotspot hotspot_NONE-247" itedo:apstype="grobject">
    <desc>NONE-247</desc>
    <path stroke-width="0.2" d="M10.538 28.489C10.422 27.96 10.378 27.362 10.332 26.824C10.217 25.506 10.202 24.182 10.262 22.861C10.461 18.492 11.35 14.141 12.657 9.975C13.243 8.105 13.932 6.272 14.714 4.474C14.829 4.213 15.064 3.496 15.35 3.181C15.535 2.982 15.692 3.097 15.727 3.337L15.827 4.099L15.91 4.892L16.01 6.788C16.028 7.841 15.992 8.894 15.914 9.942C15.816 11.289 15.647 12.628 15.432 13.96"/>
    <path stroke-width="0.2" d="M15.457 13.967C15.708 12.432 15.894 10.887 15.987 9.333C16.044 8.387 16.068 7.437 16.045 6.487L15.946 4.748L15.865 3.984L15.858 3.926L15.762 3.181C15.615 2.173 13.871 2.277 13.316 2.16L9.112 1.276L7.153 0.864L6.993 0.85C6.735 0.868 6.519 0.958 6.344 1.151"/>
    <path stroke-width="0.2" d="M10.583 28.894C10.493 28.925 10.423 28.949 10.329 28.952C9.82 28.911 9.899 28.12 9.859 27.785C9.669 26.175 9.631 24.556 9.705 22.937C9.943 17.658 11.147 12.38 12.948 7.421C13.345 6.326 13.781 5.248 14.244 4.182L14.667 3.232C14.785 2.975 14.958 2.608 15.274 2.57"/>
    <path stroke-width="0.2" d="M6.735 1.302L6.735 1.302L6.735 1.302z"/>
    <path stroke-width="0.2" d="M15.496 3.076C15.551 2.148 13.359 2.197 13.243 2.173L9.05 1.286L7.092 0.872C6.905 0.972 6.854 1.141 6.735 1.302L6.075 2.178C5.16 3.43 4.326 4.738 3.602 6.108C1.14 10.766 -0.104 16.169 0.753 21.417C0.966 22.725 1.314 24.001 1.79 25.237L2.132 26.076L2.197 26.257C2.23 26.309 2.248 26.315 2.301 26.332L4.2 26.958L8.294 28.309L10.194 28.937"/>
    <path stroke-width="0.2" d="M9.98 28.565C10.198 28.599 10.378 28.551 10.515 28.379"/>
    <path stroke-width="0.2" d="M1.672 25.728C1.726 25.835 1.797 25.919 1.914 25.984"/>
    <path stroke-width="0.2" d="M9.935 28.55L9.971 28.562"/>
    <path stroke-width="0.2" d="M2.246 26.309C2.153 26.272 1.729 25.763 1.645 25.707"/>
    <path stroke-width="0.2" d="M6.375 1.112C2.907 6.195 -0.579 14.143 0.214 20.344C0.378 21.632 1.262 24.492 1.663 25.725"/>
   </g>
   <g id="GEWINDEBOLZEN_ANY" class="hotspot hotspot_GEWINDEBOLZEN_ANY" itedo:apstype="grobject">
    <desc>GEWINDEBOLZEN_ANY</desc>
    <line stroke-width="0.2" x1="47.603" y1="24.31" x2="46.994" y2="24.146"/>
    <line stroke-width="0.2" x1="46.573" y1="25.365" x2="47.329" y2="25.57"/>
    <path stroke-width="0.2" d="M47.329 23.733C46.738 24.463 46.506 24.544 46.506 25.67L46.78 26.248"/>
    <path stroke-width="0.2" d="M46.125 27.059C46.335 27.085 46.735 26.737 46.819 26.681C47.497 26.21 47.75 25.053 47.805 24.289C47.829 23.966 47.868 23.399 47.503 23.248C47.167 23.265 46.963 23.617 46.82 23.884C46.49 24.498 46.293 25.236 46.293 25.934C46.293 26.26 46.356 26.881 46.819 26.681"/>
    <path stroke-width="0.2" d="M46.78 26.248C47.371 25.518 47.603 25.437 47.603 24.31L47.329 23.733"/>
    <path stroke-width="0.2" d="M47.265 22.722C47.511 22.861 47.628 23.271 47.732 23.484"/>
   </g>
   <g id="K_M-KUGELGELENKM8KLEMMTEIL_ANY" class="hotspot hotspot_K_M-KUGELGELENKM8KLEMMTEIL_ANY" itedo:apstype="grobject">
    <desc>K_M-KUGELGELENKM8KLEMMTEIL_ANY</desc>
    <line stroke-width="0.2" x1="45.939" y1="3.774" x2="45.173" y2="4.724"/>
    <path stroke-width="0.2" d="M41.371 2.226L45.222 3.264L45.585 3.515L45.939 3.774L46.661 4.418C48.405 6.084 49.618 8.154 50.103 10.518"/>
   </g>
   <g id="K_M-KUGELGELENKM10KONTER_ANY" class="hotspot hotspot_K_M-KUGELGELENKM10KONTER_ANY" itedo:apstype="grobject">
    <desc>K_M-KUGELGELENKM10KONTER_ANY</desc>
    <line stroke-width="0.2" x1="3.695" y1="36.959" x2="5.724" y2="34.448"/>
    <line stroke-width="0.2" x1="15.91" y1="48.326" x2="15.619" y2="47.863"/>
    <path stroke-width="0.2" d="M10.067 55.052L11.996 55.582L15.667 56.588L17.597 57.118C17.721 57.152 17.843 57.167 17.971 57.161C18.344 57.14 18.841 56.831 19.103 56.723C19.443 56.585 20.442 56.222 20.803 56.155L21.504 56.122C22.251 56.067 22.996 55.945 23.725 55.765C24.972 55.456 26.137 54.902 27.376 54.552C28.864 54.134 30.388 53.847 31.926 53.694C33.962 53.49 36.021 53.523 38.048 53.801L39.537 54.054L40.341 54.167C41.164 54.232 42 54.156 42.798 53.947C45.356 53.274 47.872 50.881 47.151 48.018C47.039 47.576 46.853 47.159 46.604 46.779C46.345 46.381 46.024 46.03 45.658 45.728C44.61 44.868 43.375 44.552 42.058 44.404C41.323 44.405 41.134 44.375 40.405 44.502C39.118 44.725 37.881 45.162 36.59 45.383C35.052 45.643 33.531 45.722 31.977 45.756C30.445 45.701 28.946 45.606 27.434 45.32C25.911 45.033 26.036 44.994 24.548 44.587C23.329 44.253 21.94 43.951 20.885 43.207C20.568 42.982 19.477 41.975 19.198 41.707C18.838 41.362 18.405 40.78 17.893 40.557L17.702 40.49L15.774 39.96L6.421 37.396L4.493 36.865L4.27 36.826C3.703 36.832 3.443 37.11 2.982 37.509C1.847 38.487 1.014 39.779 0.565 41.207C-0.48 44.529 0.507 48.165 2.259 51.06L2.89 52.027C3.286 52.591 3.681 53.284 4.387 53.493L5.121 53.695"/>
    <path stroke-width="0.2" d="M47.259 48.68L46.841 45.901C46.752 45.332 46.744 45.133 46.509 44.6C46.122 43.728 45.438 43.017 44.627 42.523C44.186 42.256 43.71 42.048 43.216 41.902C42.539 41.701 42.334 41.71 41.631 41.631C40.899 41.634 40.71 41.603 39.984 41.729C38.698 41.954 37.463 42.392 36.17 42.61C34.634 42.871 33.113 42.95 31.559 42.984C29.524 42.911 27.536 42.728 25.556 42.225L24.131 41.816L23.714 41.484L22.914 40.695L21.227 39.197C20.867 38.85 20.434 38.268 19.92 38.045L19.731 37.978L17.801 37.45L8.449 34.884L6.522 34.354L6.299 34.314C5.732 34.32 5.471 34.6 5.011 34.996C4.435 35.493 4.28 35.713 3.804 36.298L1.774 38.811"/>
    <path stroke-width="0.2" d="M13.705 51.387C14.159 51.206 14.297 51.185 14.699 50.878C16.344 49.631 16.089 47.32 15.144 45.726C13.971 43.75 11.926 42.563 9.667 42.383C9.111 42.417 8.926 42.395 8.393 42.555C7.368 42.866 6.546 43.636 6.269 44.679"/>
    <path stroke-width="0.2" d="M13.467 43.878C14.746 45.018 15.9 46.613 15.567 48.433C15.478 48.923 15.397 49.008 15.179 49.442"/>
   </g>
  </g>
 </g>
 <g id="Counter_x0020_device" itedo:apstype="layer">
 </g>
</svg>
