<?xml version="1.0" encoding="utf-8"?>
<!-- Generator: Adobe Illustrator 21.1.0, SVG Export Plug-In . SVG Version: 6.00 Build 0)  -->
<svg version="1.1" id="Ebene_1" xmlns="http://www.w3.org/2000/svg" xmlns:xlink="http://www.w3.org/1999/xlink" x="0px" y="0px"
	 viewBox="0 0 1400 1400" style="enable-background:new 0 0 1400 1400;" xml:space="preserve">
<style type="text/css">
	.st0{fill:none;}
	.st1{fill:none;stroke:#000000;stroke-linecap:round;stroke-width:4;}
	.st2{fill:none;stroke:#FFFFFF;stroke-miterlimit:10;}
</style>
<path class="st0" d="M1300,162.2H100v1075.7h1200V162.2L1300,162.2z"/>
<path class="st1" d="M812,973.6V842.9 M587.9,844.1l-350.4-94.3 M1162.5,1235.7L102.1,950.2 M812,904.5l486,130.8 M102.1,917.5
	L1162.5,1203 M647.9,1033.8l-9.3-3.1c-20.6-7.9-44.2-22.3-49.8-45.3c-1.8-7.5-0.9-14.3-0.9-22.2V842.1c1.3-13.8,9.9-24.5,19.9-33.3
	 M792.1,808.6c5.3,4.9,10.3,9.8,14.1,16.2c2.2,3.7,3.9,7.8,4.8,11.9c0.9,4.1,1.3,8.2,0.9,12.4c-2.2,23.2-24.1,39-43.7,47.7
	c-5.9,2.6-11.8,4.8-18,6.5c-6.5,1.9-13.1,3.3-19.9,4.4c-10.5,1.7-21,2.2-31.5,2.4c-9.4-0.2-11.9-0.2-21.1-1.3
	c-6.8-0.7-13.7-1.9-20.4-3.5c-17.6-4.1-35.2-11.3-49.3-22.9c-7.2-5.9-13.7-13.4-17.3-22.3c-2.1-5.3-2.1-6.6-2.8-12.2 M607.9,784.3
	v43.6c0,13.4-1.5,25.7,6.4,37.2c8.2,11.9,21.5,19.6,34.7,24.6c30.4,11.7,66.5,12.1,97.3,1.7c15.6-5.2,32-14,40.8-28.6
	c6.1-10.1,5.1-20.2,5.1-31.9v-46.7 M603.2,420.2c-4.2,4.6-5.7,5.9-9,11.1c-7.8,12.6-6.3,25.9-6.3,40.3v262.5c0,10.1-0.9,19,2.9,28.3
	c6.9,16.8,23.2,28.3,39.2,35.7c15.1,6.9,31.3,10.9,47.7,12.8c27.4,3.2,56,0.7,82-8.7c15.6-5.7,31.2-14.2,41.8-27.5
	c5.5-6.8,9.5-15.1,10.3-24V450.3c-0.4-11.3-7.1-22.6-15.3-30.1 M607.9,424.4V438c0,10.1-1.1,20.2,3.4,29.5
	c4.9,9.9,13.8,17.4,23.3,22.9c22.7,13.2,50.8,17.1,76.6,15.3c19.7-1.4,40-6.3,56.9-16.8c3.9-2.6,7.7-5.3,11.1-8.7l4.4-4.8"/>
<path class="st1" d="M776.7,434.8c14.9-8.9,29.6-20,34.2-37.7c2.4-8.7,1.1-19.7,1.1-28.3V247.2c0-10.1,1-18.9-2.8-28.2
	c-5.9-14.3-18.3-24.1-31.2-31.7c-11.3-6.7-22.3-13-34.9-16.8c-14.5-4.5-29.5-5.9-44.8-6.2c-15.2,0.6-30,2.2-44.4,7.1
	c-11.1,3.7-20.8,9.4-30.9,15.2c-14.8,8.7-29.5,20.1-34.1,37.5c-2.3,8.8-1.1,19.7-1.1,28.3v138c0.3,8.6,4.5,17.1,9.8,23.7
	c12.2,15.7,31.5,25.2,50.2,30.9C690.1,457.7,737.2,454.2,776.7,434.8L776.7,434.8z M783.5,475.4c3.5-4.9,6.5-9.6,7.9-15.6
	c1.5-6.3,0.8-14.7,0.8-20.4v-15.1 M801.7,261.1l4.1-5.6l3-6c2.7-6,3.3-11.7,3.3-18.3 M587.9,236.3c0.7,5.6,0.7,7,2.8,12.3
	c9.3,22.9,34.8,35.7,57,42.6c9.8,2.9,19.9,4.9,30.2,6.1c42.7,5.1,93.5-2.8,123.7-36.1 M632.1,181.5c-5.9,4-11.2,7.9-15.6,13.4
	c-2.5,3.1-4.7,6.5-6.2,10.2c-1.3,3.4-2.2,7.1-2.4,10.7c-1.1,20.2,17.1,34.8,33.4,42.7c24.1,11.4,52.5,14.3,78.8,10.9
	c14.2-1.8,28.3-5.6,41.1-12.2c17.8-9.1,36.1-27,29.5-48.8c-1-3.7-2.8-7.1-4.9-10.3c-5.3-7.8-12.5-13-20.2-18 M812,450.4
	c0,5.5,0.3,6.8-1.1,12.2c-6,23.4-30.2,37.6-51.4,45.2c-6.1,2.2-12.5,4.1-19,5.5c-6.7,1.5-13.6,2.6-20.5,3.3
	c-9.4,0.9-11.9,0.8-21.2,1c-9.4-0.3-11.9-0.2-21.1-1.3c-6.8-0.8-13.7-1.9-20.4-3.5c-17.6-4.1-35.2-11.2-49.3-22.8
	c-7.2-6-13.7-13.6-17.3-22.4c-2.1-5.2-2.1-6.6-2.8-12.1 M102.1,950.2v-32.7l10.1-12.4l115.2-142.9l10.2-12.5 M1298,1035.3
	l-10.2,12.5l-115.2,142.8l-10.1,12.4v32.7 M1298,1035.3v32.7l-10.2,12.4l-115.2,142.9l-10.1,12.4"/>
<path class="st1" d="M238.3,865.3c0.1-2.8-0.1-3.5,0.7-6.3c3-9,12.7-14.2,21.1-17.1c17.7-5.9,41.6-5.2,57.1,6.4
	c2,1.5,3.8,3.3,5.3,5.3c1.4,1.8,2.5,3.7,3.2,5.9c4.1,13.4-10.5,22.7-21.1,26.4c-6.6,2.2-13.3,3-20.1,3.4c-4.8,0-5.9,0.1-10.6-0.5
	C259.6,887.3,241.5,881.2,238.3,865.3L238.3,865.3z M248.7,880.3c19.2-12,48.2-12.8,67.3,0.1 M812,973.6c0,5.6,0.3,7-1.1,12.4
	c-6.1,23.3-30,37.5-51.1,45.3c-6.2,2.2-12.6,4-19,5.5c-6.7,1.5-13.7,2.6-20.6,3.3c-9.2,1-11.8,0.9-21.2,1.1
	c-17.7-0.6-34.2-2.8-51.2-7.4"/>
<path class="st1" d="M1077.3,1099.1c-1.6-2.4-2.3-3-3.2-5.9c-3.5-11.5,7.4-20.6,16.8-24.6c17.6-7.7,41.3-7.4,58,2.4
	c2.3,1.3,4.5,3,6.5,4.8c1.7,1.6,3.2,3.5,4.3,5.6c6.5,12.4-5,23.1-15.5,27.7c-7.8,3.4-16,4.7-24.5,5.2
	C1104.3,1114.2,1088.1,1111.3,1077.3,1099.1L1077.3,1099.1z M1084,1105.2c19.1-12.2,48.3-12.9,67.3,0"/>
<path class="st1" d="M628.6,332.8c0.2-2.8,0.5-5.5,1.7-7.9c3.5-7.1,11.9-8.2,19-7.1c10.3,1.8,20.7,8,26.4,16.7
	c5.7,9,4.8,20.8-4.4,27.1c-3.7,2.5-7.7,3.4-12.1,3.7C642,364.2,629.7,349.7,628.6,332.8L628.6,332.8z"/>
<path class="st2" d="M100,1237.8l20.3-20.3"/>
<path class="st0" d="M100,1237.8"/>
</svg>
