<svg xmlns="http://www.w3.org/2000/svg" xmlns:xlink="http://www.w3.org/1999/xlink"
    viewBox="0 0 1200 1200" enable-background="new 0 0 1200 1200">
    <style type="text/css">.st0{fill:none;} .st1{fill:none;stroke:#000000;stroke-linecap:round;stroke-linejoin:round;stroke-width:2;} .st2{clip-path:url(#SVGID_2_);} .st3{fill:none;stroke:#FFFFFF;stroke-miterlimit:10;}</style>
    <path class="st0" d="M1080 0h-960v1200h960v-1200z"/>
    <path class="st1"
        d="M197.7 33.4l-3.4-.9M198.9 26.3l-3.7-1M165.5 111.5l-43.9-11.8M128.1 41l43.8 11.9M165.1 80.1l-43.8-11.8M143.6 11.3l43.9 11.8M173 63.4l6.4 1.7M174.2 110.4l3.6.9M178.3 93.6l-6.6 17.7M173.2 113.2l5.1-13.9M171.6 91.6l6.7 1.8M171.2 82.6l7.9 2.1M190.8 43.4l-6.3-1.7M193.3 40.2l2.2-16.6M193.2 25.1l-2.4 18.3M179.9 115.3c-3.9 3.3-8.1 7.2-13.4 7.8-.8 0-1.1 0-1.9-.1-.5-.1-1-.3-1.4-.6-2.1-1.4-.7-4.5 0-6.3l.7-1.4.7-1.5.8-1.6c.8-1.5 1.1-2.4 1.6-4.1.9-3.2 1.2-6.5 1.3-9.8.1-4.8.1-9.8-1.6-14.2-.8-2.2-2.3-4-3.3-6.1-1.4-3-2.1-6.4-1.8-9.7.5-5.2 3.6-9.6 7.5-12.8 2.4-2 5.1-3.4 7.2-5.8 3-3.4 5-7.5 7-11.6l1.5-3c.4-.8 2.1-3.3 2.7-4 1.6-2.2 3.4-4.2 5.5-5.9 2.1-1.7 4.7-3.1 7.5-2.7.4.1 1.8.5 2.1.8l.8 1.5c.7 1.2.8 1.2 1.6 2.1M164.7 123l-4.6-1.2-27.9-7.5c-2.9-.8-4.3-.4-5.7-2.4-2.1-3-3.5-6.7-4.4-10.2-.4-1.5-.7-3.3-.8-4.8l.1-15c0-2.6-.1-5.1-.2-7.7l-.2-4.4.5-3c.5-3.1 1.1-6.2 1.8-9.2.9-4.2 2.1-8.3 3.3-12.3l2-6 2.3-4.2c1.8-3.2 3.5-6.5 5.2-9.7 1.4-2.7 2.8-5.5 4.2-8.3l1.4-2.9.3-.6c1.1-1.8 2.5-3.5 3.9-5.1 1.9-2 4-4 6.3-5.6.9-.6 2-1.3 2.9-1.8l.6-.2 4.6 1.2 28.7 7.7 4.6 1.2.9.4c4.3 2 6.2 7.2 8.3 11.1M120.9 69.8c.4-2.2 1.4-4.2 2.2-6.2 1.1-2.7 2.2-5.5 2.9-8.3.6-2.5 1-5 1.2-7.6.3-2.8.4-5.7 1.2-8.4M184.8 34.4c.8-2.2 1.6-4.5 2.1-6.8.4-1.8.5-2.7.6-4.6v-1.8l.1-1.6.1-1.5c.2-2.6.7-7 4.1-7.2.7-.1 1 .1 1.7.2M193.2 25.1c-3 3.2-4.5 7.3-6.2 11.3l-2.7 5.9c-1.3 2.7-2.7 5.4-4.3 8-1.4 2.3-3.1 4.5-4.4 6.9-1.3 2.4-2.2 4.9-3.1 7.5M168.2 88.8c1.2-14.9 4.9-29.3 10.7-43M178.1 70.5c.4-1.8.9-3.6 1.3-5.3M172.4 64.4c1.8.5 5.2.6 7.1.7M171 69.7c1.8.5 5.2.5 7.1.8M171.3 69.8c-.5 2.5-.8 5-.8 7.7.1 2.5.7 4.9.9 7.4.2 2.8.3 5.6.2 8.4l-.3 6.1c-.3 4-.9 8 .4 11.9M168.3 100.8l.3 2.3.4 2.1.5 2c1 3.7 3.2 8.6 7.7 8.8 1.1.1 1.4-.1 2.4-.3M173.2 113.2c2.7 1.2 4.9-2.3 6.5-3.9M190.8 43.4l1.2-.9M200.4 30.1l-.2-.4-.7-1.6c-.8-1.9-1.1-4.4-3.4-4.6l-.6.1M883.9 223l43.8 11.9M872.8 308.2l43.8 11.8M867.3 284.8l43.8 11.8M914.6 270.4l-43.9-11.9M867.7 276.2l-.4-.1M876.4 241.4l47 12.7M953.2 221l-43.9-11.8M880.8 229.2c-3.5 3-5.8 7.4-7.7 11.5-3.1 6.8-5 14.1-6.1 21.4-.7 5-.8 10.3.5 15.2M957 237.8c.3 3.3-.5 6.5-.9 9.8-.5 3.2-.9 6.5-1.4 9.8-.4 3-.8 6.1-1.2 9.2l-.6 5.6-1.7 6.2c-.9 3-1.9 6-3 9-1 2.8-2.1 5.6-3.4 8.4-.8 1.7-1.5 3.5-2.4 5.1-.6.9-1.9 1.9-2.6 2.6-1.9 2.2-3.7 4.4-5.5 6.8-2.1 2.8-4 5.9-6.2 8.8-1.5 2-3.6 3.7-5.7 5-2 1.3-4.3 2.4-6.6 2.5l-.5-.1-4.6-1.3-26.7-7.1c-2.4-.7-4.8-.9-6.7-2.5-5.5-4.8-6.1-13-7.3-19.7-.3-1.5-.6-3-1.1-4.5-.6-1.9-1.5-3.9-1.7-6-.1-1.5.8-3.1 1.3-4.6.8-2.5 1.3-5.1 1.5-7.8.5-5.5-.2-11 .9-16.4 1.1-5.3 3.5-10.2 5.3-15.2 2-5.5 3.6-11.1 6.3-16.3 3.5-6.6 9.3-11.6 13.2-17.9M953.5 219.8l-.2.7c-.1.4-.2 1.2-.6 1.5-1.2 1.1-2.8 1.7-4.5 1.9-1.7 0-3.2-.4-4.7-1.3-2.4-1.4-4.1-3.6-6.9-4.4-13.5-3.8-27.1-7.3-40.6-11M883.5 223.8c3.4-6.1 7.4-11.7 12.4-16.6M915.4 326.5c-.8-.5-.7-1.3-.5-2.1.3-1.1.8-2.2 1.2-3.3.4-1 1-2.1 1.1-3.1.5-3.8.2-8-.7-11.7-.7-3-2-6.1-4-8.4-.7-.8-1.7-1.3-2.5-2-2.5-2.3-4-5.7-4.2-9.1-.2-5.2 2.8-9.8 6-13.5 1.5-1.7 3.3-3 4.5-4.8l1.5-2.6c3.2-5.6 5.6-11.6 7.4-17.8l1.6-6.3.6-3.2.1-.6c3.2-6.4 7.5-12.8 13.3-17M927.8 237.8l-.1-3-.2-3.7v-1.7c.1-4.3.7-10.4 5.8-11.4 1.1-.2 2.1-.1 3.1.1M917.3 317.9c.7.8.9 1.1 1.8 1.7 3 2.1 6.3 1.1 9.2-.5M916.5 268.4c-2.3 9.7-3.8 19.5-3.9 29.4M867.3 285.1c.2-10.1 1.7-19.9 4-29.7M953.5 219.8c2.3 5.9 3.2 11.9 3.6 18.3M957.1 240.9c-.2-6.5-.7-13.3-4.4-18.9M953.5 219.8l-4.6-1.2-30.2-8.2c-2.4-.6-4.5-1.4-6.9-1.5-1.9.1-3.5.6-5.3 1.2M954.9 223.9c.5 2 .9 3.6.9 5.7M1033.7 680.1l1.8.4M1078 649.9v-56.7M1034.6 667.4l.9.2M840.9 333.6l17.5-7.7M847.9 303.8l174.9 368.7M1022.8 672.5v8.8M1022.8 681.4l-2.4 10.6M902.9 1095.3l160.3-377.1M1078 650.3l-14.7 67.5M1077.6 650.2l.4.1M843.6 1194.8l-660.4-177.8M208.1 977.6l-26-7.1M264.5 930l1.4-4.7M263.9 923.3l2.4.6M211.1 974.5l-3 3.7M208.1 977.6l2.6-3.2M263.4 937l558.3 150.3M813.1 1149.2l-592.1-159.5M220.9 989.8v-14.3M218.4 974.8l2.5.7M226.8 936l-5.8 38.2M264.2 931.4l-3.5-1M183.4 924.3l5.4 1.5M194.1 883.8l-11 38.8M201.5 881.4l26.1 7M229.1 891.6l-1.5-3.2M227.8 887.8l1.6 3.2M238.5 894.4l-6.5-1.7M264.5 833.2l-26 61.2M227.1 934.5l11-38.8M218.7 934.4l1.8-1.7M220.3 934.2l3.9-.4M220.6 932.8l.7-.1M220.6 932.8l.1-.3M217.5 934.2l2-1.8M200.5 884.2l-5.4-1.5M194.9 881.4l26.2-61.6M902.4 1096.7l-1.2 4.7M830.7 1055.2l-10.9 38.8M820 1095.7l5.4 1.4M874.7 1067.2l-11 38.7M863.4 1107.4l-6.5-1.8M857.2 1104.2l.1-.3M854.1 1105.6l2-1.8M857.6 1145.6l5.8-38.2M844.8 1149l2.5-3.2M847.8 1145.9l-3 3.7M818.7 1142l26.1 7M857.5 1146.9l-2.6-.7M900.8 1102.8l-3.5-.9M857.5 1192.4l42.5-52.7M900 1138.7v-30M899 1108.5l1 .2M856.6 1192.2l.9.2M858 1104.1l-.8.1M857.1 1104.2l-1.8 1.6M831.7 1054.1l5.4 1.5M838.1 1052.8l26.1 7M868.6 1064l6.6 1.8M1032 696.6l-156.8 369.2M864.2 1059.8l1.5 3.2M866 1062.4l-1.6-3.2M900.6 1094.7l2.3.6M818.2 1163.4l-.7.9M848.8 1197.9v-3.4M186.3 1013.2v.4M996.7 674.4l-2.3 10.5M996.8 674.3v-8.8M840.9 333.6l.3.2M840.2 335.8l.5.2M845.8 346.2l-.2.6M864.4 338.6l-18.8 8.2M989 683l-.3 1.5M991.5 671.6l.1-.6M891.8 200.6l-2.7 6.2M889.7 208l-.6-1.2M847.9 303.8l2.6-6.1M854.5 294.1l6.5 1.8M1035.5 667.6l-175.4-369.7M1035.5 669.9l-2.2-.6M1035.5 667.9l-1.1-.3M1078 592.9l-137.5-290M1035 683.3l-6.1-1.6M1035.5 680.9l-2.3-.5M234.2 181.6l-32.1-21.5M201.7 160.2l2.6-6.2M235.6 181.1l-.6 1.3 7.9 16.6M226.5 28.4l2.6-6.1M233.4 31.3l-4.3-9M227 29.5l-.5-1.1M180.9 112.8l6.6 1.8M187.8 119.3l-1.2-2.7M187.9 119.3l-2.6 6.2M240.5 248.6l-60.6-127.9M202.1 160.1l2.6-6.2M206.8 145.5l-4.1.7M207.7 148.7l-4 .7M201.7 160.2l39.1 82.3M242.7 173l.7-.1M340 372l58.9 124.2M396.6 509l2.3.6M398.9 509.2l-1.8-.5M355.1 499.5l-.2.7M357.8 513.5l2.3-10.5M360.1 494.1v8.8M398.9 498.5l-2.3-.6M397.9 496l1 .2M397.8 496.2l1.1.3M360.1 494.1l-10.5-22.1M386.2 509.9v-8.8M343.8 411.8l42.4 89.3M386.2 510l-2.3 10.5M383.8 520.7l-24 56.5M357.7 513.6l-3.3 7.9M398.3 511.9l-6-1.6M426.7 546.4l14.7-67.5M441.1 478.9h.3M426.5 546.8l-65.1 153.5M320 165.5l121.4 256M395.4 525.2l-33.6 79M700.9 1088l-322-86.6M381.3 998.5l321.8 86.7M1078.7 589.6c.6 2 .2 4.7.2 6.6v47.1c0 .7.7 5.3-.9 6.6l-3.9 2.8-34.8 25-3.9 2.8M1078.9 591.4c-.7 2-2.3 4.3-3.2 6l-37.8 66.3-2.4 4.2v12.600000000000001M1035 683.3l-.8.1c-5.5-.2-10.8-1.8-16.1-3.2l-16.8-4.5c-2.8-.8-5.7-1.4-8.5-2.5-.6-.2-1.7-.5-2-1.2M991.2 660.5v9.3c.4 2.6 3.3 3.9 5.5 4.5l4.6 1.3 16.8 4.5 4.6 1.2 1.6.3c4 .6 8.2-.1 11.1-3M1032.2 696.1l1-4.6 1.3-5.8 1-4.7 3.9-2.8 34.8-25 3.9-2.8c1.7-1-.2.5.7-.3M1062.1 717.5l1.2.3.7-.3 1.1-4.7 12.7-58.1c.4-1.7 2.1-3.9.6-5.2M942.4 300.8l2.1 4.3 131.7 277.6c1.5 3.2 3.6 6.6 1.8 10.2l-2.4 4.2-37.8 66.4-2.4 4.1M1035.5 669.9c-2.6 2.6-5.9 3.2-9.5 3.2-2.8-.3-5.1-1-7.9-1.7l-16.8-4.5-4.6-1.2c-2.3-.7-5.5-2.1-5.5-5M1035 666.6c-.7 1.2-.8 1.6-1.7 2.7-2 2.1-4.5 3.1-7.3 3.5-2.8-.1-5-.8-7.9-1.5l-16.8-4.5-4.6-1.3c-1-.3-1.9-.7-2.7-1.3-2.5-1.7-3.5-5.2-4.7-7.7l-147-310c-.8-1.6-2.1-3.7-2.4-5.7-.2-1-.1-2 .1-3l.5-1.5-.5-1.1.1-.6 1.9-4.4 6.9-16.1 1.8-4.4M840 334.5l.4-.5.5-.4 1.9-4.4 6.2-14.7 1.9-4.4M863.9 338.3c-1.2-.8-1.5-.9-2.5-2.1-2.3-2.6-2.9-5.8-2.4-9.1M992.3 671.8l-.8-.2c-2.1.5-1.1 2.3-1.7 5-.4 1.8-2.2 5-1.2 6.1l1 .6c2.9 1.4 6.4 2 9.4 2.9l16.8 4.5c3.7.9 7.3 2 11 2.6 1.9.3 3.8.6 5.8.5M1028 695.5l4 1.1 4 2.7 23.2 16.1s4.9 2 4.1 4l-1.8 4.4-156.5 368.3c-.7 1.7-1.1 4.2-2.8 5.3M864.4 1059.2c3.4 1.1 6.9 2.5 9.5 5l1.2 1.6 3.3 3.5 21.2 22.5c1.7 1.8 3.6 2.6 3.4 4.8M1026.8 694.7l5.4 1.4 3.9 2.8 23.2 16.2 4 2.7M1031.2 698.7c-1.1-1.8-2.8-3.1-4.7-4.1-3.3-2-6.9-2.8-10.7-3.8l-16.8-4.5c-2.9-.8-5.7-1.7-8.7-1.9l-1 .1c-2.5.4-2.8 3.7-3.6 5.5l-152.3 358.3-1.9 4.4c-.1.3 0 1 .2 1.3l1.5 1.6M830.7 1055.2c.7-.1 1.5.2 2.2.4 1.3.3 2.7.7 3.9 1M994.4 685l-1.8 4.4-152.5 359-1.9 4.4-.6 1.5-.5 1.6-1.3 4.6-8.8 31-1.3 4.6-.4 1.6-.3 1.6-.7 4.7-4.6 30.2-.7 4.7-.2 1.5-.1 1.5v16.7c0 6.4-1 3.6 3.1 8.4l19.8 23.2 3.1 3.6c.2.2 2.9.5 3.2.5 3.5.2 7-.7 9.5-3.2M857.5 1146.9v40.699999999999996c0 3.6.8 8.1-3.1 10-1 .5-1.4.4-2.6.7-1.4-.1-2.7-.3-4.1-.7M208.4 999.2l-4 2.5-14 8.9-4.1 2.6-3 3.7.1 1.3c.1.8.2 1.9.9 2.6l.5.4 4.6 1.2 651.1 175.3c1.8.5 4.7 2.3 6.5.6l.7-.8v-3.1M1020.4 692l-1.8 4.5-152.5 358.9-1.9 4.4-.6 1.5-.5 1.6-1.3 4.6-8.7 31-1.4 4.7-.4 1.6-.2 1.6-.8 4.7-4.6 30.1-.7 4.8-.2 1.5v46.5M845 1199c-1-.7-1.2-1.7-1.4-2.9l-.1-1.3.9-1.1M843.6 1194.8l-3.1-3.6-19.8-23.3c-4.2-4.9-1.6-3.2-7.7-4.9l-599-161.2-4.6-1.2M183.2 1017l4.1-2.6 17.9-11.3c4.4-2.7 3.1-1.3 4.8-3.5M217.3 998.8c-2 .7-3.9.8-5.9.8-2.2-.2-1.1-.1-3.2-.5l-26.1 16.4M179.1 1014.4c1 1.6 2.6 3.1 4.2 3.9M182.1 1015.6c-1.1-.4-1.7-.5-2.7-1.1l-1.1-.8c-2.5-2.1-1.7-5.5-1.7-8.4v-34.8c0-2-.6-4.3.5-6.1M187.3 923.8l-3.9.5c-.2.1-.7.6-.8.8l-.7 4.8-4.4 28.7-.7 4.7c-.1.7.4 1.2 1 1.6 1.3 1 3.1 1.5 4.6 2M226.6 822.4l-1.9 4.4-21.3 50.2-1.9 4.4-.6 1.5-.5 1.6-1.3 4.6-8.7 31-1.3 4.6-.5 1.7-.2 1.6-.8 4.7-4.6 30.1-.7 4.8-.2 1.5v46.5M176.5 965.7c0 .9-.1 1.1.3 2 .9 2 3.2 2.9 5.2 3.6M209.3 974.1l-.9.5-26.1-7M208.5 973.9c3.1.7 6.2 1.2 9.4.9.8 0 2.3-.1 3.1-.7l3.6-3.2 35.4-31.8c4.7-4.2 3.3-1.6 4.3-7.8M265.6 926.1c1.7-1.1 2-3.6 2.8-5.2l31.1-73.3 1.9-4.4M266.5 925.3v-.6l-.2-.8 1.9-4.4 30.7-72.2 1.8-4.4M227.8 887.8c3.4 1.1 6.9 2.5 9.5 5l1.2 1.6 3.3 3.5 21.2 22.6 3.3 3.5M226.3 892.3c3 .8 6.1 1.7 9.1 2.6l2 .7.7.2 3.3 3.5 21.2 22.5 3.3 3.5M252.4 830l-1.8 4.3-21.2 49.7-1.8 4.4-.6 1.5-.5 1.6-1.3 4.7-8.8 31-1.3 4.5-.4 1.7-.3 1.6-.7 4.7-4.6 30.2-.7 4.7-.2 1.5-.1 1.5v21.6M262.9 937.8l-3.5 3.2-34.9 31.3-3.6 3.2c-1 .9-.7.9-1.9 1.6-2.3 1.3-5 1.6-7.6 1.6-2.2-.2-1.1-.1-3.2-.5M263.9 933.5c.6.8.4 1.8.4 2.7M216.9 1002.6c.2-4.1 1.1-8.4 3.4-11.8l.7-1 3-3.7 36.5-45.2 3-3.7c.7-.8 1.6-1.7 2.7-1.4l4.6 1.3 546.8 147.2 4.7 1.2M263.8 936.8c.4-.7.1-.2.5-1.3M215.3 931.1c2.6.7 5.2 1.4 7.8 2.2l2.4.8 1.6.5 4.7-.6 27.9-3.4 4.8-.6M214.3 935.7c3.1.7 6.2 1.2 9.4 1 .8-.1 1.6-.2 2.3-.4l.8-.3 4.8-.5 27.9-3.4 4.8-.6M217.5 932.6c-3.8-1.5-1.5-.7-7-2.1l-16.8-4.5-4.6-1.3M188.3 928.7c-1.3-.4-2.6-.8-3.9-1.5-.9-.5-1.7-1-1.8-2.1M189.2 924c-2-.5-3.9-1.1-5.9-1.5l-.2.1M189.2 924.4l-2.8-.8-2.7-.7-.6-.3M196.6 884.3l-1.5-1.6c-.6-.8-.1-1.8.7-2.2 1.8-.8 4.2-.2 5.9.2M233.6 894.3c-1.4-1.6-2.2-2.7-4.3-3.3M200.4 884.5l4.6 1.2 16.8 4.5c5.4 1.5 3.1.7 6.9 2.2M229.4 891c-.3.6-.5 1.2-.7 1.9M226.8 936l-6.5-1.7c-.4.1-.7.2-1.1.2-.7-.1-1.4-.1-2.1-.3l-2.8 1.5M217.2 934.2c.1-.8.3-1.6.5-2.5M227.1 934.5c-4-1.1-8-2-11.8-3.5M188.4 928l4.6 1.2 16.8 4.5c5.7 1.5 3.2 2 7.5-.2M200.2 885.2c-2-.5-3.9-1.1-5.9-1.4h-.2M809.9 1162.2c.1-4.2 1.2-8.1 3.2-11.7M813.1 1157c-.1.3-.2.7-.2 1v.5l-3 3.8M818.7 1163.5c-1.2-.4-1.7-.5-2.7-1.1l-1.1-.8c-2.6-2.1-1.7-5.5-1.7-8.4v-11.3c0-2.1-.6-4.4.6-6.2M823.9 1095.2l-3.9.5c-.3.1-.7.6-.8.9l-.7 4.7-4.4 28.7-.7 4.7c-.1.7.5 1.2.9 1.5 1.4 1 3.1 1.5 4.7 2M818.9 1139l4.7 1.2 16.8 4.5c5 1.3 3.2 2 5.6.7M845.1 1145.3c3.1.7 6.2 1.2 9.4 1 .8-.1 2.3-.1 3-.7l3.6-3.2 35.4-31.8c4.7-4.3 3.4-1.7 4.3-7.8M852 1102.4c2.8 1.1 5.6 1.8 8.5 2.7l3.2.8 4.8-.6 27.9-3.4 4.8-.6M900.8 1102.8l-4.7.6-27.9 3.5-4.8.6-1.8.6c-1 .2-1.6.2-2.6.2-2.7-.1-5.3-.4-8-1.1M853.8 1105.5c.1-.8.3-1.6.5-2.4M854.1 1104c-3.9-1.4-1.5-.7-6.9-2.1l-16.8-4.5-4.6-1.2M825.9 1095.4c-2-.5-4-1.1-6-1.4h-.2l.5.3 2.7.7 2.7.7M824.9 1100c-1.3-.4-2.6-.8-3.9-1.4-.9-.5-1.7-1.1-1.8-2.1M853.9 1104.8l-2.8 1.6-26.1-7M850.9 1107.1l2.8-1.5.5.1 1 .2c.5 0 1-.1 1.6-.2l3.9-.4M852 1102.4c3.9 1.1 7.9 2.1 11.8 3.5M900.5 1104.8c1.9 3-2.5 5.7-4 7.1l-35.4 31.8-3.6 3.1c-1 .9-.7.9-1.9 1.6-2.4 1.4-5 1.6-7.7 1.6-2.1-.2-1.1-.1-3.2-.5M813.1 1137.1c.1.8-.1 1.1.3 1.9.9 2 3.3 2.9 5.2 3.6M900.9 1106.9v30l-.2.9-.6.9v1.1c-.1 1-.1 1.7-.5 2.5l-.7 1.1-3 3.7-36.5 45.2-3 3.7M902.4 1096.7l-3.3-3.5-21.2-22.6-3.3-3.5-.7-.2-2-.7c-3-1-6.1-1.8-9.1-2.6M865.4 1063.8c-3.9-1.5-1.5-.7-6.9-2.2l-16.9-4.5-4.6-1.2M866 1062.4c-.3.6-.5 1.2-.7 1.9M870.2 1065.7c-1.5-1.5-2.3-2.7-4.3-3.3M838.4 1052.2c-1.4-.3-2.7-.6-4.1-.6-1.2.1-2.1.2-2.7 1.2M185.6 1013.4l.4.2M996.7 665.5l-2.1-4.3-147-310-2-4.3-1.5-.5-1.3-.8c-1.3-.9-2-2.1-2.6-3.4M845.7 346.2c-1.1-.8-1.5-1-2.5-2-1.8-2.1-2.8-4.9-2.6-7.7.1-1.4.3-1.7.7-3.1M864.1 337.9l-.2.4-4.4 1.9-9.4 4.1-4.4 1.9M847.9 303.8c1.4.3 1.7.4 3.2.3 3.3-.2 6.4-2 8.2-4.8.3-.5 1.7-3.1 1.7-3.5l-.9-2.4-.8-2.9c-.8-3.6-.9-7.2-1-10.9 0-7.9 1.2-15.8 2.9-23.5 2.2-9.8 5.3-19.5 9.9-28.6 2-4 4.3-7.9 7-11.5 2-2.5 4.3-5 7.1-6.6 2.4-1.4 6.1-2.1 8.2.2M889.1 206.8c.8.3 1.1.6 1.5 1.4M850.5 297.7c1.3.2 2.5-.3 3.1-1.5l.9-2.1-.9-2.5c-.6-2-1-4.1-1.3-6.2-.6-5-.5-10-.1-15 .8-9.1 2.7-18.2 5.5-27.1 2.1-6.8 4.7-13.4 8.1-19.8 2.8-5.2 6-10.6 10.7-14.4 1.8-1.5 4.1-3 6.6-3l2 .4 6.5 1.7M891.8 200.6c1.2.5 1.7.5 2.8 1.3 2 1.5 2.8 3.7 3.8 6M897.2 205.4c.5 1.7.4.9.5 2.3M217.9 27.1l-2-.4-2.1.3c-3.8 1.2-7 4.6-9.3 7.7-4.9 6.3-8.4 13.7-11.2 21.1-3 7.9-5.3 16.1-6.8 24.4-1.1 5.9-1.8 12-1.8 18 0 3.6.2 7.3 1 10.9l.8 2.8 1 2.5c0 1.3-1.4 2.1-1 3.5.2.4.5.8.9 1l.5.2 2 4.3 12.3 26.1 2.1 4.3.2.2M202.1 160.1c4.3-1.3 7-5.3 8.8-9.2M215.2 125.6l-1.8 4.4-4.7 11c-1 2.4-3.2 5-.9 7.7l4 2.7 27.8 18.6 4 2.7M243 172.4c-1.8 3.9-4.6 8-8.8 9.2M217.9 27.1c-2.8-.8-5.6-1.6-8.5-2.1l-2.1.4c-3.8 1.1-6.9 4.5-9.3 7.6-5.5 7.1-9.2 15.4-12.2 23.8-3.1 8.8-5.5 17.9-6.6 27.2-.8 5.5-1.1 11-.8 16.6.2 2.3.4 4.6.9 6.9l.7 2.8 1 2.4-.9 2.1c-.7 1.9-.9 3.9-.2 5.9.5 1.4 1.4 2.6 2.6 3.4l1.3.7 1.5.6 2 4.3 12.4 26 2.1 4.3 4 2.6 25.4 17 4 2.6 1.6.3c2.3.2 4.8-.4 6.7-1.7M217.5 27c1.6-3 5.1-4.9 8.4-5.1 1.4-.1 1.8.1 3.2.3M224.3 28.9c.7-.5 1.4-.5 2.2-.4M206.9 151.6c-.5 1-1.1 1.9-2.2 2.3M210.9 150.9l-4 .7-3.2-2.2c-2.2-2.8-.2-5 1-7.7l5.4-12.6 1.8-4.4M361.7 701.1l1.9-4.4 61.3-144.1 1.8-4.4-.2-1.3-3.9-2.7-23.2-16.1c-5.1-3.6-2.4-2.3-8-3.9M353.5 512.2c2.8 1.2 5.9 1.9 8.9 2.7l16.9 4.5c3.6 1 7.2 2 11 2.6 1.9.3 3.9.6 5.8.5M426.7 546.4l-3.9-2.8-23.3-16.1-4-2.7-5.3-1.5M353.6 513.1c2.7-.3 6.4 1.2 8.8 1.8l16.8 4.5c3.7 1 7.3 1.8 10.7 3.7 1.8 1.1 3.5 2.3 4.6 4.1M395.5 524.8l1-4.7 1.2-5.8 1-4.7 3.9-2.8 34.7-25.1 3.9-2.8c1.6-1.1-.2.5.7-.3M441.5 478.6v-56.699999999999996l.5-.9c.5-1 .4-1.8.1-2.7M319.2 157.5l2.1 4.4 118.3 249.5c1.5 3.2 3.7 6.6 1.8 10.2l-2.4 4.2-37.8 66.3-2.4 4.2M398.9 509.2v-12.7l2.4-4.2 37.8-66.3 2.4-4.2M442.3 420v51.9c0 .7.7 5.3-.9 6.6l-3.9 2.8-34.8 25.1-3.9 2.8M354.6 489.1v9.200000000000001c.4 2.6 3.3 3.9 5.5 4.5l4.6 1.2 16.8 4.5 4.6 1.2 1.6.4c3.9.6 8.2-.1 11.1-3.1M398.3 511.9h-.8c-5.5-.2-10.8-1.8-16-3.2l-16.8-4.6c-2.8-.7-5.8-1.4-8.5-2.5-.6-.2-1.7-.5-2-1.2M355.7 500.4l-.8-.2c-1.5.3-.9 1.1-1.3 3.2l-.7 3M350.4 480.4c1.5 3 2.9 6 4.3 8.9.7 1.4 1.4 2.5 2.6 3.4 2.1 1.5 5.1 2 7.4 2.6l16.8 4.5 4.6 1.2 1.6.3c3.3.3 6.7-1.1 8.9-3.5 1-1.1 1.1-1.5 1.7-2.7M354.6 489.1c.1 2.8 3.2 4.3 5.5 5l4.6 1.2 16.8 4.6 4.6 1.2 1.6.4c3.9.6 8.2-.1 11.1-3M441.7 478.1c1.5 1.2-.2 3.5-.6 5.2l-12.6 58.1c-.6 2.7.3 4.5-1.7 5l-1.2-.3M708.3 1077.9c-2-5.4-8.1-8.1-13.2-9.6l-4.6-1.2-273.1-73.5c-2.4-.7-5.4-1.5-7.9-2-2.9-.5-3.7-.5-6.7-.6-7.1.2-14.7 1.4-20.2 6.2-1.6 1.4-3.6 4-4.7 5.5l-4.2 5.1c-1.7 2.1-3.6 4-4.6 6.6"/>
    <path class="st1"
        d="M372.2 1018.9c1.9 1.5 2.2 1.8 4.4 3 3.3 1.7 6.9 2.5 10.4 3.4l273.1 73.6c2.4.7 5.4 1.5 7.9 2 8.2 1.4 17.8.5 24.9-4.1 2.8-1.8 4.6-4.4 6.8-7l4.1-5.1c.9-1.1 3.3-3.9 4.3-5.6l.7-1.9c1.7-6.8-5.1-11.6-10.6-13.7l-3-1-4.6-1.2-273.1-73.5c-2.4-.7-5.4-1.5-7.9-2-2.9-.5-3.7-.5-6.7-.6-7.1.2-14.7 1.4-20.2 6.3-1.6 1.4-3.6 4-4.7 5.4l-4.2 5.1c-2.7 3.3-6.1 6.7-5 11.4l.7 1.9c.7 1.7 1.4 2.1 2.7 3.6zM847.3 290.7l6.5 1.8M886.1 207.3c-1.2-.6-2-.8-3.3-.9-3.2.4-5.7 2-7.9 4.2-4.1 4-7.2 9-9.8 14.1-3.9 7.5-6.8 15.6-9 23.8s-3.7 16.7-4.2 25.2c-.2 4.3-.2 8.7.5 13 .4 2.5.9 5.3 2.1 7.6M884 206.4c-2.5-.7-5.1-1.6-7.7-1.8-3.1.4-5.6 2-7.9 4.2-3.4 3.3-6.1 7.4-8.4 11.5-4.1 7.2-7.1 15.1-9.5 23.1-2.7 9.2-4.6 18.8-5.1 28.4-.4 6.2-.3 12.9 1.9 18.9.9 2.6 2.6 5.8 5.4 6.5M211.5 35.9l-6.5-1.8M200.1 121.4h-.5l-3.8-1c-1.6-.4-3.4-.7-4.9-1.6-2.1-1.3-3.3-3.6-4.1-5.8-1.6-4.3-2-8.8-2.1-13.3-.2-9.2 1.3-18.5 3.5-27.5 2.4-10.3 6.1-20.4 11.2-29.6 2.6-4.6 5.7-9.4 9.8-12.8 1.8-1.5 4.1-2.9 6.5-3 1.5-.1 2.9.5 4.5.9 1.1.3 3.4.7 4.7 1.4M199.6 121.4c-1-.3-1.3-.3-2.1-.9-3.7-2.4-5-7.7-5.6-11.8l-.3-2.3-.2-2.4-.1-5.4c.1-10.5 2.2-21.1 5.2-31.3 2.6-8.8 6-17.6 10.8-25.5l2.8-4.2c3.1-4.3 7.5-9.5 13.3-9.1M208 44.9c-5.9 9.4-9.6 20.3-12 31-1.7 7.6-2.9 15.6-2.6 23.4M682.8 1098.4v2.1M673.7 1101.3c2.4-2 2.4-5.2.1-7.4-2.5-2.3-6.1-3-9.5-3.3-4.5 0-10.8.9-12.5 5.9M672.7 1101.3c.3-.5.4-.6.5-1.3.4-3.2-3.4-5-5.9-5.5-1.3-.3-1.7-.3-2.9-.4-3.5 0-7.1.6-9.6 3.4M646.2 1095.1c1.7-3.2 4.6-5.1 8-6.3 6-2.2 13.1-2.1 19.1 0 4 1.5 9.2 5 8.2 10-.2 1-.4 1.2-.8 2.1M682.5 1100.6c.2-.9.4-1.1.3-2.2-.1-5.5-5.9-8.8-10.6-10.2-1.3-.4-2.6-.7-3.9-.8-1.7-.3-2.2-.2-4-.4-4.5.1-9 .7-13.1 2.7-2.3 1.1-4.6 2.8-5.8 5.1M433 1031.1v6.5M422.8 1034.9c2.6-1.7 4-4.7 2-7.4-.5-.6-1.1-1.1-1.7-1.6-2.5-1.7-5.5-2.2-8.5-2.5-4.5.1-10.9.9-12.5 5.9M422.4 1034.8c1.5-1.7 1.2-3.8-.4-5.4-2-1.9-4.9-2.3-7.5-2.6-3.5 0-7.1.5-9.5 3.3M396.4 1027.8c1.6-3.2 4.6-5.1 7.9-6.3 6.5-2.3 14.4-2.2 20.8.7 3.5 1.7 7.4 4.9 6.6 9.3-.2.8-.5 1.5-.9 2.2-.6 1-1.4 1.8-2.4 2.6M430.3 1036.9c.6-.5 1.3-1.5 1.7-2.2 1.9-3.5.5-7-2.1-9.6-1.1-1.2-2.7-2.1-4.2-2.8-3.6-1.7-7.4-2.3-11.3-2.5-4.5 0-9 .6-13.1 2.7-2.3 1.2-4.6 2.9-5.8 5.2M842.6 196.8l29.1 7.8M852.1 297c-1.8-.1-5.1-1.3-6.2-1.6l-19.7-5.3c-3-.8-5.5-1-7.6-3.5-1.8-2.2-2.7-5.1-3.3-7.8-1.1-4.9-1.2-10-.9-15 .5-9.6 2.4-19.2 5-28.4 2.4-8 5.4-15.9 9.4-23.2 2.4-4.1 5-8.3 8.4-11.6 1.6-1.5 3.4-3 5.5-3.7 3.2-1.2 6.2.2 9.4 1.1l19.7 5.3 4.6 1.3.5.2M876.4 204.4c-1.5-.4-.7-.3-2.3-.4-3.1.4-5.6 2.1-7.9 4.3-2.8 2.7-5 5.9-7 9.3-4.2 7-7.4 14.6-9.9 22.4-3.3 10.2-5.5 20.9-6 31.6l-.1 5.6.3 5c.6 5.2 1.8 11.9 7 14.5M845.5 270.4c.2-9.1 2.1-18.3 4.7-27 2-6.6 4.5-13.2 7.8-19.3M214.5 35.3l26.2 7.1M247.3 35l-4.6-1.2-11.9-3.2-4.6-1.3-1.2-.2c-4.4 0-7.8 3.1-10.6 6.2-6.8 7.8-11 17.9-14.4 27.5-2.8 8.3-4.9 16.9-6 25.6-.7 5.6-1.1 11.4-.7 17.1.2 3.5.8 7.1 2.1 10.4.7 1.8 1.7 3.6 3.3 4.8 1.8 1.5 4.6 1.8 6.7 2.3l13 3.5 4.6 1.2M782.6 963.6l6.8 1.2M811.9 310.4l-4.8-5.2M811.2 311.7l-6.8-1.3M821 304.6l-4.8-5.2M816.6 298.6l6.5 1.8M829.8 291.1l-6.7 9.3M809.5 287.6l6.5 1.7M678.4 944.6l98 26.4M776.6 965l-98.1-26.4M227 817l98 26.4M324.9 849.4l.1-6M226.8 823l98.1 26.4M224.3 821.5l.1-6M222.4 812.8l137.3-115.1M360 702.6l1.7-2.1M364.8 701.7l421.8 113.6M314.2 107.2l-64.4 53.9M226.8 823l.2-6M361.7 700.5l-137.3 115M216.3 810.6l6.1 2.2M227 817l.4-.4M363.2 703.4l-3.2-.8M361.7 703v-2.5M243.8 158.9l6 2.2M230.8 131.8l-6.5-1.8M231.4 141.1l6.5 1.7M288.5 72.1l-50.6 70.7M849.4 300.3l-.1-3.9M849.9 311.2l-.1-3.4M782.7 961l-2.5 4.2-.1 6M776.7 970.5l3.4.7 1.4.2c2.5.1 5.4-.8 6.8-3l2.4-4.2 72-123.1c.9-1.5 3-4.3 3.4-6.4l.2-1.3.1-4.7 2.1-89 .1-4.8-.2-4.8-15.7-357.5-.2-4.8M788.4 968.4c.5-1 .7-1.1.9-2.2l.1-1.3 2.4-4.1 72-123.1 2.4-4.2M831 291.4l-5.8 8-2.8 3.9-.6.7c-1.7 1.6-3.9 2.6-5.9 3.9l-4.1 2.6c-.3.2-.5.5-.6.9l-.1.4-.1 4.8-.7 29.8-.3 9.6-18.3 505.6c-1.2 34.4-1.6 68.9-2.4 103.3M776.9 964.5l3.4.7c3.4.6 2.4-4.8 2.4-6.4l2-89 .3-9.6 18.2-505.7c.5-13.1.7-26.3 1-39.4l.1-4.8.1-1.2c.4-2.1 2.5-4.9 3.3-6.4l3-5.2 2.4-4.2M805.4 307l.8-1 .9-.8 2.5-4.1 1.6-2.9 2.5-4.1M854.9 198.6c-.8-1.2-2.2-3.9-3.4-5.2-1.9-2-4.1-2.3-6.7-3-4-1.1-2.2-.8-5.3-1.1l-2.1.4c-2.7.8-5 2.7-6.9 4.7-3.9 3.9-6.8 8.7-9.5 13.5-5.6 10.3-9.4 21.7-12 33-2.5 10.5-4.1 21.6-3.3 32.4.3 4.1.9 8.4 2.6 12.2.9 1.9 2.7 4.6 3.7 6.1l1.9 3 2.6 4v.5l-.4.3c-3 2-6.1 3.9-9.1 5.8M848.2 191.2l-1.9-.2-2 .3c-3.6 1-6.5 3.8-9 6.6-3.6 4.2-6.5 9.1-9 14-2.7 5.2-4.9 10.9-6.8 16.4-2.8 8.4-5 17.1-6.2 25.9-1.2 8-1.8 16.3-.7 24.3.4 2.9 1 5.9 2.3 8.7.9 2 2.7 4.6 3.7 6.1l2 3c1.5 2.4 3.2 3.5 2.4 6.1l-.5.9M782.8 954.8l-2.6 4.1-1.1 2-2.5 4.1-.2 6M776.8 964.5l-.1 3.1v2.9l-.3.5M325 843.4c8.2-5.7 16.5-11.4 25-16.7 14.8-9.2 30.2-17.7 45.9-25.2 7.1-3.4 14.2-6.7 21.5-9.9 2.4-1.1 4.5-2.1 7-2.9 2.9-.9 5.9-1.5 8.9-1.8 4.2-.3 8.5-.2 12.6.6l3 .7 4.6 1.2 221.3 59.6c5 1.4 10.2 2.6 14.4 5.8 1.7 1.3 3.1 2.8 4.1 4.7 1.3 2.6.9 5.4.8 8.3 0 4.1-.2 8.1-.5 12.3-.9 12.6-3.4 25.2-7.1 37.2-1.6 5-3.4 10.1-5.5 15.1l-.7 1.7-1.8 4.5-.1 6M694 875.1c0-2.5.4-5.4-.2-7.8-1.3-5.2-7-8.4-11.8-10.1l-2.8-.9-4.6-1.2-221.3-59.6-4.7-1.2-3-.7c-3.1-.6-6.2-.8-9.4-.8-4.1.2-8.1.7-12 1.9-4.6 1.5-9.1 3.9-13.6 5.9-5 2.2-9.9 4.6-14.9 6.9-15.7 7.6-31 16-45.8 25.2-8.5 5.3-16.8 11-25 16.7M314.2 107.2c-.1-1.2 0-1.4-.4-2.6-.8-3-3-5.2-4.9-7.6l-16.4-20.1-3-3.7-.7-.6c-.4-.6 0-.1-.3-.6l-2.5-4.1-15.8-26.1-2.5-4.1-1.4-1.9c-1.9-2-4.2-2.4-6.7-3.1-4-1.1-2.2-.8-5.3-1.1l-2.1.4c-3.8 1.2-6.8 4.3-9.3 7.3-3.3 4-5.9 8.4-8.2 13-7.4 14.5-12 30.8-13.7 47-.9 8.5-1.4 17.7 1.2 25.9 1.9 5.8 6.4 10.4 9.2 15.7l.2 1.1c.4 1.2 1 2.4 1.9 3.4 2.2 2.6 4.4 5.3 6.6 8l3.1 3.7.4.8.2.8-.1 4.8c-.3 13.1-.4 26.3-1 39.4l-23.9 504.1-.3 9.6-2 89-.2 4.8.1 1.3c.5 3.8 3.2 7.3 6.5 9.1l1.3.6 2.6 1M786.7 813.5l-4.7-1.2-410.3-110.5-4.6-1.2-.5-.1c-1.5.5-2.3 1.8-3.4 3M361.7 700.5c-3-1.4-2-4.7-1.9-7.5l2.1-89c.1-6.4.2-3.2-.4-9.6l-46.8-483.2-.5-4.8M263 33.7l-1.9-.2-2 .3c-3.6 1-6.6 3.9-9 6.6-3.6 4.2-6.4 9-9 14-2.7 5.3-4.9 10.9-6.8 16.5-3.4 10-5.8 20.5-6.9 31-.9 8.3-1.2 17.3 1.3 25.4 1 3.2 2.8 5.8 4.6 8.6l2 3 2.6 4 .4.6.6.6 3 3.7 2.6 3.2c2 2.4 4.1 4.5 5 7.6.7 2.4.3 5.1.3 7.4-.3 13.1-.4 26.3-1.1 39.4l-23.8 504.1-.4 9.6-2 89c-.1 2.2-1.1 6.5 1.9 7.5l3 1.1M311.9 100.7l-3.7 3.1-57 47.7-3.7 3.1-4.3 2.7M289.4 73.2l-2.8 3.9-44.9 63-2.8 3.9-4.4 2.7M504.1 779.6c-.6.8-.9 1.1-1.1 2.1-.8 3.3 2.8 5.6 5.4 6.5l1.7.6 1.9.4 2 .2c3.9.3 8.7-.2 11.9-2.8 1-.8 2.3-2.5 3-3.3 1.6-1.8 3.9-3.8 3-6.5l-.6-1-.8-1c-.7-.7-1.6-1.3-2.4-1.7-1-.5-2.2-.9-3.3-1.3-1.9-.5-3.8-.6-5.8-.7-3.4.2-7.1.6-9.9 2.8-1 .8-2.3 2.5-3 3.3l-2 2.4-.1 5.6M504.2 785.4c1.8-2.1 3.6-4.8 6-6.2 4.3-2.4 9.9-2.6 14.5-1.3 2.2.6 4.5 1.6 6 3.4M661.1 816.4c-2.8-3.4-7.8-4-11.8-4.2-3.4.2-7.2.6-10 2.9-1.8 1.4-3.3 3.6-4.8 5.3"/>
    <path class="st1"
        d="M638 822.9c5.1 2.3 12.1 2.4 17-.4 1.8-1 2.9-2.5 4.2-4.1 1-1.2 2.7-2.7 3.1-4.3.5-2.1-.9-3.9-2.6-5.1-3.1-2.1-6.8-2.6-10.4-2.8-3.4.2-7.2.7-10 2.8-1 .8-2.3 2.4-3 3.3l-2.1 2.3-.7 1c-1.5 3.3 1.8 6.1 4.5 7.3zM862.3 841.8c-.8 2.5-.3 4.1-2.5 4.2M861.1 845.6c-.2-.5-.1-.2-.5-.8M241.2 91.8c-.1 2.1-.3 4.3-.2 6.3 0 2.5 1.1 4.5 3.5 5.7.8.4 3.3 1.3 4.9 1.1 2.6-.4 4.6-3 5.8-5l.8-1.3.8-1.5 1.5-3.3 1.2-3.3"/>
    <path class="st1"
        d="M260.3 87.1c1-4.6 1.9-9.4 1-14.1-.3-1.8-1-3.7-3-4.3-3.2.2-5.3 3.7-6.6 6.1-2.2 4-3.7 8.5-4.6 12.9-.7 3.5-1.2 7.2-.8 10.7.1.8.2 1.7.5 2.6.6 2 2.1 3.8 4.2 2.8.6-.3 1.2-.8 1.7-1.2 2.3-2.1 3.8-5.1 5-8 1.2-2.4 1.9-5 2.6-7.5zM261.7 79c.1-1.6.1-3.2 0-4.8-.1-.9-.2-1.7-.5-2.5-.2-.8-.4-1.5-.8-2.1-1.3-2.2-5-2.7-6.9-3.2-2.1.2-2.7 1.3-4.2 3-2 2.2-1.7 1.6-2.8 3.6-1.4 2.5-2.1 4.8-3 7.5-1.1 3.2-2.3 6.5-2.5 9.9-.1 2-.1 4.1-.1 6.1M241 98.1l4 1.1h.2c.5-.3.6-1.4.6-1.8.2-1.4.2-2.8.1-4.2-.1-.5-.2-1.3-.5-1.7l-.2-.1-4-1.1M246.2 85.8c-.4 1.9-.8 3.7-1.1 5.6M242.2 84.8l4 1h.2c.5-.2.9-1.1 1.1-1.6.8-1.5 1.3-3.2 1.7-4.9.1-.5.4-1.5.1-2l-.2-.1-4-1.1M251.4 72.7c-.8 1.4-1.6 2.9-2.3 4.5M247.4 71.6l4 1.1h.3c1.3-.3 2.5-2 3.2-2.9.2-.3.9-1.1.5-1.5l-.1-.1-4-1.1M257.5 67.4c-.9.1-1.4.3-2.2.8M254.2 70.6c.1.3.1.2.1.5M245.8 102.6c-.4-1.1-.6-2.2-.8-3.4M242.4 101.9c.5.6.8 1 1.6 1.3M241.8 101.6c1.7.5 3.7.7 5.2 1.7.5.4 1 .8 1.4 1.2l.2.5"/>
    <defs>
        <path id="SVGID_1_" d="M120 1200z"/>
    </defs>
    <clipPath id="SVGID_2_">
        <use xlink:href="#SVGID_1_" overflow="visible"/>
    </clipPath>
    <path class="st3" d="M120 1200l9.6-9.6"/>
    <path class="st0" d="M120 1200z"/>
</svg>
