<svg xmlns="http://www.w3.org/2000/svg" xmlns:xlink="http://www.w3.org/1999/xlink"
    viewBox="0 0 1200 1200" enable-background="new 0 0 1200 1200">
    <style type="text/css">.st0{fill:none;} .st1{fill:none;stroke:#000000;stroke-linecap:round;stroke-linejoin:round;stroke-width:4;} .st2{clip-path:url(#SVGID_2_);} .st3{fill:none;stroke:#FFFFFF;stroke-miterlimit:10;}</style>
    <path class="st0" d="M1200 385.2h-1200v429.5h1200v-429.5z"/>
    <path class="st1"
        d="M334.6 609.5v-.3M284.9 599.8v-3.9M.7 524.4v108.4M771.4 592.5l-257 68.8M659.9 676.4l-9.9 2.7M957 596.9l-10 2.6M103 527.2l-9.9 2.7M393.2 449.5l-3.1.8M959.7 491.7l-.3-.1M407.9 452.6l.1-.2.2-.4.3-.7.6-.8.8-1.1 1.1-1.2 1.2-1.4 1.4-1.4 1.7-1.5 1.8-1.5 2-1.5 2.1-1.5 2.2-1.5 2.2-1.4 2.2-1.3 2.3-1.2 2.1-1.1 2.1-.9 1.9-.8 1.8-.6 1.6-.5 1.3-.3 1.1-.1.7-.1h.5M428.8 437.1c2.3-1.7 4.5-3.5 6.5-5.5M437.7 449.2l1.3-1 2.3-1.9 2.3-1.9 2.1-1.9 1.9-2 1.8-2 1.6-2.1 1.4-2.1 1.3-2.2.8-2 .5-1.9.2-1.8v-1.7l-.2-1.6-.5-1.6-.8-1.6-1-1.4-1.3-1.2-1.3-.9-1.5-.8-1.6-.5-1.7-.3-2-.2-2.2.1-2.4.3-2.6.6-2.6.7-2.7.9-2.7 1.1-2.6 1.2-2.7 1.3-2.7 1.5-2.7 1.6-2.6 1.6-2.5 1.8-2.5 1.8-2.3 1.8-2.3 2-2.1 1.9-2 2-1.9 2-1.6 2-1.5 2.1-1.3 2.2-.9 2.1-.6 1.8-.3 1.8-.1.8M403.4 462c2.3-2.4 3.8-5.4 4.4-8.7M393.1 450.7l-.1.2-.2.4-.5.6-.4.5M381.7 453.5c-4 1.1-7.2 4-8.7 7.9M379.1 485.3c3.3 2.7 7.6 3.7 11.7 2.7M399.7 466.5l3.7-4.5M391.9 452.4l-3.8 4.5M391 487.9c2.5-.6 4.8-2.1 6.5-4.1M390.4 454.3c-2.7-1.2-5.7-1.5-8.6-.7M397.5 483.8l.8-1.2 1.1-1.7.7-1.9.6-2.1.4-2.2v-2.2l-.1-2.3-.4-2.3-.5-1.9M381.8 453.5l-.2.1M390.9 488l.1-.1M428.8 437.1c-3.1 2.2-5.9 4.8-8.4 7.6M437.7 449.2c-2.1 1.5-4.1 3.3-5.8 5.2M428.1 458.9l3.8-4.5M420.4 444.8l-3.7 4.5M419.8 480.2l.5-.1 1.8-.8 1.6-1 1.4-1.2 1.3-1.5 1-1.6.9-1.8.7-2 .5-2.1.2-2.2-.1-2.3-.3-2.3-.5-2.3-.2-.6M418.9 446.7c-1.7-.8-3.5-1.2-5.3-1.2M433.6 467.3l1.5-.4M439 460v-.4M437.5 454l-.2-.3M957.9 624.8c.6-4.8-.3-9.8-2.8-14l-.7-1.2-1.4-1.8-1.6-1.6-1.8-1.4-1.7-1-1.8-.8-1.8-.5-2-.2-2 .1-.6.1M941.7 602.3l-3.2-5.7M925.5 604.1l4.1 7.2M929.4 586.5l-1-.8-1.8-1.6-1.7-1.7-1.5-1.9-1.4-1.9-1.2-1.9-1.1-2-.7-2-.6-1.9-.4-1.7-.1-1.7v-1.5l.1-1.3.4-1.2.4-1 .6-.8.9-.8.9-.6 1.1-.4 1.2-.3 1.5-.2 1.6.1 1.7.3 1.9.4 1.9.7 1.9.9 2.1 1.1 1.9 1.3 1.9 1.4 1.8 1.6 1.7 1.8 1.5 1.8 1.4 2 1.2 2 .9 1.9.8 2 .5 1.8.3 1.8.2 1.6M965.2 583.5l-.1-1.6-.3-2.9-.7-2.8-.9-2.9-1.1-2.9-1.4-2.8-1.6-2.7-1.8-2.7-2-2.5-2.2-2.4-2.3-2.2-2.5-2.1-2.7-1.9-2.7-1.7-2.7-1.5-2.9-1.2-2.9-1-3-.8-2.9-.4-2.9-.2-2.8.1-2.7.4-2.6.7-2.4 1-2.3 1.2-2 1.4-1.8 1.7-1.6 1.9-1.4 2-1.2 2.2-.9 2.4-.6 2.4-.3 2.6-.2 2.7.2 2.8.4 2.8.7 2.9.9 2.8 1.2 2.9 1.5 2.8 1.6 2.7 1.9 2.6 2 2.5 2.3 2.4 2.3 2.2 2.6 2M938.5 596.6c-2.3-3.9-5.4-7.4-9.1-10.2M925.5 604.1c-1.3-2.2-3-4.2-5.1-5.7M986.4 617l.2-1.5v-2.3l-.2-2.3-.5-2.3-.7-2.2-1-2.1-1.1-2-1.4-1.9-1.6-1.7-1.7-1.4-1.7-1.1-1.8-.7-1.8-.5-2-.3-2 .1-.9.1M970.3 594.7l-3.3-5.7M954 596.5l.6 1M950.2 584.2c.2 4.4 1.6 8.6 3.8 12.3M965.2 583.8c.2 1.9.8 3.7 1.8 5.2M987.4 598.9l-1 .3M996 609.2v-.4M994.5 603.2l-.2-.3M282.3 584.8c-.4-3.3-2.6-6.2-5.7-7.4M253 577.2c-3.4 1-5.8 4-6.3 7.5M246.7 585.7c0 1.5.4 3 1.2 4.2M269.2 595.7l1.9-.3 1.9-.4 1.9-.5 1.9-.7 1.3-.8 1.1-.8 1.1-1 .8-1.2.7-1.3.4-1.4.1-1.5v-.1M282.3 585.7v-.2M246.7 585.5v.2M273 560.6l-.9-.9M256.8 559.7l-.9.9M273.4 569.3v-8.1M255.6 561.2v8.1M273.4 596.8v-1.9M281.7 588.8l1.3-.4M279.2 574l-3.2.8M279.2 574c1.4-.5 2.6-1.4 3.5-2.6M283 588.5c4.3-1.3 8.1-3.8 11-7.2M326 588l-.2-1.8-.1-.7M324.9 580.8c-.4-1.7-1-3.4-1.7-5M321.7 572.9l-.4-.8-1.6-2.3-1.8-2.1-1.9-1.8-2.1-1.5-2.2-1.2-2.3-1-2.4-.6-2.5-.4h-2.4l-2.5.2-2.4.5-2.5.8-2.4 1.1-2.4 1.3-2.3 1.6-2.2 1.9-2.1 2.1-.6.7M294 581.2l.7-.7 1.3-1.3 1.4-1.1 1.3-.8 1.3-.6 1.2-.4 1.1-.1h1.1l1.1.2.8.4M332 598.1c-.3-3.3-2.5-6.2-5.7-7.4M302.7 590.5c-3.4 1-5.8 3.9-6.3 7.5M296.5 599c0 1.5.4 3 1.2 4.2M318.9 609l1.9-.3 1.9-.3 2-.6 1.8-.7 1.3-.8 1.2-.8 1-1 .8-1.2.7-1.3.4-1.4.1-1.4v-.2M332 599v-.1M296.4 598.9v.1M322.8 573.9l-.9-.8M306.6 573.1l-.9.8M323.2 582.7v-8.1M305.3 574.6v8.1M323.2 610.1v-1.9M331.4 602.1l1.4-.3M328.9 587.3l-3.2.8M328.9 587.3c1.4-.5 2.6-1.4 3.5-2.5M332.8 601.8c4.3-1.2 8.1-3.7 11-7.2M375.4 598.5l-.3-2-.7-3-.9-2.8-1.1-2.7-1.4-2.6-1.6-2.3-1.8-2.1-1.9-1.8-2.1-1.5-2.2-1.2-2.3-.9-2.4-.7-2.4-.4h-2.5l-2.4.2-2.5.5-2.5.8-2.4 1.1-2.4 1.3-2.3 1.6-2.2 1.9-2.1 2.1-.6.7M343.7 594.6l.7-.8 1.3-1.3 1.4-1.1 1.3-.8 1.3-.5 1.2-.4 1.1-.2h1.1l1.1.2 1 .5.9.6.9.8.8 1 .8 1.4.7 1.5.6 1.8.5 1.9.2 2.1.1 1.2M345.1 538.4l127.4 34.1M923.4 621.7l-223.4-59.9M606.2 536.7l-185.5-49.8M365.6 472.2l-2.3-.6M712.4 796l3 .8M733.5 729.9l-3-.8M441.1 625.9l.5.1M442.9 621.7l-.4-.2M526.7 603l.4.1M528 595.5l-.4-.2M609.4 580.8l.4.1M611.1 576.6l-.4-.1M688.9 552.4l-.4-.1M692.4 558.6l.4.1M693.8 551l-.4-.1M771.8 530.1l-.4-.1M775.1 536.4l.4.1M776.9 532.2l-.4-.1M854.6 508l-.4-.1M854.8 511.9l-.4-.1M852.8 515.5l.5.2M858.2 514.2l.4.1M859.5 506.7l-.4-.2M937.5 485.8l-.5-.1M937.7 489.7l-.5-.2M935.7 493.4l.4.1M940.9 492l.4.1M942.7 487.8l-.5-.2M764.5 795.6l293.8-78.7M760 677.7l-6.6 1.7M793.2 668.8l-6.7 1.8M1031.2 605l-230.1 61.7M1159.4 476.6l-128.4 128.5M1061.5 715.2l136-136M361.9 422.7l-294.8 79M215.2 581.2l37.8-10.2M273.4 565.6l86.5-23.2M871 385.9l-421.3 30.3M429.9 417.6l-65.5 4.7M1199.3 575.1v-97.6M1194.4 471.9l-319.7-85.7M560.3 524.4l125.5-9.1M1022.5 545l54.1 14.5M871.5 388.6l-.2-1-.3-1.6M558.1 644.9l-8-2.1M1002.6 433.3v7.8M1002.6 456.9v5.5M1002.6 530.7v7.9M1002.6 433.3l-669.7 179.4M1002.6 433.3l-5.3-1.4M327.7 611.3l5.2 1.4M997.3 431.9l-669.6 179.4M325.7 688.6l3.9 1.1M325.7 644.2v44.4M323.2 610.1l.2-.2.2-.4v-.4l-.2-.3-.2-.2M295.8 602.8l1.4-.3M328.3 606l2.2.6 1 .3 1 .4.8.4.6.4.4.4.2.4.1.4v.2M273.4 596.8l.3-.2.2-.4v-.4l-.2-.3-.3-.3M246.1 589.5l1.4-.3M278.6 592.7l2.1.5 1.1.4 1 .3.8.4.5.4.5.4.2.5.1.4-.2.5-.3.4-.5.4-.7.4-.9.4-1.6.6M6.8 525.3l-.6-.2-.5-.2-.2-.2-.1-.3.1-.2.2-.2.5-.2.6-.2M673.8 704l-667-178.7M673.8 704c2.2.5 4.4.5 6.6 0M739.1 688.3l-58.7 15.7M743 687.9c-1.3 0-2.7.1-4 .4M764.5 687.9h-21.5M764.5 689.1v-1.2M743 689.1h21.5M743 689.1c-.2 0-.4 0-.6.1M742.4 689.2l-58.7 15.7M670.4 704.9c4.4 1 8.9 1 13.3 0M670.4 704.9l-666.9-178.7-.9-.3-.8-.2-.5-.4-.4-.3-.2-.4v-.3l.2-.4.4-.3.5-.3.8-.3.9-.3 58.6-15.8M62.4 506.8v.1h-.30000000000000004M62.4 501v5.8M67.1 501h-4.7M67.1 506.8v-5.8M65.4 507.8l.4-.1.3-.1.3-.1.3-.1.2-.2.1-.1.1-.2v-.1M6.8 523.6l58.6-15.8M670.4 704.9v108.4M683.7 704.9v108.4M670.4 813.3c4.4 1 8.9 1 13.3 0M3.5 526.2v108.4M670.4 813.3l-15.2-4M623.4 800.7l-578.2-154.9M13.4 637.3l-9.9-2.7"/>
    <path class="st1"
        d="M344.2 694.3l5.4 1.5v-45.2l-5.4-1.5zM324.3 643.8v45.2l5.3 1.4v-45.2zM12.1 553.4l-3.3-.9v58.7l3.3.9zM665.1 728.4l-3.3-.9v58.7l3.3.9zM506 724.1v-3.6l-.1-1-.2-.9-.3-.9-.5-.9-.5-.7-.7-.5-.7-.4-.7-.2h-.6l-.7.3-.5.3-.5.6-.3.8-.2.8-.1.9v3.6l.1 1 .2.9.3 1 .5.8.5.7.7.6.6.3.7.2h.7l.7-.2.5-.4.5-.6.3-.7.2-.9zM730.5 729.1c-.8-.2-1.6-.2-2.4 0l-13.3 3.5-1 .3-.9.5-.9.7-.8.8-.8 1-.6 1.1-.6 1.2-.4 1.2-.4 1.3-.2 1.3-.1 1.3v45.2l.1 1.3.2 1.2.4 1.1.4 1 .6.9.6.7.8.5.8.4.4.1"/>
    <path class="st1"
        d="M693.3 802.8l.7-.2.7-.5.6-.6.5-.7.4-.8.3-.9.2-1 .1-.9-.1-.9-.2-.9-.3-.7-.4-.6-.5-.5-.6-.2-.7-.1-.7.1-.7.2-.6.5-.6.6-.6.7-.4.9-.3.8-.2 1-.1.9.1.9.2.9.3.7.4.6.6.4.6.3.6.1zM693.3 708.4l-.7.3-.6.5-.6.6-.6.7-.4.8-.3 1-.2.9-.1.9.1.9.2.9.3.7.4.6.6.5.6.2.6.1.7-.1.7-.2.7-.5.6-.6.5-.7.4-.9.3-.8.2-1 .1-.9-.1-.9-.2-.9-.3-.7-.4-.6-.5-.5-.6-.3-.7-.1zM693.3 743.5l.7-.2.7-.5.6-.6.5-.7.4-.8.3-1 .2-.9.1-.9-.1-.9-.2-.9-.3-.7-.4-.6-.5-.5-.6-.2-.7-.1-.7.1-.7.2-.6.5-.6.6-.6.7-.4.8-.3 1-.2.9-.1.9.1.9.2.9.3.7.4.6.6.5.6.2.6.1zM742.4 797.6l-58.7 15.7M742.4 797.6v-108.4M690.6 716.8c2.7-1.8 3.6-5.3 2.2-8.2M690.6 742.5c2.7-1.8 3.6-5.3 2.2-8.2M663.2 785.8l-1.4.4M690.6 801.7c2.7-1.8 3.6-5.3 2.2-8.2M764.5 797.5v-108.4M743 797.5v-108.4M743 797.5h21.5M743 797.5c-.2 0-.4 0-.6.1M502.7 717.8l-3.3.9M503.3 715.3c-.4.7-.7 1.6-.6 2.5M502.7 721.4l-3.3.9M502.7 721.4c-.1 2.1.9 4.1 2.7 5.2M502.7 717.8v3.6M345.6 693.9l-1.4.4M325.7 688.6l-1.4.4M3.5 634.6l-.9-.2-.8-.3-.5-.4-.4-.3-.2-.4v-.2M10.1 610.9l-1.3.3M67.1 512v-5.2M900 639.5l-8.6-14c-.4-.8-1.1-1.3-1.9-1.6M889.5 623.9l-117.2-31.4"/>
    <path class="st1"
        d="M633.7 645.8l.4-.2.3-.1v-.2l-.1-.2-.4-.2-.5-.1-.6-.1h-1.2999999999999998l-.7.1h-.6l-.4.2-.2.2v.2l.1.1.3.2.5.1.6.1.7.1.7-.1h.6zM694.1 662l.3-.2.3-.2v-.2l-.1-.1-.3-.2-.5-.1-.6-.1-.7-.1h-.7l-.7.1-.5.1-.4.2-.2.1-.1.2.1.2.4.2.5.1.6.1h1.2999999999999998l.7-.1zM634 678l.5-.1.2-.2v-.2l-.1-.2-.3-.2-.5-.1-.7-.1h-1.2999999999999998l-.6.1-.6.1-.4.2-.3.1v.2l.1.2.4.2.4.1.7.1h1.2999999999999998l.7-.1zM573.7 661.9l.4-.2.3-.2v-.2l-.2-.1-.3-.2-.4-.1-.7-.1h-1.9999999999999998l-.5.1-.5.2-.2.2-.1.1.2.2.3.2.5.1.6.1h2zM739.9 609.6l.4-.1.3-.2v-.2l-.1-.2-.3-.1-.5-.2h-.6l-.7-.1h-.7l-.7.1-.5.1-.4.1-.3.2v.2l.1.2.4.1.4.2.6.1h1.4l.7-.1zM829 633.5l.4-.2.3-.1v-.2l-.1-.2-.4-.2-.4-.1-.6-.1h-1.4l-.7.1-.5.1-.4.1-.3.2-.1.2.2.1.3.2.5.1.6.2h1.4l.7-.1zM771.4 641.3l.5-.2.3-.2.1-.2-.1-.2-.3-.2-.4-.2-.6-.1-.6-.1h-1.6l-.7.1-.7.1-.5.1-.4.2-.2.1v.3l.2.2.3.2.5.1.7.1.6.1h1.6l.7-.1zM771.4 637.5l.5-.2.3-.2.1-.2-.1-.2-.3-.1-.4-.2-.6-.2h-.6l-.8-.1h-.8l-.7.1-.7.1-.5.1-.4.2-.2.2v.2l.2.2.3.2.5.1.7.1.6.1.8.1.8-.1.7-.1zM772.3 592.5c-.3-.1-.7-.1-1 0M31.4 532c-.5-1.3-1.9-2.1-3.2-1.6-.3.1-.6.3-.9.5M149.5 494.4v69.2M15.4 527.6l73.6-19.7v2.8l12.8-3.5v2.7M108.5 505.4l26.4-7.1v2.7M141.7 496.5l7.8-2.1M12.1 526.7l3.3.9M12.1 526.7l73.6-19.7 3.3.9M10.1 610.9l2 .5M10.1 552.8v58.1M27.8 530.5l.1.2.2.3M98.5 506.3l3.3.9M89 508.9l9.5-2.6M131.7 497.4l3.2.9M107.7 503.9l24-6.5M146.2 493.5l3.3.9M140.9 495l5.3-1.5M668.4 702.6l73.6-19.7M665.1 701.7l3.3.9M665.1 701.7l73.6-19.7 3.3.9M663.2 785.8l1.9.6M661.8 699.1v-1.4l-.2-1.3-.4-1.3-.4-1.3-.6-1.3-.7-1.1-.8-1-.8-.9-.9-.7-.9-.6-1-.4-1-.2h-.9l-1 .1-.8.4-.8.5-.7.7-.7.9-.5.9-.4 1.1-.2 1.2-.2 1.3v1.3l.1 1.2M661.7 700.8l.1-.4v-1.3M668.3 700.8l-.4-3.3M641.8 690.5l-.6 4.8M667.9 697.5l-.3-1.9-.5-1.9-.5-1.9-.8-1.7-.7-1.7-1-1.6-1-1.5-1.1-1.4-1.2-1.2-1.3-1.1-1.3-.9-1.3-.8-1.4-.5-1.3-.4-1.4-.2-1.3.1-1.3.2-1.3.4-1.1.6-1.2.7-1 1-.9 1.1-.8 1.3-.8 1.4-.5 1.5-.5 1.6-.3 1.8M667.9 697.5l10-2.7-.4-1.9-.4-1.9-.6-1.8-.7-1.8-.8-1.7-.9-1.6-1.1-1.5-1.1-1.4-1.2-1.2-1.2-1.1-1.3-.9-1.4-.7-1.3-.6-1.4-.4-1.3-.1h-1.4l-1.3.2h-.2M678.3 698.2l-.4-3.4M658.2 689.7c-.8 3.7-.1 7.5 2 10.7M958.8 619.5c.1-3.9-1.6-7.6-4.5-10.2M958.1 623.7c.5-1.4.8-2.8.8-4.2M965.6 622.6l-.7-4.7-.3-1.9-.4-1.9-.6-1.8-.7-1.8-.8-1.7-1-1.6-1-1.5-1.1-1.4-1.2-1.2-1.2-1.1-1.3-.9-1.4-.7-1.3-.6-1.4-.4-1.3-.2-1.4.1-1.3.2-1.2.4-1.2.6-1.1.8-1.1.9v.1M964.9 617.9l10-2.7-.3-1.9-.5-1.9-.6-1.8-.7-1.8-.8-1.7-.9-1.6-1-1.5-1.1-1.4-1.2-1.2-1.3-1.1-1.3-.9-1.3-.7-1.4-.6-1.4-.3-1.3-.2h-1.3l-1.4.2-.1.1M975.5 619.9l-.6-4.7M104.9 549.9l-.1-1.4-.2-1.3-.3-1.3-.5-1.3-.5-1.3-.7-1.1-.8-1-.8-.9-.9-.7-1-.6-1-.4-.9-.2-1-.1-.9.2-.8.4-.8.5-.8.7-.6.8-.5 1-.4 1.1-.3 1.2-.1 1.3v1.3l.1 1.1M104.8 551.6v-.4l.1-1.3M111.6 553.4l-.6-5.1M84.9 541.3l-.7 4.8M111 548.3l-.3-1.9-.5-1.9-.6-1.8-.7-1.8-.8-1.7-.9-1.6-1.1-1.5-1-1.4-1.3-1.2-1.2-1.1-1.3-.9-1.4-.8-1.3-.6-1.4-.3-1.3-.2h-1.3l-1.4.3-1.2.3-1.2.6-1.1.8-1 1-1 1.1-.8 1.3-.7 1.4-.6 1.5-.4 1.7-.3 1.7M111 548.3l9.9-2.7-.3-1.9-.5-1.9-.5-1.8-.7-1.8-.8-1.7-1-1.6-1-1.5-1.1-1.4-1.2-1.2-1.3-1.1-1.3-.9-1.3-.8-1.4-.5-1.3-.4-1.4-.2-1.3.1-1.3.2h-.2M122.3 556.3l-1.4-10.7M101.3 540.5c-.8 3.7-.1 7.6 1.9 10.7M401.9 470.1c0-1.7-.4-3.4-1-5M401.1 474.5c.5-1.3.8-2.8.8-4.2M410.9 491.3l-2.9-22.6M427.4 563.4v-2.9M362.5 546l64.9 17.4M362.5 543v3M408 468.7c-.4-3.1-1.3-6.2-2.8-9M393.1 450c-2.8-.2-5.6.9-7.5 3M427.4 563.4l5.5-1.4M408 468.7l10-2.7-.4-1.9-.4-1.9-.6-1.8-.7-1.8-.8-1.7-.9-1.6-1.1-1.5-1.1-1.4-1.2-1.2-1.2-1.1-.2-.1M420.9 488.9l-2.9-22.9M39.9 538.8v108.5l-2.6-1.9v-104.8"/>
    <path class="st1"
        d="M39.9 538.8l-2.6 1.8-23.9-6.3v-2.6zM45.2 645.8v-108.4M39.9 647.3l5.3-1.5M39.9 538.8l5.3-1.4-26.5-7.1M13.4 531.7l5.3-1.4M13.4 639l23.9 6.4M13.4 534.3v104.7"/>
    <path class="st1"
        d="M29 554.7l-.1-1-.2-1-.4-.9-.4-.9-.5-.8-.7-.6-.7-.5-.7-.3h-1.4l-.6.3-.5.5-.5.6-.3.8-.2.9-.1.9.1 1 .2 1 .3 1 .5.8.5.8.6.6.7.5.7.3.7.1.7-.1.7-.3.5-.5.4-.6.4-.8.2-.9zM29 627l-.1-1-.2-1-.4-1-.4-.9-.5-.7-.7-.6-.7-.5-.7-.3-.7-.1-.7.1-.6.3-.5.5-.5.6-.3.8-.2.8-.1 1 .1 1 .2 1 .3.9.5.9.5.8.6.6.7.5.7.3h1.4l.7-.3.5-.5.4-.6.4-.8.2-.9zM25.6 548.8l-.3.6-.4.7-.2.9v1.9l.2 1 .4.9.4.9.6.8.6.6.7.5.4.2M27.6 550.4l-.3.2-.4.4-.3.5-.1.6v.7l.1.7.3.6.4.5.4.5.5.2.5.1h.2M39.9 647.3l-26.5-7.2M13.4 639v1.1M25.6 621.1l-.3.5-.4.8-.2.9v1.9l.2 1 .4.9.4.9.6.8.6.6.7.5.4.2M27.6 622.7l-.3.2-.4.3-.3.5-.1.7v.6l.1.7.3.7.4.5.4.5.5.2.5.1h.2M647.2 808.9v-104.9l2.7-1.8v108.5M647.2 808.9l2.7 1.8M647.2 704l-23.8-6.3M623.4 695.2v2.5M623.4 695.2l26.5 7M655.2 809.3v-108.5M649.9 810.7l5.3-1.4M649.9 702.2l5.3-1.4-26.5-7.1M623.4 695.2l5.3-1.5M623.4 802.4l23.8 6.5M623.4 697.7v104.7"/>
    <path class="st1"
        d="M631.6 788.4l.1 1 .2 1 .4.9.4.9.6.8.6.6.7.5.7.3.7.1.7-.1.6-.3.6-.5.4-.6.4-.8.2-.9v-1.9l-.2-1-.4-.9-.4-.9-.6-.8-.6-.6-.7-.5-.7-.3-.7-.1-.7.1-.6.3-.6.5-.4.6-.4.8-.2.9zM631.6 716.1l.1 1 .2 1 .4 1 .4.8.6.8.6.7.7.4.7.3.7.1.7-.1.6-.3.6-.5.4-.6.4-.8.2-.8v-2l-.2-1-.4-.9-.4-.9-.6-.8-.6-.6-.7-.5-.7-.2-.7-.1-.7.1-.6.2-.6.5-.4.7-.4.7-.2.9zM634.7 715.3c-.1 2.5 1.1 4.8 3.3 5.9M635.6 712.2c-.7.9-1 2-.9 3.1M636.5 715.8v.7l.2.7.4.6.4.5.4.3.5.2h.5M637.6 713.8c-.8.3-1.2 1.2-1.1 2M649.9 810.7l-26.5-7.2v-1.1M634.7 787.6c-.1 2.5 1.1 4.8 3.3 6M635.6 784.5c-.7.9-1 2-.9 3.1M636.5 788.1v.7l.2.7.4.6.4.5.4.4.5.1h.5M637.6 786.1c-.8.4-1.2 1.2-1.1 2"/>
    <path class="st1"
        d="M897.4 558.1l-.1-1.1-.2-1-.3-.8-.4-.8-.6-.7-.6-.4-.7-.3-.8-.1-.8.1-.8.2-.7.5-.7.5-.7.8-.6.9-.5.9-.4 1-.3 1.1-.1 1.1v1.1l.1 1 .3 1 .4.8.5.7.6.6.7.4.7.1h.7l.8-.1.8-.4.8-.5.7-.6.6-.8.6-1 .4-1 .3-1 .2-1.1zM957.2 491.7l-192.2 51.5M963.9 498.9l-.1-1.2-.2-1.3-.3-1-.4-1.1-.6-.8-.7-.8-.8-.5-.8-.4-.9-.3h-.9l-1 .2M963.9 553.1v-54.2M958.2 563.6l.9-.5.9-.7.8-.8.8-1 .7-1.1.6-1.2.4-1.2.3-1.4.2-1.3.1-1.3M832.7 597.3l72.2-19.3M919.5 574.1l23-6.2M758.4 554v23.4M765 543.2l-1 .3-.9.5-.9.7-.8.9-.8 1-.6 1-.6 1.2-.4 1.3-.4 1.3-.2 1.3v1.3M808.7 587.2v-1.1l-.3-1-.3-.9-.4-.7-.6-.6-.6-.5-.7-.3-.7-.1-.8.1-.8.2-.8.5-.7.5-.7.8-.6.8-.5 1-.4 1.1-.2 1-.1.5M808 590.7c.4-1.1.7-2.2.7-3.4M765 543.2l-.2-.1M758.4 554l-.3-.1M764.8 543.1l-1 .4-.9.5-.9.7-.8.8-.8 1-.6 1.1-.6 1.2-.5 1.2-.3 1.3-.2 1.3-.1 1.3v23.5M957.2 491.7l-.2-.1-192.2 51.5M808.5 587.1l-.1-1-.2-1-.3-.9-.4-.8-.6-.6-.6-.5-.7-.2M807.8 590.7c.4-1.1.7-2.2.7-3.4M897.2 558l-.1-1-.2-1-.3-.9-.5-.8-.5-.6-.6-.5-.7-.2M890.9 565.6l.3.1h.7l.8-.2.8-.3.7-.5.8-.7.6-.8.5-.9.5-1 .3-1.1.2-1.1.1-1.1M959.4 491.6c-.8-.2-1.6-.2-2.4.1M370.9 484.6l9.1.8M365.3 473.1l5.6 11.5M368.8 462.5l-3.5 10.6M377.9 463.3l-9.1-.8M383.5 474.7l-5.6-11.4M380 485.4l3.5-10.7M386 464.4l.2-2.3.7-2.9 1-2 .3-.2M384.9 461.5l1.1 2.9M375.8 460.7c3 .4 6.1.6 9.1.8M390.5 472.9c-1.5 3.4-2.6 7-3.5 10.6M387 466.4l1.6 3.3 1.9 3.2M397.9 467.5l-1.8.2h-2.1l-2.2-.3-2.5-.5-2.3-.5M399.6 466.5l-.8.6-.7.3M397.9 467.5l.1-.1h.1M386 464.4c.2.7.5 1.3.9 2M380 485.4l7-1.9M383.5 474.7l7-1.8M377.9 463.3l7-1.8M368.8 462.5l7-1.8M426.6 459.8l1.2-.6.3-.3M426.6 459.8h-.1M415.9 458.9c3.4 1 7 1.3 10.6 1M416.7 449.3l-.6.8-.9 1.9-.5 2.6-.1 1.5M432.6 453.6l3.4 8.8-6.3 1.7M436 462.4l-4.6 9.6-3.4.9M435.1 466.9l.4-.1.8-.5.7-.5.6-.8.6-.9.4-1 .3-1.1.1-1.2v-1.3l-.1-1.2-.2-1.3-.4-1.3-.5-1.1-.6-1.1-.7-1.1-.8-.8-.5-.5M439 459.6c0-1.9-.5-3.9-1.5-5.6M946 616.3c-.2 3.8 0 7.6.4 11.4M937.7 608.6c2.5 2.8 5.3 5.4 8.3 7.8M939.3 602.6l-1.6.8-1.6 1.3-1.3 1.8-1.1 2.4-.3.9M939.5 629.6l-.5-11.3 7-1.9M923.7 628l4.7 4.6M923.1 615.4l.6 12.6M930.8 610.5l-7.7 4.9M939 618.3l-8.2-7.8 6.9-1.9M939.7 602.5l-.3.1M939.3 602.6h.1M967.8 594.9c-1.6.5-2.9 1.5-3.8 3M967.9 594.9h.3M967.9 594.9v.1h-.1M992 605.9l-6.5 1.7M992 605.9l-.5 9.8M984.4 596.8l-5 1.4M984.4 596.8l7.6 9.1M993.9 615l.2-.2.6-.8.5-.9.4-1.1.3-1.1.1-1.2v-1.3l-.2-1.3-.3-1.2-.4-1.3-.5-1.1-.6-1.1-.7-1-.9-.8-.8-.8-.9-.5-.9-.3-.9-.2h-.9l-.6.1M996 608.8c0-1.9-.5-3.9-1.5-5.6M253.5 580.7c-.1-1.2-.3-2.4-.5-3.6M265 582.3c-3.8-1-7.6-1.5-11.5-1.6M276 580.5c-3.7.2-7.4.8-11 1.8M276 577.2l.5.3M273.4 569.3l-.1.4-.2.3-.5.3-.6.3-.8.3-.9.3-1 .2-1.2.1-1.2.1-1.3.1-1.3.1-1.2-.1-1.3-.1-1.2-.1-1.1-.2-1.1-.2-.8-.2-.8-.3-.5-.4-.4-.3-.3-.3v-.3M255.6 567.3l-2.6.4M275.5 567.5l-2.1-.3M276 571l-.5-3.5M265 572.9l11-1.9M253.5 571.2l11.5 1.7M253 567.7l.5 3.5v9.5M265 572.9v9.4M276 571v9.5"/>
    <path class="st1"
        d="M270.1 561.8l.9-.2.6-.3.5-.3.3-.3.1-.3-.1-.4-.3-.3-.5-.3-.6-.3-.9-.3-.9-.2-1.1-.2-1.1-.1-1.2-.1h-2.5l-1.3.1-1.1.1-1.1.2-.9.2-.8.3-.7.3-.5.3-.3.3-.1.4.1.3.3.3.5.3.7.3.8.2.9.3 1.1.1 1.1.2h1.3l1.2.1 1.3-.1h1.2l1.1-.2 1.1-.1zM270.8 562.9l-1 .2-1.1.2-1.1.2-1.3.1h-3.9000000000000004l-1.2-.2-1.2-.1-1.1-.2-.9-.2-.8-.3-.7-.3-.5-.3-.3-.4-.1-.3.1-.4.2-.3M273 560.6l.1.1.3.3v.4l-.2.3-.3.3-.5.4-.7.3-.9.2M253 567.7v9.5M303.2 594c-.1-1.2-.3-2.4-.5-3.6M314.7 595.7c-3.7-1-7.6-1.6-11.5-1.7M325.7 593.8c-3.7.1-7.4.8-11 1.9M325.7 590.5l.6.3M323.2 582.7l-.1.3-.3.3-.4.4-.6.3-.8.2-.9.3-1.1.2-1.2.2-1.2.1-1.2.1h-1.3l-1.3-.1-1.3-.1-1.2-.1-1.1-.1-1-.3-.9-.2-.8-.3-.5-.3-.4-.3-.2-.4-.1-.2M305.3 580.6l-2.6.4M325.2 580.8l-2-.3M325.7 584.3l-.5-3.5M314.7 586.2l11-1.9M303.2 584.5l11.5 1.7M302.7 581l.5 3.5v9.5M314.7 586.2v9.5M325.7 584.3v9.5"/>
    <path class="st1"
        d="M319.9 575.2l.8-.3.7-.3.4-.3.3-.3.1-.3-.1-.4-.3-.3-.4-.3-.7-.3-.8-.3-1-.2-1.1-.1-1.1-.2-1.2-.1h-2.5l-1.2.1-1.2.2-1 .1-1 .2-.8.3-.6.3-.6.3-.3.3v.7l.3.3.6.3.6.3.8.3 1 .2 1 .2 1.2.1 1.2.1h2.5l1.2-.1 1.1-.1 1.1-.2zM320.5 576.3l-1 .2-1 .2-1.3.1-1.2.1h-3.8l-1.3-.1-1.2-.2-1-.2-1-.2-.8-.3-.7-.3-.5-.3-.3-.4-.1-.3.1-.4.2-.3h.1M322.8 573.9l.1.1.2.3v.4l-.1.3-.4.4-.5.3-.7.3-.9.3M302.7 581v9.5M900.3 640.1l-.3-.6M411.5 491.4l-17.5-4.7M421.5 488.7l-10 2.7M420.9 488.6l.6.1M717.9 733.5l-1 .3-.9.6-.9.7-.8.8-.8 1-.7 1.1-.5 1.2-.5 1.2-.3 1.3-.2 1.3-.1 1.3"/>
    <path class="st1"
        d="M714.5 788.6l.1.8.2.9.3.7.4.6.5.4.6.2.6.1.7-.1 13.2-3.5.6-.3.7-.4.6-.6.4-.7.5-.8.3-.8.2-.9v-47l-.2-.7-.3-.8-.5-.5-.4-.5-.6-.2-.7-.1-.6.1-13.2 3.5-.7.3-.6.4-.6.6-.5.7-.4.8-.3.8-.2.9-.1.9zM731.1 729.9l-13.2 3.6M737.7 737.2v-1.3l-.2-1.2-.4-1.1-.4-1-.6-.9-.6-.7-.8-.6-.8-.4-.9-.2h-1l-.9.1M737.7 782.4v-45.2M731.1 793.2l.9-.4 1-.5.9-.6.8-.9.8-1 .6-1.1.6-1.2.4-1.2.4-1.3.2-1.3v-1.3M717.9 796.7l13.2-3.5M711.2 789.5l.1 1.2.2 1.3.3 1.1.5 1 .5.9.7.7.8.6.8.4.9.2h.9l1-.2M711.2 744.3v45.2M940.5 488.6l.6-4.6M941.9 487.8c-.3.1-.6.2-.9.4l-.6.5M943.5 489.3l-.1-.9c-.1-.3-.3-.4-.5-.6l-.4-.2-.5.1M941.8 492.1c.3-.1.5-.2.7-.4.3-.2.4-.5.6-.8l.3-.8s.1-.5.1-.8M940.3 490.9l.2.7.4.5.4.2h.4M939.8 491l.5-.1M941.8 493c-.3.1-.6.1-.9 0-.2-.1-.5-.2-.7-.5-.1-.2-.3-.4-.4-.7-.1-.3-.1-.5-.1-.8M944.1 489.2c0 .5-.1 1-.2 1.4-.1.5-.3.9-.6 1.3-.2.3-.4.5-.7.7-.2.2-.5.3-.8.4M942 486.8c.3-.1.7-.1.9 0 .3.1.5.3.7.6.2.2.3.5.4.8.1.3.1.6.1 1M941.2 487.2l.4-.2.3-.1M941.6 484.8l-.4 2.4M943.8 484.2l-2.2.6M943.8 483.2v1M941.1 484l2.7-.8M861.3 509.9c0 .5 0 1.1-.1 1.6s-.2 1.1-.4 1.6-.4 1-.8 1.4l-.5.5-.6.3M859 505.7l.6-.1.5.2c.4.2.6.6.8 1s.3.9.4 1.4c0 .5.1 1 .1 1.6M856.8 511.1c0-.5 0-1.1.1-1.6s.1-1.1.3-1.6l.3-.8.5-.6.5-.5.6-.2M859 515.2h-.6l-.5-.2c-.3-.2-.6-.6-.8-1s-.3-.9-.3-1.4 0-1-.1-1.6M774.7 533l.7-4.7M776.1 532.2c-.3.1-.6.2-.8.4l-.6.4M777.8 533.8c0-.3-.1-.6-.2-.9-.1-.3-.2-.5-.4-.6l-.5-.2-.5.1M776.1 536.5c.3-.1.5-.2.7-.4s.4-.5.6-.8l.3-.7c.1-.3.1-.5.1-.8M774.6 535.3l.2.7.4.4.4.2h.4M774 535.4l.6-.1M776 537.4c-.3 0-.6.1-.8 0-.3-.1-.5-.3-.7-.5s-.3-.4-.4-.6c-.1-.3-.1-.5-.2-.9M778.3 533.7c-.1.5-.1 1-.2 1.4-.1.5-.3.9-.6 1.3-.2.3-.4.6-.7.7-.3.2-.5.3-.8.4M776.3 531.2c.3 0 .6-.1.9 0 .3.1.5.3.7.6.1.3.3.5.3.8.1.3.1.6.1 1M775.5 531.6l.4-.3.4-.1M775.8 529.1l-.3 2.5M778.1 528.5l-2.3.6M778.1 527.6v.9M775.4 528.3l2.7-.7M695.5 554.3c0 .5 0 1.1-.1 1.6s-.2 1.1-.3 1.6c-.2.5-.5 1-.8 1.4l-.5.5-.6.3M693.3 550.1h.6l.5.2c.3.2.6.6.8 1 .1.4.3.9.3 1.4.1.5.1 1 .1 1.6M691.1 555.5c0-.5 0-1.1.1-1.6s.1-1.1.3-1.6l.3-.8.4-.6.5-.5.6-.3M693.3 559.6h-.6l-.5-.2c-.3-.2-.5-.6-.7-1s-.3-.9-.3-1.4c-.1-.5-.1-1-.1-1.6M608.9 577.5l.7-4.7M610.4 576.6l-.8.4c-.2.1-.4.3-.6.5M612 578.2c0-.3 0-.6-.1-.9-.1-.2-.3-.4-.5-.6l-.5-.2-.5.1M610.3 580.9c.3-.1.5-.2.7-.4s.4-.5.6-.8l.3-.8s.1-.5.1-.8M608.8 579.7c.1.3.1.5.2.7l.4.5.4.1.4-.1M608.3 579.9l.5-.2M610.3 581.9c-.3 0-.6.1-.8 0-.3-.1-.5-.3-.7-.5-.1-.2-.2-.4-.3-.7s-.1-.5-.2-.8M612.6 578.1c-.1.5-.1 1-.2 1.4s-.3.9-.6 1.3c-.2.3-.5.5-.7.7-.3.2-.5.3-.8.4M610.5 575.6c.3 0 .6-.1.9 0 .3.1.5.3.7.6.2.2.3.5.3.8.1.3.1.6.1 1M609.7 576l.4-.2.4-.1M610.1 573.6l-.4 2.4M612.3 573l-2.2.6M612.3 572v1M609.6 572.8l2.7-.8M529.8 598.7c0 .5 0 1.1-.1 1.6s-.1 1.1-.3 1.6-.4 1-.8 1.4l-.5.5-.6.3M527.5 594.5h.6l.5.2c.3.2.6.6.8 1s.3.9.3 1.4c.1.5.1 1.1.1 1.6M525.3 599.9c0-.6 0-1.1.1-1.6 0-.6.1-1.1.3-1.6l.3-.8s.3-.5.4-.6l.5-.5.6-.3M527.5 604l-.5.1-.5-.2c-.3-.2-.6-.6-.8-1s-.2-.9-.3-1.4l-.1-1.5M440.7 622.5l.7-4.7M442.2 621.7c-.3.1-.6.2-.8.4-.2.1-.4.3-.6.5M443.8 623.2c0-.3 0-.6-.2-.9-.1-.2-.2-.4-.4-.6l-.5-.2-.5.1M442.1 626c.2-.1.5-.2.7-.4s.4-.5.6-.8l.3-.8s.1-.5.1-.8M440.6 624.7l.2.7.4.4.4.2h.5M440.1 624.9l.5-.2M442.1 626.9c-.3 0-.6.1-.8 0-.2-.1-.5-.3-.7-.5-.1-.2-.3-.4-.4-.7s-.1-.5-.1-.8M444.4 623.1l-.2 1.4s-.3.9-.6 1.3c-.2.3-.5.5-.7.7s-.5.3-.8.4M442.3 620.7c.3 0 .6-.1.9 0s.5.3.7.6c.2.2.3.5.3.8.1.3.1.6.1 1M441.5 621.1l.4-.2.3-.1M441.9 618.6l-.4 2.5M444.2 618l-2.3.6M444.2 617.1v.9M441.4 617.8l2.8-.7M1022.5 438.7v31.6M1023.2 470.1l-.7.2M1023.2 515.3l-.7.1v31.7l-63.9 17.1M942.9 568.4l-23.2 6.2M905.1 578.5l-71.3 19.1M1022.5 438.7l-669.6 179.4"/>
    <path class="st1"
        d="M970.8 528.2l.8-.3.8-.5.7-.7.7-.8.6-.9.5-1 .4-1.1.2-1.2.1-1.1v-1.1l-.2-1-.3-1-.5-.8-.5-.7-.6-.5-.7-.4-.8-.1h-.8l-.8.2-.8.4-.8.6-.7.7-.6.9-.6 1-.4 1-.3 1.1-.2 1.2v1.1l.1 1 .2 1 .4.9.5.8.6.6.6.5.8.2.8.1zM700 561.8c-.8-.2-1.6-.2-2.4 0l-13.3 3.5-.9.4-.9.5-.9.7-.8.9-.7 1-.7 1.1-.5 1.2-.5 1.3-.3 1.3-.2 1.3-.1 1.3v41.3"/>
    <path class="st1"
        d="M488.1 641.4v7.3l34.5-9.3v-7.2zM562.4 621.5v7.3l34.4-9.3v-7.2zM636.6 601.7v7.2l34.5-9.3v-7.2zM807 590.5l.3-.8.3-1 .1-1-.1-1-.1-.9-.4-.8-.3-.7-.6-.5-.6-.4-.7-.2h-.7l-.7.2-.7.4-.7.5-.6.7-.5.8-.4 1-.3 1-.2.8"/>
    <path class="st1"
        d="M892.5 564.5l.8-.3.6-.5.7-.6.6-.8.4-.8.4-1 .2-1 .1-1v-1l-.2-.9-.3-.8-.4-.7-.5-.5-.6-.4-.7-.2h-.7l-.8.2-.7.4-.7.5-.6.7-.5.8-.4.9-.3 1-.2 1v1.1l.1.9.2.9.4.7.5.6.5.5.7.3.7.1zM981.2 485.7l.8-.3.6-.5.7-.6.6-.8.4-.8.4-1 .2-1 .1-1v-.9l-.2-1-.3-.8-.4-.7-.5-.5-.6-.4-.7-.2h-.7l-.7.2-.7.4-.7.5-.6.7-.6.9-.4.9-.3 1-.1 1-.1 1 .1.9.3.9.3.7.5.7.6.4.6.3.7.1zM986.8 517.4l.7-.3.7-.5.6-.6.6-.7.5-.9.3-1 .3-1 .1-1-.1-1-.1-.9-.3-.8-.4-.7-.6-.5-.6-.4-.7-.2h-.7l-.7.2-.7.4-.7.5-.6.7-.5.9-.4.9-.3 1-.2 1v1l.1.9.2.9.4.7.5.7.5.4.6.3.8.1zM989.4 469.5l.7-.3.7-.5.7-.6.6-.8.5-.9.4-.9.3-1 .2-1v-1.1l-.1-.9-.2-.9-.4-.8-.4-.7-.6-.5-.7-.4-.6-.1h-.8l-.7.2-.7.3-.8.6-.6.7-.5.8-.5.9-.4 1-.2 1-.1 1.1.1 1 .1.9.3.9.4.7.5.6.6.4.7.3h.7zM972.8 473.9l.7-.3.7-.5.7-.6.6-.7.5-.9.4-1 .3-1 .2-1v-1l-.1-1-.2-.9-.4-.8-.4-.7-.6-.5-.6-.3-.7-.2h-.8l-.7.2-.7.4-.7.6-.6.6-.6.9-.5.9-.3.9-.3 1.1v2l.1.9.3.9.4.7.6.6.6.5.6.2.7.1zM956.2 478.3l.7-.2.8-.5.6-.6.6-.8.5-.9.5-.9.3-1 .1-1.1v-1l-.1-.9-.2-1-.4-.7-.4-.7-.6-.5-.6-.4-.7-.1h-.7l-.8.1-.7.4-.7.6-.6.7-.6.8-.5.9-.3 1-.2 1-.1 1v1l.2 1 .2.8.5.8.5.6.6.4.6.3h.8zM939.6 482.8l.8-.3.7-.5.6-.6.6-.7.6-.9.4-1 .3-1 .1-1v-2l-.3-.9-.3-.8-.5-.7-.6-.5-.6-.4-.7-.1h-.7l-.7.2-.8.4-.7.5-.6.7-.5.8-.5.9-.4 1-.2 1-.1 1.1v1l.2.9.3.9.4.7.5.6.6.4.7.3.7.1zM923.1 487.2l.7-.3.7-.4.7-.6.6-.8.5-.9.4-.9.3-1 .1-1.1.1-1-.1-1-.2-.9-.4-.8-.5-.6-.5-.6-.7-.3-.6-.2h-.8l-.7.2-.7.4-.7.6-.7.6-.5.9-.5.9-.3 1-.3 1-.1 1 .1 1 .1.9.3.9.4.7.5.6.6.5.7.2.7.1zM906.5 491.6l.7-.2.8-.5.6-.6.6-.8.5-.9.4-.9.3-1 .2-1v-1.1l-.1-.9-.2-.9-.4-.8-.4-.7-.6-.5-.6-.4-.7-.1h-.7l-.8.2-.7.4-.7.5-.7.7-.5.8-.5.9-.3 1-.3 1-.1 1 .1 1 .1 1 .3.9.4.7.5.6.7.4.6.3.7.1zM889.9 496.1l.8-.3.7-.5.6-.6.6-.7.5-.9.5-.9.3-1 .1-1.1.1-1-.2-1-.2-.9-.3-.8-.5-.7-.6-.5-.6-.3-.7-.2h-.7l-.8.2-.7.4-.7.5-.6.7-.6.8-.4 1-.4.9-.2 1-.1 1.1v1l.2.9.2.9.5.7.5.6.6.5.6.2.8.1zM873.3 500.5l.8-.2.7-.5.7-.6.5-.8.6-.9.4-.9.2-1 .2-1v-2.1l-.3-.9-.3-.8-.5-.6-.6-.5-.6-.4-.7-.2-.7.1-.7.1-.8.4-.7.6-.6.7-.6.8-.4.9-.4 1-.2 1-.1 1v1l.2 1 .3.8.4.8.5.5.6.5.7.3h.7zM856.7 505l.8-.3.7-.5.7-.6.6-.8.5-.8.4-1 .3-1 .1-1 .1-1-.1-1-.2-.9-.4-.8-.5-.7-.5-.5-.6-.3-.8-.2h-.7l-.7.2-.8.4-.6.5-.7.7-.5.8-.5.9-.3 1-.3 1-.1 1.1.1 1 .1.9.3.9.4.7.5.6.6.4.7.3.7.1zM840.2 509.4l.7-.3.7-.4.7-.7.6-.7.5-.9.4-.9.3-1 .2-1.1v-1l-.1-1-.2-.9-.4-.8-.4-.6-.6-.6-.6-.3-.7-.2h-.7l-.8.2-.7.4-.7.5-.7.7-.5.8-.5 1-.4 1-.2 1-.1 1 .1 1 .1 1 .3.8.4.8.5.5.6.5.7.2.8.1zM823.6 513.8l.7-.2.8-.5.6-.6.6-.8.5-.8.5-1 .3-1 .1-1v-2l-.3-.9-.3-.8-.5-.7-.6-.5-.6-.4-.7-.1h-.8l-.7.2-.7.4-.7.5-.7.7-.5.8-.5.9-.3 1-.2 1-.2 1.1.1 1 .2.9.3.9.3.7.6.6.6.4.6.3h.7zM807 518.3l.8-.3.7-.5.6-.6.7-.8.5-.8.4-.9.2-1.1.2-1 .1-1-.2-1-.2-.9-.3-.8-.5-.7-.5-.5-.7-.3-.7-.2h-.7l-.7.2-.8.4-.7.5-.6.7-.6.8-.5 1-.3.9-.2 1.1-.1 1v1l.2.9.3.9.4.7.5.6.6.4.7.3.7.1zM790.5 522.7l.7-.2.7-.5.7-.6.6-.8.5-.8.4-1 .3-1 .2-1.1v-1l-.1-1-.2-.9-.4-.8-.5-.6-.5-.5-.7-.4-.6-.2-.8.1-.7.2-.8.3-.6.6-.7.7-.6.8-.4.9-.4 1-.2 1-.1 1v1.1l.2.9.3.9.4.7.5.6.6.4.7.3.7.1zM773.9 527.2l.7-.3.7-.5.7-.6.6-.8.5-.8.4-1 .3-1 .2-1v-1l-.1-1-.2-.9-.4-.8-.4-.7-.6-.5-.6-.3-.7-.2h-.8l-.7.2-.7.4-.7.5-.7.7-.5.8-.5.9-.3 1-.3 1.1-.1 1 .1 1 .1.9.3.9.4.7.5.6.6.4.7.3.7.1zM757.3 531.6l.8-.3.6-.5.7-.6.6-.7.6-.9.3-.9.3-1.1.2-1v-2l-.3-.9-.3-.8-.5-.6-.6-.5-.6-.4-.7-.2h-.7l-.8.3-.7.3-.7.6-.6.6-.6.9-.5.9-.3 1-.3 1v2l.1 1 .4.8.4.8.5.5.6.5.6.2.8.1zM740.7 536.1l.7-.3.8-.5.6-.6.7-.8.5-.8.4-1 .3-1 .1-1 .1-1-.1-1-.2-.9-.4-.8-.5-.7-.6-.5-.6-.3-.7-.2h-.7l-.8.2-.7.4-.7.5-.6.7-.6.8-.4.9-.4 1-.2 1-.1 1.1v1l.2.9.3.9.4.7.5.6.6.4.7.3.7.1zM724.2 540.5l.7-.3.7-.5.7-.6.6-.7.5-.9.4-1 .3-1 .1-1 .1-1-.1-1-.3-.9-.3-.8-.5-.7-.5-.5-.7-.3-.6-.2h-.8l-.7.2-.8.4-.7.5-.6.7-.5.8-.5 1-.4 1-.2 1-.1 1 .1 1 .1 1 .3.8.4.7.5.6.6.5.7.2.7.1zM707.6 544.9l.7-.3.7-.4.7-.6.6-.8.5-.9.4-.9.3-1 .2-1.1v-1l-.1-.9-.2-.9-.4-.8-.5-.7-.5-.5-.6-.4-.7-.1h-.8l-.7.2-.7.3-.7.6-.7.7-.5.8-.5.9-.3 1-.3 1v2.1l.1.9.3.8.4.8.6.6.5.4.7.2.7.1zM691 549.4l.7-.3.8-.5.6-.6.6-.7.5-.9.5-1 .2-1 .2-1v-1.1l-.1-.9-.2-.9-.4-.8-.4-.7-.6-.5-.6-.3-.7-.2h-.7l-.8.2-.7.4-.7.5-.6.7-.6.8-.5.9-.3 1-.2 1.1-.2 1 .1 1 .1 1 .3.8.5.7.4.6.7.4.6.3.8.1zM674.4 553.8l.8-.3.7-.4.6-.6.6-.8.6-.9.4-.9.3-1 .1-1.1.1-1-.2-.9-.2-1-.3-.8-.5-.6-.5-.5-.7-.4-.7-.2h-.7l-.7.3-.8.3-.7.6-.6.6-.6.9-.4.9-.4 1-.2 1-.1 1v1l.2 1 .3.8.4.7.5.7.6.4.6.3h.8zM657.8 558.2l.8-.2.7-.5.7-.6.5-.8.6-.8.4-1 .3-1 .1-1 .1-1.1-.1-.9-.3-.9-.3-.8-.5-.7-.5-.5-.7-.3-.7-.2h-.7l-.7.2-.8.4-.6.5-.7.7-.5.8-.5.9-.4 1-.2 1-.1 1.1v1l.2.9.3.8.4.8.5.6.6.4.7.3.7.1zM641.3 562.7l.7-.3.7-.4.7-.7.6-.7.5-.9.4-1 .3-1 .2-1v-1l-.1-1-.2-.9-.4-.8-.5-.7-.5-.5-.6-.3-.7-.2h-.8l-.7.2-.7.4-.7.6-.7.6-.5.8-.5 1-.3 1-.3 1-.1 1 .1 1 .1 1 .3.8.4.8.6.5.6.5.6.2.7.1zM624.7 567.1l.7-.3.8-.4.6-.6.6-.8.5-.9.4-.9.3-1 .2-1.1v-1l-.1-.9-.2-1-.4-.7-.4-.7-.6-.5-.6-.4-.7-.2-.7.1-.8.2-.7.4-.7.5-.6.7-.6.8-.5.9-.3 1-.2 1-.2 1.1.1 1 .2.9.3.9.4.7.5.6.6.4.7.3h.7zM608.1 571.6l.8-.3.7-.5.7-.6.6-.7.4-.9.5-1 .3-1 .1-1 .1-1-.1-1-.3-.9-.3-.8-.5-.7-.5-.5-.7-.3-.7-.2h-.7l-.7.2-.8.4-.7.5-.6.7-.6.8-.4 1-.4.9-.2 1-.1 1.1v1l.2.9.3.9.4.7.5.6.6.4.7.3.7.1zM591.6 576l.7-.2.7-.5.7-.6.6-.8.5-.9.4-.9.3-1 .2-1.1v-1l-.1-1-.2-.9-.4-.8-.4-.6-.6-.5-.7-.4-.7-.2-.7.1-.7.2-.8.3-.7.6-.6.7-.5.8-.5.9-.4 1-.2 1-.1 1v1l.2 1 .3.8.4.8.5.6.6.4.7.2.7.1zM575 580.5l.7-.3.7-.5.7-.6.6-.8.5-.8.4-1 .3-1 .2-1v-1l-.1-1-.2-.9-.4-.8-.4-.7-.6-.5-.7-.4-.6-.1h-.8l-.7.2-.7.4-.7.5-.7.7-.5.8-.5.9-.4 1-.2 1.1-.1 1 .1 1 .1.9.3.9.4.7.5.6.6.4.7.3.7.1zM558.4 584.9l.7-.3.7-.4.7-.7.6-.7.5-.9.4-.9.3-1.1.2-1v-1l-.1-1-.2-.9-.4-.8-.4-.6-.6-.6-.6-.3-.7-.2h-.7l-.8.2-.7.4-.7.6-.6.7-.6.8-.5.9-.3 1-.2 1-.1 1v1l.1 1 .3.8.4.7.6.6.6.5.6.2.7.1zM541.8 589.4l.8-.3.7-.5.7-.6.5-.8.6-.9.4-.9.3-1 .1-1.1v-2l-.3-.9-.3-.7-.5-.7-.6-.5-.6-.4-.7-.1h-.7l-.7.2-.8.3-.7.6-.6.7-.6.8-.5.9-.3 1-.2 1-.1 1.1v1l.2.9.2.9.4.7.6.6.6.4.7.3h.7zM525.3 593.8l.7-.3.7-.5.7-.6.6-.8.5-.8.4-1 .3-1 .1-1 .1-1-.1-1-.2-.9-.4-.8-.5-.7-.5-.5-.6-.3-.8-.2h-.7l-.8.2-.7.4-.7.5-.6.7-.6.8-.4 1-.4.9-.2 1.1-.1 1v1l.2.9.3.9.4.7.5.6.6.4.7.3.7.1zM508.7 598.2l.7-.3.7-.4.7-.6.6-.8.5-.9.4-.9.3-1 .2-1.1v-1l-.1-1-.2-.8-.4-.9-.4-.6-.6-.5-.6-.4-.7-.1h-.8l-.7.2-.7.3-.7.6-.7.7-.5.8-.5.9-.4 1-.2 1-.1 1 .1 1 .1 1 .3.8.4.8.5.5.6.5.7.2.7.1zM492.1 602.7l.7-.3.7-.5.7-.6.6-.7.5-1 .4-.9.3-1 .2-1v-1l-.1-1-.2-.9-.4-.8-.4-.7-.6-.5-.6-.4-.7-.1h-.8l-.7.2-.7.4-.7.5-.7.7-.5.8-.5.9-.3 1-.2 1-.2 1.1.1 1 .1.9.4.9.4.7.5.6.6.4.6.3.8.1zM475.5 607.1l.7-.3.8-.5.6-.6.6-.7.5-.9.5-.9.2-1 .2-1.1.1-1-.1-1-.3-.9-.3-.8-.5-.6-.6-.6-.6-.3-.7-.2h-.7l-.8.2-.7.4-.7.6-.6.6-.6.9-.4.9-.4 1-.2 1-.1 1v1l.2 1 .3.8.4.8.5.5.6.5.7.2.7.1zM459 611.5l.7-.2.7-.5.7-.6.6-.8.5-.8.4-1 .3-1 .1-1 .1-1.1-.1-.9-.3-.9-.3-.8-.5-.7-.5-.5-.7-.3-.6-.2h-.8l-.7.2-.7.4-.7.5-.7.7-.6.8-.4.9-.4 1-.2 1-.1 1.1v.9l.2 1 .3.8.4.8.5.6.6.4.7.3h.7zM442.3 616l.8-.3.7-.4.7-.7.6-.7.5-.9.4-1 .3-1 .2-1v-1l-.1-1-.2-.9-.4-.8-.4-.6-.6-.6-.6-.3-.7-.2h-.8l-.7.2-.8.4-.7.5-.6.7-.5.9-.5.9-.3.9-.3 1.1-.1 1 .1 1 .1.9.3.9.4.7.5.7.6.4.7.2.7.1zM425.8 620.4l.7-.3.7-.4.7-.7.6-.7.5-.9.4-.9.3-1 .2-1v-1.1l-.1-.9-.2-1-.4-.8-.4-.6-.6-.6-.6-.3-.7-.1h-.7l-.8.2-.7.3-.7.6-.6.7-.6.8-.5.9-.3 1-.3 1-.1 1 .1 1.1.2.9.2.8.5.8.5.6.6.4.6.2.8.1zM409.2 624.9l.8-.3.7-.5.6-.6.6-.7.6-.9.3-1 .4-1 .1-1 .1-1-.2-1-.2-.9-.3-.8-.5-.7-.5-.5-.7-.3-.7-.2h-.7l-.8.2-.7.4-.7.5-.6.7-.6.8-.5.9-.3 1-.2 1-.1 1.1v1l.2.9.3.9.4.7.5.6.6.4.7.3.7.1zM393.5 628.9l.6-.3.7-.6.6-.8.5-.9.4-.9.3-1 .1-1.1.1-1-.1-1-.2-.9-.4-.8-.5-.6-.5-.5-.7-.4-.7-.2h-.7l-.7.2-.8.4-.7.5-.6.7-.5.9-.5.9-.4 1-.2 1-.1 1v1l.2 1 .3.8.3.5M380 625.3l-.1-.4-.4-.8-.4-.7-.6-.5-.7-.4-.6-.1h-.8l-.7.2-.7.3-.7.6-.3.2"/>
    <path class="st1"
        d="M1005.9 465l.8-.3.7-.5.7-.5.6-.8.5-.9.4-.9.3-1.1.1-1 .1-1-.1-1-.2-.9-.4-.8-.5-.6-.5-.6-.7-.3-.7-.2h-.7l-.7.2-.8.4-.6.6-.7.7-.6.8-.4.9-.4 1-.2 1-.1 1v1l.2 1 .3.8.4.7.5.7.6.4.7.2.7.1zM732.4 557.1l.8-.2.7-.5.6-.6.6-.8.4-.9.4-.9.2-1 .1-1v-1l-.1-.9-.4-.8-.4-.7-.5-.5-.6-.4-.7-.2h-.7l-.7.2-.7.4-.7.5-.6.7-.6.9-.4.9-.3.9-.1 1.1-.1.9.1 1 .3.8.3.8.5.6.6.5.6.3.7.1zM746.1 574.2v-.3l.3-1 .1-1-.1-1-.1-.9-.3-.8-.5-.7-.5-.5-.6-.4-.6-.2h-.8l-.7.2-.7.4-.7.5-.6.7-.5.8-.4.9-.3 1-.1.3"/>
    <path class="st1"
        d="M1005.9 541.1l.9-.3.7-.5.8-.6.7-.9.5-.9.5-1 .4-1.1.2-1.1.1-1.1v-1.1l-.2-1.1-.3-.9-.4-.9-.5-.7-.7-.5-.7-.3-.8-.2h-.8l-.8.3-.8.3-.7.6-.8.8-.6.8-.5 1-.5 1.1-.3 1.1-.2 1.1v1.1l.1 1.1.3 1 .3.9.5.7.6.7.7.4.7.3h.8zM1005.9 497.3l.8-.3.6-.5.7-.6.5-.7.5-.9.4-1 .2-1 .1-.9v-1.1l-.2-.9-.3-.8-.4-.7-.5-.5-.6-.4-.7-.2h-.7l-.7.2-.7.4-.7.5-.6.7-.5.9-.5.9-.3 1-.2 1v1l.1.9.3.9.3.8.5.6.6.4.6.3.7.1zM522.2 597.1l-1 .3M522.2 605.2v-8.1M522.8 605l-.6.2M522.8 596v9M521.6 596.3l1.2-.3M521.2 597.4l.4-1.1M605.1 574.9l-1 .3M605.1 583v-8.1M605.7 582.8l-.6.2M605.7 573.8v9M604.5 574.2l1.2-.4M604.1 575.2l.4-1M689.8 553.8c0-.3-.1-.5-.2-.8-.1-.2-.2-.4-.4-.5l-.4-.2h-.5M688.5 556.9c.3-.5.7-1 .9-1.6.1-.3.2-.5.3-.7 0-.2.1-.5.1-.8M685.9 561.3l2.6-4.4M690.5 560.2l-4.6 1.1M690.5 559.2v1M687.3 560l3.2-.8M689 557.2l-1.7 2.8M690.4 553.6c0 .4-.1.8-.2 1.1-.1.3-.2.7-.4 1-.2.5-.5 1-.8 1.5M688.4 551.4c.3-.1.6-.1.9 0 .2.1.5.3.7.5s.3.4.3.7c.1.3.1.6.1.9M686.2 555l.2-1.3s.3-.8.6-1.2c.2-.3.4-.5.7-.7.2-.2.5-.3.7-.4M686.8 554.8l-.6.2M688.3 552.4l-.6.3c-.2.2-.4.4-.5.7-.1.2-.2.4-.2.7-.1.3-.1.5-.1.7M772.7 531.6l-.1-.8c-.1-.2-.2-.4-.4-.5l-.4-.2h-.5M771.4 534.7l.9-1.6c.1-.2.2-.5.2-.7.1-.3.1-.5.1-.8M768.8 539.2l2.6-4.5M773.3 537.9l-4.5 1.3M773.3 537v.9M770.2 537.8l3.1-.8M771.9 535l-1.7 2.8M773.3 531.4l-.2 1.1c-.1.3-.2.7-.4 1-.2.5-.5 1-.8 1.5M771.3 529.2c.3-.1.6-.1.8 0 .3.1.5.3.7.5s.3.4.4.7c.1.3.1.6.1.9M769.1 532.8c0-.4.1-.9.2-1.3s.3-.8.5-1.2c.2-.3.4-.5.7-.7.2-.2.5-.3.7-.4M769.7 532.7l-.6.1M771.2 530.1c-.2.1-.4.2-.7.4-.2.2-.4.4-.5.7l-.3.7c-.1.3-.1.5-.1.7M855.3 509.1l-.1-.6-.4-.4c-.2-.1-.5-.1-.8 0M853.6 511c.4-.1.8-.3 1.1-.6.2-.2.3-.3.4-.6l.1-.4.1-.4M853.6 511.9v-.9M855.6 513.3l-.1-.4-.1-.4c-.2-.3-.3-.4-.5-.5-.2-.1-.4-.1-.6-.1l-.7.1M853.9 515.7c.2-.1.4-.2.7-.3l.6-.6c.1-.2.2-.4.3-.7.1-.2.1-.5.1-.7M853.2 515.6l.2.1h.5M853.9 516.6c-.3.1-.6.1-.9 0-.3-.1-.5-.3-.7-.5s-.3-.4-.4-.7l-.2-.9M856.2 513c0 .5-.1.9-.2 1.3l-.6 1.2c-.2.2-.5.5-.7.6-.2.2-.5.2-.7.3M855.8 511.6l.3.7s.1.5.1.7M855.1 511l.4.2.3.3M855.9 508.9c0 .2 0 .4-.1.6s-.1.4-.2.6l-.5.8M853.9 507.1c.2 0 .5-.1.8 0s.5.2.7.4c.1.2.3.3.4.6.1.3.1.5.1.8M852 509.9c.1-.4.1-.7.3-1.1.2-.3.3-.7.5-.9.2-.2.4-.4.5-.6l.6-.3M852.5 509.7l-.5.2M853.9 508l-.5.3-.4.5c-.2.3-.3.6-.5 1M938.1 486.8l-.1-.6-.4-.4c-.2-.1-.5-.1-.8-.1M936.4 488.8c.4-.2.8-.3 1.1-.6.2-.1.4-.3.4-.5l.2-.4v-.4M936.4 489.7v-.9M938.5 491.1l-.1-.5-.2-.4c-.1-.2-.3-.4-.5-.5s-.4-.1-.6-.1l-.7.1M936.8 493.5l.7-.3.6-.6c.1-.2.2-.4.3-.7.1-.3.1-.5.1-.7M936.1 493.4l.2.1h.5M936.8 494.4c-.3 0-.6.1-.9 0-.3-.1-.5-.3-.7-.5-.1-.2-.3-.4-.4-.7l-.2-.9M939.1 490.8c-.1.5-.1.9-.2 1.3-.1.5-.4.8-.6 1.2-.2.3-.4.5-.7.7-.2.2-.5.2-.7.3M938.7 489.3c.1.3.3.5.3.8.1.2.1.5.1.7M938 488.8l.4.3.3.3M938.7 486.7c0 .2 0 .4-.1.6 0 .2-.1.4-.2.6-.1.3-.4.6-.5.8M936.8 484.9c.3 0 .5-.1.8 0 .2.1.5.2.7.4l.4.6c.1.3.1.5.1.8M934.8 487.7c.1-.4.1-.7.3-1.1.1-.3.3-.6.5-.9l.6-.6.6-.3M935.5 487.5l-.7.2M936.8 485.8l-.5.3-.4.5c-.2.3-.3.7-.4 1M347.5 616.6l5.4 1.5M1022.5 438.7l-5.3-1.4-669.7 179.3M345.6 693.9l4 1.1M345.6 649.5v44.4M374.5 623.3l.2.6M388.9 627c2.2-2.1 3.1-5.3 2.2-8.2M405.5 622.6c2.3-2.1 3.1-5.3 2.2-8.2M422 618.2c2.3-2.1 3.1-5.3 2.2-8.2M438.6 613.8c2.3-2.1 3.1-5.3 2.2-8.2M443.8 617.2v.7l-2.3.6-.3 2.5M442.8 620.6h.1c.3 0 .5.3.7.6.2.2.3.5.3.8.1.3.1.6.1 1 0 .5-.1 1-.2 1.4-.1.5-.3.9-.6 1.3-.2.3-.4.6-.7.7-.2.2-.5.3-.8.4h-.8M440.4 624.9l.1.5.4.4.3.1M442.6 621.6h-.7c-.3.1-.5.2-.8.4l-.2.2M441.2 621l.3.1M441.5 618.5l.4.1M441.8 621.6l.4.1M441.7 626.8l.4.1M443.8 617.9l.4.1M444.1 623l.3.1M455.2 609.3c2.3-2.1 3.1-5.3 2.2-8.2M471.8 604.8c2.3-2.1 3.1-5.2 2.2-8.2M488.4 600.4c2.2-2.1 3.1-5.3 2.2-8.2M521.2 639.1l1.4.3M504.9 596c2.3-2.1 3.1-5.3 2.2-8.2M521.5 591.6c2.3-2.1 3.1-5.3 2.2-8.2M521.9 597l-.6.2M521.9 597l.3.1M522.5 596.1v8.9h-.3M522.5 605h.3M527.9 594.4l.4.1c.3.2.5.6.8 1 .2.4.3.9.3 1.4.1.5.1 1 .1 1.6s0 1.1-.1 1.6c-.1.6-.2 1.1-.3 1.6-.2.5-.5 1-.8 1.4l-.5.5-.6.3c-.2.1-.4.1-.6 0l-.1-.1M527.2 595.3l-.5.3-.4.4-.3.5c-.1.2-.2.4-.2.6-.1.4-.2.8-.2 1.2-.1.4-.1.8-.1 1.3 0 .4 0 .8.1 1.2 0 .4.1.8.2 1.2.1.3.3.6.5.8l.4.2M527.7 595.3h-.5M525.6 599.6l.3.1M527.2 595.3l.3.1-.5.2-.4.4-.3.5c-.1.2-.2.4-.2.6-.1.4-.2.8-.2 1.3 0 .4 0 .8-.1 1.2M529.2 598.8c0-.4 0-.8-.1-1.2 0-.4-.1-.8-.2-1.1-.1-.4-.3-.6-.6-.8l-.4-.2h-.4M528.9 601.2c.1-.4.2-.9.2-1.3v-1M527.5 603.1l.5-.3c.2-.1.3-.3.5-.5.2-.3.3-.7.4-1.1M525.9 599.7c0 .4 0 .8.1 1.2 0 .4.1.8.2 1.2.1.3.3.6.5.8l.4.2h.5M527.2 603.9l.3.1M529.5 598.6l.3.1M538.1 587.1c2.3-2.1 3.1-5.3 2.2-8.3M554.7 582.6c2.2-2.1 3.1-5.3 2.2-8.2M571.2 578.2c2.3-2.1 3.1-5.3 2.2-8.2M595.5 619.2l1.3.3M587.8 573.8c2.2-2.1 3.1-5.3 2.2-8.2M604.3 569.3c2.3-2.1 3.1-5.3 2.2-8.2M604.8 574.8l-.6.2M604.8 574.8l.3.1M605.4 573.9v8.9h-.3M605.4 582.8h.3M612 572.1v.8l-2.2.6-.4 2.5M611 575.6c.4 0 .6.3.8.6.2.2.3.5.4.8.1.3.1.6.1 1l-.2 1.4c-.1.5-.3.9-.6 1.3-.2.3-.4.6-.7.7-.2.2-.5.3-.8.4h-.8M608.6 579.8l.1.5c.1.2.2.4.4.4l.3.1M610.7 576.5h-.7c-.3.1-.5.2-.8.4l-.2.2M609.4 576h.3M609.8 573.5l.3.1M610.1 576.5l.3.1M609.9 581.8l.4.1M612 572.9l.3.1M612.3 578l.3.1M620.9 564.9c2.3-2.1 3.1-5.3 2.2-8.2M637.5 560.5c2.3-2.1 3.1-5.3 2.2-8.3M669.8 599.3l1.3.3M654.1 556c2.3-2.1 3.1-5.3 2.2-8.2M670.7 551.6c2.3-2.1 3.1-5.3 2.2-8.2M687.2 547.1c2.3-2.1 3.1-5.3 2.2-8.2M688.8 551.3c.4 0 .6.3.8.6.1.2.3.5.3.7.1.3.1.6.1.9l-.1 1.1c-.1.4-.3.7-.4 1l-.8 1.5-1.7 2.9M690.1 559.3v.7l-4 1.1M688.6 552.3h-.6c-.2.1-.5.2-.7.4s-.4.4-.5.7c-.1.2-.2.5-.2.7-.1.3-.1.5-.1.7l.3.1M688 552.3l.3.1M690 553.5l.4.1M690.1 560l.4.2M687 560h.3M688.7 557.1l.3.1M693.7 550l.4.2c.3.2.6.5.8 1 .2.4.3.9.3 1.4.1.5.1 1 .1 1.6 0 .5 0 1-.1 1.6l-.3 1.6c-.2.5-.4 1-.8 1.4l-.5.5-.6.3h-.7M693 551l-.4.2-.4.4-.3.6c-.1.2-.2.4-.2.6-.1.4-.1.8-.2 1.3-.1.4-.1.8-.1 1.2s0 .8.1 1.2c0 .4.1.8.2 1.1.1.3.3.7.5.8l.4.1M693.4 551h-.4M695 554.4v-1.2c-.1-.4-.1-.8-.3-1.1-.1-.3-.3-.7-.5-.9l-.4-.2h-.5M694.7 556.8c.1-.5.2-.9.2-1.3v-1M693.3 558.7l.5-.3c.2-.2.3-.3.4-.6.2-.3.3-.7.4-1.1M691.6 555.3v1.2l.2 1.2c.1.4.3.6.5.8l.4.2h.4M693.3 551l-.4.2-.4.4-.3.5-.2.6c-.1.4-.2.8-.2 1.3v1.3M691.3 555.2l.3.1M693 551h.3M692.9 559.5l.4.1M695.2 554.2l.3.1M703.8 542.7c2.3-2.1 3.1-5.3 2.2-8.3M720.4 538.2c2.3-2.1 3.1-5.3 2.2-8.2M728.9 554.7c1.8-1.8 2.4-4.4 1.8-6.9M737 533.8c2.3-2.1 3.1-5.3 2.2-8.2M740.8 572.7c.5-1.4.5-2.8.2-4.2M753.5 529.4c2.3-2.1 3.1-5.3 2.2-8.3M770.1 524.9c2.3-2.1 3.1-5.3 2.2-8.2M771.7 529.1c.3 0 .6.3.8.5l.3.7c.1.3.1.6.1.9 0 .3-.1.7-.2 1.1-.1.3-.2.7-.4 1-.2.5-.5 1-.8 1.5l-1.6 2.9M773 537.1v.8l-4 1M771.4 530.1h-.6c-.2.1-.4.2-.7.4-.2.2-.4.4-.5.7-.1.2-.2.4-.2.7-.1.2-.1.5-.1.7l.3.1M770.9 530.1h.3M772.9 531.3l.4.1M773 537.9h.3M769.9 537.8h.3M771.6 534.9l.3.1M777.8 527.7v.8l-2.3.6-.3 2.4M776.7 531.2c.4 0 .6.3.8.6.1.2.3.5.3.8.1.3.1.6.1 1-.1.5-.1 1-.2 1.4-.2.4-.3.9-.6 1.3-.2.3-.5.5-.7.7-.3.2-.5.3-.8.4h-.7M774.3 535.4l.2.5c.1.2.2.4.4.5l.3.1M776.5 532.1h-.6c-.3.1-.6.2-.8.4l-.2.2M775.2 531.5l.3.1M775.5 529.1h.3M775.8 532.1l.3.1M775.7 537.3l.3.1M777.8 528.5h.3M778 533.6l.3.1M786.7 520.5c2.3-2.1 3.1-5.3 2.2-8.2M803.3 516c2.3-2.1 3.1-5.3 2.2-8.2M819.8 511.6c2.3-2.1 3.1-5.3 2.2-8.2M801.8 589.1c.6-1.5.8-3.2.4-4.8M836.4 507.2c2.3-2.1 3.1-5.3 2.2-8.2M853 502.7c2.3-2.1 3.1-5.3 2.2-8.2M854.4 507c.3 0 .5.2.7.4.1.2.3.4.3.6.1.3.1.5.1.8v.6l-.2.6c-.1.3-.3.6-.5.8l.4.2.3.3c.1.3.3.5.3.8.1.2.1.4.1.7-.1.5-.1.9-.2 1.3-.1.5-.4.9-.6 1.2-.2.3-.4.5-.7.6-.2.2-.5.3-.8.3-.3.1-.6.2-.9 0M852 514.4l.1.5.3.4.4.2M854.4 511.8l-.4-.1-.4.1M854.2 507.9h-.6l-.5.2-.5.5c-.2.3-.3.7-.4 1.1l.3.1M853.6 507.9l.3.1M853.6 516.5l.3.1M855.5 508.8l.4.1M854.8 510.9l.3.1M855.9 512.9l.3.1M855.5 511.4l.3.2M859.4 505.6l.4.2c.3.2.6.5.8 1 .2.4.3.9.3 1.4.1.5.1 1 .1 1.6 0 .5 0 1.1-.1 1.6s-.2 1.1-.3 1.6c-.2.5-.5 1-.8 1.4l-.5.5-.6.3h-.6l-.2-.1M858.7 506.6l-.4.2-.4.4-.3.5-.2.6c-.1.4-.2.9-.2 1.2v2.5c0 .4.1.8.2 1.1.1.4.3.7.5.8l.4.2M859.2 506.6h-.5M857.1 510.8l.3.1M858.7 506.6l.3.1-.5.3-.4.4-.3.5c-.1.2-.2.4-.2.6-.1.4-.2.8-.2 1.2-.1.4-.1.8-.1 1.3M860.7 510c0-.4 0-.8-.1-1.2 0-.4-.1-.8-.2-1.1-.1-.4-.3-.7-.5-.9l-.4-.2h-.5M860.5 512.3c.1-.4.2-.9.2-1.3v-1M859 514.3l.5-.3c.2-.2.3-.4.5-.5.2-.3.3-.7.4-1.1M857.4 510.9c0 .4 0 .8.1 1.2 0 .4.1.8.2 1.1.1.4.3.6.5.8l.4.2h.5M858.7 515.1l.3.1M861 509.8l.3.1M869.6 498.3c2.3-2.1 3.1-5.3 2.2-8.2M886.2 493.9c2.3-2.1 3.1-5.3 2.2-8.3M902.7 489.4c2.2-2.1 3.1-5.3 2.2-8.2M888.9 562c1.8-1.9 2.5-4.4 1.8-7M919.3 485c2.3-2.1 3.1-5.3 2.2-8.2M935.9 480.5c2.3-2.1 3.1-5.3 2.2-8.3M937.2 484.8c.3 0 .5.2.7.4.1.2.3.4.3.6.1.2.1.5.1.8v.6c-.1.2-.1.5-.2.6-.1.3-.3.6-.5.8l.4.2.3.3.3.8c.1.2.1.5.1.7 0 .4-.1.9-.2 1.3s-.3.8-.6 1.2c-.2.3-.4.5-.7.6-.2.2-.5.3-.7.4-.3.1-.7.2-.9 0M934.9 492.2l.2.5.3.4.4.2M937.2 489.6l-.4-.1h-.4M937.1 485.8h-.6l-.5.2-.5.5c-.2.3-.3.7-.4 1.1l.4.1M936.5 485.7l.3.1M936.5 494.3l.3.1M938.4 486.6l.3.1M937.7 488.7l.3.1M938.7 490.8h.4M938.4 489.2l.3.1M943.5 483.3v.8l-2.3.6-.3 2.4M942.5 486.7c.4 0 .7.3.8.6l.4.8c.1.3.1.6.1 1 0 .5-.1 1-.2 1.4-.1.5-.3.9-.6 1.3-.2.3-.4.6-.7.7-.3.2-.5.3-.8.4h-.7M940.1 491l.1.5c.1.2.2.3.4.4l.3.1M942.3 487.7h-.7c-.3.1-.6.2-.8.4l-.2.2M940.9 487.1l.3.1M941.2 484.7l.4.1M941.6 487.7l.3.1M941.4 493h.4M943.5 484.1l.3.1M943.7 489.1l.4.1M952.4 476.1c2.3-2.1 3.1-5.3 2.2-8.2M969 471.6c2.3-2.1 3.1-5.3 2.2-8.2M966.7 526.2c3.2-2.5 4.4-6.8 2.8-10.6M977.7 483.2c1.8-1.8 2.4-4.4 1.9-6.9M985.6 467.2c2.3-2.1 3.1-5.3 2.2-8.2M983.2 515c1.8-1.9 2.4-4.5 1.8-6.9M1002.2 462.8c2.3-2.1 3.1-5.3 2.2-8.3M1002.3 494.8c1.8-1.8 2.5-4.4 1.9-6.9M1001.9 539.2c3.2-2.5 4.4-6.8 2.8-10.6M521.2 639.1v-6.5M521.2 639.1l-33.1 8.9M595.5 619.2v-6.5M595.5 619.2l-33.1 8.9M669.8 599.3v-6.5M669.8 599.3l-33.2 8.9M761.5 677.7l-6.7 1.7M761.5 677.7l26.5-7.1M794.6 668.8l-6.6 1.8M794.6 668.8l8-2.1M1033.1 604.9l-230.5 61.8M1033.1 604.9l23.5 3.7-296 79.3h-13.2l-12-3.2 19.4-5.3M1061.1 614.9c0-3-2-5.8-4.5-6.3M1061.1 614.9l-294.6 78.9c0-1.9-.7-3.8-2-5.3M766.5 693.8l-2-.5M1061.1 614.9h.3v97.5M1061.1 712.5l.3-.1M1061.1 712.5l-294.6 78.9v-97.6M766.5 791.4l-2-.6M735.4 687.4v-2.7M739 688.3l-3.6-.9M764.5 795.6c1.4-.9 2.2-2.6 2-4.3M1058.3 716.9c1.7-.5 2.9-2.2 2.9-4.5M754.8 679.4c-.9-.3-2 0-2.7.7M761.5 677.7l-.8-.1-.7.1M788 670.6c-1-.3-2 0-2.7.7M794.6 668.8l-.8-.1-.6.1M1033.1 604.9c-.7-.1-1.3-.1-1.9.1M802.6 666.7c-1-.3-2 0-2.7.7M1034.1 604.4v.7M1057.7 608.1l-23.6-3.7M1057.7 608.1v.8M1164 474.6l-129.9 129.8M1193.3 472.5l-29.3 2.1M1193.3 472.5l-135.6 135.6M1062.9 614.1c0-3-2.3-5.7-5.2-6M1061.1 614l1.8.1M1198.2 474.9c-1.1-1.5-2.9-2.4-4.9-2.4M1199.1 477.8c-.1-1.1-.4-2.1-.9-2.9M1199.1 477.9l-136.2 136.2M1061.4 712.4c.5-.1 1-.3 1.5-.6M1061.4 614.9c.5-.1 1-.3 1.5-.7M1062.8 614.2v97.5M1062.8 614.2l.1-.1M1199.1 477.9v97.5M1199.1 575.5l-136.2 136.2M1062.8 711.7h.1M1031.1 605l.5-.2M1159.8 476.3l-.4.3M1164 474.6c-1.5.1-3 .7-4.2 1.7M1034.1 604.4c-.9-.1-1.8 0-2.5.3M1031.6 604.8l.1.1M1198.2 578.5c.6-.9.9-1.9.9-2.9M1197.5 579.2l.6-.7M1059.4 716.4c2.1-.6 3.5-2.4 3.5-4.7M67.1 505.6v-3.5l296-79.3 13.6 6.3M146.2 490.8l230.5-61.7M138.3 493l7.9-2.2M131.7 494.7l6.6-1.7M105.1 501.8l26.6-7.1M98.5 503.6l6.6-1.8M79.1 508.8l19.4-5.2M79.1 508.8l-12-3.2M98.5 503.6v2.7M89 508.9l9.5-2.6M74 510.2l-6.9-1.9M102.5 510.1l6.6-1.8M98.5 503.6l.7.3.8.5.7.7.6.9.5.9.3 1 .3 1.1.1 1.1M109.1 508.3l-.1-1.1-.2-1-.4-1-.5-1-.6-.9-.6-.7-.8-.4-.8-.4M102.5 510.1l-.7-.2M363.1 422.8c-.4-.2-.9-.2-1.2-.1M131.7 494.7v2.7M107.7 503.9l24-6.5M131.7 494.7l.7.3.8.6.6.7.7.8.4.9.4 1.1.2 1 .1 1.1-.7-.2M142.2 499.4v-1l-.3-1.1-.3-1-.5-1-.6-.8-.7-.7-.8-.5-.7-.3M135.6 501.2l6.6-1.8M146.2 490.8v2.7M140.9 495l5.3-1.5M146.2 490.8l.8.4.7.4.7.7.6.9.5.9.4 1.1.2 1 .1 1.1M378.2 430.5c-.5-.7-1-1.2-1.5-1.4M380.2 435.7c0-1.9-.7-3.8-2-5.2M150.2 497.3l230-61.6M150.2 497.3v66.5M380.2 454.1v-18.4M345.1 538.4l-.3-.1-.8-.4-.8-.6-.6-.7-.6-.9-.4-1-.4-1.1-.2-1.2-.1-1.3M363.3 471.6c-.8-.2-1.7-.2-2.4 0M347.6 475.2l13.2-3.6M340.9 486l.1-1.3.2-1.3.4-1.4.4-1.2.6-1.2.6-1.1.8-.9.8-.9.9-.7.9-.5 1-.3M340.9 531.1v-45.1M380 430.2c-.5-.7-1-1.2-1.5-1.4M863.1 394c-.4.4-.8 1.3-1.1 2.5M862.5 401c0-1.5-.2-3.1-.5-4.5M380.8 435.6c0-1.9-.2-3.7-.7-5.5M862.5 401v67M380.8 453.9v-18.3M1163.3 473.9l29.2-2.1M1192.5 472.6v-.8M1163.3 474.7v-.8M865.8 394.2l297.5 79.7M865.8 394.2l7.9-7.8 318.8 85.4M871 386.2l-7.9 7.8M378.6 428.8l-13.6-6.3M1159.1 475.5c-.5.8-.8 1.6-1.1 2.5M864.7 396.7c-.9 1.3-1.3 2.8-1.3 4.4M865.8 394.2c-.4.4-.8 1.3-1.1 2.5M1163.3 473.9c-1.6.1-3 .7-4.2 1.7l.7.8M863.4 467.8v-66.7M1023.2 515.3v-45.2l-.7-.2M1003.3 493.7v-4.6M1199.1 477.9l.2-.2v-.4l-.2-.2-.1-.1"/>
    <path class="st1"
        d="M871 386v.2-.2zM365 422.5c-.5-.3-1.1-.2-1.5.5M1199.3 575.1v.2l-.2.1M1196.8 473.6c-.9-1.4-2.6-2.1-4.3-1.8M874.7 386.2c-.3-.1-.7 0-1 .1M871.3 388.8l-.3.1M380 430.2l-.4 2M380 434.2c0-.7-.2-1.4-.4-2.1M378.6 428.8v2.2M379.6 432.2c-.2-.2-.3-.3-.6-.4M365 422.5v1.2M863.1 394v2.7c-.3.1-.7.3-1 .6M871 386.2v2.7l-7.9 7.8M555.2 644.9l-37.6 10.1M562.1 648.6l-.5-1-.7-.9-.8-.8-.9-.6-.9-.3-1-.3h-1.1l-1 .2M511.7 660.1l-.2.5M517.6 654.9c-2.6.9-4.6 2.7-5.9 5.1M517.6 655l-8-2.1M503.7 657.9l8 2.2M509.6 652.8c-2.6.9-4.7 2.7-5.9 5.1l-.1.5M555.2 644.9l-8-2.1-37.6 10.1M550.1 642.7c-.9-.2-2-.2-2.9.1M282.3 599.2v-1.1M6.8 523.6v1.7M65.4 512.5v-4.7M891.3 625.4l-217.5 58.3M641.5 692.4l-5.6 1.5M889.5 623.9l-216.9 58.1M641.8 690.2l-9.8 2.7M772.3 592.5l-257.4 69M437.7 449.2h-.4l-.4-.2-.5-.3-.6-.5-.6-.6-.7-.8-.7-.8-.8-.9-.7-.9-.7-1-.7-.9-.6-1-.5-.9-.5-.9-.3-.7-.2-.6-.2-.5v-.4l.2-.2M392.9 451.6l.1 1 .2 1.1.4 1.1.6.9.7.9.9.8 1 .6 1.1.5 1.2.3 1.2.1 1.2-.1 1.2-.2 1.1-.4 1-.6.9-.7.8-.8.6-1 .5-1.1.2-1 .1-.7M391.9 452.4l-.1.2-.4.7-.3.8v.9l.1 1 .3 1 .4.9.6 1 .7.9.9.9.9.8 1 .6 1 .6 1.1.3 1 .3 1 .1 1-.1.8-.2.8-.4.6-.5.1-.2M397.9 467.5l.5 1.8.3 1.8.1 1.8.1 1.7-.2 1.8-.2 1.7-.4 1.6-.5 1.5-.6 1.4-.8 1.3-.8 1.1-1 1-1 .8-1.1.7-1.2.4-.2.1M389.7 455.1c-2.3-1.6-5.2-2.2-8-1.6M389.7 455c-2.3-1.6-5.2-2.2-8-1.6M391 487.9h.2l1.2-.5 1.2-.6 1-.8.9-1 .9-1.1.7-1.3.7-1.4.5-1.5.3-1.6.3-1.7.1-1.8v-1.8l-.2-1.8-.3-1.8-.4-1.8M431.9 454.4l-.1.1-.6.6-.7.4-.9.2h-1.9l-1.1-.3-1.1-.4-1-.5-1-.7-.9-.7-.9-.9-.7-.9-.6-1-.4-1-.3-1-.1-.9v-.9l.3-.8.4-.7.1-.2M418.1 447.5c-1.5-1-3.1-1.6-4.9-1.8M419.8 480.2l1-.4 1.1-.6 1.1-.8.9-1 .9-1.2.7-1.2.6-1.4.5-1.5.4-1.6.3-1.7.1-1.8-.1-1.8-.1-1.8-.3-1.8-.4-1.8M426.6 459.8l.4 1.8.3 1.8.2 1.8v1.8l-.1 1.7-.2 1.7-.4 1.6-.5 1.6-.7 1.4-.7 1.2-.8 1.2-1 1-1.1.8-1.1.6-1.1.4M418.2 447.4c-1.5-1-3.2-1.6-4.9-1.8M939.3 602.6l1.3-.1h1.3l1.2.3 1.4.4 1.3.7 1.2.8 1.3.9 1.1 1.1 1.1 1.3 1.1 1.4.9 1.5.8 1.6.8 1.7.5 1.7.6 1.8.3 1.8.2 1.8.1 1.8v1.8l-.1.3M955.8 625.2l.1-.3v-1.8l-.1-1.8-.2-1.8-.3-1.8-.5-1.8-.6-1.8-.7-1.7-.9-1.6-.9-1.5-1-1.4-1.1-1.2-1.2-1.1-1.2-1-1.3-.8-1.3-.6-1.3-.4-1.3-.3h-1.3l-1.3.1M925.5 604.1h-.1v-.3l.1-.4.3-.5.4-.6.6-.6.7-.7.9-.6.9-.7 1-.7 1.1-.6 1-.6 1-.4 1.1-.5.9-.3.9-.2.7-.1.6-.1.5.2.3.2h.1M965.2 583.5l-.1-.6-.3-.7-.4-.7-.6-.5-.8-.6-.9-.4-1.1-.4-1.1-.2-1.2-.2h-1.2l-1.2.1-1.1.2-1.1.3-1 .4-.9.5-.8.6-.6.6-.3.7-.3.7v.5M920.4 598.4v.1l.3-.1.3-.1.4-.3.6-.5.6-.6.6-.7.8-.8.7-.9.7-1 .8-.9.6-1 .7-.9.6-.9.4-.9.5-.7.3-.6.1-.5.1-.4-.1-.2M984.2 617.6v-.3l.1-1.8-.1-1.8-.2-1.9-.4-1.8-.4-1.7-.6-1.8-.7-1.7-.9-1.6-.9-1.5-1-1.3-1.1-1.3-1.2-1.1-1.2-1-1.3-.8-1.3-.6-1.3-.5-1.3-.2-1.3-.1-1.3.2M967.9 594.9l1.3-.1 1.3.1 1.3.2 1.3.4 1.3.7 1.3.8 1.2.9 1.2 1.1 1.1 1.3 1 1.4.9 1.5.9 1.6.7 1.7.6 1.7.5 1.8.3 1.8.3 1.9.1 1.8-.1 1.7v.4M967 589l-.1-.1-.3-.2-.5-.1-.6.1-.7.1-.9.2-.9.3-1 .5-1.1.4-1 .6-1.1.6-1 .7-.9.6-.9.7-.7.6-.6.6-.4.6-.3.5-.1.4.1.4M246.7 585.5v.3l.2.5.4.5.6.5.7.4 1 .5 1.1.3 1.2.4 1.4.3 1.5.4 1.6.2 1.7.2 1.7.1 1.9.2h5.5l1.8-.2 1.8-.1 1.7-.2 1.6-.2 1.5-.3 1.4-.4 1.2-.3 1.1-.4 1-.4.8-.5.6-.5.4-.5.2-.5v-.3M282.3 585.7v.3l-.2.5-.4.5-.6.5-.8.4-1 .5-1.1.3-1.2.4-1.4.3-1.5.3-1.6.3-1.7.2-1.8.1-1.8.1-1.8.1h-1.9l-1.8-.1-1.9-.1-1.7-.1-1.7-.2-1.6-.3-1.5-.3-1.4-.3-1.2-.4-1.1-.4-1-.4-.7-.4-.6-.5-.4-.5-.2-.5v-.3M286.4 582.6l-.1-1.2-.2-1.2-.3-1.1-.5-1.1-.5-1.1-.7-.9-.7-.7-.8-.6-.8-.5-.9-.3-.9-.1-.8.1v.1M283 588.4l.4-.1.7-.4.7-.5.5-.7.5-.9.3-1 .2-1.1.1-1.1M293.6 577.8l-.5-.9-.7-.9-.7-.9-.9-.8-.9-.8-1-.7-.9-.6-1-.6-.9-.3-.9-.3-.8-.1h-.7l-.5.1-.5.3v.1M294 581.4c.7-1.2.6-2.6-.4-3.6M296.4 598.9l.1.2.2.5.3.5.6.5.8.5.9.4 1.1.4 1.2.3 1.4.4 1.5.3 1.6.2 1.7.2 1.8.2 1.8.1h5.5l1.8-.1 1.8-.2 1.7-.2 1.6-.2 1.5-.3 1.4-.3 1.3-.4 1.1-.4.9-.4.8-.5.6-.4.4-.6.2-.4v-.3M332 599v.4l-.2.4-.4.5-.6.5-.8.5-.9.4-1.1.4-1.3.4-1.4.3-1.5.3-1.6.2-1.7.2-1.8.1-1.8.2h-5.5l-1.8-.2-1.8-.1-1.7-.2-1.6-.3-1.5-.3-1.4-.3-1.2-.4-1.1-.4-.9-.4-.8-.4-.6-.5-.3-.5-.2-.5-.1-.3M336.1 595.9l-.1-1.1-.1-1.2-.4-1.2-.4-1.1-.6-1-.7-.9-.7-.8-.8-.6-.9-.5-.8-.3-.9-.1-.8.2M332.8 601.8l.3-.2.7-.3.7-.6.6-.7.4-.9.4-1 .1-1 .1-1.2M343.4 591.1l-.6-.9-.6-.9-.8-.8-.8-.9-1-.8-.9-.7-1-.6-1-.6-.9-.3-.9-.3-.7-.1h-.7l-.6.2-.4.3h-.1M343.7 594.7c.7-1.2.6-2.6-.4-3.6M925.9 630.1l-241.6-64.7M591.7 540.6l-198.9-53.3M369.1 480.9l-21.5-5.7M908.3 638l-11.1-3M754.9 596.9l-77.2-20.7M568.2 546.9l-227.3-60.9M483.9 569.5l-143-38.4M923.4 622.3l-225.8-60.5M605 537l-184.2-49.4M365.4 472.8l-4.6-1.2M717.9 733.5l-3-.8M711.2 744.3l-3-.8M711.2 789.5l-3-.8M731.1 729.9l-3-.7M717.9 792.2l-2.3-.6M734.4 738.1l-8.4-2.3M731.1 788.7l-16.6-4.5M734.4 783.3l-19.9-5.4M1061.4 614.9l-.3-.1M1062.8 614.2l-1.7-.2M150.2 497.3l-.7-.2M208.2 579.3l47.4-12.7M273.4 561.9l79.7-21.4M378.6 428.8l35.2-2.5M455 423.3l408.1-29.3M380.8 435.6l23.2-1.7M435 431.7h.2M454.4 430.3l408.1-29.3M548.3 521.1l158.3-11.3M365 422.5l64.2-4.6M450.1 416.4l420.9-30.2M863.4 401.1l124.4 33.3M1002.6 438.4l5.2 1.4M1022.5 443.7l133.9 35.9M1002.6 536l1.7.4M1022.5 541.3l57 15.2M868.9 391l.2-.1M380.8 435.6l-.7-.6"/>
    <defs>
        <path id="SVGID_1_" d="M0 814.8z"/>
    </defs>
    <clipPath id="SVGID_2_">
        <use xlink:href="#SVGID_1_" overflow="visible"/>
    </clipPath>
    <path class="st3" d="M0 814.8l7.1-7.1"/>
    <path class="st0" d="M0 814.8z"/>
</svg>
