<svg xmlns="http://www.w3.org/2000/svg" viewBox="0 0 1400 1400"
    enable-background="new 0 0 1400 1400">
    <style type="text/css">.st0{fill:none;} .st1{fill:none;stroke:#000000;stroke-linecap:round;stroke-linejoin:round;stroke-width:3;} .st2{fill:none;stroke:#FFFFFF;stroke-miterlimit:10;}</style>
    <path class="st0" d="M1300 269.9h-1200v860.1h1200v-860.1z"/>
    <path class="st1"
        d="M141.9 704.4l-5.6-1.5m-35.4 106.9l5.6 1.6m81.7-537.4v-3m1094.1 590.5l5.6 1.5m-3.6-11.7l5.7 1.5m-20.7 175.3l-5.7-1.5m-.5-3.4l5.7 1.5m15.5 2.8l5.7 1.5m-77.2 80.2l5.7 1.5m13.2-18.1l5.7 1.6m10.9-91.9l5.6 1.5m-35.4-327.8l80.7-100m-1114.1-301.2l1104.5 297.3m3-3.8l-3 3.8m-76.8 120.4l-.9 1.2m-1104.4-297.4l1104.4 297.4m6.6-17.7l-5.7-1.6m2.2-10l-1104.5-297.3m-3 8.9l-6.6-.9m6.6 1.7l1104.4 297.4m.5-.6l-.5.6m-1111-299.1l5.6 1.5m13.2 416.7l5.7 1.5m31.9-66.1l-5.7-1.5m5.2-1.8l-5.6-1.6m26.8 5.8l-5.6-1.5m3.6-164.5l-5.7-1.5m2.1-10.2l5.6 1.6m-24.5-184.9v-5.1m54.4-62.3v-5.1m8.6 43.3v4.6m2.9 42.3v-5.1m54.4-62.3v-5m41.5 78.4v-5.1m268.1 51v4.6m104.9 28.7v-5.1m111.5 30.1v4.5m303.9 123.4v-5.1m63-24.1v4.6m2.9 42.3v-5.1m-1023.2-81.8l2.3.6m1109.7 298.8l2.2.6m-1153.6-479.2c-1.3 1.7-.5.3-.5 4.7v426.5c0 4.9-.1 9.9 1.2 14.8.6 2.3 1.5 4.7 3.2 6.4l1.5 1c3.5 1.7 7.2-1.1 9.5-3.5l2.1-2.4 2.6-3.2 40.4-50c2.5-3 4.8-6 6.8-9.5 1.9-3.2 3.4-6.6 4.9-9.9 2.2-5.3 4-10.8 5.3-16.3 1.5-6.2 2.6-12.5 3-18.8.2-2.8.2-5.6.2-8.5v-289.5M177.4 725.9c.7 2.3.7 4.7.3 7.1-.4 3-1.3 6-2.6 8.7-1 2-2.3 4.5-4.6 5-2.1-.5-2.2-3.3-2.2-5.1 0-4.6 1.3-9.5 3.7-13.5l.7-1.2c.7-1 2.3-2.9 3.7-2.1.6.2.7.6 1 1.1zm-5.1 1.6c.2 2.6-.3 5.2-1 7.7-.6 2.4-1.5 4.9-2.9 7m3.9-190.8c.3 6.2-2.5 12.1-4.6 17.7-3.2 8.7-6 17.5-8.5 26.4-4.6 16.3-8.2 33.1-10.5 49.9-1.7 12.6-3 25.4-3 38.2 0 8.8.5 17.7 2 26.3l1.5 7.3c.6 2.5 1.7 5 2.2 7.6.8 4.1-.4 8.7-1.9 12.5-.6 1.5-1.3 3.1-2.2 4.4M141.9 704.4c.6 11.1 1.4 22.2 4.2 33l.9 3.3c.4 1.3 1.1 6.3 3.8 4.7l.7-.6c1.8-1.5 2.8-3.9 3.7-6 1.4-3.6 2.3-7.6 2-11.5-.3-3-1.6-5.8-2.3-8.7l-1.5-7.4c-.7-4.1-1.1-8.2-1.4-12.3-.8-11.4-.6-23 .3-34.5 1.1-13.7 3.3-27.2 6-40.7 3.4-16.8 8-33.4 13.7-49.5l1.4-3.9c2-5.5 4.7-11.1 4.6-17.1 0-1.8-.1-4.6-2.3-5.1-2.9.7-4.4 4.4-5.4 6.9l-1.4 3.9-1.6 4.4c-6.1 16.5-10.9 33.5-15 50.6-3.3 13.8-5.9 27.9-7.7 42.1-.7 5.4-1.3 10.9-1.7 16.3l-.3 3.6-.3 4.2-1.5 3.8-1 2.5-1.5 3.8c-2.6 7-5 14.1-7.1 21.2-5.5 17.9-9.6 36.2-12.3 54.7-1.7 11.6-2.8 23.3-3.1 35v1.3l-.1 4.2.1 1.5c.1 1.2.5 3.6 2.1 3.6.9 0 1.7-.7 2.2-1.3 1-1.1 1.7-2.4 2.3-3.6 1.6-3.2 2.5-6.9 2.8-10.4.2-3.3.1-6.6.2-9.8.9-21.5 4.9-43 10.7-63.8 1.8-6.1 3.8-12.3 5.8-18.4zm-26.1 103c2.3-3.6 3.6-8.2 3.9-12.4.3-3.3.1-6.6.2-9.8.2-5.8.7-11.6 1.4-17.3 1.8-15.7 5-31.3 9.2-46.4 1.7-6.2 3.7-12.3 5.7-18.4m52-432.1c-1.5-.3-.8-.2-2.3-.3-.9.1-1.2.1-2 .5-1.6.8-3.2 3.3-4 4.4l-75.5 93.5-2.6 3.2c-1.4 1.9-.9 4.9-.9 6.9v426.5c0 4.9-.1 10 1.1 14.8.6 2.3 1.5 4.7 3.3 6.4 1.2 1.2 1.6 1.1 3.2 1.5l5.6 1.5m-6.6-433.6v-25.4l2.6-3.2 75.5-93.5 2.6-3.2m-3.1 3.8c.4-.4.6-.7 1.1-1 .4-.2.5-.2.9-.1l4 1.1 1095.5 294.9 4 1m-78.7 123v-25.4l2.6-3.2 72.4-89.7 2.6-3.2.6-.6m2.5-3.3c3 1.1 5.8 3.2 6.5 6.6l.1 1.1v430.7c0 4.4 0 8.7-.5 12.9-1 8.9-3.2 17.8-6.2 26.2-1.8 5-3.9 9.9-6.6 14.4-2 3.4-4.3 6.4-6.8 9.5l-40.4 50c-2.1 2.6-4.1 5.4-6.8 7.4-1.1.9-2.5 1.7-4 2l-1.8.1-5.7-1.5c-1.5-.4-1.9-.4-3.2-1.5-1.8-1.7-2.7-4.1-3.3-6.4-1.3-4.9-1.2-9.8-1.2-14.8v-426.5c0-1.3 1-4.5-.9-5.3m.1-4.9c3 1.1 5.8 3.2 6.5 6.6l.1 1.1v434.8l.1 4 .4 3.6c.4 2.7 1.1 5.5 2.6 7.9.7 1.1 1.6 2.1 2.8 2.6l1.7.4M1253.9 1003.8c.6 11.1 1.4 22.2 4.2 33l1 3.3c.4 1.3 1 6.3 3.8 4.8l.7-.5c1.7-1.6 2.8-3.9 3.6-6.1 1.4-3.5 2.3-7.6 2-11.4-.2-2.9-1.6-5.8-2.3-8.7l-1.5-7.3c-.7-4.1-1.1-8.2-1.4-12.3-.9-11.4-.6-23 .3-34.4 1.1-13.7 3.3-27.3 6-40.7 3.4-16.8 8-33.3 13.7-49.5l1.4-3.9c2-5.5 4.6-11.1 4.6-17.1 0-1.8-.1-4.7-2.3-5.1-2.9.7-4.4 4.4-5.3 6.9l-1.4 3.9-1.6 4.3c-6.1 16.5-10.8 33.4-15 50.5-3.3 13.8-5.9 27.9-7.7 42.1-.7 5.4-1.3 10.8-1.7 16.3l-.3 3.6-.3 4.2-1.5 3.8-1 2.5-1.5 3.8c-2.6 7-5 14.1-7.1 21.3-5.4 17.9-9.6 36.2-12.3 54.7-1.7 11.6-2.8 23.3-3.1 35v1.3l-.1 4.1.1 1.5c.1 1.2.5 3.6 2.2 3.6.9 0 1.7-.7 2.2-1.3 1-1.1 1.7-2.4 2.3-3.7 1.6-3.2 2.5-6.8 2.8-10.4.3-3.3.1-6.6.2-9.8.9-21.5 4.9-43.1 10.7-63.8 1.6-6.3 3.6-12.4 5.6-18.5zm5.4 37.3c1-1.3 1.7-2.8 2.2-4.3 1.4-3.8 2.6-8.5 1.8-12.6-.5-2.5-1.6-5.1-2.2-7.6l-1.5-7.4c-1.5-8.7-1.9-17.6-1.9-26.3 0-12.8 1.2-25.5 2.9-38.2 2.3-16.8 5.9-33.5 10.6-49.9 2.5-8.9 5.3-17.7 8.5-26.4 2.1-5.6 4.9-11.6 4.6-17.8M1281.4 1034c-.4 1.8-.8 3.5-.9 5.3l-.1 1.7.1 1.5c.1 1.4.8 4.3 2.8 3.5l.7-.4.8-.7.8-1c2.6-3.7 4-8.6 4.3-13.1l.1-1.6c0-1.8-.1-4.6-2.2-5.1-1.4.3-2.3 1.2-3.1 2.3-1.6 2.1-2.5 4.8-3.3 7.6zm2.9-7.1c.1 2.6-.3 5.2-1 7.7-.6 2.4-1.6 4.9-2.9 7m-32.1-39.3c-2 6.1-4 12.2-5.7 18.4-4.2 15.2-7.4 30.8-9.3 46.5-.7 5.7-1.2 11.5-1.4 17.3-.1 3.3 0 6.6-.3 9.8-.3 4.3-1.6 8.8-3.9 12.4m32.8-250.7c.1-.8.3-2.5-.8-2.6-1.6.6-2.1 3.1-2.4 4.6m-1149.8-487.1c-1.5-.3-.8-.2-2.3-.3-1.5.2-2.4.6-3.4 1.7m8.7-5.2c-1.9 2.6-2.7 5.7-3 8.9m41.1 180.6c.1-.8.3-2.5-.8-2.6-1.6.6-2.1 3.1-2.5 4.6M152.4 366.8l.2 1.1c.8 2.3 3.2 3.7 5.3 4.5 3.5 1.4 7.5 1.5 11.1.8 2.1-.4 4.4-1.3 6.1-2.7.7-.6 1.3-1.3 1.7-2.1l.4-1.1c.7-3.4-2.7-5.8-5.4-6.8l-1.7-.5c-1.9-.5-3.7-.6-5.7-.6l-1.9.1-1.9.3c-3.1.6-7.4 2.4-8.1 5.9l-.1 1.1zm.8 2.3c1.3-2 3.5-3.1 5.7-3.8 5.7-1.8 13.7-1.2 17.6 3.8M206.8 299.5l.2 1.1c.8 2.3 3.2 3.7 5.3 4.6 3.5 1.3 7.5 1.5 11.1.8 2.1-.4 4.4-1.3 6.1-2.7.7-.6 1.3-1.3 1.7-2.1l.4-1.1c.7-3.4-2.7-5.8-5.5-6.8l-1.7-.6c-1.9-.5-3.8-.6-5.7-.6l-1.9.1-1.9.3c-3.2.7-7.4 2.4-8.1 5.9.1-.1.1-.1 0 1.1zm.8 2.2c1.3-1.9 3.5-3.1 5.7-3.8 5.7-1.8 13.6-1.2 17.6 3.7M215.7 341.3c.7-2.5 2.9-3.8 5.4-4.4 3.7-1.1 8.5-.7 11.5 1.8.6.4 1.1 1 1.4 1.7 1.6 3.3-2.5 5.6-5.1 6.3-1.6.4-3.1.5-4.7.5-2.9-.3-6.8-1-8.3-4-.3-.9-.2-1.1-.2-1.9zm1.1 2.9c3-3 8.2-3.4 12.2-2.3 1.6.4 3 1.2 4.2 2.3M225.5 390.8c-1.6-.5-3.2-1.1-4.6-2.1-.7-.5-1.4-1.2-1.9-2l-.5-1.1c-.9-2.7 1-5 3.1-6.3 3.1-1.9 7-2.5 10.6-2.2l1.9.2 1.8.4 1.7.5c2.7 1.1 6.1 3.4 5.4 6.8l-.4 1.1c-.4.8-1 1.5-1.7 2.1-.8.7-1.7 1.2-2.7 1.7-2.3 1-4.7 1.3-7.2 1.5-1.8 0-3.6-.2-5.5-.6zm-6.4-4c1.3-2 3.5-3.1 5.7-3.8 5.7-1.8 13.7-1.2 17.6 3.7M272.6 317.2l.2 1.2c.8 2.3 3.2 3.7 5.3 4.5 3.5 1.3 7.5 1.5 11.2.8 2.1-.4 4.4-1.3 6.1-2.7.7-.6 1.3-1.3 1.7-2.1l.4-1.1c.7-3.4-2.7-5.8-5.5-6.8l-1.7-.6c-1.9-.5-3.8-.6-5.7-.7l-1.9.1-1.9.3c-3.1.6-7.4 2.3-8.1 5.9l-.1 1.2zm.9 2.3c1.3-2 3.5-3.1 5.7-3.8 5.7-1.8 13.6-1.2 17.6 3.8M321.4 396.8c-1.6-.5-3.2-1.1-4.6-2.1-.7-.5-1.4-1.2-1.9-1.9l-.5-1.1c-.9-2.6 1-5 3.1-6.3 3.1-1.9 7-2.5 10.5-2.2l1.9.3 1.8.4 1.7.5c2.7 1.1 6.1 3.4 5.4 6.8l-.4 1.1c-.4.8-1 1.5-1.7 2.1-.8.6-1.7 1.2-2.7 1.6-2.3 1.1-4.7 1.4-7.2 1.5-1.7-.1-3.5-.3-5.4-.7zm-6.4-4c1.3-2 3.5-3.1 5.6-3.8 5.7-1.8 13.7-1.2 17.6 3.8M586.5 444.9c-1.9-.9-4.4-2.4-4-4.9l.3-.9.6-.9c.5-.6 1.2-1.1 1.9-1.5 2.6-1.5 6-1.9 9-1.4l1.5.3c2.6.7 6.7 3 5.1 6.3-.3.7-.8 1.3-1.4 1.7-2.3 1.9-5.5 2.3-8.4 2.3-1.7-.2-3-.5-4.6-1zm-2.8-1.8c3-3.1 8.2-3.4 12.1-2.3 1.6.4 3.1 1.1 4.2 2.3M692.8 475.8c-1.3-.6-1.8-.7-2.9-1.6-.8-.6-1.5-1.2-2-2l-.5-1.1c-1-2.8 1-5.2 3.3-6.6 3.2-2 7.3-2.6 11-2.3l2 .2 1.9.4 1.8.6c2.8 1.1 6.4 3.6 5.7 7.1l-.4 1.1c-.4.9-1 1.5-1.8 2.2-.9.7-1.8 1.3-2.8 1.7-2.4 1.1-4.9 1.4-7.5 1.6-2.8-.1-5.2-.4-7.8-1.3zm19.4-3.7c-.8-1-.8-1.2-1.9-2-3.1-2.3-6.9-2.8-10.6-2.9-4.2.3-9.3 1.1-11.8 5M802.9 503.2c-1.9-.9-4.4-2.4-4-4.9l.2-.9.6-.9c.5-.6 1.2-1.1 1.9-1.6 2.7-1.5 6-1.9 9-1.4l1.5.3c2.6.7 6.7 3 5.1 6.3-.3.7-.8 1.2-1.4 1.7-2.4 1.9-5.5 2.3-8.4 2.3-1.6-.2-2.9-.4-4.5-.9zm-2.9-1.9c3-3 8.2-3.4 12.2-2.3 1.6.4 3 1.1 4.2 2.3M1061.8 551.5c-.4-.9-.7-1.2-.8-2.2-.2-3.5 3.6-5.7 6.5-6.6 4.5-1.5 10.1-1.3 14.4 1 .9.5 1.7 1.1 2.4 1.8.6.6 1.1 1.3 1.4 2.1 1.4 4-3.1 6.7-6.2 7.7-1.8.6-3.7.7-5.6.9-3.5-.1-7.2-.6-10.2-2.7-1.1-.8-1.1-1-1.9-2zm0 .1c.8-1.3.3-.3.3-3.1v-2.6m23 5.6c-2.9-3.7-7.6-4.5-12-4.7-3 .2-6.1.6-8.7 2.3-1.2.7-1.3.9-2.2 1.9M1108.1 628.3c-1.3-.6-1.7-.7-2.9-1.5-.7-.5-1.4-1.2-1.9-2l-.5-1.1c-.9-2.7 1-5 3.1-6.3 3.1-1.9 7-2.5 10.6-2.2l1.9.2 1.8.4 1.7.6c2.7 1 6.1 3.4 5.5 6.8l-.4 1.1c-.4.8-1 1.5-1.7 2.1-.8.7-1.7 1.2-2.7 1.7-2.3 1-4.7 1.3-7.2 1.5-2.5-.1-4.8-.5-7.3-1.3zm-4.7-3.4c1.3-1.9 3.5-3.1 5.7-3.8 5.7-1.8 13.6-1.2 17.6 3.7M1157 555.2c.1-1 0-1.2.4-2.2 1.2-2.3 3.7-3.6 6-4.4 4.9-1.5 11.4-1.3 15.7 1.9.7.6 1.4 1.2 1.9 1.9l.6 1.1c1.4 4-3.1 6.7-6.2 7.7-1.8.6-3.7.8-5.6.9-3.1 0-6.1-.4-8.9-1.9-1.6-.8-3.2-2.1-3.8-3.9.1.1.1.1-.1-1.1zm.8 2.3c.8-1.2.3-.3.3-3.1v-2.5m0 5.1c3.8-3.8 9.6-4.7 14.8-3.9 3.2.6 6.1 1.8 8.1 4.4M1165.8 597.1c0 .9-.1 1.1.3 1.9.7 1.5 2.2 2.4 3.7 3 3.7 1.5 8.5 1.4 11.9-.6.6-.4 1.4-.9 1.9-1.5l.6-.9c1.3-2.7-1.5-4.9-3.7-5.8-1.5-.6-3-.8-4.6-.9-2.5 0-5.1.3-7.4 1.6-1 .6-1.9 1.4-2.5 2.4.1-.2.1-.2-.2.8zm1.1 2.9c3-3 8.2-3.4 12.1-2.3 1.6.4 3.1 1.1 4.2 2.3M1173.9 646c-1.3-.6-1.7-.7-2.8-1.5-.7-.6-1.4-1.2-1.9-1.9l-.5-1.1c-.9-2.7 1-5 3.1-6.3 3.1-1.9 7-2.5 10.6-2.2l1.9.2 1.8.4 1.7.6c2.7 1 6.1 3.4 5.5 6.8l-.4 1.1c-.4.8-1 1.5-1.7 2.1-.8.7-1.7 1.2-2.7 1.6-2.3 1-4.7 1.3-7.2 1.5-2.6-.1-4.9-.5-7.4-1.3zm-4.7-3.4c1.3-2 3.5-3.1 5.7-3.8 5.7-1.8 13.6-1.2 17.5 3.8M1222.8 573c0-1.1 0-1.3.4-2.2 1.2-2.3 3.7-3.6 6-4.4 4.9-1.6 11.4-1.3 15.7 1.9.7.5 1.4 1.2 1.9 1.9l.6 1.1c1.4 4-3.1 6.7-6.2 7.7-1.8.6-3.6.7-5.5.9-3.1-.1-6.1-.4-8.9-1.9-1.6-.8-3.2-2.1-3.8-3.8 0-.1 0-.1-.2-1.2zm.8 2.3c.8-1.3.3-.3.3-3.1v-2.6m0 5.1c3.8-3.8 9.6-4.7 14.8-3.8 3.2.5 6.1 1.7 8.1 4.3m-1098.2-18.6c-.2 1.4-.5 2.7-1.2 4-.4.6-.7 1.2-1.4 1.5-1.1-.1-1-1.9-.9-2.6l.1-.8m1112.1 299.2c-.1.6-.2 1-.2 1.6s.2 2.3 1.2 1.7l.4-.3.4-.5c.9-1.3 1.3-2.9 1.5-4.5"/>
    <path class="st2" d="M100 1130.1l7.9-7.9"/>
    <path class="st0" d="M100 1130.1"/>
</svg>
