<svg xmlns="http://www.w3.org/2000/svg" xmlns:xlink="http://www.w3.org/1999/xlink"
    viewBox="0 0 1200 1200" enable-background="new 0 0 1200 1200">
    <style type="text/css">.st0{fill:none;} .st1{fill:none;stroke:#000000;stroke-linecap:round;stroke-linejoin:round;stroke-miterlimit:10;stroke-width:4;} .st2{fill:none;stroke:#000000;stroke-linecap:round;stroke-width:4;} .st3{clip-path:url(#SVGID_2_);} .st4{fill:none;stroke:#FFFFFF;stroke-miterlimit:10;}</style>
    <path class="st0" d="M819.8 0h-439.6v1200h439.6v-1200z"/>
    <path class="st1"
        d="M753 162.8l.3 5.8.6 4.7 1.3 4.2 1.6 3 2 2.3 2.3 1h2.6l2.8-1.1 3-2.3 3-3 3-4.2 3.1-4.9 2.8-5.4 2.6-6.3 2.4-6.5 2-7 1.6-6.9 1.2-7.1.7-6.4.3-6.4-.3-5.5-.7-4.8-1.2-4.1-1.5-3.3-2-2.1-2.4-.9-2.6-.1-2.7 1.1-3.1 2.3-3 3.1-3.1 4.1-3 5-2.8 5.3-2.6 6.3-2.3 6.6-2 6.8-1.7 7-1.2 7.1-.7 6.4zM602.6 730.7l.2 5.5.7 5.1 1.1 3.9 1.6 3.1 2.1 2.1 2.1 1.4 2.7-.2 2.9-1 3.1-2.3 3-3.1 3-4.1 3.1-5 2.7-5.6 2.6-6 2.4-6.9 1.9-6.7 1.7-7 1.2-6.9.7-6.6.1-6.1-.1-5.7-.7-5-1.2-3.9-1.6-3-2-2.3-2.2-1.2-2.7.1-2.7 1-3.1 2.3-3 3-3.1 4.1-3 5-2.9 5.8-2.6 6-2.2 6.7-2.1 6.9-1.7 7-1.1 6.7-.7 6.7zM488.4 866l.2 5.6.7 5 1.3 3.9 1.4 3.2 2.2 2.1 2.3 1.2 2.6-.2 2.8-.9 3-2.2 3-3.1 3.1-4.1 3-4.9 2.8-5.7 2.6-6.1 2.4-6.8 2-7 1.5-6.8 1.3-6.7.7-6.8.3-6.1-.3-5.5-.6-5.1-1.3-3.8-1.5-3.3-2-2.1-2.4-1.2-2.7.2-2.7.9-3 2.2-3.1 3.1-3 4.1-3 5-2.8 5.6-2.6 6.1-2.4 6.8-2 6.9-1.6 6.9-1.3 6.8-.7 6.7zM603.1 340.6l.3 5.8.6 4.7 1.2 4.4 1.6 3.1 2 2 2.3 1.1 2.6.1 2.9-1.3 3-2.2 3.1-3.1 3-4.2 3-4.9 2.8-5.4 2.6-6.3 2.4-6.5 1.9-6.9 1.7-7 1.2-7 .8-6.5.1-6.3-.1-5.6-.7-4.8-1.2-4.2-1.7-3-1.9-2.2-2.4-1-2.6-.1-2.8 1.1-3 2.3-3 3.1-3.1 4.2-3 4.8-2.9 5.7-2.7 6.2-2.1 6.4-2.1 7-1.7 7-1.1 6.9-.7 6.4zM488.9 476l.3 5.8.7 4.8 1.2 4.1 1.6 3.2 2 2.1 2.4.9 2.6.2 2.7-1.2 3-2.3 3.1-3 3-4.2 3.1-4.9 2.7-5.4 2.7-6.3 2.3-6.5 2.1-7 1.6-6.8 1.2-7.2.7-6.3.3-6.5-.3-5.5-.7-4.8-1.2-4.1-1.5-3.2-2.1-2.1-2.4-1-2.5-.1-2.8 1.1-3 2.4-3.1 3-3 4.1-3.1 5-2.7 5.4-2.6 6.3-2.4 6.5-2.1 7-1.5 6.9-1.2 7-.7 6.4zM752.7 357.9l.3 5.6.6 5.1 1.3 3.8 1.6 3.1 2 2.2 2.3 1h2.7l2.7-.9 3-2.2 3-3.4 3.1-3.9 3-4.8 2.8-5.7 2.6-6.4 2.4-6.5 2-6.9 1.5-6.9 1.3-6.8.7-6.6.3-6.3-.2-5.5-.7-5-1.2-4.1-1.6-3.3-2.1-1.8-2.3-1.2-2.6-.1-2.8 1.1-3 2.4-3.1 3-3 4.1-3 5-2.8 5.4-2.6 6.3-2.4 6.7-1.9 6.6-1.7 7-1.2 7.1-.7 6.7zM752.4 552.8l.3 5.5.7 5.1 1.2 3.9 1.7 3.1 1.9 2.2 2.3 1.2 2.6-.1 2.8-1 3-2.2 3.1-3.1 3-4.2 3.1-4.9 2.7-5.6 2.6-6.1 2.4-6.8 2.1-6.9 1.4-6.9 1.3-6.8.8-6.7.2-6.2-.2-5.5-.7-5-1.2-3.9-1.5-3.2-2.2-2.1-2.3-1.2-2.6.2-2.8.8-3 2.3-3.1 3.1-3 4.1-3 5-2.8 5.7-2.6 6-2.4 6.7-1.9 6.9-1.7 7-1.2 6.8-.7 6.7zM752.2 747.8l.2 5.5.7 5 1.2 4.1 1.6 3.1 2 2 2.4 1.2 2.5.1 2.8-1.1 3.1-2.3 3-3.1 3-4.2 3-4.9 2.8-5.4 2.6-6.3 2.4-6.7 2.1-6.8 1.5-6.8 1.2-7.1.8-6.7.3-6.1-.3-5.6-.7-5-1.2-3.9-1.6-3.3-2.1-2-2.2-.9-2.7-.2-2.7.9-3.1 2.3-3.1 3.3-2.9 3.9-3.1 5-2.7 5.6-2.7 6.3-2.3 6.6-2 6.7-1.6 7-1.3 6.9-.7 6.6zM651.1 867.6l.3 5.5.7 5.1 1.2 4.1 1.5 3.2 2.1 1.8 2.3 1.2 2.6.1 2.7-1.2 3.1-2.2 3.1-3.1 3-4.1 3-4.9 2.7-5.4 2.7-6.3 2.3-6.8 2.1-6.7 1.6-6.9 1.2-7.1.7-6.6.3-6.2-.3-5.6-.7-5-1.2-3.8-1.5-3.3-2.1-2.1-2.3-.9-2.6-.1-2.8.9-3.1 2.3-2.9 3.3-3 3.8-3.1 5-2.8 5.7-2.6 6.3-2.4 6.5-2 7-1.6 6.8-1.2 6.8-.7 6.7zM550.1 987.4l.2 5.6.7 5 1.2 4.1 1.6 3.3 2 1.8 2.3 1.2 2.7.1 2.7-1.1 3.1-2.3 3-3.1 3.1-4.2 3-4.9 2.8-5.4 2.6-6.2 2.3-6.9 2.1-6.6 1.5-6.9 1.3-7.1.7-6.6.2-6.3-.2-5.5-.7-5-1.2-3.9-1.5-3.2-2.1-2.1-2.3-.9-2.7-.1-2.7.8-3 2.4-3 3.3-3.1 3.8-3.1 5-2.7 5.6-2.7 6.3-2.3 6.5-2 7-1.6 6.9-1.2 6.8-.7 6.7zM449.1 1107.3l.2 5.5.6 5 1.2 4.3 1.6 3.2 2.1 1.7 2.2 1.4 2.6.1 2.9-1.3 3.1-2.3 3-3.1 3-4.1 3-4.9 2.8-5.4 2.6-6.3 2.4-6.8 1.9-6.6 1.7-7 1.1-6.8.9-6.9.1-6-.1-5.8-.8-4.8-1.2-4-1.6-3.1-2-2.3-2.3-.9-2.6-.1-2.7.9-3.1 2.3-3 3.3-3.1 3.8-2.9 5-3 5.8-2.6 6.4-2.2 6.3-2.1 7-1.7 7-1.1 6.6-.6 6.7zM456.6 414.3l-4.3 5.5-4.2 6.6-4 7.4-3.9 8.1-3.5 8.7-3.3 9.4-2.7 9.3-2.4 9.8-1.9 9.5-1.4 9.6-.8 9-.4 8.6M456.6 414.3l329.2-390.7M818.3 47.8l-.3-7.9-.8-7-1.4-6.4-1.9-4.8-2.3-4.2-2.7-2.9-3.3-1.6-3.5-.5-3.8 1.2-4.1 2.1-4.2 3.4-4.2 4.4M818.3 47.8l-.9 647.7M784.7 797.1l4.1-5.5 4.3-6.6 4.1-7.5 3.8-8.3 3.5-8.6 3.2-9.3 2.9-9.4 2.3-9.7 2-9.7 1.4-9.4.8-8.9.3-8.7M784.7 797.1l-329.3 390.6M422.9 1163.5l.2 7.9.9 7 1.3 6.2 2 5.1 2.3 4.2 2.8 2.8 3.2 1.6 3.5.2 3.9-.8 4-2.1 4.1-3.3 4.3-4.6M422.9 1163.5l.9-647.7M415.3 403.2l-4.3 5.7-4.1 6.4-4 7.4-3.9 8.1-3.6 8.8-3.2 9.3-2.7 9.5-2.4 9.6-1.9 9.5-1.4 9.6-.9 9-.3 8.6M415.3 403.2l329.3-390.6M777.1 36.8v-2.6M764.3 1.9l-3.4-.4-3.9 1.1-4 2.1-4.3 3.5-4.1 4.4M381.7 1152.5l.3 7.9.8 7 1.3 6.1 2 5.1 2.3 4.2 2.7 2.9 3.2 1.5M381.7 1152.5l.9-647.8"/>
    <path class="st2" d="M764.3 1.9l41.3 11.1M435.6 1198.3l-41.3-11.1"/>
    <defs>
        <path id="SVGID_1_" d="M380.2 1200z"/>
    </defs>
    <clipPath id="SVGID_2_">
        <use xlink:href="#SVGID_1_" overflow="visible"/>
    </clipPath>
    <path class="st4" d="M380.2 1200l14.9-14.9"/>
    <path class="st0" d="M380.2 1200z"/>
</svg>
