<?xml version="1.0" encoding="utf-8"?>
<!-- Generator: Adobe Illustrator 21.1.0, SVG Export Plug-In . SVG Version: 6.00 Build 0)  -->
<svg version="1.1" id="Ebene_1" xmlns="http://www.w3.org/2000/svg" xmlns:xlink="http://www.w3.org/1999/xlink" x="0px" y="0px"
	 viewBox="0 0 1400 1400" style="enable-background:new 0 0 1400 1400;" xml:space="preserve">
<style type="text/css">
	.st0{fill:none;}
	.st1{fill:none;stroke:#000000;stroke-linecap:round;stroke-linejoin:round;stroke-width:2.5;}
	.st2{fill:none;stroke:#FFFFFF;stroke-miterlimit:10;}
</style>
<path class="st0" d="M1192.6,100H207.4v1200h985.3L1192.6,100z"/>
<path class="st1" d="M217.8,1050.9l-9-2.4 M220.5,1030.6l-8.5-2.2 M220.8,1014.8l3,0.8 M220.8,1014.8l-2.3,3.7l-4.1,6.3l-2.4,3.6
	l-0.7,4.2l-1.8,11.6l-0.7,4.3l5.6,6.5l2.9,0.8 M299.3,1045.7l1.5,0.4l0.5,0.2l0.8,0.9c0.5,1.1,1.1,2.1,1.3,3.3
	c0.2,1.4,0.1,2.9-0.1,4.3c-0.4,2.9-1.3,5.7-2.7,8.2c-0.6,0.9-1.3,1.9-2.2,2.6c-1.1,0.7-1.6,1.3-2.8,1.4l-1.6-0.4 M295.5,1067
	c-1.9-0.7-2-3.2-2-4.9l0.1-1.3c0.2-4,1.4-8.3,3.6-11.8c0.8-1.3,1.9-2.9,3.6-2.9 M298.3,1065.6c-0.7,0.3-0.3,0.2-1,0.2
	c-1.7-0.6-1.7-2.9-1.6-4.4c0.1-3.6,1.1-7.4,2.9-10.6l0.5-0.8c0.6-0.8,1.8-2.5,3.1-1.9l0.7,0.8 M293.5,1066.2c1.8,0.5,0.7,0.4,3-0.8
	 M291.1,1093.9l25.9-28.6 M302.9,1065.4l7.2-8 M291.1,1085.6l17.8-19.6 M305.4,1062.7l0.7,4.2 M293,1076.3l-8.8,9.8 M283.4,1073.8
	l-5.7,9.9 M291.3,1123.8l5.2,2.5 M306.7,1095.2l4,2 M295.8,1088.7l-3.4-1.7 M289.4,1083.6l-0.5-2.7 M285,1090.3l-0.8-4.2
	 M285.9,1091.4l5.2,2.5 M277.7,1083.7l-5.8-1.6 M272.6,1052.7l-5.9-1.6 M278.8,1053.8l-0.7-4.3 M284.1,1051.8l-5.2-2.6
	 M284.1,1051.8l4.7-5.3 M270.4,1044.8l5.9-10.5 M278.6,1019.4l-5.2-2.5 M292.5,1010.9l4.1,1.9 M281.7,1011l-5.2-2.5 M294.8,988.2
	l5.2,2.5 M307.1,1068l5.2,2.5 M277.3,1040.1l-1.5,2.6l-1.4,0.7c-1.4,0.6-3,0.8-4.3,1.5c-1.7,0.9-2.4,3.1-3.2,4.5l-0.2,1.2l0.1,0.6
	l0.7,4.3l3.7,22.4c0.2,1.3,0.4,4,1.2,5.6c1.3,2.7,4.4,4.6,7.2,5.4l2.7,0.7c1,0.3,2.5,0.3,3.4,1.3l0.3,0.6l0.7,4.2l4,23.9l0.7,4.2
	l0.1,0.6c0.5,1.4,2.2,1.7,3.4,2.2c0.7,0.4,2.5,1.7,3.8,1.4c1-0.2,1.8-1,2.4-1.7l2.9-3.2l12.5-13.9c2.7-3,6.3-6.5,6-11l-0.1-0.5
	l-0.7-4.2l-4-23.9l-0.7-4.3l-0.1-0.6c-0.7-2.4-2.5-4.2-4.3-5.7c-0.7-0.6-1.6-1.2-2.4-1.6l-4.2-1.1 M290.2,1084.5l2.9-3.2l10.2-11.2
	l2.9-3.1c0.5-0.6,1.3-1.5,2.1-1.6 M309.9,1023.1l-2.9,3.2l-15.4,17l-2.9,3.2c-0.7,0.8-1,2-1.5,3c-0.5,1.1-1.3,1.7-2,2.6
	c-1.2,1.3-1.7,2.3-3.5,2.5c-1-0.1-1.8-0.5-2.9-0.8l-2.7-0.7l-2.7-0.7l-0.3-0.1l-0.5,0.5l0.7,4.3l3.8,22.4l0.7,4.3l0.3,0.4
	c0.7,0.9,3,1.1,3.5,1.3l2.7,0.7l1.6,0.9c1.8,1.2,3.4,2.9,4.4,4.8c1.1,2,1.1,4.2,1.6,6.4l4,23.9c0.2,1.1,0.2,4.6,1.6,5.7"/>
<path class="st1" d="M303.4,1111.4c-0.8,0.2-0.4,0.1-1.2,0.2c-2.3-0.5-2.4-3.2-2.2-5.1c0.5-3.2,2-6.4,4.1-8.9c0.9-1.1,2-2.2,3.3-2.7
	c0.4-0.1,0.8-0.2,1.2-0.2c2.4,0.1,2.4,3.4,2.2,5.1c-0.4,2.9-1.7,5.7-3.4,8.1C306.3,1109.4,305,1110.6,303.4,1111.4L303.4,1111.4z
	 M299.9,1107.8c1.1-0.9,2-2,2.8-3.3c1.7-2.5,2.9-5.5,2.9-8.6 M288.7,1082c0,1.1,1,1.9,1.6,2.7c0.7,0.9,1.5,1.8,2.3,2.7
	c0.9,1,1.8,2,3.1,1.2 M288.7,1082.3c0-0.5,0.1-1,0.2-1.4 M279.5,1088.9l-0.6-4.2l2.1-3.8l1.7-3l2.1-3.7 M280.8,1078.3
	c-0.3,0.6-0.9,1.5-0.9,2.2c-0.1,1.3,1.2-0.1,1.4-0.4l0.6-0.9"/>
<path class="st1" d="M296.4,1012.1c1,4.2-1.2,9.1-3.9,12.3c-1.2,1.4-2.7,2.8-4.5,2.8c-2-0.4-2.3-2.4-2.2-4.1
	c0.2-3.8,2.1-7.9,4.8-10.6c1.1-1.2,3.8-3.2,5.3-1.4C296.2,1011.4,296.2,1011.6,296.4,1012.1L296.4,1012.1z M309.2,1025.5
	c1.7-1.6,0.3-5,0-6.7l-4-23.9l-0.8-4.2l-0.1-0.6l-0.8-1l-2.5-1.3c-0.9-0.4-2.2-1.3-3.4-1.5c-1.2,0.2-2,0.9-2.9,1.7l-2.9,3.2
	l-12.4,13.8c-2.8,3.1-6.3,6.6-6,11v0.7l0.7,4.2l4,23.9l0.7,4.2l-0.3,0.4l-0.4-0.1l-2.7-0.7c-1.8-0.5-3.4-1-5.3-1.1
	c-1.3,0.2-2.5,0.4-3.2,1.7 M275.8,1042.7l-3.1,5.4l0.7,4.2 M303.6,989.2c-0.5-0.2-0.2-0.2-0.7-0.2c-1.3,0.1-2.1,0.8-2.9,1.7
	l-2.9,3.3l-12.5,13.8c-2.8,3.1-6.2,6.5-6,11l0.1,0.6l0.7,4.2l4,23.9c0.2,1.6,1.4,4.6,0.3,6.4 M287.3,1022c-0.2-0.7-0.4-1.1-1.1-1.5
	 M291.5,1011.6c0,3-1.3,6-2.9,8.5c-0.8,1.2-1.8,2.4-2.9,3.4 M287.5,1016.9c1-0.1,1.8,0,2.7,0.3 M304.2,1029.3c0.7,0,1.6-0.2,2.1-0.7
	l1.5-1.8l1.6-1.8 M306.6,1028.1l-0.4-0.2l-1,0.4 M306.6,1028.1l-0.2,0.5 M307.1,1068c0.6-0.6,1.3-1.3,1.5-2.1 M313,1066.7l-4.1-0.7
	h-0.4 M305.4,1062.7c3.4-1.9,7.6,1.4,7.8,5c0.1,1.1-0.4,2-0.9,2.8 M223.3,1044l177.5-810.1 M434.9,243.1l-177.2,809 M424.2,240.2
	l-177.4,810.1 M245,208.9l-23.5-6.3 M221.9,205.1l0.1-0.3 M221.8,204.8l23.4,6.3 M256.4,195v11 M960.3,360L222.7,161.4 M217.5,155.4
	l5.7,1.6 M217.5,154.5l5.8,1.6 M966.9,426.1l0.3-0.4 M972.8,357.8l38.2-47 M967,357.3l5.8,1.5 M972.8,357.8l-5.8-1.5 M940.4,372.6
	l0.3,0.1 M961.4,401.7l-23.5-6.3 M938.2,398l0.2-0.3 M961.6,403.9l-23.5-6.3 M978.1,421.2l-5.2-21.4 M972,399.6l0.9,0.2
	 M961.6,404.3l1.4-2.8 M961.6,403.9l1.1-2.4 M961.7,401.3l-0.3,0.4 M968.1,426l-0.5,1.4 M968.3,426l-0.5,1.7 M954.1,431.9l-9.9-10.7
	 M966.9,426.1l-23.4-6.3 M1010.5,339.5l0.6,0.1 M1117.2,426.2l0.1-3 M1190.3,353.3l-13.1-28 M1140.7,432.7l-177.6,810.5
	 M1117.2,426.4l-177.5,810.5 M1140.7,424.7v7.8 M1146.1,432.9l5.5,1.5 M1150.1,431.7l2,0.6 M1150.5,431.5l1.6,0.4 M1140.7,424.7
	l-1.9-4 M1151.3,420l0.8,0.3 M1151.1,420.3l1,0.2 M1152.1,422.3l-2-0.6 M1149.6,414.9l-1.5-0.4 M1010.3,1226.6l180-821.6
	 M978.8,438.4l-0.1,0.4 M978.9,438.8l0.1-0.4 M255.7,206.7l0.8,0.2 M261.7,228.3l-5.2-21.4 M246.4,208.6l-1.2,2.5 M246.7,208.7
	l-1.4,2.7 M245,208.9l0.4-0.5 M250.8,232.9l-0.2,0.4 M227.2,227l23.4,6.3 M251.4,234.8l0.6-1.7 M251.3,234.6l0.4-1.5 M251.3,234.6
	l-23.5-6.3 M262.6,245.8l0.1-0.2 M262.4,245.6v0.3 M625.5,229.8l-19.3-5.1 M625.5,226.7l-13.1-3.5 M619.9,223.9v-5.3 M910.4,306.5
	l16.1,4.3 M921.8,306.1v-5.2 M305.4,143.6l16.1,4.4 M316.8,143.2V138 M431.3,115.7l-78.2,9 M460.7,132.4l-55.3,6.4 M460.8,132.4
	l11.4,24.4 M465.3,251.3L303.7,989.2 M465.8,251.4L304.1,989.7 M258.4,1052l-1.4,0.1c-4.9-0.2-9.7-1.6-14.4-2.9l-15.1-4
	c-2.5-0.7-5.2-1.3-7.6-2.2c-0.4-0.2-1-0.4-1.4-0.7l-0.4-0.5l0.9-4.2l175.5-801l0.9-4.2 M222.7,160.7c-2,2.5-1.1,0.7-1.1,5.6l-0.1,32
	v4.3l0.1,1.1l0.2,1l1,4.1l3.4,13.9c0.1,0.4,0.6,4.4,1.6,5.6l2.9,3.1l4.3,4.6l2.9,3.1l0.4,0.3l4.2,1.1l15.1,4
	c2.3,0.7,5.2,1.6,7.7,1.4l4.3-0.6l117.6-13.6l4.3-0.5 M237.2,1059l-0.9-0.1c-2.2-0.6-2.7-4-2.9-5.9l-0.1-2.2l0.1-2.3l0.2-1.7
	 M219.2,1042.7c-1.6,7.7-2.6,15.6-2.1,23.5c0.2,4,0.9,8.4,3,11.9c0.7,1.1,1.6,2.1,2.8,2.8l1.7,0.5l2.9,0.8c1.9,0.5,2.9,1.1,4.7,0.7
	c3.4-0.6,6.2-3.4,8.3-5.8c3.6-4.4,6.5-9.5,8.7-14.7 M268.9,1046c0.9-2.9,2-5.7,3.6-8.3c1-1.6,2.1-3.4,3.7-4.4 M273.9,1085.6
	c-2,2.6-5,5.6-8.5,6.2l-1.8,0.1l-1.7-0.6c-1.2-0.6-2.1-1.7-2.9-2.9c-1.5-2.4-2.2-5.4-2.6-8.2c-1.4-9.4,0.1-19,1.9-28.3
	 M252.4,1051.6c-1.8,8.9-3.1,18.2-1.7,27.2c0.5,3.4,1.4,7.5,4,9.9c1.2,1.2,1.6,1.2,3.2,1.6l5.7,1.6 M267.1,1053.3
	c-0.7,3.8-1.1,8.3,0.2,12c0.4,0.9,1.1,2.5,2.3,2.5 M230.5,1082.9l-1.7-0.5c-1.2-0.7-2.1-1.7-2.8-2.9c-1.5-2.4-2.2-5.4-2.6-8.2
	c-1.3-8.9-0.1-18.1,1.7-26.8 M376.9,227.5c-34.9,4.1-69.8,8.1-104.6,12.2l-0.4-0.1 M273.9,199.8l-1.7,4l-8.8,20.6l-1.7,4
	c-1.5,3.1-5.1,4.5-8.4,4.8c-1.9,0-0.9,0-2.8-0.3 M222.9,223.7c0.7,2.3,3,4.2,4.5,5.8l4,4.3c1.4,1.5,3.1,3.8,5.1,4.8l1.3,0.5
	 M245.8,188.5l-0.8,1V210l0.2,1l1,4.1l3.3,13.9l1.1,4.2l0.2,0.8c0.6,1.2,2.2,1.1,3.4,0.9c3-0.2,5.7-2,7.2-4.7l0.6-1.4l1.8-4
	l8.9-21.1l1.8-4 M245.3,211.4c1.2,0.3,1.6,0.4,2.9,0.3c2.9,0,5.8-1.3,7.6-3.7l0.7-1.1l2.2-3.6l1.9-2.9l2.2-3.7 M226.3,149.8
	c-1.9,2.7-2.9,5.7-3.4,8.9l-0.2,2.7l2.8,3.3l17.8,20.8l2.8,3.3l4.1,1.1l682.5,183.8l4.2,1.1 M933,373.8v11.9c0,2.6-0.7,5.7,1.6,7.5
	l0.9,0.7c0.9,0.6,1.4,0.7,2.5,1 M943.4,419.4c-1.1-0.4-1.5-0.4-2.5-1.2c-2.7-1.8-2.9-5.2-3.6-8.1l-3.1-13.1c-0.2-0.9-1.4-3.9-1-5.5
	 M937.9,376.1c-1.3-0.4-2.7-1-3.7-2 M930.1,373v1.1c0.1,1.2,0.7,3.4,2.4,2.5l0.5-0.4 M937.9,376.1l3.7-2.4l16.2-10.2l3.6-2.3
	l2.7-3.4 M936.9,374.8l3.7-2.3l16.1-10.3l3.6-2.3l2.7-3.4l0.1-0.5l0.2-1l0.4-0.9l0.2-0.4v-5.3 M960.3,360c0.2-4.1,1.3-8.1,3.7-11.5
	 M972.8,398.8v-4.2l0.1-32.4v-4.3l-0.1-1.2c-0.6-3.4-3.3-6.1-6.3-7.4l-1.4-0.5l-4.2-1.1L229.5,150.8c-2.5-0.7-4.4-1.4-6.8-1.5
	c-2.4,0.4-4.5,1.5-5,4l-0.1,2.2l-0.5,0.9l-0.2,0.8v35.7c0,2.6-0.8,5.7,1.5,7.5l1,0.7c0.9,0.6,1.4,0.7,2.4,1.1 M227.1,226.5
	c-1.1-0.3-1.6-0.4-2.5-1.1c-2.7-1.8-2.9-5.3-3.6-8.2l-3.1-13c-0.2-0.9-1.3-3.9-1.1-5.5 M262.4,196.7l-2.4,3.6l-1.3,2
	c-0.9,1.4-1.7,3.3-3.1,4.4c-2.1,1.8-5.1,2.1-7.7,2.1c-2-0.2-1-0.1-2.9-0.4 M931.4,376.8l-4.1-1.1l-669-180.1
	c-2.3-0.6-4.6-0.3-5.2-2.7l-0.2-1v-1.2 M216.7,157.1v0.9c0.3,1.8,2,3,3.6,3.6l1.3,0.4l2.8,3.3l17.8,20.8l2.8,3.3l1.4,0.3
	c1.2,0.2,2.4,0.2,3.5,0.1 M961.4,401.2c3.4,0.7,7.7,0.8,10.7-1.6c1.3-1.1,2.1-2.9,3.1-4.4l33.6-52.9c3.1-4.8,2.3-2.2,2.3-7.9v-24.8
	c-0.6-2.8-2.6-5.3-5.1-6.7c-2-1.2-4.5-1.6-6.8-2.2L268.7,104c-2.6-0.7-5.1-1.6-7.8-1.7c-1.1,0.1-1.4,0.1-2.4,0.6
	c-1.8,0.9-3.4,3.4-4.5,4.7l-32.8,40.5l-2.7,3.3 M263.5,102.5l-2.7,3.4L228,146.4c-3.1,3.8-2.7,1.8-2.7,5.2 M264.5,102.7l0.7-0.7
	c1.6-1.5,4.1,0.1,5.8,0.6l729.3,196.3c2.4,0.7,4.7,0.3,5.3,2.8l0.1,0.9 M1002.2,301.3c0.7-0.7,1.3-1.4,2.3-1.2 M1011,338.7
	c1.3-2.1,0.8-3,0.8-6v-18.3c0-1.8,0.6-5.1-0.8-6.8c-0.5-0.7-0.7-0.8-1.4-1.2 M965,354v-5.3l2.8-3.3l32.7-40.4l2.8-3.4 M1011,311.7
	c0.7-1.1,0.4-0.5,0.8-1.7 M1172.2,315.2l-0.5-0.3l-4.2-1.2l-15.1-4l-4.2-1.1l-0.5-0.1l-4.3,0.4l-127.3,14.9l-4.3,0.5 M1011.1,339.6
	l-2.4,3.7l-33.5,52.8l-2.3,3.7l-0.7,1.1c-1.2,1.6-2.9,2.6-4.7,3.2c-1.3,0.4-1.6,0.3-2.9,0.5c-2-0.1-1,0-2.9-0.3 M961.4,361.2v41.7
	l0.2,1l1,4.2l3.4,13.8c0.1,0.4,0.6,4.4,1.7,5.5l2.9,3.1l4.4,4.7l2.9,3.1l0.4,0.3c0.8,0.3,0.2,0,0.7,0.1l1.4,0.2h1.4l4.3-0.4
	l151.1-17.6c3.4-0.4,6.7-0.3,9.2-3.1l0.9-1.1c0.7-1.1,0.7-1.5,1.1-2.7 M988.2,432.4l0.4,0.1l4.3-0.5l151.8-17.6l4.3-0.5
	 M1152.1,420.3l-3-6.3l1.3-4.1l25.4-80.4c1.1-3.4,3-7.2,1-10.5l-0.9-1.1c-0.7-0.8-0.9-0.9-1.8-1.3 M1149,413.9l1.3-4.2l25.5-80.4
	c0.6-2,1.4-3.6,1.5-5.6c0.1-2.9-1.2-6-3.7-7.7c-1-0.7-1.4-0.7-2.5-1.2l-4.3,0.5l-150.7,17.5l-4.2,0.4 M1011.8,336.5
	c1.7,2.1,2.4,5,1.8,7.7l-1.2,4.2l-22.7,80c-1.1,3.8-1.6,7.8-5.4,9.8c-1.1,0.6-1.4,0.6-2.6,0.8 M967.6,427.4l-4.2-1.1l-15.2-4
	l-4.1-1.1l-0.7-1.3l-1-4.2l-3.4-13.9l-1-4.1l-0.2-1v-20.5l1.4-1.7c2.2-2.8,0.7-1.3,5-4l16.2-10.2l3.6-2.4l1.1,0.1
	c0.7,0,1.2-0.2,1.7-0.7 M1147.6,308.5l-1.3-0.2h-1.4l-4.3,0.4l-124.5,14.5l-4.3,0.5 M967,357.3c0-0.4,0.1-1,0-1.4
	c-0.4-1.4-1.8-1.8-2.9-2.1 M961.4,361.2c4,0.9,8.4,0.7,11.5-2.4 M933.2,392.8l0.2,1.2c0.8,2.2,2.7,3.3,4.7,4 M1013.2,344l-1.2,4.1
	l-22.7,80c-0.5,1.7-0.9,3.8-1.8,5.5c-1.2,2.2-3.3,3.8-5.7,4.5c-1.3,0.4-1.6,0.2-2.9,0.2l-1.4-0.2 M1011.1,339.6
	c0.9,4,0.9,1.8-1.1,6.6l-30.3,71.1l-1.7,3.9c-1.5,3.2-5.1,4.5-8.3,4.9c-2-0.1-1,0-2.9-0.3 M978.2,438.7l-4.1-1.1l-15.1-4l-4.1-1.2
	l-0.7-0.5c-1.5-0.7-1.2-0.2-2.5-1.2l-1-0.9l-3-3.1l-3.9-4.2c-1.4-1.6-3.9-3.6-4.5-5.8 M940.8,419.2c1.2,1,2.1,1.6,3.6,2.1
	 M967.8,427.7c1.2,0.2,1.6,0.3,2.8,0.2c3-0.3,5.7-2.2,7.2-4.8l0.6-1.3l1.8-4l30.2-71.1l1.7-3.9 M1177.1,325.2l-4.3,0.5l-154.9,18
	l-4.3,0.5l-0.4-0.1 M1011.5,342.7c1.1,0.2,0.4,0,1.7,1.3 M1177.4,320.1l1.8,3.8l9.5,20.3c1.3,2.9,3.3,5.9,1.7,9.2l-2.1,3.7l-34,59.5
	l-2.1,3.8 M1151.6,434.4h-0.7c-4.9-0.2-9.7-1.6-14.4-2.8l-15.2-4.1c-2.5-0.7-5.1-1.3-7.6-2.2c-0.6-0.3-1.6-0.5-1.8-1.1
	 M1152.1,430.2c-2.4,2.3-5.4,2.9-8.5,2.9c-2.5-0.2-4.6-0.9-7-1.6l-15.2-4l-4.2-1.1c-1.4-0.4-3.4-1.1-4.2-2.5 M1113.3,424.1l-0.7-0.2
	c-1.8,0.4-0.9,2-1.5,4.5l-175.7,802.2l-0.9,4.2l0.4,0.5c0.4,0.2,0.9,0.5,1.3,0.6c2.5,0.9,5.1,1.6,7.7,2.2l15.1,4
	c3.3,0.9,6.5,1.8,9.9,2.4c2,0.4,4,0.7,6,0.4 M985.8,1260.7l-0.8-0.5c-0.7-0.5-1.1-1.3-1.4-2c-0.6-1.8-0.7-3.8-0.7-5.7
	c0-6.8,1.9-13.9,4.9-19.9c1.2-2.2,2.6-4.7,4.5-6.3c0.8-0.6,2.2-1.5,3.2-0.9 M1010.8,1226.7l0.9-4.2L1190,408.9
	c0.3-1.7,1.9-3.6,0.5-4.7 M1189.9,404.9l0.9-0.1 M1152.1,431.9l3.5-2.5l31.2-22.3l3.6-2.5c1.3-1.2,0.7-5.4,0.7-6l0.1-42.5
	c0-1.6,0.3-4.2-0.2-5.9 M1190.3,404.6v-51l0.6-0.9l0.3-0.8 M1152.1,431.9v-11.4l2.1-3.7l34-59.5l2.1-3.7 M1190.3,405l-3.5,2.5
	l-31.2,22.3c-4.6,3.4-3.2,1.1-4.4,6.8L975,1240.8l-0.9,4.2 M997.6,1266.6c-2.1,4.3-4.4,8.5-7.5,12.1c-2.1,2.5-4.9,5.4-8.3,5.9H980
	l-5.8-1.6c-1.5-0.4-2.1-0.5-3.2-1.6c-2.5-2.5-3.4-6.5-3.9-9.9c-1.4-9-0.1-18.3,1.7-27.2 M980,1284.7l-1.7-0.5
	c-1.2-0.7-2.1-1.7-2.8-2.8c-1.6-2.5-2.2-5.4-2.6-8.2c-1.4-9.5,0.1-19.1,2-28.3 M952.6,1251.8l-0.9-0.5c-1-0.9-1.4-2.4-1.7-3.7
	c-0.6-2.6-0.4-5.3-0.1-8 M935.6,1235.5c-1.6,7.7-2.6,15.7-2.1,23.5c0.2,4,0.9,8.5,3.1,12c0.7,1.1,1.7,2.1,2.9,2.7l1.7,0.4l2.9,0.8
	c1.9,0.5,2.8,1.1,4.6,0.7c3.4-0.6,6.2-3.4,8.3-5.9c3.6-4.4,6.4-9.5,8.7-14.6 M946.8,1275.8l-1.7-0.5c-1.2-0.7-2-1.7-2.8-2.9
	c-1.5-2.5-2.2-5.4-2.6-8.2c-1.3-8.9-0.1-18.1,1.6-26.9 M1129.9,421.8l4.2,1.1l2.5,0.7l4.2,1.1l1.4,0.3c3.6,0.5,7.4-0.1,10-2.7
	 M1130,421.7l4.2,1.2l2.4,0.6l4.2,1.2l1.4,0.2c2.9,0.2,5.9-1,8-3.1c0.8-1,0.9-1.3,1.6-2.4 M1149.6,414.9c-0.6,1.2-0.7,1.5-1.6,2.5
	c-1.8,2-4,2.8-6.6,3.2h-1.4 M977.8,421.6l0.5,0.2l3,3.1l3.9,4.2l3,3.3 M265.3,246.1c1.2-0.3,1.6-0.3,2.7-0.8c3.7-2,4.3-6.1,5.4-9.8
	l8.3-29.2l1.1-4.1 M296,205.8c-0.1,4.3-0.2,8.9,1.6,13l1,1.6l1.1,1c1.8,1.3,4,0.4,5.7-0.7c1.3-0.9,2.4-2.1,3.3-3.2
	c1.8-2.2,3.1-4.6,4.4-7 M298.3,219.7c4.3-2.4,6.8-6.8,8.9-11 M282.4,202.1l-1.2,4.1l-8.3,29.2c-0.5,1.7-0.8,3.8-1.8,5.5
	c-1.2,2.2-3.3,3.8-5.7,4.5c-1.3,0.4-1.6,0.2-2.9,0.2c-2.9-0.4-1.1,0.1-4.4-3.4l-4-4.3l-2.9-3.1 M271.8,239.4l-2.9-3l-4-4.3l-2.9-3.2
	l-0.6-0.1 M228,228.5c-1.5-0.6-2.4-1.1-3.6-2.2 M216.8,200l0.3,1.2c0.8,2.1,2.7,3.2,4.7,4"/>
<path class="st1" d="M600.8,225.9l0.2,1.2c0.8,2.5,3.4,4,5.6,4.9c3.9,1.5,8.3,1.8,12.3,0.9c2.3-0.5,4.6-1.3,6.5-2.9
	c0.8-0.6,1.3-1.3,1.8-2.2l0.4-1.2c0.8-3.6-2.9-6.2-5.8-7.4l-1.9-0.6c-2.1-0.5-4.1-0.7-6.3-0.8l-2,0.2l-2,0.3
	c-3.4,0.7-7.9,2.6-8.7,6.4L600.8,225.9L600.8,225.9z M626.9,228.2c-3.1-4.1-8.3-4.9-13.1-5.1c-4.3,0.3-9.6,1.2-12.1,5.2
	 M493.8,188.8c-1.3,0.5-2.5,1.2-3.5,2c-0.8,0.7-1.5,1.4-1.9,2.4l-0.4,1.2c-0.8,3.8,3.1,6.5,6.2,7.8c5.2,2,11.6,2,16.8-0.3
	c1.1-0.5,2.2-1.1,3.1-1.9c0.7-0.7,1.4-1.4,1.8-2.3l0.4-1.3c0.8-3.8-2.9-6.3-5.8-7.6 M718.1,249.1c-1.2,0.5-2.5,1.2-3.5,2.1
	c-0.7,0.7-1.4,1.3-1.9,2.3l-0.4,1.3c-0.8,3.8,3,6.5,6.1,7.7c5.1,2,11.6,2,16.8-0.2c1.1-0.5,2.1-1.1,3-2c0.8-0.7,1.4-1.3,1.8-2.3
	l0.5-1.3c0.8-3.8-2.9-6.2-5.8-7.5"/>
<path class="st1" d="M904.9,306.8l0.1,1.1c0.6,2.4,2.9,3.8,5,4.7c4.9,2,11.5,1.8,15.9-1.3c0.7-0.5,1.4-1.2,1.9-2l0.6-1.1
	c1.2-4-3.6-6.6-6.7-7.4c-2-0.5-3.8-0.7-5.8-0.7l-1.9,0.1c-3.3,0.5-7.8,1.9-8.9,5.4C905.1,305.7,905.1,305.7,904.9,306.8L904.9,306.8
	z M905.9,309.7c3.6-4.4,10.7-4.9,15.9-3.6c2.2,0.6,4.5,1.6,5.8,3.6"/>
<path class="st1" d="M300,144v1.1c0.6,2.3,2.9,3.8,5,4.6c4.9,2,11.6,1.8,16-1.3c0.7-0.5,1.4-1.1,1.9-2l0.5-1
	c1.3-4.1-3.5-6.6-6.6-7.4c-1.9-0.5-3.8-0.6-5.8-0.7l-2,0.2c-3.3,0.4-7.8,1.9-8.9,5.4L300,144L300,144z M300.9,146.8
	c3.6-4.4,10.7-4.9,15.9-3.6c2.2,0.6,4.5,1.6,5.8,3.6 M1024.9,399.4c-0.9,1.2-1.9,1.9-3.3,2.4h-0.9c-2-0.6-2.5-3.7-2.6-5.4l-0.1-2
	c0-3.9,0.8-7.8,1.9-11.6c0.9-2.9,2-5.8,3.6-8.4l1-1.6l1.1-1.3c1.1-1.2,3-2.8,4.7-1.5l0.6,0.7l0.6,1.1l0.4,1.5l0.1,0.4 M455.7,122.3
	l-0.4-0.3l-4.2-1.2l-15.1-4l-4.1-1.1l-0.5-0.1l-0.1,0.1l-1.4-0.3h-1.4l-4.3,0.5l-68.2,7.9l-4.3,0.5 M457.8,123.7
	c0.9,0.5,1.1,0.5,1.8,1.3l0.8,1c2.1,3.4,0.2,7.2-0.9,10.5l-3.6,11.4l-1.3,4.1 M454.5,152l1.3-4.2l3.6-11.4c0.7-2.1,1.3-3.6,1.5-5.6
	c0.1-3-1.2-6-3.7-7.7c-1-0.7-1.4-0.8-2.6-1.2c-26,3-52.1,6-78.2,9.1 M474.5,157.4c-0.1-2.4-1.1-3.8-2.2-6.1l-9.6-20.2l-1.8-3.9
	 M303.4,1051.1l0.8-0.2"/>
<path class="st1" d="M293.3,1064c0-3.1,0.5-6,1.3-9c0.4-1.6,1-3,1.6-4.5l0.6-1.3l0.7-1.3l0.7-1c0.9-1.3,3.1-4,4.8-2l0.4,0.6
	c0.3,0.5,0.4,1.1,0.6,1.7c0.2,0.8,0.2,1.6,0.2,2.4c0.1,5-1.3,10.3-3.6,14.8c-1,1.9-2.4,4.3-4.6,4.9
	C293.5,1069.2,293.5,1065.9,293.3,1064L293.3,1064z M276.6,1053.2c-0.7,3.5-1.3,7-1.2,10.6c0,2.2,0.2,4.7,1.1,6.7
	c0.3,0.7,0.9,1.5,1.6,1.9l0.7,0.2l4.2,1.1l5.5,1.4c2.1,0.6,4.7,1.9,6.9,0.7c2.7-1.5,4.5-4.2,5.9-6.8c3.5-6.5,5.5-14,5.8-21.4
	c0.1-2.4,0-4.7-0.7-7c-0.2-1-0.7-2.1-1.5-2.9c-1.1-1.1-2.7-1.3-4.1-1.7l-2.2-0.6 M292.6,1076.3c-2.8-1.1-3.2-4.6-3.4-7.2l-0.1-1.6
	l0.1-1.7c0.3-7.7,2.5-15.8,6.3-22.5l0.9-1.4c1.4-2.2,3.6-5.2,6.7-5"/>
<path class="st1" d="M292.9,1053.1c-0.9,2.9-1.5,5.8-2,8.8c-0.4,3.5-0.7,7.4,0.4,10.8c0.2,0.6,0.5,1.2,0.9,1.8l0.6,0.6
	c1.8,1.4,4-0.2,5.3-1.6c0.6-0.6,1.2-1.4,1.7-2.2c1.6-2.5,2.9-5.2,4-7.9c1.6-4.3,2.7-8.9,3.1-13.4l0.1-1.8v-1.7l-0.1-1.6
	c-0.2-2.5-0.7-6-3.4-6.7c-2.1,0.1-3.6,1.6-4.8,3.2C295.9,1044.6,294.2,1048.9,292.9,1053.1L292.9,1053.1z M300,1046
	c-0.3-0.2-0.1-0.1-0.7-0.3 M290.6,1065.5l-0.9,0.2h-0.5l-4.2-1.1l-5.5-1.5l-4.2-1.2 M293.6,1066.5l0.8,0.2 M250.6,1062.8l-24.1-6.5
	 M503.7,200.3l0.2,3.2 M490.3,192.8l-1.6,5.3 M490,193.7l-1.4,4.3 M500.5,187.5c0.4,4.1,0.3,8.2,0.3,12.3 M515.5,198
	c-0.7-2-1.1-4.3-2-6.3c-0.7-1.3-1.8-2.3-3.1-3c-2.5-1.5-5.4-1.9-8.4-2c-2,0.1-4,0.3-5.9,1c-2.8,0.9-6.6,3.3-5.7,6.8
	c0.2,0.7,0.5,1.2,0.9,1.8c0.4,0.6,1,1.1,1.6,1.5c1.4,1,3.1,1.7,4.9,2.1c3.8,0.9,8.1,0.7,11.7-0.9c1.9-0.9,3.9-2.4,4.4-4.6
	c0.2-0.8,0.1-1,0-1.8 M508.8,198.4c1.4-1,2.3-2.9,1.4-4.5c-0.3-0.5-0.7-1-1.2-1.4c-2-1.6-4.5-2-6.9-2.1c-2.4,0-5,0.4-7,2
	c-0.5,0.4-1,0.9-1.3,1.3c-1,1.8-0.1,3.6,1.4,4.7"/>
<path class="st1" d="M511.6,190.8c0.4,0.7,0.7,0.9,1,1.6c1.4,3.8-3.3,6.2-6.2,7l-1.3,0.2c0,0-1.6,0.2-2.9,0.3
	c-1.5,0-2.9-0.2-4.4-0.5l-1.3-0.4c-2.6-0.9-6.2-3.2-5-6.5c0.2-0.6,0.5-1.1,1-1.6c0.4-0.5,1.1-1,1.7-1.3c1.4-0.9,3.2-1.5,4.9-1.8
	C503.4,187,508.3,187.6,511.6,190.8L511.6,190.8z M728.2,260.8v3.1 M714.7,253.2l-1.6,5.3 M714.4,254.1l-1.4,4.4 M724.9,247.9
	c0.4,4,0.3,8.1,0.3,12.2 M739.9,258.5c-0.7-2-1.1-4.3-2-6.3c-0.7-1.3-1.8-2.3-3.1-3.1c-2.6-1.4-5.5-1.8-8.4-2c-2,0.1-4,0.3-5.9,0.9
	c-2.8,1-6.5,3.4-5.7,6.9c0.2,0.6,0.5,1.2,0.9,1.7c0.4,0.6,0.9,1.1,1.5,1.5c1.4,1.1,3.2,1.8,4.9,2.1c3.8,0.9,8.1,0.7,11.7-0.9
	c1.9-0.9,4-2.3,4.5-4.5c0.2-0.8,0-1-0.1-1.8 M733.2,258.8c1.5-1,2.3-2.8,1.4-4.5c-0.2-0.6-0.7-1-1.2-1.5c-1.9-1.5-4.5-2-6.9-2
	c-2.5,0.1-5.1,0.4-7,2c-0.5,0.4-0.9,0.8-1.2,1.4c-1.1,1.8-0.1,3.6,1.3,4.6"/>
<path class="st1" d="M736,251.2c0.4,0.6,0.7,0.8,0.9,1.6c1.4,3.8-3.3,6.2-6.1,6.9l-1.4,0.3c-1.2,0.2-1.6,0.2-2.9,0.2
	c-1.5-0.1-2.9-0.1-4.3-0.5l-1.3-0.4c-2.6-0.9-6.2-3.3-5-6.6c0.2-0.5,0.5-1.1,1-1.5c0.4-0.6,1-1,1.6-1.4c1.5-0.9,3.2-1.4,4.9-1.7
	C727.8,247.3,732.7,248.1,736,251.2L736,251.2z M1021.3,396.2l-3.2,0.1 M1027.5,375.1c2.4,0.7,2.2,4.1,2.1,6.1
	c-0.3,4-1.4,8.4-3.5,11.9c-0.8,1.3-2,2.9-3.6,2.9l-0.6-0.2 M1019.2,400.2l2.3-0.2c0.9-0.1,2.6-0.1,3.6-0.7c1.9-1.1,3.2-3.5,4.2-5.4
	c2.2-4.3,3.4-9.2,3.7-14c0-1.9,0-4-0.8-5.8c-0.6-1.3-1.7-1.8-2.9-2.7l-2-1.5 M1023.8,399.6c-2.5-0.4-2.7-3.9-2.7-5.9
	c0-5.6,1.6-11.8,4.4-16.7l0.7-1.2c1.1-1.6,3-4.2,5.1-2.9"/>
<path class="st1" d="M1031.1,388.2c1-3.6,1.9-7.6,1.2-11.4c-0.2-1.4-0.7-2.9-2.4-3.1c-2.2,0.5-3.6,2.8-4.7,4.7
	c-2.3,4.4-3.7,9.7-3.7,14.7c0,0.8,0.1,1.6,0.2,2.4c0.1,0.6,0.2,1.3,0.5,1.8l0.4,0.7c1.6,2,3.9-0.5,4.8-1.8l0.7-1l0.7-1.2
	C1029.8,392,1030.5,390.1,1031.1,388.2L1031.1,388.2z M1032.3,376.7l-2.9,1.1l-3.3-1 M929.2,1264.6l-6.3-0.6 M927.6,1247.2
	l-2.9,10.4 M934.6,1296.9l-6.3-0.5 M934.3,1223.1l4.3-7.7 M933.2,1222.1l6.4-11.4 M930.4,1229.8l4.8,1.3 M915.8,1221.8l6.2,0.6
	 M910.4,1189.5l6.3,0.5 M921.8,1180.5l2.5,0.2 M917.3,1181l-6.2-0.6 M923.9,1157.6l-6.3-0.6"/>
<path class="st1" d="M920.5,1194.4c-0.4-2.3-0.3-4.7-0.1-7c0.1-1.5,0.3-2.9,0.7-4.4l0.4-1.8l0.5-1.4c0.4-0.7,1.2-2,1.8-0.8l0.2,0.5
	c0.4,1.2,0.5,2.6,0.5,3.9c0.1,3.3-0.2,6.5-1.1,9.7c-0.3,1.1-0.6,3.1-1.8,3.6C920.7,1196.6,920.6,1195.1,920.5,1194.4L920.5,1194.4z
	 M929,1197.6l1.2,0.8 M932.5,1190.1l-1.1,4.2l-7,24.7c-1.6,5.6-1.4,2.8-0.5,8.4 M935.5,1229.6c-0.7-1.1-1.6-2-2.6-2.7
	c-2.2-1.6-4.5-2.2-7-2.9l-2.7-0.8h-0.4l-0.8-0.7l1.2-4.2l7-24.8l1.2-4.2l-0.7-4.2l-4-23.8l-0.7-4.2l-0.1-0.6
	c-0.5-1.8-1.7-1.1-3.7-1.3l-3.2-0.2c-0.6,0-0.8,0.6-1,1.1c-0.7,1.6-1.1,3.8-1.5,5.2l-4.3,15.1l-1.1,4.2c-0.8,2.7-1.1,5.7-0.8,8.5
	l0.1,0.7l0.7,4.2l4,23.9c0.4,2.5,0.3,5,2.1,6.8c2.5,2.6,6.1,2.9,9.5,3.8c0.5,0.1,2.9,0.4,3.6,1.4l0.1,0.2l0.7,4.3l1.8,10.7l0.7,4.2
	 M942.7,1274.6l-1.1,4.2l-3.8,13.3c-0.4,1.4-0.9,3.7-1.6,5.3c-0.2,0.4-0.5,1.1-1,1.1l-3.2-0.2c-2-0.2-3.2,0.4-3.7-1.3l-0.1-0.5
	l-0.7-4.2l-4-23.9l-0.7-4.3v-0.6c0-2.4,2.7-3.4,4.7-3.7h1.9l2.1,0.6l2.1,0.6 M930.1,1264l-0.7-4.2l1.1-4.1l0.9-3l1.1-4.1
	 M931,1253.8c-1.2,1.3-2.9,1.8-4.5,2.5c-0.8,0.4-1.8,0.9-2.2,1.8l-0.2,0.4l-0.7,2.2l-0.5,2.1 M938.4,1273c-0.2,2-0.5,4.2-1.3,6.1
	c-0.2,0.7-0.5,1.6-1.3,2c-1.1-0.1-1.2-2.2-1.3-3.1c-0.4-3.4,0-6.9,0.6-10.2 M935.3,1298.5c-0.4-0.2-0.5-0.6-0.7-1v-0.6l-0.8-4.2
	l-4-23.9l-0.7-4.2v-0.1l0.9-0.5l2.1,0.6l2.2,0.6 M941.6,1201.8l-2.1,3.8l-5.7,10l-2.1,3.7c-0.2,0.5,0.3,1.6,0.6,1.9
	c1.2,1.6,2.9,2.6,4.3,3.9 M930.8,1196.2c0.2-0.8,0.5-1.9,0-2.5 M929.6,1195.4c0.1-0.4,0.3-1.8,0.9-1.8 M925.2,1155.4
	c-0.6,0-0.8,0.6-1,1.1c-0.7,1.6-1.2,3.8-1.5,5.3l-4.3,15.1c-1.1,4-2.2,7.8-1.9,12c0.1,1.8,0.5,3.8,0.9,5.5l4,23.9l0.7,4.3
	 M923.9,1219.1c0.6-0.4,0.8-1.3,1.1-1.9 M923.8,1216.4c-0.2,0.6-0.4,1.3-0.5,1.9l0.2,0.8 M929.3,1228.9l-0.7-4.3l3-5.4
	 M931.4,1189.3l0.7,0.7l0.4,0.1l4.1,1.1l2.7,0.7l4.1,1.2 M985.5,1255l13.7,3.7 M1003.6,1268.2l-13.6-3.6 M1012.6,1227.3l-13.6-3.8
	 M990.1,1234.5l13.6,3.7"/>
<path class="st1" d="M1003.6,1268.2l-1.8-3.9l-0.8-1.7l-1.8-3.9l0.9-4.2l2.7-12.1l0.9-4.2l2.8-3.4l3.4-4.2l2.7-3.3l1.8,3.8l0.9,1.8
	l1.7,3.9l-0.9,4.2l-2.6,12.1l-1,4.2l-2.7,3.3l-3.5,4.3L1003.6,1268.2z M999,1223.5l-2.7,3.4l-3.5,4.2l-2.7,3.4l-1,4.2l-2.6,12.1
	l-1,4.2l1.8,3.9l0.9,1.7l1.8,4 M933.6,1248.8l-4.2-1.1l-2.5-0.7l-4.2-1.1l-0.7-0.2c-1.8-1-2.3-3.6-2.5-5.6c-0.6-4.5,0-9.2,1.1-13.5
	 M924.5,1213.5c0.8-1.3,1.5-2.6,2.5-3.8 M923.6,1217.1c0.9-1.9,1.8-4,3-5.7 M922,1245.7c-1.7-0.7-2.5-2.9-2.9-4.6
	c-1.1-4.7-0.4-10.1,0.7-14.8 M985.7,1260.6l2.7,0.8 M967,1255.6l-14.5-3.9 M988.3,1260.6c-0.6-0.9-0.9-1.7-1.1-2.7 M987.4,1246.9
	c0.3-1.9,0.8-3.7,1.3-5.6 M996,1227.5c-0.9,0.9-1.6,1.8-2.4,2.8"/>
<path class="st2" d="M207.4,1300l14.4-14.5"/>
<path class="st0" d="M207.4,1300"/>
</svg>
