<?xml version="1.0" encoding="utf-8"?>
<!DOCTYPE svg PUBLIC "-//W3C//DTD SVG 1.1//EN" "http://www.w3.org/Graphics/SVG/1.1/DTD/svg11.dtd">
<!-- Generator: PTC Arbortext IsoDraw 7.3 -->
<svg id="Standardebene" width="100%" height="100%" viewBox="0 0 17.274 18.713"
 xmlns="http://www.w3.org/2000/svg" xmlns:xlink="http://www.w3.org/1999/xlink"
 xmlns:itedo="http://www.itedo.com/svgfilter/1.0" xmlns:extra="http://www.itedo.com/svgfilter/1.0/extra"
 xmlns:_DEFAULT_DTD_="http://www.itedo.com/svgfilter/1.0/DTD/_DEFAULT_DTD_"
 fill-rule="evenodd" clip-rule="evenodd" stroke="#000000" stroke-linecap="round" fill="none" xml:space="preserve">
 <path stroke="none" d="M17.274 0L0 0 0 18.713 17.274 18.713 17.274 0z"/>
 <path stroke-width="0.071" d="M1.652 12.875C1.587 12.856 1.494 12.994 1.443 13.18C1.394 13.368 1.406 13.532 1.47 13.551C1.534 13.567 1.627 13.43 1.677 13.243C1.728 13.057 1.716 12.891 1.652 12.875z"/>
 <path stroke-width="0.071" d="M1.697 12.705C1.601 12.679 1.461 12.885 1.386 13.164C1.31 13.445 1.328 13.693 1.423 13.72C1.52 13.746 1.66 13.539 1.736 13.259C1.811 12.98 1.794 12.731 1.697 12.705z"/>
 <path stroke-width="0.071" d="M1.672 12.663C1.601 12.646 1.508 12.746 1.429 12.912"/>
 <path stroke-width="0.071" d="M1.429 12.912C1.393 12.987 1.362 13.071 1.34 13.153C1.258 13.449 1.281 13.714 1.391 13.746C1.5 13.775 1.656 13.56 1.738 13.262C1.789 13.073 1.798 12.896 1.77 12.784"/>
 <path stroke-width="0.071" d="M1.298 12.561C1.195 12.538 1.048 12.756 0.968 13.053C0.888 13.352 0.906 13.615 1.008 13.644L1.012 13.644"/>
 <line stroke-width="0.071" x1="1.386" y1="13.744" x2="1.012" y2="13.644"/>
 <path stroke-width="0.071" d="M1.298 12.561C1.298 12.561 1.298 12.561 1.433 12.599C1.433 12.599 1.433 12.599 1.536 12.625C1.607 12.644 1.694 12.647 1.738 12.714C1.738 12.714 1.738 12.714 1.757 12.746C1.757 12.746 1.757 12.746 1.768 12.776L1.77 12.784"/>
 <path stroke-width="0.071" d="M1.476 13.445C1.451 13.464 1.463 13.458 1.439 13.467C1.439 13.467 1.439 13.467 1.417 13.461"/>
 <path stroke-width="0.071" d="M14.737 18.483C14.75 18.576 14.778 18.635 14.817 18.661"/>
 <path stroke-width="0.071" d="M14.662 16.108C14.548 16.333 14.477 16.637 14.475 16.867"/>
 <path stroke-width="0.071" d="M14.484 18.414C14.496 18.507 14.525 18.568 14.563 18.593"/>
 <path stroke-width="0.071" d="M14.84 18.673C14.885 18.687 14.939 18.661 14.992 18.608"/>
 <path stroke-width="0.071" d="M14.329 12.082C14.226 12.048 14.131 12.07 14.08 12.131C14.054 12.164 14.041 12.205 14.041 12.247"/>
 <path stroke-width="0.071" d="M14.16 12.101C14.16 12.189 14.214 12.281 14.292 12.346C14.342 12.384 14.396 12.41 14.446 12.419"/>
 <path stroke-width="0.071" d="M14.041 12.247C14.041 12.352 14.117 12.461 14.221 12.525"/>
 <path stroke-width="0.071" d="M7.772 10.343C7.703 10.292 7.626 10.269 7.559 10.272"/>
 <path stroke-width="0.071" d="M7.496 10.285C7.496 10.374 7.551 10.487 7.629 10.551C7.702 10.609 7.785 10.635 7.857 10.632"/>
 <path stroke-width="0.071" d="M7.496 10.683C7.538 10.721 7.586 10.749 7.633 10.763"/>
 <path stroke-width="0.071" d="M4.315 9.91C4.141 9.835 3.875 10.06 3.721 10.414C3.565 10.769 3.583 11.118 3.757 11.194C3.931 11.269 4.197 11.044 4.351 10.689C4.506 10.335 4.49 9.987 4.315 9.91z"/>
 <path stroke-width="0.071" d="M3.673 11.101C3.838 11.054 4.014 10.848 4.128 10.592C4.243 10.326 4.262 10.064 4.192 9.916"/>
 <path stroke-width="0.071" d="M5.008 8.532L4.996 8.535"/>
 <path stroke-width="0.071" d="M5.025 8.534L5.008 8.532"/>
 <path stroke-width="0.071" d="M0.859 12.183C0.765 12.3 0.68 12.49 0.626 12.692C0.583 12.849 0.563 13 0.563 13.121"/>
 <path stroke-width="0.071" d="M0.571 14.669C0.583 14.76 0.612 14.821 0.65 14.846"/>
 <path stroke-width="0.071" d="M5.144 8.387C5.009 8.35 4.849 8.375 4.759 8.442"/>
 <path stroke-width="0.071" d="M0.605 12.115C0.511 12.231 0.427 12.422 0.372 12.624C0.33 12.782 0.309 12.932 0.31 13.053"/>
 <path stroke-width="0.071" d="M0.317 14.6C0.33 14.692 0.359 14.753 0.396 14.778"/>
 <path stroke-width="0.071" d="M0.675 14.859C0.719 14.872 0.773 14.846 0.826 14.792"/>
 <path stroke-width="0.071" d="M5.025 11.105C5.011 11.102 4.995 11.105 4.984 11.112"/>
 <path stroke-width="0.071" d="M5.028 11.135C5.033 11.183 5.046 11.214 5.065 11.227"/>
 <path stroke-width="0.071" d="M14.542 12.506C14.619 12.412 14.577 12.252 14.449 12.148C14.41 12.118 14.368 12.095 14.329 12.082"/>
 <path stroke-width="0.071" d="M14.221 12.525C14.345 12.596 14.477 12.586 14.542 12.506"/>
 <path stroke-width="0.071" d="M7.559 10.272C7.498 10.276 7.45 10.301 7.418 10.339C7.346 10.429 7.381 10.58 7.496 10.683"/>
 <path stroke-width="0.071" d="M7.881 10.712C7.958 10.618 7.916 10.458 7.788 10.355L7.772 10.343"/>
 <path stroke-width="0.071" d="M7.633 10.763C7.737 10.798 7.83 10.775 7.881 10.712"/>
 <path stroke-width="0.071" d="M17.234 11.75C17.23 11.681 17.157 11.621 17.053 11.593"/>
 <path stroke-width="0.071" d="M16.966 13.278C16.894 13.268 16.797 13.57 16.745 13.955C16.695 14.337 16.71 14.656 16.78 14.666C16.85 14.675 16.949 14.371 17 13.987C17.051 13.605 17.036 13.287 16.966 13.278z"/>
 <line stroke-width="0.071" x1="14.84" y1="18.673" x2="14.817" y2="18.661"/>
 <line stroke-width="0.071" x1="3.673" y1="11.101" x2="3.664" y2="11.102"/>
 <line stroke-width="0.071" x1="4.184" y1="9.904" x2="4.192" y2="9.916"/>
 <line stroke-width="0.071" x1="4.759" y1="8.442" x2="4.984" y2="8.539"/>
 <line stroke-width="0.071" x1="4.984" y1="11.112" x2="4.984" y2="8.539"/>
 <line stroke-width="0.071" x1="1.879" y1="13.49" x2="1.879" y2="10.919"/>
 <line stroke-width="0.071" x1="5.025" y1="8.534" x2="14.662" y2="11.128"/>
 <line stroke-width="0.071" x1="0.675" y1="14.859" x2="0.65" y2="14.846"/>
 <line stroke-width="0.071" x1="5.144" y1="8.387" x2="14.662" y2="10.949"/>
 <line stroke-width="0.071" x1="14.662" y1="13.811" x2="5.065" y2="11.227"/>
 <line stroke-width="0.071" x1="5.025" y1="11.093" x2="14.662" y2="13.688"/>
 <line stroke-width="0.071" x1="16.184" y1="14.41" x2="17.228" y2="11.798"/>
 <line stroke-width="0.071" x1="16.954" y1="11.762" x2="17.228" y2="11.798"/>
 <line stroke-width="0.071" x1="16.184" y1="11.359" x2="17.053" y2="11.593"/>
 <path stroke-width="0.071" d="M14.737 18.483C14.73 18.42 14.73 18.359 14.73 18.297"/>
 <path stroke-width="0.071" d="M14.484 18.414C14.474 18.327 14.475 18.243 14.475 18.157C14.475 18.157 14.475 18.157 14.475 17.007C14.475 17.007 14.475 17.007 14.475 16.867"/>
 <polyline stroke-width="0.071" points="14.84 18.673 14.714 18.638 14.587 18.605 14.563 18.593"/>
 <polyline stroke-width="0.071" points="15.096 18.483 15.025 18.57 14.992 18.608"/>
 <path stroke-width="0.071" d="M14.162 12.077C14.157 12.131 14.164 12.095 14.101 12.173C14.101 12.173 14.101 12.173 14.041 12.247"/>
 <path stroke-width="0.071" d="M0.859 12.183C0.859 12.183 0.859 12.183 0.947 12.074C0.947 12.074 0.947 12.074 1.793 11.028C1.91 10.882 1.843 10.946 1.992 10.833C1.992 10.833 1.992 10.833 4.873 8.625C4.873 8.625 4.873 8.625 4.984 8.539C4.984 8.539 4.984 8.539 4.996 8.535"/>
 <path stroke-width="0.071" d="M0.571 14.669C0.562 14.582 0.563 14.497 0.563 14.41C0.563 14.41 0.563 14.41 0.563 13.262C0.563 13.262 0.563 13.262 0.563 13.121"/>
 <path stroke-width="0.071" d="M0.605 12.115C0.605 12.115 0.605 12.115 0.693 12.006C0.693 12.006 0.693 12.006 1.539 10.96C1.539 10.96 1.539 10.96 1.627 10.85C1.663 10.806 1.734 10.76 1.772 10.733C1.772 10.733 1.772 10.733 4.649 8.528C4.649 8.528 4.649 8.528 4.759 8.442"/>
 <path stroke-width="0.071" d="M0.317 14.6C0.308 14.513 0.31 14.429 0.31 14.342C0.31 14.342 0.31 14.342 0.31 13.192C0.31 13.192 0.31 13.192 0.31 13.053"/>
 <polyline stroke-width="0.071" points="0.675 14.859 0.548 14.824 0.421 14.791 0.396 14.778"/>
 <polyline stroke-width="0.071" points="4.984 11.112 4.873 11.196 1.995 13.401 1.883 13.487 1.796 13.596 0.947 14.647 0.859 14.755 0.826 14.792"/>
 <path stroke-width="0.071" d="M5.065 11.227C5.065 11.227 5.065 11.227 5.144 11.282C5.144 11.282 5.144 11.282 5.168 11.298C5.237 11.336 5.31 11.367 5.384 11.394C5.551 11.457 5.719 11.507 5.892 11.554C5.892 11.554 5.892 11.554 14.526 13.88C14.526 13.88 14.526 13.88 14.662 13.916"/>
 <polyline stroke-width="0.071" points="5.144 8.387 5.025 8.534 5.025 8.673 5.025 10.965 5.025 11.105 5.028 11.135"/>
 <path stroke-width="0.071" d="M14.553 12.423C14.553 12.423 14.553 12.423 14.519 12.426C14.471 12.426 14.494 12.428 14.446 12.419"/>
 <path stroke-width="0.071" d="M7.918 10.621C7.879 10.631 7.9 10.628 7.857 10.632"/>
 <polyline stroke-width="0.071" points="16.184 13.691 16.236 13.561 16.902 11.893 16.954 11.762 16.955 11.759"/>
 <path stroke-width="0.071" d="M16.184 11.538C16.184 11.538 16.184 11.538 16.318 11.573C16.318 11.573 16.318 11.573 16.8 11.704C16.8 11.704 16.8 11.704 16.934 11.74C16.949 11.743 16.954 11.75 16.955 11.763"/>
 <polyline stroke-width="0.071" points="16.934 11.811 16.934 11.74 17.053 11.593"/>
 <polyline stroke-width="0.071" points="17.234 11.75 17.228 11.798 17.228 11.939 17.228 14.231 17.228 14.371"/>
 <path stroke-width="0.071" d="M17.234 11.75C17.234 11.75 17.234 11.75 17.234 11.891C17.234 11.891 17.234 11.891 17.234 14.182C17.234 14.211 17.246 14.32 17.228 14.371C17.228 14.371 17.228 14.371 17.175 14.5C17.175 14.5 17.175 14.5 16.278 16.745C16.278 16.745 16.278 16.745 16.225 16.875"/>
 <path stroke-width="0.071" d="M14.492 16.67C14.423 16.905 14.419 17.131 14.477 17.228"/>
 <path stroke-width="0.071" d="M4.743 1.819C4.743 1.73 4.618 1.659 4.464 1.659C4.309 1.659 4.184 1.73 4.184 1.819C4.184 1.859 4.206 1.894 4.246 1.921"/>
 <path stroke-width="0.071" d="M4.682 1.921C4.722 1.891 4.743 1.855 4.743 1.819"/>
 <path stroke-width="0.071" d="M4.812 1.762C4.812 1.652 4.657 1.561 4.463 1.561C4.269 1.561 4.113 1.652 4.113 1.762C4.113 1.875 4.269 1.964 4.463 1.964C4.657 1.964 4.812 1.875 4.812 1.762z"/>
 <path stroke-width="0.071" d="M4.849 1.762C4.849 1.641 4.676 1.54 4.463 1.54C4.275 1.54 4.118 1.619 4.084 1.724"/>
 <path stroke-width="0.071" d="M4.078 1.753L4.078 1.762C4.078 1.886 4.251 1.986 4.463 1.986C4.676 1.986 4.849 1.886 4.849 1.762"/>
 <line stroke-width="0.071" x1="4.843" y1="1.73" x2="4.899" y2="1.907"/>
 <line stroke-width="0.071" x1="4.884" y1="1.859" x2="4.839" y2="1.716"/>
 <line stroke-width="0.071" x1="4.078" y1="1.753" x2="4.084" y2="1.724"/>
 <line stroke-width="0.071" x1="4.027" y1="1.909" x2="4.084" y2="1.724"/>
 <path stroke-width="0.071" d="M12.038 3.785C12.038 3.694 11.913 3.623 11.759 3.623C11.605 3.623 11.48 3.694 11.48 3.783C11.48 3.823 11.503 3.858 11.541 3.886"/>
 <path stroke-width="0.071" d="M11.977 3.886C12.019 3.855 12.038 3.819 12.038 3.785"/>
 <path stroke-width="0.071" d="M12.109 3.727C12.109 3.616 11.952 3.524 11.759 3.524C11.566 3.524 11.409 3.616 11.409 3.727C11.409 3.839 11.566 3.93 11.759 3.93C11.952 3.93 12.109 3.839 12.109 3.727z"/>
 <path stroke-width="0.071" d="M12.144 3.727C12.144 3.605 11.971 3.504 11.759 3.504C11.57 3.504 11.413 3.584 11.38 3.687"/>
 <path stroke-width="0.071" d="M11.375 3.717L11.374 3.727C11.374 3.85 11.547 3.95 11.759 3.95C11.971 3.95 12.144 3.85 12.144 3.727"/>
 <line stroke-width="0.071" x1="12.14" y1="3.694" x2="12.195" y2="3.873"/>
 <line stroke-width="0.071" x1="12.179" y1="3.823" x2="12.135" y2="3.681"/>
 <line stroke-width="0.071" x1="11.375" y1="3.717" x2="11.38" y2="3.687"/>
 <line stroke-width="0.071" x1="11.323" y1="3.873" x2="11.38" y2="3.687"/>
 <path stroke-width="0.071" d="M8.218 2.77C8.039 2.738 7.849 2.79 7.775 2.889"/>
 <path stroke-width="0.071" d="M8.311 2.624C8.249 2.601 8.179 2.589 8.112 2.591C7.908 2.591 7.743 2.685 7.743 2.802C7.743 2.876 7.81 2.942 7.911 2.98"/>
 <path stroke-width="0.071" d="M8.478 2.802C8.478 2.729 8.413 2.663 8.31 2.624"/>
 <path stroke-width="0.071" d="M7.911 2.98C7.974 3.004 8.044 3.015 8.112 3.015C8.314 3.015 8.478 2.919 8.478 2.802"/>
 <path stroke-width="0.071" d="M6.972 2.391C6.748 2.351 6.509 2.42 6.432 2.548"/>
 <path stroke-width="0.071" d="M7.078 2.248C7.004 2.221 6.921 2.208 6.843 2.209C6.601 2.209 6.405 2.322 6.405 2.46C6.405 2.549 6.485 2.628 6.607 2.673"/>
 <path stroke-width="0.071" d="M7.28 2.46C7.28 2.371 7.2 2.294 7.078 2.248"/>
 <path stroke-width="0.071" d="M6.607 2.673C6.681 2.701 6.762 2.714 6.843 2.714C7.083 2.714 7.28 2.6 7.28 2.46"/>
 <path stroke-width="0.071" d="M4.2 1.601C4.072 1.653 4.001 1.734 4.001 1.819C4.001 1.914 4.086 1.996 4.214 2.044"/>
 <path stroke-width="0.071" d="M2.145 1.225C2.088 1.215 2.024 1.219 1.974 1.237"/>
 <path stroke-width="0.071" d="M2.283 1.117C2.242 1.074 2.165 1.048 2.084 1.048C1.959 1.048 1.857 1.108 1.857 1.179L1.861 1.205"/>
 <path stroke-width="0.071" d="M14.362 4.4C14.34 4.338 14.246 4.293 14.137 4.293C14.012 4.293 13.91 4.352 13.91 4.424C13.91 4.448 13.92 4.469 13.939 4.488"/>
 <path stroke-width="0.071" d="M14.31 4.511C14.266 4.48 14.202 4.464 14.137 4.466C14.069 4.466 14.007 4.482 13.967 4.511"/>
 <path stroke-width="0.071" d="M14.365 4.424L14.362 4.4"/>
 <path stroke-width="0.071" d="M13.939 4.488C13.98 4.532 14.057 4.556 14.137 4.557C14.263 4.557 14.365 4.498 14.365 4.424"/>
 <path stroke-width="0.071" d="M14.852 5.82C14.852 5.748 14.81 5.674 14.744 5.621C14.708 5.591 14.669 5.572 14.631 5.561"/>
 <path stroke-width="0.071" d="M14.662 5.769C14.66 5.753 14.649 5.738 14.631 5.732"/>
 <line stroke-width="0.071" x1="14.662" y1="5.769" x2="14.666" y2="5.764"/>
 <path stroke-width="0.071" d="M14.707 18.237C14.746 18.358 14.804 18.42 14.875 18.431"/>
 <path stroke-width="0.071" d="M0.261 1.863C0.243 1.859 0.23 1.867 0.229 1.883"/>
 <path stroke-width="0.071" d="M0.261 1.692C0.175 1.669 0.101 1.693 0.064 1.748"/>
 <path stroke-width="0.071" d="M0.365 1.564C0.31 1.632 0.265 1.769 0.262 1.878"/>
 <path stroke-width="0.071" d="M14.852 17.937C14.852 18.489 15.085 18.65 15.369 18.297"/>
 <path stroke-width="0.071" d="M16.184 4.173C16.184 4.099 16.14 4.025 16.077 3.972C16.039 3.943 16 3.923 15.961 3.913"/>
 <path stroke-width="0.071" d="M1.593 0.044C1.52 0.024 1.453 0.039 1.413 0.078"/>
 <path stroke-width="0.071" d="M0.084 14.301C0.123 14.42 0.183 14.484 0.252 14.493"/>
 <path stroke-width="0.071" d="M12.221 3.785C12.221 3.694 12.143 3.615 12.022 3.567"/>
 <path stroke-width="0.071" d="M11.461 3.988C11.548 4.03 11.656 4.051 11.759 4.051C12.015 4.051 12.221 3.931 12.221 3.785"/>
 <path stroke-width="0.071" d="M8.446 2.887C8.404 2.831 8.319 2.789 8.218 2.77"/>
 <path stroke-width="0.071" d="M7.253 2.546C7.206 2.469 7.099 2.415 6.972 2.391"/>
 <path stroke-width="0.071" d="M4.926 1.819C4.926 1.738 4.862 1.665 4.761 1.616"/>
 <path stroke-width="0.071" d="M4.214 2.044C4.293 2.073 4.379 2.088 4.463 2.087C4.719 2.087 4.926 1.968 4.926 1.819"/>
 <path stroke-width="0.071" d="M2.311 1.179C2.311 1.157 2.302 1.135 2.283 1.117"/>
 <path stroke-width="0.071" d="M1.861 1.205C1.882 1.268 1.976 1.31 2.084 1.31C2.209 1.31 2.311 1.252 2.311 1.179"/>
 <path stroke-width="0.071" d="M11.496 3.565C11.367 3.617 11.298 3.7 11.297 3.785C11.297 3.867 11.361 3.94 11.461 3.988"/>
 <line stroke-width="0.071" x1="1.56" y1="10.932" x2="1.56" y2="2.785"/>
 <line stroke-width="0.071" x1="14.662" y1="5.769" x2="14.852" y2="5.82"/>
 <line stroke-width="0.071" x1="14.647" y1="5.74" x2="14.631" y2="5.761"/>
 <line stroke-width="0.071" x1="15.066" y1="18.483" x2="14.875" y2="18.431"/>
 <line stroke-width="0.071" x1="14.631" y1="5.761" x2="0.261" y2="1.891"/>
 <line stroke-width="0.071" x1="0.229" y1="1.883" x2="0.039" y2="1.831"/>
 <line stroke-width="0.071" x1="14.734" y1="5.432" x2="0.365" y2="1.564"/>
 <line stroke-width="0.071" x1="14.662" y1="6.264" x2="14.631" y2="6.304"/>
 <line stroke-width="0.071" x1="0.261" y1="2.435" x2="14.631" y2="6.304"/>
 <line stroke-width="0.071" x1="1.593" y1="0.147" x2="1.593" y2="0.044"/>
 <line stroke-width="0.071" x1="0.31" y1="14.509" x2="0.252" y2="14.493"/>
 <line stroke-width="0.071" x1="15.859" y1="4.041" x2="1.488" y2="0.172"/>
 <path stroke-width="0.071" d="M14.707 18.237C14.688 18.166 14.682 18.157 14.673 18.08C14.659 17.969 14.662 17.858 14.662 17.745C14.662 17.745 14.662 17.745 14.662 5.91C14.662 5.91 14.662 5.91 14.662 5.769"/>
 <path stroke-width="0.071" d="M0.246 1.863C0.2 1.919 0.229 1.875 0.229 2.024C0.229 2.024 0.229 2.024 0.229 13.859C0.229 14 0.226 14.141 0.255 14.278C0.266 14.332 0.282 14.384 0.31 14.432"/>
 <path stroke-width="0.071" d="M0.262 1.878C0.258 2.064 0.261 2.25 0.261 2.435"/>
 <path stroke-width="0.071" d="M14.634 5.695C14.628 5.766 14.631 5.828 14.631 5.9C14.631 5.9 14.631 5.9 14.631 6.163C14.631 6.163 14.631 6.163 14.631 6.304"/>
 <polyline stroke-width="0.071" points="15.961 3.913 15.874 4.022 14.718 5.451 14.631 5.561 14.631 5.732"/>
 <path stroke-width="0.071" d="M14.852 17.937C14.852 17.937 14.852 17.937 14.852 17.797C14.852 17.797 14.852 17.797 14.852 5.961C14.852 5.774 14.823 5.857 14.941 5.711C14.941 5.711 14.941 5.711 16.096 4.28C16.096 4.28 16.096 4.28 16.184 4.173"/>
 <path stroke-width="0.071" d="M15.91 17.507C15.855 17.629 15.795 17.748 15.721 17.856C15.721 17.856 15.721 17.856 15.666 17.929C15.666 17.929 15.666 17.929 15.577 18.039C15.577 18.039 15.577 18.039 15.458 18.187C15.458 18.187 15.458 18.187 15.369 18.297"/>
 <path stroke-width="0.071" d="M16.184 4.173C16.184 4.173 16.184 4.173 16.184 4.312C16.184 4.312 16.184 4.312 16.184 16.149C16.184 16.317 16.181 16.483 16.155 16.649"/>
 <path stroke-width="0.071" d="M1.488 0.172C1.488 0.172 1.488 0.172 1.504 0.155C1.556 0.107 1.629 0.156 1.685 0.172C1.685 0.172 1.685 0.172 15.759 3.96C15.759 3.96 15.759 3.96 15.894 3.996"/>
 <polyline stroke-width="0.071" points="0.261 1.863 0.261 1.692 0.349 1.583 1.504 0.153 1.593 0.044"/>
 <path stroke-width="0.071" d="M0.084 14.301C0.065 14.228 0.06 14.22 0.051 14.143C0.036 14.032 0.039 13.92 0.039 13.808C0.039 13.808 0.039 13.808 0.039 1.972C0.039 1.922 0.021 1.804 0.064 1.748C0.064 1.748 0.064 1.748 0.151 1.639C0.151 1.639 0.151 1.639 1.324 0.187C1.324 0.187 1.324 0.187 1.413 0.078"/>
 <line stroke-width="0.071" x1="12.195" y1="3.87" x2="12.192" y2="3.863"/>
 <line stroke-width="0.071" x1="4.9" y1="1.906" x2="4.895" y2="1.899"/>
 <path stroke-width="0.071" d="M2.256 1.266C2.221 1.244 2.185 1.233 2.145 1.225"/>
 <path stroke-width="0.071" d="M1.974 1.237C1.952 1.245 1.931 1.252 1.913 1.266"/>
 <path stroke-width="0.071" d="M15.734 16.414C15.631 16.387 15.481 16.606 15.4 16.905C15.323 17.196 15.339 17.455 15.435 17.493"/>
 <path stroke-width="0.071" d="M15.74 16.417L15.734 16.414z"/>
 <path stroke-width="0.071" d="M15.835 16.443C15.731 16.414 15.583 16.634 15.503 16.932C15.422 17.231 15.441 17.495 15.544 17.524C15.585 17.535 15.631 17.507 15.679 17.452"/>
 <path stroke-width="0.071" d="M15.916 16.573C15.901 16.495 15.871 16.452 15.835 16.443"/>
 <line stroke-width="0.071" x1="15.435" y1="17.493" x2="15.537" y2="17.521"/>
 <line stroke-width="0.071" x1="15.842" y1="16.445" x2="15.74" y2="16.417"/>
 <path stroke-width="0.071" d="M16.158 16.711C16.086 16.693 15.984 16.843 15.929 17.047C15.872 17.251 15.885 17.432 15.957 17.452C16.027 17.471 16.131 17.321 16.185 17.117C16.225 16.972 16.231 16.839 16.204 16.766"/>
 <path stroke-width="0.071" d="M16.187 16.734C16.178 16.722 16.169 16.714 16.158 16.711"/>
 <path stroke-width="0.071" d="M16.109 16.625C16.027 16.606 15.907 16.783 15.842 17.024C15.776 17.266 15.791 17.481 15.875 17.504L15.878 17.504L15.891 17.507C16.03 17.527 16.175 17.282 16.219 16.96C16.222 16.948 16.222 16.934 16.224 16.923"/>
 <path stroke-width="0.071" d="M15.806 16.542C15.721 16.524 15.602 16.701 15.538 16.943C15.473 17.184 15.487 17.399 15.57 17.422L15.573 17.422"/>
 <path stroke-width="0.071" d="M16.143 16.64L16.123 16.631"/>
 <path stroke-width="0.071" d="M16.222 16.801C16.213 16.716 16.184 16.661 16.143 16.64"/>
 <path stroke-width="0.071" d="M16.068 17.222C16.057 17.222 16.044 17.237 16.032 17.263"/>
 <path stroke-width="0.071" d="M15.994 17.295L16.001 17.301C16.007 17.303 16.016 17.295 16.024 17.278"/>
 <path stroke-width="0.071" d="M15.974 17.134L15.968 17.147C15.958 17.181 15.96 17.21 15.973 17.216L15.983 17.214"/>
 <path stroke-width="0.071" d="M15.974 17.134C15.992 17.099 16.001 17.064 16.004 17.033"/>
 <path stroke-width="0.071" d="M16.047 16.937C16.03 16.934 16.012 16.963 16.006 17C16.004 17.012 16.003 17.022 16.004 17.033"/>
 <path stroke-width="0.071" d="M16.053 16.94L16.047 16.937z"/>
 <path stroke-width="0.071" d="M16.053 16.94C16.062 16.936 16.074 16.92 16.082 16.902"/>
 <path stroke-width="0.071" d="M16.114 16.861C16.106 16.859 16.097 16.87 16.091 16.885"/>
 <path stroke-width="0.071" d="M16.12 16.87L16.114 16.861z"/>
 <path stroke-width="0.071" d="M16.141 16.949L16.132 16.949"/>
 <path stroke-width="0.071" d="M16.14 17.03L16.146 17.015C16.157 16.984 16.155 16.952 16.141 16.949"/>
 <path stroke-width="0.071" d="M16.14 17.03C16.123 17.065 16.112 17.1 16.111 17.132"/>
 <path stroke-width="0.071" d="M16.068 17.222L16.071 17.225C16.083 17.228 16.1 17.204 16.106 17.173L16.111 17.149"/>
 <line stroke-width="0.071" x1="15.993" y1="17.271" x2="16.024" y2="17.278"/>
 <line stroke-width="0.071" x1="15.993" y1="17.251" x2="16.032" y2="17.263"/>
 <line stroke-width="0.071" x1="15.989" y1="17.099" x2="16.111" y2="17.132"/>
 <line stroke-width="0.071" x1="16.004" y1="17.013" x2="16.132" y2="17.047"/>
 <line stroke-width="0.071" x1="16.14" y1="17.03" x2="16.007" y2="16.995"/>
 <line stroke-width="0.071" x1="16.137" y1="16.951" x2="16.062" y2="16.931"/>
 <line stroke-width="0.071" x1="16.059" y1="16.936" x2="16.15" y2="16.96"/>
 <line stroke-width="0.071" x1="16.12" y1="16.907" x2="16.085" y2="16.896"/>
 <line stroke-width="0.071" x1="16.111" y1="17.149" x2="15.983" y2="17.114"/>
 <line stroke-width="0.071" x1="15.573" y1="17.422" x2="15.878" y2="17.504"/>
 <line stroke-width="0.071" x1="16.024" y1="17.278" x2="16.032" y2="17.263"/>
 <line stroke-width="0.071" x1="16.091" y1="16.885" x2="16.082" y2="16.902"/>
 <line stroke-width="0.071" x1="16.111" y1="17.149" x2="16.111" y2="17.132"/>
 <line stroke-width="0.071" x1="15.961" y1="17.193" x2="16.068" y2="17.222"/>
 <path stroke-width="0.071" d="M16.204 16.766C16.21 16.751 16.21 16.742 16.207 16.727"/>
 <polyline stroke-width="0.071" points="16.204 16.766 16.195 16.743 16.187 16.734"/>
 <polyline stroke-width="0.071" points="16.123 16.631 16.109 16.625 15.974 16.588 15.941 16.579 15.806 16.542"/>
 <path stroke-width="0.071" d="M16.224 16.923C16.225 16.882 16.227 16.843 16.222 16.801"/>
 <path stroke-width="0.071" d="M15.983 17.214C16 17.239 15.989 17.265 15.994 17.295"/>
 <path stroke-width="0.071" d="M16.132 16.949C16.114 16.923 16.126 16.897 16.12 16.87"/>
 <path stroke-width="0.071" d="M1.656 12.951C1.612 12.939 1.546 13.035 1.511 13.166C1.476 13.297 1.484 13.412 1.528 13.423C1.539 13.426 1.551 13.423 1.562 13.416"/>
 <path stroke-width="0.071" d="M1.677 12.968L1.656 12.951"/>
 <path stroke-width="0.071" d="M1.475 13.442L1.487 13.448C1.548 13.464 1.633 13.359 1.673 13.212C1.709 13.087 1.702 12.971 1.659 12.929"/>
 <path stroke-width="0.071" d="M1.633 12.909C1.581 12.894 1.508 13.005 1.468 13.153C1.451 13.214 1.443 13.271 1.443 13.317"/>
 <path stroke-width="0.071" d="M1.659 12.929C1.652 12.917 1.643 12.91 1.633 12.909"/>
 <line stroke-width="0.071" x1="1.488" y1="13.449" x2="1.413" y2="13.429"/>
 <path stroke-width="0.071" d="M1.475 13.442C1.445 13.407 1.443 13.362 1.443 13.317"/>
 <clipPath id="iso3856680" fill="none" stroke="none">
  <path d="M0 18.713L0 18.713 0 18.713 0 18.713 0 18.713z"/>
 </clipPath>
 <g clip-path="url(#iso3856680)">
  <line stroke="#FFFFFF" stroke-width="0.353" stroke-linecap="butt" stroke-miterlimit="10" x1="0" y1="18.713" x2="0.353" y2="18.359"/>
 </g>
 <path stroke="none" d="M0 18.713L0 18.713 0 18.713 0 18.713 0 18.713z"/>
</svg>
