<svg xmlns="http://www.w3.org/2000/svg" xmlns:xlink="http://www.w3.org/1999/xlink"
    viewBox="0 0 1200 1200" enable-background="new 0 0 1200 1200">
    <style type="text/css">.st0{fill:none;} .st1{fill:none;stroke:#000000;stroke-linecap:round;stroke-linejoin:round;stroke-width:3;} .st2{clip-path:url(#SVGID_2_);} .st3{fill:none;stroke:#FFFFFF;stroke-miterlimit:10;}</style>
    <path class="st0" d="M1054.6 0h-909.2v1200h909.1l.1-1200z"/>
    <path class="st1"
        d="M661.1 798.2l-2.3-1.9M632.7 797.6l-.2 41.8M647.9 896.9l-.1 34.5M673.4 903.8v23.4M612.8 924.1l.1-36.6M696.1 910.4v-.5M661 839.5v-5.7l.1-29.9c0-1.3.5-5.7-.4-7.7-.6-1.5-1.8-2.8-3.2-3.6-3.3-2.1-6.4-3.1-10.3-3.3-3.6.1-7.7.6-10.5 3.2-.7.7-1.3 1.5-1.6 2.5l-.2.9-2.3 1.8M661.1 798.2c-1 6.1-8.6 7.6-13.8 7.9-4.3-.1-8.9-.7-12.2-3.6-2-1.7-3.2-4.3-1.9-6.8.4-.7.9-1.3 1.4-1.9 1.2-1.2 2.7-1.9 4.1-2.7M635 795.8c.2 3.2 2.8 5 5.6 6 4.5 1.6 10.2 1.6 14.4-.8 2.7-1.5 5-4.4 3-7.4-.6-1-1.5-1.6-2.4-2.3M696.5 910c-2.8 2.6-6.1 4.4-9.3 6.4-2.5 1.6-4.9 3.2-7.2 5.1l-2 1.7-2.4 2.2c-.8.7-1.6 1.6-2.6 1.9M599.5 911.5c1.3 2.2 2.6 4.3 4.3 6.2 2.5 2.8 5.5 5.1 8.9 6.4 4.7 2 10 2.5 15 3.4 3.5.7 7 1.4 10.4 2.3 3.6.8 7.3 2.1 11 1.4 5-.8 9.4-3.7 13.3-6.7M673.4 927.2c-.9.3-.4.1-1.6.2-3.3-.2-6.3-1.5-9.3-2.9M673.1 927.3c-8.3 2.6-16.6 3.9-25.4 4.1M596.7 912l1-.1 1.8-.4M610 922.7c-3.7-2.1-7.1-4.4-10.2-7.4 0 0-3-3.1-3.1-3.4v-23.099999999999998l.1-5.7M506.4 756.5l-2.4-1.9M477.9 756l-.1 41.7M493.1 855.3l-.1 34.5M518.6 862.2v23.3M458 882.5l.1-36.6M541.4 868.7v-.4M506.2 797.8v-5.7l.1-29.9c0-1.3.5-5.6-.3-7.7-.6-1.6-1.8-2.8-3.2-3.7-3.2-2.1-6.4-3.1-10.3-3.3-3.6 0-7.7.6-10.5 3.2-.7.6-1.4 1.5-1.6 2.5l-.2.9-2.3 1.9M506.4 756.5c-1 6.2-8.6 7.6-13.8 7.9-4.2-.1-8.8-.7-12.2-3.6-2-1.7-3.2-4.4-2-6.9.4-.7.9-1.3 1.4-1.8 1.2-1.2 2.7-1.9 4.1-2.7M480.2 754.1c.2 3.2 2.8 5.1 5.6 6 4.5 1.6 10.1 1.5 14.4-.8 2.7-1.4 5-4.4 3-7.4-.7-1-1.5-1.6-2.5-2.2M541.7 868.3c-2.8 2.6-6.1 4.5-9.3 6.4-2.5 1.6-4.9 3.2-7.1 5.1l-2 1.7-2.4 2.2c-.7.7-1.6 1.6-2.6 1.9M444.8 869.8c1.3 2.2 2.6 4.3 4.3 6.2 2.5 2.8 5.5 5.1 8.9 6.5 4.7 2 10 2.4 15 3.4 3.5.7 7 1.5 10.4 2.3 3.6.8 7.4 2.1 11.1 1.4 5-.8 9.4-3.7 13.3-6.7M518.6 885.5c-1 .2-.5.2-1.6.2-3.3-.2-6.3-1.6-9.3-2.9M518.3 885.6c-8.3 2.7-16.6 4-25.3 4.2M442 870.3l1.7-.3 1.1-.2M442 841.5l-.1 5.7v23.099999999999998c0 .3 3.1 3.4 3.1 3.4 3.7 3.5 7.9 6.1 12.3 8.4M288.1 111.4l-2.7 1.6M261.6 77.2l31.5 8.5M216.3 56.4l-.2-.1M214 62.1l-.3-.1M217.4 143.8l-.7.5M244.3 28.7h.2M244.3 28.7v.2M237.4 20.2l-52.1-14M146.4 101.1l52.1 14M205.2 125.8l7.9 2M204.4 124.8l.5.1M203.8 120.5l.5.1M213 111.1l-8.1 13.8M149.5 124.2l47.7 12.8M213.6 104.5l-9.3 16.1M213.7 104.1l-6.6-1.8M217.8 41.7l-52-14M229.6 34.8l-55.9-15.1M224.2 47.3l6 1.6M221.6 66.1l-5.3-9.7M214 62.1l5.2 9.8M211.9 69.9l7.3 2M153.8 56.9l52 14M240.9 32.3l1.3-4.4M295.7 89.8c-.4-.9-.9-1.4-1.9-1.4-1.7.5-2.8 2.1-3.6 3.6-2.4 3.9-3.6 8.7-3.9 13.2-.1 2-.2 5.1 1.8 6.2M254.3 104.7l5.5 1.5 20.1 5.4c.7.1 5.4 2.4 7.4 1.2l2.4-1.6M288.3 111.5c2 .1 3.3-2 4.2-3.6 2.6-4.5 4.3-10.6 3.8-15.8-.2-1.8-1-3.2-1.8-4.9-.5-.9-.9-1.4-2-1.6-2.4.3-3.8 2.7-4.9 4.5-2.6 4.7-4.2 10.2-4.4 15.6-.2 2.4-.2 6 2.1 7.4M248.5 25.8c-1-3.9-2.5-7.6-5.1-10.7-.9-1.1-2-2.2-3.5-2.6-1.8.2-2 3.1-2.2 4.6l-.2 1.4c-.3 1.9-.5 3.8-1.2 5.6-1.5 4-4 7.4-6.8 10.6-2 2.2-4.1 4.3-6.9 5.5-2.4 1.2-5.1 1.1-7.6 2-3.4 1.2-6.5 3.5-8.5 6.6-3.5 5.4-3.1 12.2-1.8 18.2.6 2.9 1.6 5.8 2 8.7.5 4.3.2 8.6-.4 12.8-.6 4.3-1.3 8.6-2.3 12.7-1.2 4.9-3 9.5-5.6 13.7-2.1 3.3-4.4 6.6-5.7 10.3-.7 2.1-1.2 4.5-.6 6.8 1.1 3.4 4.6 5.4 8 5.3 4.6 0 9.3-2.3 13.6.3l1.3.9.2.2M163.6 128c2.3 2.3 1.6 1.3 6.7 2.7l41.1 11.1 5.5 1.5M204.1 101.4c-.7 7.4-1.1 14.7.1 22.1.7 4.8 2.1 9.4 5.3 13M164.8 129.2l1.2 1.1c2.4 1.7 5.5 2.1 8.3 2.9l36.7 9.9 5.5 1.5.2-.2M216.5 144.5l.4-1.8M204.9 124.9c.3.8.4 1.2.8 1.9l.5.6c1.3 1.3 2.7.6 4.3.4 1.2-.1 1.4-.1 2.5.1M204.3 120.6c-.1-5.9 1.3-11.4 2.6-17.1.9-4 1.7-8.1 2.5-12.2.6-3.9 1.2-7.8 1.5-11.8.3-2.5.4-5.1.7-7.5.5-3.3 1.4-6.6 2.4-9.8M216.3 56.4c1.2-2.3 2.5-4.5 4.3-6.4 1.5-1.5 3.5-2.5 5.1-4 2.6-2.3 5-5 7.1-7.8l1.8-2.5c2-2.8 3.9-7 7.6-7.8M233.3 30.2c3.3-2.4 7.9-4.9 11.8-2M243.5 27.4c.3-3.7.1-7.3-1.1-10.8-.7-1.8-1-2.2-1.9-3.9M146.4 100.9c0 7.9.8 15.7 3.1 23.3-.4-8.4-3.3-16.4-3.1-24.8 0-3.2.9-6.4 1.4-9.6.7-3.8 1.3-7.7 2-11.6l1.8-11.1c.4-2.4.5-5.2 1.2-7.6 2-7.1 4.5-14.1 7.5-20.8 1.4-3.1 2.8-6.2 4.4-9.1l1.3-2.4.3-.4 2.7-2.2c1.7-1.5 3.2-3.2 4.8-4.8 1.8-2.1 3.7-4.2 5.4-6.4l3.9-5.1 2.2-2.1c2.8-2.4 6.2-4.5 9.9-5.1 2.6-.4 5.7 1 8 1.6l31.8 8.6 5.5 1.5M152.8 59.6c2.2-6.6 6.4-12.3 9.2-18.6 1-2.5 1.9-5 2.5-7.7.5-2 .6-4.2 1.4-6.1M206.9 84.6c3.9-16.3 9.4-32.3 18.9-46.2M221.6 66.1c-.8 1.8-1.6 3.8-2.4 5.7M865.2 211.3l55.8 15M906.6 325.4l9.5 2.6M916.2 327.5l-8.7-2.3M876.9 195.3l52 14M909.4 236.4l-52-14M898.7 267.4l-52.1-14M899.7 287.9l-55.8-15M894.1 309.9l-52.1-14M814.2 255.5c-4.1-1.1-8.3-2.1-12.3-3.3-.4-.1-.8-.3-1-.7-3.6-4.6-2.5-11.1-.9-16.1.4-1.3.9-2.6 1.5-3.8 1.4-2.9 3.5-5.6 6.6-6.7.5-.2.8-.2 1.2-.1 4 1 8.1 2.2 12.1 3.3M800.5 250.7c-.9-2.2-.9-4.7-.7-7.2.4-4.4 1.6-8.7 3.5-12.8 1.1-2.2 2.3-4.2 4.2-5.7M842.8 280.3c-.9-1.7-1.3-3.8-1.5-5.8-.6-4-.4-8.2.1-12.3 1-9.6 3.6-19.2 7.7-27.9 2.2-4.5 4.7-8.9 8.3-12.5"/>
    <path class="st1"
        d="M916.1 328c.1-.3.2-.9 0-1.2-1.4-1.7-3.6-2.1-5.7-2.1-1.7.2-3.3.5-4.9 1.2l-3.8 1.7c-1.7.8-3.5 1.2-5.5 1.5-1.4 0-2.6-.1-4-.6-.7-.2-1.3-.6-1.9-1.1-3.6-3.2-1.2-8.6.6-12.1l.9-1.7.6-1.2 1.3-2.1c.6-1.1 1.4-2.3 1.9-3.5 1.7-4.9 2.7-10.1 3.5-15.2.7-4.7 1-9.4.9-14.2 0-2.2.1-5-.5-7.2s-1.6-4.3-2.2-6.5c-1.6-5.4-2.2-11.4.1-16.7 1.7-4.2 5.1-7.5 9.1-9.6 1.6-.8 3.6-1.1 5.1-2 2.9-1.8 5.5-4.3 7.6-7 3.9-4.7 7.2-10.5 9.2-16.3.2-.6.4-2.4.5-2.9.2-2.1.4-4.2.8-6.3.2-1.1.5-2.5 1.4-3.3 1.1-.9 2.5-.3 3.5.3 3.1 1.9 5.1 5.3 6.4 8.6.8 2 1.1 3.7 1.5 5.9.5 2.7 1.1 5.5 1.8 8.2.7 2.8 1.5 5.5 2.6 8.1l1.5 2.8v3c0 3.3-.2 6.5-.4 9.8-.6 7.2-1.7 14.4-3.3 21.5l-.2.6-1.2 3.4-2.5 7c-1.8 4.9-3.4 9.8-5.1 14.7-1.3 3.7-2.4 7.6-3.8 11.3-.7 1.9-2 3.9-3 5.7-2.3 4.2-5 8.2-8 12l-3.1 3.7c-.1.2-.1.2-1.7 1.8zM931.9 304.9c-4.1 8.1-8.8 15.9-15.8 21.9M895.7 306.8c.5 7.2 1.3 15 6 20.8M893.5 328.8l-5.5-1.5-35.6-9.6-5.6-1.5c-1.5-2.6-2.2-5.9-2.9-8.7-1.9-7.6-2.2-15.4-1.5-23.1.5-5.2 1.4-10.3 1.8-15.5.4-4.6.6-9.2 1.8-13.7.9-3.2 2.6-6.2 4-9.1 1.6-3.3 3.2-6.5 4.4-10 .9-2.6 1.5-5.3 2-8 .4-2.2.4-4.7 1.3-6.7 1.3-2.8 3.7-5.2 5.6-7.7 1.3-1.6 2.6-3.4 3.7-5.1 5.2-7.8 10.6-16.6 19.7-20.1 3.3-1.3 4.7-.3 8.7.9l32 8.6 5.5 1.4M889.4 187.8l5.5 1.4 31.9 8.6 5.5 1.5 1.1 1.8c1.3 2.5 2 5.2 2.5 7.9M928.5 212.2c3.3-2.3 7.3-4.3 11.2-2.4 1.1.6 1.3.9 2.3 1.6M845.7 256.6c2.8-12.1 6.8-23.8 12-35.2M899.7 270.3c2.9-12 6.8-23.5 12-34.7M846.7 316c-1.8-6-3.7-12.1-4.5-18.3M265.7 107.7c-1.6 2.8-4 6.3-7.5 6.4-3.5-1.1-3.9-5.8-3.9-9v-2c.1-4.8 1-9.5 2.4-14 1.3-4.4 3-8.8 5.5-12.6.6-1 1.3-2 2.1-2.9.6-.7 1.3-1.3 2.1-1.9l1-.5 1-.3c2.9-.5 4.1 3.1 4.5 5.4l.2 1.7.1 1.9v.5M269.1 70.9l-5.9-1.6c-2.1.1-3.6 1.3-5 2.8-2.7 3.1-4.5 6.9-5.9 10.8-2.5 6.5-4.2 13.8-4 20.8.1 2.6.3 6.3 2.4 8.1.5.6.8.6 1.6.8l5.9 1.6M832.1 342.9l-6.5-1.7M817.1 349.7l6.8 1.3M824.6 349.7l-4.9-5M825 342.3l4.8 5.1M837.2 198l6.5 1.7M813.6 291.5l6.5 1.7M832.1 342.9l5.8-8.6M824.4 336.2l-4.7 8.5M821.5 932.9l-6.8-1.2M851.8 764.8l6.7 1.2M864.9 713.4l-6.7-1.2M857.5 698.4l6.8 1.2M227.9 133.8l6.4 1.7M239.8 183.5l6.4 1.7M325.6 137.8l-68.2 61.3M251.4 196.8l6 2.3M296.8 110.4l-50.6 74.8M255.5 785.4l92.5-83M254.6 780.9l92.5-83.1M248.6 778.7l6 2.2M255.5 785.4v5.9M324.7 554.4l6 2.2M325.9 568.3l6 2.2M320.6 621.8l-6.1-2.2M290.8 85l-1.3-5.5-7-28.9-1.3-5.6c-1.1-4.1-2.8-9.3-7-11.2l-2-.6-6.5-1.7-2.1.1c-2.6.4-5.1 1.9-7.1 3.6-4.1 3.4-7.3 7.8-10 12.3l-2.5 4.2c-4 7.3-7.1 15-9.7 22.9-3.3 10.1-5.8 20.6-7.1 31.2-.9 8-1.3 16.2-.1 24.2.5 3.1 1.4 6.4 2.1 9.3l9.3 38.7 1.3 5.5c.3 1.4.1 1.1.7 2.4 1.3 2.9 3.8 4.4 6.3 6.3 1 .8 3.9 2.3 4.6 4.2l.1.4 1.1 5.6 71 346.4c.6 3.1 1.4 6.7 1.8 9.9.9 7.1.6 14.4-.2 21.6-1.3 11.1-4.1 22.2-8 32.7-1.4 4-3.1 7.9-4.7 11.8l-61.6 148.5-2.2 5.2v1.5c0 2 .7 4.1 1.7 5.9 1 1.8 2.3 3.3 4 4.5l1.2.7 5.5 1.5 544.7 146.6 5.5 1.5c.7.2 2.5 0 3.1-.2 2.3-.4 4.7-1.7 6-3.8l2.7-5 46.3-84 2.8-5 .6-1.3c.6-1.5.3-1.2.6-2.7l1.3-5.5 16.7-75.3c6.7-30.2 11.6-60.8 12.6-91.8.3-13.1-.3-26-1.8-38.9l-23.5-203.2-.6-5.6M820.2 936.9c.6-1.1.8-1.4 1.1-2.6l.2-1.4 2.7-5 46.3-84 2.7-5M272.1 33.2l-2.1.1c-2.6.4-5.1 1.9-7.1 3.6-4.1 3.4-7.3 7.8-10.1 12.3l-2.4 4.2c-4 7.3-7.1 15-9.7 22.9-3.4 10.1-5.8 20.6-7.1 31.3-1 8-1.3 16.2-.1 24.2.5 3 1.3 6.3 2.1 9.3l9.3 38.7 1.3 5.5.1.4c.6 1.7 4.1 3.7 4.6 4.1l3.8 2.9c1 .9 1.7 2.6 2.1 3.9.6 1.8.2.8.5 2.6l1.2 5.6 70.9 346.4c.6 3.1 1.5 6.7 1.8 9.9 1 8.3.5 16.6-.6 24.8-1.2 7.8-2.9 15.5-5.4 23-2 6.3-4.4 12.3-7 18.4l-61.6 148.5c-.6 1.6-2.4 4.4-2.4 6.7 0 .9.3 1.9.7 2.7l.3.4 5.5 1.5 544.7 146.7 5.5 1.5 1.5-.5c2.8-1.5 2.9-6.1 3.3-8.5l34.6-155.7c4.6-20.7 8.2-41.8 7.5-63.1-.2-4.9-.7-9.7-1.3-14.5l-39.1-337.4-.7-5.7.1-1.2c.4-2.2 2.9-5.9 3.6-7.1l.6-1.1 2.7-5M821.5 932.9l1.2-5.6 34.6-155.7c4.6-20.7 8.2-41.8 7.6-63.1-.2-4.8-.7-9.6-1.3-14.5l-39-337.3-.7-5.7.1-.7.6-.5 2.6-1.2c1-.4 2.6-.9 3.5-1.7l.7-.8 3.2-4.7.7-1.2 3.2-4.7M855 190.2l-3.5-.9h-2.2c-3.7.6-7 3.3-9.6 5.9-5.2 5.4-9.1 12.1-12.4 18.8-6.3 12.9-10.5 26.9-13 41.2-1.7 9.3-2.7 18.9-1.9 28.4.4 4.6 1.5 9 2.6 13.5l9.3 38.7 1.4 5.6c.3 1.4-2.9 2.1-3.2 2.3l-2.6 1.2c-.8.5-1.2 1.1-1.7 1.7M831.4 346c1.5-3 .2-5.2-.7-8.6l-9.3-38.7-1.4-5.5c-2-9.2-1.7-18.7-.6-28 2-17 6.8-34.2 14.3-49.6 2.7-5.6 5.9-11.1 9.8-15.9 2.5-3.1 5.3-5.8 8.9-7.7M811.1 940.9v-5.8l4.7-8.6M323 131.4l-4.3 3.8-59.8 53.6c-5.5 4.9-2.6 2.8-8.5 6.4M297.8 112l-3.2 4.7-44.3 65.4c-4.1 6.1-1.6 3.7-7.4 7.2M294.9 102.3l1 4.1c.1.8.5 4 1.6 5.2l.4.4 4.5 3.5 16.1 12.4 4.5 3.5c1 .9 1.8 2.6 2.1 3.9.6 1.7.2.8.5 2.6l1.2 5.6 71.5 349.1c.8 3.7 1.6 7.5 2.2 11.3 1.3 9.2 1.5 18.5 1 27.8-.7 13.9-3 27.6-6.2 41.2-4 16.5-9.6 32.3-16.1 47.9l-29.8 71.9c-.7 1.6-2.4 4.5-2.4 6.8.1.9.3 1.8.8 2.6l.3.5 5.5 1.5 477.4 128.5 5.5 1.5M632.6 834.2c-2.5 3.7 1.2 7.5 4.3 9 5.8 3 13.8 3 19.7.1 3.2-1.6 6.8-5.3 4.4-9M477.8 792.5c-2.4 3.7 1.3 7.4 4.4 9 5.8 3 13.8 3 19.6.2 3.2-1.6 6.8-5.3 4.5-9M531.2 1068.6l2.8 1.8"/>
    <path class="st1"
        d="M530.4 1064.9c0 1.1-.1 1.4.3 2.5 1 3 4.1 4.9 6.8 6 5.1 2.1 11 2.4 16.3 1.1 2.4-.6 4.8-1.5 6.8-2.9.8-.6 1.6-1.3 2.2-2.1.6-.7 1-1.5 1.3-2.4 1.7-5.5-4.4-9.1-8.7-10.4-2.7-.8-5.4-1.1-8.2-1.2-6.3.3-15.3 2.1-16.8 9.4zM569.1 1056.8c-6.7-4.8-14.4-6.3-22.5-6.4-6.4.3-12.9 1.4-18.5 4.9-2.6 1.6-5.5 4-6.7 7-1.3 3.1-1 6-1 9.4M525.5 1073c-.8-.7-1.8-1.9-2.3-2.9-.6-1-1-2-1.2-3-1.5-7.4 6.4-12.4 12.4-14.4l2.4-.7c7.5-2 15.8-1.9 23.2.6 3.5 1.1 6.9 2.8 9.5 5.3.9.9 1.7 1.8 2.2 2.8s1 2 1.2 3c1.5 7.4-6.4 12.4-12.4 14.4-1.6.6-3.2 1-4.9 1.3l-2.6.4-1.6.2M536.5 1072.9c-1-.7-1.9-1.5-2.5-2.6-2.3-4 1.2-7.6 4.7-9.1 5.5-2.4 12.6-2.4 18 .2 2.9 1.4 6.1 4.5 4.7 8.1l-.6 1.1c-.6.9-1.4 1.7-2.4 2.3M560.9 1070.3c0-6.5-1.2-3.9 2.7-8.1M571.7 1060.7c1.3-.1 1.6 1 2 2.1.4 1 .7 2.4.7 3.5v10.8c0 2.1.5 6.5-.5 9M556.3 1081.3l1.1-.2 2.5-.6c5.9-1.8 13.6-5.7 14.5-12.6.2-1.4 0-1.7-.1-3.1M569.3 1057c1.4 1.2 2.5 2.5 3.6 4M521.8 1072c0-1 .3-1.6 1.4-1.9M522.2 1072.1c-1.2-1.6-1.6-3.3-1.8-5.2M273.3 999.1l2.7 1.8"/>
    <path class="st1"
        d="M272.4 995.4c0 1.1-.1 1.4.3 2.5 1 3 4 4.9 6.8 6.1 5.1 2.1 11 2.4 16.3 1.1 2.4-.6 4.8-1.5 6.8-2.9.9-.6 1.6-1.3 2.3-2.1.6-.7 1-1.5 1.3-2.4 1.7-5.5-4.5-9.1-8.7-10.4-2.7-.8-5.4-1.1-8.3-1.2-6.2.3-15.3 2-16.8 9.3zM311.1 987.3c-6.6-4.8-14.4-6.4-22.5-6.4-6.4.3-13 1.4-18.6 4.9-2.6 1.6-5.5 4-6.7 6.9-1.2 3.2-.9 6-.9 9.5M267.5 1003.6c-.9-.7-1.8-2-2.3-2.9-.5-1-1-2-1.2-3.1-1.5-7.4 6.5-12.4 12.4-14.4l2.4-.7c7.5-2 15.8-1.9 23.2.5 3.5 1.1 6.8 2.8 9.5 5.4.9.8 1.6 1.8 2.2 2.8.5 1 .9 2 1.2 3 1.5 7.5-6.4 12.4-12.4 14.5-1.6.5-3.2.9-4.9 1.3l-2.6.4-1.6.2M278.5 1003.5c-1-.7-1.9-1.5-2.6-2.6-2.2-3.9 1.3-7.5 4.7-9 5.5-2.5 12.6-2.5 18 .2 2.9 1.4 6.1 4.5 4.7 8.1l-.6 1s-1.4 1.7-2.4 2.4M303 1000.8c0-6.5-1.2-3.9 2.7-8M313.7 991.2c1.3-.1 1.6 1 2.1 2.1.4 1 .7 2.3.7 3.5v10.8c0 2.1.5 6.6-.5 9M298.3 1011.8l1.1-.2 2.5-.6c6-1.8 13.6-5.7 14.6-12.6.2-1.4 0-1.8-.1-3.1M311.3 987.5c1.4 1.3 2.5 2.5 3.6 4.1M263.9 1002.5c0-1 .4-1.6 1.3-1.8M264.2 1002.7c-1.2-1.6-1.6-3.3-1.8-5.2M789.2 1138l2.7 1.8"/>
    <path class="st1"
        d="M788.3 1134.3c.1 1.1-.1 1.4.3 2.5 1.1 3 4.1 4.9 6.9 6.1 5.1 2 11 2.4 16.3 1.1 2.4-.6 4.8-1.5 6.8-2.9.9-.6 1.6-1.3 2.3-2.2.6-.7 1-1.5 1.3-2.4 1.7-5.4-4.5-9.1-8.7-10.4-2.7-.8-5.4-1.1-8.2-1.2-6.3.4-15.5 2.1-17 9.4zM824 1124.2c-5.8-3.5-12.8-4.3-19.4-4.4-6.4.3-13 1.4-18.5 4.8-2.7 1.6-5.5 4-6.7 7-1.3 3.1-1 6-1 9.4M783.4 1142.4c-.8-.7-1.7-1.9-2.3-2.9-.6-.9-1-2-1.2-3-1.3-6.5 4.9-11.3 10.2-13.5 10.6-4.5 23.9-4 33.8 1.6M794.5 1142.4c-1-.7-1.9-1.5-2.6-2.6-2.3-3.9 1.3-7.5 4.7-9.1 5.4-2.5 12.6-2.4 18 .2 3 1.4 6.1 4.4 4.7 8.1l-.6 1s-1.5 1.7-2.3 2.4M821.3 1148.6c-2.3 1-4.6 1.7-7.1 2.1M821.5 1146.3c-3.8 1.8-7.9 2.7-12.1 3.1M818.9 1139.7c0-6.5-1.2-3.9 2.7-8.1M781.1 1139.6c-1 .3-1.4.9-1.4 1.9M778.4 1136.4c.2 1.9.7 3.5 1.8 5.2M820.5 1165.4l-.4.2M385.6 1030.9l2.7 1.8"/>
    <path class="st1"
        d="M384.9 1028.7c.7 3.4 3.5 5.4 6.6 6.5 5.9 2.1 14 1.9 19.1-2.1.7-.6 1.4-1.2 1.8-2 .4-.7.7-1.4.9-2.2.6-3.9-3.5-6.5-6.6-7.7-2.4-.8-4.8-1.1-7.4-1.2h-2c-4.9.4-12.3 2.6-12.4 8.7zM421.6 1045c.7-2.2.3-5.8.3-7.6 0-3.6.7-7.7-.6-11.2-1.1-2.8-3.4-5-6-6.6-4.5-2.8-9.8-3.7-15-4-6 0-12.2.8-17.4 4-2.6 1.6-4.9 3.7-6 6.6-.8 2.1-.6 4.4-.6 6.6M377.6 1033.2c.3-.6.7-.8 1.2-1M407.9 1034.7c2-1.4 3.3-3.9 2-6.2-.4-.7-1-1.3-1.7-1.8-2.6-2-6-2.5-9.3-2.6-3.2.2-6.6.7-9.1 2.7-.7.5-1.2 1.1-1.6 1.9-1.2 2.2 0 4.7 2 6M380.1 1033.9c-.9-.9-1.5-1.9-1.9-3-2.4-6.5 4.5-11.3 9.7-13.1l2.1-.6c5.9-1.6 12.5-1.6 18.5.1 2.6.7 5.2 1.9 7.4 3.5.9.7 1.7 1.5 2.4 2.3.7.8 1.2 1.7 1.6 2.6 2.5 6.5-4.5 11.3-9.7 13.1l-2.1.7c-1.8.5-2.4.5-4.3.9M408.3 1041.4c5-1.3 11.1-3.9 13.1-9.2.5-1.2.4-1.5.6-2.8M420.5 1024.7s-.5-.4-.8-.4h-.3M412.6 1025.6c-3.6 3.9-2.7 1.6-2.7 7M377.3 1033.1c-.6-1.2-.9-2.3-1-3.7M682.3 1110.8l2.6 1.8"/>
    <path class="st1"
        d="M681.6 1108.5c.7 3.4 3.5 5.4 6.6 6.5 5.9 2.1 14 1.9 19.1-2.1.7-.6 1.3-1.2 1.8-2 .4-.7.7-1.4.9-2.2.6-3.9-3.5-6.5-6.6-7.7-2.4-.8-4.8-1.1-7.4-1.2h-1.9c-5 .5-12.4 2.7-12.5 8.7zM718.2 1124.9c.6-2.2.3-5.8.3-7.6 0-3.6.7-7.7-.6-11.1-1-2.8-3.4-5-5.9-6.6-4.6-2.8-9.8-3.7-15.1-4-6 0-12.1.8-17.4 4-2.5 1.6-4.8 3.7-5.9 6.6-.8 2.1-.6 4.4-.6 6.6M674.3 1113c.2-.6.7-.8 1.3-1M704.6 1114.5c2-1.4 3.3-3.9 2-6.2-.5-.7-1-1.3-1.7-1.8-2.6-2-6-2.5-9.3-2.6-3.2.2-6.6.7-9.2 2.7-.6.5-1.2 1.1-1.6 1.9-1.2 2.2 0 4.7 2 6M676.8 1113.8c-.8-.9-1.5-1.9-1.9-3-2.4-6.5 4.5-11.3 9.7-13.1l2.1-.7c6-1.6 12.5-1.6 18.5.1 2.6.7 5.1 1.9 7.4 3.5.9.7 1.7 1.5 2.5 2.3.6.8 1.2 1.7 1.6 2.6 2.4 6.5-4.5 11.3-9.8 13.1l-2.1.7c-1.9.5-2.4.5-4.3.8M704.9 1121.3c5.1-1.3 11.1-3.9 13.1-9.2.5-1.2.4-1.5.6-2.8M717.1 1104.5s-.4-.3-.8-.3h-.4M709.3 1105.5c-3.7 3.8-2.7 1.5-2.7 7M674 1113c-.6-1.2-.8-2.3-1-3.7M619.5 1091.1v7M220.4 1032.3l-7.8-2.1M816.5 1194l-592.3-159.5M224.2 1027.5l-3.8 4.8M832.9 1191.2l-.7-.3M832.9 1191.2v-1.2M828.1 1195.9l4.8-5.9M224.2 997.4l592.3 159.4M227.9 992.9l592.2 159.4M248.7 843.1l7.8 2.1M212.6 1008.5l7.8 2.1M820.1 1189.5l-3.6 4.5M820.4 1193.8l7.7 2.1M822.6 1197.6v-3.1M828.1 1174.2l-7.7-2.1M824.6 1120l-549.8-148M248.7 998.4l21-26M278.4 907.1l559.9 150.7M274.8 911.6l562.2 151.3M272.3 975.4l-19.5 24.2M864.2 1008.8l-7.7-2.1M985.3 723.7l-7.7-2.1M986.4 647.2l7.7 2.1M831.7 307l-7.7-2.1M216.3 141.3l7.7 2M253 204.5l-5.5-11.7M314.4 124.8l-28.6-60.3M551.2 1050.5l-244-65.7M809.2 1120l-244-65.7M629.7 1101.1c-.1-1.4.1-1.7-.5-3-.7-1.7-2-3-3.5-4.1-3.3-2.4-7.5-3.4-11.4-3.7l-2.7-.1c-4.3.2-8.1 1-11.9 2.8M269.1 795l-2.2 5.2-16 37.6c-2.5 5.8-4.9 11.5-7.2 17.4-4.9 12.6-9.3 25.4-13 38.4-8.7 29.7-14.9 60.4-17.2 91.4-1.1 15.1-.9 30.2-.9 45.2M220 1032.2c1.2 1.6 2.7 2.8 4.3 3.8M227.9 992.9l-3.6 4.5v37.1l.1 1.4.1 1.2c.8 3.5 4 3.1 7.3 3.9l581.2 156.5c2.6.7 5.4 2.6 7.5.6l.8-.8v-3.2M821.3 1197.3c1 .2 1.9.5 2.9.6s2 .1 3.1-.1c3.9-.7 5.8-4.5 8.1-7.3l37.4-46.3 3.6-4.4.6-1.2c.4-1 .5-1.7.5-2.8v-1.2l4.8-5.9v-9.3c0-7.2.2-14.3 1.2-21.5 2-15.4 7-30.2 13.1-44.5l118.9-279.7c4.3-10.1 8.4-20.2 12-30.6 7.2-20.2 12.9-41 17.4-62 4.4-21 7.5-42.3 8.5-63.8.7-14.8.6-29.6-1.6-44.2-1.1-7.1-2.5-14.3-4.9-21.1-1.5-4.1-3.4-8.1-5.2-12l-108.2-228.2-2.5-5.1M831.8 1195.1c.6-1.1.8-1.3 1-2.5l.1-1.4 3.6-4.5 37.4-46.2 3.6-4.4M828.1 1195.9c0-11.1-.2-22.2.2-33.3.3-8.1.9-16.3 1.8-24.4 4.9-44.4 16.8-88.2 34-129.4l2.2-5.2 116.7-274.6c2.4-5.6 4.7-11.1 6.6-16.9 3.3-9.9 5.6-20.1 6.8-30.5 1.2-9.5 1.7-19.8-1.2-29.1-.9-2.8-2.5-5.8-3.6-8.3l-157.5-332c-2-4.3-3.9-8.1-4.8-12.6-2.1-10.1-1.4-20.6-.1-30.7 1.5-11.2 4.1-22.3 7.7-33.1 2.7-8.1 6-16.1 10-23.7l1.4-2.6 2.9-4.7 2.9-4.1 2.9-3.5c3.7-4.1 9.9-9.5 15.9-6.8l2 1.4c1.5 1.3 1.6 1.6 2.4 2.9M820.4 1193.8c0-11-.2-22.1.2-33.2.3-8.2 1-16.3 1.8-24.4 4.9-44.5 16.9-88.3 34-129.5l2.2-5.3 116.7-274.6c2.4-5.5 4.7-11.1 6.6-16.9 3.2-9.9 5.6-20.1 6.8-30.5 1.2-9.5 1.8-19.9-1.1-29.1-.9-2.7-2.5-5.8-3.7-8.3l-157.5-332.1c-2-4.2-3.9-8-4.8-12.5-2-10-1.4-20.5-.1-30.5 2.5-19.6 8.3-39.4 17.7-56.8 3.5-6.5 7.5-12.9 13-17.8 2.3-2.1 5.1-4 8.3-4.6 2.6-.4 3.6.2 6.4.9l3.9 1M820.1 1152.3l-3.6 4.5v37.2c0 1.8.1 4.3 2 5.1M820.4 1190.6c-.2-.4-.2-.7-.2-1.2v-37.2M220.4 1032.3c0-15-.2-30.2.9-45.2 2.4-30.9 8.5-61.7 17.2-91.4 3.8-12.9 8.1-25.8 13-38.3 2.3-5.8 4.7-11.6 7.2-17.4l16-37.6 2.2-5.2M274.8 943.5c-.4 5.4-.3 10.7-.3 16.1v5.7l-4.8 6v1.2c.1 3.6 6.1 4 8.1 4.5l10 2.7 5.5 1.5M273.6 975.8c1.8-2.7 1.2-6.5 1.2-9.5v-54.7l3.6-4.5M281.8 908c1.9-6.2 4.4-12.1 6.9-18.1l32-75.2 2.2-5.2M258.1 229.5l-2.4-5.1-37-78c-2-4.2-3.9-8-4.8-12.6-1.3-6-1.4-12-1.2-18.1.2-7.5 1.2-14.8 2.6-22.1 2.7-14.3 7.1-28.5 13.4-41.6 3.5-7.2 7.4-14.4 12.8-20.4 2.9-3.2 6.7-6.7 11.1-7.5 2.6-.5 3.6.2 6.4 1l3.9 1 2.3.7c1.6.7 2.9 2 4 3.5l1.6 2.6M236.4 169.6l-2.4-5.1-7.6-16c-2-4.2-3.9-8-4.8-12.6-2.1-10-1.4-20.6-.1-30.7 2.2-16.7 6.7-33.2 13.7-48.6 3.7-8.2 8.2-16.4 14.2-23.1 2.9-3.2 6.7-6.6 11.1-7.3l2.5-.1M366.3 707.3l2.2-5.2 39-92c4.3-10 8.4-20.2 12.1-30.6 7.1-20.2 12.8-40.9 17.3-62 4.5-20.9 7.5-42.3 8.5-63.8.7-14.7.6-29.5-1.6-44.1-1-7.1-2.5-14.3-4.9-21.1-1.4-4.1-3.4-8.1-5.2-12l-101.9-214.8-2.5-5.1"/>
    <defs>
        <path id="SVGID_1_" d="M145.4 1200z"/>
    </defs>
    <clipPath id="SVGID_2_">
        <use xlink:href="#SVGID_1_" overflow="visible"/>
    </clipPath>
    <path class="st3" d="M145.4 1200l9.5-9.4"/>
    <path class="st0" d="M145.4 1200z"/>
</svg>
