<svg xmlns="http://www.w3.org/2000/svg" viewBox="0 0 1400 1400"
    enable-background="new 0 0 1400 1400">
    <style type="text/css">.st0{fill:none;} .st1{fill:none;stroke:#000000;stroke-linecap:round;stroke-linejoin:round;stroke-width:3;} .st2{fill:none;stroke:#000000;stroke-linecap:round;stroke-linejoin:round;stroke-miterlimit:10;} .st3{fill:none;stroke:#FFFFFF;stroke-miterlimit:10;}</style>
    <path class="st0" d="M1300 102.5h-1200v1195.1h1200v-1195.1z"/>
    <path class="st1"
        d="M151.9 1008.3l1051.9 285.9m10.6-2.9l56-54.5m-54.1 49.6v-2.7m0 0l-5.8 5.6m67.7-66.1l-5.8 5.7m0 0v2.8m-61.9 57.6l-8.8-2.3m-1052.4-286.7l-.4.5m.4 1.1v-83.5m0 0l1051.9 285.9m0 83.6v-83.6m0 0l.5-.5m-1047.7-290l-4.7 4.6m1052.4 280.2l-1047.7-284.8m1053 379.1l-1.1.9-1.1.4h-.9l-.9-.4-.7-.9-.6-1.4-.3-1.7-.2-1.9m5.8.5v4.5m-1057.7-291c-.4 2.5.5 4.9 2.6 6.4m1055.1 284.6c3.5 1.3 7.4-.4 8.8-3.9.3-.8.4-1.7.4-2.6m54.2-49.6c1.3-1.4 2-3.1 1.9-5m-1060-332.1v30m989.4 238.9l-989.4-268.9m4.7-4.5l-4.7 4.5m989.4 263.1l-984.7-267.6m-77 103.2l8.9 2.4m-1.8-.6c.6 1.2 1.4 2.3 2.3 3.2m1123 228.3l-56.1 54.7m-15.1 1.5l-1051.9-286m1051.9 286l.9-.9m12-1.2l2.2.6m-1105.4-897.9l8.9 2.4m107.7-282.7l-8.8-2.4m-69.8 895.7l-.1-600.8m-29-9.8l-1.9-.9-1.9-1.8-1.6-2.6-1.2-3.5-.8-4-.3-4.6.1-5.2.5-5.4m0 0l18.1-141.9m0 0l.9-6 1.4-5.9 1.8-5.8 2.2-5.7 2.4-5.1 2.6-4.7 2.8-3.9 2.8-3.3m0 0l70-68.4m-.8 134.8c-.2 1.6-.3 3.3-.3 4.9m-.1.1v683.5m-4.9-785.1l.2-3.1.6-3.3 1-3.3 1.3-3.1 1.4-2.5 1.6-1.9 1.6-1.2 1.4-.3 1.4.6.9 1.3.6 2.1.2 2.7m-120 222.1l18.2-142m0 0l.9-5.9 1.4-5.9 1.8-5.8 2.1-5.7 2.4-5.2 2.6-4.7 2.8-3.9 2.9-3.2m0 0l69.9-68.3m-97.9 278.6l-1.9-.9-1.9-1.8-1.6-2.7-1.1-3.4-.8-4-.4-4.6.1-5.2.5-5.4m114.9-254.7c-3.8-.5-7.5 1-9.9 4m-68.8 889.4l-.1-600.6m-9.1-177.6l-8.8-2.5m-9.3 144.4l-8.9-2.4m43.9-179.9l-8.8-2.4m84.9-39.8l-8.3-2.3m2.2-23.9l-8.9-2.3m-73.6 231.1l22.3-21.6 5.3-7 5.1-7.8 5-8.2 4.7-8.9 4.7-9.4 4.3-9.9 4.1-10.3 3.8-10.6 3.4-10.8 3.1-10.9 2.8-11.1 2.4-11 1.9-11 1.5-10.8 1.2-10.7.6-10.4.2-9.9m12.3-12l-.2 10.5-.7 10.7-1 11.1-1.4 11.4-1.8 11.4-2.1 11.5-2.6 11.6-2.9 11.7-3.3 11.4-3.6 11.4-3.9 11.2-4.2 10.9-4.3 10.4-4.8 10.3-4.8 9.8-5.1 9.1-5.2 8.8-5.3 8.1-5.5 7.5-8.7 8.5-17.9 16.9m80.4-225.7l-.1 9.6-.7 10.8-1 11-1.4 11.3-1.8 11.5-2.2 11.5-2.6 11.6-2.9 11.7-3.3 11.4-3.5 11.4-3.9 11.2-4.2 10.9-4.4 10.4-4.7 10.3-4.9 9.8-5 9.1-5.2 8.8-7.1 7.6-26.2 27.8m87.8-242.2l2.6-2.3 2.7-1.4 2.5-.6 2.4.4 2.1 1.2 1.8 2.1 1.4 2.9 1 3.6.7 4.3.3 4.9m-16.5 109.9c10.3-35.7 15.9-72.7 16.5-109.9m-16.5 109.9c-1.4 4.8-2.2 9.7-2.2 14.7m-76.5 145.5l8.9 2.4m.1 2.5l-.2-3.7-.6-3.2-.9-2.6-1.3-1.9-.9-.8m.6.6l-2.9-2.4-2.7-1.8-2.6-1-2.2-.4-3.9.8m8.9 11.5l-.2-3.7-.6-3.2-.9-2.5-1.3-2-1-.8"/>
    <path class="st2"
        d="M160.5 208.1l-.2-2.4-.4-1.8-.8-1.5-1-.7-1.3.2-1.4.6-1.4 1.4-1.4 2-1.1 2.3-1.1 2.9-.9 2.8-.4 3-.1 2.7.1 2.4.4 2 .9 1.3 1.1.7h1.1l1.4-.7 1.4-1.4 1.4-1.9 1.3-2.6 1-2.7.8-3 .4-2.8.2-2.8zm-7-1.8v-1.6m-4.5 16.5l.8-1.1 1.1-2.5 1.2-2.9.8-2.8.4-3 .2-2.6m-17.8 133.9l-1.4 1.3-1.4 2-1.1 2.4-1.1 2.9-.9 2.8-.4 2.9-.1 2.8.1 2.4.4 2 .9 1.3 1.1.7h1.1l1.4-.7 1.4-1.5 1.4-1.8"/>
    <path class="st1"
        d="M131 386.8l-3.1 2.1-2.9 1.4-2.6.8-2.3.1-1.2-.2m1053.6 284.5l8.9 2.4m107.9-282.6l-8.9-2.4m-69.9 895.6l-.1-600.7m-29-9.9l-1.9-.8-1.9-1.8-1.5-2.7-1.2-3.4-.8-4.1-.4-4.6.1-5.2.6-5.4m0 0l18-141.9m0 0l1-5.9 1.4-5.9 1.8-5.9 2.1-5.6 2.4-5.2 2.6-4.6 2.8-4 2.9-3.3m0 0l70-68.2m-.9 134.7c-.2 1.6-.3 3.3-.3 5m0 0v683.3m-5-784.9l.3-3.1.6-3.3 1-3.4 1.2-3 1.5-2.5 1.6-2 1.6-1.2 1.5-.2 1.2.5 1 1.4.6 2.1.2 2.7m-120.1 222l18.2-141.9m0 0l.9-5.9 1.5-5.9 1.7-5.9 2.2-5.6 2.3-5.2 2.7-4.6 2.7-4 2.9-3.3m0 0l70.1-68.2m-98.1 278.5l-1.8-.8-1.9-1.8-1.5-2.7-1.3-3.4-.7-4.1-.4-4.6.1-5.2.4-5.4m115-254.6c-3.8-.4-7.5 1-9.9 4.1m-68.8 889.1l-.1-600.5m-9.2-177.6l-8.8-2.4m-9.2 144.3l-9-2.4m44-179.9l-8.9-2.4m85-39.7l-8.4-2.2m2.3-23.9l-8.8-2.4m-73.7 231.1l22.3-21.6 5.3-7 5-7.7 5.1-8.3 4.8-9 4.5-9.4 4.4-9.9 4.1-10.3 3.8-10.5 3.4-10.8 3.1-10.9 2.8-11.1 2.3-11 2-11.1 1.5-10.8 1.1-10.7.7-10.3.2-10m12.2-11.9l-.2 10.4-.6 10.8-1 11.1-1.4 11.3-1.9 11.4-2.2 11.6-2.4 11.6-2.9 11.6-3.3 11.5-3.6 11.3-3.9 11.2-4.2 10.9-4.4 10.5-4.7 10.3-4.9 9.7-5 9.3-5.2 8.6-5.4 8.2-5.4 7.5-8.7 8.5-18 16.9m80.4-225.7l-.1 9.5-.6 10.8-1 11-1.4 11.4-1.9 11.4-2.2 11.6-2.5 11.6-3 11.6-3.2 11.4-3.6 11.4-3.9 11.2-4.1 10.9-4.5 10.5-4.6 10.3-4.9 9.7-5.1 9.2-5.1 8.7-7.1 7.6-26.3 27.9m87.8-242.2l2.7-2.3 2.7-1.4 2.6-.6 2.3.3 2 1.3 1.9 2.1 1.4 2.8 1.1 3.7.6 4.3.2 4.8m-16.5 110c10.4-35.8 16-72.7 16.5-110m-16.5 110c-1.3 4.7-2.1 9.6-2.2 14.6m-76.4 145.5l8.8 2.5m.2 2.4l-.2-3.6-.7-3.2-.9-2.6-1.3-1.9-.9-.8m.6.5l-2.9-2.3-2.7-1.9-2.5-1-2.3-.3-3.8.8m8.9 11.5l-.3-3.7-.6-3.2-.9-2.6-1.3-1.9-.9-.8"/>
    <path class="st2"
        d="M1222.6 495.2l-.2-2.4-.4-1.9-.9-1.4-1-.7-1.2.2-1.4.6-1.5 1.3-1.4 2-1 2.4-1.2 2.9-.9 2.8-.4 3-.1 2.7.1 2.4.4 2 .9 1.3 1.2.7h1l1.4-.7 1.5-1.4 1.4-1.9 1.2-2.5 1-2.8.9-2.9.4-2.9.2-2.8zm-7.1-1.9v-1.5m-4.5 16.4l.8-1.1 1.2-2.4 1.1-2.8.9-2.9.3-3 .2-2.7m-17.7 134l-1.5 1.3-1.3 1.9-1.2 2.5-1.1 2.8-.9 2.9-.3 3-.2 2.7.2 2.4.3 1.9.9 1.3 1.1.8h1.2l1.3-.8 1.5-1.4 1.4-1.8"/>
    <path class="st1" d="M1192.6 673.9l-3 1.9-2.8 1.3-2.6.7-2.2.1-1.1-.3"/>
    <path class="st3" d="M100 1297.5l17.6-17.6"/>
    <path class="st0" d="M100 1297.5"/>
</svg>
