<?xml version="1.0" encoding="utf-8"?>
<!-- Generator: Adobe Illustrator 21.1.0, SVG Export Plug-In . SVG Version: 6.00 Build 0)  -->
<svg version="1.1" id="Ebene_1" xmlns="http://www.w3.org/2000/svg" xmlns:xlink="http://www.w3.org/1999/xlink" x="0px" y="0px"
	 viewBox="0 0 1200 1200" style="enable-background:new 0 0 1200 1200;" xml:space="preserve">
<style type="text/css">
	.st0{fill:none;}
	.st1{fill:none;stroke:#000000;stroke-linecap:round;stroke-miterlimit:10;stroke-width:4;}
	.st2{fill:#FFFFFF;stroke-width:3;}
	.st3{fill:none;stroke:#000000;stroke-miterlimit:10;stroke-width:4;}
	.st4{fill:none;stroke:#FFFFFF;stroke-miterlimit:10;stroke-width:4;}
</style>
<path class="st0" d="M687.7,89.1H512.3v1021.7h175.4V89.1z"/>
<path class="st1" d="M624.5,660.2V701 M623.9,657.6l0.6,2.6 M609.6,696.2v-34 M600.1,738.4v0.7 M601.4,690.2l4.8,2 M593.4,691.5
	v-21.1 M578.4,704.5v-40.9 M579,707.1l-0.6-2.6 M584.4,713.6l-5.4-6.5 M609.6,696.2l-4.2,7.6 M617.1,714.7l7.4-13.7 M601.4,722.1
	l15.7-7.4 M600.2,722l1.3,0.1 M601.4,722.1h-0.7 M624.5,660.2l-0.6-2.6 M623.9,657.6l-8.9-11.7 M578.4,663.6l6.8-10.8 M609.6,662.2
	l-4.2-5.4 M615.1,645.9l-15-1.3 M605.4,656.8h-2 M589.2,694.9l-4.7,9.5 M593.4,691.5l-4.2,3.4 M593.4,691.5l8.1-1.4 M605.4,703.8
	h-2.6 M584.5,745.9v-41.5 M602.8,739.4v-17.8 M600.1,709.2l2.7-5.4 M600.1,743.2v-34.1 M606.2,692.2l2.7,5.4 M618.5,745.2v-32.9
	 M609.6,673.1v-1.3 M605.4,703.8l-3.4,2 M624.5,565.3V606 M623.9,562.5l0.6,2.8 M609.6,601.4v-34.1 M596.8,672.7l4.7,1.3 M601.4,674
	l-4.7-1.3 M606.2,659.8l1.6-0.1 M600.1,643.4v0.8 M601.4,595.2l4.8,2 M593.4,596.6v-21.1 M578.4,609.4v-40.7 M579,612.2l-0.6-2.8
	 M584.4,618.6l-5.4-6.5 M609.6,601.4l-4.2,7.4 M617.1,619.7l7.4-13.6 M601.4,627.2l15.7-7.6 M600.2,627.1l1.3,0.2 M601.4,627.2h-0.7
	 M624.5,565.3l-0.6-2.8 M623.9,562.5l-8.9-11.5 M578.4,568.7l6.8-10.9 M609.6,567.3l-4.2-5.4 M615.1,551l-15-1.4 M605.4,561.9h-2
	 M589.2,599.9l-4.7,9.5 M593.4,596.6l-4.2,3.3 M593.4,596.6l8.1-1.4 M605.4,608.8h-2.6 M606.2,659.8l-3.4-4.2 M596.8,672.7l-7.6-8.1
	 M584.5,651v-41.6 M589.2,664.6l-4.7-13.6 M602.8,644.5v-18 M600.1,614.3l2.7-5.5 M600.1,648.3v-34 M602.8,655.6l-2.7-7.3
	 M606.2,597.3l2.7,5.4 M618.5,650.2v-32.9 M609.6,672.7l-8.2,1.3 M609.6,578.2v-1.4 M605.4,608.8l-3.4,2.1 M624.5,470.2v40.9
	 M623.9,467.6l0.6,2.6 M609.6,506.3v-34 M596.8,577.7l4.7,1.4 M601.4,579.1l-4.7-1.4 M606.2,564.8h1.6 M600.1,548.5v0.6
	 M601.4,500.1l4.8,2.1 M593.4,501.6v-21 M578.4,514.5v-40.8 M579,517.2l-0.6-2.7 M584.4,523.7l-5.4-6.5 M609.6,506.3l-4.2,7.5
	 M617.1,524.6l7.4-13.5 M601.4,532.1l15.7-7.5 M600.2,532.1h1.3 M601.4,532.1h-0.7 M624.5,470.2l-0.6-2.6 M623.9,467.6l-8.9-11.6
	 M578.4,473.7l6.8-11 M609.6,472.4l-4.2-5.4 M615.1,456l-15-1.4 M605.4,466.8h-2 M589.2,505l-4.7,9.5 M593.4,501.6l-4.2,3.4
	 M593.4,501.6l8.1-1.4 M605.4,513.8h-2.6 M606.2,564.8l-3.4-4.2 M596.8,577.7l-7.6-8.2 M584.5,556v-41.5 M589.2,569.5l-4.7-13.5
	 M602.8,549.5v-17.9 M600.1,519.2l2.7-5.4 M600.1,553.3v-34.1 M602.8,560.7l-2.7-7.4 M606.2,502.3l2.7,5.5 M618.5,555.3v-32.9
	 M609.6,577.7l-8.2,1.4 M609.6,483.2v-1.4 M605.4,513.8l-3.4,2 M596.8,482.8l4.7,1.3 M601.4,484l-4.7-1.3 M606.2,469.8h1.6
	 M600.1,453.5v0.7 M606.2,469.8l-3.4-4.1 M596.8,482.8l-7.6-8.2 M589.2,474.6l-4.9-19.1 M600.1,458.2l-0.5-14.5 M602.8,465.7
	l-2.7-7.5 M609.6,482.8l-8.2,1.3"/>
<path class="st2" d="M596.7,492.6c3.1,0,5.6,3,5.6,6.6c0,3.6-2.6,6.6-5.6,6.6c-3.2,0-5.6-3.1-5.6-6.6
	C591.1,495.6,593.5,492.6,596.7,492.6z"/>
<path class="st1" d="M596.7,492.6c3.1,0,5.6,3,5.6,6.6c0,3.6-2.6,6.6-5.6,6.6c-3.2,0-5.6-3.1-5.6-6.6
	C591.1,495.6,593.5,492.6,596.7,492.6z"/>
<path class="st3" d="M549.2,105.4l-16,13.7L562.1,99l12.3-4.4l5.4-1.9l4.8-0.9l4.9-0.3l28.4-1 M576.8,118.7l3.8-2.3l4.3-1.3l2.7-0.5
	l2,0.1l26.6,2 M608.7,299.7l-1-0.9H606l-1,0.4l-1.1,0.5l-1.1,2.3l-1.6,2.7l-0.7,4.6v6.6l-0.1,6.9l0.4,8.3l1,5.1l0.5,3.7l1,2.8l1,1.9
	l1.6,0.6h0.9l1.7-1.9l1.7-2.4l3.2-11.9"/>
<path class="st3" d="M590,395.4l-2.1-0.1l-1.6-0.9l-1.6-0.5l-1-1.4l-1.1-0.9l-0.5-1.9l-0.5-1.4l-0.5-1.9l0.6-1.9l0.6-1.3l0.4-1.4
	l1.2-1.4l1.1-0.9l1.5-0.9l1.6-0.5l2.1-0.4l1.6,0.5l1.6,0.4l1.6,1l1,0.9l1,1.4l1,1.4l0.6,1.4l-0.1,1.9v1.8l-0.5,1.4l-1.1,1.8
	l-1.1,0.9l-1,1.4l-1.6,0.5l-1.6,0.9H590z M603.7,408.9l-4.3,0.4l-4.8,0.4l-2.7,0.4l-2.6,1.4l-5.4,2.2l1,5.6l-0.1,6l-0.1,8.9l-3,21.3
	 M610.2,434.5l0.9,23.8 M604.5,424.3l0.6-2.3L604.5,424.3l-1.1,3.7l-1.1,4.5l-1.6,6l-1.8,7.3l-0.1,11.2 M605.8,406.7l0.1-0.5
	L605.8,406.7l-0.5,0.9l-0.6,1.3l1.5,3.7l0.5,2.9l0.5,4l-0.6,1.4l-0.4,0.9l-1.1,0.4l-1.6-0.4 M584.8,416.2l-1.5-2.9l-0.5-3.2l0.1-2.3
	l1.1-2.4 M582,431.9l-4.3-2l-3.2-2.7l-2.6-3.3l-2.1-4.7l-1.5-5.6l-0.9-6l-0.4-7l0.1-7.9 M628.9,384.8l-2.1,5.1l-2.5,25.8l-1.7,4.7
	l-1.5,3.7l-2.2,3.2l-2.2,2.3l-2.1,1.9l-2.7,1.3l-2.6,0.9l-2.6-0.2l-5.9,1 M618,330.9l-1.4,21.7l4.2,6.6l3.2,5.6l2,4.6l2.1,4.7
	l0.4,3.7l-0.6,3.2l-0.5,2.8l-1.7,1.8 M594.1,350.5l11,23.2l3.2,5.1l2.1,5.2l0.5,4.7l-0.1,1.8v2.3l-0.6,1.9l-1.1,1.9l-1.6,1.4
	l-1.6,1.9l-3.8,2.6l-5.3,2.2h-5.9l-5.3-0.6l-4.3-0.9l-3.7-1.9l-3.7-2.5l-2.6-2.7l-2.6-3.2l-1.5-3.7l0.2-12.5 M598.4,273.6l-3.8,1.4
	l-2.6,1.3l-2.7,1.9l-2.6,2.7l-2.1,2.7l-2.2,3.2l-1.6,3.2l-1.7,4.2l-2.7,9.3l-1.8,11.1l-0.7,12.9l-0.2,14.3l-0.1,9.3l-1.2,9.3
	l-1.1,4.6l-1.2,4.7l-3.2,8.3 M614.1,294.6l-2-6.4l-2.6-5.1l-2-3.8l-2.1-2.7l-2.6-1.4l-2.1-0.5l-2.7,0.9l-2.7,1.8l-3.2,9.2l-2.3,9.7
	l-1.2,9.7l-0.7,8.8l0.5,9.9l1.4,9.2l2.6,9.8l3.1,9.3 M555.7,137l-2.7,1.7l24.5-21.4l-28.3,27l-1.6,3.6l-1.2,4.3l-1,4.6l-0.7,5.1
	l-0.1,5.5 M575.1,299.3l-6.4-4.3l-5.4-4.2l-4.7-4.8l-4.2-4.6l-3.7-4.8l-2.6-5.1l-2-4.7l-1.5-5l0.1-97.3 M616.9,117.3l7.2,2.8
	l8.1,7.5l5.8,5.7l2.6,2.7l2.1,2.9l2.1,3.2l2,2.8l2,6.5l1.5,6.6l0.9,7l-0.3,73.6l-0.1,6.1l-1.1,5.5l-1.1,5.4l-1.2,5.1l-2.2,5.1
	l-2.2,4.6l-2.1,4.2l-2.7,3.6l-2.7,3.7l-3.7,3.7l-3.8,3.2l-3.7,2.7l-4.3,2.7l-4.9,2.3l-4.8,1.8l-5.4,1.8 M572.6,329.4l-6.4-2.9
	l-6.4-3.3l-5.2-2.8l-5.3-3.8l-5.4-3.3l-4.2-4.2l-4.3-3.7l-3.7-4.2l-3.7-4.7l-3.2-4.7l-3.2-4.7l-2.6-5.2l-2.1-5l-1.5-5.6l-1.5-5.6
	l-0.4-6l1.8-103.2l0.1-5.1l1.2-5.1l1.5-4.6l2.3-5.1l2.7-4.6l3.2-4.6l3.2-4.6l4.9-4.5 M620.6,326.8l-2.6,0.9l-2.1,0.4l-5.4,0.9
	l-5.8,0.3l-5.4-0.5 M617.2,90.9l12.7,4.8l11.2,4.8l9.5,5.2l7.9,6.1l3.2,2.8l3.2,3.3l2.6,3.2l2.1,3.7l2,3.3l1.5,3.7l1.1,3.7l0.4,4.2
	l2.6,5.2l1.5,4.6l2.6,10.6l0.9,11.2l-0.2,12.2l1.4,23.6l0.3,20.9l-0.2,18.1l-1.3,15.8l-0.7,7l-1.1,6l-1.7,5.5l-1.7,4.6l-1.6,4.1
	l-2.1,3.7l-1.7,2.7l-2,1.9l-3.4,4.1l-4.3,4.2l-4.9,3.6l-6.4,4.2l-7.1,4l-7.9,4.1l-9.3,4.1l-10,4 M652.8,1093.8l15.8-13.8l-28.6,20.3
	l-12.3,4.7l-5.3,1.9l-4.8,0.9l-4.8,0.4l-28.4,1.4 M624.9,1080.8l-3.7,2.3l-4.3,1.4l-2.6,0.4h-2.2l-26.5-1.7 M590.7,900.1l1.1,1h1.7
	l0.9-0.5l1.1-0.5l1.2-2.2l1.6-2.8l0.4-4.7v-13.4l-0.4-8.3l-1.1-5.2l-0.5-3.6l-1.2-2.8l-1.1-1.9l-1.5-0.5h-1.1l-1.5,1.9l-1.6,2.3
	l-3.2,12.1"/>
<path class="st3" d="M608.4,804.3h2.1l1.5,0.9l1.7,0.5l1,1.4l1,0.9l0.6,1.9l0.5,1.4l0.6,1.9l-0.6,1.8l-0.5,1.4l-0.6,1.4l-1,1.4
	l-1,0.9l-1.7,1l-1.5,0.3l-2.1,0.5l-1.6-0.5l-1.6-0.3l-1.5-1l-1.1-0.9l-1.1-1.4l-1-1.4l-0.5-1.4v-3.7l0.5-1.4l1-1.9l1.1-0.9l1.1-1.4
	l1.5-0.5l1.6-0.9H608.4z M594.5,790.9l4.3-0.5l4.9-0.4l2.6-0.5l2.8-1.4l5.3-2.3l-1-5.4v-14.9l2.6-21.3 M587.7,765.4l-1.1-23.6
	 M593.5,775.6l-0.6,2.3L593.5,775.6l0.9-3.7l1.1-4.7l1.7-6l1.5-7.5v-11.1 M592.4,793.2v0.4V793.2l0.5-0.9l0.6-1.4l-1.7-3.7l-0.4-2.7
	l-0.7-4.2l0.7-1.4l0.4-0.9l1.1-0.4l1.5,0.4 M613.3,783.5l1.5,2.8l0.6,3.2v2.3l-1.1,2.4 M615.8,767.7l4.3,1.8l3.2,2.8l2.7,3.2
	l2.1,4.7l1.5,5.4l1.1,6l0.6,7v7.9 M569.5,815.4l2.1-5l2.1-26l1.6-4.7l1.6-3.7l2-3.2l2.1-2.3l2.1-2l2.7-1.4l2.6-0.9h2.7l5.9-0.9
	 M581.2,869.1l1.1-21.7l-4.3-6.6l-3.2-5.5l-2.1-4.6l-2.2-4.7l-0.4-3.7l0.4-3.2l0.6-2.8l1.6-1.9 M604.7,849.2l-11.2-23.2l-3.2-5
	l-2.1-5.1l-0.5-4.6v-4.3l0.5-1.9l1-1.9l1.5-1.4l1.7-1.9l3.7-2.7l5.4-2.3h6l5.4,0.4l4.2,0.9l3.7,1.9l3.7,2.3l2.6,2.7l2.6,3.3l1.7,3.7
	v12.4 M601.4,926.1l3.7-1.3l2.7-1.5l2.6-1.9l2.7-2.7l2.1-2.7l2.1-3.2l1.5-3.2l1.6-4.3l2.6-9.2l1.6-11.1l0.6-13v-23.6l0.9-9.3
	l1.1-4.7l1.1-4.6l3.2-8.4 M585.4,905.2l2.2,6.5l2.6,5.2l2.1,3.7l2,2.7l2.8,1.5l2,0.4l2.7-0.9l2.6-1.9l3.2-9.2l2.1-9.8l1.1-9.8
	l0.5-8.7l-0.5-9.8l-1.7-9.3l-2.6-9.7l-3.2-9.3 M645.8,1062.3l2.6-1.8l-24.3,21.6l28-27.3l1.6-3.7l1-4.1l1.1-4.7l0.5-5.1v-5.5
	 M624.4,900.1l6.4,4.3l5.4,4.2l4.8,4.7l4.3,4.6l3.8,4.6l2.6,5.1l2.1,4.6l1.6,5.1l1,97.3 M584.9,1082.7l-7.3-2.7l-8.1-7.4l-6-5.6
	l-2.6-2.7l-2.2-2.8l-2-3.2l-2.2-2.8l-2.1-6.4l-1.6-6.6l-1-7l-0.6-73.6v-6l1.1-5.6l1.1-5.5l1-5.1l2.1-5l2.2-4.7l2-4.2l2.7-3.7
	l2.6-3.7l3.7-3.7l3.7-3.2l3.7-2.7l4.3-2.8l4.8-2.3l4.8-1.9l5.3-1.8 M626.5,870.1l6.6,2.7l6.3,3.3l5.4,2.7l5.4,3.7l5.4,3.3l4.3,4.2
	l4.3,3.7l3.7,4.3l3.7,4.6l3.3,4.6l3.2,4.6l2.6,5.2l2.1,5.1l1.6,5.5l1.5,5.5l0.6,6l-0.6,103.4v5.1l-1,5.1l-1.5,4.6l-2.3,5.1l-2.6,4.6
	l-3.2,4.6l-3.2,4.7l-4.7,4.6 M578.5,873.2l2.6-0.9l2.1-0.4l5.4-0.9l5.8-0.5l5.4,0.5 M584.9,1109.1l-12.8-4.6l-11.2-4.6l-9.6-5.1
	l-8.1-6l-3.2-2.7l-3.1-3.3l-2.7-3.2l-2.1-3.7l-2.1-3.2l-1.6-3.7l-1.1-3.7l-0.5-4.2l-2.6-5.1l-1.5-4.7l-2.7-10.6l-1.1-11.1v-12.1
	l-1.6-23.6l-0.5-20.9v-18.1l1.1-15.8l0.5-6.9l1.1-6l1.6-5.5l1.6-4.6l1.5-4.3l2.1-3.7l1.6-2.8l2.1-1.8l3.2-4.2l4.3-4.2l4.9-3.7
	l6.4-4.3l7-4.1l7.9-4.3l9.1-4.2l10.1-4.2"/>
<path class="st4" d="M512.3,1110.9l13.5-13.5"/>
<path class="st0" d="M512.3,1110.9"/>
</svg>
