<svg xmlns="http://www.w3.org/2000/svg" xmlns:xlink="http://www.w3.org/1999/xlink"
    viewBox="0 0 1400 1400" enable-background="new 0 0 1400 1400">
    <style type="text/css">.st0{fill:none;} .st1{fill:none;stroke:#000000;stroke-linecap:round;stroke-linejoin:round;stroke-width:2;} .st2{clip-path:url(#SVGID_2_);} .st3{fill:none;stroke:#FFFFFF;stroke-miterlimit:10;}</style>
    <path class="st0" d="M951.7 100h-503.4v1200h503.4v-1200z"/>
    <path class="st1"
        d="M672.2 152.7v.6M678.6 151.8c0-.6.1-1.3-.1-1.9-.2-.4-.6-.8-.9-1-.9-.6-2-.8-3.1-.9-1.1 0-2.2.2-3.2.7-.5.3-1 .7-1.2 1.2s-.1 1.3-.1 1.8M670 150.6c0 .3 0 .3.1.6.3.7 1 1.1 1.6 1.4 1.5.6 3.2.6 4.7.1.8-.3 1.7-.8 2-1.6.1-.2.1-.3.1-.6"/>
    <path class="st1"
        d="M671.2 150.8v-.5c.2-.6.8-1 1.3-1.2 1.3-.5 3-.4 4.1.4.2.1.3.3.4.4.1.2.2.3.2.5.2.8-.7 1.4-1.4 1.7-.5.2-1 .3-1.6.3-.9-.1-2.6-.4-3-1.6zM672.4 152c-.1-.1-.2-.1-.3-.3l-.1-.2c-.3-.6.2-1.1.7-1.4.9-.5 2.2-.5 3.2-.1.6.3 1.2.9.8 1.6-.1.2-.2.3-.4.4M675.8 149l-.3.8v2.4M705.8 161.8v.6M712 160.8c0-.5.1-1.2-.1-1.7s-.6-1-1.1-1.3c-.9-.6-2-.8-3.1-.8s-2.2.2-3.1.8c-.5.3-.9.7-1.1 1.3-.2.5-.1 1.3-.1 1.7M703.4 159.7c0 .3 0 .3.2.6.3.7 1.1 1.1 1.7 1.4 1.5.6 3.2.6 4.7 0 .8-.3 1.6-.8 1.9-1.6.1-.3.1-.3.1-.6"/>
    <path class="st1"
        d="M704.7 159.8v-.5c.1-.6.7-1 1.3-1.2 1.3-.5 3-.5 4.2.3.2.1.3.3.4.4.1.1.2.3.2.5.2 1-.8 1.6-1.6 1.8-.5.2-1.1.2-1.6.2-1.2-.1-2.5-.3-2.9-1.5zM705.8 160.9c-.1-.1-.1-.1-.3-.2l-.2-.2c-.4-.7.3-1.3.9-1.6 1-.4 2.3-.4 3.2.2.5.3.9.8.6 1.4l-.1.2-.2.2M709.1 158l-.2.8v2.4M806 502.8v1.6l-.2 1.2-2.6 17.2c-.2 1.3-.4 2.6-1.1 3.8-1.4 2.5-4.1 4.2-6.8 5-1.4.4-2.8.5-4.2.6-3.1 0-6.2-.3-9.3-.4-3.9-.2-7.9-.4-11.9-.7-9-.7-18-1.4-26.9-2.4s-17.7-2.1-26.6-3.4c-6.9-1-13.8-2.1-20.7-3.4-5.7-1-11.4-2-17-3.2-8.9-1.8-17.8-3.8-26.6-5.9-5.4-1.3-10.8-2.8-16.1-4.2-6.5-1.8-12.9-3.6-19.3-5.6-5.5-1.8-11.1-3.5-16.6-5.4-10.7-3.8-21.4-7.6-31.8-12.1l-5.4-2.3-1.1-.5c-7.5-3.3-14.9-6.7-22.2-10.3-4.8-2.4-9.5-4.8-14.2-7.3l-1.1-.6-4.7-2.6c-2.4-1.3-4.8-2.7-7.1-4.1-.9-.5-1.7-1-2.5-1.6-1-.9-1.9-2-2.4-3.3-.6-1.4-.7-2.9-.6-4.4M507 449.6c.1.7 0 .9.3 1.6.8 1.9 2.6 3.1 4.3 4 2.6 1.5 5.3 3.1 8 4.6l6 3.3 1.1.6c5.2 2.8 10.5 5.4 15.8 8 3.6 1.8 7.3 3.5 11 5.1 6 2.7 11.9 5.3 18 7.7l7 2.8 1.1.4c6.3 2.4 12.6 4.8 19 7 16.4 5.7 33.1 10.6 50 14.9 21 5.3 42.3 9.5 63.7 12.7 7.3 1.1 14.6 2.1 21.9 3l1.2.1 8.6 1c4.5.5 9 1 13.5 1.3 7.4.6 14.9 1.2 22.3 1.6l8.7.4 2.5.1c2.4 0 4.7-.4 6.9-1.3 1.5-.7 3-1.6 4-2.9.3-.4.6-.9.8-1.5s.3-1.4.4-2l2.6-17.1.2-1.2M806 502.8l-.2 1.2-2.6 17.1c-.1 1-.2 1.9-.7 2.8-.8 1.5-2.3 2.5-3.8 3.2-2.3 1.2-4.9 1.5-7.5 1.7-3.8 0-7.6-.3-11.4-.5-4.6-.2-9.1-.5-13.7-.9l-8.7-.7-1.2-.1c-7.4-.7-14.8-1.4-22.1-2.3-6.9-.8-13.8-1.8-20.7-2.8-4.4-.6-8.9-1.3-13.3-2.1-6.8-1.2-13.5-2.4-20.2-3.7l-1.2-.2-8.2-1.7c-7-1.4-13.9-3.1-20.9-4.8-4.2-1-8.4-2.1-12.6-3.3l-7.8-2.1-1.2-.3c-6.7-1.9-13.3-3.9-19.9-6.1-6.5-2.1-12.9-4.3-19.3-6.7l-1.1-.4-7.1-2.7c-3.9-1.5-7.7-3-11.5-4.6l-6.8-2.9-1.1-.5c-5.9-2.6-11.8-5.2-17.7-8.1-5.7-2.7-11.3-5.6-16.9-8.6l-1.1-.6-6-3.3c-2.7-1.5-5.3-3-8-4.6-1.7-1-3.5-2.1-4.3-4-.3-.7-.2-.8-.3-1.6M510.5 453.6c0 .9-.1 1.8.4 2.7.2.4.3.4.6.7M790 532.1c-.1-.4-.1-.8-.1-1.2v-2.2M803 524c.1-1 .1-.4.1-1.7M803.6 517.4h.2M806 222.8l-.2 1.2-1.8 12.2c-.2 1.6-.2.8-.2 2.4v278.7l.2-1.2 1.8-12.2c.2-1.6.2-.8.2-2.4v-278.7 279.9M609 203.8l-.2-.5M609.1 203.9l-.1-.2M609.3 204.2l-.3-.4M688 220.4M688 220.5v-.2M688 220.5v-.1M687.9 220.6l.2-.3M687.7 220.8l.4-.5M705.3 157.5l-.1-.4M671.8 148.1l.1.4M536.3 147.8l-20.8 12c-1.3.8-3 1.6-3 3.4l.1.5c.1.4.2.7.4 1 .6.9 1.6 1.4 2.5 1.9l5.7 3.3 1.1.6 1.1.6 5.9 3.2c3.4 1.9 6.9 3.7 10.4 5.4 5.3 2.6 10.6 5.2 16 7.7l1.1.5 6.6 2.9c3.7 1.7 7.5 3.2 11.2 4.7 6.1 2.4 12.2 4.9 18.5 7.1l7.1 2.5 1.2.4c6 2.1 12.1 4 18.2 5.9 4 1.3 8.1 2.5 12.2 3.6 6.3 1.7 12.6 3.5 18.9 5.1 10.3 2.6 20.7 4.9 31.1 7 6.7 1.3 13.3 2.5 19.9 3.7l10.7 1.7c4.4.7 8.8 1.3 13.2 1.9 6.8.9 13.7 1.7 20.5 2.4 7.3.8 14.6 1.4 21.9 2l1.2.1 8.6.6 2.4.1 8.6.5h2c2 0 4.3-.5 5.6-2 .3-.3.5-.6.7-1 .2-.5.3-1.4.3-1.7l2.5-16.2.2-1.2c.7 0 .9-.1 1.6 0 1.5.1 3 .8 3.7 2.2.2.3.3.7.4 1.1.2.9 0 1.9-.1 2.8l-2.6 17.2c-.1 1-.2 1.9-.7 2.8-.8 1.5-2.3 2.5-3.8 3.2-2.3 1.2-4.9 1.6-7.5 1.7-3.8 0-7.6-.3-11.4-.5-4.6-.2-9.1-.5-13.7-.9l-8.7-.7-1.2-.1c-7.4-.7-14.8-1.4-22.1-2.3-6.9-.8-13.8-1.8-20.7-2.8-4.4-.6-8.9-1.3-13.3-2.1-6.8-1.2-13.5-2.4-20.2-3.7l-1.2-.3-8.2-1.7c-7-1.5-13.9-3.2-20.9-4.8-4.2-1-8.4-2.1-12.6-3.3l-7.8-2.2-1.2-.3c-6.7-1.9-13.3-3.9-19.9-6.1-6.5-2.1-12.9-4.3-19.3-6.7l-1.1-.4-7.1-2.7c-3.9-1.4-7.7-3-11.5-4.6l-6.8-2.9-1.1-.5c-5.9-2.6-11.8-5.2-17.7-8-5.7-2.7-11.3-5.6-16.9-8.6l-1.1-.6-6-3.3-8-4.6c-.7-.4-1.3-.7-2-1.2-1.2-.9-2.3-2.1-2.5-3.6.1-.5.1-1.5.1-1.9.1-2 .8-3.9 2.2-5.4.5-.5 1.1-1.1 1.6-1.5s1.3-.8 1.8-1.1l93.9-54.2 1.1-.6.4-.2c1-.4 2.1-.4 3.2-.5l71.4-3.6c.7 0 1.5-.1 2.2 0 .9.2 1.7.5 2.4 1.1.5.4 1 1 1.5 1.5l115.3 115.4.9.9M800.4 218l-.9-.9-13.8-13.9-.9-.9-.2-.1-.3-.1c-.1-.1-.3-.2-.2-.4 0-.2.3-.3.5-.4.4-.1.8 0 1.2.2l.1.1c.3.3 0 .5-.4.6h-.7M742.1 159.8h.5l.3-.1c.4-.1.3-.4 0-.6-.3-.2-.6-.3-.9-.3-.3 0-.8.2-.6.6l.1.1c.1.1.3.2.4.2 0 .1 0 .1.2.1l.9.9 40.2 40.2.9.9M700.6 118.3h.5l.3-.1c.4-.1.4-.4 0-.6-.3-.2-.6-.3-.9-.3-.3 0-.8.2-.6.6l.1.1c.1.1.3.2.4.2.1.1.1.1.2.1l.9.9 39.1 39 .9.9M683.5 100.4l.2.6.1.4.9.9 14.4 14.5.9.9M687.4 101.8l-.5-.3c-.6-.3-1.2-.3-1.8-.3l-.7.1-.7.2-1.2.1-35.7 1.8-1.2.1-.3.1c-.1.1-.2.1-.4.1s-.4 0-.6-.1c-.3-.1-.7-.4-.3-.7.3-.2.8-.2 1.2-.1.2 0 .6.2.4.4l-.2.2M536.3 147.8l48.6-28 24.2-14c1.4-.8.7-.6 2.3-.7l31.6-1.6h1.2M610.2 105.1c-.5-.2-.6-.3-1.1-.4l-.5-.1h-.5c-.6.1-1 .4-1.5.7l-18.6 10.7-1 .6M608.5 104.4c.7-.1 1.2.3 1.6.8M609.9 104.2c.2.3.2.7.3 1M507 167.6c.1.7 0 .9.3 1.6.8 2 2.6 3.1 4.3 4.1 2.6 1.5 5.3 3.1 8 4.5l6 3.3 1.1.6c5.2 2.8 10.5 5.4 15.8 8 3.6 1.8 7.3 3.5 11 5.1 6 2.7 11.9 5.3 18 7.8l7 2.8 1.1.5c6.3 2.4 12.6 4.8 19 7 16.4 5.7 33.1 10.6 50 14.9 21 5.3 42.3 9.5 63.7 12.7 7.3 1.1 14.6 2.1 21.9 3l1.2.1 8.6 1c4.5.5 9 .9 13.5 1.3 7.4.6 14.9 1.2 22.3 1.6l8.7.5 2.5.1c2.4 0 4.7-.5 6.9-1.4 1.5-.7 3-1.6 4-2.9.3-.4.6-.9.8-1.4.2-.6.3-1.4.4-2l2.6-17.2.2-1.2M514.5 160.4c-.4-.2-.6-.3-1.1-.4l-.5-.1c-.6 0-.3 0-.9.2M510.5 173.6c0-.8 0-1.6.2-2.4.4-1.7 1.4-3.4 2.7-4.6l1.1-.8"/>
    <path class="st1"
        d="M603.7 198.2c.3-.8.3-1 .8-1.7.8-1.1 1.8-1.9 2.9-2.6 2.4-1.4 5.2-2.1 7.9-2.4.7-.1 1.5-.1 2.2-.1 1 0 2 .1 3 .2 1.4.2 2.7.5 4 .9l59.6 16c1.7.4 3.4.9 5 1.8 1 .6 1.9 1.3 2.7 2.1.4.5.8 1 1.1 1.6.3.5.4 1.1.5 1.7.1 2-1 3.7-2.5 5-1.1.9-2.4 1.6-3.8 2.1-1.6.6-3.3 1-5 1.2l-3 .2c-1 0-2-.1-3-.2l-2.7-.5-7.1-1.6c-3.1-.7-6.3-1.4-9.4-2.2-9.6-2.3-19.2-4.9-28.7-7.7l-1.2-.4-6.6-2-2.3-.7-6.5-2.1c-2.4-.8-4.7-1.7-6.5-3.5-.9-1-1.6-2.1-1.7-3.4 0-.8.1-1 .3-1.7zM609 203.8c0-1.5 1.4-2.7 2.5-3.3 2.2-1.3 5-1.6 7.6-1.3 1.1.1 2.1.4 3.1.7l59.6 16 1.2.3.9.3c1.8.7 3.8 1.9 3.9 4M674.6 223.7c.2-.3.4-.7.8-.8.4-.2 1.1.1 1.4.1l1.2.1c1.6.1 3.2 0 4.8-.2M609.2 204c.2-.5.2-.6.6-1.1.8-1.1 2.2-1.8 3.5-2.2 1.9-.6 3.9-.8 5.9-.6 1.1.1 2.1.4 3.1.7l59.6 16.1c1.6.4 3.2.8 4.5 1.9.6.5 1.2 1.1 1.4 1.9M675.8 222.9c-8.1-1.8-16.3-3.6-24.3-5.7-7.6-1.9-15.1-4.1-22.6-6.2-3.4-1-6.7-2-10.1-3.1l-5.2-1.7c-.7-.2-1.4-.4-2.1-.7-.8-.3-.9-.4-1.6-.8M612.3 205.8h-.6c-.5.1-.8.4-1.2.7M609 203.9c.7.7.4.4 1.2.9M682.7 223c.8-.2 1.1-.2 1.9-.5.9-.3 1-.4 1.8-.8M686.4 221.7c.6-.4 1.1-.8 1.6-1.2M789.9 248.8c0-2.9.1-5.8.4-8.7M803.1 242.4c0-.8 0-1.6-.2-2.3-.6-1.6-2.1-2.8-3.7-3.3-.7-.2-.8-.2-1.6-.3"/>
    <path class="st1"
        d="M705.2 157.1c-.6.2-1.1.4-1.6.8-.3.2-.5.4-.7.7l-.2.4c-.3 1 .3 1.8 1 2.4 1.3.9 2.9 1.2 4.4 1.1 1.3-.1 2.7-.4 3.7-1.2.7-.6 1.2-1.5.8-2.4l-.2-.4c-.2-.3-.4-.5-.7-.7l-1-.6c-.9-.4-1.8-.5-2.7-.5-.6 0-.8 0-1.4.1-.7.1-.8.2-1.4.3zM691.1 157c.5 0 1-.1 1.5-.2.7-.2 1.8-.9 1.6-1.8l-.1-.3c-.1-.2-.3-.4-.4-.5-.8-.6-1.8-.8-2.7-.8-.5 0-1 .1-1.5.3-.7.3-1.8.9-1.6 1.8l.1.3c.1.2.3.4.5.5.7.5 1.7.7 2.6.7zM677.2 148.3c.5.2.6.3 1.1.6.7.5 1.3 1.4 1 2.3l-.2.4c-.2.3-.4.5-.7.8-1.2 1-2.9 1.2-4.4 1.2-1.3-.1-2.6-.3-3.7-1.1-.8-.5-1.3-1.4-1-2.4l.2-.4c.2-.3.4-.5.7-.7.6-.5 1.5-.9 2.3-1.1 1.6-.3 3.2-.2 4.7.4zM689.4 156.7c-.5-.5 0-1 .4-1.3.8-.4 1.8-.4 2.5 0 .3.2.6.5.5.9 0 .2-.1.2-.2.3M689.4 153.6l.7 1.7v1.6M703.4 159.5c-.1.3-.2.4-.2.7 0 .7.5 1.3 1.1 1.7M712 159.5c.1.3.1.3.1.7 0 .7-.5 1.3-1.1 1.7M678.6 150.5c.1.3.2.3.2.6 0 .8-.6 1.3-1.1 1.7M670 150.5c-.1.3-.1.4-.1.7 0 .8.5 1.3 1.1 1.7M510.5 174.4v278.4M803.1 243.1v278.5M803.4 239.9l.1.1M802.9 243.1h.2M511.2 174l-.7.4M782.4 514.1c.6-.3.4-1.2.4-1.7v-14.5c0-.1.2-1.3-.2-1.6-.4-.4-1.5-.3-1.8-.3l-18.1-1.2-1.2-.1h-.4c-.6.2-.4 1.4-.4 1.7v14.5c0 .5-.2 1.3.2 1.7"/>
    <path class="st1"
        d="M760 514.9c.7.2 1.3.2 2.1.3l18.9 1.3c1 .1 2.3.3 3.1-.4.7-.6.5-1.6.5-2.5v-15.1c0-1 .1-2.1-.8-2.8-.8-.6-1.9-.5-2.8-.6l-18.9-1.3-1.2-.1h-.4s-.5 0-.8.2l-.3.2c-.9.6-.8 1.7-.8 2.7v15.1c0 1.1-.1 2.1.8 2.8.2 0 .3 0 .6.2zM803.5 239.6c.2 0 .2.1.2.3v274.7c0 1.1 0 2.2-.1 3.3-.1.8-.2 1.7-.4 2.5-.1 1-.3 2-.8 3-.7 1.1-1.8 2-2.9 2.6-1.7 1-3.6 1.6-5.5 1.9l-2.7.3c-2.1 0-4.3-.1-6.4-.3l-26.7-1.8c-4.3-.3-8.6-.8-12.8-1.2-5-.5-10-1.1-15-1.7-7.9-1-15.8-2.1-23.6-3.3-20.3-3.2-40.4-7.3-60.3-12.4-19.1-4.9-38-10.6-56.5-17.4-3.6-1.3-7.2-2.7-10.7-4l-1.1-.4-8.2-3.3c-4.2-1.7-8.4-3.5-12.6-5.4l-7.8-3.6-1.1-.5c-6.5-3.1-13-6.3-19.4-9.6l-1.1-.6-7.2-3.9c-3.1-1.7-6.1-3.5-9.1-5.2-1.6-.9-3.2-1.9-4-3.5-.3-.5-.5-1.1-.5-1.7v-279.2M507 169.8c.2.8.1 1 .5 1.7.9 1.6 2.4 2.6 4 3.5 3 1.7 6 3.5 9.1 5.2l7.2 3.9 1.1.6c3.2 1.7 6.4 3.3 9.6 4.9 6.5 3.2 13.2 6.3 19.9 9.3l1.1.5 8.1 3.4c7 3 14.1 5.6 21.2 8.3 3.6 1.4 7.3 2.6 10.9 3.9 4.4 1.6 8.9 3.1 13.4 4.4l9 2.8 1.2.4c3.8 1.2 7.6 2.2 11.5 3.3 11.7 3.2 23.5 6.1 35.4 8.7 16.2 3.5 32.5 6.4 48.9 8.7 7.9 1.1 15.8 2 23.8 2.9 14 1.6 27.9 2.3 41.9 3.3 1.4.1 2.7.2 4.1.2 1.3.1 2.6.1 3.8 0 1.6-.2 3.2-.5 4.7-1.1 1.3-.5 2.5-1.2 3.6-2.1.7-.7 1.3-1.4 1.7-2.4.2-.6.3-1.4.4-2.1l.1-.7.2-1.2.1-.3M782.9 248.5c2 .1 4.1.3 6.2.4 2 .1 3.9.1 5.9-.4"/>
    <path class="st1"
        d="M782 514.6c.4-.1 1.2-.3 1.2-.9v-15.7c0-.6.2-1.3-.3-1.9s-1.5-.4-2.1-.5l-18.2-1.2-1.2-.1c-.2 0-.3 0-.5.1-.9.3-.7 1.3-.7 2v14.5c0 .7-.2 1.3.3 1.8.6.6 1.3.5 2.1.6l18.2 1.2 1.2.1zM782.7 513.6l.4.2.3.6v.3c0 .4-.2.8-.7.8-.2 0-.4-.1-.5-.1l-1.2-.1-18.9-1.3-1.2-.1-.5.1h-.4c-.3-.1-.4-.4-.4-.7v-18.099999999999998c0-.1 0-.3.1-.4.3-.4.8-.3 1.1-.3l1.2.1 18.9 1.3 1.2.1c.3 0 .7.1 1 .3.3.2.2.4.2.7v17.5M782.3 516.5v-1.3l-.3-.6v-.3M783.5 514.3c.3.3.7.4 1.1.4M760.1 246.9c-5.7-.4-11.3-.9-17-1.6l-10.1-1.2-1.2-.1c-6.2-.8-12.3-1.6-18.4-2.5M692.2 238c2.4.5 4.8.8 7.2 1.2M703 239.9c2.8.5 5.6.9 8.4 1.3M681.3 235.9l5.6 1.1M672.6 234.2l-2.2-.5M761.4 512.9v.3l-.4.5v1.3M758.5 513c.4 0 .7 0 1-.1l.2-.1.4-.6c.1-.1.4-.1.5-.1M761.4 494.6v-.3M760.9 493.6v.7M758.5 495.4c.3 0 .5 0 .8-.1l.4-.2.4.1.2-.1h.3M782 495.7v.3M784.6 497.1c-.4 0-.8-.1-1.1-.4h-.3l-.4-.2M782.3 495.7c-.1-.2-.1-.4-.1-.6M781.4 504.9l-9.4-.6M761.9 496.1v7.5l9.4.6M772 504.3v-7.5M761.9 512v-7.6M761.9 512l9.4.6M781.4 497.4v7.8M782.3 496.7l-21.4-1.4M761.9 512.2v-7.8M772 496.8l9.4.6M761.9 496.1l9.4.6M772 504.3v.2M771.3 504.5v-7.8M771.3 505l-9.4-.6M771.3 504.5l-9.4-.7M771.3 505v7.8M772 496.8v7.7M771.3 512.8l-9.4-.6M760.9 512.9l21.4 1.4M781.4 505.2l-9.4-.7M761.9 512v.2M760.9 512.9v-17.6M761.9 503.6v.2M761.9 496.1v7.7M761.1 494.9l21.3 1.4M760.9 495.3l.2-.4M782.4 513.9h-.1M772.1 508.3c0 .4 0 .9.1 1.3.4 1.5 1.7 2.4 3.1 3"/>
    <path class="st1"
        d="M780.2 512.1c.3-.3.6-.5.7-.8.9-1.5.4-3.4-.9-4.5-1.1-1-2.4-1.3-3.8-1.4-.7 0-1.3.1-2 .4-1.4.6-2.4 2-2.2 3.6 0 .3.1.6.2.9.2.4.4.8.8 1.2 1.8 1.9 5.2 2.3 7.2.6zM775.2 512.7c.5.1 1 .3 1.5.3 1.6.1 3.4-.5 4.2-1.9.2-.3.3-.7.4-1M782.3 514.3v-16.3c0-1.4-.1-.8.1-1.6M782.3 514.3c.1-.8.1-.3.1-1.6v-16.3M683.9 519.7l.1 107M724.2 677.9v1.2l.1 52.5c0 .9 0 1.9.1 2.8.1.7.4 1.4.6 2.1.2.6.5 1.2.8 1.8 1.4 2.4 3.7 4.3 6.3 5.3.8.3 1.6.5 2.4.7l22.1 5.9 1.2.3.3.1c.5 0 1-.7 1.2-1.1.8-1.4 1.3-3.1 1.4-4.7 0-.5 0-1.1-.2-1.6-.1-.2-.2-.4-.4-.5l-.3-.1-.3.1c-.6.3-1 1-1.3 1.6-.6 1.2-1 2.7-1.1 4.1 0 .6 0 1.4.4 1.9l.2.2M733.3 744.1l-.2-.2c-.4-.5-.4-1.3-.4-1.9.1-1.4.5-2.9 1.1-4.1.2-.5.5-1 .9-1.3.1-.1.4-.3.6-.3h.3l1.2.3 22.1 5.9 1.2.3M724.2 677.6c-.4-1-.9-1.8-1.8-2.4l-.9-.5c-.3-.1-.5-.1-.7-.4-.1-.2-.2-.5-.3-.8-.1-.6-.1-1.2 0-1.8.2-1.2.5-2.4 1-3.5.2-.5.5-.9.9-1.3.2-.1.4-.3.6-.3h.3l.6.2.6.2c1.3.5 2.5 1.3 3.6 2.2 1.6 1.3 2.8 3 3.5 4.9.3.7.5 1.4.6 2.1.1.9.1 1.9.1 2.8l.1 52.8c0 .5.1 1.2-.1 1.7-.5 1.1-2 1.6-3.1 1.7h-1.5c-1.1-.1-2.6-.5-3.2-1.6l-.2-.4M732.5 733.6c-.1-.5-.1-.3-.1-.7M732.5 733.6c.4 1 1.2 1.9 2.1 2.4.4.2.5.3 1 .4M675.9 698.1l2.4.6 26 7c1.1.3 2.2.6 3.4.7 2 .1 4-.5 5.5-1.8.8-.7.9-.9 1.5-1.7l5.6-6.9c.6-.8 1.3-1.5 1.8-2.4.4-.7.6-1.5.7-2.3.1-.7.1-1.6.1-2.3v-13.2M721 674.5l-1.2-.3-.7-.2c-.3-.1-1.1-.1-1.4-.5-.4-.5-.4-1.3-.4-1.9 0-1.4.4-2.8 1.1-4.1.3-.6.7-1.3 1.3-1.6.5-.2 1.5.2 1.7.3l.7.2 1.2.3M732.3 678l-.1.4c-.5 1.1-2 1.6-3.1 1.7h-1.5c-1.2-.1-2.6-.5-3.2-1.6-.2-.4-.2-.8-.3-1.2M723 690.1l-.1.4-.2.4-.8.9-5.6 6.9c-.2.2-.7 1-1.1 1.3-.8.6-1.9.8-2.9.8-.9-.1-.4 0-1.3-.2"/>
    <path class="st1"
        d="M706.8 704.8c.7-.1 1-.1 1.7-.3 1.3-.5 2.2-1.6 2.5-2.9.1-.7.1-1.5.1-2.1v-48.4c0-.7 0-1.4-.1-2.1-.2-1.3-.9-2.5-1.7-3.5-.9-1.1-2.1-1.9-3.4-2.5-.7-.3-1.4-.4-2.1-.6l-68.1-18.3c-.7-.2-1.4-.4-2.2-.5h-.9c-.7.1-1 .1-1.7.3-1.3.5-2.2 1.6-2.4 2.9-.1.6-.1 1.5-.1 2.1v48.4c0 .7 0 1.4.1 2.1.2 1 .6 1.9 1.1 2.6 1 1.5 2.4 2.6 4 3.3.7.3 1.4.5 2.1.7l29.5 7.9c.9.2 1.8.5 2.6.8 1.4.5 2.9 1.1 4.4 1.4l2.9.5c.9.2 1.8.4 2.6.6l26 7c.7.2 1.5.4 2.2.5l.9.1zM714 703.8c.6-.8.8-.9 1.1-1.9.4-1.1.4-2.3.4-3.4v-48.5c0-1.2 0-2.5-.4-3.7-.9-3.1-3.4-5.8-6.2-7.3-1.2-.7-2.5-1-3.8-1.4l-68.1-18.3c-.8-.2-1.7-.5-2.5-.6l-1.3-.1-1.2.1c-.8.1-1.4.3-2.2.7-2.3 1.2-3.4 3.7-3.5 6.1v49.7c0 1.2 0 2.5.3 3.7.9 3.1 3.2 5.7 6 7.1 1.1.6 2.3.9 3.5 1.2l29.5 7.9 1.2.3.9.3c1.4.5 2.7 1 4.1 1.4 1.3.3 2.6.5 4 .7M666.3 695.5v1.2l.2 233.9c0 .8-.1 1.7.2 2.4.7 1.7 2.3 2.8 4 3.5 3.4 1.3 7.2 1.4 10.7.4 2.2-.6 4.6-2 5.3-4.3.2-.6.1-1.5.1-2.1l-.2-228.4v-1.2M676.5 696.9c0 .4 0 1.2.4 1.4l.2.1M667 695.7l-.2-.1c-.4-.3-.4-1-.4-1.4M634.4 685.6c0 .4 0 1.1.4 1.4l.2.1M626.4 676.6v.4c.2.9 1.2 1.2 1.9 1.5M628.1 620.8l.8-1 5.6-6.9.8-1c1.6-1.8 4.1-2.3 6.4-2 .8.1 1.7.4 2.5.6l22.6 6.1 1.2.3M684.7 519.8v1.2l.1 102.2c0 .9.1 1.9-.3 2.7-.4.8-1.2 1.5-2 2-1.3.8-3 1.3-4.6 1.5l-1.3.1h-1.3c-1.6-.1-3.3-.5-4.7-1.3-1.1-.6-2.1-1.4-2.5-2.6-.2-.7-.1-1.3-.1-2l-.1-106v-1.2M684.8 620.8l1.2.3 27 7.3c1.2.3 2.4.6 3.5 1.2 2.8 1.4 5.2 4.1 6 7.1.3 1.2.3 2.5.3 3.7v26.2M722.6 675.4v14.2c0 1.2 0 2.3-.4 3.5l-.5 1M684.8 621.5l1.2.3 26.2 7.1c1.3.3 2.6.7 3.8 1.4 2.8 1.5 5.3 4.2 6.2 7.3.4 1.2.4 2.4.4 3.7v25.4M704.8 642.6c0-1.4.4-2.9 1.1-4.1l.3-.4.8-1 5.6-6.9c.4-.5.9-1.3 1.6-1.5M711 649.7c1.4.3 3 .3 4.2-.6.4-.3.9-1.1 1.1-1.3l5.6-6.9.8-1 .2-.4.1-.4M635.3 612c.5-.6.9-.9 1.5-1.3 1.7-1.1 3.9-1.4 5.9-1.2.8.1 1.6.4 2.3.6l21.8 5.9 1.2.3M628.3 627.5c-.7-.3-1.7-.6-1.9-1.5v-.4M634.4 623.6c0-1.4.4-2.9 1.1-4.1l.3-.4.8-1 5.6-6.9c.4-.5.8-1.3 1.6-1.5M704.9 704.5c0 .4 0 1.1.4 1.4l.2.1M754.5 1042.9v.6M754.4 1042.9v.6M754.1 1042.5v.8M753.8 1043.3v-.8M753.6 1043.5v-.6M753.5 1043.5v-.6M754.5 1043.8M754.9 1043.6v-.3M754.9 1043.3v.3M753 1044.5v.3M753.8 1043.9v-.1M753.7 1043.8h-.2M754.9 1043.5h-.4c-.2 0-.3-.2-.5-.3-.2 0-.2.2-.4.3l-.4.1M753.2 1043.7v-.3l-.3-.4h.1s.3.1.5 0 .2-.3.3-.4h.3c.2 0 .4 0 .6.1l.3.2c.3.2.3.6 0 .8s-.6.3-.9.3h-.6l-.3-.3-.3-.2c-.4-.5.4-.9.8-1 .3 0 .3 0 .5.2l.1.1v.6M755.2 1043.5l-.2-.2c0-.1.3-.5 0-.5l-.5.1h-.1M755.1 1043.5l-.6.2c-.1 0-.2.1-.3.2M756 1044.5c.3-.2.6-.5.6-.9v-.4c0-.2 0-.3-.1-.4-.1-.2-.3-.4-.5-.6-.6-.4-1.3-.5-2-.6-.7 0-1.4.1-2 .6-.2.2-.4.3-.5.6-.2.6 0 1.3.5 1.6M751.5 1043.1c0 .7.5 1.1 1.2 1.3.9.4 2 .4 2.9 0 .6-.2 1-.5 1.1-1.1M754.1 1043.9l-.4-.1-.6-.2M753 1043.5l.2-.1M830.9 1111.2v-3.9M830 1080.4l.2-2M831.1 1144.1l-.2.1M831.1 1144.1v-9.6M831.1 1071.7l-.2.1M831.1 1071.7v-9.6M836 1055.4l.5-.6M830.9 1071.8v-9.7M834.1 1139.7l-1.4-1.7M831.1 1075.7v-4M830.9 1107.3v-3.9M828.9 1111.5v1.9M829.6 1122.8l.2 1.9M834.1 1065l-1.4-1.7M830.9 1072v.3M828.9 1111.5c-.1-2.5-.1-5.1-.1-7.7M831.1 1075.7c-.1 9.2-.2 18.4-.2 27.6M829.6 1122.8c-.3-3.1-.5-6.3-.7-9.4M830.9 1134.2c0-.6-.1-.8-.2-1.6l-.4-2.4c-.2-1.8-.4-3.7-.6-5.6M827.4 1133.4c-.5-.4-.9-.7-1.5-.9M830.9 1072.4v-.1M836.8 1054.5c.1.1.3.3.2.5l-.7.8-.7.8c-1 1.2-1.9 2.4-2.8 3.5l-.7.9c-.6.7-.5.9-1.1 1.1M834.1 1058.3c0-.1-.1-.2-.2-.3M836.4 1065.3l-.8 1-3 3.7-.8.9v62.8M836.4 1065.3v62.7l-.8 1-3 3.7-.8 1M837 1054.9c0 3.2-.1 6.5 0 9.7.1 7.4.2 14.8.2 22.1 0 12 0 24-.1 36v14.399999999999999l-.6.8c-.7 1-1.5 2-2.3 2.9l-1.7 2.1-.6.7c-.6.6-.5.8-1.2.8h-.1M837 1136.9l-1.4 1.9c-.9 1.2-1.9 2.4-2.8 3.5l-.7.8c-.1.1-.5.8-.9.9M831.2 1144.2c.1-.1.1-.1.1-1.3 0-5 0-9.9-.1-14.9-.2-15.7-.2-31.3 0-47l.1-9.2v-8.4c0-.1.3-1.3-.2-1.5"/>
    <path class="st1"
        d="M834.6 1058.8c-.8.5-1.2 1.5-1.5 2.3-.2.6-.4 1.3-.5 2-.1.6-.1 1.3.1 1.9 0 .1.1.3.2.4.3.4.7.2 1-.1.1-.1.2-.3.4-.4.8-1.2 1.2-2.6 1.3-4v-.8c0-.5-.1-1.3-.7-1.4-.2 0-.1 0-.3.1zM837 1064.6v-8.4c0-.2.3-1.4-.3-1.6l.3.1M830.7 1062.2v8.299999999999999c0 .5.1 1.2 0 1.8l-.2 1.2-.2 1.6-.1 1.2c-.3 2.7-.6 5.3-.8 8-.6 6.5-.9 13-.9 19.5 0 6.4.3 12.7.9 19 .2 2.5.5 4.9.8 7.4l.4 2.4.2 1.2v10.4M830.6 1144.3l.3-.2M831.1 1144.1v.2l-.1-.1"/>
    <path class="st1"
        d="M835.2 1137.5c.3-.9.5-2 .4-2.9 0-.5-.1-1-.6-1.1-.6.1-.9.6-1.2 1-.8 1.3-1.2 2.9-1.1 4.4v.6s.1.3.1.4l.1.2c.4.6 1.1-.2 1.4-.5l.2-.3.2-.3c.2-.5.4-1 .5-1.5zM825.4 1132.4c-1-17.6-1.1-35.2-.4-52.8M830.2 1078.4l.7-6M831 1061.8l.1.3M828.4 1074.7c-.7 15-.9 30-.5 45 .1 3.6.3 7.2.5 10.8l.1 1.6.1 1.2.1.1M822.4 1123.9c-.6-13.2-.7-26.3-.3-39.5M830 1080.4c-.4 3.9-.7 7.9-.9 11.8-.2 3.9-.3 7.8-.3 11.7M831.1 1134.5c-.1-7.8-.2-15.5-.2-23.3M828.6 1133.4l-1.2-.4-.8-.3-1.2-.4c-1.1-.4-2.3-1-2.7-2.2l-.1-.3-.1-1.2v-.4l-.1-1.2M828.6 1133.4c-.1 0-.1.3-.1.4M828.5 1133.4l1.1.3c.1 0 .9.4 1.3.3M828.5 1133.3l1.1.3c.3.1.9.4 1.3.3M830.9 1144.2v-10M831.1 1134.5l.2-.1M830.7 1134.5h.2M831.1 1071.7l.2-.1M830.9 1062.1l-.1-.1M830.7 1071.8h.2M830.2 1072.1c.3.1.5.2.7.1M830.9 1072.4c-.3 0-.6-.1-.8-.2M828 1075.2l-.9 1.2M830.5 1071.8l-.9 1.1M813.8 1148.3l-1.3.5M814 1148.1l-.7.4M815.5 1147.2l-.7.4M825.1 1139.6l.9-.8M823.9 1141.5l.8-.7M823.5 1141.2l.8-.8M822.4 1142.8l.7-.7M821.8 1142.6l.9-.7.8-.7M847.5 1109.4l-1.6 2.6M847.5 1109.4l-.8 1.2M859.2 1036.7l.9.3M856.7 1049.1l-.5.3M856.7 1049.1l-.6.3M858 1048.7l.4-.1M823.1 1142.1l.8-.6M821.6 1143.4l.8-.6M830.5 1134.9v9.5M824.3 1140.4l.8-.8M812.5 1148.8l.8-.3M814 1148.1l.8-.5M826.1 1132.6l-.3.3M821.6 1143.4c-1.8 1.4-3.7 2.8-5.8 3.9M830.2 1134.4l.3.4M826.3 1139.2c1.4-1.4 2.8-2.9 4.2-4.4"/>
    <path class="st1"
        d="M807.3 1106.5c0-.9.1-1.8.3-2.6.2-.6.4-1.2.6-1.7l.2-.4.2-.3.2-.3c.3-.4.8-.9 1.2-.4l.1.2c.1.1.1.4.1.5l.1.7c0 1.5-.4 3-1.2 4.3-.3.5-.6 1-1.2 1.2-.5 0-.6-.7-.6-1.2zM809.1 1126.7c1.1-1.1 2.1-2.2 3.1-3.4 1.8-2.4 3.3-4.9 5.2-7.2.8-.9 1.6-1.8 2.5-2.7.7-.7 1.4-1.3 2.2-1.9M830.5 1062.5v9.1l-.7 1-.3.4c-.8 1.1-1.6 2.2-2.4 3.4-2.3 3.3-4.3 6.6-6.3 10.1-2.7 4.6-5.2 9.3-7.5 14.1-1.3 2.8-2.7 5.5-4 8.4-.9 2-1.7 4-2.5 6M822.5 1127.2l-6.3-2.1-3.1-1.1c-1.4-.5-2.7-1-4-1.7M813.5 1100.3c2.8-.6 5.6-1.1 8.4-1.5M809.2 1100.9c-.2.2-.4.3-.5.5M807.4 1107.1l.1.2c.4.4.9 0 1.2-.3l.2-.3.2-.3c.7-1.2 1.1-2.7 1.1-4 0-.5 0-1.5-.7-1.5l-.4.1M810.4 1102.3l-.2.1-1.1.2-1.1.3M807.3 1106.4c0 .3.1.5.2.8M809.1 1109.6v36.400000000000006c0 .9 0 1.8-.2 2.7M809.1 1153.1c.1-.1.2-.1.4-.2.6-.1.7.8.7 1.2v.8c-.1 1.3-.4 2.6-1.1 3.7-.2.4-.6.9-1.1 1.1-.3 0-.4-.1-.6-.4M806.8 1150.5c.8-.2 1.6-.4 2.3-.6l.2-.1.8-.3c.4-.2 1-.4 1.2-.8.1-.2.1-.4.1-.6 0-.6-.2-1.2-.4-1.7s-.5-.9-.8-1.3c-.4-.5-.8-1.1-1.3-1.6M808.9 1148.4l-.1.4-.2.5c-.1.2.2.5.3.6l.1.1.8-.3.8-.3c1.6-.6 3.1-1.4 4.6-2.3 3.2-1.9 6.1-4.3 8.8-6.8 2.1-1.9 4-3.9 5.9-6M837 1136.3c2.5-3.5 5-7 7.3-10.6 5.7-9 10.6-18.4 15.1-28 .4-1 .9-1.9 1.2-2.9.3-1.2.3-2.3.3-3.5v-7.2l-.1-.3-.5 1.2-.3.7-.5 1.1c-1.4 3.3-2.9 6.5-4.4 9.7-3.4 7-7.1 13.8-11.1 20.5-2.2 3.5-4.5 7-6.9 10.3M855.5 1095.1c-2.8 5.9-5.8 11.7-9.1 17.3-2.9 4.9-6 9.7-9.4 14.3M824.7 1140.8l1.6-1.6M837 1125.3c4.6-6.3 8.7-12.9 12.6-19.7 2.2-3.9 4.3-7.8 6.2-11.8.7-1.4 1.3-2.8 2-4.3.5-1 1.1-2 1.5-3 .4-.7.7-1.4 1-2.2l.3-.7.1-.2v-35.400000000000006M857.3 1045.4l.1.2c.4.4.9 0 1.2-.3l.2-.3.2-.3c.7-1.2 1.1-2.7 1.1-4 0-.5 0-1.5-.7-1.6l-.3.1M837 1063.6c4.5-4.9 9.4-9.6 15.3-12.7 1.3-.7 2.6-1.2 3.9-1.7l1.9-.7c.7-.2 1.3-.2 2-.3h.6c.1-.2.1-.4.1-.6v-8.4c0-.6 0-1.7-.8-1.8h-.2l-.8.3-.8.3-.8.4c-1.2.5-2.3 1-3.4 1.6-4.6 2.5-8.7 5.9-12.4 9.6-1.2 1.2-2.4 2.5-3.6 3.8l-.2.2-.8.9v.5M841.7 1058.8c-1.6 1.6-3.2 3.2-4.7 4.8M841.6 1058.9c3.1-2.9 6.4-5.5 10.1-7.6 1-.5 2-1 3-1.4.3-.1.8-.1.8-.5M859.8 1037.1c-.2-.2-.6-.3-.8-.3M860.9 1047.8c.1-.5.1-1.1.1-1.6v-7.6000000000000005c0-.7-.2-1.5-1-1.7h-.2l-.8.3-.8.3-.8.4c-2.2.9-4.3 2-6.3 3.4M837.8 1062.8v34.00000000000001l.1 1.2.8 6.2M853.7 1096.1c-.9-.9-1.7-2-2.2-3.2M857.8 1089.6c-1.2 1.9-2 4.1-3.4 5.8-.5.6-1.1 1.1-1.7 1.7-.9.8-1.8 1.5-2.7 2.2-1.4.9-2.8 1.8-4.3 2.5-1.4.7-2.8 1.4-4.3 1.8-1.4.4-2.8.6-4.2.9M855.5 1095.1c-1.7 3.2-3.3 6.5-5.1 9.6-4.1 7.3-8.5 14.3-13.4 21M806.8 1150.6c.8 0 1.7-.1 2.5-.3 1.2-.3 2.3-.8 3.4-1.3 5.1-2.1 9.6-5.6 13.6-9.5 1.1-1.1 2.2-2.3 3.3-3.5.4-.4 1-.7.9-1.3M859.5 1086l.8-1.6.4-.7.1-.1v-.2"/>
    <path class="st1"
        d="M858.1 1098c.5-.4.9-.9 1.2-1.5.5-1.1.9-2.3.9-3.5v-.4c0-.5 0-1.6-.8-1.6-.6.2-.9.7-1.2 1.2-.7 1.2-1 2.6-1.1 3.9v.8c0 .4.1 1.1.6 1.2.2 0 .2 0 .4-.1zM837.2 1096.9l3-.3c1.3-.1 2.7-.3 4-.6 2-.5 4.1-1.3 5.9-2.2.8-.4 1.5-.8 2.2-1.2 1.6-.9 3.2-1.7 4.5-3 .4-.4.6-.7.9-1.1.8-1.1 1.5-2.2 2.2-3.3M859 1091.3c.1-.1.2-.1.3-.1.6-.1.7.8.7 1.2v.8c-.1 1.3-.4 2.6-1.1 3.7-.3.4-.6.9-1.1 1.1-.3 0-.4-.1-.5-.4M857.8 1093.2l1.1-.3 1.1-.2.2-.1M860.9 1083.6v.2M859.5 1086.7l-.2-.1M860.8 1083.5l.1.2M859.1 1091.3c-.2.2-.4.3-.5.5M860.8 1048.1l-.1.1v35.4M855.3 1095c.1 0 .3.1.3.2M857.3 1097.5l-.2-.8M858.2 1089.8c0-.1-.2-.2-.3-.2M857.2 1089.1c.1.2.4.4.6.5M859.9 1037.3v-.2"/>
    <path class="st1"
        d="M859.4 1038.9c-.6.2-.9.7-1.2 1.2-.7 1.2-1 2.6-1.1 3.9v1.1c0 .4.2 1 .7.9s.9-.7 1.2-1.2c.7-1.2 1-2.5 1.1-3.9v-.4c.1-.5.1-1.5-.7-1.6zM860.9 1047.8l-.1.4-.8.2-.8.2-2.4.5c-.7.2-1.2.5-1.9.8l-2.1.9M860.7 1048.2c-.2 0-.4.1-.7.1l-2 .3M860.2 1040.6l-.2.1-1.1.2-1.1.3M859.3 1048.5l.2-.2M858.2 1048.5c-.1.3-.6.3-.8.4-.7.2-1.3.5-1.9.7M859.1 1039.2l-.5.5M857.2 1044.7c0 .3.1.5.2.8M857.2 1049.1l.1-.2M830.5 1135.1v9.2l-.8.9-.2.2c-1.1 1.3-2.3 2.5-3.6 3.7-3.7 3.7-7.8 7.1-12.4 9.6-1.1.6-2.2 1.2-3.4 1.6l-.8.3-.8.3-.8.3h-.2c-.3-.1-.5-.3-.6-.6M811.5 1148.5c-.3 0-.5-.1-.7-.2-.8-.4-1.3-.9-1.7-1.8M815.5 1147.2l3.2-2.1c1.1-.8 2.1-1.7 3.2-2.6M807.2 1161.6c.1 0 .1 0 .8-.2s.8-.3 1.5-.6c1.6-.6 3-1.4 4.5-2.2 4.3-2.5 8.1-5.7 11.7-9.1 1.1-1.1 2.2-2.2 3.2-3.3l1.6-1.8v-.1M830.2 1134.4c-1.4 1.5-2.8 3-4.3 4.4M812.6 1149.1c0-.2-.1-.3-.2-.4"/>
    <path class="st1"
        d="M807.9 1159.8c.6 0 1.1-.7 1.3-1.2.7-1.2 1.1-2.5 1.1-3.9v-.4c0-.5 0-1.6-.8-1.6-.6.2-.9.7-1.2 1.2-.6 1.2-1 2.6-1.1 3.9v.4c.1.5.1 1.3.7 1.6zM825.8 1132.9c1.1.4 2.2.7 3.2 1 .1 0 .9.2 1.2.4M813.8 1148.3l2-1M807.3 1158.4c0 .3.1.5.2.8M810.4 1154.4l-.2.1-1.1.2-1.1.2M808.7 1153.5c.2-.2.3-.4.5-.5M807.5 1161.4c-.1.2-.2.3-.5.3l-.3-.1M806.8 1150.5c.5-.2 1.1-.5 1.5-.9.2-.2.4-.4.5-.6M809.1 1149.9c.2.1.2.2.2.4M476.1 967.9v.6M476 967.9v.6M475.6 967.6v.7M475.4 968.3v-.7M475.2 968.5v-.6M475 968.6v-.7M476 968.9v-.1M476.5 968.6v-.3M476.5 968.3v.3M474.5 969.6v.3M475.3 968.9v-.1M475.2 968.8l-.1.1M476.5 968.5h-.4c-.2 0-.3-.2-.5-.3-.2 0-.2.2-.4.3l-.4.1M474.8 968.7v-.3c0-.1-.3-.3-.2-.4h.1s.4.1.5 0c.2-.1.2-.3.3-.4h.3l.6.1.3.2c.3.2.3.6 0 .8s-.6.3-.9.3h-.6l-.4-.3-.2-.2c-.4-.5.4-.9.8-1 .3 0 .3 0 .5.2l.1.1v.6M476.7 968.5l-.2-.2c0-.1.3-.5 0-.5l-.5.1h-.1M476.7 968.5l-.6.2c-.1 0-.2.1-.4.1M477.6 969.5c.3-.2.6-.5.6-.9v-.3c0-.2 0-.3-.1-.5s-.3-.4-.5-.6c-.6-.4-1.3-.5-2-.5s-1.4.1-2 .6c-.2.1-.4.3-.5.6-.2.6 0 1.3.5 1.6M473 968.1c0 .7.5 1.1 1.1 1.4.9.3 2 .3 2.9 0 .5-.2.9-.6 1.1-1.1M475.7 968.9l-.4-.1c-.2-.1-.4-.1-.6-.1M474.6 968.6l.2-.2M697.2 927.4v.7M697.2 927.4v.7M697.2 927.4v.7M697.9 927.9v-.8M696.5 927.9v-.8M697.2 930v.4M696.3 928.4v-1.0999999999999999l.2-.1.5.2.2.1h.2l.5-.2h.2v1.2c0 .2.1.4-.1.4l-.8-.2s-.5.2-.8.2c-.2-.1-.1-.3-.1-.5-.2-.2-.6-.3-.7-.4l-.1-.1.1-.1.5-.2.2-.1M698.1 927.5c0 .2 0 .1.2.2l.4.2v.2l-.4.1-.2.2M698.1 928.3l.2-.1M698.3 927.7c-.1-.1 0-.1-.2-.2M697.4 927.3h-.4M698.1 928c-.4-.1-.6.1-.9.1s-.5-.2-.7-.2l-.2.1M699.8 929.8c.3-.2.6-.4.7-.8.1-.2.1-.3.1-.5v-.8c-.1-.4-.4-.7-.7-.9-.8-.6-1.8-.8-2.8-.8s-2 .2-2.8.8c-.3.2-.6.5-.7.9v.8s0 .3.1.5c.2.4.4.6.7.8M693.7 928c.1.8.6 1.3 1.3 1.6 1.2.5 2.6.6 3.8.2.6-.2 1.3-.6 1.6-1.2.1-.2.1-.3.1-.5M696.1 928.2l.2.2M696.3 927.5l-.2.2M682.6 945.5v.8M682.5 945.5v.8M683.2 946.1v-.8M681.8 946.1v-.8M682.5 948.2v.4M681.6 946.6v-1.2l.2-.1.5.1.2.1h.2l.5-.1h.2v1.2c0 .2.1.5-.2.5s-.5-.2-.8-.2-.5.2-.8.2c-.1-.1 0-.3 0-.5-.2-.2-.6-.3-.7-.4l-.1-.1h.1l.5-.2.2-.1M683.4 945.7c0 .2 0 .1.2.2l.5.2v.1l-.5.2-.2.2M683.4 946.5l.2-.1M683.6 945.9l-.2-.2M683.4 946.2l-.2-.1-.8.2s-.5-.2-.7-.2l-.2.1M682.7 945.5h-.4M685.1 948c.3-.2.6-.5.7-.8.1-.2.1-.3.1-.5v-.8c-.1-.4-.4-.7-.7-1-.8-.6-1.8-.8-2.7-.8-1 0-2 .2-2.8.8-.3.3-.6.6-.7 1v.8s0 .3.1.5c.1.3.4.6.7.8M679 946.2c.1.8.7 1.3 1.4 1.6 1.2.5 2.6.5 3.8.1.6-.2 1.3-.6 1.6-1.2.1-.2.1-.3.1-.5M681.4 946.4l.2.2M681.6 945.7c-.1.1-.1 0-.2.2M651.1 937.8v-.7M651 937.8v-.7M651.7 936.8v.8M650.3 936.8v.8M651 940.1v-.4M650.1 938.1v-1.0999999999999999l.2-.1.5.1.2.1h.2l.5-.1h.2v1.1c0 .2.1.4-.1.5l-.8-.2s-.5.2-.8.2c-.2-.1-.1-.3-.1-.5-.2-.2-.6-.3-.7-.3l-.1-.1h.1l.5-.2.2-.1M651.9 938.1l.2-.2.5-.1v-.1l-.5-.2c-.2-.1-.2 0-.2-.2M652.1 937.9l-.2.1M652.1 937.4c-.1-.1 0-.1-.2-.2M650.8 937h.4M650.1 937.7l.2-.1.6.2h.1l.6-.2.2.1M653.6 939.5c.3-.2.6-.5.7-.8.1-.2.1-.3.1-.5v-.8c-.1-.4-.4-.7-.7-.9-.8-.6-1.8-.8-2.8-.8s-2 .2-2.8.8c-.3.2-.6.5-.7.9v.8s0 .4.1.5c.2.4.4.6.8.8M647.5 937.7c.1.8.7 1.3 1.3 1.6 1.2.5 2.6.5 3.9.1.6-.2 1.3-.6 1.6-1.2.1-.2.1-.3.1-.5M650.1 938.1c-.2-.1-.1-.1-.2-.2M649.9 937.4c.1-.1 0-.1.2-.2M665.7 919.6v-.7M665.6 919.6v-.7M665.8 919.6v-.7M666.4 918.6v.8M665 918.6v.8M665.7 921.9v-.4M666.5 918.6l-.8.2c-.2 0-.5-.2-.8-.2-.4 0-.1.6-.1.8v.4M664.8 918.7v.4l-.2.1-.5.1-.1.1.1.1c.1 0 .5.1.6.3.1.1-.1.4.1.5h.2c.1 0 .5-.2.7-.2l.8.2M664.8 919.5l.2-.1.6.2h.1c.3 0 .5-.3.8-.2M665.5 918.8h.4M666.5 921.4h-.8c-.6 0-1.2-.1-1.7-.3-.8-.3-1.9-.9-1.7-2 0-.2.1-.4.2-.5.1-.2.3-.3.5-.4 1-.8 2.3-.9 3.5-.8M664.6 919.7c.1.1 0 .1.2.2M662.2 919.5v.8c.1.5.5.8.8 1.1M664.8 919c-.2.1-.1 0-.2.2M664.3 917.4l.1.2M649.7 935.8v-.2M685.2 950.8v-.4M681.2 944.3l-.1-.2M695.8 925.9l.1.2"/>
    <path class="st1"
        d="M693.2 928c.1-1 1-1.6 1.8-1.9 1.6-.6 3.7-.5 5.1.4.3.2.5.4.7.6.1.1.2.3.3.5.4 1.2-.8 2-1.8 2.4-.7.3-1.3.3-2 .4h-.9c-1.3-.2-3.1-.8-3.2-2.4zM686.8 915.8c3.4.9 6.8 2.1 9.9 3.8 2.3 1.3 4.5 2.9 6.2 4.9 1.1 1.2 2 2.6 2.6 4.1.3.8.6 1.7.7 2.6.1.9.2 1.7.1 2.6-.4 4-2.8 7.3-5.8 9.8-2.4 2-5.1 3.4-8 4.6-4.2 1.7-8.7 2.7-13.2 3.1-1.5.1-3 .2-4.5.2s-3 0-4.5-.1c-6.3-.4-12.6-1.9-18.2-4.9-3.3-1.8-6.6-4.3-8.5-7.6-.6-1-1.1-2.2-1.4-3.4-.2-.9-.3-1.7-.3-2.6 0-3.9 2.2-7.4 5-9.9 1.9-1.7 4.1-3.1 6.4-4.3 4.1-2 8.6-3.2 13.2-3.9M666.5 921.8h-.7c-.7 0-1.4-.1-2.1-.3-.9-.3-2.1-1-2-2.1 0-.2 0-.3.1-.5s.2-.3.3-.5.3-.3.5-.4c1.1-.8 2.6-1 3.9-.8"/>
    <path class="st1"
        d="M654 936.2c-1-.6-2-.8-3.1-.8-.7 0-1.4.1-2 .3-.9.4-2.2 1.2-1.8 2.4.1.2.1.3.3.5l.4.4c1 .8 2.5 1 3.8.9 1-.1 2.1-.4 2.8-1s.8-1.4.3-2.2c-.2-.1-.4-.3-.7-.5zM641.9 932.9v2.9c.1.8.2 1.5.4 2.3"/>
    <path class="st1"
        d="M685.9 947.5c.2-.2.4-.4.5-.7.5-1.1-.6-2-1.6-2.4-.2-.1-.5-.2-.7-.2-.3-.1-.5-.1-.8-.1h-.9c-.6 0-1.1.1-1.7.2-1 .3-2.4 1-2.2 2.3 0 .2.1.3.2.5l.3.5c.2.3.5.4.8.6.6.3 1.2.5 1.9.6 1.5-.1 3-.4 4.2-1.3zM706.4 933c0 1.7 0 3.4-.4 5M604.6 1002.7l.4-.5M603.7 1001.8l-.4.5M604.5 1001.8v.5"/>
    <path class="st1"
        d="M602.5 1002.3c.1.4.4.6.7.7.7.3 1.6.2 2.2-.2l.2-.1.1-.2c.3-.5-.2-.9-.7-1.1l-.8-.2c-.6.1-1.6.3-1.7 1.1zM605.9 1002.3c-.2-.8-1.2-1-1.9-1-.3 0-.6 0-.8.2-.4.2-.8.5-.8 1l.1.4.2.2c.7.5 1.6.5 2.3.3.5-.2.9-.6.9-1.1zM605.9 1002.1l-.1-.1M602.6 1002.5l-.1.2M604.6 1002.7h-.8l-.5-.4M603.7 1001.8c0 .6.1.4-.1.7M603.7 1002.3c1 0 .7-.2 1.1.2M603.7 1001.8c1.1 0 .7-.2 1.4.4M626.9 1008.7l.4-.5M625.9 1007.8l-.4.5M626.8 1007.8v.5"/>
    <path class="st1"
        d="M624.8 1008.3c.1.4.4.6.7.7.7.3 1.6.3 2.2-.2l.2-.1.1-.1c.3-.5-.2-.9-.7-1.1-.3-.1-.6-.1-.8-.2-.7 0-1.6.2-1.7 1zM628.2 1008.3c-.2-.8-1.1-1-1.9-1-.3 0-.6 0-.9.2-.4.2-.8.5-.8 1l.1.4.2.2c.6.5 1.6.5 2.3.3.6-.2 1-.6 1-1.1zM628.2 1008.1l-.2-.1M624.9 1008.5l-.1.2M626.9 1008.7h-.9l-.5-.4M625.9 1007.8c0 .6.1.4-.2.7M625.9 1008.3c1 0 .7-.2 1.1.2M625.9 1007.8c1.1 0 .7-.2 1.4.4M601.6 1005.5l-.4.2M601.6 1005.5l.4.2M601.6 1005.5l-.7.4M601.6 1005.5l.6.5M623.8 1011.5l-.4.2M623.8 1011.5l.5.2M623.8 1011.5l-.6.4M623.8 1011.5l.6.5M615.8 1019.6l-.3.4M601.6 1015.8l-.3.4M600 1014.7l-5.6-1.5M594.4 1015.2l27.9 7.5M595.9 1008.5l27.9 7.5M622.9 1022.5v.6M622.3 1022.7l.3-.4M616.7 1019.2l5.6 1.5M622.6 1020.3l-.3.4M623.8 1016.6v-.6M629.2 1009.9v-.6M600.3 1014.3c0 .2 0 .2.1.4.3 1 1.5 1.2 2.4 1.4l11.8 3.2 1.2.3M601.3 1016.2c-.5-.2-.9-.5-1.1-.9l-.1-.5.3-.4M623.2 1022l-.4.5-.1.1-.1-.3v-1s0-2 .3-3c.2-.5.4-1 .7-1.5l.1-.2.8-.9 3.9-4.9.8-.9.2-.2c.2-.4.1-.7.1-1.1 0-.4-.1-.6-.4-.9-.6-.7-1.7-.9-2.6-1.1l-19.9-5.3c-.8-.2-1.5-.4-2.4-.5-.9 0-2 .2-2.7.8l-.2.2-.8.9-3.9 4.8-.8 1-.2.3c-.6.9-.9 1.9-1.1 2.9-.2.9-.2 1.7-.2 2.6v1c0 .2 0 .4.1.5l.1.1 1.2.3 25.5 6.9c.6.1 1.1.6 1.5.1l.4-.5M600 1014.7c0-.2 0-.4.2-.5l.2-.3c.6-.6 1.5-.1 2.2.1l11.8 3.2 1.2.3.2.1c.5.3.8.9.9 1.4 0 .4 0 .7-.3.9-.2.1-.3.1-.5.1-.5 0-1-.2-1.6-.4l-11.8-3.2-1.2-.3M600.6 1013.7c-.2.2-.3.4-.3.6M622.5 1023.4c-.2-.1-.3-.4-.3-.6v-2.4c0-.8.2-1.6.5-2.4.2-.6.5-1.2.8-1.7l.2-.2.8-1 3.9-4.8c.4-.5.9-.9 1.1-1.6M616.7 1019.5c-.2.1-.3.1-.5.1h-.4M627.8 1009c-.4.3-.9.4-1.5.4-.5 0-.9-.1-1.3-.4M602.8 1003.1c.8.6 2 .6 2.8 0M594.8 1248.1l.9-1.1M594.1 1253v-4.9M623.1 1256.2l.1.1M623.1 1256.2l.1.1M449.9 1205.2l-.6.8c-.2.3-.4.6-.5.9v1.7c0 .9-.1 1.9.1 2.9.3 1.4 1.4 2.6 2.6 3.2.7.4 1.5.5 2.2.7l139.5 37.6 1.2.3h.2M595.1 1246.8l-.5.6c-.4.5-.5.8-1 .8s-1-.2-1.5-.4l-138.9-37.4c-1.4-.4-3.2-.8-4-2.1-.3-.4-.2-.5-.3-1M593.2 1251.5l-1.2-.3-138.9-37.4c-1.4-.4-3.2-.8-4-2.1-.3-.4-.2-.5-.3-1M452.5 1215.1c-.5-.4-.5-1-.6-1.6v-3.3M594.8 1248.7v-.7l.4-.4c.4-.3.5-.3.8-.5M594.4 1253.3c-.4-.2-.6-.7-.8-1l-.4-.8v-3.2M624.3 1254.7l-.5.6-.5.6-.1.2v3.3c0 .4-.2 1.2.2 1.6l.2.1 1.2.3 139.4 37.5 1.2.3.6.1c1.3.2 2.8.1 3.9-.5.4-.2.8-.5 1.2-.8.5-.5 1-1.1 1.4-1.6l177.1-219.3c.4-.5.9-1.1 1.2-1.7.4-.8.3-1.7.3-2.6v-2.4M951.2 1071l-.1.4-.2.4-.8.9-177.1 219.3c-.3.4-.8 1-1.2 1.4-1.2 1-2.8 1.3-4.4 1.4-.8 0-.9 0-1.7-.1-.7-.1-1.4-.3-2-.5l-138.9-37.4c-.1 0-1.4-.1-1.6-.6M623.2 1260.7c0-.3.1-.5.2-.7l.2-.3v-3.2M623.6 1259.7l1.2.3 138.9 37.4 2 .5c1.8.3 3.9.1 5.6-.9.7-.5 1.2-1.1 1.8-1.8l177.1-219.3.8-1 .2-.3.1-.4M950.5 1076.3l.3-.4c.3-.7.2-1.5.2-2.2v-2M771.8 1297.5l.3-.4c.3-.7.2-1.5.2-2.2v-2M765.5 1299.3c-.5-.3-.6-1-.6-1.6v-3.3M645 924.5l-.7.9M646.8 922.9l-.9.8M648.7 921.4l-.9.7M605.8 1001v-.8M594.1 1010.8v5M600.7 1001.3v1.1M594.7 1010.3l.4-.4M628 1007v-.8M755.3 1041.9v-.1M476.8 966.9v-.1M645.8 780.5v-2.5M635.4 775.2v2.5M628 776.8v2.5M649.9 920.6l-1.2.8M646.8 922.9l1-.8M645.9 923.7l-.9.8M907.6 851v-2.5M897.1 845.7v2.5M889.7 847.2v2.5M642.1 930.8c-.4 1-.2.4-.5 1.6l-.2.9v.9M706.9 934.1l-.1-1.4-.3-1-.3-.9-.1-.2M623.6 1024.1v-3.2l-.2-.5c-.1-.3-.2-.6-.2-.9-.1-.5 0-.9.2-1.4s.4-1.1.6-1.6c.4-.6.8-1.2 1.3-1.7l3.8-4.7.8-.9.2-.4.1-.4c.2-1-.8-1.7-1.6-2l-.6-.2-1.2-.3-19.9-5.3c-.8-.2-1.6-.4-2.5-.5-1.2 0-2.5.1-3.5.9-.4.3-.9 1-1.1 1.3l-3.8 4.7c-.5.6-.9 1.1-1.3 1.7-.3.5-.5 1-.6 1.6l-.2.6-.1.4c-.1.2-.2.5-.4.8l-.4.7v3.2M666.3 755.7l-1.2-.3-31.7-8.5c-.8-.2-1.5-.4-2.3-.5-.8.1-1.6.3-2.3.8-.5.4-.9 1-1.3 1.5l-177.1 219.3c-.7.8-1.4 1.6-1.6 2.7-.2.8-.1 1.6-.1 2.3v.8c0 .5-.1 1.2.1 1.7.4 1.3 1.9 1.9 3.1 2.3l1.2.3 138.9 37.4 1.2.3c.2.1.6.1.8-.2l.4-.5M593.2 1012.7l-1.2-.3-138.9-37.4c-1.4-.4-3.2-.8-4-2.1-.3-.4-.2-.5-.3-1M595.3 1007.9l-1.2-.3-139.5-37.6-1.2-.3c-.4-.1-1.1-.4-1.1-1 0-.5.8-1.2.9-1.4l177.1-219.3.8-1c.2-.2.4-.5.8-.6h.2M628.4 747.8c.3-.3.4-.4.7-.6 1.1-.5 2.3-.1 3.3.2l32.7 8.8 1.2.3M451.9 977.9v-3.7c.1-1.6.6-3.1 1.5-4.4M452.6 968.3c-.8-.1-.4-.1-1.1-.1-.5.1-1 .2-1.4.5l-.3.3M594.5 1012.2v-1.6l.1-.2c.2-.3 0-.1.5-.4M601.2 1002c-.5.4-.9.9-1.3 1.4l-4.4 5.4c-.9 1.1-.8.5-.8 1.5M594.8 1009.8c.5-.5.3-.3.8-.7M622.8 1018.7c.3.2.2.1.4.3M623.2 1019.1v4.7l.1.2.2.1 1.2.3 138.9 37.4c.6.2 1.3.4 2 .5 1.8.3 3.9.1 5.5-.9.7-.4 1.2-1.1 1.8-1.8l177.1-219.3c.3-.3 1.1-1.1 1.1-1.7v-3.9999999999999996c-.2-1.2-1-2.2-2-2.7-.5-.3-1.2-.4-1.8-.6l-259.6-69.9-1.2-.3M686.6 762l1.2.3 258.6 69.6c.4.1 1.3.3 1.8.5 1.3.6 2.4 1.7 2.7 3.2.1.5 0 1.4 0 1.8v2M623.6 1020.9l1.2.3 138.9 37.4 2 .5c1.8.3 3.9.1 5.6-.9.7-.5 1.2-1.1 1.8-1.8l177.1-219.3.8-1 .2-.4.1-.4M624.6 1015.8l1.2.3 139.5 37.6c1.1.3 2.4.8 3.4 0l.2-.2.8-1 177.1-219.3.8-.9c.2-.3.4-.5.8-.6h.2M630.1 1008.8c-.1-.4-.5-.7-.8-.9M624.1 1016.3v.2"/>
    <path class="st1"
        d="M751.7 1044.2c-.2-.2-.3-.3-.4-.6-.4-1 .7-1.6 1.5-1.8 1.1-.4 2.4-.3 3.5.3.2.1.4.3.6.5l.2.3c.4.9-.7 1.6-1.5 1.8-.5.2-1 .2-1.6.2-1 0-1.7-.2-2.3-.7zM766.4 1054c-.9 1.3-1.4 2.8-1.5 4.4v3.8M768.9 1053.5c.5.2.7.2 1.1.5 1.1.6 1.9 1.7 2.2 2.9.1.5.1 1.4.1 1.8v2"/>
    <path class="st1"
        d="M472.7 968.4l.1.3c.2.7 1 1 1.6 1.2 1.1.3 2.5.2 3.4-.4.2-.1.4-.3.5-.5l.1-.3c.2-.8-.5-1.4-1.2-1.6-.5-.2-1-.3-1.5-.3h-.5l-.5.1c-.7.1-1.7.5-2 1.3.1-.1.1-.1 0 .2zM491 952.8l-.7-.3c-1-.5-2-1.5-1.7-2.7l.2-.5c.2-.4.8-1.2 1.1-1.4l137.3-170 .8-1c.6-.7 1.4-1.2 2.3-1.5 1.4-.4 2.8-.5 4.3-.3.7.1 1.4.3 2 .5l8.1 2.2 1.2.3.8.3c1.2.5 2.7 1.6 2.4 3.1l-.2.5c-.2.4-.9 1.2-1.1 1.4l-137.3 170c-.3.4-.8 1-1.2 1.4-1.2 1.1-2.9 1.3-4.4 1.4-.8 0-1 0-1.7-.1-.6-.1-1.4-.3-2-.5l-8.1-2.2-1.2-.3c-.1-.1-.1-.1-.9-.3zM489 951.3l.1-.1v-2.5M648.6 782.2c-1-1.3-2.5-1.6-4-2l-8.1-2.2c-.7-.2-1.4-.4-2-.5-.8-.1-1-.1-1.7-.1-1.6.1-3.2.4-4.4 1.4-.4.4-.9 1-1.2 1.4l-137.3 170-.8 1"/>
    <path class="st1"
        d="M564.9 994.2c-.4-.1-.5-.1-.9-.4-.6-.4-1-1-.6-1.7.1-.2.3-.4.5-.5.8-.5 1.9-.7 2.9-.5l.5.1c.7.2 1.9.8 1.6 1.8l-.1.3-.2.3c-.7.7-1.7.8-2.7.8l-1-.2zM566.7 994.3v-1.1l.6-2M564.8 994.2c-.2-.4.1-.7.4-.9.5-.2 1.2-.2 1.7 0 .4.2.7.5.5.9M666.5 913.2c-2 .3-4 .7-6 1.2-3.7.9-7.3 2.3-10.5 4.2l-.2.1-1.1.6c-1.1.7-2.1 1.5-3 2.3l-.9.8-.8.8c-1 1.1-.5.5-1.4 1.7l-.6.9-.5.9-.5.9-.6 1.9-.2 1-.1.9v2l.2 1c.2 1.3.1.7.5 1.9l.4.9.5.9c.7 1.3.3.6 1.1 1.8l.6.9.8.8.8.9.9.8.9.8c1 .8 2.1 1.5 3.2 2.1l.3.1 1.1.6c1.4.7 2.8 1.3 4.2 1.8 2.7 1 5.6 1.8 8.5 2.3l.8.1 1.2.2c2.2.3 4.4.5 6.7.5 3.3.1 6.7-.1 10-.6l1.2-.2.8-.1c2.4-.4 4.9-1.1 7.2-1.9l1.1-.4.5-.2c1.3-.5 2.5-1.1 3.7-1.7l1.1-.6.2-.1 1.1-.6 1-.7.1-.1c1-.7 2-1.5 2.8-2.3s1.5-1.7 2.2-2.6l.6-.9.5-.9c.6-1.2.4-.6.8-1.9l.3-.9.1-1c.2-1.3.2-.6.1-1.9v-1l-.2-1-.2-.9-.3-1-.4-.9-.5-.9c-.7-1.2-.3-.6-1.1-1.8l-.7-.9-.8-.9-.8-.8-.9-.8-1-.8-1-.7c-1.1-.8-2.3-1.5-3.5-2.2l-1.1-.5-.4-.2c-1.3-.6-2.6-1.1-3.9-1.6-1.6-.5-3.1-.9-4.7-1.3M698 920.4c1.3.8 2.5 1.7 3.6 2.7.9.8 1.7 1.6 2.4 2.5l.6.9.6.9.5.9.5.9.3.9.3.9.2 1.9-.1 1.5M698 946l-2.3 1.3c-1.7.8-3.4 1.5-5.2 2.1-2.8.9-5.8 1.6-8.8 2-2.1.3-4.2.4-6.3.5-2.1 0-4.2 0-6.3-.2-4-.4-8.1-1.2-11.9-2.5-1.7-.6-3.5-1.3-5.1-2.1l-2.3-1.3M641.2 933.7l.1-1.8.2-.9.2-1 .4-.9.4-.9.6-.9c.7-1.2.3-.6 1.2-1.8M641.2 933.1l.1 1.8.5 1.7.6 1.7M642.4 938.2l1 1.7 1.2 1.6M649.9 945.9c-1.3-.9-2.7-1.8-3.8-2.9l-1.6-1.6M660 950.1c-.1 0-.2.1-.3.2M703.4 941.7l-1.6 1.6c-1.2 1.1-2.5 1.9-3.9 2.8M703.4 941.7l1.2-1.5 1.1-1.7M705.7 938.5l.7-1.6.5-1.7.1-1.8"/>
    <path class="st1"
        d="M662.3 1020.4c-.4-.1-.5-.2-.8-.4-.6-.4-1.1-1-.6-1.7.1-.2.3-.4.5-.5.8-.5 1.9-.7 2.9-.5l.5.1c.8.2 1.9.8 1.6 1.8l-.1.3-.2.3c-.7.7-1.8.8-2.7.8-.7-.1-.4 0-1.1-.2zM664.2 1020.5v-1.1l.6-2M662.3 1020.4c-.2-.4.1-.7.4-.9.5-.3 1.2-.3 1.7 0 .4.2.7.5.5.9M750.8 1019.2c-.2.4-.4.5-.5 1-.3 1.5 1.2 2.6 2.4 3.1l.8.3 1.2.3 8.1 2.2c.6.1 1.3.4 2 .5 1.4.2 2.9.2 4.2-.3.9-.3 1.8-.8 2.4-1.5l.8-1 137.3-170c.2-.3.8-1 1.1-1.4l.2-.5c.3-1.5-1.2-2.6-2.4-3l-.8-.3-1.2-.3-8.1-2.2c-.6-.2-1.4-.4-2-.5-.8-.1-.9-.1-1.7-.1-1.6.1-3.2.4-4.4 1.4-.4.4-.9 1-1.2 1.4l-137.3 170c-.1-.1-.1-.1-.9.9-.2.7.3 2-.1 2.6M750.8 1021.7l.8-1 137.3-170c.6-.7 1-1.4 1.8-1.8 1.6-1 3.7-1.2 5.6-.9.7.1 1.4.3 2 .5l8.1 2.2c1.5.4 3 .7 4 2M859.6 1097.2l1.4.4M860.9 1091.4l1.5.4M860.8 1038.1l1.6.4M775.4 1286.9l1.4.4M950.9 839.4v232.3M861 1036h.3c.6 0 .9.9 1 1.4l.1.5v52.599999999999994c0 1.2 0 2.2-.2 3.4-.2 1-.5 2-.8 3l-.3.7-.5 1.1-1.9 4c-1.3 2.7-2.7 5.5-4.1 8.2l-1.9 3.5-.6 1.1c-2 3.6-4.1 7.2-6.3 10.7-2 3.2-4.1 6.4-6.4 9.5l-.7 1-1.7 2.3c-2 2.7-4.1 5.2-6.4 7.7-1.6 1.8-3.2 3.5-4.9 5.1l-1.4 1.3-.9.8-.9.8-1.2 1-.9.8c-1 .8-2.1 1.5-3.1 2.2M807 1162.3l.1.4.2.3c.5.6 1.4 0 2-.2l.6-.3 1.2-.4M951.2 838.4c.1.7-.7 1.5-1.1 2l-172.6 213.7-.8.9v232.2M951.3 838.4v231c0 .8.2 1.6-.4 2.2l-.8.9-172.6 213.7-.8.9M861 1036l-3 1.1-1.1.6-.8.4-1.1.5-1 .7-1 .6c-2.6 1.6-5 3.5-7.3 5.5l-.9.8-1.4 1.3c-2.3 2.2-4.4 4.5-6.5 6.9-1.1 1.3-2.2 2.6-3.2 3.9-1.6 2-3.2 4.1-4.7 6.3l-1.8 2.6-.7 1c-2.2 3.3-4.3 6.7-6.3 10.1l-.6 1.1-1.9 3.3c-1.5 2.6-2.9 5.2-4.2 7.9-1 2-2 3.9-3 6l-1.9 4c-.5 1.1-1 2.1-1.3 3.3-.3 1-.5 2-.5 3v52.699999999999996c0 1 0 1.9.2 2.9M817.1 1158.7c-1 .6-2 1.3-3.1 1.9l-3 1.5M622.6 1259.8l.6.1M622.6 1257.3l-.3.4M622.9 1256.4v-.6M622.3 1259.7l.3-.4M601.4 1255.1l.3-.6M594.4 1252.2l5.6 1.5M600.6 1253.9l16.1 4.3M615.9 1258.3l-.3.6M622.3 1257.7l-27.9-7.5M622.9 1255.8l-27.9-7.5M622.3 1259.7l-5.6-1.5M615.5 1256.7l-1.2-.3-11.8-3.2c-.5-.1-1-.3-1.6-.4-.5.1-.8.3-.9.9M600.3 1253.3c0-.2 0-.1.1-.3M624.3 1254.7l-.7.9c-.4.5-1 1-1 1.7v2.3s.1 1.1.6.9M623.9 1254.6l-1 1.3c-.7.8-.6 1.9-.6 2.8v1.6c0 .4.2 1 .8.9l.2-.1.2-.1M600.3 1253.3c.1.7.8 1 1.4 1.2l1.2.3 11.8 3.2 1.2.3c.2.1.5.1.8 0M600.3 1253.3l-.3.4v.1c0 .2.1.4.2.5.5.7 1.6.8 2.4 1.1l11.8 3.2c.3.1 1.2.5 1.8.4.4-.1.5-.6.5-.9-.1-.7-.7-1.1-1.2-1.3M622.9 1261.3l-1.2-.3-25.5-6.8-1.2-.3c-.1 0-.2 0-.3-.1-.4-.3-.4-1-.4-1.4v-1s0-1.9.5-2.7c.3-.5.7-1 1.1-1.4M453.3 1208.6v-230.3M772.9 1290.9v-230.7M775.1 1057.1l.2.1M772.7 1060.1l.2.1M775.3 1288v-230.8M765.1 1062.2v230.4M623.2 1023.6l-29.1-7.9M775.4 1056.7v230.9l-.1.3-.8 1-.8 1.1c-.3.4-.8 1-1.2 1.4-1.3 1.2-3.2 1.5-4.9 1.5-.7 0-.9 0-1.6-.1-.6-.1-1.4-.3-2-.5l-309.5-83.3-1.2-.3c-1.3-.4-3-1.1-3.3-2.6l-.1-.5v-228.49999999999997M771.8 1061.1c.8-.4 1.3-1.2 1.9-1.8l.8-1.1c.3-.4.8-.8.9-1.3"/>
    <defs>
        <path id="SVGID_1_" d="M448.3 1300z"/>
    </defs>
    <clipPath id="SVGID_2_">
        <use xlink:href="#SVGID_1_" overflow="visible"/>
    </clipPath>
    <path class="st3" d="M448.3 1300l4.3-4.3"/>
    <path class="st0" d="M448.3 1300z"/>
</svg>
