<svg xmlns="http://www.w3.org/2000/svg" xmlns:xlink="http://www.w3.org/1999/xlink"
    viewBox="0 0 1200 1200" enable-background="new 0 0 1200 1200">
    <style type="text/css">.st0{fill:none;} .st1{fill:none;stroke:#000000;stroke-linecap:round;stroke-width:4;} .st2{clip-path:url(#SVGID_2_);} .st3{fill:none;stroke:#FFFFFF;stroke-miterlimit:10;}</style>
    <path class="st0" d="M1171.8 0h-1143.7v1200h1143.7v-1200z"/>
    <path class="st1"
        d="M30.8 1003.7v-42.3M802.3 809.9c-6.7-1.6-12.9-2.2-19.7-2.4-11.9.7-24.7 2.9-34.1 10.8-1.9 1.5-3.5 3.2-4.8 5.2-7.2 10.5.2 21.2 9.8 26.7 3.9 2.2 7.9 3.7 12.3 5M761.2 853.8c14.5-5.2 31.1-5.4 45.5-.2 4.9 1.7 10.2 4.2 14.1 8.2M31 1001c-1.1 14.2 12.8 21.7 24.8 25.1l16.7 4.5 593.8 160 16.8 4.5 4.6 1c10.8 2.2 22.4 1.7 33-1.2 6.3-1.9 12.6-4.7 17.6-9.4l2.2-2.5 10.8-13.5 402.5-498.2 10.8-13.5c6.4-7.9 4.2-18.7 4.2-28.1v-7.7c0-12 2.3-22.2-6.9-30.6-1.8-1.6-3.9-3.1-6.1-4.3-8.7-4.9-19.5-6.7-28.8-9.2l-256.6-69.1-16.8-4.5M652 449.7l-16.8-4.5-102.1-27.4c-12.2-3.3-22.9-6.6-35.5-6.8-12.8.5-26.7 2.8-36.2 11.9l-2.5 2.5-10.8 13.5-402.4 498.2c-7.2 9.1-20.2 20.1-12.3 32.7 8 12.6 26.3 15.1 39.1 18.5l593.8 160c8.4 2.2 17.2 5.2 26.1 6.2 14.3 1.8 31.1-.2 43.1-9 6.2-4.7 11.6-13 15.8-18.4l402.5-498.2c6.2-7.7 14.2-14.2 15-24.3M403.5 757.2c-7.5-1.1-15.3-3.7-21.7-8.2-1.8-1.4-3.7-2.9-5.2-4.8l-2-2.5-17.5-4.7M382.8 705.2l17.5 4.7 9.6-1.4c9.8-.8 20.5.4 29.8 4.2M802.3 809.9c5.4 1.7 10.6 3.5 15.3 6.9 1.9 1.3 3.8 3 5.3 4.7l1.8 2.7 16.8 4.5 40.5 10.9c6.8 1.8 16.2 3.6 23.1 6.8 7.6 3.6 14.7 11.6 9.1 19.9-1 1.5-2.2 2.7-3.6 3.8-7.3 5.9-17.2 7.3-26.4 7.3-9.7-.7-18.1-3.5-27.8-6.1l-40.5-10.9-16.8-4.6c-4.8 1-9.5 1.5-14.4 1.7-6.5-.2-12.6-.9-19-2.4M357.1 736.9l-16.6-4.6-23.1-6.2c-9.1-2.5-23-4.2-30.4-11.8-1.2-1.2-2.2-2.5-2.8-4-4.6-10.5 7.8-17.9 16.2-20.1 2.5-.8 4.8-1.2 7.2-1.5 12.5-1.5 23.5 2.6 35.5 5.8l22.9 6.2 16.8 4.4M345.8 1061.9l47.1 12.6M345.8 1061.9v-180.5c0-8.8-.4-17.7.6-26.5 1.6-14.5 5.9-29.6 13.3-42.2 4.2-7.3 10.2-13.8 15.3-20.1l621.8-769.9 10.8-13.5 2.2-2.5c7.8-7.8 14.2-2.5 24.8.4l13.8 3.6c6.5 1.8 19.1 1.8 22.5 10 .8 1.8 1.3 4 1.5 6 .5 2.6.5 5.2.5 7.8v145.20000000000002c0 8.6.5 17.7-.5 26.4-1.7 14.6-5.9 29.5-13.3 42.4-4.2 7.2-10.2 13.7-15.3 19.9l-640 792.5-11 13.5M1065.1 15.3c-4.5.3-7.6 3.2-10.4 6.6l-10.8 13.5-621.8 769.9c-5.1 6.2-11.1 12.8-15.3 19.9-7.4 12.8-11.7 27.7-13.3 42.4-1 8.7-.6 17.6-.6 26.5v180.4"/>
    <path class="st1"
        d="M436.9 871.8l.2 4.8.4 4.2c.8 6.2 4.3 16.8 12.7 13.4l2.5-1.3c1.8-1.2 3.5-2.9 4.9-4.6 1.8-2 3.7-4.5 5.2-6.8 10.8-17.1 16.8-38.8 17.9-58.9l.1-5.1c0-7.8-.5-23.1-11.1-23.1-8.2 2.3-13.3 10.4-17.2 17.5-10.1 18.2-15 39.2-15.6 59.9zM546.5 736l.2 4.8.4 4.3c1 6.2 4.3 16.8 12.7 13.4l2.5-1.3c1.8-1.2 3.6-2.9 5.1-4.6 1.8-2 3.5-4.5 4.9-6.8 10.8-17.1 16.8-38.8 18-58.8l.1-5.2c0-7.8-.5-23.1-10.9-23.1-8.4 2.3-13.3 10.4-17.2 17.5-10.1 18.1-15.2 39.1-15.8 59.8zM656.2 600.2l.2 4.7.5 4.3c.8 6.3 4.2 16.9 12.7 13.5l2.4-1.3c1.9-1.2 3.5-2.9 5-4.6 1.9-2 3.6-4.5 5.2-6.8 10.8-17.2 16.8-38.8 17.9-58.9l.1-5.2c0-7.6-.5-22.9-11.1-23.1-8.2 2.4-13.3 10.5-17.2 17.6-10.1 18.1-15.1 39.1-15.7 59.8zM765.9 464.4c.4-11.5 2-22.7 5.2-33.8 2.2-7.4 4.7-14.7 8.2-21.5 3.5-7.4 7.9-15.6 14.9-20.3 5.8-3.8 10.9-1.2 13.2 4.9.9 2.2 1.5 4.8 1.8 7.2.5 2.9.5 6.2.5 9.1 0 20.4-5.7 42.1-15.5 59.9-3.9 7.2-8.9 15.2-17.2 17.5-10.7-.1-10.9-15.4-11.1-23zM875.6 328.6c.5-11.5 2.2-22.7 5.2-33.7 2.2-7.4 4.7-14.6 8.2-21.5 3.5-7.3 7.9-15.7 14.8-20.3 5.8-3.8 11-1.2 13.5 4.9.8 2.2 1.5 4.8 1.8 7.2.3 2.8.5 6.2.5 9.1 0 20.4-5.8 42.1-15.6 59.9-3.9 7-8.9 15.2-17.2 17.5-10.8-.2-11-15.5-11.2-23.1zM985.2 192.7c.5-11.5 2.2-22.6 5.2-33.7 2.2-7.4 4.8-14.7 8.2-21.5 3.5-7.3 7.9-15.7 14.8-20.3 5.8-3.8 11.1-1.2 13.5 4.9.8 2.2 1.5 4.8 1.8 7.2.5 2.8.5 6.2.5 9 0 20.5-5.7 42.1-15.5 59.9-3.9 7.1-8.9 15.2-17.3 17.6-10.7-.1-10.9-15.5-11.2-23.1z"/>
    <defs>
        <path id="SVGID_1_" d="M28.1 1200z"/>
    </defs>
    <clipPath id="SVGID_2_">
        <use xlink:href="#SVGID_1_" overflow="visible"/>
    </clipPath>
    <path class="st3" d="M28.1 1200l27.2-27"/>
    <path class="st0" d="M28.1 1200z"/>
</svg>
