<svg xmlns="http://www.w3.org/2000/svg" viewBox="0 0 1400 1400"
    enable-background="new 0 0 1400 1400">
    <style type="text/css">.st0{fill:none;} .st1{fill:none;stroke:#000000;stroke-linecap:round;stroke-width:3;} .st2{fill:none;stroke:#FFFFFF;stroke-miterlimit:10;}</style>
    <path class="st0" d="M1173.7 100h-947.4v1200h947.4v-1200z"/>
    <path class="st1"
        d="M1026.8 1190c-4.2-1.1-10.3 7.9-13.6 20.1-3.2 11.9-2.5 22.5 1.4 24.1M1027.2 1190.1l-.3-.1.3.1zm3 5.4c-.5-2.9-1.6-4.7-3-5.3m-4.5-1.2c-4.3-1.2-10.3 7.9-13.7 20.1-3.2 11.9-2.6 22.5 1.4 24.1M1023 1189.1l-.2-.1.2.1zm-8.3 45.1c1.7.7 3.8-.4 5.8-2.9m2.5-42.2l4.2 1m-12.5 44.1l-4.2-1.1m-36.2-31.9c-1.3 4.9-1.8 9.4-1.6 13.1m0 0c.1 2.6.5 5 1.6 7.4m-680-228.9c-4.2-.5-10.1 8.4-13.3 20.2-3.2 12.2-2.5 23 1.8 24.2l.3.1m10.5-35.7c-2.6-.7-6.4 4.9-8.4 12.5s-1.6 14.4 1.1 15.1c1.4.4 3.2-1.1 4.7-3.7m5-18.4c-.1-3.2-.9-5.1-2.3-5.5M295.6 994.7c-3.9-1.1-9.7 7.3-12.7 18.8-3.1 11.4-2.4 21.6 1.6 22.6 4 1.1 9.7-7.4 12.7-18.8s2.3-21.6-1.6-22.6zm-.9-1.8l-.4-.1.4.1zm3.6 4.3c-.7-2.3-2-3.8-3.6-4.3m-15.8-4.2c-4.2-.6-10.1 8.4-13.2 20.1-3.3 12.2-2.5 23.1 1.7 24.2l.3.1m18.2 3.7c4.1-1.7 8.6-9.7 11.3-19.2.9-3.2 1.5-6.4 1.8-9.2m-20.1-19.7l15.4 4.1m-6.2 42.5c.2-.4.1-.1.2-.6m-4.2-9c.4.1.2.1.6.1m5.4-22.2l.8.3m7.4-6.7c.9 3 .9 6 .7 9m-13.1 30.6c-.8.4-1.6.5-2.5.5h-.3l-5.5-1.5-4.3-1.1-5.5-1.5m770.1 164.3c-3.4-.3-8.1 6.9-10.7 16.3-2.7 10-2 18.8 1.4 19.7h.4M1040 1201c-2.9-.7-7 5.4-9.3 13.9-2.3 8.4-1.8 15.8 1.1 16.6 2.9.8 7.1-5.4 9.4-13.8s1.8-15.9-1.2-16.7zm-4.3 29.1c2.4-2.9 4.4-7.6 5.7-12.6 1.9-7.1 1.9-13.6.2-16.7m-16.2-6.6c-3.4-.3-8.1 6.9-10.7 16.3-2.5 9.5-2.1 18.1 1 19.5m16.8-7.5c-.2 1.1-.1 1.9.2 2 .2 0 .6-.2.9-.8m-.5-8.5l-.5 1.1c-.3 1.1-.2 2.1.1 2.6m.7-4.1c.7-.8 1.4-2 1.7-3.5m1.5-3c-.6-.1-1.3 1.2-1.6 3m2.1-2.1c0-.6-.2-.8-.5-.9m2.6-.3c-.2-.1-.6.2-.9.7m1.1 1.3c.2-1.1.1-1.9-.2-2m-.4 9.4l.5-1.1c.4-1.1.2-2.2-.1-2.6m-.6 4c-.7.8-1.3 2.1-1.6 3.6m-2 2.3l.4.6c.5.1 1.2-1.1 1.5-2.6v-.3l-4-1.1m3.9 1.8l-3.9-1m6.3-10.2l-3.8-1m3.8 3.9l-4.5-1.2m-.2.3l4.9 1.3m-5.1-.7l5.2 1.4m-6.8 1.3l5.9 1.6m-.4.4l-5.6-1.5m-.1 6.8l1.2.3m-.3-8.9l-.3.4m5.5 2.5l.2-.3m2.9-16.6c-.6-1.2-.2-.7-1-1.6m-25 30.8l5.6 1.5 2.1.6 5.6 1.4c2.8.7 5.2-1.6 6.8-3.5m4.9-30.8c-1.9-2.1-5.2-2.3-7.7-3l-2.1-.6-5.5-1.5m8.3 29.6c.5-.5.1-.2.9-.5m-1.8-4.4c.4 1.2.1 2.5-.2 3.7m5.6-13.8c-.4.5-.1.2-.6.6l-.6-.1m2.2 4.5c-.4-1.2-.1-2.5.2-3.7m-6.9 12.7c2.3.6 1.6.1 2.5.9m-739.9-217.2c-1.8-.5-4.5 3.4-5.9 8.8-1.5 5.4-1.1 10.1.7 10.6.5.1 1 0 1.6-.5m4.8-17.7c-.3-.7-.7-1.1-1.1-1.2m-1.1-1.8c-2.1-.3-5.1 4.1-6.7 10.1-1.7 6.2-1.3 11.5.8 12.2h.2c2.5.5 5.7-3.7 7.4-9.5 1.4-4.8 1.3-9.3-.3-11.2m-11.4 19.5l4.3 1.1m7.1-20.7c-1.1-2.1-2.8-1.9-5.4-2.5m207.9-808.2c0-3.6-5.1-6.6-11.5-6.6-6.3 0-11.4 3-11.4 6.6 0 1.4.7 2.7 2 3.8m18.4.3c1.7-1.3 2.5-2.7 2.5-4.1m4.3-2.3c0-5-7.1-9.1-15.8-9.1-7.7 0-14.2 3.2-15.6 7.5m-.1 1.1v.5c0 5 7.1 9.1 15.8 9.1 8.7 0 15.8-4.1 15.8-9.1m-27.6 4.7c3.1 2.6 8.4 3.8 13.6 3.5m12.5-8.1c.1-4.5-6.3-8.3-14.2-8.4-7.9-.1-14.4 3.5-14.4 8.1 0 2.5 1.8 4.7 4.8 6.3m11.3 2.1c7.1-.5 12.4-4 12.4-8.1m3 3.8l-1.9-5.9m.2.6l2.3 7.3m-33.6-6.4l.2-1.1m-2.3 7.5l2.3-7.5m6.7 8l-.6-.3m163 35.1c-7.2-1.2-15 .9-17.9 4.9m22.1-10.7c-2.5-1-5.5-1.5-8.4-1.5-8.3 0-15 3.9-15 8.7 0 3 2.7 5.7 6.7 7.2m23.3-7.2c0-3.1-2.6-5.7-6.7-7.2m-16.6 14.3c2.5 1 5.5 1.5 8.4 1.5 8.3 0 15-3.8 15-8.6m41.8 11c-9-1.5-18.6 1.3-21.8 6.4m24.5-12.9c-2.5-.7-5.1-1-7.6-1-9.8.1-17.9 4.7-17.9 10.4 0 3.6 3.1 6.8 7.9 8.6m27.9-8.6c0-4.1-4.2-7.7-10.4-9.4m-17.5 18c3.1 1.2 6.6 1.8 10 1.8 10 0 18-4.7 18-10.4m68.5 17.4c-5.2 2-7.9 5.4-8 8.8 0 3.8 3.4 7.2 8.6 9.2m-299.4-98.5c-5.1 2.1-7.9 5.5-8 8.9 0 4.3 4.5 8.1 10.9 9.9m405 98.5c-2.7-.2-5.5.5-7.3 1.6m10.5-8.2c-1.3-.3-2.7-.5-3.9-.5-5.2 0-9.3 2.4-9.3 5.4 0 1.5 1 2.8 2.7 3.8m-483.1-134.6c-3.8-1-8.4-.4-10.9 1.4m13.6-7.3c-1.8-1-4.3-1.6-6.6-1.6-5.2 0-9.3 2.4-9.3 5.4 0 2.1 2.1 4 5.4 4.9m506.7 128c0-2.1-2.2-4-5.4-4.9m-10.5 8.6c1.8 1.1 4.3 1.6 6.6 1.6 5.2 0 9.4-2.4 9.4-5.4m-87.8-26.2c0-3.7-3.2-6.9-8.1-9m-21.3 18.2c3.2 1.3 6.9 1.8 10.4 1.8 10.5 0 18.9-5 18.9-10.9m-99.7-23.1c-2.1-3.1-6.4-5.2-11.7-6.1m-43.2-7.6c-1.6-2.3-5.4-4.1-9.5-4.8m-134.7-38.9c0-3.7-3.2-7-8.1-8.9m-18.7 18.8c2.6.7 5.4 1 8 1 10.4 0 18.9-5 18.8-10.9m-106.9-26.2c0-1.5-1.1-2.8-2.7-3.8m-10.6 8.7c1.3.4 2.7.5 3.9.5 5.2 0 9.3-2.4 9.3-5.4m-159.2-1.8c-1 2.3-1.8 5-2.1 7.5m-.1-5.6c-3.4-.9-6.3-.1-7.9 2m62.4-69.5c-3.3-.9-6.3 0-7.9 2m-55.2 950.3c.9 6.7 3 11 5.7 12.8m809.9-754.3c0-4.5-4.1-9.3-9.1-10.6m-45.4 78.1c0-4.5-4.1-9.3-9-10.7m9.5 889.8c.9 6.6 3 10.9 5.7 12.7m1.7 1c2.7.7 5.7-.2 8.6-2.6m-24.2-17.2c.5 7.3 2.1 12.6 4.5 15.3m-4.6-890.7c-.1-.5-.6-.9-1.2-1.3M981.7 378v-.3.3zm-106-72.4l.5-.3m-586 598.9v-690.1m414.5 39.1l-.2-.4m330.4 49.2l-4.3 5.2m-794.9-130.1l-7.9-2m8.8 1.2l-8.8-1.2m9.3-.3l-.1 1.5m743.4 201.3l-743.5-200.1m744.8 200.5l7.8 2.1m-.2-1.5l-8.6-2m8.6 2l-8.8-2.2m-.1 1.2l.7-.8m-.7 23.1l1.3-1.6m-694.5-291.2l743.4 200.1m-739.1-201.2v-4.2m-54.5 74.5l-9.2-1.2m752.6 224.8l-743.5-200.2m807.1 112.9l-54.5 67.5m-748.3-216.1l743.5 200.2m12.7 908.7l-1.7-1m-106-966.3c-1.8-1.2-4.1-1.6-6.2-1.8m-487.3-131.1c-1-.7-2-1-3.1-1.4m-151.9-7.3c-.8 1.1-1.4 2.2-2 3.3m-2.2 9c-2.9 0-1.4 5.3-1.4 6.6v859.1c0 7.9-.2 15.8 3.1 23.2m792.6-758.7l-.7.7-3.6 4.5-43 53.3-3.6 4.4.1 7m61.7 825.5c.8-4.6 1.4-9.2 1.7-13.9l.2-4.9v-870.6m-756.9-205.4l.7-.7c2.1-2 5.1.1 7.4.7l731.3 196.9 5.6 1.5m-803.8 748.6c-.5-4.7-.6-9.4-.6-14.2v-859.2c0-2.7-.7-7 1.2-9.5l3.6-4.5 47.3-58.6 3.6-4.5m-44.8 964.9c-3.5-.9-2-.3-4.7-1.6m2.9-867.2c0-7.8 0-15.6.1-23.4l-.1-7 3.6-4.5 47.3-58.6 3.6-4.5m698.6 1157.5c-.5-4.7-.6-9.4-.6-14.2v-864.8m16.6 890c5-4.6 9-10.1 13.2-15.4l3.6-4.5 2.4-3.2c3.2-4.6 5.7-9.5 7.8-14.5m-46.7 35.7l1.6 1.5c1.6 1.1 4.1 1.5 5.7 1.9l3.8 1.1m-15.7-894.8v870.6l.1 4.5m-1.2-878.1c-.3 2.8-.2 5.4-.2 8.4v16.5m-183.6-124.1c0-3.6-5.1-6.6-11.5-6.6-6.3 0-11.5 3-11.5 6.6 0 1.4.8 2.7 2.1 3.8m18.4.4c1.7-1.2 2.5-2.7 2.5-4.2m4.3-2.3c0-5-7-9.1-15.8-9.1-7.7 0-14.1 3.3-15.4 7.5m-.3 1.2v.4c0 5 7 9.1 15.7 9.1 8.8 0 15.8-4.1 15.8-9.1m-27.6 4.7c3.2 2.6 8.4 3.9 13.6 3.5m12.5-8.1c0-4.6-6.3-8.4-14.2-8.4-7.9-.1-14.4 3.5-14.4 8.1 0 2.4 1.8 4.7 4.9 6.3m11.2 2.1c7.2-.5 12.4-3.9 12.5-8.1m2.9 3.8l-1.8-5.8m.2.6l2.2 7.2m-33.5-6.3l.2-1.2m-2.3 7.5l2.3-7.5m6.5 8.1l-.4-.4m-8.7 443.4c-.5 3.8 1.8 8 5.4 10.9 3.4 2.8 7.7 3.9 11.1 3.1m260.3 69.2c3.8 3.8 9.1 5.3 13 4m-.4 1.9c1.4-3.7-.2-8.3-3.7-11.8m2.7 13.6c.5-.6.7-1.2.9-1.8m-12.5 3.4c4.6 2 9.2 1.3 11.6-1.6m-272.8-73.4c3.2-3.9 1.4-10.5-3.8-14.7-5.2-4.3-12-4.5-15.1-.6-2.9 3.5-1.7 9.3 2.6 13.6m4.4 3.1c4.7 2.2 9.5 1.6 11.8-1.4M630.2 705.9c-7.1-3.1-18 6.1-24.3 20.6s-5.7 28.8 1.4 31.9c7.1 3.2 18-6.1 24.3-20.6 6.5-14.5 5.8-28.8-1.4-31.9zm-26.6 48.8c6.8-1.7 14.3-10.2 19-21 4.9-11.2 5.6-22.2 2.4-28.2m-375.7 385c.3 4.5 1.4 7.5 2.9 9m9.1-143.7c-6.7 8.2-12.1 25.5-12.1 38.3m410.2-362.1c-.5-.1-1.1-.1-1.5 0m34-35.4c-11.5-3.1-23.9 4.1-27.7 16.1m-3.9 12.7c-4.7-.4-9.1.8-11.9 2.9m-397.6 324.6c-6.7 8.4-12.1 25.5-12.1 38.4m.8 101c.7 2.7 1.9 4.5 3.3 5.1m11.6 3.1c1.7.2 3.6-.9 5.4-2.7m399.6-325.4c-.5-.1-1.1 0-1.5.1m510.3-36.9c-2.1-5.8-6.4-10.3-12.1-13.2m12.1 27.5c1.6-5.2 1.4-10.2 0-14.3m-7.1 24c-.7 2.6-1.1 5.1-1.1 7.1m-2.4-43.2c-2-1.6-4.4-2.7-6.7-3.3m14 27.3c2.9-9.3-.2-18.8-7.2-24m-171.7 571.4c1 2.3 2.3 3.5 3.9 3.6m-8.2-139.9c-4.6 9.3-7.4 21.5-7.4 30.7m.7 101c.7 2.8 1.9 4.4 3.3 5.1m11.6 3.2c1.7.1 3.6-.9 5.4-2.7m177-529c-.4-2.8-3.4-5.1-7.4-6.2M1161.2 847.3c-2.9-.5-6.9 12-9 27.7s-1.5 28.7 1.4 29.1c2.9.4 6.9-12 9-27.7 2.2-15.8 1.5-28.7-1.4-29.1zm-50.8 46.5l-66.4-17.9m-386.3-243.7v140.4m0-140.4l-9.3-4m11 4.2l322.3 86.8m-678.6 325.1v-140.3m678.6-194.6l-320.8-86.3m31-26.5l289.8 78.1m-727.3 425.8l-11.6-3.1m738.9-238.2l-322.3-86.8m505.5-11.6l-4.9 5.9m-116-30.7l116 31.2m.8.5l11.2 1.5m-128 320l128-320m-12-2.5v3m-116-78.3l107 28.8m-111.5 503.1v17.6m-49.6 57.7l-11.5-3.1m-207.5-553.6c-1.7-.9-3-1.8-4.5-3m282.1 58.3c-1.5-.6-2.8-1.1-4.4-1.2m4.4 1.2c1.7.9 3 1.9 4.4 3.1m-800.7 299.1c1.4.9.6.6 2.2 1.1m-5.3-106.4v93.6l.2 2.8m408.6-458.5l-4.6 3.5-345.5 264.8-4.6 3.5-3.6 4.5-34.7 43-3.6 4.5m398.1-183.4v-134.4c0-3.2-.2-6.3.3-9.4.8-5.4 2.9-10.6 4.5-15.8m-413.4 340.1l3.6-4.4 34.6-42.9 3.6-4.4c1.5-1.8 4.5-3.7 5.9-4.8l345.3-264.6 4.5-3.5m-408.8 464c-.9-4.4-.8-8.6-.8-13.1v-87.8m419.2-219l-4.6 3.6-345.5 264.7-4.6 3.5-3.6 4.4-34.7 43.1-3.6 4.4-1.5 1.7m784.2-371.7l5.5 1.6 106.5 28.6c6.9 1.9 3.9.5 8.9 3.9m3.3-10.3l-1.5 5.1-1.7 5.2-.1.7m-4.9 5.8c2.5.9-1.1 5.7-1.3 6.3l-112.6 281.4-2.1 5.3m120.9-312.2c-1.3 4-2.6 8-3.8 12.1m11.2 8.5l-.3 1.1v140.4m-186 385.3c-1.6-4.9-1.4-9.8-1.4-14.9v-14.4m-9.6 24.7c-.9-4.4-.7-8.6-.7-13.1v-87.9m198-422.4v141.5l-.3 1.1-2.2 5.4-128.2 320.7-2.1 5.3c-.8 2.1-3.6 4.9-4.4 5.9l-34.6 42.9-3.6 4.5-1.5 1.6"/>
    <path class="st2" d="M226.3 1300l14.4-14.4"/>
    <path class="st0" d="M226.3 1300"/>
</svg>
