<svg xmlns="http://www.w3.org/2000/svg" xmlns:xlink="http://www.w3.org/1999/xlink"
    viewBox="0 0 1400 1400" enable-background="new 0 0 1400 1400">
    <style type="text/css">.st0{fill:none;} .st1{fill:none;stroke:#000000;stroke-linecap:round;stroke-linejoin:round;stroke-width:2;} .st2{clip-path:url(#SVGID_2_);} .st3{fill:none;stroke:#FFFFFF;stroke-miterlimit:10;}</style>
    <path class="st0" d="M1300 240.8h-1200v918.3h1200v-918.3z"/>
    <path class="st1"
        d="M453.8 588.3h.6M453.6 588.2l.4.1M455 588.1l-.3.1M454.9 588.2l.5-.3M444.3 623l.4-.2M442.3 623.3l.1-.1M447.1 620.8l1.4-1.1M449 618.4l.4-.3M439.9 619.9l.1-.2M450 614.3l.4-.3M443.6 622.4l.1-.2M450.4 614l-.4.3M451 615l.1-.1M450.3 614.3l-.1.3M441.5 621.4l-.4.3M446.2 627.4l.2-.3M452.1 612.6l-.3.2M445.2 621.4l1-.9M441.7 621.2l.4-.3M451.7 615.7l.1-.1M443.3 619.9l1.3-1M443 620.2l-.6.5M440.5 622.2l.3-.3M446.7 617.1l-1.8 1.5M446.8 620.1l1-.8M450.5 616.6l.3-.1c.3 0 .6-.1.8-.2.4-.3.3-.7 0-1.1-.4-.4-.9-.8-1.4-.9-.5 0-.9.5-1.1.9M440.9 617.5c.4-.3.3-.1.5-.4M449.1 611.9c.3-.4.7-.7 1.1-1M450 610c-.6-.9-1-1.9-1.3-3-.1-.5-.2-1-.2-1.4v-1.2c.3-2.3 2-3.4 3.6-4.9 1.8-1.7 3.6-3.3 5.3-5.1 7.8-7.6 15.4-15.4 22.3-23.8M453.1 598.6c-.1-3.4.1-7 2-10 .8-1.2 2.2-2.3 3.1-3.1l11.9-11.2c3.8-3.5 7.6-7.1 11.6-10.4 2.4-1.9 5.1-3.9 8.2-4.4 2.5-.4 5.1.2 7.2 1.8 2.6 2 4 5.5 3.3 8.7-.7 4.1-3.6 7.6-6.2 10.7-3.1 3.9-6.4 7.6-9.9 11.3-5.6 6.1-11.4 12-17.4 17.7-3.6 3.4-7.3 6.7-11.2 9.8l-7.6 6.1-2.5 2c-1.2 1-3 1.2-4.5 1.3-1.9 0-3.7-.3-5.6-.4h-1.4M408.6 629.6c.3-1.6.7-3 1.6-4.4 2.9-4.3 8.4-5.3 13.1-4.3 1 .2 2 .5 3 .9l1.5.6 1.6-.3c1.1-.2 2.1-.5 3.1-.9M430.7 626.2l-2.4-2.9-.5-.8c-.1-.3-.3-1.6-.4-2-.3-2.9.9-6.8 4.3-7.1.9 0 1.7.2 2.6.5M445.7 621.9c-1.9-1.1-3.4-2.6-4.5-4.5M449.3 618.2c-1-.7-1.9-1.4-2.7-2.3-2.2-2.6-3.3-6.7-1.6-9.8.8-1.3 2-2.2 3.2-3.2M449.7 598.4c-.5-.7-.6-1.6-.8-2.5-.1-.6-.2-1.2-.2-1.8v-.9c0-2 .5-5.1 3-5.3.6-.1 1.2.1 1.8.3M432 593.9c.4-2.4 2.5-3.9 4.6-5.1 3.6-2 7.9-2.6 12-2 1.7.2 3.4.8 5.1 1.4M455.7 596.1c-1-1.4-1.6-2.9-2-4.5M455.9 587.6l-.3.2-.6.3M453.7 591.6c-1.3.6-2.7.8-4.1.8h-.9M453 597.1c-1.2.3-2.4.6-3.6.8-1-.5-2-1-3-1.3M498 561.9c.1.6-.1 1.1-.4 1.6-.4.8-.9 1.6-1.4 2.3-2.4 3.5-5.2 6.8-8 10.1-5.7 6.6-11.7 13-17.8 19.2-5.9 6-11.9 11.9-18.2 17.5M457.7 618c-1.2 1-2.6 1.4-4.1 1.5-1.3-.1-2.5-.4-3.7-.9M444.3 623c-1.7-.8-3.1-1.8-4.4-3.1M433 624.6c-1.1.1-2.1.3-3.1.6M435.9 632.6c.8 1.4 1.4 2.9 1.8 4.4M433.3 650.1c1-.3 2-.7 2.9-1.3 3.3-2.2 4.7-6.1 4.4-10-.1-1.4-.5-2.8-1-4.2l-.6-1.4.3-1.6c.2-1 .6-1.9 1.1-2.8M443.6 622.4c-1.6-1-3-2.1-4.1-3.6M434.1 613.9c-1.5-.6-2.9-1.2-4.4-1.5-1.6-.3-3.2-.5-4.9-.5-2.3.1-4.5.5-6.7 1.3-5.2 2-9.1 6.8-10.1 12.3-.3 1.7-.3 3.5-.2 5.2M411.7 627.2c1-1.3 2-2.2 3.4-3M434.6 613.9h-.8999999999999999c-.8-.1-1.3-.2-2-.5M446.7 604.2l-2.5 2-6.8 5.5c-1 .8-2.8 1.9-3.6 3.2-1.3 2.1-1.4 4.8-1.1 7.1.1.8.2 1.6.3 2.5l-.1 2.6M446.7 626.9c.2.6.3 1.3.2 2-.1 2.1-1.6 3.7-3.7 4.3-.8.3-1.6.3-2.5.3-.4 0-1.5-.1-1.9-.3l-.8-.5c-1-.7-2-1.5-2.9-2.3M442.3 623.3c-1.6-1-3-2.1-4.1-3.5M445.1 614.1c-.2.3-.1.1-.4.4M444.7 622.8c-1.8-1.4-3-3-4-5M448.6 611.2c-.4.6-1.1 1-1.6 1.4M447.3 620.5c-1.9-1.1-3.4-2.5-4.5-4.4M439.9 619.9c1 1.6 2 2.8 3.5 3.9M450.9 616.5l.6.4c.3.1.8-.2 1-.4M450.4 610.7c.6.7 1 1.4 1.6 1.9.4.4.9.8 1.3 1.1 2.4 1.8 6.3 3.1 8.7.5M464.2 620.4c.9-1 1.7-2.1 2.3-3.3 1.4-2.6 2.2-5.7 2-8.8M432.1 651.1c2-.2 4-.6 5.9-1.4 1.6-.7 3.3-1.7 4.5-2.9 1.4-1.3 2.7-2.8 3.6-4.5 2.4-4.8 2.6-10.5.6-15.4M433.9 627.5c2-1.7 4.2-3.4 6.3-5.1M448.9 618.5c-1.2-.8-2.2-1.8-3.1-2.9M447.1 620.8c-1.9-1.2-3.3-2.6-4.6-4.5M443 624.1c-2.1-.9-3.7-2.2-5.2-4 .4-.3.3-.1.5-.4M442.9 616c1.1 1.7 2.3 3 3.9 4.1M454.5 614.5l-.3.4M446.2 620.5l.7.5M445 614.2c1 1.7 2.3 3 4 4.2M443.3 623.8l-.3.3M437 628.5l-.7 2.9M437 628.5c-1.7-1-2.9-2.3-4-3.9M423.8 623.5c1.7.5 3.2 1.1 4.7 2M447.8 613c.5-.4 1-.7 1.3-1.1M451 609.2l.4.7M445.6 615.8c.9 1.1 1.9 2.1 3.1 2.9M450.6 618l-1-.7M442.3 623.3c-1.4-1.3-2.3-2.7-3.2-4.3M444.9 614.3c.3.5.3.9-.1 1.3M450.5 616.6l.8.5c.5.1 1.3-.4 1.2-1-.1-.4-.4-.7-.6-1-.6-.6-1.4-1.3-2.3-1.3-.3.1-.5.2-.8.5M442.4 623.2c-1.3-1.2-2.3-2.6-3.1-4.2M449.1 615.3c-.8-.8-1.5-1.7-2.1-2.7M439.6 618.6c-.2.3-.1.1-.5.4M450.7 617.8l-1-.7M440.9 617.5c1.2 1.9 2.7 3.4 4.6 4.5M449.4 614.9c.6-.7 1.3-.1 1.8.3.3.2.7.6.5 1M443.7 622.2c-1.3-1.2-2.3-2.6-3.2-4.3M445.2 621.4c-1.6-1.1-2.9-2.4-3.9-4.1M449.3 611.7l-.4-.6M448.8 619.3l.2-.1 1-.8M448.7 611.2c.8-.7 1.7-1.3 2.4-2.2M448 603.1l2-1.7M450 611.1c1.2 1.6 2.5 2.8 4.1 3.8M446.8 620.9l-1.1 1-.2.2M440.8 617.6c-.2.3-.1.1-.5.4M449.9 617l1.1.6M448.7 611.2l.4.7M448.5 611.4l.4.7M454.3 614.7c-1.7-1-3-2.2-4.1-3.8M451.5 609.7c-.3.4-.7.7-1.1 1.1M450 618.4l-.6-.3M444.4 622.9c-1.7-.8-3.1-1.8-4.4-3.1M449.3 615.1c-.8-.8-1.5-1.7-2-2.6M447.8 619.3l.7.4M448.9 614.3l-1.1-1.3M447.1 616.9l2-1.7M448.8 619.3l-.5-.3M440.4 618c.9 1.7 1.9 3.1 3.2 4.3M438 619.9c1.4 1.8 3.1 3 5.1 4M451 617.6l-.4.4M443 615.8c-.2.3-.1.1-.5.4M445.1 616.1l.2-.1.4-.4M449.6 617.3c.5-.4 1-.9 1.5-1.2M444.9 615.5l.4.5M451.7 613l-1.3 1.1M445.1 616.1l-.3-.5M448.5 618.9l.5.3M444.7 614.5c.2.3.4.7.2 1M448.3 619l.4-.3.2-.2M435.9 647.4c2.1 1.2 4.8.9 6.6-.6M483.9 565.1c-1.3 2.1-2.8 4-4.4 5.9M430.8 594.1c.8-1.2 1.7-2.1 2.7-3.1M439.9 642.4l-6-14.9M418.1 621.2l15.8 6.3M410.2 650.4l-.7.5M433.9 627.5c-1.6 2-3.1 4.1-4.9 6l-1.9 1.9M413.3 627.2c1.4.9 2.8 1.7 4.3 2.4 1.3.7 2.8 1.2 4.2 1.9 2 .9 3.8 2.2 5.4 3.8 1.6 1.5 2.9 3.2 3.8 5.2.7 1.3 1.1 2.6 1.8 4s1.4 2.6 2.3 3.9M425.3 657.1c2.2-1.8 4.3-3.6 6.4-5.5 1.1-1 2.4-2.1 3.4-3.2 1.7-1.9 3.2-4 4.9-6M429.1 633.5c-1.7-.4-3.5-.8-5.2-1.3-2-.6-3.8-1.5-5.9-2-1.3-.3-2.5-.3-3.8-.3-1.6.1-3.1.4-4.5 1.1-1.1.6-1.9 1.3-2.8 2.1-1.1 1-2.2 1.9-3.4 2.8.9 3.8 2 7.5 3.7 11l1.5 2.7.8 1.3 1.4.9 2.9 1.6c3.6 1.8 7.5 3 11.5 3.8M418.1 621.2c-1.6 2-3.2 4.1-4.8 6l-1.2 1.1c-1.1 1-2.2 2-3.3 3.1-.9.8-1.8 1.5-2.4 2.5-.8 1.3-1.3 2.7-1.5 4.2-.3 2.9.6 5.8 2 8.3 2.7 4.5 7.3 8 12.4 9.2 4.5 1 9.9-.1 12.2-4.6 1-2 1.2-4.5.7-6.8-.3-1.4-.9-2.7-1.3-4-.8-2.2-1.3-4.4-1.9-6.6M418.1 621.2l-2.4 2.1-5 4.5-2.4 2.1-2 2.5-.8 1-2 2.5M464.7 579.3c-1-.5-2.1-.6-3.3-.8-1.5 0-2.7.2-4 .8M459.2 579.9c1.5-.2 3 .2 4.3.5M460.2 580.2c1 0 2 .2 3 .5M446.5 586l1.2.8M452.9 578.2l-2.1 2.5-2.2 2.8-2.1 2.5-.6.7M443.2 586.8c3.1-2.9 6.3-5.9 9.7-8.5M462.7 581.2c-3.2-1.4-6.5-2.3-9.8-3M447.2 583.3c.7-.9 1.3-1.4 2.1-2.1M479.8 602.7l.2.1M478.3 604.9l-3.8-2.5M472.5 604.5l.2.3M474.4 602.7c-1.2 1.5-1 2-2.3 2.3h-.1M478.3 604.9l1.7-2.1c.7-1-.5-1.1-1.5-1.7l-1.7-1.1M478.3 604.9c.3-.6.7-1.2 1.1-1.8.2-.3.5-.8.9-1M453 577.5c-.7-.4-1.4-.6-2.2-.6-.6.1-1.1.2-1.6.6-1.3 1-1.5 2.9-.5 4.1M449.3 581.1c-.1-.8.5-1.3 1.3-1.1M454.1 578.5c-.2-.3-.7-1-1.1-1-.5.4-.8 1-1.2 1.5M1046.4 774.8l-.5-.6M1053.7 785.4l.3.3M1051.4 783l.4.3M1048.2 773.3l-.2.2M1058.1 787.4l.6.5M1049 780.4l.1-.2M1060.2 785.7l-.5-.5M1056.7 788.4l-.2.2M1063 796.3l.3.6M1059.7 788.7l.4.4M1058.5 790.2l-.4-.3M1053.4 782.3l.4.4M1062.1 787.6l-.5-.5M1057.9 790l.5.4M1063.5 798v.4M1063.5 798.6v-.2M1063.4 797.1l-.3-.6M1059 788.3l.6.6M1063.3 796.9l-.3-.6M1056.1 788.1l.4.5M1058.9 787.9l.3.2M1049.3 780.1l.7.7M1051.7 777.6l.5.5M1052.7 778.5l.6.6M1057.9 786.9l.3.3M1057.2 786.4l.5.6M1054.9 786.6l-.1.1M1049.3 774.1l.2-.2M1055.9 782.3l1.5 1.5M1057.5 783.6l-1.4-1.4M1049.7 774.7l.1-.2M1048.7 774.5l.1-.2M1049 774.6l-.1.2M1053.1 779.3l-.6-.6M1048.6 780.1l-.2.2M1055.1 781.5l-1.5-1.6M1053.7 779.8l1.5 1.5M1050.5 779.7l2.7 2.7M1056.2 781.6l-2-2M1051.1 783l.5.5M1053.6 782.8l1.9 1.9M1053.5 785.4l.4.5M1056 785.2l.8.8M1050.3 779.1l.4.4M1055.7 784.7l.4.3M1056.5 781.9l2 2M1054.8 786.7l-.5-.4M1057.4 786.3l-.3-.3M1048.3 779.9l.3.2M1048.1 779.9l.3.4M1045.9 775l-.1.2M1049 775.1l.1-.2M1046.3 775.5l-.2.2M1047.9 774.1l.2-.2M1067.8 738.9l.8 1.2M1047.9 737.5c-.1 2.1-.2 4 0 6.1.7 6.8 3.4 13.1 7.1 18.8M1051.6 783.5c1.2-.3 2.2-.7 3.3-1.3.5-.2 1.1-.5 1.4-.9M1046.4 776c-.3-.3-.7-.7-.7-1.1 0-.4.2-.7.6-.9.6-.4 1.5-.6 2.2-.4.8.2 1.2.9 1.3 1.7M1058.4 790.4c.9-.6 1.8-1.2 2.6-1.9.4-.3.9-.7 1.2-1.1M1098.6 760l-.4-.6-1.4-2.9-8.8-17.5c-1.4-2.9-2.8-5.9-4.6-8.5-5.1-7.5-11.8-14.4-20.5-17.6-2.7-1-5.3-1.4-8.2-1.6-3 0-6.1.3-9 1.5-1.5.6-2.9 1.3-4.1 2.3-5.5 4.2-8 11.3-8.6 17.9-.6 5.4-.1 10.9 1.1 16.2 1.8 8.1 5.3 16 10.1 22.8M1052.7 778.5c-.7.4-1.3.7-2 1-.4.2-1 .3-1.4.6M1056.3 788l.4.4h1.1c1.1-.1 2.1-.4 3.2-.7M1054.3 779.4c-.2.3-.5.4-.8.6M1045.9 778.9c.1.1.1.1 2.3 2.4l12.5 12.7 2.2 2.3.5.4c.8.6 1.6.8 2.5 1.2l2.5 1.3M1063.5 798.6c-1 2.9-1.4 5.8-1.1 8.9M1065.9 797.8c.5 1.1.8 2.1 1 3.3M1088.8 826.1c1-.5 2-1 2.9-1.8.7-.6 1.2-1.2 1.7-1.9 4-5.9.8-13.8-3.6-18.5-2.6-2.8-5.9-5-9.5-6.1-1-.3-2-.5-3-.7l-1.4-.1-1.2-1.1c-1.1-.9-2.2-1.8-3.4-2.6M1058.4 766.5l2.3 2.3 13.8 14 2.2 2.3.3.8.6.6c1.2 1.2 2.8 1.8 4.4 2M1077.6 786.1c.8.7 1.7 1.4 2.7 1.7 1 .4 1.9.4 2.9.6 1.1.1 1.9.4 3 .7 3 1 5.9 2.6 8.3 4.7 6.7 5.6 10.7 15.6 6.7 23.9-.8 1.7-1.8 3.2-3 4.5-1.2 1.3-2.7 2.4-4.3 3.2-1.9 1-3.8 1.6-6 1.9M1090.7 822.2c.8-1.1 1.4-2.3 1.8-3.6M1087.9 805.4c1.3 1.5 2.4 3 3.4 4.8M1082.1 788.2l-.2.8-1.3 2.3c-1 1.5-2.1 2.9-3.2 4.2l-1.4 1.5-.8.4c-1 .5-1.9 1-2.8 1.6M1063.4 796.6c.8 1 1.3 2.2 1.4 3.5 0 .3 0 1.4-.1 1.7l-.6 1.1c-.5 1-.7 2-.9 3.1M1063.5 798.6c-.4 1.1-.4 2.3.8 2.9l.5.2.5-.1 1.5-.4M1074.5 799.3c1.6 0 3.1.2 4.7.6M1073.3 798.3c-1-.9-2.1-1.7-3.3-2.3M1077.9 786.3c-.4-.4-.2-.3-.6-.5-1.5.1-2.5 1.8-3.3 2.9-1 1.4-2 3-2.8 4.5-.4.6-.7 1.3-1 2.1l-.3.7c-.1.7.1 2 .1 2.7M1057 788.2c.7-.5 1.4-1.1 2.2-1.6.4-.3.9-.6 1.2-1.1M1039.3 770.5c1.6 2.4 3.3 4.8 5.3 6.9.4.5 1.3 1.7 2.2 2 1.7.4 3.6-.7 4.9-1.6M1058.6 783.7c-.3.4-1 .6-1.5.9-1 .6-2.1 1-3.3 1.3M1048.6 780.1c.5 0 .8.3 1.2.6M1061 787.6c-.2.3-.1.2-.8.4-1 .3-2.1.5-3.2.6h-.5M1049.6 780.9l.4-.1M1054.8 786.7c1 0 2.1-.1 3-.4.5-.1 1.1-.2 1.4-.6M1051.5 777.7l.1.1.5.5M1054.6 786.3c.4.4.9.3 1.4.2 1.1-.1 2.1-.4 3.2-.8M1048.1 779.9c.9-.2 1.8-.6 2.7-1 .5-.3 1.1-.5 1.5-.9M1059.9 785c-.4.4-1.2.5-1.7.7-1.1.3-2.2.5-3.4.6h-.5M1052.2 777.1c-.2.3-.4.4-.7.5M1044 774.3c-.2.2-.3.2-.6.3M1043.6 774.9c.3-.1.4-.1.6-.3M1053.7 779l-1.6-1.6-.1-.1M1047.1 771.1c-.3.4-1 .6-1.4.9-.9.5-1.9.9-2.8 1.2M1063.6 797.9c-.2-.8-.1-.4-.3-1M1060.9 787.8c-1 .8-1.9 1.5-3 2.2M1047.4 776.3c-.4-.3-1-.8-1-1.3 0-.8 1.4-1 1.9-.8.4.1.6.6.7.9l.1.6M1049.2 775.5l-.1-.6c-.1-.6-.5-.9-1-1-.7 0-1.2.3-1.6.8M1050.7 775.9l-1 .6M1040.5 772.3c.2.6 1 .4 1.5.3M1049.9 776.4l.4.5M1057.5 783.6c-.4.4-1 .6-1.4.9-.9.4-1.7.8-2.6.9M1065.9 797.8c1.5-.3 2.8-.9 4-1.8M1060 789.3l2.3 2.3 3.3 3.3c1.1 1.1 2.4 2.3 3.4 3.5M1061.7 786.9c-.4.4-1.1.6-1.7.7-1 .3-2 .5-3.1.6M1048.4 780.3c.5 0 .8.3 1.2.6M1056.1 788.1c1-.6 2-1.4 3-2.2M1053.1 779.3c.3-.1.5-.3.7-.5M1047 771.3l-.4-.5M1044.3 713.4c-1.6.9-3.2 1.8-4.7 3-8.8 7.5-10.6 20.3-9 31.1.4 2.5.9 4.9 1.6 7.3.7 2.3 1.5 4.7 2.4 6.9 1.3 3 2.8 6.1 4.7 8.8M1045.3 776.9c.7-.1 1.8-.3 2.2-.9M1043.5 774.4c-.8-1-1.5-2.1-2.2-3.2M1042.5 772.6c-.3-.4-.7-.9-1-1.4M1041.1 771.3l.4-.1M1050 775.1c-.3.3-.6.4-.9.6M1055.9 782.3c.3-.1.6-.3.8-.6M1055.2 781.3c-.3.4-1 .6-1.4.9-.8.4-1.7.7-2.7.9M1044.1 774.8l1.2 1.6M1044.3 772l.3.4M1050.2 777.1c.4-.2.9-.4 1.2-.8M1043.4 774.6c-.8-1.1-1.6-2.1-2.3-3.3M1042.9 773.2l.9 1.3M1051.2 776.5l-.5-.6M1044.5 772.6l1.3 1.8M1046.6 775.9c-.5-.4-1-1-.7-1.7M1045.3 776.4c.4-.1 1-.2 1.3-.5M1047.4 776.3c.9 1 1.8 2 2.7 2.9M1048.3 774.9c.6.8 1.3 1.5 1.9 2.2M1045.5 776.8l-1.6-2M1043.6 774.9l1.7 2M1077.6 786.1l-.1-.2-.8-.8M1055 762.3l1.8 2.3M1056.8 764.6l1.8 2.1M1095.8 770.9l4.8-5.1c.6-.5 1.2-1.1 1.8-1.7l1-.9M1098.5 759.9c.9 1.3 2 2.3 3.4 2.8 1 .4 2.1.5 3.1.7 2.1.5 4.2 1.3 6 2.4 7.4 4.1 13.1 12.7 12 21.4-.2 1.8-.7 3.6-1.4 5.2-.7 1.5-1.6 2.9-2.7 4.1M1112.9 782.3c-2.9-4.5-6.9-7.7-11.8-9.5M1091.9 769.1c.5.4 1 .8 1.6 1.2M1083.4 769.1c.3.1.6-.1.9-.2.8-.2 1.5-.5 2.2-.9 1.9-.8 3.8-1.7 5.6-2.6l1.7-.9.8-.4.9-1.7c.5-.8 1-1.6 1.5-2.3.2-.4.7-1 1.1-.9M1099.1 767.4c-1.7-.9-3.1-2-4.5-3.3-1 1.9-2.2 3.9-3 5.9M1084.2 770.7c-.9-1.3-1.6-3-2.3-4.4l-9.7-19.4-1.4-2.9-.7-1.3M1052.4 729.1c1-.3 1.2-.4 2.2-.6 5.6-.7 10.8 3 14.3 7 .8.9 1.6 1.9 2.2 2.9.7 1 1.3 2 1.9 3l.8 1.6 1.4 2.9 9.7 19.4 1.5 2.9M1061.6 732.3c1.5 1.3 2.9 2.6 4.2 4.1l1 1.2 1 1.3M1082.2 728.9l-.1-.3M1054.5 728.9h-1l-.5.1M1047.8 737.9c.2-1.3.4-2.6.8-3.9M1054.6 729h.5l1.1.2M1056 729.2c1 .3 1.9.7 2.9 1.2M1061.8 732.4c-1.1-.8-2.1-1.6-3.3-2.2M1050 731.1l.2-.3.7-.8M1048.5 734.3c.4-1.2.9-2.3 1.5-3.3M1051.9 729.2l-.8.7-.4.3M1051.8 729.4l.5-.3 1.1-.3M1070.1 742.7l-1.6-2.6M1084.8 800.7l9.8 14M1069 798.4l15.8 2.3M1080 806.7l4.8-6M1064.9 807l-.8-2.6M1081.9 831.2l1.9 1.2M1069 798.4c-1.6 2-3.4 4-4.9 6l-.8 1.4-1.5 2.7c-1.3 2.5-2.5 5-3.7 7.6 1.7 3.7 3.7 7.2 6.4 10.4l2.2 2.5 1.2 1.1 1.4.5 2.9.8c3.8.9 7.7 1 11.6 1 1.1-2.6 2.3-5.1 3.7-7.6l1.5-2.7.8-1.5c1.4-2 3.3-4 4.9-6M1064.1 804.4c1.4.5 2.8.9 4.3 1.3l4.3.8c1.9.4 3.6 1.1 5.2 2.1 2.1 1.2 4 2.8 5.4 4.7 1 1.2 1.9 2.6 3 3.8 1 1.3 2.2 2.4 3.4 3.6"/>
    <path class="st1"
        d="M1080 806.7h-1.8c-1.7 0-3.4 0-5.1-.3-1.3-.1-2.6-.3-4-.3-1.5.1-2.9.3-4.2.9-.9.4-1.8 1-2.5 1.6-3.2 3-3.3 7.8-1.8 11.6 2.2 5.6 7.6 10.1 13.5 11.5 4.2.9 9.1.2 11.7-3.7.4-.6.7-1.2 1-1.9.4-1.1.6-2.2.6-3.3 0-1.7-.3-3.3-1-4.9-.7-1.9-1.9-3.4-2.9-5-1.4-2-2.5-4-3.5-6.2zM1094.6 814.7l-1.4 2.8-3.1 6-1.5 2.9-2 2.5-.8 1-2 2.5M1124.6 759.3c-2.3-2.7-5.6-4.3-9.1-4.4-1.3.1-2.4.3-3.6.9M1124 759.9c-2.4-2.7-6-4-9.5-4.1l-1 .1-.5.1M1123.6 760.1c-2.4-2.7-6-4-9.5-4l-.3.1M1127.2 767.5c.2-.9 0-2.1-.3-3M1127 767.1c0-.9-.2-1.8-.5-2.5M1127.1 765.6v-1.1M1125.4 761.5l.1.2M1125.9 761l.2.6M1099.2 760.9l4.5-5.4M1123.1 783.3l.2.1M1123 779.5l-1-1M1129.3 771.7c-1.8-3.7-3.8-7.2-6.4-10.3l-2.2-2.5-1.2-1.1-2.8-.9c-1.9-.5-3.9-.9-5.8-1.1M1103.7 755.5c3.7 0 7.3 0 10.9.9M1112.5 766.7c1.3-2.1.4-.8 2.8-3.7l2.3-2.8 2-2.5M1123.1 783.7l.2-.3.8-1.4 1.5-2.6c1.3-2.5 2.6-5.1 3.7-7.7l-2 2.5-2.3 2.8-2 2.5-.5.9M1110.4 765.5h2.8l.8 1.7.5 1M1125.4 764.7l5.3-.7M1125.2 761.7l-1 1.3M1131.3 761l-1.7 2.1-4.9.6M1131.1 755.7c-.4-.4-.8-.6-1.4-.7-1.3.1-2.6 2-3.2 2.5l-1.4 1.3-2.4 2.2M1129.6 763.1c.3.6 1 1.4 1.6.6l.2-.3.1-.3c.2-.7.1-1.4-.1-2.1M1128.8 755.3c-.5.9 0 1.8.6 2.5M1131.3 761c-1 .1-5 .5-6.1.7M1124.1 762.8c1.7-1.6 3.8-3.3 5.4-5l1.7-2.1M687.2 904.1l-2.2-.5M686.6 905.1l-2.3-.6M682.3 914.4l1.9.6M687 919.9h.4M704.5 931.3l-1.5-1.9M692.5 901.4c-.6-.2-.3-.1-.8-.1-1.1.3-1.8 1.1-2.5 2M699 925.7c-2.2-1.6-4.5-3-7-4.1-1-.5-2.1-.6-2.6-1.6-.6-1.2-.6-2.7-.6-4 .1-3.5 1.1-7 2.7-10.1.7-1.3 1.6-3 3-3.6.9-.3 2.3.1 3 .2l1.8.1M716.1 922.5l-.3.9-.6 1.3-1.2 2.3c-1.5 2.6-3.5 5.5-6.8 5.7-.4-.1-.8-.1-1.1-.3-2.9-1.3-3.1-5.2-3-8v-1.4c.3-4.2 1.2-8.3 2.6-12.3 1-2.6 2.1-5.2 3.8-7.5.6-.9 1.3-1.6 2-2.3.4-.3.9-.6 1.3-.8.7-.3.7-.3 1.4-.3 3-.2 4.2 3.3 4.5 5.6l.1 1.1v1.4c0 1.8-.1 3.7-.5 5.5"/>
    <path class="st1"
        d="M717.7 921.4c1.1-1.5 1.7-3.5 1.7-5.4-.1-.8-.3-1.9-1-2.4l-.2-.1-3.1-.8-1.8-.5-3.1-.8c-.9 0-1.4.9-1.7 1.6-.9 1.6-1.4 3.5-1.4 5.3 0 .6 0 1.3.4 1.9l.4.3 3.1.8 1.8.5 3.1.8.5-.1.9-.6c.2-.3.1-.2.4-.5zM718 913.4c.4-2.7.6-5.7-.1-8.4-.4-1.3-1-2.3-2.5-2.4-2.4.4-3.9 2.9-5 4.9-2.7 5-4.3 11-4.3 16.6v1.2l.1 1.1.1 1c.3 1.6 1.2 4 3.3 3.3l.6-.3c.5-.3.9-.6 1.3-1 .8-.8 1.3-1.6 1.9-2.5.9-1.4 1.6-2.9 2.2-4.5M719.1 914.8c-.2-.2-.2-.3-.6-.3-.6.2-1 .8-1.3 1.3-.7 1.2-1 2.7-1.1 4.1 0 .6 0 2.3 1.1 1.9M709 921.7l1.3 2.9.5 1.2 1.3 3c.1.3.2.7 0 1l-.2.2-.5.5M706.2 921.1l.1.6.2.4c.9 1.5 2.5-.4 3-1.3M718.2 913.5c-.9 0-1.4.9-1.8 1.6-.9 1.6-1.4 3.5-1.4 5.3 0 .7 0 1.7.8 2.1M712 911.8c0-1-.1-2.6-1.3-2.8-.6.1-1 .4-1.4.9M709.4 909.5l1.5-2.4c.6-1.1 2.3-2.7 1.2-4l-.5-.4c-.3-.2-.6-.3-.9-.3-.8 0-1.5.4-2.3.6l-1.8.5c-1.9.4-3.8.6-5.7.7-2.7 0-5.3-.2-8-.7M692 901.3l-1.7-.4c-1.7.5-2.7 2.3-3.5 3.7-1.6 3-2.5 6.6-2.6 10 0 1.1 0 2.3.4 3.4.1.5.4 1.1.9 1.4.5.3 1.1.4 1.7.5M686.9 919.8c-1.8-.7-1.7-3.4-1.6-4.9.2-3.7 1.3-7.7 3.2-10.9.7-1.2 1.8-2.9 3.4-2.8M689.7 902.7l-.2-.1-1.1-.3M707.3 901.9c-2 .3-4 .5-6 .6h-2.1M713.5 900l-.6.2-1.8.6s-2.2.7-4 1.1M709.1 911.9l3.1.9 1.8.5c3.5.9 2.4 0 3.8 1.7M703.4 929.9c-1.4-1.6-2.9-2.9-4.5-4.3M693.5 902.5h-.4c-1.9.4-3 2.8-3.7 4.4-1 2.4-1.7 5-1.9 7.6-.1 1.3-.1 2.8.4 4 .1.3.3.6.6.8l.4.2c.5.7.7 1 1.5 1.3M695.4 902h-.2c-2.1 0-3.3 2.2-4.1 3.8-1.4 2.7-2.2 5.8-2.5 8.7-.2 1.7-.2 3.5.4 5M689.1 903.3c-2.2 3.5-3.4 7.6-3.6 11.7 0 1.1 0 2.3.3 3.4.1.5.4 1.1.9 1.3.6.3 1.3.2 1.8 0l.4-.2M693.4 902.5c-.3-.5-.6-.8-1.2-.8-1.4.3-2.3 1.6-3 2.8-1.9 3.2-3 7.2-3 11v1l.1.9s.5 2.6 1.8 2.5c.3 0 .5-.1.8-.3M693.5 902.5c-.3-.6-.8-1-1.4-1.2M689.7 902.7c.6.2.9.9 1.6 1 .3.1.5.1.8 0 .4-.1.5-.4.9-.3M914.6 652.2l-1 .5M916.6 637.5l1.2 2M915.4 637l-1.1-1.4M904.3 636.8l2 .5M909.1 639l-2.6-.7M886.6 627.8l-2.2-1.1-.4-.1c-1.9.1-3.2 2.3-4 3.8-1.8 3.3-2.8 7.3-3 11-.1 1.5-.1 3.3.8 4.7.8 1.2 2.5.7 3.7.8 2.2.1 2.7.3 4.9.6M886.3 647.3c4 .8 7.7 1.8 11.5 3.3M911.7 635.4v-1.9c0-1.5-.2-3.4-1-4.7-.3-.5-.8-1.2-1.4-1.4-.6-.2-.5-.1-1.1-.2-2.4.4-4 2.8-5.2 4.7l-.6 1.1c-1.9 3.5-3.1 7.4-3.9 11.3-.4 2.5-.8 5.1-.7 7.7 0 1 .2 2 .4 3 .1.5.3 1.2.6 1.6.4.7.3.5.8 1 1.3 1.3 3.2.2 4.3-.8l.6-.7.7-.8.7-.9 1.1-1.9"/>
    <path class="st1"
        d="M913.5 644.9c.4-1.3.9-2.7 1.8-3.8.3-.5.9-1.2 1.6-1.1l.2.1 3.1.9 1.9.5 3.1.9.4.4.5 1c.4.8.3 1.7.3 2.5-.1 2.1-.8 4.5-2.1 6.2-.5.7-1.4 1.4-2.2 1.5h-.3l-3.1-.8-1.9-.5-3.1-.9c-.6-.2-.7-1.2-.8-1.7-.1-2 .2-3.7.6-5.2zM911.7 635.6l-1.8-.5h-.4c-1.8.5-2.8 2.5-3.5 4-1.3 2.8-2.1 5.9-2.1 8.9 0 1.2 0 2.8.9 3.8.5.5 1.8.7 2.3.8M915 651.8c-.3.3-.7.5-1.1.6-1.3-.2-1.4-2-1.4-3 0-2.9.8-6 2.4-8.5l.4-.5c.5-.7 1.7-2 2.5-.9.2.3.2.4.4.8M923.7 653c-.2.1-.4.2-.7.2-.9-.4-.9-1.6-.9-2.4 0-2.1.6-4.5 1.8-6.3.3-.5 1.2-1.8 1.9-1.3l.4.4M925.2 642.1l-.2-.1c-1.1.1-1.8 1.3-2.2 2.1-1 2-1.7 4.3-1.8 6.5 0 1 0 2.3.9 2.9M911.8 635.5v-1.2l-.1-1.2c-.1-2-.6-5.2-3.1-5.5-2.7.4-4.5 3.5-5.7 5.7-1.6 3-2.7 6.4-3.5 9.8-.6 2.8-1 5.6-1 8.5 0 1.1.1 2.2.4 3.3.1.6.3 1.1.5 1.6.2.4.5.8.8 1.1 1 1 2.3.6 3.3-.1 1.6-1.2 2.7-3 3.7-4.8M915.4 637c-.2-.3-.6-.4-1-.4-1.5.4-2.4 1.9-3 3.1-1.4 2.6-2.2 5.7-2.5 8.6v1.7000000000000002c0 1 .2 3 1.4 3.3.3.1.4 0 .8-.1M914.4 652.3l-2 1-.4.1c-.7 0-1.4-.1-2-.5-1.1-.7-1.1-2.7-1.1-3.9.1-3.4 1-7.1 2.8-10 .5-.9 1.4-2.2 2.5-2.3h.4l1.2.3c.3.1.4.1.7.4l.2.4.8 1.2M911.7 653.4c-1.5-.6-1.5-2.7-1.4-4 .1-3.4 1-7.1 2.8-10 .6-1 1.5-2.4 2.8-2.3M914.7 642.1l3 .8 1.9.5c3.4 1 2.3.2 4 1.5M911.1 653.3c-.7.2-1.4.6-2.2.7-.4-.1-.9-.2-1.3-.5-1-.9-1-2.6-1-3.7-.1-4 1.1-8.5 3.2-12 .9-1.5 2.2-3.3 4.1-2.4.3.1.5.4.7.7M908.9 653.9c-1.6-.4-1.7-2.7-1.7-4v-.9c.1-3.8 1.3-7.8 3.2-11 .7-1.2 1.7-2.6 3.2-2.7M907.1 652.7c-.6.6-1.2.9-2 1-.8-.2-2.2-.3-2.9-1-1.1-1.4-1-3.6-.9-5.2.2-3 .9-6 2.1-8.8.6-1.5 1.3-2.9 2.3-4.2.5-.6 1.1-1.2 1.9-1.5.3-.1.5-.1.8 0 1.3.3 2.5.4 3 1.7l.2.6M910.2 633.5c-1.6.1-2.7 1.6-3.4 2.9-2.1 3.5-3.3 7.9-3.5 11.9v1c0 1.5.1 3.9 1.9 4.3M898.8 654.9l2.7-3.9M897.9 650.5c-.4-.4-.7-1.1-.8-1.6-.3-1.1-.2-2.3-.1-3.5.2-3.5 1.3-7.1 3.1-10.1.5-.9 1.4-2.2 2.5-2.5M911.4 639.7c-1.6-1.1-.9-.8-2.1-1.1M910.5 633.6l.2-.5.7-2.1M911.4 639.8c2 .5.9.1 3.1 1.7M886.6 627.8c2.3 1 4.6 2 7 2.9 3 1 6 1.6 9.1 2M901 636.1h-.5c-1.9 0-3.9-.6-5.7-1.1-3.3-.8-6.6-1.8-9.8-2.9-2.3-.8-4.5-1.8-6.9-2.4M879 646.7c-.3-.1-2.1-.4-2.7-.9-1-.9-1.1-2.8-1.1-4-.1-3.4.8-6.9 2.1-10.1.6-1.5 1.4-3 2.4-4.3.5-.6 1.2-1.3 2-1.4h.4l1.9.5M895.9 631.3h-.4c-1.5.4-2.4 1.9-3 3.2-1.4 2.7-2.3 5.8-2.5 8.8v.9c0 1.4 0 3.6 1.5 4.2M901.8 634.4c.1-.2.6-2 1.1-1.1M984.1 543.1l2.7.8M983.5 543.2l-1.9-.5M978.6 541.8c-2-.7-4.1-1.2-6.1-1.8-5.6-1.5-11.3-2.9-17-4.4M963.8 546.4l-2.5-.2-2.7-.1c-.3 0-2.1-.4-2.7-.9-.6-.5-.8-1.5-1-2.3-.3-2-.1-4.1.3-6.2.6-3 1.5-6 3.1-8.5.7-1.1 1.6-2.6 3-2.9 1.6-.2 3.9 1.2 5 1.9M966.1 527.2c2.3 1.1 4.6 2.1 7 2.9 3 1 6 1.6 9.1 2M990.7 552.7c-.7.3-1.4.6-2.2.7-1.6-.5-1.7-2.7-1.7-4.1v-.9c.2-3.8 1.3-7.8 3.3-11l.5-.7c.6-.8 1.9-2.4 3-1.7l.3.2 1.2 1.4M1001.6 553.1l-3.1-.8-1.9-.5-3.1-.9-.5-.4c-.4-.6-.5-1.6-.5-2.4 0-2.2.7-4.5 1.7-6.4.4-.8 1.2-2.3 2.3-2.3h.2l3.1.9 1.9.5 3.1.9.5.4c1.7 2.5.7 6.3-.6 8.8-.6 1.1-1.5 2.2-2.8 2.5-1.2-.2-1.2-2-1.2-2.9.1-2.4.8-5 2-7 .4-.8 1.1-1.9 2.1-1.7M1003.3 552.4c-.2.1-.4.2-.7.2-.9-.3-1-1.6-1-2.4 0-2.2.7-4.5 1.8-6.3.3-.5 1.1-1.8 2-1.3l.4.5M992.9 545.2c3 .8 6.1 1.8 9.1 2.4M994.7 551.3c-.4.4-.7.6-1.3.6-1.3-.5-1.2-2.3-1.2-3.4.1-2.9 1-6 2.5-8.4.5-.7 1.7-2.2 2.7-1.2l.2.3.3.6M994 551.7c-.8.4-1.6 1-2.5 1.1-1.5-.2-1.6-2.2-1.6-3.4v-.9c.1-3.4 1.1-7 3-9.9.5-.8 1.6-2.4 2.8-2 .9.3 1.7 2.2 1.8 2.4M991.3 534.8v-2.3c-.1-2-.6-5.2-3.1-5.5-2.8.4-4.5 3.5-5.7 5.7-1.6 3-2.7 6.3-3.5 9.7-.7 2.8-1 5.6-1 8.4 0 1.1.1 2.2.3 3.3.1.6.3 1.1.5 1.7.2.4.4.8.8 1.1 1 1 2.3.6 3.3-.1 1.7-1.2 2.8-3 3.7-4.7M991.2 552.8l-1.3-.3-.3-.1c-.4-.3-.5-.7-.7-1.2-.4-1.2-.4-2.6-.3-3.8.3-2.9 1.1-5.8 2.5-8.3.6-1 1.3-2.3 2.5-2.7.6-.2 1.5.2 2 .3M989.2 544.4l1.2.4 2.2.4M990.6 552.7l-.4.1c-1.6-.2-1.7-2.3-1.7-3.6-.1-3.5 1-7.3 2.7-10.3l.4-.8c.6-1 2.1-3 3.4-1.7M987.7 532.4l.5-5.3M991.3 534.8v-2.1l-.1-1.1c-.2-1.8-.8-4.6-3-4.9-2.7.1-4.5 2.9-5.7 5-1.7 2.9-2.8 6-3.7 9.2-.8 3.1-1.4 6.4-1.4 9.8 0 1.1.1 2.2.3 3.3.1.6.3 1.2.5 1.7.1.4.4.9.7 1.2l.5.5c2.2 1.3 4.3-.9 5.6-2.6l.6-.9.7-1 .4-.7M986.8 544l.6.1 1.7.3M993.2 534.7l-.6-.2c-1.7.1-2.9 2-3.6 3.4-1.8 3.3-2.9 7.4-2.8 11.2 0 1.2.1 2.9 1 3.8.4.4.9.4 1.3.5M983 552.7l-1.8 5M991.4 534.9c-.4-1.9-1.9-2.2-3.7-2.5-1.9.3-3 2.4-3.8 3.9-1.6 3-2.5 6.3-2.8 9.6-.1 1.5-.2 3.1.1 4.5.1.6.3 1.2.7 1.6.2.2.4.4.7.5 1.3.4 2.3 1 3.5.1l.5-.4.2-.1M984.7 553.2c-1.7-.5-1.9-3-1.9-4.5v-1c.2-4.1 1.4-8.5 3.6-12 .8-1.2 1.8-2.8 3.4-2.8M986.7 552c-.7-.2-1.8-.2-2.4-.9-1-1.3-.8-3.4-.7-4.9.3-3 1.2-6.1 2.6-8.7.6-1.1 1.4-2.5 2.7-2.9.7-.2 1.9.2 2.4.4M977.4 549.9c-1-1-1-3-.9-4.4.1-3.5 1.1-7.2 2.8-10.3.5-.9 1.1-1.8 1.9-2.5.2-.2.6-.5 1-.6M973.3 548.5l-2.3-.7-.3-.2c-1-.8-1-2.3-1-3.4-.1-3 .7-6.1 1.9-8.9l.4-.9.5-.9c.7-1.2 1.8-3.1 3.4-2.9M979.1 542.5l-.6-.1M963.5 546.4c2.5.3 4.9.8 7.4 1.4M977.4 550.1l-1.9-.8-2.3-.9M958.6 546.1c-1.7-.5-1.9-3-1.9-4.5v-1c.2-4.1 1.4-8.4 3.6-12 .7-1.2 1.8-2.8 3.4-2.8M660.4 938c-.4-.3-.6-.5-1.1-.5-1.4.4-2.3 1.7-3 2.9M663 938.3l2 .3 1.9.2M674 945.3c.8-1.9 1.7-3.8 2.9-5.5.8-1.1 1.6-2.1 2.7-2.9 1.3-.9 3.2-1.1 4.5 0 .7.6 1.2 1.3 1.5 2.1.4 1 .6 2.1.8 3.2M685.7 948.4v-.2l.1-1.4v-2.5c-.1-2-.5-5.3-3-5.5-1.3.3-2.2 1.1-3.1 2.1-1.2 1.6-2.1 3.3-3 5.1M675 938.2c-2.1.4-4 .6-6.2.6h-2.1M659.6 937.5l-.6-.1c-1.4.4-2.3 1.7-3 2.9M659.4 941.3c.6-1 1.3-2.2 2.4-2.7M659.4 937.5c-1.2-.3-.7-.3-1.5-.3-1.4.4-2.3 1.7-3 2.9M674.6 938.2c1.9-.4 3.7-1 5.6-1.7M679.6 946.8l2.5-1.9.9-.8c.6-.4 3.2-1.7 3.1-3.1M686.2 948.5c.4-2.5.3-5 0-7.5M679.4 946.7c-.2-.7-.4-1.2-1.1-1.4-.6 0-.9.3-1.3.7M661.1 938.8l-.4-.4c-.3-.3-.3-.3-.8-.4-1.5.1-2.4 1.5-3.1 2.7M660.8 939c.7-.5 1.3-.8 2.2-.7M659.1 941.2c.7-1.1 1.5-2.3 2.9-2.8M661.1 938.7c-.4-.6-.7-.9-1.4-1.2M661.1 938.8c-1.4.1-2.2 1.3-2.9 2.3M1000.8 1088.3l1.5 1.9M984.7 1078.6l.3.1M967.9 1060.4l7.4 2M969.4 1058.8l6.9 1.8M972.2 1071.1l-5.7-1.5M990.2 1060.3c-.5-.2-.3-.2-.8-.2-1.7.4-2.7 2.1-3.4 3.6M995.1 1083.4c-1.7-1.1-3.5-2.1-5.4-3-1.1-.5-2.2-.5-2.8-1.7-.6-1.2-.6-2.8-.5-4.1.2-3.5 1.1-7 2.7-10.1.7-1.3 1.6-3 3-3.5.8-.3 2.3.1 2.8.2 1.9.2 2.1.2 3.9.2M1013.8 1081.3c-.4 1-.8 1.9-1.3 2.9l-1.2 2.2c-1.3 2.3-3.3 5-6.2 5.1-.6-.1-1.1-.1-1.7-.4-2.5-1.3-2.7-5-2.7-7.4v-1.4c.2-4.2 1.1-8.3 2.5-12.2 1-2.7 2.1-5.4 3.8-7.7.6-.9 1.3-1.7 2-2.4.4-.4.9-.7 1.3-.9.4-.2.9-.3 1.3-.4 3-.4 4.3 2.9 4.7 5.2l.2 2.2c.1 2.1-.1 4.2-.4 6.2"/>
    <path class="st1"
        d="M1015.8 1079.7c.9-1.6 1.6-3.7 1.2-5.5l-.1-.4-.5-1-.4-.4c-2.7-.8-5.5-1.6-8.2-2.2-.7.1-1.1.7-1.5 1.3-.9 1.6-1.4 3.4-1.5 5.3 0 .7 0 1.7.4 2.2l.2.1 3.1.8 1.8.5c.4.1 2.9 1.3 3.9.7l.8-.5.3-.2c.2-.3.3-.5.5-.7zM1013.2 1081.2c-.9 2.2-1.9 4.4-3.4 6.2-.8 1-1.8 1.9-3 2.2-2.6 0-3-3.3-3-5.3v-2.5l.1-1.4c.4-3.4 1.2-6.9 2.4-10.1.8-2.1 1.7-4.1 3-5.9.4-.6.8-1.1 1.3-1.6 1-1 2.6-2.2 3.9-1l.4.5c.3.4.5.9.7 1.4.9 2.7.6 5.8.1 8.6M1015 1080.6c-.3.1-.1.1-.5.1-.7-.3-.7-1.2-.7-1.9 0-1.5.5-3.2 1.3-4.5.2-.4.9-1.4 1.5-1l.3.4M1006.9 1068.7c.3-.3.4-.5.8-.7 1.6-.9 1.9 1.6 2 2.6M1016 1072.3l-.2-.1c-.7.1-1.1.7-1.5 1.3-1 1.5-1.5 3.4-1.6 5.2 0 .8 0 1.9.7 2.5M1011.2 1086.4c.1-.3.1-.6-.1-.8-1.2-2-2.4-4-3.7-6M1000.9 1088.5c-1.9-2-3.8-3.7-6-5.3M1003.9 1079.9c.1.4.1.5.3.9l.2.4c.9 1 2-.4 2.5-1l.3-.5M1006.3 1071.4l3.1.8 1.8.5c3.5 1 2.3.1 3.9 1.6M989.7 1063.5c4.4.8 8.8 1.3 13.2.6l1.7-.3 1.6-.4c.9-.2 2.6.7 2.4 1.8v.1l-.7 1.1M1006.6 1060.3l2-.6 1.7-.6M1006.8 1060.3c-2.6.6-5.2 1-7.9 1.1M984.8 1078.7c-1.6-.4-1.8-2.8-1.8-4.1-.1-4 1.1-8.4 3.2-11.8.7-1.2 2-3.1 3.6-2.6M984.5 1078.6c-.3-.1-1.1-.2-1.5-.5-1.1-.8-1.2-2.7-1.2-3.9 0-3.7 1-7.7 2.7-11 .5-1 1.2-2 2-2.8.4-.3.9-.7 1.4-.7s1.2.2 1.6.4M985.2 1062.4l1 .3h.2M958.7 1055.9l-3.1-.8-2.2-.6-3.1-.8h-.3c-.8.2-1.3 1-1.7 1.7M947.8 1055.1h.5l3.1.9 5.9 1.6M947.5 1055.1c.4-.6.8-1.3 1.5-1.4l1-.1M991.6 1061.1l-.4.2-.3-.1c-1.3.2-2.1 1.4-2.8 2.5-1.9 3-2.9 6.8-3 10.3 0 1.3-.1 3.8 1.5 4.3M986.4 1078c.4.8.8 1.3 1.5 1.6M993.1 1060.8h-.4c-1.9 0-3.2 2.2-3.9 3.7-1.4 2.6-2.3 5.7-2.6 8.7-.2 1.7-.2 3.4.4 5.1M986.6 1078.3c-.6.2-.3.2-.9.3-1.6-.3-1.8-2.3-1.8-3.6 0-1.9.2-3.7.7-5.5.5-2.2 1.3-4.5 2.5-6.4l.5-.8c.6-.9 2-2.6 3.2-1.5l.4.5M989.8 1060.1c.6.2 1.1.6 1.3 1.2M986 1063.6c-1.8 3.6-3 7.8-2.7 11.9.1 1.2.6 3.6 2.4 3.2.4-.1.6-.1.9-.4M989.7 1063.5c-.4 0-.7.2-1 .2-.5 0-.9-.1-1.2-.4l-1-.7M1002.2 1156.9l-1.6-1.9M971.3 1137.7l-4.8-1.3M990.3 1127.2c-.4-.3-.5-.3-1-.4-1.7.2-2.7 2-3.4 3.3-1.7 3-2.6 6.5-2.9 9.9v1c0 1.5 0 4.1 1.8 4.5M986.4 1142.1c3.6 1.3 7.1 2.8 10.4 4.9.9.7 1.8 1.3 2.7 2.1l1.2 1.1.2.1c.6.4 1.4.4 2 .2 1-.3.7-1.1.8-2.1.1-1.4.3-2.8.5-4.2.8-4.2 2.1-8.4 4.4-12.1.9-1.4 2.1-3.2 3.8-3.7 1.7-.6 2.7 1 3.1 2.3.8 2.7.6 5.8.1 8.4"/>
    <path class="st1"
        d="M1016.2 1145.7c.5-1 .8-2.1.9-3.3 0-.6.1-1.3-.1-1.9l-.6-1.1-.2-.2-.3-.1-3.1-.8-1.8-.5-3.1-.8c-.9 0-1.4.9-1.8 1.6-.8 1.6-1.4 3.5-1.4 5.3 0 .6 0 1.3.3 1.8l.5.4 3.1.8 1.8.5 3.1.9.5-.1c1.1-.8 1.7-1.4 2.2-2.5zM1003.4 1158c.4.1.8.3 1.1.3 3.1.3 5.3-2.8 6.8-5.1l1.2-2.2c.4-.9.9-1.9 1.2-2.8M1015 1147.4c-.3.1-.1.1-.5.1-.7-.2-.7-1.2-.7-1.8 0-1.6.5-3.2 1.2-4.6.3-.4.9-1.4 1.5-1l.3.4M1013.2 1148c-1 2.2-2 4.5-3.5 6.3-.8 1-1.7 1.9-3 2.1-2.5-.2-2.9-3.5-2.9-5.5v-1.2M1002.7 1157.5c-2.1-2.2-2.1-5.7-2-8.7.2-4.2 1.2-8.3 2.6-12.3 1-2.7 2.1-5.3 3.8-7.6.6-.8 1.3-1.6 2-2.2.4-.4.8-.6 1.3-.8.4-.1.9-.3 1.4-.3 3.7.1 4.6 4.6 4.6 7.5.1 2.1-.1 4.1-.4 6.2M1015.9 1139.1c-.8 0-1.4.9-1.7 1.6-.9 1.6-1.4 3.5-1.4 5.3 0 .7 0 1.8.8 2.1M1007.2 1146.5c-.6.8-1.2 1.8-2.3 1.8-.7-.3-.9-.9-1-1.6M1001.1 1155.5c-1.4-1.6-2.9-2.9-4.5-4.3M996.7 1151.4c-2.2-1.6-4.5-3-7-4.2-.8-.4-2-.5-2.5-1.3-.9-1.3-.8-3.3-.7-4.8.3-3.4 1.2-7 2.9-10 .6-1.1 1.4-2.4 2.5-3 1-.6 2.1-.1 3.2.1l1.8.2M996.8 1128.1c2.8 0 5.4-.1 8.2-.6M1009.6 1137.5c0-1-.1-2.4-1.2-2.8-.6 0-1.1.3-1.6.8M1016.6 1134.3c-.1.3-.3.5-.6.7l-2.8 1.3-2.9 1.3M1004.7 1143.8l3.1.8 1.8.5c3.5.9 2.1 1 4.2.6M1010.5 1125.8c-1.9.8-3.8 1.3-5.8 1.8M989.9 1127l-.4-.1c-1.1.1-1.8.9-2.5 1.7-1.3 1.7-2 3.7-2.7 5.7M989.8 1127c-.4-.2-1.1-.3-1.5-.4-1.7.2-2.7 1.9-3.4 3.3-1.8 3.3-2.8 7.2-2.9 11 0 1.3 0 3.2 1 4.1.4.4 1 .4 1.5.5M981.9 1140.8l1.1.2.2.1M986.4 1142.1c-.3-.1-.4-.4-.6-.6-.4-.3-1-.4-1.4-.4l-.9.1h-.3M986.6 1145.2c-1.5-.5-1.5-2.8-1.5-4 0-3.6 1-7.3 2.8-10.4.7-1.1 1.7-2.8 3.2-2.6M991.1 1128.1c-.3-.5-.7-.7-1.3-.8-1.4.3-2.3 1.6-3 2.9-1.9 3.2-3 7.2-3 11v1l.1.8c.1 1 .5 2.6 1.8 2.5.4 0 .4-.1.7-.3M992.8 1127.6c-1.9.1-3.1 1.9-3.9 3.4-1.8 3.2-2.8 7.1-2.8 10.7 0 1.6.1 3.9 1.8 4.7M984.3 1134.3c-.8 2.8-1.4 5.7-1 8.6.1.8.3 1.7 1 2.3.6.6 1.6.3 2.2 0M989.9 1127c.5.3.9.6 1.2 1.1M971.3 1094.2l-4.8-1.3M971.3 1088.1l-1.9-.5M971.3 1099.7l-4.8-1.3"/>
    <path class="st1"
        d="M982.2 1104.3c-.3-2.3.1-4.7.6-6.9.4-1.5.9-3 1.6-4.3.6-1.3 1.4-2.7 2.5-3.6.5-.3 1-.8 1.6-.8h.4l2.2.6c.6.2.9.8 1.1 1.3.7 1.6.7 3.4.5 5.1-.3 3-1.2 6.1-2.7 8.8-.8 1.5-1.9 3.1-3.7 3.4h-.4l-2.2-.6c-1-.4-1.4-2.1-1.5-3zM987.8 1107.3c-.4.2-.7.3-1.1.3-1.5-.5-1.6-2.5-1.6-3.8-.1-3.7 1-7.7 2.8-10.9l.5-.8.5-.7c.6-.7 1.8-2 2.8-1.4.4.1.4.4.7.7M987.6 1089c-1.4 1-2.3 2.5-3 4.1-1.1 2.5-1.9 5.2-2.2 7.9-.2 1.8-.2 3.6.4 5.3M986 1107.8c-1.4-.8-1.5-2.8-1.5-4.2 0-3.8 1-7.7 2.8-11 .7-1.3 2-3.7 3.9-3.4M982.8 1097.4c1 .4 2 .6 2.9.8M140.7 845.2l-5.4-1.4M140.6 847.3l-4.8-1.3M145.5 836.9l-6.8-1.8M159.8 840.8l-3.6-1M161.9 841.7c.7.5-.3 1.3-.7 1.6M168.6 845.4c.4-.6.9-1.5 1.7-1.7l.6.1.8.6.2.3c.4.5.4 1.1.4 1.7M170.6 843.7l-6-1.7-3.1-.8-.5-.3c-.3-.1-.7-.2-1-.2-1 .1-2 .7-2 1.7M161.4 841.2c.4.3.8.7.6 1.2M169.7 845.7c.4-.7 1.1-1.6 2-1.3M161.9 842.7c-.7-1-1.5-1.5-2.7-1.6-.5.1-.8.2-1.1.5M123.3 843.2c-4.4-.8-8.8-1.2-13.3-1.3-2.4.1-4.7.3-7 .5-.3 0-.4 0-.6-.1-1.1-.3-1-1.2-.9-2.2 0-1.9.3-3.7.6-5.5.3-1.4.6-2.9 1-4.3l.9-2.9 1.1-2.6 1.2-2.3.6-1 .1-.1c1.5-2.3 3.8-5.2 6.9-4.5 1.4.3 2.3 1.9 3.2 2.9l1.3 1.4M124.3 825.8c1.9 1 3.6 1.9 5.6 2.7M118.1 820.8c2 1.9 4.2 3.6 6.5 5.1M109.3 848.5l-2.1.8-.6.1c-2.6-.2-3.1-3.6-3.3-5.7l-.1-1.2c0-3.5.5-7.1 1.4-10.5s2.2-6.8 4-9.9l.7-1 .7-1c1-1.3 2.7-3.2 4.5-2.8.5.1.6.2 1 .6M123.3 847.1c-1.5-.2-3-.2-4.5-.2l-2.1.1M116.9 846.9c-2.8.3-5.3.8-8 1.6M101.4 841.4v1.4c.3 2.6 1.1 6.5 4.4 6.7.5 0 .9-.1 1.4-.2M104.2 826.9c-.9.2-1.7 1.1-2.2 1.9l-.5 1c-.5 1.3-1.1 3.4-.4 4.7.2.4.4.9.7 1.3M103.8 827.1c-.7.6-1.1 1.3-1.5 2.2-.8 1.8-1.4 4.2-.8 6.1M102.1 834.2c-1.1-.3-.7 0-1.2-.9M124 843.3c-.1-1.4.1-2.9.4-4.3.5-2.5 1.3-5.1 2.6-7.4l.5-.8c.6-.9 1.8-2.4 3.1-1.8M127.3 830.1c.7-1 2.2-2.4 3.4-1.2M123.6 845.4c-.4-1.8-.3-3.6 0-5.4.5-3.4 1.6-6.7 3.5-9.6M124 843.2l-.4.1-.3-.1M140.6 914.1l-4.8-1.3M117.1 886.6c-1-1.2-1.5-2.3-3-2.5-2.9.3-4.7 3.5-6 5.8-1.7 3.2-2.9 6.6-3.8 10.1-.7 2.9-1.1 6-1.1 9 0 1.8.1 3.7.9 5.3.3.8.9 1.6 1.8 1.9 1.1.3 2.6-.6 3.5-.9l1.6-.5M118.7 913.7c1.5 0 3 0 4.5.3M115.7 884.8c-.7-.7-1.4-1.1-2.4-1.3-3.2.1-5.3 3-6.8 5.5l-1.2 2.3-1.1 2.6-1 2.8c-.4 1.4-.8 2.9-1.1 4.4-.4 1.8-.6 3.7-.7 5.5 0 .4-.2 1.4.2 1.8.9.9 3.1.3 3.9.3l2.3-.1c5.2-.2 10.3.3 15.4 1.3M118.9 913.7c-2.8.1-5.4.5-8.1 1.2M107.7 915.9c-.7.3-1.2.4-2 .4-.4 0-.8-.1-1.1-.3-2.9-1.4-3.1-5.2-3.1-8M102.1 900.9c-.7-.2-1-.1-1.2-.9-.1-.4.1-1.3.2-1.8.2-1.2.7-3 1.8-3.8.1-.1.9-.7 1.3-.8M101.9 902.6c-.7-.7-.9-1.6-1-2.5M103.9 893.8c-.7.6-1.1 1.3-1.5 2.1-.8 1.9-1.4 4.2-.9 6.2M116.8 886.2c1.9 2.1 3.9 3.9 6.2 5.5M140.6 873.9l-5.3-1.4M140.6 876.1l-4.8-1.3M140.6 864.5l-1.9-.6M1093.9 394.2l-1.9-.5M1094.5 392.8l2.3.6M1086 372.7l-2.7-.9M1083.3 371.8c-2.3-.8-4.5-1.7-6.7-2.8l-2.2-1.2-.4-.1c-1.9 0-3.2 2.2-3.9 3.7-1.8 3.3-2.9 7.3-3 11-.1 1.5-.1 3.4.8 4.7.8 1.2 2.3.8 3.6.9 3.4.2 6.7.8 10 1.6M1065.9 386.7l1.9.5 5.2.3c3.4.4 6.7 1.1 9.9 2.2 1.6.5 3.5 1.1 4.9 1.9"/>
    <path class="st1"
        d="M1103.6 385.4c.4-1.2 1-2.5 1.9-3.5.3-.4.8-.8 1.2-.8h.3l3.1.8 1.9.6 3.1.8.4.4c1.6 2.5.7 6-.5 8.5-.5 1.2-1.6 2.5-3 2.7h-.2l-3.1-.9-1.9-.5-3.1-.9-.2-.2c-.6-.5-.6-1.4-.7-2.1-.1-1.5.3-3.2.8-4.9zM1097 394c-.6.6-1.2 1-2 1-1.8-.5-1.9-3-1.9-4.5 0-2.3.4-4.5 1-6.7.6-2.1 1.4-4.3 2.6-6.2l.5-.8c.7-1 2.3-2.9 3.7-1.7l.3.4c.3.5.3.7.5 1.2M1104.9 393.1c-.3.3-.7.5-1.2.6-1.3-.3-1.3-2.2-1.3-3.3 0-2.9.9-6 2.5-8.5.5-.8 2-2.6 2.9-1.2.2.3.2.4.3.7M1113.6 394.2c-.4.2-.2.1-.6.2-.9-.1-1-1.3-1-2.1-.1-2.2.6-4.5 1.6-6.4l.3-.5c.4-.5 1.2-1.6 1.9-1l.3.5M1115.1 383.4l-.2-.1c-.9.1-1.5 1-1.9 1.7-1.3 2.1-1.9 4.7-2 7.1 0 1 0 2.3.9 2.9M1112.3 394l-1 .5-8.1-2.1M1101.5 376.8l-1.9-.5c-1.7.1-2.8 2.1-3.5 3.5l-.4.9c-1.2 2.7-2 5.8-2 8.8 0 1.2 0 2.8.9 3.6.5.4 1.8.6 2.2.8M1100.1 374.8l-1.9-.5h-.4c-2.2.6-3.4 3.2-4.3 5.1-1.4 3.3-2.4 7.1-2.3 10.8 0 1.2.1 2.9 1 3.9.6.6 2.2.8 2.7.9M1104.3 393.5c-.9.5-1.7 1.2-2.7 1.2-.4-.1-1.5-.2-1.9-.6-.8-.9-.9-2.4-.9-3.5 0-2.9.7-5.8 1.9-8.4.5-1.2 1.2-2.4 2.1-3.3.4-.3.8-.7 1.3-.8.5-.1 1.1.2 1.6.3.3.1.4.1.7.3l.3.3 1.1 1.8M1105.7 378.4c-1.4.1-2.2 1.4-2.9 2.5-1.6 2.7-2.5 6-2.7 9.1v.9c0 1.2.1 3.3 1.6 3.8M1101.6 376.7v-2.4c-.2-2.1-.7-5.4-3.3-5.8-2.7.2-4.5 3.1-5.7 5.2-1.8 3.2-3 6.6-3.9 10.2-.7 2.9-1.1 5.9-1.1 8.8l.1 1.2c.1 1.4.3 3.2 1.2 4.4.4.5.8 1.1 1.4 1.2.6.1.6.1 1.2 0 .4 0 .9-.3 1.3-.5.5-.3.9-.7 1.3-1.1M1100.9 394.5c-.3.1-.1.1-.6.1-1.5-.4-1.6-2.6-1.6-3.9 0-3.5 1-7.3 2.8-10.3l.4-.7c.6-.9 2.2-2.8 3.3-1.5M1096.9 394c-1.2 2.1-2.9 5.2-5.6 5.5-2.5-.4-2.9-3.6-3-5.6v-2.5c.1-3.5.8-6.9 1.9-10.2.9-2.7 2-5.4 3.4-7.9.6-.9 1.2-1.8 2-2.6.4-.4.8-.8 1.3-1.1.4-.2.8-.5 1.2-.5 2.1-.5 2.9 1.9 3.3 3.4l.2 1 .1 1.1v2.1M1100.9 394.5c-.7.3-1.4.6-2.2.7-1.6-.5-1.7-2.7-1.7-4.1v-.9c.2-3.8 1.3-7.8 3.3-11l.5-.7c.6-.8 1.9-2.4 3-1.8l.3.3 1 1.2M1087.7 391.7c-.8-1-.9-2.5-.9-3.8 0-3.5 1-7.2 2.6-10.4.7-1.4 1.6-3 3.1-3.6M1083.5 390.3l-2.5-.8-.3-.2c-1.1-1-1-3.2-.9-4.5.2-3 1-6.1 2.4-8.8.5-1.1 1.2-2.3 2.2-3 1.2-.9 2.2-.2 3.7.1 2 .4 2.5.5 4.4.8M1103.5 376.5l-.6-.1c-1.8 0-2.9 2-3.6 3.4-1.8 3.3-2.9 7.3-2.8 11.1 0 1.2.1 2.9 1 3.8.4.3.8.4 1.3.5M1102.9 393.2l-2.1.9-1.3-.4M1097.2 394.3c1.2.3.4.2 2.3-.3M1087.7 391.9l-1.9-.8-2.4-.8M1089.5 398.3l-.4.2-.1-.2M1091.2 378.3l1.9 2.1M1074 367.7l-2-.5c-1.9 0-3.1 2.2-3.9 3.7l-.5.9c-1.6 3.4-2.6 7.4-2.6 11.1 0 1.3.1 3.1 1.1 4.1.5.5 2.2.8 2.7.9M1008.2 354.3c-.4 0-1.6 0-2.1.3-.5.4-1 1-1.3 1.5-.8 1.3-1.3 2.8-1.6 4.3M1079.7 418.1l.1 1.8M1079.9 430.3l-1 .3-16-4.2M1063.6 429.3l3.1.8 10.3 2.8 3.1.9c.3 0 .5 0 .8-.1 1.3-.5 2.2-1.6 2.9-2.9 1.3-2.4 2.1-5.3 2.2-8 .1-1.3-.1-2.4-.7-3.5-.2-.3-.2-.6-.5-.8l-.4-.2-3.1-.9-10.4-2.8-3-.9M1082.2 432.9c-.6.3-.3.2-.8.3-1.3-.2-1.4-1.8-1.5-2.8-.1-3 .8-6.2 2.2-8.8l.4-.7c.5-.7 1.6-2.3 2.7-1.5.3.2.3.4.5.7M1080.1 433.7c-1.3-.7-1.3-2.7-1.2-4 .1-3 1-6.3 2.4-9 .6-1.1 1.6-2.7 3-2.6M1079.7 418.1l.5.2c.5.3.5.8.1 1.2-.4.4-.8.5-1.3.6-.4 0-.2 0-.6-.1M1079.7 418.1h-.9c-.4 0-.8 0-1 .3-.7.6 0 1.4.6 1.6M826 720.5l.1 1.8M830.2 733c.7-1.2 1.1-2.5 1.6-3.8.4-1.5.7-3 .7-4.6 0-.9-.1-1.8-.4-2.6-.2-.5-.5-1.3-1-1.6l-.4-.1-3.1-.9-14.8-4-3.1-.9M832 722.1c-.2-.4-.4-.6-.9-.8-1.3 0-2.2 1.5-2.8 2.6-1.2 2.4-2.1 5.4-2 8.1M825.3 731.8c.1-3.2 1.1-6.6 2.8-9.3.6-1 1.4-2.1 2.6-2.1"/>
    <path class="st1"
        d="M824.7 722.4c.6.1 1.2 0 1.8-.3l.3-.4c.5-.6-.2-1-.7-1.2l-.6-.1c-.5 0-1 .1-1.3.4-.9.6-.2 1.4.5 1.6zM716.4 874.6l-2.5-.6M710.1 872.8v-.6M707.9 870.9l1.6-.4M709.5 872.6l-1.6 1.7M692.7 875.4l8.7 2.3M709.1 876.9l-1.5 3.4M709.5 878.5l-1.6 1.6M709.5 876.3l-1.6.4M711.4 880.6l1.1-1.3M711 880.5v-1.8M710.4 875.7l.1.2M710.4 875.7l-.1.3M711.2 875.6l-.1.3M711.8 876.1l.2.3M710.1 872.2l1 .9M711.3 873.2l1.2-1.4M712.5 869.1l-1.4 4M718.3 843.7l8.7 2.4M709.1 871l-1.9.5M712.2 872.1l.3.1M712.2 879.6l.3.1M707.8 880.7l1.7-1.8M709.2 878.8l.3.1M711 878.3h.3M712.5 876.9h-.3M710.8 878.6l.2.1M710.1 879.9l.9-1.2M707.6 870.8l.3.1M707.9 880.1h-.3M711 876.1l.1-.2M709.5 868.3h-.2M709.4 870.5h.1M709.5 878.9v-.4M710.9 877.1h-.1M709.5 867.9h-.1M710 877.7l.5.1M711.1 876h.2M712.5 869.6h-.2M710.8 877.1l-.1.1M710.5 875.9l-.2-.1M710 877.5l.3.1M710 877.1h.3M712.1 874.1l-.4-.1M711.6 874.7l-.1-.1M709.4 876.3h.1M711.8 874v-.1M712.5 874.4l-.3-.1M709.5 872.6v.4M707.2 875.4l2.3-2.4M709.2 872.9l.3.1M707.6 874.3h.3M707.6 876.7h.3M709.1 876.9l-1.9.4M710.8 876.8l.2-.5M709.3 874.1h.2M711 873.6l-.9-.8"/>
    <path class="st1"
        d="M715.6 865.9l.3-.6c.5-.8 1.7-2.2 2.5-.9l.3.9c.1.4.1.8.1 1.2 0 2.4-.7 4.9-1.8 7-.5.9-1.1 1.8-2.1 2-1.1-.2-1.1-1.8-1.1-2.7 0-2.3.7-4.8 1.8-6.9zM709.1 871l-1.9 4.3M701.8 898.2c-.9 1.1-1.7 2.1-3.1 2.4-2-.1-2.4-2.5-2.5-4.1-.5-4.6.8-9.6 2.6-13.9.6-1.5 1.3-2.9 2.2-4.2l.6-.8 2-2.5 21.5-26.7c2.4-3 5-6.6 8.9-7.9.4-.1.4.6.4.7 0 .7-.2 1.4-.6 1.9-.8 1.3-1.9 2.3-2.8 3.5-1 1.6-1.6 3.4-1.9 5.2l-.1.8-.1.8v1.4c0 .6.2 2 1.1 2 .3 0 .4-.1.7-.2M715.8 880.9l2-2.5 7.1-8.8c2.4-3 4.6-6 6.5-9.3M712.5 876.5l-2.4 3v.4M707.2 877.3l2.3-3.6M707.2 871.5l2.3-3.6M700.4 885c-.9 1.7-1.3 3.7-1.5 5.6M710.1 875.1c0-.9-.1-.3.9-1.5M710 877.1l.1-.5M710.7 877.2l-.3.3-.1-.6M710.8 876.8v.3M712.3 874.4c.1.6-.1 1.3-.4 1.8M712.5 874.4c0-.3 0-.7-.3-.7l-.6.6M734 840.7l-8.7-2.4h-.1l-.9.3c-.7.3-1.3.7-2 1.1-2.4 1.8-4.2 4.2-6 6.5l-21.5 26.7-2 2.5-.6.8c-.9 1.3-1.6 2.8-2.2 4.2-1.6 4-2.7 8.5-2.6 12.7 0 1.5.2 3.5 1.3 4.7.8.9 3.5 1.2 4 1.3l2.5.7 3.1.8M712.5 874.4c-.1.7-.3 1.3-.6 2M710.1 875.1l2.4-2.9v-.4M709.5 867.9v.4l-1.6 2.6M711.3 880.6v-2.3l1.2-1.4v-.4M711.7 880.7c.9-1 .8-.6.8-1.4M707.5 871c1.2-.3.6-.3 1.7 0M707.5 876.9c1.2-.3.6-.3 1.7 0M709.5 870.5c0 .3-1.6 3.5-1.7 3.8M710.4 878c.7-.7.8-2 1-2.9.1-.2.2-.6.4-.8s.3-.1.4.1M712.5 869.1c0 1.3-.8 2.8-1.1 4.1M710 877.1c0 .2 0 1.1.4.9M710.3 876l-.2.6M710.5 875.9c-.1.3-.2.7-.3 1.1M711.6 874.2c-.2.4-.3.9-.4 1.3M707.9 880.1c.1-.3 1.7-3.6 1.7-3.9M709.5 873.7v.4l-1.6 2.6M711.3 873.2c-.5-.1-.8-.2-1.2-.5M669.5 932.6l-2.4-.7M663.3 930.7v-.5M661.1 928.9l1.7-.5M662.8 930.6l-1.7 1.7M645.9 933.3l8.7 2.4M661.1 938.1l1.7-1.7M662.8 934.2l-1.7.5M662.3 934.8l-1.5 3.5M664.6 938.5l1-1.3M664.2 938.5v-1.9M663.6 933.6l.1.2M663.6 933.6l-.1.3M663.9 935v.2M665.6 927l-1.3 4.1M665.6 929.7l-1.1 1.4M663.3 930.2l1 .9M665.2 934.3l-.2-.2M664 934.9v-.2M671.4 901.7l8.8 2.3M662.3 928.9l-1.9.6M665.4 930.1h.2M665.4 937.6l.2.1M661 938.6l1.8-1.8M662.4 936.8h.4M664.2 936.3h.3M665.6 934.9l-.2-.1M664 936.5l.2.1M663.3 937.8l.9-1.2M660.8 928.8l.3.1M661.1 938.1l-.3-.1M662.8 926.3l-.3-.1M662.6 928.5h.2M662.8 936.8v-.4M664.1 935.1l-.2-.1M662.8 925.9l-.3-.1M663.2 935.7l.5.1M665.6 927.6l-.1-.1M663.9 935l.1-.1M663.7 933.8h-.2M663.8 935.3l.1-.1M662.6 934.3h.2M663.5 935.3l.2.1M663.2 935.4l.3.1M663.2 935l.3.1M665.3 932.1l-.4-.1M664.8 932.6h-.2M665 932v-.2M665.7 932.3l-.3-.1M662.8 930.6v.4M660.4 933.3l2.4-2.3M662.4 930.9l.4.1M660.8 932.2l.3.1M660.8 934.6l.3.1M662.3 934.8l-1.9.5M664 934.7l.2-.4M662.5 932.1h.3M664.2 931.5l-.9-.8"/>
    <path class="st1"
        d="M668.8 923.8l.4-.6c.5-.7 1.8-2.2 2.5-.9.1.2.2.6.3.9 0 .4.1.8.1 1.3 0 2.3-.7 4.9-1.8 7-.5.9-1.1 1.8-2.1 2-1.1-.2-1.1-1.7-1.1-2.7-.1-2.4.6-4.8 1.7-7zM662.3 928.9l-2 4.4M652.4 939.4c.5-1 1-2 1.7-3l.6-.8 2-2.5 21.5-26.7c2.5-3 5-6.7 8.9-7.9.4-.1.4.6.4.8 0 .6-.2 1.3-.6 1.9-.8 1.3-1.9 2.3-2.8 3.5-1 1.6-1.6 3.5-2 5.3l-.1.8-.1.8v1.4c.1.6.3 2 1.2 2 .3 0 .4-.1.7-.2M669 938.8l2-2.5 7.1-8.8c2.4-3 4.7-5.9 6.5-9.3M665.6 934.5l-2.3 2.9v.4M660.4 935.3l2.4-3.6M660.4 929.5l2.4-3.6M663.3 933.1c0-.9-.1-.3.9-1.6M663.2 935.1l.1-.6M663.8 935.3l-.2.2-.2-.6M665.5 932.3c.1.6-.2 1.2-.4 1.8M665.7 932.3c0-.3 0-.6-.3-.7-.3.1-.4.3-.6.6M643.6 937c.5-1 1-2 1.7-2.9l.6-.8 2-2.5 21.5-26.7c1.8-2.3 3.6-4.7 6-6.5.6-.4 1.3-.8 1.9-1.1l.9-.3h.1l8.7 2.3M665.7 932.3c0 .8-.2 1.4-.5 2M663.3 933.1l2.3-3v-.4M662.8 925.9v.4l-1.7 2.6M664.5 938.5v-2.2l1.1-1.4v-.4M664.9 938.6c.8-1.1.8-.6.8-1.4M660.6 929c1.2-.3.7-.3 1.7-.1M660.6 934.8c1.2-.3.7-.3 1.7-.1M664.2 934.1c.2-.6.3-1.3.6-1.9M662.8 928.4c0 .3-1.6 3.6-1.7 3.9M663.6 935.9c.7-.8.8-2 1-2.9.1-.3.2-.6.4-.9l.4.1M665.6 927c0 1.3-.8 2.8-1.2 4.1M663.2 935.1c0 .1 0 1.1.4.9M663.5 933.9l-.2.6M663.7 933.8l-.3 1M661.1 938.1c.1-.3 1.7-3.6 1.7-3.9M662.8 931.7v.4l-1.7 2.6M664.5 931.1c-.5-.1-.8-.2-1.2-.6M817.5 640.9l-1.1-.3M839.3 605.9l5.2 1.5M855.8 593.4l-3.5-1M860.8 587.3l-4.5-1.3M876.3 568l-10.9-2.9M876.7 567.5l-11-2.9M877 567.2l-3.1-.8-4.6-1.2-3.1-.9h-.1c-.3.1-.4.3-.5.6l-.1.2-1.3 3-6.6 15.1c-1 2.2-1.9 4.5-3.2 6.6-1.1 2-2.7 3.4-4.2 5l-8.6 8.9c-2.1 2.2-4.2 4.3-6.1 6.6-6 7.1-11 15.1-15.4 23.2l-6 11.6M950.8 474.2l1.1.2M990.6 420.9l3.7 1M931.3 500l-1.2-.3c-2.1.1-3.7 1.8-4.9 3.4-2.4 3.2-4 7-5.2 10.9M997.7 417.7l-1.2-.3-.7-.1c-3.3.2-5.4 3.8-7.1 6.2l-36 48.1c-2.4 3.1-4.7 6.3-6.5 9.9M1053.9 348.2l-3.1-.8-4-1.1-3.1-.9h-.7c-3.8.6-6.4 4.6-8.2 7.7-1.9 3.1-3.3 6.6-4.5 10-2.1 6.1-3.4 12.5-3.8 19M659.7 904.1v6l-2 2.5-16.7 20.7-2.1 2.5M764.2 774.7v6.1l-2 2.4-21.9 27.1-2 2.5M711.9 839.4v6l-2 2.5-21.8 27-2 2.6M406.2 854.6v4M321.8 831.9v4M345 838.2v3.9M429.4 860.9v3.9M490.6 877.3v4M513.8 883.6v3.9M536.5 908.2l10.4-12.9"/>
    <path class="st1"
        d="M395.3 858.8c.3 1.9 1.9 2.9 3.6 3.5 3.1 1.1 7.3 1 10-1 .4-.3.7-.6 1-.9.2-.3.4-.6.5-1 .9-2.6-2.2-4.3-4.2-4.8-1.2-.3-2.4-.4-3.6-.4l-1.8.2c-2.4.5-5.4 1.7-5.5 4.4zM396.1 860.6c2.5-2.6 6.8-2.9 10-2 1.3.3 2.7 1 3.6 2M325.4 837.9c-1.7-2-4.7-2.5-7.2-2.5-2.3.1-4.8.7-6.4 2.4"/>
    <path class="st1"
        d="M312.1 833.6c3-2.5 7.8-2.7 11.3-1.1.6.3 1.3.7 1.8 1.2.3.3.6.6.7 1 1.3 2.4-1.4 4.3-3.4 5-1.2.4-2.3.6-3.5.6-.8 0-1.1 0-1.9-.1-.6-.1-1.2-.2-1.7-.3-1.9-.5-4.7-1.9-4.4-4.3 0-.4.1-.7.3-1 .2-.5.4-.6.8-1zM348.7 844.1c-1.7-2-4.7-2.4-7.2-2.4-2.3.1-4.8.7-6.5 2.4"/>
    <path class="st1"
        d="M335.4 839.9c3-2.5 7.8-2.7 11.3-1.1.6.3 1.3.7 1.8 1.2.3.3.6.6.7 1 1.3 2.5-1.4 4.4-3.4 5.1-1.1.4-2.3.5-3.5.6-.8 0-1 0-1.9-.1-.6-.1-1.2-.2-1.7-.3-1.9-.5-4.7-1.9-4.4-4.3 0-.4.2-.8.4-1 .1-.6.3-.8.7-1.1zM433 866.9c-1.7-2-4.7-2.4-7.2-2.4-2.3.1-4.8.6-6.4 2.4"/>
    <path class="st1"
        d="M419.7 862.6c3-2.5 7.8-2.8 11.3-1.1.7.3 1.3.7 1.8 1.2.3.3.6.6.8 1 1.2 2.4-1.4 4.3-3.4 5-1.2.4-2.3.5-3.5.6-.8 0-1 0-1.9-.1-.6 0-1.2-.1-1.7-.3-1.9-.6-4.7-1.9-4.4-4.3 0-.4.1-.7.3-1 .2-.5.4-.7.7-1zM494.1 883.3c-1.8-2-4.7-2.4-7.2-2.4-2.3.1-4.8.7-6.5 2.4"/>
    <path class="st1"
        d="M480.8 879c3-2.5 7.8-2.8 11.3-1.1.6.3 1.3.7 1.8 1.2.3.3.5.6.8 1 1.2 2.4-1.4 4.3-3.4 5-1.2.4-2.3.5-3.5.6-.9 0-1.1 0-1.9-.1l-1.8-.3c-1.9-.5-4.6-1.9-4.4-4.3 0-.4.1-.7.4-1 .2-.5.4-.6.7-1zM517.4 889.6c-1.8-2-4.7-2.4-7.2-2.5-2.3.2-4.8.7-6.4 2.5"/>
    <path class="st1"
        d="M503 887.8c.3 1.9 1.9 2.9 3.6 3.5 3.1 1.1 7.2 1 10-1 .4-.3.7-.6 1-.9.3-.3.5-.6.6-1 .9-2.6-2.2-4.3-4.3-4.8-1.1-.3-2.4-.4-3.6-.4-.8 0-1 0-1.8.2-2.5.4-5.5 1.7-5.5 4.4zM539.1 908.9l2-2.5 3.8-4.6c2.4-3 2-1.5 2-4.5v-2l-1.8-2.7-4.3-6.9-1.7-2.7-3.1-.8-226.6-61-3.1-.8-3.2.7-15 3.1-3.1.6-2 2.5-6.4 7.9-2 2.5M1004.3 993.9v-5.2M917.9 1100.9M910.6 1099l7.2 1.9M910.6 1099v-4.9M917.8 1096.1v4.8M860.4 1085.4M853.1 1083.5l7.3 2M853.1 1083.5v-4.8M860.4 1080.6v4.9M955.1 978.8v2.8M984.2 989.4v-2.7M977.6 1027l2-2.5 22.7-28.1c.5-.7 2.1-2.3 2.6-3.5.4-1 .2-2.9.2-3.7v-2.6c0-1.4-1.2-2.6-2.4-3.3-1.6-.9-3.6-1.2-5.3-1.7l-44-11.8c-2.3-.6-4.2-1.2-6.6-1.3-2.4.1-5 .5-6.7 2.2l-.5.5-2 2.5-50.2 62.1-2 2.5M974.1 1026l2-2.5 26.2-32.4c1.1-1.4 2.6-2.6 2.8-4.5M951.7 979.5c-.6.7-.2 1.4.5 1.9 1 .6 2.6.6 3.6 0s1-1.7-.1-2.2c-.3-.1-.7-.3-1-.3M984.2 986.7c.4.1.7.2 1 .4.8.5.8 1.3 0 1.9-.6.5-1.3.6-2 .6l-1.2-.1M954.7 978.7l-.8-.1c-.9.1-1.6.2-2.3.8M982 989.4c-.9-.3-2.1-1.1-1.2-2.1l.5-.4c.9-.5 2-.5 2.9-.3M1111.2 801.1l6.8-8.4M1117.4 828l-.7-3.1-4.8-20.6c-.5-2.2-.9-4.4-1.7-6.5-2.4-6-6.9-11.1-12.3-14.6-2.1-1.4-4.5-2.5-6.9-3.3-2.9-1-5.8-1.4-8.8-1.5-3.3.2-6.6.9-9.2 2.8M1072.4 780.7c2.6-3.2 5-6.9 8.8-8.8 4-2.1 8.7-2.3 13-1.5 8.8 1.8 16.8 7.8 21.2 15.6 1.7 3.1 2.5 6.4 3.3 9.8l5.1 22.1.7 3.1M1087 789.4c5.6.4 11.1 4.9 12.6 10.2M463.3 616.4l-6.8 8.5M451.8 599.8c-5-3.9-11.2-6-17.5-6.1-3.7.3-7.3 1.1-10.3 3.6-1.6 1.3-2.8 3-4.1 4.6l-2.7 3.4c-1.3 1.6-2.7 3.1-3.6 5-1.3 2.6-1.8 5.6-2.5 8.4M415.1 607.7c1-1.1 2-2.1 3.3-2.9 6.4-4.2 14.9-3 21.4.2 1 .5 2.5 1.3 3.4 2M432.3 613.1c.9 0 1.8.2 2.7.5M462.7 651.7l-.7-3.1-4.8-20.6c-.6-2.7-1.2-5.2-2.3-7.8M469.8 644.9l-.7-3.2-5.1-22.1c-.4-1.9-.9-3.8-1.5-5.7M146.6 809.3l5.8 1.5M152.4 811.4v-.6M129 918.5l-5.8-1.6M129 851.6l-5.8-1.6M129.3 830.7l5.8 1.5M172.9 779.6l-3.7 4.6M136.9 846.3l-.4.1c-1.1-.1-1.1-1.7-1.1-2.6 0-2.5.7-5.1 2-7.2l.3-.4c.4-.6 1.6-1.8 2.2-.7M140.6 917.2l-4.8 6c-1 1.2-2.1 2.3-3.8 2.5-2.5-.5-2.9-3.8-3-5.9v-64.9c0-2.8 0-5.5.4-8.3.8-4.3 2.1-8.8 4.5-12.6.9-1.5 2.1-2.8 3.2-4.2l13.2-16.4 2-2.5M146.6 809.3l-2 2.5-13.3 16.4c-1.1 1.4-2.3 2.7-3.2 4.2-2.3 3.8-3.7 8.2-4.4 12.5-.5 2.8-.5 5.5-.5 8.3v63.6c0 1.7.1 3.5.8 5.2.3.6.6 1.2 1.2 1.6l.5.2 2.9.8 2.9.8M135.3 911c0 .8.3 2.7 1.5 2.1M139.8 864.3c-.1-.3-.4-.4-.7-.4-1 .2-1.7 1.2-2.1 2.1-1.1 2-1.7 4.4-1.7 6.7v.6c0 .8.4 2.5 1.6 1.9M140.6 913.1l5.9 1.5M140.6 921.6l5.9 1.5M146.5 887.8l-5.9-1.6M169.9 818.1v-2.6M164 813.9l5.9 1.6M142 841.2l5.8 1.6M146.5 847.1l-5.9-1.5M190.3 784.3l-3.7 4.6M196.1 785.9l-4 4.9M153.7 927.2c-1.1 1.4-2.3 2.9-4.2 3.1l-.5-.1-2.9-.8-2.9-.8-.5-.3c-.6-.4-.9-1-1.2-1.6-.7-1.6-.8-3.4-.8-5.2v-5.300000000000001c0-3.4-.6-2.3.5-3.8M149 930.2c-2.4-1.2-2.5-4.7-2.5-7.1v-8.5M164 813.9l-2 2.5-18 22.3-2 2.5c-1.7 2.1-1.4 5.1-1.4 7.5v37.400000000000006M146.5 887.8v-37.400000000000006c0-1.3-.1-2.7 0-4M146.8 845.1c.5-2 1.8-3.1 3.1-4.8l18-22.3 2-2.5M157.3 840.1c-.2-.3-.4-.4-.7-.4-.9.2-1.5 1.1-2 1.9M1000.5 1039.2l-5.7-1.6M1000.5 1039.2v.5M977.2 1146.8l-5.9-1.6M971.3 1078.4l5.9 1.6M983.3 1060.6l-5.9-1.6M1021.1 1007.9l-3.8 4.6M1008.8 1110.7l1.9.5M988 1146.5l-2 2.5c-1.5 1.8-3.2 4.8-5.8 5l-.5-.1-2.9-.8-2.9-.8-.5-.2c-.6-.4-.9-1-1.2-1.6-.7-1.6-.8-3.4-.8-5.2v-63.6c0-2.8 0-5.5.5-8.3.7-4.3 2.1-8.8 4.4-12.6 1-1.5 2.1-2.8 3.2-4.2l13.3-16.4 2-2.5M1000.5 1039.2l-2 2.5-13.2 16.4c-1.1 1.3-2.3 2.7-3.2 4.2-2.3 3.8-3.7 8.2-4.4 12.6-.5 2.8-.5 5.5-.5 8.3v63.6c0 2.3.1 5.8 2.5 7.1M1000.5 1128.1l2.1-2.5 6.1-7.6 2-2.6M1008.7 1089.7v20.1c.1 1.1.4 3.4 2 3.1M977.3 1032.9l5.8 1.6M983.1 1035v-.5M959.7 1106.7l3.6-4.4v.9M953.9 1105.2l5.8 1.5M959.7 1066.1l-5.8-1.6M961.1 1061.8l-5.8-1.6M959.7 1142.1l-5.8-1.5M953.9 1132l5.8 1.6M1003.5 1003.3l-3.6 4.5M967.6 1069.9l-.4.1c-1.1-.2-1.1-1.7-1.1-2.6 0-2.5.7-5.1 2-7.2l.3-.5c.4-.5 1.6-1.7 2.2-.7M959.7 1106.7v-37.400000000000006c0-2.4-.3-5.5 1.3-7.5l2-2.5 18-22.3 2-2.5M977.3 1032.9l-2 2.5-18 22.3-2 2.5c-1.7 2-1.4 5.1-1.4 7.5v37.400000000000006M970.5 1087.9c-.1-.3-.4-.4-.7-.4-1 .2-1.6 1.3-2.1 2.1-1.1 2-1.7 4.4-1.7 6.7v.5c.1.8.4 2.5 1.6 1.9M971.3 1140.8c-1.6 2-3.2 4-4.9 6-1 1.2-2.1 2.3-3.8 2.4l-.5-.1-2.9-.8-2.9-.8-.5-.2c-.5-.4-.9-1-1.2-1.6-.7-1.6-.8-3.4-.8-5.2v-5.300000000000001c0-3.4-.7-2.4.4-3.7M962.2 1149.1c-2.4-1.2-2.4-4.7-2.5-7v-5.300000000000001c0-3.4-.7-2.4.4-3.7M967.6 1136.7l-.4.1c-1-.1-1.1-1.4-1.1-2.2M409.2 621.5l-36.2-9.8M410 620l-35.8-9.7M725.1 704.8l-257.4-69.3M464 652.1l7.4-9.2M468.1 637.3l255.8 68.9M442.9 646.4l21.1 5.7M438 649.7l272.4 73.3M1063.5 797.6l-270.9-72.9M1062.3 795.6l-268.3-72.3M1147.4 818.5l-25.1-6.7M1118.6 828.3l7.5-9.2M1122.8 813.6l23.4 6.3M1097.6 822.7l21 5.6M1092.7 825.9l39.9 10.8M685.2 754.1l-329.1-88.6M683.2 756.8l-326.7-88M1107.5 867.8l-331.7-89.3M1105.4 870.5l-329.1-88.7M702.6 732.6l-346.5-93.3M1124.9 846.3l-349.1-94M404.7 640.7l-45.3-12.1M1058.4 816.7l-279.2-75.1M471.4 642.9l-2.2-.7M1126.1 819.1l-2.2-.6M1061.5 809.1l-2.5 3.2M534 941.4l-350.9-94.4M541.7 931.8l-355.3-95.6M575.2 940.8l-2.5-.6M884.3 1035.7l-281.5-75.8M887.7 1024.9l-281.5-75.7M555.3 915l-355.3-95.7M556.5 913.6l-355.2-95.6M588.7 924l-2.5-.6M589.9 922.6l-2.4-.7M901.2 1008.2l-281.6-75.8M903.2 1006.9l-282.2-76M958.8 1055.8l-9.8-2.7M966 1025.6l11.6 3.1M965.7 1046l-13.3-3.6M1010.7 1100.2l-2 2.5M1010.7 1105.4l-2 2.5M1010.7 1096c-1-.2-.4-.1-1.8-.2h-.2M978.7 1027.3l-10.8-2.9c-.9 0-1.4.5-2 1.2l-2 2.5-9.5 11.8-2 2.5-.6.8c-1.9 2.9-2.7 6.5-2.8 10M884.3 1038v-3.4c.2-2.8 1-5.6 2.3-8 .8-1.5 2-2.8 3-4.1l9.6-11.8 2-2.5.6-.6.5-.4.5-.2c1.4-.3 1.7 1.6 1.8 2.6v5M901.9 1017.8v-3.9c0-.3 0-.6-.3-.7l-.4.2-2 2.5-9.6 11.8c-1.1 1.4-2.7 2.7-2.7 4.7v4M363 670.6l-126.7 156.8M364 670.8l-126.7 156.9M1288.9 359.7l2.3.6M1297.4 700l-283.2 350.7M1291.5 693.2l-284.2 351.8M996.7 1044.5l4.6-5.7M994.7 1037.1l-5.7 7M977 1042.6l4.4 1.1M1292.6 690.7v-329.3M866.1 242.7l423.7 114.1M1292.6 361.3l-.3.3M1292.6 361.3l.7.2M1292.6 361.3v.2M866.1 245.3l5 22M1254.5 369.7l-382.9-103.1M866.1 242.7l5.5 23.9M1257.3 686.2v-311.8M1251.2 378.2l-169.8-45.7M1004.1 1000.8l252.1-312.1M999.3 1007.7l3.5-4.4M999.2 1007.7l3.5-4.4M998.7 1007.5l-20.3 25.2M863.5 268.4l-413.7 200.5M447.3 470.9l-252.1 312.1M184 788.1l5.4-6.7M189.8 789.7l-20.4 25.2M157.2 821.8l6.8-8.3M164.9 824.3l6.7-8.4M168.5 830.1l284.6-352.4M867.6 276.5l-413.7 200.4M867.4 251.3v23.7M1035.7 320.2l-166.8-44.9M147.4 820.2l5.4 3.1M142 814.4l4.6-5.6M418.6 458.2l-284.2 351.8M133.3 812.3l-1.3 1.6M421.1 456.1l436.9-211.6M192.7 791.2l5.5-6.7M981.8 386.9l-112.9-30.4M867.6 357.8l-413.7 200.4M1292.6 693.6v-.2M1297.2 699h1.8M1299 448v329.2M1016.1 1129.5l281.3-348.2M172 776.7l-5.4 6.8M173.8 785.4l-7.2-1.9M1022 1013.7l-7.3-1.9M1020.1 1005.1l-5.4 6.7M1250.9 459.4l-169.5-45.7M1082.2 389.9v16.8M1081.4 406.5l.8.2M1250.9 461.9l-169.7-45.7M1082.2 371.4v-5.3M1069.2 329.2l-21.2-5.8M868.9 346.5l-1.3-5.3M868.9 343.9l-1.3-5.4M195.2 785.6v-2.6M153.1 810.5l-6.5-1.7M142 814.4v.5M146.6 809.3v-.5M152.8 823.3l3.1.8M152.8 823.3v-2.6M157.2 822.4v-.6M164 813.5v.5M169.4 815.4v-.5M164.9 824.3l-1.1 2.1M421.1 456.1v2.7M449.8 468.9v2.5M1297.4 701.6l.6.2M1297.4 702.6l.6-.8M1297.1 698.6h1.9M1292.6 693.4v-2.7M1257.3 686.2v2.6M994.7 1037.7v-.6M989 1044.7v-.6M981.4 1043.7l7.6.4M996.7 1044.5v2.7M1001.3 1038.8l-6.6-1.7M969.4 1040.9l.5 1.2M978.4 1032.7v.5M976.2 1032.5l.5 1.2M981.4 1043.7v2.7M1010.7 1125.8v-38.6M1014.2 1081.1v45.2M1001.2 1000.7l1.5 2.6M1009.9 1002.3l-5.4 6.8M1004.1 1000.8v2.6M1001.3 1128l-.6-.2M1001.3 1128v.1M1299 448v-4.8M1025.7 1009.2l-5.6-1.5M1027.4 1007l-7.3-1.9M1027.4 1007l-5.4 6.7M1254.5 369.7v2.6M1289.8 356.8v2.6M866.1 245.3v-2.6M173.8 785.4l5.4-6.7M172 776.7l7.2 2M177.5 780.8l-5.5-1.5M373.4 611.2l-2 2.5-9.6 11.8-2 2.5-.7.9c-1.3 2-2 4.4-2.6 6.7-.5 2.5-.5 4.9-.5 7.4v23l.1 1.2c.1.9.4 2.9 1.8 2.7.5 0 .6-.2 1-.5M130.2 810.3l2-2.5 279.5-346.1 2-2.5c1.1-1.3 3.3-1.6 4.9-1l2.9 1.3 22.8 10.1 3 1.3c1.2.6 1.1.3 2.3 1 1.6 1.1 3 2.8 3.4 4.7l.1 1.1v78.10000000000001c0 4.3.7 2.4-2 5.7l-44.2 54.6-2 2.5M453.1 559l-.1 1c-.3 1.5-2.1 3.1-2.9 4.1l-42.2 52.2-2 2.5M452.7 561.1l2.9-1.4 407.9-197.6 2.9-1.4c1-.5 1.1-1.9 1.2-2.9v-81.30000000000001l-.1-1.1c-.3-1.6-.9-3.1-1.8-4.5-.4-.7-.9-1.3-1.5-1.8l-.8-.7-.8-3.1-4-17.7-.7-3.1M858.7 247.4c2.6-.7 5-.9 7.7-.6M866.1 242.7l.6-.6c1.2-1 2.7 0 4 .4l417.5 112.4 3.1.8M1250.9 690.2v-310.5l.1-1c.5-1.9 2.1-3.2 3.8-3.8l1.2-.3 1.3-.1 3-1.1 29.3-10.8 3-1.1c.5-.1 2 .2 2.5.4 1.7.6 3.3 1.9 3.8 3.8l.1 1v329.29999999999995M966.7 1042.1l2-2.5 280.6-347.4 2-2.5c1.3-1.4 3.1-1.2 4.8-1l3.2.4 28.9 3.7 3.2.4c.6.1 1.7.6 2.2 1 1.7 1.1 3 2.8 3.5 4.7.2 1.1.1 2.9.1 3.7M859.2 249.4c2.6-1 5.1-1.2 7.7-.6M980.2 389l-3.1-.8-103.9-28c-1.3-.3-3.6-.3-4.1-1.9l-.1-.8-.1-1v-81.30000000000001l.1-1.1c.2-2.7 1.1-5.3 2.6-7.5M995.8 1007.4c2.1-.3 3.7.3 5.9.9l2.9.8M184 788.1c3 .8 6.1 1.3 8.8 3M858 244.5c-.8-.5-1.3-.7-2.3-.7l-.6.2-2.9 1.4-431.2 208.8-2.9 1.4M1016.3 1130.6l2-2.5 276-341.7c1.3-1.6 2.9-3 3-5.2v-2.6l1.2-1.7c.8-1.5.5-3.5.5-5.1v-72.8c-.1.9 0 1.1-.5 1.9l-.6.9v76M201.7 817.7c-1.3 1-2.2 2.3-3.3 3.7l-9.6 11.8-2 2.5-.7.9c-2.4 3.8-3 8.3-3 12.7M203.7 818.6c-.3-.8-.7-1.1-1.4-1.1l-.6.2M196.7 786.3c-1.3-.9-2.7-1.1-4.3-1.5l-2.9-.8M189.4 781.4v2.6l-3.6 4.6M198.2 784.5c-2.6-1.8-5.7-2.3-8.8-3.1M129.6 828.3v-15.8l.1-.9c.1-.5.2-.9.5-1.3 1.1-1.4 2.9-1 4.2-.3l2.8 1.6 2 1.2 2.8 1.6M153.1 810.5l-2 2.5-1.7 2-2 2.6v2.6M132 827.3v-10.2c0-.7-.7-4.9 1.4-4.8l.5.1.5.3 2.8 1.6.9.5 2.8 1.6M157.2 821.8l-4.4-1.1-5.4-3.1M164 813.5c2.6.7 5.3 1.1 7.6 2.4M170.1 817.8l-.2-.1M164.9 824.3c1.9 1.4 3.6 3.2 3.6 5.8v12.899999999999999M165.6 842.4v-9.8c0-1.7.4-3.6-.7-5.1-.4-.5-.6-.6-1.1-1M452.5 561.1c1.2-.4 1.5-1.9 1.5-2.9v-81.30000000000001l-.1-1.1c-.2-1.6-.9-3.1-1.8-4.5-.5-.9-1.3-2-2.3-2.4l-2.9-1.3-22.8-10.1-3-1.3c-.8-.3-.8-.6-1.6-.7h-.7l-.6.2c-.9.5-1.1 1.5-1.2 2.3M419.6 458.6c.6-.4 1-.1 1.6.1l3 1.3 22.8 10.1 2.9 1.3c.8.4 1.2 1.4 1.6 2.1M1251.3 689.8c.8-2.3 3.7-3.7 6-3.6l3.2.4 29 3.7c3.2.4 7.4.2 9.1 3.6l.4 1 .1 1.1v3M1295.9 696.2v-.2l-.1-.6c-.5-1.9-2.5-2-4.1-2.1M1014.2 1059.5v-8.8l-.1-1c-.4-1.7-1.7-3-3.2-3.8-.7-.3-1.5-.6-2.2-.7l-1.3-.1-3.2-.2-4.2-.2-3.2-.1M1010.7 1058.9v-8.4c0-1.7-1.9-2.7-3.4-2.8l-3.2-.1-4.2-.2-3.2-.1M987.4 1046.7l-6-.3-4.4-1.2M976.2 1032.5l-2 2.5-2.8 3.4-2 2.5-1 .2-.9.4c-2 1.2-1.7 3.6-1.7 5.7M976.2 1032.5c2.6 0 5.1 1 7.7 1.7M977 1045.2v-2.6l2.1-2.5 2.7-3.4 2-2.5M1008.2 1004.5c-1.6-.4-3.3-1.1-5-1.2l-.5.1M1009.9 1002.3c-2.5-.7-5.1-1.7-7.8-1.8-2 .3-.7-.1-2.9 2.6l-1.4 1.7-2 2.5M1297.4 780.8c.6-.6.8-.8 1.2-1.5.7-1.4.5-3.1.5-4.6M1016.4 1012.3l3.7-4.6v-2.6M1292.6 361.3v-2.6c0-1.1 0-2.5-1.2-2.9-.5.1-.5 0-1 .4l-.5.6-3 1.1-29.2 10.8-3 1.1-1 1.7c-.8 1.7-1.3 3.6-1.6 5.5M1291.2 362c0-.7.3-2.5-.5-3.1-.5 0-.5.3-.9.5l-3 1.1-29.2 10.8-3 1.1-.6 1c-.3.7-.5 1.5-.7 2.3M172 776.7v2.6l-3.7 4.6M376.7 611c-.2-.7-.7-1.1-1.4-1.1-.9.3-1.2.7-1.9 1.3M801.9 651.5l-3.6-.9M862.3 563.2l-4.5-1.1M873.1 549.8l-4.4-1.2M884 536.4l-4.5-1.3M894.8 522.9l-4.4-1.2M905.7 509.5l-4.5-1.2M927.4 482.6l-4.5-1.2M938.2 469.2l-4.4-1.2M949.1 455.7l-4.4-1.2M959.9 442.3l-4.4-1.2M970.8 428.8l-4.4-1.1M1003.3 388.5l-4.4-1.2M1014.2 375.1l-4.4-1.2M1020.6 360.5l4.5 1.1M1035.9 348.2l-4.4-1.2M992.5 402l-4.4-1.2M981.6 415.4l-4.4-1.2M916.5 496.1l-4.4-1.3M851.4 576.7l-4.4-1.2M840.5 590.1l-4.4-1.2M829.7 603.5l-4.4-1.1M818.8 617l-4.4-1.2M808 630.4l-4.4-1.2M797.1 643.9l-4.4-1.2M786.3 657.3l-4.4-1.2M558.3 939.5l-4.4-1.1M571.2 942.9l.6-1.2M569.2 926.1l-4.4-1.2M580 912.7l-4.4-1.2M590.9 899.2l-4.4-1.2M601.7 885.8l-4.4-1.2M612.6 872.4l-4.4-1.2M623.4 858.9l-4.4-1.2M634.3 845.4l-4.4-1.1M645.2 832l-4.5-1.2M656 818.6l-4.4-1.2M666.9 805.2l-4.5-1.3M677.7 791.7l-4.4-1.2M688.6 778.3l-4.4-1.2M699.4 764.8l-4.4-1.2M710.3 751.4l-4.4-1.2M721.2 738l-4.5-1.2M732 724.5l-4.4-1.2M742.8 711.1l-4.4-1.2M753.7 697.6l-4.4-1.1M764.5 684.2l-4.3-1.2M775.4 670.7l-4.4-1.1M541.2 945.7l-8.7-2.4M1036.5 319.2l8.7 2.4M571.2 942.9l-.5 1.4M538.1 1027.6l-8.4-2.3M529.7 986.7v38.6M790.9 656.1l.4.3c1.2.4 2.4-1.3 2.9-2.1l.6-1c1.4-2.8 2.3-6.2 2.3-9.4 0-.9-.1-2-.5-2.8-.1-.4-.4-.7-.8-.9l-.5-.1c-.8.3-1.2.7-1.8 1.3M800.9 639.2v1.1c.1.9.5 2.8 1.8 2.6l.6-.2.6-.4.6-.7.6-.9c1.9-3 2.9-6.9 2.9-10.4 0-.9-.1-2-.5-2.9-.1-.3-.4-.7-.8-.9h-.5c-.8.3-1.2.7-1.8 1.3M811.7 625.8l.1 1.1c.1.9.4 2.8 1.7 2.6l.6-.2.6-.4.6-.7.6-.9c1.9-3 2.9-6.9 2.9-10.4 0-1-.1-2-.5-2.9-.1-.3-.4-.7-.8-.8h-.5c-.8.3-1.2.7-1.8 1.3M822.6 612.4v1.1c.1.9.4 2.8 1.7 2.6l.6-.2.6-.4.6-.7.6-.9c1.9-3 2.9-6.9 2.9-10.4 0-.9-.1-2-.5-2.8-.2-.4-.4-.7-.8-.8l-.5-.1c-.8.3-1.2.7-1.8 1.3M833.4 598.9l.1 1.2c.1.9.4 2.8 1.7 2.6l.6-.2.6-.4.6-.7.6-.9c1.9-3 2.9-6.9 2.9-10.4 0-.9-.1-2-.5-2.8-.2-.4-.4-.7-.8-.9l-.5-.1c-.8.3-1.2.7-1.8 1.3M844.3 585.5l.1 1.2c.1.9.4 2.8 1.7 2.6l.6-.2.6-.4.6-.7.6-.9c1.9-3 2.9-6.9 2.9-10.4 0-.9-.1-2-.5-2.8-.2-.4-.4-.7-.8-.9h-.5c-.8.3-1.2.7-1.8 1.3M855.1 572.1l.1 1.2c.1.9.4 2.8 1.8 2.6l.5-.2.6-.4.6-.7.6-.9c1.9-3 3-6.8 3-10.4 0-1-.1-2-.5-2.8-.2-.4-.4-.7-.8-.9l-.5-.1c-.8.3-1.2.7-1.8 1.3M869.5 547.3l.6-.6.6-.5.6-.2c1.3-.2 1.7 1.7 1.8 2.6v2.4000000000000004c-.2 2.3-.8 4.7-1.7 6.9-.7 1.6-1.6 3.1-3 4.2M880.4 533.9l.6-.7.6-.4.6-.2c1.3-.2 1.7 1.7 1.7 2.6l.1 1.1-.1 1.3c-.2 2.4-.8 4.7-1.7 6.9-.7 1.6-1.5 3.1-3 4.2M891.3 520.5c.4-.5.7-.8 1.2-1.1l.6-.2c1.3-.2 1.6 1.7 1.7 2.6l.1 1.1c0 3.1-.9 6.5-2.3 9.3-.7 1.3-1.6 2.7-3 3.3M902.1 507c.4-.5.6-.8 1.2-1.1l.6-.2c1.3-.2 1.6 1.7 1.7 2.6l.1 1.1c0 3.2-.9 6.5-2.3 9.3-.7 1.3-1.5 2.7-3 3.3l-.5-.1M913 493.6c.4-.5.7-.8 1.2-1.1l.6-.2c1.3-.2 1.6 1.7 1.7 2.6l.1 1.2c0 3.2-.9 6.5-2.3 9.3-.7 1.3-1.5 2.7-3 3.2-.7 0-.9-.2-1.3-.9M920.3 491.4l.1 1.1c.1.9.4 2.8 1.7 2.6l.6-.2.6-.4.6-.7.6-.9c1.9-3 3-6.9 3-10.4 0-1-.1-2-.5-2.9-.1-.3-.4-.7-.8-.9h-.5c-.8.3-1.2.7-1.8 1.3M934.7 466.7c.4-.4.6-.8 1.2-1.1l.6-.2c1.3-.2 1.6 1.7 1.7 2.6l.1 1.2c0 3.2-.9 6.5-2.3 9.3-.7 1.4-1.5 2.7-3 3.2M945.5 453.3c.4-.5.7-.8 1.2-1.1l.5-.2c1.3-.2 1.7 1.7 1.8 2.6l.1 1.2c0 3.2-.9 6.5-2.3 9.3-.7 1.3-1.5 2.7-3 3.2l-.5-.1M956.4 439.8c.4-.5.7-.8 1.2-1.1l.6-.2c1.3-.1 1.6 1.7 1.7 2.6v1.1c0 3.2-.9 6.5-2.3 9.4-.7 1.3-1.5 2.7-3 3.2l-.5-.1M967.2 426.4c.4-.4.7-.8 1.2-1l.6-.2c1.3-.1 1.6 1.7 1.7 2.6l.1 1.1c0 3.2-.9 6.5-2.4 9.4-.7 1.3-1.5 2.7-3 3.2-.7-.1-.9-.3-1.3-.9M978.1 413c.4-.5.7-.8 1.2-1.1l.6-.2c1.3-.2 1.6 1.7 1.7 2.6v1.2c0 3.2-.9 6.5-2.3 9.3-.7 1.3-1.5 2.7-3 3.2l-.5-.1c-.7-.3-.9-1-1.1-1.6M985.4 410.8l.1 1.2c.1.9.4 2.8 1.7 2.6l.6-.2.6-.4.6-.7.6-.9c1.9-3 3-6.9 3-10.4 0-1-.1-2-.5-2.9-.2-.4-.4-.7-.8-.9h-.5c-.8.3-1.2.7-1.8 1.3M996.2 397.4l.1 1.1c.1.9.4 2.8 1.7 2.6l.6-.2.6-.4.6-.7.6-.9c1.9-3 2.9-6.9 2.9-10.4 0-1 0-2-.5-2.9-.1-.3-.4-.7-.8-.8h-.5c-.8.3-1.2.7-1.8 1.3M1010.6 372.6c.4-.5.6-.8 1.2-1.1l.5-.2c1.3-.2 1.7 1.7 1.8 2.6l.1 1.2c0 3.2-.9 6.5-2.4 9.3-.7 1.3-1.5 2.7-3 3.2-.7 0-.4.1-1-.3M1021.5 359.2c.4-.5.7-.8 1.2-1.1l.5-.2c1.3-.1 1.7 1.7 1.8 2.6l.1 1.1c0 3.2-.9 6.5-2.4 9.3-.7 1.4-1.5 2.7-3 3.2l-.5-.1c-.7-.2-.9-1-1-1.6M1028.8 357c0 1 0 2 .5 2.9.1.4.4.7.8.9h.5M1035.5 352c.4-1.9.7-4 .2-6-.1-.6-.4-1.4-1.1-1.6l-.5-.1c-.8.3-1.2.7-1.8 1.3M801.9 651.5c-.1 2.6-.7 5.2-1.9 7.6-.6 1.1-1.2 2.2-2.4 2.6-.6 0-.3 0-.8-.3M779.2 666.1v1.1c.1.9.4 2.8 1.8 2.6l.5-.2.6-.4.6-.7.6-.9c1.9-3 2.9-6.9 2.9-10.4 0-1-.1-2-.5-2.9-.1-.4-.4-.7-.8-.8l-.5-.1c-.8.3-1.2.7-1.8 1.3M771.8 668.3c.5-.5.7-.8 1.2-1.1l.5-.2c1.3-.2 1.7 1.7 1.8 2.6l.1 1.1c0 3.2-.9 6.5-2.3 9.4-.7 1.3-1.5 2.7-3 3.2l-.5-.1c-1-.3-1.1-1.7-1.3-2.5M761 681.7c.4-.4.7-.8 1.2-1.1l.6-.2c1.3-.2 1.7 1.7 1.8 2.6v1.1c0 3.2-.9 6.5-2.3 9.3-.7 1.3-1.5 2.7-3 3.2h-.5c-1-.4-1.1-1.8-1.3-2.6M750.1 695.2c.4-.5.7-.8 1.2-1.1l.6-.2c1.3-.2 1.6 1.7 1.8 2.6l.1 1.1c0 3.2-.9 6.5-2.3 9.3-.7 1.4-1.5 2.8-3 3.3l-.5-.1c-.3-.1-.6-.5-.8-.9-.4-.9-.4-1.9-.5-2.8M739.3 708.6c.4-.5.7-.8 1.2-1.1l.6-.2c1.3-.2 1.6 1.7 1.8 2.6v1.1c0 3.2-.9 6.5-2.3 9.3-.7 1.3-1.5 2.7-3 3.2h-.5c-.4-.1-.6-.5-.8-.9-.4-.9-.4-1.9-.5-2.9M728.4 722.1c.4-.5.7-.8 1.2-1.1l.6-.2c1.3-.2 1.7 1.7 1.8 2.6l.1 1.1c0 3.2-.9 6.6-2.3 9.3-.7 1.3-1.5 2.7-3 3.3l-.5-.1c-.7-.2-.9-1-1.1-1.6M717.6 735.5c.4-.5.6-.8 1.2-1.1l.6-.2c1.3-.2 1.6 1.7 1.7 2.6l.1 1.1c0 3.2-.9 6.5-2.4 9.3-.7 1.3-1.5 2.7-3 3.2-.7-.1-.3 0-.9-.4M706.7 748.9c.4-.4.6-.8 1.2-1.1l.6-.1c1.3-.2 1.6 1.7 1.7 2.6l.1 1.1c0 3.2-.9 6.6-2.3 9.4-.7 1.3-1.5 2.7-3 3.2l-.5-.1c-.4-.1-.6-.5-.8-.8-.4-.9-.4-1.9-.5-2.9M695.9 762.4c.4-.5.6-.8 1.2-1.1l.6-.2c1.3-.1 1.6 1.7 1.7 2.6l.1 1.1c0 3.2-.9 6.5-2.3 9.3-.7 1.3-1.5 2.7-3 3.2h-.5c-.4-.1-.6-.5-.8-.9-.4-.9-.4-1.9-.4-2.9M685 775.8c.4-.4.7-.8 1.2-1.1l.6-.2c1.3-.2 1.6 1.7 1.7 2.6l.1 1.2c0 3.2-.9 6.5-2.3 9.3-.7 1.3-1.5 2.7-3 3.2h-.5c-.4-.1-.6-.5-.8-.9-.4-.9-.4-1.9-.5-2.9M674.2 789.3c.4-.5.7-.8 1.2-1.1l.6-.2c1.3-.2 1.6 1.7 1.7 2.6l.1 1.1c0 3.2-.9 6.5-2.3 9.4-.7 1.3-1.5 2.7-3 3.2-.7-.1-.9-.3-1.3-.9M663.3 802.7c.4-.4.7-.8 1.2-1.1l.6-.2c1.3-.2 1.6 1.7 1.7 2.6l.1 1.2c0 3.2-.9 6.5-2.3 9.3-.7 1.3-1.5 2.7-3 3.2h-.5M652.4 816.1c.5-.5.7-.8 1.2-1.1l.5-.2c1.3-.2 1.7 1.7 1.8 2.6v1.2c0 3.1-.9 6.5-2.3 9.3-.7 1.3-1.5 2.7-3 3.2h-.5c-1-.4-1.1-1.7-1.2-2.6M641.6 829.6c.4-.4.6-.8 1.2-1.1l.5-.2c1.3-.2 1.7 1.7 1.8 2.6v1.1c0 3.2-.9 6.5-2.3 9.3-.7 1.4-1.6 2.8-3 3.2h-.5c-.4-.2-.6-.5-.8-.9-.4-.9-.4-1.9-.5-2.9M630.7 843c.4-.5.7-.8 1.2-1.1l.6-.2c1.3-.2 1.6 1.7 1.8 2.6l.1 1.1c0 3.2-.9 6.5-2.3 9.4-.7 1.3-1.6 2.7-3 3.2l-.5-.1c-.4-.1-.6-.5-.8-.8-.4-.9-.4-1.9-.5-2.9M619.9 856.4c.4-.4.6-.8 1.2-1.1l.6-.2c1.3-.1 1.6 1.7 1.8 2.6v1.1c0 3.2-.9 6.5-2.3 9.4-.7 1.3-1.6 2.7-3 3.2-.7-.1-.9-.2-1.3-.9M609 869.9c.4-.5.6-.8 1.2-1.1l.6-.2c1.3-.2 1.6 1.7 1.8 2.6v1.2c0 3.1-.9 6.5-2.3 9.3-.7 1.3-1.5 2.7-3 3.2l-.5-.1M598.2 883.3c.4-.5.7-.8 1.2-1.1l.6-.2c1.3-.2 1.6 1.7 1.7 2.6l.1 1.1c0 3.2-.9 6.5-2.3 9.3-.7 1.4-1.5 2.7-3 3.2h-.5c-1-.3-1.1-1.7-1.2-2.5M587.9 896.1c.4-.2.7-.5 1.1-.6 1.3-.2 1.6 1.7 1.8 2.6v1.2c0 3.2-.9 6.5-2.3 9.3-.7 1.4-1.5 2.8-3 3.3l-.5-.1c-.7-.2-.8-1-1-1.6M577.1 909.5c.4-.3.7-.6 1.1-.6 1.3-.1 1.6 1.7 1.7 2.6v1.1c0 3.2-.9 6.5-2.3 9.3-.7 1.3-1.5 2.7-3 3.2h-.5c-.4-.1-.6-.5-.8-.9-.5-.9-.5-1.9-.5-2.8M566.2 923c.4-.3.6-.6 1.2-.6 1.3-.2 1.7 1.7 1.7 2.6v1.2c0 3.2-.9 6.5-2.3 9.3-.7 1.3-1.5 2.7-3 3.2h-.5c-1-.3-1.1-1.7-1.3-2.6M556 936l.6-.2c1.3-.2 1.7 1.7 1.7 2.6l.1 1.1c0 3.5-1 7-2.7 10M569.8 947.5c.2-1.1.6-2.2.9-3.3M1048 346.5v-19.9c0-1.3.2-3.4-.2-4.8-.1-.4-.3-1.1-.8-1.2l-3.1-.9-2.5-.7-3.1-.8-.4-.1c-1.5.5-2.6 2.5-3.4 3.5l-500 619.1-2 2.5M1047 320.7l-.4-.1c-1.4.5-2.6 2.5-3.4 3.5l-500 619.1-2 2.5M556 936c-1.5 1.1-2.3 2.6-3 4.2-1.1 2.6-1.7 5.3-1.8 8.1M562.1 936c-.1-2.7.3-5.4 1.2-8 .7-1.9 1.5-3.7 2.9-5.1M572.9 921.5c.1-4.2 1.2-8.8 4.2-12M584 910.2c-.4-2.6-.1-5.1.6-7.6.7-2.4 1.7-4.7 3.4-6.5M594.7 895.8c-.2-4.3 1-8.9 3.5-12.4M609 869.9c-2 2.9-3.2 6.4-3.5 10-.1 1.6-.3 4 1.2 5M616.8 870.6c-.6-1.8-.6-3.6-.3-5.5.5-3 1.5-6 3.3-8.6M627.2 854.3c.2-4 1.2-8 3.6-11.3M638 840.8c.2-4 1.2-8 3.6-11.3M648.9 828.6c-.2-4.3 1-8.9 3.5-12.4M663.3 802.7c-2.1 2.9-3.2 6.4-3.5 10-.1 1.6-.3 4 1.3 5M671.1 803.4c-.6-1.8-.5-3.6-.3-5.5.5-3.1 1.5-6 3.4-8.6M681.4 787.1c.2-4 1.2-8 3.6-11.3M692.3 773.7c.1-4 1.2-8 3.5-11.3M703.2 760.2c.2-4 1.2-8 3.6-11.3M717.6 735.5c-2.1 2.9-3.2 6.4-3.5 10-.1 1.6-.1 3.3.8 4.7M725.1 735.4c-.8-4.5.7-9.7 3.3-13.3M735.7 719.9c.2-4 1.2-8 3.5-11.3M746.6 706.5c.2-4 1.2-8 3.5-11.3M757.5 694.1c-.2-4.3 1-8.8 3.5-12.4M768.3 680.7c-.2-4.3 1-8.9 3.5-12.4M779.2 666.1c.2-4 1.2-8 3.5-11.3M793.5 641.4c-2 2.9-3.2 6.4-3.5 10-.1 1.6-.1 3.3.8 4.7M796.8 661.4c-.7-1.1-.7-2.5-.6-3.8.2-2.2.8-4.5 1.8-6.5l.5-.9c.4-.7 1.7-2.5 2.7-1.5l.3.4.2.6c.2.7.1 1.1.2 1.7M800.9 639.2c.1-4 1.2-8 3.5-11.2M811.7 625.8c.1-4 1.2-8 3.5-11.3M822.6 612.4c.1-4 1.2-8 3.5-11.3M833.4 598.9c.1-4 1.2-8 3.5-11.3M844.3 585.5c.2-4 1.2-8 3.6-11.3M855.1 572.1c.2-4 1.2-8 3.6-11.3M869.5 547.3c-2.3 3.2-3.6 7.3-3.6 11.3l.1 1.1c.1.9.4 2.8 1.8 2.6l.6-.1M880.4 533.9c-2.3 3.2-3.6 7.3-3.6 11.3l.1 1.1c.1.9.4 2.8 1.8 2.6l.6-.2M891.3 520.5c-2.3 3.2-3.6 7.3-3.6 11.3 0 1 .1 2 .5 2.8.2.4.4.7.8.9l.5.1M902.1 507c-2.1 2.9-3.2 6.5-3.5 10-.1 1.6-.3 4 1.2 5M909.9 507.7c-.7-1.8-.6-3.6-.3-5.5.5-3.1 1.5-6.1 3.3-8.6M920.3 491.4c.1-4 1.2-8 3.6-11.2M934.7 466.7c-2.3 3.2-3.6 7.4-3.6 11.3 0 .9.1 2 .5 2.8.2.4.4.7.8.9h.5M945.5 453.3c-2.1 2.9-3.2 6.4-3.5 10-.1 1.6-.3 4 1.2 5M956.4 439.8c-2.1 2.9-3.2 6.4-3.5 10-.1 1.6-.3 4 1.2 5M964.2 440.5c-.7-1.8-.6-3.7-.3-5.5.5-3.1 1.5-6.1 3.3-8.7M974.7 426.3c-.8-4.5.7-9.7 3.3-13.4M985.4 410.8c.2-4 1.2-8 3.6-11.3M996.2 397.4c.2-4 1.2-8 3.6-11.3M1010.6 372.6c-2 2.9-3.2 6.5-3.5 10-.1 1.6-.1 3.3.8 4.7M1018.2 372.6c-.8-4.5.7-9.7 3.3-13.4M1028.8 357c.1-4 1.2-8 3.5-11.3M1031.3 360.5l-.2.1-.5.2M571.8 941.7c1-1.7 2-3 3.3-4.5l9.5-11.8c.7-.9 2-3 3.3-3.7.9-.4 1.7 0 2 .9M1009.8 445.4l-1.2 1.5M1009.8 446.2v1.9M954.6 514.3l.4-.5M958.1 510l-.3.4M900.8 580.9l-.4.4M848.3 646l.3-.4M848.3 646.5v-.5M846 650.1l1.9-2.3M738.8 783.5v-7.1M741.1 778.6l-.4.5M684.1 851.2v-7M630.6 915.5l-.4.4M574.6 954.7l-8.7-2.4M1070 328.3l8.7 2.3M1081.9 366l-.5.6M602.8 962.3v-1.9M661.3 902.1l-26.3 32.6M693.5 899.4l-1.6 1.8M738.7 843.3l47.5-58.8M895.2 649.6l-63.1 78.1M976 549.5l-64.9 80.3M1071.4 431.4l-80.3 99.4M571.6 1036.6l-8.4-2.3M563.2 995.7v38.6M689.5 827.6l-4.5-1.2M591.8 948.5l-4.4-1.1M602.6 935.1l-4.4-1.2M613.5 921.7l-4.4-1.2M630.2 916l.7.1M632.2 907.7l.5.1M632.5 912l.4.1M619.9 907l4.4 1.2M631.4 909.5h-.3M631.6 912l-.8-.2M630.8 911.8l.1-.1M631.5 916.6l-.7-.2M631.1 911.9l-.3-.1M635.2 894.8l-4.4-1.2M646 881.4l-4.4-1.2M656.9 867.9l-4.4-1.2M667.7 854.5l-4.4-1.2M684.1 844.2l-.6.7M683.7 844.1v-.2M684.1 844.2l-.4-.1M684.5 850.8l-.4-.1M678.6 841l-4.4-1.2M687.4 840l-.5-.2M686.6 847.2l.8.2M686 844.4l.4.2M688.4 841.5l.4.1M700.3 814.2l-4.4-1.3M743.7 760.4l-4.4-1.2M754.6 747l-4.4-1.2M819.7 666.3l-4.4-1.2M835.3 660.5l-3.5-.9M852.3 626l-4.4-1.2M901.8 582l-.7-.3M901.8 574.5l-.4-.1M904.9 578.1l-.7-.2M903.6 575.1l.3.1M901 576.7h-.3M902.2 576.3l.3.1M902.3 576.3l.7.3M891.3 571.1l4.4 1.2M903 574.2l-.7-.1M902.7 577.5l.5.2M900.5 581.3M900.5 581.3l.6.3M904.9 570.6l-.4-.1M906.3 572.2l-.3-.1M902.2 557.6l4.4 1.2M917.4 545.4l-4.4-1.2M928.3 531.9l-4.4-1.1M939.1 518.5l-4.4-1.2M955.3 514.5l-.7-.2M958.4 506.3l.7.2M960 506.5l.4.1M959 511.1l-.7-.2M945.5 503.9l4.5 1.2M957.1 507.2l-.7-.2M955.9 507.4l-.4-.1M960.3 502.3l-.6-.1M957.1 509.5l-.7-.2M955.9 514.9l-.7-.2M957.8 510.4l.6.2M957.3 510.6l-.5-.1M955.1 509.7l-.3-.1M956.7 509.4l-.4-.1M958.4 506.2M958.5 503.9l.4.1M958.7 506.3l-.4-.1M960.8 491.6l-4.4-1.2M971.7 478.2l-4.4-1.2M982.5 464.7l-4.4-1.2M993.4 451.3l-4.4-1.2M1009.8 446.2l-2 2.4M1008.3 446.8l.3.1M1008.2 447.1l.2-.2M1009.8 442l-1.2 4.9M1009.8 442l-.3-.1M1010.2 445v-5.5M1036.8 397.5l-4.4-1.2M1047.7 384.1l-4.5-1.2M1069.4 357.2l-4.4-1.1M1054.1 369.5l4.4 1.2M1026 411l-4.5-1.2M1015.1 424.4l-4.4-1.2M1004.2 437.8l-4.3-1.1M1010.2 445.8l-.6-.2M1010.2 447.6l-.4-.1M1009.8 446.2l-.6-.1M1012.3 437.6l-.4-.1M1012.3 445.1l-.7-.2M1010.6 445.2l-.7-.2M1010.2 445l-.4-.1M1009.8 442v3.4M1011 442.1l.3.1M1013.3 439.1l.5.1M1026 459.5l-3.6-1M1022.4 474.5l3.6.9M1022.2 439.8l4.4 1.2M884.8 585.7l-4.4-1.2M874 599.1l-4.4-1.2M863.1 612.5l-4.4-1.1M849.1 639.5l.3.1M850.8 637.9l-.6-.2M847.3 648.4l.6.1M845.6 650.2l.1-.2M850.5 642.1h.4M846 650.1l-.3-.1M837 638.3l4.4 1.1M846.4 642.4l.7.2M846.1 642.8l.4.1M847.8 642.9l-.5-.2M845.6 645.9l-.3-.1M848.9 646.2l-.6-.2M848.4 646v-.1M847 646.7l-.3-.1M849.5 646.7l-.7-.2M848.9 641.9l.7.2M848.9 641.9v-.1M849.2 641.9h-.3M830.6 652.9l-4.4-1.2M845.3 670.1l-3.6-1M808.9 679.8l-4.4-1.2M793.6 692l4.4 1.2M782.7 705.5l4.5 1.2M776.3 720.1l-4.4-1.2M765.5 733.5l-4.5-1.2M742.7 770.8l.6.2M741.9 772.7l-.4-.1M741.3 774.9l.8.3M739.2 783h-.4M741.7 775l-.4-.1M741.4 774.9h.1M738.4 776.4h.4M738.5 776.1v.3M728.5 772.6l4.4 1.2M738.2 777.2l.6-.8M740.8 779.6l-.1-.5M742 779.8l-.7-.2M743 775.1l.4.1M740.8 779.1M741.4 779.3l-.7-.2M722 787.3l-4.4-1.2M711.2 800.7l-4.4-1.2M874.1 659.3l-3.6-1M858.7 670l-3.6-1M765.8 781.3l-1.7-.5M711.9 845.5l1.7.4M659.6 910.2l1.7.4M1010.2 439.5l-.1.1-.8 3.1-.7 2.8-.8 3.1M1012.3 444.2c1-1.5 1.1-3.4 1-5.1M1008 433.2c.2-4 1.2-8 3.6-11.3M1018.8 419.8c.2-4 1.2-8 3.6-11.3M1029.7 406.3c.2-4 1.2-8 3.6-11.2M1044.1 381.7c-2 2.9-3.2 6.4-3.5 10-.1 1.6-.1 3.3.8 4.7M1051.6 381.6c-.8-4.5.7-9.6 3.3-13.4M1062.3 366.1c.1-4 1.2-8 3.5-11.3M1064.1 369.8c1.9-.7 2.8-2.7 3.6-4.5M1063.2 380.5c.1-3.2.9-6.6 2.7-9.4l.6-.8c.5-.6 1.8-1.9 2.5-.8M1013.3 432.5c-.7 1.4-1.3 2.7-2.4 3.8M1011.1 444.8c-.1-.6-.1-1.2-.1-1.8M1013.8 439.2v-.6s0-2.2-.9-2.2c-.7.4-1 1.2-1.3 1.9-.5 1.4-.6 2.9-.6 4.3M1012.3 437.6l.3-.2c.5-.4.7.6.7.9M1019.5 449.8c.1-3.6 1-7.3 3-10.4l.6-.9.6-.7.6-.4.6-.2c1.3-.2 1.6 1.7 1.7 2.6l.1 1.2M1020.2 466.6c.1-2.9.8-6 2.4-8.4l.5-.7.5-.5.5-.4c1.3-.7 1.8 1 1.9 2l.1.9M1023.1 484.6c-.5.5-.8.9-1.4 1.1-1.4-.1-1.5-2-1.5-3 0-2.9.9-6 2.4-8.4l.5-.7.5-.5.5-.3c1.3-.7 1.8 1 1.9 2l.1.9M1009.2 437c.7 0 .4.1 1.1-.1M1000.7 435.4c-1.8 2.6-2.9 5.6-3.3 8.7-.3 1.8-.4 3.7.2 5.5M987.5 463.8c-1.5-1-1.3-3.4-1.2-5 .3-3.6 1.4-7.1 3.5-10M976.7 477.2c-1.5-1-1.3-3.4-1.2-5 .3-3.6 1.4-7.1 3.5-10M966.3 490.7h-.5c-.4-.1-.6-.5-.8-.8-.4-.9-.5-2-.5-2.9 0-3.9 1.3-8 3.6-11.2M953.7 500.4c.2-4 1.2-8 3.6-11.3M958.1 510l.1.3c.2.8.9 0 1.1-.3.5-.9.7-2 .8-3M955.7 511.1v-.8l.5-.9c.3-.6.5-1.1.5-1.7M954.7 510.1c.1-1.1.4-2.1.9-3.1.2-.3 1-1.4 1.4-.6l.1.3v.4M957 511.2c-.1 1.1-.4 2.9-1.6 3.4-.4 0-.4-.4-.5-.7M960.4 506.6c0-.5 0-1.2-.6-1.5-.6.1-.9.7-1.2 1.2M956.7 509.4c.7-.1.7.7.7 1.2M958.2 508l.4-4.4 1.7-2.1M954.5 503.9l.4.3c1 .4 1.8-.7 2.3-1.2M946.4 502.6c-1.9 2.5-2.9 5.5-3.3 8.6-.3 1.9-.4 3.7.3 5.5M933.3 531c-1.5-1-1.4-3.4-1.2-5 .3-3.5 1.4-7 3.5-10M922.9 544.5l-.5-.1c-.4-.1-.6-.5-.8-.9-.4-.9-.5-1.9-.5-2.8 0-4 1.3-8.1 3.6-11.3M912.7 557.7l-.6.2-.5-.1c-.4-.1-.6-.5-.8-.8-.4-.9-.5-1.9-.5-2.9 0-4 1.3-8.1 3.6-11.3M905.3 565.6c-.5 1.2-1 2.4-1.7 3.6M904.9 577.2c1-1.4 1-3.4 1-5.1M899.5 568.8c-.2-4.3 1-8.8 3.5-12.4M906.3 572.2v-.6c0-.6 0-2.2-.8-2.2-.7.4-1.1 1.2-1.3 1.9-.5 1.4-.6 2.9-.6 4.3M901.2 582.4h-.2c-.4-.2-.5-.7-.5-1.1M903 574.2c0-.4 0-.8-.4-1-.5.1-.8.5-1 .9-.5 1-.8 2-.9 3.1M900.8 580.9l.2.6c.3.5.9-.4 1-.6.5-.8.7-1.7.8-2.6M904.9 570.6l.2-.2c.6-.4.7.6.7.9M904.6 578.3l-.2.1c-.4 0-.6-.3-.7-.7-.1-.6-.1-1.2-.1-1.8M900.7 571.3c1 .1 1.6-.5 2.2-1.2M902.6 574.7c0 .6-.2 1.2-.5 1.7l-.6.9v.8M902.5 576.4c.7-.1.7.8.7 1.2M888.6 581.1c.2-4 1.2-8 3.6-11.3M881.3 583.2c-2.3 3.3-3.4 7.3-3.5 11.3M870.4 596.7c-2.3 3.3-3.4 7.3-3.5 11.3M859.6 610.1c-2.3 3.3-3.4 7.3-3.5 11.2M848.7 623.6c-2.3 3.3-3.4 7.3-3.5 11.2M849.2 641.9l.3-.4c.2-.3.9-1.3 1.3-.6l.1.3.1.4v.5M848.6 645.6v.3c.2.8.9 0 1.1-.3.6-.9.8-2 .8-3M851 632.9l-1 2.4M845.3 646.3c.1-1.3.3-2.7 1-3.9l.3-.4.2-.3.2-.1c.7-.4.8.9.8 1.2M845.7 637.7l.4.6c.7.7 1.5.1 2.1-.3M847.4 643.4c-.1 1.2-.4 2.3-.8 3.4l-1.6 5.2M848.7 643.6l.4-4.5 1.7-2M834.3 648.2c.1-4 1.2-8 3.5-11.3M827 650.4c-2 2.9-3.2 6.5-3.5 10-.1 1.6-.1 3.3.8 4.7M835.3 660.5c-.1-1.1 0-2.9-1.5-3-1.2.4-1.9 1.5-2.4 2.6-1 2-1.6 4.3-1.8 6.5-.1 1.3-.1 2.7.6 3.8M841 680.3c-1.4-.1-1.5-2-1.5-3 0-2.9.9-6 2.4-8.4l.5-.7.5-.5.4-.3c1.3-.7 1.8 1 1.9 1.9v.9M854.9 680l-.5.1c-1.4-.1-1.5-2-1.5-3 0-2.9.9-6 2.4-8.4l.5-.7.5-.5.5-.4c1.3-.7 1.8 1 1.9 1.9v.9M812.6 675.1c.2-4 1.2-8 3.6-11.3M805.3 677.3c-2.5 3.6-3.7 8.1-3.5 12.4M790.9 703.2c-.2-4.4 1-8.9 3.5-12.5M780 715.5c.2-4 1.2-8 3.5-11.3M772.7 717.6c-2.3 3.3-3.3 7.3-3.5 11.3M761.9 731.1c-2.6 3.7-4.1 8.9-3.3 13.3M751 744.5c-2 2.9-3.2 6.5-3.5 10-.1 1.6-.1 3.3.8 4.7M736.6 769.2c.2-4 1.2-8 3.6-11.3M741.1 778.6l.1.3c.2.7.9 0 1-.3.6-.9.8-1.9.9-3M741.7 775l.2-.4c.3-.4.9-1.3 1.3-.6l.1.3v.9M737.9 772.9c.7.1 1-.1 1.6-.6M741.2 776.7l.4-4.5 1.7-2.1M738.2 777.2c.3-1.5 0-.8 1-2M740.8 779.6c.1.4.2.7.7.6M729.3 771.4c-2.3 3.3-3.4 7.2-3.6 11.2M718.5 784.8c-2.3 3.3-3.4 7.3-3.6 11.3M707.6 798.3c-1.8 2.6-2.8 5.5-3.3 8.7-.2 1.9-.4 3.7.3 5.5M694.5 826.7c-1.5-1-1.4-3.3-1.2-5 .3-3.5 1.4-7.1 3.5-10M685.9 838.9c1-1.4 1.6-2.8 2.3-4.4M682.4 837.6c-.2-4.3 1-8.9 3.5-12.4M687.4 846.6c1-1.5 1-3.4 1-5.1M686 844.4c.1-1.4.2-2.9.8-4.2l.3-.5.3-.4.3-.3c.9-.7 1 1 1.1 1.5v1.2M684.5 842.9c-1 1.2-.7.5-1 2M684.7 840l-.6.2c-.7 0-.4 0-1-.3M688.4 840.7c-.1-.4-.1-.9-.6-1-.3.1-.1 0-.4.3M671.5 849.9c.2-4 1.2-8 3.5-11.3M664.2 852c-2.3 3.3-3.3 7.2-3.6 11.3M653.3 865.4c-1.8 2.6-2.9 5.6-3.3 8.6-.3 1.9-.3 3.8.3 5.5M640.2 893.8c-1.5-1-1.3-3.3-1.2-5 .3-3.6 1.4-7.1 3.5-10M628.2 904.8c-.3-4.3.9-8.9 3.5-12.4M631.1 911.9l.3-.4c.2-.3.9-1.3 1.3-.6l.1.3.1.4v.5M630.6 915.5v.3c.2.7.9 0 1.1-.3.6-.9.8-1.9.8-3M631 906.8c.8-.9 1.3-1.7 1.9-2.6M630.6 913.5l.5-4.5 1.6-2M617.5 919.2c-.4-2.6-.1-5.1.6-7.6.7-2.4 1.6-4.7 3.4-6.5M606.4 930.5c.1-4.2 1.2-8.8 4.1-12M595.6 945.1c-.1-2.7.3-5.4 1.2-8 .7-1.9 1.5-3.6 2.9-5.1M584.6 957.4c.1-2.8.7-5.6 1.8-8.1.7-1.6 1.5-3.2 3-4.2M1081.4 366.6v-30.9c0-1.3.1-3.4-.2-4.8-.1-.4-.3-1-.8-1.2l-3.1-.8-2.5-.7-3.1-.9h-.4c-1.5.5-2.6 2.5-3.4 3.5l-500.1 619.1-2 2.5M1080.5 329.6h-.4c-1.4.5-2.6 2.5-3.4 3.5l-500 619.1-2.1 2.5M604.1 953.3c.5-1.3 1-2.5 1.8-3.7l.6-.9 2-2.5 9.6-11.8c.7-.9 2-3 3.3-3.6.9-.5 1.7 0 2 .9M686.1 879.9v-8.4l2-2.6 23.4-29 2.1-2.5M776.3 748.6c-.4 2.6-.5 4.8-.5 7.4v23M778.9 741.9l.6-.9 2-2.5 9.6-11.8c.7-.9 2-3 3.3-3.6.9-.5 1.7 0 2 .9M765.8 772.8l-2 2.4-23.5 29.1-2 2.5v8.5M811.3 715.2c-.3-.5-.6-.6-1.2-.7-1.4.6-2.3 1.9-3 3.2-1.3 2.6-2.1 5.6-2.3 8.5M874.1 659.3c0-1.1 0-2.9-1.4-3-1.2.4-1.9 1.6-2.4 2.6-1.2 2.3-1.9 5-1.9 7.6l.1.9s.6 2.6 1.8 1.9c.5-.2.7-.5 1-.9M882.6 646.9l-.1 1.1-.1 1 .1 1c.1.9.5 2.6 1.9 1.9l.5-.4.5-.5M1069.4 414.2c-.3-.4-.6-.6-1.1-.6-1.5.5-2.3 1.9-3 3.2-1.3 2.5-2 5.3-2.2 8l-.1 1.3.1 1.1c.1.9.4 2.8 1.7 2.6l.5-.1M1082.2 405c-1.4 1.7-.7.5-.7 4.1 0 2.7.1 5.5-.5 8.2M688.2 834.4c.8-2.6 1.5-5.3 1.2-8-.1-.8-.3-2.2-1.3-2.6h-.5c-.8.3-1.2.7-1.8 1.3M687.4 846.6c-.3.3-.1.1-.5.3-.6-.3-.5-1.3-.5-1.9 0-1.8 0-3.6 1-5.1M686.1 846.7l.8.2M684.1 851.2c1-1.3.4-.3.4-3.6v-4.7M675 838.6c.5-.5.7-.8 1.2-1.1l.5-.2c1.3-.1 1.7 1.7 1.8 2.6v1.2c0 3.2-.9 6.5-2.3 9.3-.7 1.3-1.6 2.7-3 3.2h-.5c-.4-.1-.6-.5-.8-.8-.4-.9-.4-1.9-.5-2.9M664.2 852c.4-.5.7-.8 1.2-1.1l.6-.2c1.3-.2 1.7 1.7 1.8 2.6v1.2c0 3.1-.9 6.5-2.3 9.3-.7 1.3-1.6 2.7-3 3.2h-.5c-.4-.1-.6-.5-.8-.9-.4-.9-.4-1.9-.5-2.9M653.3 865.4c.4-.4.6-.8 1.2-1.1l.6-.2c1.3-.1 1.6 1.7 1.8 2.6v1.1c0 3.2-.9 6.5-2.3 9.4-.7 1.3-1.6 2.7-3 3.2-.7-.1-.9-.3-1.3-.9M642.5 878.9c.4-.5.6-.8 1.2-1.1l.6-.2c1.3-.2 1.6 1.7 1.8 2.6v1.2c0 3.1-.9 6.5-2.3 9.3-.7 1.3-1.5 2.7-3 3.2l-.5-.1M631.6 892.4c.4-.5.7-.8 1.2-1.1l.6-.2c1.3-.1 1.6 1.7 1.7 2.6l.1 1.1c0 3.3-1 6.4-2.3 9.4M632 910.8c.1.2.1.5.1.8M630.6 913.5l.3-.6.3-.5c.1-.3.9-1.3 1.2-.6v.7M630.4 916.8l.6-.6M621.4 905.1c.4-.3.7-.6 1.1-.6 1.3-.2 1.6 1.7 1.7 2.6v1.1c0 3.1-.9 6.5-2.3 9.3-.7 1.3-1.5 2.7-3 3.2l-.5-.1c-.7-.2-.9-1-1-1.6M610.5 918.5c.4-.3.7-.6 1.2-.6 1.3-.1 1.6 1.7 1.7 2.6v1.1c0 3.2-.9 6.5-2.3 9.3-.7 1.4-1.5 2.7-3 3.3l-.5-.1c-.4-.1-.6-.5-.8-.9-.5-.9-.5-1.9-.5-2.8M599.7 932c.4-.3.6-.6 1.2-.6 1.3-.2 1.7 1.7 1.7 2.6l.1 1.1c0 3.2-.9 6.5-2.3 9.3-.7 1.3-1.5 2.7-3 3.2l-.5-.1c-1-.3-1.1-1.7-1.3-2.5M589.4 945l.5-.2c1.3-.1 1.7 1.7 1.8 2.6l.1 1.1c0 3.5-1 7-2.7 10M602.8 960.4c.1-2.5.6-4.8 1.3-7.2M630.2 915.9l.1.5.1.4c.4.8 1.1-.2 1.3-.5.8-1.2 1.1-2.7 1.1-4.1M631 906.8c-.7.5-.4.3-1.1.6h-.5c-1-.3-1.1-1.7-1.2-2.5M632.7 907c0 2.3.2-1.4-1.4 2.6l-.2 2.3M632.2 911.6l-.7-.2h-.1M688.8 841.6c0 1.5-.1 3-.7 4.5-.2.7-.6 1.4-1.3 1.8-.4 0-.5-.3-.7-.7-.2-.9-.1-1.9-.1-2.8M683.2 839.8c-.5-.8-.6-1.4-.8-2.3M687.9 839.7c0-.3-.1-.6-.2-.8M687.2 839.5l.7.2M686.9 846.9l-.6.6M685.9 838.9c-.8.9-.4.5-1.2 1.1M688.4 840.7v.8M696.8 811.7c.4-.5.6-.8 1.2-1.1l.6-.2c1.3-.2 1.6 1.7 1.7 2.6l.1 1.1c0 3.2-.9 6.5-2.3 9.3-.7 1.3-1.5 2.7-3 3.2h-.5M707.6 798.3c.4-.5.7-.8 1.3-1.1l.6-.2c1.3-.1 1.6 1.7 1.7 2.6l.1 1.1c0 3.2-.9 6.5-2.3 9.3-.7 1.3-1.5 2.7-3 3.2-.7-.1-.9-.3-1.3-.9M714.9 796.1l.1 1.2c.1.9.4 2.8 1.8 2.6l.6-.2.6-.4.6-.7.6-.9c1.9-3 2.9-6.8 2.9-10.4 0-1-.1-2-.5-2.9-.2-.3-.4-.7-.8-.8h-.5c-.8.3-1.2.7-1.8 1.3M725.8 782.6l.1 1.2c.1.9.4 2.8 1.7 2.6l.6-.2.6-.4.6-.7.6-.9c1.9-3 2.9-6.9 2.9-10.4 0-.9-.1-2-.5-2.9-.2-.3-.4-.7-.8-.9h-.5c-.8.3-1.2.7-1.8 1.3M736.6 769.2c.1 1.3 0 2.9 1.3 3.7M740.9 779.9l.6-.6M741.4 769.8c-.5 1-1.1 1.8-1.9 2.6M741.5 780.2c1.5-1 1.8-3.3 1.9-5M742 768.6c1.1-3 2-6.1 1.7-9.3-.1-.8-.3-2.2-1.2-2.6h-.5c-.8.3-1.2.7-1.8 1.3M751 744.5c.4-.4.6-.8 1.2-1.1l.6-.2c1.3-.2 1.6 1.7 1.7 2.6l.1 1.1c0 3.2-.9 6.5-2.3 9.4-.7 1.3-1.5 2.7-3 3.2-.7-.1-.3 0-.9-.3M761.9 731.1c.4-.5.6-.8 1.2-1.1l.6-.2c1.3-.2 1.7 1.7 1.8 2.6l.1 1.2c0 3.1-.9 6.5-2.3 9.3-.7 1.3-1.5 2.7-3 3.2l-.5-.1c-.7-.2-.9-1-1.1-1.6M769.2 728.9l.1 1.2c.1.9.4 2.8 1.7 2.6l.6-.2.6-.5.6-.7.6-.9c1.9-3 2.9-6.9 2.9-10.4 0-.9 0-2-.4-2.9-.2-.3-.4-.7-.8-.8l-.5-.1c-.8.3-1.2.7-1.8 1.3M780 715.5l.1 1.1c.1.9.4 2.8 1.7 2.6l.6-.2.6-.4.6-.7.6-.9c1.9-3 3-6.9 3-10.4 0-1-.1-2-.5-2.9-.2-.4-.4-.7-.8-.9h-.5c-.8.3-1.2.7-1.8 1.3M790.9 703.2c.1.7.1 1.1.4 1.7l.3.5c.9 1 2.1-.2 2.8-.9l.6-.9c1.9-3 2.9-6.9 2.9-10.4 0-1-.1-2-.5-2.9-.2-.4-.4-.7-.8-.9l-.5-.1c-.8.3-1.2.7-1.8 1.3M801.8 689.7c.1.7.1 1.1.4 1.7l.3.6c.9.9 2.2-.3 2.8-1l.6-.9c1.9-3 3-6.9 3-10.4 0-1-.1-2-.5-2.9-.2-.4-.4-.7-.8-.9h-.5c-.8.2-1.2.7-1.8 1.3M812.6 675.1l.1 1.1c.1.9.4 2.8 1.8 2.6l.6-.2.6-.4.6-.6.6-.9c1.9-3 2.9-6.9 2.9-10.4 0-1-.1-2-.5-2.9-.1-.3-.4-.7-.8-.8h-.5c-.8.3-1.2.6-1.8 1.3M827 650.4c.5-.5.7-.8 1.2-1.1l.6-.2c1.3-.1 1.7 1.7 1.7 2.6v1.1c0 3.2-.9 6.5-2.3 9.3-.7 1.3-1.5 2.7-3 3.2-.7-.1-.4 0-.9-.3M834.3 648.2v1.2c.1.9.5 2.7 1.8 2.6l.6-.2.6-.4.6-.6.6-.9c1.9-3 2.9-6.9 2.9-10.4 0-1-.1-2-.5-2.9-.1-.3-.4-.7-.8-.8h-.5c-.9.3-1.2.7-1.8 1.3M845.3 646.3l.4-.5.1-1c.1-.6.3-1.1.6-1.7l.2-.3.2-.2c.6-.4.6.3.7.7M845.7 637.7c-.3-1-.5-1.8-.5-2.9M851 632.9c.8-2.6 1.5-5.3 1.2-8-.1-.8-.3-2.2-1.2-2.5l-.5-.1c-.8.3-1.2.7-1.8 1.3M859.6 610.1c.4-.5.7-.8 1.2-1.1l.6-.2c1.3-.2 1.6 1.7 1.8 2.6v1.1c0 3.2-.9 6.5-2.3 9.4-.7 1.3-1.5 2.7-3 3.2h-.5c-.4-.1-.6-.5-.8-.9-.4-.9-.4-1.9-.5-2.9M866.9 607.9v1.2c.1.9.4 2.8 1.7 2.6l.6-.2.6-.5.6-.6.6-.9c1.9-3 2.9-6.9 2.9-10.4 0-.9-.1-2-.5-2.8-.2-.4-.4-.7-.8-.9h-.5c-.8.3-1.2.7-1.8 1.3M877.7 594.5v1.2c.1.9.4 2.8 1.7 2.6l.6-.2.6-.5.6-.7.7-.8c1.9-3 2.9-6.9 2.9-10.4 0-.9-.1-2-.5-2.8-.2-.4-.4-.7-.8-.9h-.5c-.8.3-1.2.6-1.8 1.3M888.6 581.1l.1 1.2c.1.9.4 2.8 1.7 2.6l.6-.2.6-.5.6-.6.6-.9c1.9-3 2.9-6.9 2.9-10.4 0-1-.1-2-.5-2.9-.2-.4-.4-.7-.8-.9l-.5-.1c-.8.3-1.2.7-1.8 1.3M899.5 568.8c.2 1.1.3 2 1.2 2.6M904.6 578.3c1.6-1.5 1.7-4.1 1.7-6.1M903 556.3c.4-.5.7-.8 1.2-1.1l.6-.2c1.3-.2 1.7 1.7 1.7 2.6.3 2.7-.4 5.4-1.2 8M902.2 573.3c.1.3.1.5.1.8M903.2 577.7c-.1 1.6-.5 3.8-2 4.8M900.6 582.1c.3-.1.4-.4.6-.6M904.9 570.6c-1 1.5-1 3.3-1 5.1 0 .5 0 1.1.2 1.6l.3.2.5-.3M901.6 573.9c.7.2.9.1 1 .8M900.6 577.2l.4-.5.1-.5c.1-.6.3-1.1.6-1.6.2-.2.4-.7.8-.6M905.5 570.3l-.8-.2M905.5 570.3c0-.2-.1-.6-.2-.9M903 574.2c0 .8-.2 1.5-.4 2.2M902.3 576.3c.1.4.2.6.2 1M901.6 577.2h.2c.8.2.9.2 1 1M901.6 578.1c.2-.3.6-.8 1-.7M903.9 578.1l.5-.6M904.5 577.5l-.8-.2M906 572.1l-.1-.8M913.8 542.9l.6-.7.6-.4.6-.2c1.3-.2 1.6 1.7 1.7 2.6l.1 1.1-.1 1.3c-.2 2.3-.8 4.7-1.7 6.9-.7 1.6-1.6 3.1-3 4.2M924.7 529.5c.4-.5.7-.8 1.2-1.1l.6-.2c1.3-.2 1.6 1.7 1.7 2.6l.1 1.2c0 3.2-.9 6.5-2.3 9.3-.7 1.3-1.6 2.7-3 3.3M935.6 516.1c.4-.5.6-.8 1.2-1.1l.6-.2c1.3-.2 1.6 1.7 1.7 2.6l.1 1.2c0 3.2-.9 6.5-2.3 9.4-.7 1.3-1.6 2.7-3 3.2l-.5-.1M946.4 502.6c.4-.5.7-.8 1.2-1.1l.6-.2c1.3-.2 1.7 1.7 1.7 2.6l.1 1.2c0 3.2-.9 6.5-2.3 9.4-.7 1.3-1.5 2.7-3 3.2-.7-.1-.9-.3-1.3-.9M953.7 500.4c.1 1.2.1 2.3.8 3.4M957.8 510.4l.1.5.1.4c.4.8 1.1-.2 1.4-.6.8-1.2 1-2.7 1.1-4.1M957.3 489.2c.4-.5.6-.8 1.2-1.1l.6-.2c1.3-.2 1.6 1.7 1.7 2.6.4 3.2-.6 6.4-1.7 9.3M958.2 508l.3-.6.3-.5c.2-.3 1-1.4 1.2-.6l.1.3v.4M954.8 515.1c.3-.2.4-.4.6-.6M955.8 506.9c.7.2.9.1 1 .8M954.6 514.3c.1.6.3 1.6 1 1l.3-.3.3-.4c.8-1.2 1-2.5 1.1-3.9M958.5 501c-.8 1.3-.3.7-1.2 1.9M957.9 511.2l.5-.6M956.4 507c0-.3 0-.5-.1-.7M955.7 511.1c.3-.4 1-1.2 1.2-.3v.4M956.6 507.1c-.9.2-1.2 1.4-1.3 2.1l-.1.5-.4.4M956.7 509.4c.3-.8.5-1.5.5-2.2M956.4 509.3c.2.3.2.6.2 1M959.7 506.1l-.7-.2M958.7 506.3l.2-2.3c1.6-3.9 1.3-.2 1.3-2.5M956.7 510.4l-.7-.2-.1-.1-.1.1M959.7 506.1c0-.3-.1-.5-.2-.8M968.1 475.7c.4-.5.6-.8 1.2-1.1l.6-.2c1.3-.2 1.6 1.7 1.7 2.6l.1 1.1c0 3.2-.9 6.6-2.3 9.4-.7 1.3-1.5 2.7-3 3.2M979 462.3c.4-.5.7-.8 1.2-1.1l.5-.2c1.3-.2 1.7 1.7 1.8 2.6l.1 1.1c0 3.2-.9 6.6-2.3 9.4-.7 1.3-1.5 2.7-3 3.2h-.5M989.8 448.8c.4-.5.7-.8 1.2-1.1l.6-.2c1.3-.1 1.6 1.7 1.7 2.6v1.1c0 3.2-.9 6.5-2.3 9.4-.7 1.3-1.5 2.7-3 3.2h-.5M1000.7 435.4c.4-.5.7-.8 1.2-1.1l.6-.2c1.3-.2 1.6 1.7 1.7 2.6v1.1c0 3.2-.9 6.6-2.3 9.4-.7 1.3-1.5 2.7-3 3.2-.7-.1-.9-.3-1.3-.9M1013.3 432.5c1.1-2.9 2-6.1 1.7-9.3-.1-.9-.3-2.2-1.2-2.5l-.5-.1c-.9.3-1.2.7-1.8 1.3M1018.8 419.8l.1 1.1c.1.9.4 2.8 1.7 2.6l.6-.2.6-.4.6-.7.6-.8c1.9-3 3-6.9 3-10.4 0-1-.1-2-.5-2.9-.2-.4-.4-.7-.8-.9h-.5c-.8.3-1.2.7-1.8 1.3M1029.7 406.3l.1 1.1c.1.9.4 2.8 1.7 2.6l.6-.2.6-.5.6-.6.6-.9c1.9-3 2.9-6.9 2.9-10.4 0-.9 0-2-.5-2.9-.1-.3-.4-.7-.8-.8l-.5-.1c-.8.3-1.2.7-1.8 1.3M1044.1 381.7c.4-.5.6-.8 1.2-1.1l.5-.2c1.3-.1 1.6 1.7 1.8 2.6l.1 1.1c0 3.2-.9 6.6-2.4 9.4-.7 1.3-1.5 2.7-3 3.2-.7 0-.4 0-1-.3M1055 368.2c.4-.5.6-.8 1.2-1.1l.5-.2c1.3-.2 1.7 1.7 1.8 2.6l.1 1.2c0 3.2-.9 6.5-2.4 9.3-.7 1.4-1.5 2.7-3 3.3l-.5-.1c-.7-.3-.9-1-1-1.6M1062.3 366.1c0 1 0 2 .5 2.9.1.4.4.7.8.8l.5.1M1067.6 365.3c1.1-2.9 2-6.1 1.7-9.3-.1-.8-.3-2.2-1.2-2.5l-.5-.1c-.8.3-1.2.7-1.8 1.3M1063.2 380.5l.1 1c.1.9.5 2.7 1.8 2.3M1008 433.2c.1 1.3.1 2.9 1.3 3.7M1011.1 444.8l.1.3c.5 1.1 1.4-.4 1.6-.9.7-1.6.9-3.3.9-5M1012.9 437.3c0-.3-.1-.6-.2-.9M1013 437.3l-.8-.2M1009.8 448.1c.9-1.1-.1.4.4-2.3.6-3.3.5 2.3.5-1.4M1012.3 444.2c-.3.3-.1.2-.5.3l-.8-.2M1012.3 437.6c-.9 1.5-1 3.4-1 5.1 0 .5 0 1.6.5 1.8M1026.6 441c-.1 3.2-.8 6.4-2.3 9.3-.7 1.3-1.5 2.7-3 3.2h-.5c-.4-.2-.6-.5-.8-.9-.4-.9-.4-1.9-.5-2.9M1011.9 444.5l-.6.6M1013.3 438.3v.9M1026 459.5c-.1 2.6-.7 5.2-1.9 7.6-.5 1.1-1.2 2.2-2.4 2.6-1.4-.1-1.4-2-1.5-3M1023.1 484.6c1.9-2.7 2.8-5.9 2.9-9.1M849.2 641.9l.2-2.3c1.6-4 1.4-.3 1.4-2.5M850 640.8l.2.8M848.7 643.6l.3-.6.3-.5c.1-.3.9-1.3 1.2-.6l.1.3v.4M845.1 652l2.8-3.5v-.7M846.9 641.7c.1.2.1.6.1.8M850.9 642.1c-.1 1.3-.3 2.5-.9 3.7-.3.5-.6 1.2-1.3 1.3-.3-.2-.3-.3-.5-.7M847.8 642.9c-.1 2.5-1.1 4.9-1.9 7.2M848.4 646.8l.6-.6M850.2 641.6l-.7-.2h-.1M830.2 670.4l.4.2c1 .4 2-1.1 2.3-1.7 1.6-2.5 2.2-5.5 2.4-8.4M845.3 670.1c-.1 2.6-.7 5.2-1.9 7.6-.6 1.1-1.2 2.2-2.4 2.6M743.3 770.1c0 2.3.2-1.4-1.4 2.5l-.2 2.3M742.5 773.9c.1.3.1.6.1.8M741.2 776.7l.3-.6.3-.5c.2-.3.9-1.3 1.2-.6l.1.3v.3M742.7 774.7l-.7-.2M738.8 783.5c1-1.3.3-.3.3-3.7v-4.6M887.1 647.5c-.5 1.2-1 2.4-1.8 3.5M874.1 659.3c-.1 3.2-1 6.4-2.9 9.1M858.7 670c-.1 2.3-.6 4.5-1.4 6.6-.6 1.4-1.3 2.6-2.4 3.5M765.8 772.8v8.5l-2 2.5-23.5 29-2 2.5M775.8 779v1.2c.1.9.4 2.9 1.8 2.8l.6-.2.4-.3M713.6 837.4v8.5l-2.1 2.5-23.4 29.1-2 2.4M661.3 902.1v8.5l-2 2.5-16.7 20.7-2 2.5M778.9 741.9c-1.2 2.1-2 4.3-2.6 6.7M954.3 1105.3l-.4.5M971 1110.4l-17.1-4.6M129.3 883.8l17.2 4.6M140.6 881.7l-7.9-2.1M146.5 914l-17.2-4.6M953.9 1131.4v5.2M971 1136l-17.1-4.6M971.3 1135.6l-.3.4M962.7 1103l8.6 2.4M146.5 914v5.2M952.4 1061.5l3.4-4.2M954.1 1063l-.2.2M147.9 844.9l3.4-4.2M538.1 1028.9l-9.4-2.5M538.1 988.9v40M571.6 1037.9l-9.4-2.5M571.6 997.9v40M860.4 1087.2l-8.7-2.4M860.4 1080.6v6.6M909.2 1100.3v-6.6M917.9 1096.1l-8.7-2.4M917.9 1096.1v6.6M910.6 1098.6l-1.4 1.7M917.9 1102.7l-8.7-2.4M860.4 1080.6l-8.7-2.3M851.7 1084.8v-6.5M851.7 1084.8l1.4-1.7M884.2 1064.8l-2.3 2.8M529.7 1025.1l-1 1.3M528.7 986.4v40M538.1 988.9l-9.4-2.5M563.2 1034.1l-1 1.3M562.2 995.4v40M571.6 997.9l-9.4-2.5M953.9 1105.8v-39.300000000000004c0-1.6.7-4.3-1.4-4.9l-3.1-.9-798.3-214.9-3.1-.9h-.3c-2 .1-1.1 3.1-1.1 4.2v39.400000000000006M132.7 879.6l-3.4 4.2v25.6M146.5 919.2l2.9.8c1.1.3 3.9.4 4.3 2.2v7.6c0 1.5-.6 4.3 1.5 5l3.1.8 783.7 211 3.1.8c1.5.4 2.4-1.7 3-2.5.8-1 1.7-1.5 1.8-2.7M946.5 1147c.1-.2.1-.2.1-.5v-7.3c0-3.6-.7-2.4.8-4.2M953.9 1136.6c-1.9-.5-4.1-1.3-6.1-1.6-.7 0-1 .3-1.1 1M971.3 1110.1l-.3.3v25.599999999999998M146.6 845.3l1.7-2.1c.7-.8 1.6-2.9 3-2.5l3 .8 798.4 214.9c1.4.4 3.2.4 4.2 1.6M889.4 1067c-.9-.9-1.7-1.5-2.8-2M950 1135.6v6.6l-3.4 4.3M885.3 1064.7v4l-3.4 4.1M886.6 1064.9c-1-.2-.5-.1-1.6-.3-.6.1-.8.1-1.4.3-2.2.9-1.7 3.4-1.7 5.3v2.6l.1.8c.4 1.7 1.6 3.1 3.1 3.9 1.9 1 4.9 1 5.4-1.6l.1-.7v-2.7c0-1.3.2-2.9-.3-4.1-.2-.7-.4-.9-.8-1.5M885.3 1068.7c.1.7 0 .9.3 1.5.8 2.1 2.9 3.5 5 3.7M734 846.1l-2.1-.5M733.5 847.2l-2.4-.6M729.1 856.5l1.9.5M733.8 861.9h.4M751.3 873.3l-1.5-1.9M739.3 843.5c-.5-.2-.3-.1-.9-.2-1.1.3-1.8 1.1-2.4 2.1M745.8 867.8c-2.2-1.6-4.5-3-7-4.2-1-.4-2.2-.6-2.7-1.6-.6-1.2-.6-2.8-.6-4.1.1-3.4 1.1-7 2.6-10.1.7-1.3 1.6-3 3-3.6.9-.4 2.3.1 3 .1l1.8.2M762.9 864.5l-.3.9-.6 1.3-1.2 2.3c-1.5 2.6-3.6 5.6-6.8 5.7-.4-.1-.8-.1-1.1-.2-2.9-1.3-3.1-5.2-3-8l.1-1.4c.2-4.2 1.2-8.4 2.6-12.3 1-2.6 2.1-5.2 3.8-7.5.6-.8 1.3-1.6 2-2.3.4-.3.9-.6 1.3-.8.7-.2.8-.2 1.4-.3 3-.2 4.2 3.3 4.5 5.6l.1 1.1v1.4c0 1.9-.1 3.7-.5 5.5"/>
    <path class="st1"
        d="M764.5 863.4c1.1-1.5 1.7-3.5 1.7-5.4-.1-.7-.3-1.9-.9-2.4l-.3-.1-3.1-.8-1.8-.5-3.1-.9c-.9 0-1.4.9-1.8 1.6-.9 1.6-1.4 3.5-1.4 5.3 0 .6 0 1.3.4 1.8l.4.4 3.1.8 1.8.5 3.1.8.5-.1.8-.5c.5-.3.3-.2.6-.5zM764.8 855.4c.4-2.7.6-5.8-.1-8.4-.4-1.3-1.1-2.4-2.5-2.5-2.4.5-3.9 3-5 5-2.7 5-4.3 10.9-4.4 16.6v1.2l.1 1.1.1 1c.3 1.6 1.2 4 3.3 3.3l.6-.3c.4-.3.9-.6 1.2-1 .8-.7 1.4-1.6 2-2.5.9-1.4 1.6-3 2.2-4.5M765.9 856.9c-.2-.3-.2-.3-.6-.4-.6.2-1 .8-1.3 1.3-.7 1.2-1.1 2.7-1.1 4 0 .7 0 2.3 1.1 2M755.8 863.7l1.3 3 .5 1.2 1.3 2.9c.1.3.2.7 0 1l-.1.2-.5.5M753 863.1l.1.6.2.4c.9 1.5 2.5-.5 3-1.3M765 855.5c-.9 0-1.4.9-1.7 1.6-.9 1.6-1.4 3.5-1.4 5.3 0 .7 0 1.8.8 2.1M758.8 853.9c-.1-1-.1-2.6-1.4-2.8-.6.1-1 .4-1.4.9M756.2 851.6l1.4-2.5c.7-1.1 2.3-2.7 1.2-4l-.5-.4c-.2-.1-.5-.2-.9-.3-.8 0-1.4.4-2.3.6l-1.8.4c-1.9.4-3.8.6-5.7.7-2.7 0-5.3-.3-8-.7M738.8 843.3l-1.7-.4c-1.7.5-2.7 2.3-3.5 3.8-1.6 3-2.5 6.5-2.6 9.9 0 1.1 0 2.3.4 3.5.1.5.4 1.1.9 1.3.5.3 1.1.4 1.7.5M733.7 861.9c-1.7-.7-1.7-3.3-1.6-4.9.1-3.7 1.2-7.7 3.1-10.9.7-1.2 1.8-2.9 3.4-2.8M736.5 844.7l-.2-.1-1.1-.3M754.1 843.9c-2 .3-4 .6-6 .6h-2.1M760.3 842.1l-.6.1-1.8.7c-1.8.6-2.2.6-4 1.1M755.9 854l3.1.9 1.8.5c3.5.9 2.4 0 3.9 1.7M750.2 871.9c-1.4-1.6-2.9-3-4.5-4.3M740.3 844.6h-.4c-1.9.4-3 2.8-3.8 4.5-1 2.4-1.7 5-1.9 7.6-.1 1.3-.1 2.8.4 4 .1.3.4.6.6.8l.5.2c.4.7.7 1 1.4 1.3M742.2 844.1h-.2c-2.1 0-3.3 2.1-4.2 3.8-1.4 2.7-2.2 5.7-2.5 8.7-.2 1.6-.2 3.4.5 5M736 845.4c-2.2 3.4-3.5 7.6-3.7 11.6 0 1.1 0 2.3.3 3.5.2.5.4 1 .9 1.3s1.2.2 1.7 0l.4-.2M740.3 844.5c-.3-.5-.7-.7-1.3-.8-1.4.3-2.3 1.6-3 2.8-1.9 3.2-3 7.3-3 11v1l.1.9s.6 2.6 1.8 2.4c.4 0 .5-.1.8-.2M740.3 844.5c-.3-.6-.8-.9-1.4-1.2M736.5 844.7c.6.3.9.9 1.6 1.1.2.1.5.1.7 0 .4-.1.5-.3.9-.3M701.6 898.2c-1.7-.4-1.8-2.5-1.9-4-.1-4 1.1-8.4 3.1-11.9l.5-.8c.7-1 2.1-2.7 3.5-1.9l.3.3M713.6 880.8c2.8.1 5.5-.1 8.2-.6M730 900.7c-.9 2.2-1.9 4.4-3.5 6.2-.8 1-1.8 1.9-3 2.1-2.6-.1-2.9-3.5-3-5.4v-2.6c.2-3.4 1-6.9 2-10.1.9-2.5 2-5 3.5-7.2.4-.6.8-1.1 1.3-1.6 1-1 2.6-2.1 3.9-.9l.4.5c.3.4.5.9.6 1.4.8 2.6.6 5.7.1 8.4"/>
    <path class="st1"
        d="M732.3 899.5c1-1.6 1.7-3.6 1.5-5.5 0-.6-.3-1-.6-1.6l-.4-.5-.2-.1-3.1-.9-1.8-.5-3.1-.8c-.9 0-1.4.9-1.8 1.6-.9 1.6-1.4 3.5-1.4 5.3 0 .6 0 1.3.4 1.8l.5.3 3.1.8 1.8.5 3.1.9.6-.1.9-.6c.2-.2.3-.3.5-.6zM730.5 900.8l-1 2.3c-1.5 3.3-3.9 7.8-8 7.9-1.1-.2-2-.7-2.7-1.6M733.2 884.2c-.3-2.1-.9-4.6-3-5.7-.3-.2-.7-.2-1.1-.3-.7 0-1.3.1-2 .3-1.8.9-3 2.7-4 4.3-3.4 5.6-5.1 12.3-5.6 18.9M720.6 899.5v3.1c0 1.3.7 3.7-1 4.4-.3.1-.3.1-.6.1h-.3M703.4 897c2.7 1 5.3 2.1 7.8 3.8M709.4 901.4l-1-.6-1.9-.9c-1.1-.5-2.1-.5-2.6-1.6-.6-1.2-.7-2.7-.6-4 .1-3.5 1.1-7 2.6-10.1.7-1.3 1.5-2.8 2.8-3.5M706.2 879.5c-1.2-.3-.7-.3-1.5-.3-1.4.4-2.3 1.6-3 2.9-1.9 3.2-3 7.1-3.1 10.9v1c0 1.3.2 3.5 1.6 3.9l1.2.3M700.1 896h-.2l-1.1-.3M706.5 879.6h-.4c-1.1.3-1.8 1.1-2.5 2-1 1.5-1.7 3.1-2.3 4.8M713.7 880.8l-1.9-.1-2-.3M727.1 878.6c-1.8.7-3.7 1.2-5.6 1.7M723.7 888.2c.3-.3.3-.4.7-.7l.4-.1c1.2-.4 1.5 1.4 1.6 2.2v.5M731.7 900c-.3.2-.1.1-.5.2-.7-.3-.7-1.2-.7-1.9 0-1.5.5-3.2 1.3-4.5.3-.4.9-1.4 1.5-1l.3.4M732.6 891.8c-.9 0-1.4.9-1.8 1.6-.9 1.6-1.4 3.5-1.4 5.3 0 .8 0 1.8.8 2.1M720.6 899.4c.1.4.1.6.3 1l.3.3c.9.9 2-.5 2.5-1.1l.3-.4M730.6 899.4l-1.1.4-7.9-2.2M733 883c.5 3 .4 6-.1 8.9M733 883c.1 1.5-2.5 2.7-3 3.1l-1.1.9-2.6 2M708 880.8l-.4-.4c-.3-.3-.3-.3-.7-.4-1.7.1-2.8 1.9-3.5 3.2-1.8 3.3-2.9 7.3-2.8 11v.9c.1 1 .6 3.2 2.1 2.9l.6-.2M708 880.8h-.2c-1.6.1-2.6 1.8-3.3 3-1.6 2.9-2.4 6.2-2.6 9.4v1c0 1.1.1 3.1 1.4 3.6M703.3 897.7c.3.7.8 1.2 1.6 1.6M701.3 886.5c-.9 2.8-1.6 5.8-1.3 8.8.1 1.1.6 3.3 2.2 3 .4-.1.6-.1 1-.3M709.8 880.4h-.5c-1.9.3-3.1 2.3-3.9 3.9-1.4 2.7-2.2 5.7-2.5 8.7-.2 1.7-.1 3.4.5 5M700.1 896c.7.1 1.2-.3 2-.1.3.1.6.2.8.6.1.3.1.4.5.6M706.5 879.6c.7.2 1 .6 1.4 1.2"/>
    <defs>
        <path id="SVGID_1_" d="M100 1159.2z"/>
    </defs>
    <clipPath id="SVGID_2_">
        <use xlink:href="#SVGID_1_" overflow="visible"/>
    </clipPath>
    <path class="st3" d="M100 1159.2l8.6-8.6"/>
    <path class="st0" d="M100 1159.2z"/>
</svg>
