<svg xmlns="http://www.w3.org/2000/svg" xmlns:xlink="http://www.w3.org/1999/xlink"
    viewBox="0 0 1400 1400" enable-background="new 0 0 1400 1400">
    <style type="text/css">.st0{fill:none;} .st1{fill:none;stroke:#000000;stroke-linecap:round;stroke-linejoin:round;stroke-width:2;} .st2{clip-path:url(#SVGID_2_);} .st3{fill:none;stroke:#FFFFFF;stroke-miterlimit:10;}</style>
    <path class="st0" d="M1300 321.7h-1200v756.6h1200v-756.6z"/>
    <path class="st1"
        d="M136.2 750.2c-.3-.4-.5-1.2-.6-1.7-.4-1.7-.3-3.4-.1-5 .4-4 1.5-8.1 3.4-11.6.8-1.5 1.8-3.1 3.4-4 1.5-1 3-.2 4.6.2l2.2.6.5.3c1.4 1.3 1.4 3.9 1.4 5.6M148.4 749.1l-2.4-.6-2.4-.6-.4-.2c-.9-.9-.8-2.9-.7-4 .2-2.5.9-4.9 2-7.1.5-1 1.2-2.2 2.3-2.7.8-.3 3.3.7 3.3.7l2.5.7M149.1 728.8l-.5-.1c-2.2.3-3.5 2.6-4.5 4.4-2.3 4.2-3.7 9.4-3.7 14.2-.1.8 0 1.6.1 2.4.1.6.2 1.3.5 1.8l.3.7.4.5c1.5 1.3 3.3-.8 4.2-1.9l.6-1 .6-.9M136.1 750.1l1.1 1.3c1.5.8 3.4 1 5.1 1.5M136.1 750.1c-1.7-.6-1.9-3-1.9-4.6-.1-4.6 1.1-9.5 3.4-13.5l.6-1c.7-1.2 2.2-3.4 3.9-3M142 728c-.4-.6-.7-.9-1.4-1-2.2.1-3.6 2.5-4.5 4.2-2.3 4.3-3.7 9.5-3.5 14.4l.1 1.2c.2 1.4.7 4.2 2.7 3.7l.7-.3M142 728c-1.3-2-3.2-1.9-5.7-2.6-2.6-.7-5.2-1.6-7.9-2.1-2.2.3-3.5 2.6-4.5 4.3-2.1 3.9-3.4 8.5-3.7 12.9-.1 1.9-.2 4.5.9 6.2 1 1.5 3.8 1.6 4.9 1.9l3.3.9c2.3.6 4.2 1.8 6.4.8M133.5 750.5c-1.8-1.1-1.8-3.7-1.8-5.6 0-4.8 1.4-10 3.7-14.2.9-1.7 2.6-4.7 5-4.2M144.6 727.6l-.6-.1c-2.2.3-3.5 2.6-4.5 4.3-2.1 3.9-3.4 8.4-3.7 12.9-.2 2.2-.3 5.6 1.8 6.9M111 715.4c-.3-.2-.7-.4-1-.4-.9 0-1.1.7-1.6 1.4-1.5 2.3-2.7 4.9-3.7 7.5-.7 1.8-1.3 3.6-1.8 5.4l-.9 3.7-.6 3.6-.3 3.4v3.1l.1 1.4.2 1.3v.2c.5 2.2 1.6 5.5 4.4 5.6 1.8.1 3.3-.8 5-1.5M121.9 747.3c-2.6.4-3.4.5-6 1.1s-3.2 1-5.7 1.8M107.7 751.4l-.7.2c-.6-.1-.8 0-1.4-.3-2.2-1.1-2.6-4.4-2.8-6.5l-.1-1.5v-1.7c.1-4.4 1-8.9 2.3-13.2 1-3.6 2.4-7.1 4.3-10.4 1.1-1.9 2.4-3.8 4.2-5.2.9-.6 1.9-1.2 3.1-1 1.6.3 2.5 2.3 3.4 3.4 1.6 2.1 2.1 2.5 3.9 4.3M122 747.4h-.8c-2.4-.5-2.5-3.9-2.4-5.9 0-4.9 1.4-10.2 3.8-14.5.7-1.3 1.5-2.6 2.7-3.6.5-.5 1.2-.9 1.8-.9s.7.2 1.2.5M128.4 723.3l-.2-.2-2.5-2-2.2-2.1M109.1 715.3l.9-1.2c1.3-1.5 3.5-3.4 5.7-2.9.6.1 1 .3 1.5.6.4.3.8.7 1.1 1.1M128 723l1 .4M162.8 738l4.1 1.1 25 6.7c3 .8 3.6.5 5.5 2.1.4.3.5.9.6 1.4.2 1.1.1 2.3-.1 3.4-.3 2.2-1 4.4-2.2 6.3-.4.7-.9 1.5-1.7 1.8l-.4.1-1.2.2-.4-.1-4-1.1-24.9-6.7-4-1.1M196 746.9l-.4-.1c-1.1.3-1.7 1.1-2.2 2-1.4 2.3-2.2 5.1-2.5 7.8-.1 1.4-.2 3.4 1.1 4.3M197.3 747.8c-.5-.3-.2-.2-.7-.3-1 .2-1.6 1-2.1 1.9-1.4 2.2-2.1 4.8-2.3 7.3-.1 1.2-.3 3.8 1.3 4"/>
    <path class="st1"
        d="M179.3 752.1l-.6-.1c-1.3 0-2.4 1.2-2.1 2.6.2 1.2 1.2 2.2 2.4 2.4.3.1.6.1 1 .1 1.2-.2 1.5-.9 1.4-2.1-.1-1.3-.9-2.5-2.1-2.9zM181.5 755.4c-.7.2-1.3.4-2.1.4-1.2-.1-2.5-.5-2.9-1.7M1292.9 1031.4l-.5.3M1283.7 1065.5l-.4-.8M1241.5 1028.3l11.3 3M1249 1045.5l-11.3-3.1M1227 1039.5l-10.3-2.7M1263.8 1030c-.5-1-1.3-1.5-2.3-1.6-2.2.6-3.5 2.9-4.5 4.8-2 3.9-3.2 8.5-3.4 12.9-.1 1.7-.1 3.7.7 5.3.8 1.4 2.2 1.6 3.6.8M1271.3 1056.8c-2.5-.7-5.1-1.4-7.5-2-.4-.2-4-.6-5-1.8-1.2-1.5-1.2-4-1.1-5.8.2-4.5 1.4-9 3.4-13 .9-1.6 2.1-3.9 3.9-4.6 1.5-.6 4.5.8 5.2 1l3.3.9 4 1.1.6.1M1285.6 1036.4c.7-.2 2.3.5 2.2 1.4l-.1.2v.2l-.1.2-.2.3-.4.7-.6 1.5-1.2 3.2M1282.8 1054l2.5.7 2.5.7.7-.1c3.1-1.4 4.3-5.5 4.4-8.6.1-1.4-.1-3.2-1.1-4.2l-.3-.2-5.2-1.4M1287 1039.2c1.5-2.9 3-5.8 5.7-7.7M1286.3 1031l2.8-1c2.1-.8 3.7-2 5.9-1.4 1.3.4 2.2 1.7 2.7 2.9 1.2 2.4 1.2 5.6 1.1 8.3-.3 6.1-1.8 12.2-4.1 17.8-1.5 3.6-3.4 7.2-6.4 9.8M1292.2 1028.7c-3.2 1.4-5.1 4.7-6.7 7.7-3.4 6.7-5.5 14.6-5.7 22.1v3.2l.2 1.4c.4 2.3 1.6 5.9 4.5 5.9.6 0 1-.1 1.7-.3s1.3-.6 1.9-1M1283.6 1065.3c.3.4.4.6.9 1 2.2 1.6 4.7-1.2 5.9-2.7l.8-1.1.8-1.3c2.1-3.7 3.5-7.8 4.5-11.8.8-3.5 1.4-7.1 1.4-10.6l-.1-1.5c-.2-2.3-.7-5.6-3.4-6.2-.6 0-1.1.1-1.7.4M1286.9 1030.9c-3 .9-6 1.6-9 1.9M1277.6 1032.6l-.6-.1c-2.2.6-3.5 2.9-4.5 4.7-2 3.9-3.3 8.6-3.4 13-.1 2.1-.2 5.5 2 6.5M1281.6 1067.2c-1.8-2.3-3.6-4.5-5.6-6.6M1285.1 1044.1c-1.9 6.1-3.3 12.5-2.3 18.9M1283.3 1064.8c-.4-1.2-.2-.6-.5-1.8M1287.8 1055.4c-1-.7-1-2-1-3.1.1-2.5.7-5.2 1.9-7.4.5-1 1.5-2.7 2.9-2.5M1290 1054.4c-.5.2-.3.2-.7.2-1-.3-1-1.5-1-2.4 0-2.4.7-5.1 2-7.2.4-.6 1.3-1.9 2.1-1.4l.4.6M1276.3 1060.9c-1.5-1.4-3.1-3.1-5.1-4M1271.9 1057.2c-1.6-1.6-1.6-4.3-1.5-6.4.2-4.5 1.4-9.1 3.5-13.2 1-2 2.3-4.3 4.6-4.9M1263.4 1030.3c1-.6 1.8-1 2.8-.8M1263.8 1030c-.4-.6-.8-.9-1.6-1.1-1.8.3-2.9 2-3.8 3.5-2.5 4.2-3.9 9.4-4 14.3l.1 1.3.1 1.1c.1 1.2.6 3.5 2.2 3.5.5 0 .7-.2 1.1-.4M1264.1 1029.9c-2.1 1-3.4 3.6-4.2 5.7-1.5 3.2-2.4 6.8-2.7 10.4-.2 2.2-.1 4.4.8 6.4M1259.7 1053.7c-.9-.3-1.4-.8-1.8-1.7M1262 1028.4c-1.6-.4-3.4-1.1-5.1-1.2-2.2.6-3.5 2.9-4.5 4.7-2 3.9-3.2 8.5-3.4 13-.1 1.8-.2 4.3 1 5.8.7.9 2.3 1 3.2 1.3l2.2.6M1257.9 1052.2c-2-.7-2-3.8-1.9-5.5.1-4.6 1.5-9.5 3.8-13.4.8-1.4 2.2-3.5 4.1-3.2M1213 1035.8c-3-.8-6.1-1.6-9.1-2.5l-.6-.6c-.6-1.1-.6-2.5-.5-3.8.2-2.4.9-4.8 2-7 .5-1 1.4-2.7 2.6-2.8h.4l4 1.1 15.4 4.1 4 1.1M1207.5 1019.2c-.7.1-1.5 0-2.1.5-1 .8-1.6 2-2.1 3.1-1 2.1-1.5 4.4-1.5 6.6 0 .8 0 1.8.5 2.6.3.5.8.7 1.3 1.1M1218.8 1022.2c1.4-.5 2.8-.2 3.8 1"/>
    <path class="st1"
        d="M1217 1036.6c.7-.2.3-1.2 0-1.6-.6-1.1-1.6-2.2-3-2.2l-.7.2c-1.4.7-.9 2.3 0 3.2 1.1 1 2.6 1 3.9.3l-.2.1zM1212.5 1034.9c1 1.8 3.2 1.8 4.8.9M1162.8 418l-.6 1.1M1162.8 418l-.5.9M1139.1 386l-1.4-.4M1153.7 392l2.9.4M1111.8 383l-13.9-3.8M1100.4 397.1l-6.8-1.8M1156.7 392.5h-.2c-1.7.2-2.8 1.9-3.7 3.3-2 3.4-3.2 7.7-3.4 11.7l-.1 1.1c0 1.5.1 3.9 1.7 4.7M1168.1 394.8l-2.4-.6c-2.2.2-3.6 2.7-4.5 4.5l-.6 1.2c-1.6 3.6-2.6 7.6-2.6 11.5 0 1.5.1 3.6 1.2 4.7.6.6 2.4.8 2.9 1M1172.5 414.2c-.4.4-.8.6-1.3.7-1.3-.2-1.4-1.8-1.4-2.8-.1-3 .8-6.2 2.2-8.7l.5-.6c.5-.8 2-2.6 2.8-1.2.2.3.2.6.4 1M1182.6 415.5c-.6.4-1 .8-1.7 1l-.3-.1-4-1-1.4-.4-4-1.1-.5-.5c-.5-.9-.4-1.9-.4-2.9.2-2.2.7-4.4 1.8-6.3.4-.6 1.1-2 2.2-2l.3.1 4 1 1.4.4 4 1.1.5.5.6 1.3.1.4c.6 2.1-.2 4.6-1 6.5-.4.9-1 2.2-2.1 2.3-.8-.2-.9-1.2-1-1.9-.1-2 .6-4.2 1.5-6.1.5-.8 1.6-2.5 2.4-1.1M1183.9 404.7l-.3-.1c-1 .2-1.6 1.2-2.1 2-1 1.9-1.7 4.2-1.8 6.3-.1 1.1-.2 2.7.9 3.4M1173.2 396.9c-.8-1-1.4-2.2-2.7-2.5-2.3.3-3.8 2.9-4.7 4.7-1.7 3.3-2.7 7.1-3.3 10.7-.2 1.9-.4 3.9.1 5.9.1.9.5 2 1.2 2.6.4.3 1 .4 1.5.3 2.2-.7 3.6-1.2 5-3M1175.3 401.6c-.3-.5-1-2.3-2-2.6l-1.2-.3c-1.8 0-2.9 2.2-3.6 3.6-1.5 3-2.4 6.7-2.3 10.1.1 1.2.2 3 1.6 3.5l1.1.3h.4l.4-.2 2.1-1.1M1167.9 417.6c-.4.2-.2.1-.7.1-1.9-.5-2-3.3-2-4.9 0-4.4 1.3-9.1 3.5-13l.5-.9c.8-1.1 2.8-3.5 4.2-1.8M1173.3 398.9h-.4c-1.4.4-2.2 1.7-2.9 2.8-1.6 2.8-2.6 6.2-2.7 9.5-.1 1.5-.2 4.1 1.5 4.9M1171 394.6l-1.3-.3c-1.9.2-3.2 2.1-4.1 3.7-2.5 4.2-3.9 9.5-4 14.4-.1 1.7-.1 4.6 1.4 5.8.4.3.7.3 1.2.5M1167.6 394.7c-.3-.8-.9-1.3-1.7-1.5-2 .2-3.2 2.1-4.1 3.7-2.5 4.2-3.9 9.5-4 14.4v2.3c.2 1.4.7 4.4 2.9 3.8.5-.1.6-.3 1-.6M1159.5 417.4c-.3-.1-1.2-.2-1.6-.6-.6-.4-.8-.9-1-1.5-.6-1.6-.6-3.4-.5-5 .2-4.4 1.5-8.9 3.5-12.8.7-1.4 1.6-2.9 2.9-3.9.5-.4 1-.7 1.6-.7l.5.1 1.4.4M1171.4 394.8c1 1.2 2.3 2.3 2.7 3.9l.2 1.4M1159 423.1c-1 .7-1.8 1.3-3.1 1.4-3.2-.6-3.7-4.8-3.8-7.5l-.1-1.6.1-1.7c.2-4.5 1.1-9 2.5-13.3 1-3.4 2.5-6.8 4.4-9.9.7-1.2 1.5-2.3 2.5-3.4.5-.5 1-1 1.7-1.4.5-.3 1-.5 1.5-.6 2.7-.6 3.8 2.6 4.2 4.6l.2 1.4.1 1.4.1 1.6v.3M1169.2 394.3v-1.1l-.1-1.5c-.2-2.8-1-7.1-4.4-7.3-3.7.4-5.8 4.1-7.5 7-1.6 2.7-2.8 5.8-3.8 8.8-1.6 5-2.6 10.5-2.5 15.8 0 .7 0 1.5.1 2.2l.1.6.2 1.3c.6 2.1 2.2 5.5 5 4.5.6-.2 1-.4 1.6-.8M1154 392l-2.8-.6c-1.1 0-1.9.7-2.6 1.5-1.4 1.8-2.3 4-3 6.1-.9 2.7-1.4 5.6-1.3 8.5 0 1.1.1 2.7 1 3.6.6.7 2.9 1.1 3.3 1.3l2.5.9h.1M1146 411.6l-2.8-.7-2.7-.4M1130.9 409.7c2.1.6 2 .3 4.6.4 2.3 0 2.9.1 5.1.4M1143.9 388.6l-2.2-1.1c-1-.6-2-1.4-3.2-1.7-1.9.2-3.2 2.1-4.1 3.7-2.5 4.2-3.9 9.5-4.1 14.4 0 1.9 0 4.9 1.9 6M1151.2 391.4c-2.6-.8-5.1-1.7-7.5-2.8M1073.7 372.7l-4-1.1-16.5-4.5-4-1.1h-.4c-1.3.4-2.1 1.5-2.7 2.6-1.5 2.7-2.4 5.9-2.6 8.9-.1 1.2-.2 3.6 1 4.5l.3.1 4 1.1 9.3 2.5 4 1.1M1050.4 381c-.2-.5-.2-1 0-1.5.2-.4.4-.6.6-.9 1.7-1.3 3.8.4 4 2.1.2 1.1.1 2.4-1.3 2.5h-.2M1054.2 383.2l-.7.1c-1.3 0-2.3-.7-2.9-1.9M1048.8 366.1l-4 .4-.7.3c-.9.6-1.5 1.7-1.9 2.6-.9 1.9-1.5 4-1.7 6-.1 1.1-.1 2.4.3 3.4.4.9 1.4 1.4 2.2 1.9l1.7 1.3M1050.3 380.3c.6 1.9 3.4 1.8 4.9 1.3M1030.7 418.9v.9M1043.1 380.9l-2.6 3.2-15.2 18.8c-1.1 1.4-3 3.3-3.8 5.1-.3.9-.4 1.9-.4 2.9.1 5 5.3 7.7 9.6 8.9l4 1.1M1021.1 410c0 1 0 1.2.3 2 1.6 4.7 7.3 6.3 11.5 7.5l2.3.6M1079.4 365.6c-2.1-.6-4.1-1.2-6.2-1.6-1.7-.3-3.4-.5-5.2-.5-4.6.1-10 .8-13.7 3.9M944 646.5c0-1.2.2-2.5-.3-3.6-1.4-3-5.4-4.1-8.3-4.3M943.7 645.9c.2-.6.2-1 .3-1.6M943.9 689.3l1.9.3M943.5 670.4v-4.4M925.6 707.5l-1.5-1.1M924.1 683.3v23.1M832.6 665.9v4.3M839.8 675.4v23.2M841.5 700l-1.7-1.4M837.8 699.3l2-.7M919.5 629.7v.2M856.9 629.8v-.2M830.2 689.4l2-.3M851.9 706.3v-23.1M850.4 707.4l1.5-1.1M936.1 698.7v-23.1M934.5 700.1l1.6-1.4M938.2 699.5l-2.1-.8M832.3 648.7v-2.3c0-.8 1.1-1.9 1.4-2.3l1.4-1.7"/>
    <path class="st1"
        d="M842.9 639.2c6.1-6.1 14.3-9.8 22.6-12.1 12.3-3.4 25.7-3.8 38.3-1.6 7.7 1.4 15.3 3.9 22.1 7.9 3.4 2.2 6.7 4.6 9.3 7.8 1.8 2.2 3.3 4.5 4.2 7.2.6 1.8 1 3.8 1 5.6.1 11.1-9.6 19.1-18.7 23.5-1.7.8-3.5 1.5-5.3 2.2-1.9.7-3.8 1.3-5.7 1.9-7.3 2-14.7 2.8-22.2 3-14.7-.2-30.5-3-42.4-12.3-6.6-5.1-11.7-12.8-9.9-21.4.4-2 1.1-3.8 2.1-5.6 1.1-2.3 2.8-4.3 4.6-6.1zM835.1 642.4l1.5-1.5c.6-.6 1.4-2 2.5-1.8l.8.3"/>
    <path class="st1"
        d="M934.7 672.9c2.5-2.7 4.7-5.5 6-8.9.9-2.4 1.2-4.7 1.2-7.3 0-1.6 0-3.2-.3-4.7-2.8-12.2-14.7-19.6-25.7-23.5-1.8-.7-3.7-1.3-5.6-1.8-3-.8-6-1.4-9.1-1.8-4.2-.6-8.5-.9-12.7-1-8.4.1-16.7 1-24.8 3.4-1.8.5-3.7 1.2-5.5 1.9-10.1 3.9-20.8 11.1-23.4 22.3-.4 1.6-.5 3.3-.5 4.9 0 2.6.3 5.1 1.3 7.6 1 2.6 2.6 5.1 4.4 7.2 2.7 3.1 6 5.6 9.6 7.7 5.9 3.5 12.5 5.9 19.2 7.4 13.7 3.1 28.4 2.9 42-.8 6.5-1.8 12.7-4.2 18.4-8.1 1.9-1.2 3.7-2.8 5.5-4.5zM936.1 675.6c.4.1.8.2 1 .5 1.7 1.3 1 4.4 1 5.9v17.6M925.6 707.5c3-1.5 6-3.1 8.9-5.1M941.7 669.4c.4.1.8.1 1.1.4 1.9 1 1.1 4.3 1.1 5.8v17.5l-1.3 1.7s-2.9 3.3-4.5 4.7M934.5 702.4v-17.5c0-1.6.7-4.6-.9-6-.3-.2-.6-.4-1-.5M925.6 707.5v-17.6c0-2.5.7-5.1-1.5-6.7M834.2 654.9c0 2 .1 3.8.6 5.7 2.8 10.3 12.9 16.8 22.1 20.6 12.8 5.2 27.3 6.6 41 5.1 8.2-.9 16.4-2.9 23.9-6.3 7.8-3.6 15.7-9.3 18.8-17.6.7-1.9 1-3.7 1.2-5.7M947.8 678.9v-17.6c0-2.6.1-3.9-.3-6.2-.2-1.3-.6-2.6-1-3.8-.5-1.3-.6-2.4-2.1-2.5l-.9.1M944.2 648.8c1 2.3 1.5 4.5 1.9 6.9M945.4 659.2c.8 0 2.5.3 2.4 1.6-.2 1.8-.6 3.6-1.2 5.3l-.7 1.8v21.7M947.8 660.8v21.7c-.1 2.5-1 4.9-2 7.1M945.4 655.8c1 0 2 0 2.4 1.1M945.4 655.8l.1 3.4M943.5 666c1.1.2 2.2.6 2.3 1.8M942.2 669.5c-1.6 2.3-3.5 4.3-5.5 6.2M925.6 685.8c3-1.5 6-3.1 8.9-5.1M938.2 677.8c2.2-2 4-4 5.7-6.4M946 659.2c-.3 2.5-1 4.7-1.9 7M941.7 669.4c1.4-2.2.7-1.1 1.9-3.3M936.1 675.6l-3.5 2.8M933.1 678.6c-2.8 1.8-5.6 3.4-8.6 4.9M908.7 688.7c3.7-.9 7.3-1.9 10.8-3.2M920.5 687.9c-3.7 1.2-7.3 2.3-11.1 3.3M891.1 693.4c4.1-.2 8.2-.5 12.3-1.1M908.6 688.4c1.3 2 .9 4.6.9 6.9v17.5M891.1 715.1c4.1-.2 8.2-.6 12.3-1.1M909.4 712.8c-1.7-2.5-.9-.7-.9-5.5v-19M902.8 689.5l5.8-1.1M902.8 689.5c1 2.1.6 4.8.6 7v17.6M903.4 712.5l2.3-.3 2.9-.6M920.5 709.6c-3.7 1.4-7.3 2.4-11.1 3.3M920.5 707.9l1.3-.4 2.3-1.1M919.3 685.3c1.9 1.8 1.3 4.3 1.3 6.8v17.5M924.1 683.3l-4.8 2M891 690.9c4-.2 8-.5 12-1.1M872.9 689.8c4 .6 8 .9 12 1.1M891 690.5v23.2l.1 1.4M884.8 715.1v-17.6c0-2.3-.1-4.6.1-7M884.8 693.4c-4.1-.2-8.2-.6-12.3-1.1M868.7 686.4c0-1.4-.1-2.6.5-3.9M856.4 685.5c3.6 1.3 7.1 2.3 10.8 3.2M872.5 713.9v-17.5c0-2.2-.3-4.8.6-7M855.4 687.8c3.7 1.3 7.4 2.4 11.1 3.3M867.4 688.3l5.7 1.1M866.5 712.8v-17.6c0-2.2-.5-4.9.9-6.9M866.5 712.8c1.7-2.5.9-.8.9-5.5v-19M855.4 709.5c3.7 1.3 7.4 2.4 11.1 3.3M884.8 715.1c-4.1-.2-8.2-.6-12.3-1.2M872.5 712.5l-2.3-.4-2.8-.6M891 713.7h-6.1M891 690.5l-3.1.1-3-.1M841.5 702.3c2.9 1.9 5.8 3.6 8.9 5.1M851.9 683.2c-2.2 1.6-1.5 4.2-1.5 6.7v17.6M855.4 707.8l-1.2-.4-2.3-1.1M855.4 709.5v-17.5c0-2.4-.6-5 1.3-6.7M842.9 678.5c2.7 1.9 5.6 3.5 8.5 5M850.4 685.7c-3.1-1.5-6-3.1-8.9-5.1M834.4 669.3c-.8.1-1.6.4-2 1.1l-.2.8 1.2 1.7c1.4 1.8 2.9 3.2 4.5 4.7M841.5 702.3v-17.6c0-1.5-.7-4.6.9-5.9.3-.2.6-.3 1-.5M833.8 669.4c1.7 2.3 3.5 4.3 5.5 6.3M837.8 699.3v-17.5c0-1.6-.7-4.6 1-5.9l1-.5M832.6 665.9c1.1 2.3.5 1.2 1.9 3.4M843.4 678.3l-3.6-2.9M837.8 699.3c-1.6-1.5-3.1-3-4.5-4.7l-1.2-1.7v-21.7M832.6 665.9c-.4.1-.8.1-1.2.3-2 .9-1.1 4.3-1.1 5.7v17.5c-.9-2.2-1.8-4.6-1.9-7.1v-17.6c0-1.3-1-5.2 1.4-5.6h1M832 648.7c-.9 2.3-1.6 4.5-1.9 7M830.1 659.1c.3 2.5 1 4.6 1.9 6.9M830.2 667.8c-1-2.4-1.6-4.6-1.9-7.2M828.3 660.5v-3.5c0-1.9.7-4 1.4-5.8.4-1.1.7-2.6 2.1-2.6l.9.1M839.4 639.1c-2.1 1.9-3.8 3.9-5.5 6.3M834.5 645.5c-1.4 2.2-.7 1.1-1.9 3.3M830.7 655.6h-.6c-.8 0-1.5.3-1.8 1.1M830.7 659.1v-3.5M832.5 645.8c.6-.6 1.3-.5 2.1-.3M843.5 636.5l-3.5 2.9M843 636.3c2.8-1.9 5.6-3.5 8.6-4.9M867.5 626.4l-.5-.5-2.9.7-5.5 1.6c-1.7.6-3 .3-3 2M841.7 637.9v-.8c0-1.2 1.7-1.8 2.4-2.2 1.4-.9 2.9-1.8 4.4-2.6 2-1 2.2-1.7 3.6-.7M856.5 629.3c3.6-1.3 7.1-2.3 10.8-3.2M872.7 625.3c0-.7.3-.6.5-.1M872.9 624.8c4.1-.6 8.1-1 12.2-1.1M891.3 623.7l-.1.4M885.1 623.7l.1.3M891.3 623.7c3.1.1 6.2.3 9.2.7 1.4.2 3.1-.5 3.2 1M906.9 626.2l.3-.2M903.2 625.3l.4-.5M908.8 626.4c.9-1.3 1.4-.4 3.4.1l5.5 1.6c1.8.6 3 .3 3 2M934.7 638.1v-.9c-.1-1.2-1.8-1.8-2.5-2.2-1.4-.9-2.9-1.8-4.3-2.6l-2.5-1.2h-.1c-.4 0-.6.2-1 .5M909 626.1c3.7.9 7.3 2 10.8 3.2M924.7 631.4c3 1.5 5.8 3.1 8.5 5M936.3 639.4l.8-.3c1.1-.2 2 1.2 2.5 1.8 1 1 2.1 2.2 3 3.4l1.1 1.6.2.4v2.5999999999999996M936.8 639.3c2.1 1.9 3.8 3.9 5.5 6.3M936.3 639.4l-3.5-2.8c.5-.2 1-.5 1.5-.2M924.3 631.7l-4.8-2.1c.3-.3.6-.6.9-.6M941.7 645.6c1.3 2.2.7 1.1 1.8 3.3M941.7 645.6c.7-.1 1.4-.3 2 .3M856.9 629.6l-4.9 2.1M855.9 629.1c.4-.1.7.3 1 .5M843.5 636.5c-.3-.2-.6-.3-1-.4l-.6.2M851.9 683.2l4.8 2M968.8 562.1l-4.6 5.7M1118.3 325.9l-5.6-1.5M968.8 562.4v-.3M958.5 566.3l5.7 1.5M958.5 518.6l5.7 1.5M960.3 513l5.6 1.6M971 542.3l-1.9-.5M992.2 516.1l-2-.5M1055.6 438.5l-4.7-1.2M1076.3 412.9l-4.7-1.3M1090.8 394.8l-4.7-1.2M958.5 566.3v-43.5c0-2.8-.2-5.3.7-7.8.8-2.1 2.3-3.5 3.7-5.2l147.2-182.2 2.6-3.2c.5-.6 1.5-1.8 2.5-1.6l2.9.8c1.5.4 3.5.4 4.2 2.1.9 2.2.6 5.4.6 7.5v36.300000000000004M964.2 567.8v-43.5c0-3.1-.4-7.1 1.7-9.8l2.6-3.3 147.2-182.1 2.6-3.3c.6-.8 1.4-1.5 2.5-1.6M967.9 546.7c-.1-1.6.3-3.3 1.1-4.7.2-.4 1.2-1.9 1.8-1.1l.2.6M991.5 514.4c-.7.1-1.1.8-1.4 1.4-.8 1.5-1.4 3.7-.9 5.4M996.8 527.4l-2 2.5v.3M1052.5 435.2c-1.3 1.2-2.1 2.7-2.7 4.3-1.1 2.6-1.6 5.4-1.7 8.2M1050.3 451.7c.5-.3.9-.6 1.3-1M1073.2 409.6c-2.9 2.9-4.2 7.7-4.4 11.6v1.8c.1 1.1.5 3.6 2.1 3 .5-.1.6-.2.9-.5M1087.3 392c-2.5 3-3.7 7.2-3.9 11.2-.1 1.4-.2 4 1.4 4.8M1094.8 396.1c.6-.1.3 0 .9-.3M1093 392.2c.2-4.2 1.3-8.8 3.9-12.1M967.9 546.7l.2.7c.5 1.2 1.6-.3 1.9-.9.8-1.5 1.3-3.4 1-5.1M989.2 521.2c.5 1 1.3.2 1.7-.4.8-1.3 1.3-3.1 1.3-4.6 0-.6-.1-1.4-.7-1.7M1051.6 450.6c2.6-3.3 4-7.9 4-12.1 0-1.4-.1-3.7-1.8-4-.6.1-.9.3-1.3.6M1049.6 440c-.3 1.4-.6 2.9-1.1 4.2M1048.1 447.8c0 1.4.1 4.3 2.2 3.9M1071.8 425.5c2.9-2.9 4.2-7.7 4.4-11.7l.1-1c0-1.3-.1-3.7-1.8-3.9-.5.1-.9.3-1.3.6M1070.3 414.4c-.3 1.6-.6 3.1-1.3 4.7M1084.7 408.1c1.4.2 2.4-1.3 3.1-2.3 1.9-3.1 3-7.2 3-10.9 0-1.3-.1-3.7-1.8-3.9-.7.2-1.2.5-1.8 1.1M1094.8 396.1c-1.7-.2-1.7-2.6-1.8-3.9M1083.6 401.1c.6-1.5.9-3.1 1.3-4.7M1099.9 379.7c-.2-.5-.6-.7-1.1-.8-.8.1-1.2.6-1.8 1.1M1006.9 572.4l-4.6 5.7M1156.5 336.2l-5.7-1.5M1006.9 572.7v-.3M996.7 576.6l5.6 1.5M996.7 528.9l5.6 1.6M998.4 523.4l5.7 1.4M1059.8 507.2v-.3M1130.3 420v-.4M1009.2 552.6l-1.9-.6M1030.4 526.4l-2-.5M1093.7 448.8l-4.6-1.3M1114.4 423.1l-4.6-1.2M1128.9 405.1l-4.6-1.2M996.7 576.6v-43.5c0-3.2-.4-7.1 1.8-9.7l2.6-3.3 147.2-182.1 2.6-3.2c.5-.6 1.5-1.8 2.5-1.6l2.8.7c1.6.4 3.5.4 4.2 2.1.9 2.2.5 5.4.5 7.5v38.400000000000006c-.5 1.6-4.6 4.3-4.6 6M1002.3 578.1v-43.4c0-3.2-.4-7.1 1.7-9.8l2.6-3.2 147.1-182.2 2.6-3.2c.7-.8 1.4-1.5 2.5-1.6M1006 556.9c0-1.6.3-3.3 1-4.7.3-.5 1.2-1.9 1.8-1.1l.3.6M1029.7 524.7c-.7.1-1.1.7-1.4 1.3-.8 1.5-1.4 3.7-.9 5.5M1059.8 506.9l-2.6 3.3-21.6 26.7-2.6 3.3v.3M1130.3 419.6l-2.7 3.3-39.2 48.6-2.6 3.3v.2M1122.8 418.3c-1.6-.9-1.4-3.3-1.3-4.8.2-3.8 1.4-8.1 3.9-11.2M1090.7 445.4c-1.2 1.2-2 2.7-2.7 4.3-1.1 2.6-1.7 5.4-1.8 8.2M1088.4 461.9c.5-.2.9-.6 1.4-1M1110 435.7c-.4.3-.7.6-1.3.7-1.7-.2-1.7-2.6-1.7-4v-1c.2-4 1.5-8.7 4.4-11.7M1006 556.9l.2.7c.5 1.3 1.6-.2 1.9-.8.8-1.5 1.3-3.4 1-5.2M1027.3 531.5c.6.9 1.3.2 1.7-.5.8-1.3 1.4-3 1.4-4.7 0-.6-.1-1.4-.7-1.6M1089.8 460.9c2.6-3.2 4-7.9 4-12.1 0-1.4-.1-3.8-1.8-4-.6.1-.9.3-1.3.6M1087.8 450.3c-.3 1.5-.6 2.9-1.1 4.3M1086.2 458c.1 1.4.1 4.3 2.2 3.9M1110 435.7c2.9-2.9 4.2-7.6 4.4-11.6v-1c0-1.4 0-3.7-1.7-4-.6.1-.9.3-1.3.6M1108.5 424.6c-.3 1.7-.7 3.2-1.3 4.7M1122.8 418.3c1.4.2 2.4-1.2 3.1-2.3 1.9-3.1 3-7.1 3-10.9 0-1.3-.1-3.7-1.8-4-.8.2-1.2.6-1.8 1.1M1121.7 411.4c.6-1.5 1-3.1 1.3-4.7M195.6 759.2l391.2 105.3M195.8 758.7l389.9 105M847.4 934.1l354.5 95.5M845.6 934.2l356.3 95.9M863.1 888.3v5.1M636.4 832.3v-5.1M180.8 757.8l-14 17.4M176.2 756.6l-14 17.4M158.8 773.1l1067.4 287.3M1223.5 1063.7l-1067.3-287.3M156.2 781.5l-2.8 3.4M1232 1075.4l19.3-23.9M1226.4 1073.8l5.6 1.6M1223.5 1073l2.7-3.2M1235.2 1019.1l5.6 1.5M1253.3 1030.3l-.6-.1M1261.1 948.6l-6.2-.1M1252.5 1030.3h-.4M1251.9 1031.1l.8-.9M1274.1 406.8l6.3.1M1271.2 411.4l-21.8 619M1280.5 404.6l-6.2-.1M1156.5 387.2l.2.1M1153.1 391.8l3.6-4.5M1261.4 935.8l-6.2-.1M1261.3 938.4h.2M1254.7 955l6.3.1M1232 1048.5l-5.6-1.5M156.2 785.7l1067.3 287.3M174.1 739.8l5.6 1.4M197.8 748.7l809-408.4M193.2 746.1l811.5-409.7M995.3 331.8l-4.1-2.7M998.1 328.9l1 .8M299.5 678.3l4 2.7M294.8 685.4l-2.6-1.7M284.6 687.4l-4.1-2.8M280.3 692.7l-4.1-2.7M173.3 740.7l.8-.9M182.1 742.3l-4.1-2.7M178 740.8v-1.2M179.7 742.4v-1.2M179 742.2l.7-1M182.1 742.3v.8M153.4 758.1l-5.7-1.5M153.4 784.9l-5.7-1.5M156.5 728.7l5.7 1.5M968.8 562.4h-.2M968.8 562.4l26.4-32.7M995 529.6l.2.1M1006.9 572.7h-.1M1006.9 572.7l26.5-32.7M1033.2 539.9l.2.1M1059.8 507.3l-.2-.1M1059.8 507.3l26.4-32.8M1086 474.5h.2M1130.3 420h-.2M1130.3 420l7.8-9.8M886.9 912.7c-.9-5-4.2-9.1-8.2-12.1-5.8-4.4-12.7-6.5-19.6-8.3l-218.6-58.8c-4.5-1.3-8.9-2.4-13.6-2.9-3.4-.4-6.7-.4-10-.4l-5 .3c-5.5.6-11 1.8-16.2 3.8-2 .8-4 1.7-5.9 2.7-4.2 2.4-8.1 5.5-10.5 9.8-1.3 2.2-1.2 2.6-1.7 4.8"/>
    <path class="st1"
        d="M582.9 861.2c2.5 2.2 4.2 3.6 7.1 5.2 4.8 2.7 10 4.1 15.3 5.5l218.6 58.9c4.2 1.1 8.3 2.2 12.6 2.7 7.8 1 15.6.7 23.2-.9 5.1-1.1 10.3-2.7 14.9-5.4 3.2-1.9 6.3-4.1 8.7-7 1.3-1.7 2.4-3.5 3.1-5.5 2.1-6.2-.4-12.4-4.9-16.8-6.1-6-14.3-8.6-22.4-10.7l-218.6-58.8c-4.5-1.2-8.9-2.4-13.6-2.9-3.4-.4-6.7-.4-10-.4-3.3.2-6.6.4-9.9 1-5.3.9-10.5 2.5-15.3 4.9-3 1.4-5.7 3.2-8.2 5.5-4.6 4.3-7.6 10.4-5.7 16.8l1.2 2.8c1.2 2.3 1.9 3 3.9 5.1zM158.8 773.1l-2.6 3.3v9.4c0 1.2 0 2.8.9 3.8l.5.3 4.1 1.1 1059.3 285.2c1.8.5 4.1 2 5.8.5l.7-.7v-1.7M1227.5 1075.8c1.2.2 1.6.4 2.9.3 3.5-.2 5-2.9 7.1-5.4l12.6-15.6 2.6-3.3M1226.2 1060.4l-2.7 3.3v9.2c.1 1.5.2 3.2 1.4 4.1M1249.2 1030.4l-.4-4.2-.5-5.9-.3-4.2c-.1-.9-.2-1.7-1.1-2.1-1.7.2-3.1 2.9-3.8 3.8-1.7 2.1-3.4 4.2-4.8 6.6-3.6 6.5-5.7 14.2-6.2 21.5l-.1 2.6v26.9M1234.8 1073.9c.8-1.2 1-2.1 1.1-3.5M1226.4 1073.8v-26.799999999999997l.1-2.6c.3-4.8 1.4-9.5 2.9-14 1.4-4 3.2-7.9 5.8-11.3l2.2-2.8c.2-.2 2.2-3.2 3.3-3.7l.5-.1 5.7 1.6M1241 1043.3c-.6.6-1 .9-1.7 1.1-1.5-.3-1.7-2-1.8-3.3-.2-3.8.9-8.3 3-11.5.6-1 2.4-3.5 3.7-1.9.4.6.5.9.6 1.5M1252.1 1031v-.6l.2-4.1 2.4-67 .2-4.2c.1-4.5.1-9 .2-13.4 0-1.4.1-2.7.1-4 0-.3-.1-1.6.2-1.9M1261.4 935.8c.1.9-.1 1.8.1 2.6M1261.2 949.9c.2-.8.1-1.8.1-2.7.1-1.5.2-3.2 0-4.8M1258.4 1027.5c.9-24.1 1.7-48.3 2.6-72.3.2-4.5.2-9 .2-13.5 0-1.3 0-2.7.1-4 0-.3-.1-1.5.1-1.9M1261.5 938.4c.3-1.6.2-4 .2-5.3l18.5-522 .2-4.2v-1l.1-1.2c.4 2.8.1 5.9 0 8.6l-21.6 610.1-.1 4.2M1255.4 935.7l.2-4.1 18.4-520.6.2-4.2.1-1.1.1-1.2M1160.9 381.8l4 1.1 102.3 27.5c1.8.5 5.3 2.2 6.8-.2M153.4 784.9v-26.9l.1-2.6c.3-4.7 1.4-9.5 3-14 1.1-3.3 2.5-6.6 4.5-9.6 1-1.5 2.4-3.1 3.5-4.5l2.3-2.9.5-.6c.4-.3 1-.5 1.4-.2.6.5.6 1.3.7 1.9l.3 4.2.5 5.9.3 4.1M182.1 742.3c32.8-16.6 65.8-32.5 98.2-49.6 1.7-1 3.1-2.5 3.9-4.2l.4-1.1.6-1.7c1.3-3 3.7-5.9 6.7-7.3 2.1-1.1 4.9-1.4 6.6.6.8 1 1 2.2 2.4 2.4 2 .5 5-1.6 6.4-2.3l684.2-345.4c2.5-1.2 5.3-3.2 8.2-2.9 1.8.2 3.3 1.2 4.1 2.8.5 1 .6 1.7.8 2.9.2 1.1.5 2.2 1.3 3.1l.8.7 4 1.1 68.4 18.4 4 1.1M298.3 678.7c1.5-.2 4.3-2 4.9-2.3l684.2-345.4 3.8-1.9c1-.5 1.9-.9 3-1 3.1-.4 5.5 1.9 8 3.5M178 739.6l3.7-1.9 90.8-45.8c2.3-1.2 4.7-2 6.3-4.1 1.2-1.5 1.6-3.1 2.4-4.8.5-1.1 1-2.1 1.7-3l1.1-1.4c2-2.2 5.5-4.7 8.7-3.6 1.8.7 3.4 2.2 5.1 3.2"/>
    <path class="st1"
        d="M294.8 685.4c-.2-1.1-.5-1.8-1.6-2-2.2.3-4 2.6-4 4.8l.1.6.2.5c.9 1.5 2.9.5 3.8-.5.4-.4.7-.9 1-1.4.2-.4.4-1.1.5-2zM162.4 752.9c-.6.7-1.1 1-2 1.1-1.4-.7-1.5-2.5-1.5-3.9 0-3.8 1.2-8.2 3.4-11.4.5-.8 2-2.6 3.1-1.6l.4.6c.3.5.3.7.4 1.1M168.3 723.6l-5.7-1.5c-1.6.2-3.1 2.9-3.8 3.8-1.7 2.2-3.4 4.2-4.8 6.6-3.6 6.5-5.7 14.2-6.2 21.6l-.1 2.6v26.8M154 784.3c.7.9 1.4 1.6 2.3 2.2"/>
    <defs>
        <path id="SVGID_1_" d="M100 1078.3z"/>
    </defs>
    <clipPath id="SVGID_2_">
        <use xlink:href="#SVGID_1_" overflow="visible"/>
    </clipPath>
    <path class="st3" d="M100 1078.3l10.9-10.9"/>
    <path class="st0" d="M100 1078.3z"/>
</svg>
