<?xml version="1.0" encoding="utf-8"?>
<!-- Generator: Adobe Illustrator 21.1.0, SVG Export Plug-In . SVG Version: 6.00 Build 0)  -->
<svg version="1.1" id="Ebene_1" xmlns="http://www.w3.org/2000/svg" xmlns:xlink="http://www.w3.org/1999/xlink" x="0px" y="0px"
	 viewBox="0 0 1400 1400" style="enable-background:new 0 0 1400 1400;" xml:space="preserve">
<style type="text/css">
	.st0{fill:none;}
	.st1{fill:none;stroke:#000000;stroke-linecap:round;stroke-width:3;}
	.st2{fill:none;stroke:#FFFFFF;stroke-miterlimit:10;}
</style>
<path class="st0" d="M1300,282.5H100v835h1200V282.5z"/>
<path class="st1" d="M1222.7,697.5L108.5,397.4 M1223.7,668.3l2.5,0.6 M1294.4,595.7l-0.5-0.1 M112.1,366.5l-6.4-1.7 M108.5,379.9
	l-7.4-2 M111.5,368.8l-7-1.9 M1220.2,671.9L111,373.2 M1224.5,658.2L115.3,359.6 M1220.2,671.9l3.5-4.3 M1224.5,664.9v-6.7
	 M1284.7,584.2v-0.6 M175.5,285l1109.2,298.6 M1294.4,595.1l-59.6,73.7 M1226.2,668.9l7.4,2.1 M1222.8,679.9l7.3,1.9 M1227.4,666.8
	l7.4,2 M111.9,367.1l-6.2-1.7 M108.5,796.3l-7.4-1.9 M1220.2,672.5l2.5,0.7 M1223.7,668.3l-3.5,4.2 M1234.8,669.5l-7.4-2
	 M1224.8,657.8v6.6 M1230.1,1098.4l-7.3-2 M1272.3,1029.5l-7.4-1.9 M1272.3,763.6l-7.4-2 M150.6,727.5l-7.4-2 M150.6,461.6l-7.4-2
	 M495.6,404.9v6.7 M707.8,462v6.7 M920,519.1v6.7 M1289,586.1l-0.2-1.8c-0.8-4-6.4-3.5-9.4-4.3L185.9,285.6l-7.8-2.1
	c-1.3,0.1-2.1,1-2.9,2 M177.2,416v287.1c0,8.9-0.2,17.4-1.9,26.1c-2.2,10.6-5.6,21.1-11.1,30.5c-2.7,4.5-6,8.3-9.2,12.4l-24.2,30
	c-3.8,4.7-8,12.1-14.9,12.5l-7.4-2l-1.6-0.4c-1.9-0.9-3-2.8-3.8-4.7c-1.7-4.1-1.9-8.7-2-13V386.1c0-3.2-0.3-7.3,0.2-10.7
	c0.4-2.6,1.2-5.3,2.6-7.5l0.6-0.8l1.2-1.5l0.1-1.9c0.1-0.7,0.5-1.6,0.9-2.2l5.1-6.3l49.3-61c2.7-3.4,5.4-8.9,10.4-9
	c1.2,0,2.4,0.2,3.6,0.6 M143,456.1c0.5,3.8,0.3,7.7,0.3,11.6v257.8l-0.1,2.3c-0.4,5.1-1.6,10.1-3.5,14.7c-1.1,2.6-2.3,5.6-4.3,7.7
	 M147.9,453.6l-0.9-0.2c-3.8,0.7-5.9,5-7.4,8.1c-2.5,5.3-4,11.2-4.4,17l-0.1,2.3v266c0,2.8,0.2,6.2,2.7,8 M108.5,397.4v-24.2
	l2.9-3.6 M115.7,359.2c-3.3,4-4.6,9.6-4.6,14.7 M1226.2,669l1.2-1.5v-0.6c-0.1-1.5-1.4-2-2.6-2.4c-0.9,1.2-1.2,2.4-1.2,3.8
	 M1293.8,592c3,0.9,4.8,0.5,5.2,3.6l0.1,1.1v408.4c0,5.6,0.1,11.2-0.5,16.7c-1.5,13.7-5.6,27.9-12.5,39.8c-2.6,4.6-6,8.4-9.3,12.5
	l-24.2,29.9c-3.8,4.7-8,12.1-14.9,12.5l-7.4-2l-1.6-0.5c-1.9-0.9-3.1-2.8-3.8-4.7c-1.7-4.1-1.9-8.7-2-13V687.9
	c0-6.7-0.6-13.4,3.5-19 M1294.4,595.7c0-5.9-4.6-10.2-10-11.7 M1259.5,1056.7c-2.5-1.7-2.7-5.1-2.7-8V782.8l0.1-2.3
	c0.4-6.5,2.3-13.2,5.5-19c1.4-2.5,3.8-6.7,7.3-5.9 M1264.7,758.1c0.5,3.8,0.3,7.7,0.3,11.6v257.8l-0.1,2.3
	c-0.3,5.1-1.6,10.1-3.5,14.8c-1.1,2.6-2.3,5.5-4.3,7.6 M174.5,285.2l-5.2,6.4l-49.3,61l-5.1,6.4v1.1 M1225.6,664.6
	c0-9.3-1.4-4.9,5.1-13l49.3-61.1l5.1-6.4 M506.2,414.5c-1.1,8.4-11.5,10.2-18.4,10.5c-6.9-0.3-17.3-2.2-18.2-10.7 M470.5,417.8
	c5.1-7.6,17-8.4,25.1-6.2c3.8,1,7.5,2.8,9.6,6.2 M506.2,414.5c-0.9-8.4-11.3-10.3-18.2-10.6c-6.9,0.3-17.4,2.1-18.4,10.5
	 M718.3,471.7c-1.1,8.4-11.4,10.2-18.4,10.5c-6.9-0.3-17.3-2.2-18.2-10.6 M682.7,474.9c5.1-7.6,17-8.4,25.1-6.2
	c3.8,1,7.5,2.9,9.6,6.2 M718.3,471.7c-0.9-8.4-11.3-10.4-18.2-10.7c-7,0.3-17.3,2.2-18.4,10.5 M930.5,528.8
	c-1.1,8.4-11.5,10.3-18.4,10.5c-6.9-0.3-17.3-2.2-18.2-10.6 M894.8,532.1c5.1-7.6,17-8.4,25.1-6.3c3.7,1.1,7.5,2.9,9.6,6.3
	 M930.5,528.8c-1-8.4-11.3-10.3-18.2-10.6c-6.9,0.3-17.3,2.1-18.4,10.6 M1287.3,582.1c-1.4,0.1-2.1,1-2.9,2 M1297.7,593h-0.4
	c-1.4,0.4-2.1,1.6-2.9,2.7 M115.9,814.5l-1.6-0.4c-3.6-1.7-4.8-6.8-5.3-10.3l-0.4-3.5l-0.1-3.9V388c0-3.6-0.2-7.1,0.2-10.6
	 M115.7,359.2c-1.2-0.3-2.3-0.5-3.6-0.6c-2.3,0.2-3.9,0.9-5.4,2.7 M110.7,370.8l0.7-1.1 M137.8,754.7c3.5,0.7,5.9-3.4,7.2-5.9
	c3.2-5.7,5-12.4,5.5-19l0.1-2.2v-266c0-2.8-0.2-6.2-2.7-8 M1226.2,668.9l-3.5,4.3v24.3 M1237.6,1116.5l-1.7-0.5
	c-3.6-1.7-4.7-6.8-5.3-10.3l-0.3-3.5l-0.2-3.9V690c0-3.9-0.4-8.2,0.5-12.1c0.4-2.1,1.2-4.3,2.3-6.1l0.6-0.8l1.2-1.5
	c0.4-0.7-0.2-2.7-0.4-3.4c-1.4-4.3-5.3-7.2-9.5-8.3c-3.2,4-4.6,9.6-4.6,14.7 M1259.5,1056.7c3.5,0.8,5.8-3.4,7.3-5.9
	c3.1-5.7,5-12.4,5.4-18.9l0.1-2.3V763.7c0-2.8-0.1-6.3-2.6-8"/>
<path class="st2" d="M100,1117.5l9.8-9.7"/>
<path class="st0" d="M100,1117.5"/>
</svg>
