<svg xmlns="http://www.w3.org/2000/svg" xmlns:xlink="http://www.w3.org/1999/xlink"
    viewBox="0 0 1400 1400" enable-background="new 0 0 1400 1400">
    <style type="text/css">.st0{fill:none;} .st1{fill:none;stroke:#000000;stroke-linecap:round;stroke-width:4;} .st2{clip-path:url(#SVGID_2_);} .st3{fill:none;stroke:#FFFFFF;stroke-miterlimit:10;}</style>
    <path class="st0" d="M1137.1 100h-874.2v1200h874.2v-1200z"/>
    <path class="st1"
        d="M577.2 763.8c-1.4-1-.4-.5-2.3-1.1-4.1.4-6.7 3-9.2 6-5.4 6.7-8.8 15.2-11.3 23.5M630.1 698.4c-1.4-1-.5-.5-2.5-1.1-3.9.4-6.7 3-9 6-5.6 6.7-8.9 15.3-11.4 23.5"/>
    <path class="st1"
        d="M656.3 558.4l1.8-3c3-4.3 10.4-13 15.2-5.7l1 1.9c.7 1.6 1.1 3.5 1.4 5.3.3 2.3.4 4.6.4 6.9 0 15.2-4.4 31.6-12 44.8-2.9 5-6.8 11-12.9 11.6-6.7-1.7-6.9-11.1-6.9-16.9-.1-15.5 4.5-31.4 12-44.9zM855.6 241.2c-12.1-3.1-24.8-7.4-37-9.8-13.4 1.2-22 16.2-29.4 25.2l-478.6 592.6c-8.9 11.1-17.2 21.3-23.5 34.1-11.2 23-18.2 48.5-20.6 74-.9 10-.6 20-.6 30.1v243l.3 4.8c1.6 9.2 10.7 7.8 19.5 10.3l12.8 3.4c9.6 2.7 15.8 8.1 22.1.5l3-3.6M847.2 252l-3.4 3.8-10.3 12.7-478.6 592.6-10.3 12.6-3.4 4.6c-6.6 9.3-11.6 19.6-15.7 30.2-7.6 19.4-12.8 39.8-14.7 60.5-.9 9.9-.6 19.9-.6 30v243c0 3.7.2 9.1 4 10.9M497.6 862.5c-1.3-.9-.6-.5-2.4-1-3.9.3-6.7 2.8-9 5.8-5.6 6.9-8.9 15.4-11.6 23.6M844.1 655.9l-9.6 11.8M844.1 655.9l-9.3 46.6M835 701.7l1.4.5M834.8 702.5l1.6-.3M847.3 647.9l-10.9 54.3M727.8 930.3l-2.7 14.1M726 930.8l-2.3 14.2M727.8 930.3l-1.8.5M708.9 948.6l-1.9 2.2M725.1 944.4l-1.4.6M743.7 880.2l-2.7-.6M735.7 900.8l-1.6-.4M741 899.4l-3.9-1M651.7 994.2l-9.6 11.8M651.7 994.2l-2.8-.6M651.7 994.2l-9.3 46.8M644 1040.7l-1.6.3M654.9 986.2l-10.9 54.5-1.5-.5M639.1 1032.2l-2.6-.7"/>
    <path class="st1"
        d="M824.4 655.4c8.8-14.1 14.1-31.4 14.1-48 0-5.6-.3-15.2-6.9-16.9-6.3.5-10.2 6.7-12.9 11.6-7.6 13.2-12.1 29.6-12.1 45l.1 3.6c.4 5.2 2.7 16.4 10.3 12.4 1.4-.7 2.6-1.8 3.7-2.8 1.7-1.8 2.3-2.8 3.7-4.9zM847.3 647.9l-12.8 15.6v4.2M712.8 934.4v-4.1c.2-1 2.1-2.9 2.5-4 1.4-2.4 2.3-5 2.6-8 .2-1.1.3-2.8-.5-3.6-.9-1-4.3-1.4-4.3-1.4M707.8 929.9c.6-5.6 2-11.5 5-16.4 1-1.4 2.3-3.3 4-3.8 2.3-.6 3 2.2 3.1 3.7.4 4.3-.9 8.7-2.3 12.7M707.1 951.1s3.4 1.4 4.6.8c1.6-.8 2.7-2.5 3.6-3.9 2.1-3.3 3.5-7.5 3.7-11.5.2-1.6.3-4.1-1-5.2-1.1-1.1-3-1.1-4.6-1.4l-.4.2M712.8 934.4c1.1-1.3 3-3.8 4.9-3.4M731.1 921.6l3.6.9h.5c2.1-.6 3.6-3.5 4.4-5.3 2-4 3-8.6 3.1-13.1 0-1.2 0-3.4-1-4.4l-3-.9M735.7 900.8c1.1-1.9 5.6-9.6 7.9-4.8l.7 2.4.4 3.6c-.2 6.7-1.8 13.9-5.1 19.7-1.1 2.1-3 5.3-5.7 5.6-1.7-.5-3.5-4.2-2.8-5.8l1.8-2.3M741.2 899.4l-.4-.1c-3.9.9-6 6.9-7.6 10M707.8 929.9l1.8-2.3.9-3.6c.7-3 2.6-9.5 6.3-9.7M715.8 925.8l3.5.5c1.8 1.2 1.8 4.3 1.8 6.2-.2 5.7-1.6 11.6-4.3 16.9-1.4 2.6-3.3 6.5-6.6 7.5-2.7-.4-3-3.8-3.2-6.1M705.4 946.1c-8.8 10.9-8.1 5.7-8.1 13.9M710.5 952c-1.1-.7-1.3-2.1-1.6-3.4M697.4 960c8.9-10.9 8.1-5.6 8.1-13.9M743.7 876.2l-8.5 10.4-2.1 22.7M734.7 922.5c-1.4-.5-1.6-1.9-1.8-3.1"/>
    <path class="st1"
        d="M716.3 878.7c-2.8-3.4-3.7-7.6-4-12-.4-6.9.3-13.8 1.7-20.3 1.2-5.8 2.9-11.6 5.1-17.3 1.4-3.8 3.2-7.6 5.1-11l2-3.1c3-4.2 10.4-12.8 15-5.7l1.1 2.1c.7 1.7 1.1 3.5 1.4 5.3.3 2.3.4 4.5.4 6.8 0 15.3-4.3 31.8-12.2 45.1-2.8 4.8-6.7 11-12.8 11.5-1.9-.6-1-.3-2.8-1.4zM735.7 900.8l1.1-11.8c7.9-20 6.9-1.3 6.9-12.8"/>
    <path class="st1"
        d="M635.4 975.9c.9 1.1 1.1 1.7 2.5 2.3 5.1 2.4 10.2-4.5 12.5-8.1l1.8-2.9c7.8-13.3 12.2-29.8 12.2-45.1 0-5.6-.3-15.3-7.1-16.9-7.2.6-11.6 9.1-14.6 14.9-5.8 11.5-9.5 24.8-10.2 37.7-.3 6.1-.1 12.5 2.9 18.1zM631.2 1042.1c0-8.3-.9-3 7.9-13.9 0 8.2.9 3-7.9 13.9zM642.1 1006v-4l12.8-15.8"/>
    <path class="st1"
        d="M777.1 752.6l1.8-3c3-4.2 10.4-12.8 15.2-5.6l1 1.8c.7 1.7 1.1 3.6 1.6 5.4.3 2.3.4 4.6.4 6.9 0 15.3-4.5 31.7-12.2 44.9-2.8 5-6.7 11.1-12.9 11.6-6.7-1.7-6.9-11.3-6.9-16.9-.1-15.6 4.7-31.5 12-45.1zM798.7 814.7c1.2 3.9 1.2 7.8 1.2 11.7 0 7.8-.7 15.9-3.5 23.4-1.1 2.9-3.2 8.4-7.1 8.6-3.3-1-3.1-7.2-3.3-10.1-.4-9.7 0-20.2 4.2-29.4l.7-1.7c1-1.7 4.3-7.2 6.9-4.4l.9 1.9zM786.5 852.5s3.7 1.4 4.9.9c3.2-1.7 4.6-6.8 5.3-9.8 1.5-6.1 1.7-12.4 1.4-18.4 0-2.4 0-6.1-1.6-7.9-1.2-1.2-3.2-1.1-4.6-1.5M790 853.4c-2.3-1.7-2.1-5.8-2.2-8.2-.2-7.2 0-14.5 2.2-21.2.7-2.2 2.7-7.7 5.7-7.1M484.6 1205.7c-4.9-7.8-4.5-19.4-4-28.2 1.1-21.5 6.9-43.4 16.6-62.7 4.2-8.5 9.6-18.6 18.1-23.6"/>
    <path class="st1"
        d="M962 287.6l-10.3 12.7-478.6 592.6c-7.4 9.1-14.7 17.5-20.2 27.8-13.4 24.3-21.2 52.6-23.7 80-.9 10.2-.7 20.2-.7 30.2v243l.3 4.8c1.6 9.2 10.7 8 19.5 10.3l12.8 3.4c1.9.6 14.2 6.9 19.4 3.3 1-.8 1.8-1.7 2.6-2.7l10.2-12.6 351.3-434.9 10.3-12.6 9.3-13.4c21.5-31.1 42.5-64.1 66.5-93.7l65.6-81.2 10.2-12.6 3.5-4.5c5-7.4 9.2-15.3 12.8-23.5 9.3-21.1 15.4-44.2 17.5-67.3.9-10.1.6-20.1.6-30.1v-183.2c0-8.8-.6-18.2-4-26.3-1.3-3-3.3-6.3-6.1-8.3l-2.5-1.2-15.6-4.3-12.9-3.5-15.6-4.2-2.8-.6c-8.9.8-14.1 6.5-19.4 12.6zM476.6 1296.7c-3.8-1.7-3.9-7-3.9-10.9v-242.79999999999998c0-10.3-.3-20.2.7-30.3 2.1-22.9 8.1-46 17.5-67.1 3.5-8.3 7.7-16.2 12.8-23.5l3.5-4.5 10.2-12.6 478.6-592.6 10.2-12.6c5.5-6.8 12.6-13.8 21.8-12M980 515.7c-8.5 5.1-14.1 15.3-18.2 23.6-9.6 19.4-15.4 41.3-16.5 62.8-.5 8.8-1 20.5 4.1 28.2M767.4 446.1l-35.9 126.6M754.3 366.6l118.2 31.8M310.4 1095.9l118 31.8"/>
    <path class="st1"
        d="M1047 889.4c.3-7.9 1.3-15.6 3.5-23.5 1.7-6.2 3.7-12.2 6.7-18.1l2-3.9 2.2-3.4c2.6-4.1 9.9-13 15-6.7l1.2 1.9c.8 1.7 1.4 3.7 1.7 5.6.3 2.3.5 5 .5 7.5 0 15.5-4.4 32.1-12 45.4-3 5-6.6 10.6-12.5 12.2-8-.1-8-11.2-8.3-17zM1047 989.7c.3-8 1.3-15.8 3.5-23.5 1.7-6.2 3.7-12.2 6.7-18.2l2-3.8 2.2-3.4c2.6-4.1 9.9-13.1 15-6.9l1.2 2.1c.8 1.7 1.4 3.7 1.7 5.6.3 2.3.5 5 .5 7.5 0 15.5-4.4 32.1-12 45.4-3 5-6.6 10.5-12.5 12.2-8-.2-8-11.3-8.3-17zM878.2 799v229.1c0 14.2-.6 28.4 2.2 42.4 1.3 6.4 3.1 12.9 6.6 18.4 6 10 14.9 10.5 25.9 13.4l86.5 23.3c5.7 1.7 16.9 6.2 24.1 4.8 10.1-2 18.1-10.9 24.4-18.4l10.2-12.6c11.6-14.4 24.5-28.6 34.4-44.5 13.5-22 22.9-46.6 29.8-71.3 5.1-18.7 8.9-37.8 10.7-57.1 1-12.5 1-24.8 1-37v-665.8c0-19.6.3-39.4-4.7-58.5-2.5-8.9-6.2-18.7-13.4-25-6.4-5.7-17.5-7-25-9.1l-86.6-23.3-15.9-4.3-5.2-.5-5.6 1c-17.9 4.9-30 23.2-40.8 36.7l-172.3 213.3-10.3 12.7c-8.4 10.5-6.9 25.9-6.9 38.1v31.5c.2 1.6.4 3 1.3 4.2l1.5 1 15.7 4.3 40.1 10.9 15.8 4.3M870.3 401.6c3.3-5.6 8-10.5 12.3-15.8l172.3-213.3c8.7-10.9 17.3-22.8 28.9-30.9 5.1-3.6 11.2-6.4 17.5-6.7l5.1.4M996.3 644.1v431.99999999999994l.3 9.6c.9 15.6 3.1 36.2 18.7 44.1M428.4 1273.9l-15.7-4.3-83.7-22.5-15.7-4.3-1.6-1c-.9-1.2-1.1-2.8-1.3-4.3v-125.2c0-12.4-1.6-27.6 6.9-38.1l10.3-12.8 47.5-58.8 10.2-12.7c.7-.9 1.6-1.7 2.8-2.3l1.6-.1 15.6 4.3 8.4 2.2 15.7 4.3M428.8 1271c-1-6.3-.3-13.9-.3-20v-107c0-7.1-.3-13.8.3-20.8M977.8 574.6l10.7 3M970.9 582.5l-.9-.3M970.9 584.3l-1.1-.3M974.7 565.6l1.2.4M977.1 566.7l9.6 2.6M971.2 586.5l9.7 2.7M972 585l9.7 2.5M977 568.6l9.5 2.6M986.7 584l-10.8-2.9M975.3 564.1l1.2.3M986.4 570.2l-9.4-2.5M970.9 583.2l-1.4 3M974.5 596.8l4.7 1.1M978.7 516.4c1.9-1.2 3.1-2.2 5.5-3 1.7-.5 3.4-.7 5.1-.4l8.3 2.3 2.1 1.2c6.1 4.3 7.2 14.2 7.6 20.9 1 12.5-.9 25-3.5 37.3-3.3 15-8.3 30-15.8 43.4-4.8 8.8-11.7 20.2-22.6 21.5-10-1.8-11.6-14.2-12.1-22.5l-.2-5.5v-5.8c1.3-25.4 8.7-52.8 22.2-74.4 4.8-7.4 12.1-18 22.2-16.2M981.2 514.8c-9.7 7.1-15.9 18-20.7 28.8-8.4 18.8-13.9 39.7-14.9 60.3-.3 8.3-.1 17.3 3 25 1 3 2.8 5.9 5.3 7.4l2.3 1.1 6.6 1.7M970.4 597.7c1-.9 1.7-2.3 3-3M971.2 576.5c.9-3.5 2-6.9 3.4-10.4l1.4-3.2 1.7-3 1.5-2.5c2.2-2.8 6.9-8.1 10.3-3.5 2 3 2 7.6 1.9 11.3-.3 9-2.8 18.2-6.7 26.6-2.2 4.2-5 9-9.6 10.7-4 0-5.1-4.3-5.6-7.9-.9-8.3 1.3-16.9 3.8-24.9M969.8 593.8l3.7 1c1 1 2.3 4.4 3 5.6l1.1.7c1.1-.3 1.4-2.1 1.7-3l1.7-8.8c.8-3.9 6.4-4.2 7.6-8.1 1.3-4.2-3.3-7.9-1.7-11.8l1.6-4.2s4.3-7.8 1.6-8.5c-2.2.4-3.8 1.8-5.8 2.3l-4.2-1.2M971.8 574.4c-.8 3-.6 5.8-.9 8.8-.3 3.5-.8 6.9-1.1 10.2 0 0-.5 4.1.6 4.3M983.1 553.4c-1.1 0-2 2-2.5 3-1.7 3-3 6.3-4.5 9.3-1.3 2.3-3 4.2-3.8 6.7M970.1 590.3l1.1-3.7.5-1.1c1.9-3.1 4.7-4.1 5.7-7.4 1-3.4-.5-6.3-.7-9.9l.3-1.4 1.9-7.2M984 558.9c-1.7-1 .8-5.1-1.1-5.6M506.1 1161.3l-1.2-.3M522.1 1142.9l-9.5-2.7M522 1143.8l-9.7-2.5M522.1 1144.7l-9.6-2.6M513.7 1147.6l10.8 2.8M517.8 1161.3l-9.6-2.5M522.8 1156.8l-10.8-2.7M506.1 1159.4l-1-.1M506.1 1160.2l-1.5 3.6M507.5 1160.4l9.4 2.6M484.1 1204.8c1 1.9 1.4 3.2 3 5 1.3 1.5 2.5 2.3 4.4 2.9l6.6 1.8 2.3.3c3.1.3 5.9-1.1 8.1-2.8 4.9-3.6 8.6-8.4 11.6-13.5 6.9-10.8 11.7-22.8 15.3-34.7 4.4-14.7 7.4-30.1 7.3-45.3l-.1-5.4c-.6-8.5-2-21-11.9-22.8-10.9 1-17.8 12.4-22.6 21-11.6 20.8-18.5 45.6-19.6 69.3l-.1 5.9c0 9.4.4 22.8 9.7 28M533 1090.6l-8.1-2.2-2.4-.3c-11.6 2.2-18.6 14.9-23.5 24.5-9.6 18.3-15.4 39.2-17.5 59.6-1.1 11.9-1.2 24.1 3.8 35M507 1150.2c.8-3 2.7-5.5 3.9-8.3l2.1-4.8c1.4-3 4.5-11.6 9.6-9.6 4.4 1.8 4 10 3.9 13.6-.5 9.2-3 18.6-7.2 26.8-2.2 4.1-4.8 8.9-9.5 10-5-.9-5.3-7-5.3-10.9-.1-8.9 2.1-18.3 5.6-26.6 1.4-2.9 2.8-5.7 4.9-8.4l1.7-1.9.8-.3M514.8 1133l3.9 1c1.2-.3 4.3-2.5 5.4-3.1h1.2c.9 1 .3 2.6-.1 3.5l-3.1 8.6c-1.4 3.6 3.5 6.9 2.4 10.9-1 4.1-6.1 5-7.4 8.6-1 2.6-1.1 6.7-1.7 9.7-.1 1.1-.4 3-1.8 3.4-2.2-.9-2.4-4.8-4.2-5.3l-4.2-1.1M506 1174.3c-.9-1-.7-2.8-.7-3.8.3-3.4.7-6.9.8-10.3.3-2.8-.1-5.3.3-8.1M513.5 1135.7c-.1 1-1.1 4.2-1.1 6.1.3 3.6 2 5.6 1.1 8.9-.8 3.6-3.6 5.2-5.6 8.3l-.3 1.3-1.9 6.4M509.5 1170.2h-.3c-1 .8-1.8 3.8-3.2 4.1l-.2-.2M518.5 1133.7c-.3-1.4-.4-3-1-4.2"/>
    <defs>
        <path id="SVGID_1_" d="M262.9 1300z"/>
    </defs>
    <clipPath id="SVGID_2_">
        <use xlink:href="#SVGID_1_" overflow="visible"/>
    </clipPath>
    <path class="st3" d="M262.9 1300l30.7-30.7"/>
    <path class="st0" d="M262.9 1300z"/>
</svg>
