<?xml version="1.0" encoding="utf-8"?>
<!-- Generator: Adobe Illustrator 21.1.0, SVG Export Plug-In . SVG Version: 6.00 Build 0)  -->
<svg version="1.1" id="Ebene_1" xmlns="http://www.w3.org/2000/svg" xmlns:xlink="http://www.w3.org/1999/xlink" x="0px" y="0px" viewBox="0 0 1200 1200" style="enable-background:new 0 0 1200 1200;" xml:space="preserve">
<style type="text/css">
	.st0{fill:none;}
	.st1{fill:none;stroke:#000000;stroke-linecap:round;stroke-width:3;}
	.st2{fill:none;stroke:#FFFFFF;stroke-miterlimit:10;}
</style>
<path class="st0" d="M1118,179H82v841.8h1036V179L1118,179z"/>
<path class="st1" d="M1030.3,841.6l1.6,0.4 M1044,853.2l1.8,0.5 M1041.5,847.9l-1.3-0.3 M1037.5,842.7l-1.3-0.4 M1078.4,821.4
	l-7-1.9 M1086.7,908.1l7,1.9 M83,745.6l7.1,1.9 M92.5,311.3l-2.4,3 M83,312.4l7.1,1.9 M1069,844.5l-7.1-1.9 M1068.1,854.3l-1.5-0.3
	 M1060.2,856.5l1.6,0.4 M1060.8,855.3l1.3,0.4 M1056.4,855.8l-1.4-0.4 M1061.1,860.7l-1.7-0.5 M1049.7,854.1l1.4,0.3 M1044.6,857.4
	l-1.7-0.5 M1009.4,995l7,1.9 M1117.1,439.2l-100.7,124.6 M1009.4,561.8l7,1.9 M160.4,658.8l7,1.8 M172.4,519.9l-1.4-0.4
	 M171.9,516.5l2.1,0.5 M169.5,500.8l-1.4-0.4 M159.1,476.7l-1.6-0.4 M152,463.6l1.3,0.3 M160.5,473.3l-1.9-0.4 M144.9,455.4l1.4,0.3
	 M136.6,451.1l1.6,0.4 M139.3,447.8l-1.7-0.4 M163.7,486.2l1.3,0.3 M135.7,593.2l7,1.9 M116.6,607.5l1.6,0.4 M119.5,604.3l-1.7-0.4
	 M105.6,592.6l-1.6-0.4 M107,589.2l-1.9-0.4 M109.8,592.8l1.4,0.4 M123.4,604.7l1.4,0.3 M115.2,598.4l-1.4-0.3 M128.7,606l1.4,0.3
	 M135.6,607.6l-1.7-0.5 M135.8,606.3l-1.4-0.3 M134.7,611.3l-1.7-0.5 M141.7,605l-1.4-0.4 M104.4,579.1l-1.4-0.4 M97.5,566.2
	l-1.4-0.3 M96.8,562.9l2.2,0.5 M98.5,560l1.3,0.3 M100.5,569.9l1.4,0.3 M97,549.1l1.4,0.3 M96.2,537.3l1.4,0.3 M116.4,468.5l-7-1.9
	 M116.2,472.1l-7.1-1.9 M99.8,483.3l-1.6-0.5 M98.5,487l-2.4-0.6 M95.8,524.7l1.4,0.3 M96.1,528.5l-2.3-0.6 M97.5,511.8l-1.4-0.4
	 M97,497.4l1.4,0.3 M145,570.2l7,1.9 M165.3,585.8l7,1.9 M1091.7,835.3l7,1.9 M1098.7,769.3l-1.5-0.4 M1098.2,765.8l2.1,0.5
	 M1094.5,749.9l1.4,0.3 M1091.3,736l-1.4-0.4 M1083.8,725.6l1.6,0.5 M1086.8,722.7l-1.8-0.5 M1078.3,712.9l1.4,0.4 M1071.3,704.7
	l1.4,0.3 M1062.8,700.4l1.7,0.5 M1065.7,697.2l-1.7-0.4 M1042.5,721.5l-7-2 M1023.5,774.4l-1.3-0.3 M1022.5,786.7l1.3,0.3
	 M1020.1,777.3l2.3,0.6 M1023.4,798.5l1.4,0.3 M1026.1,809.7l-1.3-0.3 M1029.4,828.1l1.3,0.3 M1028.1,819.6l-1.3-0.3 M1022.3,815.2
	l1.4,0.3 M1023.2,812.2l2.2,0.6 M1031.5,838.1l1.8,0.5 M1023.8,761.1l-1.3-0.3 M1023.4,746.8l1.4,0.3 M1024.8,736.4l-2.3-0.6
	 M1024.5,732.2l1.6,0.5 M1035.7,715.9l7,1.9 M1106.1,672.3l-7.1-1.9 M454.6,331.7v-5.5 M724.3,404.4v-5.6 M179.7,422.8l-7-1.9
	 M1070.9,815.5c0.7,2.6,0.6,5.4,0.3,8c-0.6,4.2-1.7,8.5-3.5,12.3c-1,2.2-2.5,4.8-4.6,6.2c-2.8,1.8-7,1.7-10.2,1.9l-1.2-0.2"/>
<path class="st1" d="M1040,851.7c1-0.5,1.4-2.2,1.6-3.3c0.1-0.5,0.1-1.3-0.4-1.6c-0.4,0-0.7,0.3-0.9,0.8c-0.5,0.9-0.8,2.1-0.8,3.1
	C1039.4,851.1,1039.4,851.7,1040,851.7z M1037.5,842.7c0-0.5,0-0.9-0.4-1.2c-0.4,0.1-0.8,0.3-0.9,0.8c-0.5,0.9-0.9,2.1-0.9,3.1v0.4
	c0.3,1.4,1.2,0.2,1.6-0.5l0.3-0.9C1037.4,843.7,1037.5,843.2,1037.5,842.7L1037.5,842.7z M1030.6,829.6c0.1-0.7,0.3-1.8-0.3-2.2
	c-0.4,0-0.7,0.3-0.9,0.7c-0.5,0.9-0.8,2.1-0.8,3.1c0,1.2,0.7,1.5,1.3,0.4l0.4-0.9L1030.6,829.6z M1044.4,852.1l-0.3,0.6l-1.1,3.6
	c-0.2,0.8-0.4,1.7-0.3,2.5s0.8,0.4,1.1,0c0.9-1.4,1.5-4,1.8-5.1c0.3-0.8,0.8-2.5-0.2-3C1045,850.7,1044.7,851.5,1044.4,852.1
	L1044.4,852.1z M1031.7,842.5c-0.3,0.4-0.4,0.8-0.9,0.9c-0.4-0.3-0.4-0.7-0.4-1.2c0-0.9,0.3-1.7,0.6-2.5l1.4-3.4l0.3-0.5l0.3-0.3
	l0.3-0.3c0,0,0.6-0.3,0.8,0.2c0.3,0.6,0.2,1.2,0.1,1.8c-0.2,0.5-0.3,1-0.5,1.6l-1.4,3.4C1031.9,842,1031.9,842,1031.7,842.5
	L1031.7,842.5z M1035.6,714.1c0.4,3.4-0.3,7.3-0.7,10.5c-0.5,5.2-0.9,10.3-1.2,15.5c-0.8,15.5-0.3,31.3,3.5,46.4
	c1.6,6.6,4,13.3,8,18.8c2.6,3.5,5.9,6.2,10.1,7.9l3.5,0.9c1.8,0.5,5.5,1.6,7.4,1.7l4.1-0.1c2.2-0.3,5.5-2.4,7.1,0.3
	c1.2,2.2,1.1,5.1,0.9,7.4c-0.3,4.9-1.6,9.9-3.8,14.4c-1,2.2-2.4,4.8-4.6,6.3c-2.8,1.8-6.7,1.6-9.8,1.9c-3.7-0.5-4.7-0.3-8.2-1.9
	c-5.2-2.3-8.9-6.6-11.8-11.2c-6-9.5-8.8-20.7-10.4-31.7l-0.7-4.1l-0.4-4.3c-0.5-4.5-0.8-9-0.9-13.5c-0.2-4.7-0.2-9.6-0.2-14.3
	c0.2-6.5,0.4-12.9,0.9-19.3l0.9-10.1c0.6-6.1,1.5-12.1,4.1-17.7c1.1-2.3,2.8-5.9,5.5-6.9c1.6-0.6,2.8,0.8,3.3,2.2
	c0.9,2.6,0.7,5.5,0.3,8.1l-0.4,4.2c-1.6,16.3-2.3,32.9-0.3,49.3c0.8,6,1.8,11.9,3.5,17.6c2,6.6,5.1,13.6,10.2,18.3
	c2.8,2.6,3.5,2.7,7,4.1"/>
<path class="st1" d="M1081,798.1c-3.5-15.6-7.5-31.8-17-45c-2.3-3.2-5.1-6.3-8.2-8.9c-1.6-1.3-3.8-2.2-5.1-3.7
	c-1.3-1.6-1.4-4.2-1.4-6.1c0-5.7,1.5-11.6,4-16.6c0.8-1.6,1.6-3.1,2.8-4.5c0.8-0.8,1.6-1.8,2.8-2.1c1.6-0.3,2.9,1.2,3.9,1.9l2.4,1.6
	c5,4.1,9.1,9.2,12.4,14.8c3.5,5.5,6.1,11.5,8.3,17.6c4.5,11.9,7.3,24.3,9.2,36.9c4.8,31.6,4.5,64,1.9,95.7l-0.5,5.2l-0.4,4.7
	l-1,10.3c-0.9,7.7-1.4,15.5-4.8,22.5c-1.3,2.7-3,6.3-6.2,6.9c-2.9-0.5-3-4.5-3-6.9c0-3,0.5-6.1,0.9-9.1c0.7-5.5,1.2-11.2,1.7-16.7
	c2.3-25.8,3.1-52.1,0.4-78C1083.1,811.7,1082.1,805,1081,798.1L1081,798.1z M1057.1,712.3l0.9,0.6l2.2,2.1c3.2,3,5.9,6.2,8.3,9.8
	c6,8.8,9.9,18.6,13,28.7c4.9,16.3,7.5,33.3,8.7,50.3c1.8,23,1.3,45.9-0.2,68.8c-0.7,10.1-1.7,20.2-2.9,30.3
	c-0.9,7.3-1.8,15.1-6.3,21.2 M190.7,337.2v280.5c0,4.8,0,9.8-0.5,14.6c-1.1,11.3-3.8,22.6-7.7,33.4c-2.4,6.9-5.4,13.6-9.2,19.9
	c-2.3,3.8-5,7.2-7.9,10.6l-50.3,62.3c-3.4,4.1-6.9,9.4-12.2,11.4l-2,0.5c-1.6-0.1-2.2,0.2-3.7-0.6c-2-1-3.4-2.9-4.3-4.9
	c-1.9-4.1-2.5-8.7-2.8-13.2l-0.2-4.4v-428c0-2.2-1-7.1,2.1-8.1c0.5-0.2,1.1-0.3,1.6-0.2l0.9,0.2l5,1.4l899.9,242.3
	c1.7,0.4,4.9,0.9,6.8,2.2c0.6,0.3,1.1,0.9,1.6,1.3c2.1,2.4,1.3,5.6,1.3,8.5v422.8c0,6.6-0.2,13.6,1.9,20.1c0.8,2.3,1.9,4.7,3.7,6.4
	c1.8,1.7,4.6,2.1,6.9,2.7c2,0.5,3.5,1.3,5.4,1c2.4-0.3,4.6-1.6,6.4-3.2c3-2.5,5.4-5.7,7.8-8.7l50.4-62.4c3.7-4.6,7.2-9.2,10-14.5
	c6-11.4,10.1-24,12.7-36.7c1.1-5.8,1.9-11.7,2.2-17.5l0.1-4.6V439.2l-0.2-1.7c-0.4-2.4-1.6-4.7-3.3-6.6c-1.7-2-4-3.6-6.4-4.7
	l-1.9-0.7l-5-1.3L200.2,181.9c-3-0.9-5.6-1.6-8.6-1.8c-1.5,0.2-1.9,0.1-3.3,0.6c-3,1.2-4.9,4.5-6.8,6.8L87.4,304l-3.3,4
	c-1.9,2.6-1.3,6.9-1.3,9.7v422.8c0,6.7-0.3,13.6,1.9,20c0.8,2.3,1.8,4.7,3.7,6.5c1.2,1.1,1.8,1.3,3.4,1.7l7.1,1.8 M195.4,180.5
	l-3.3,4L98.1,301l-3.3,4.1v6.3 M1025.5,1019.8l-1.7-0.5c-2-1-3.4-2.9-4.3-4.9c-1.9-4.1-2.5-8.7-2.8-13.2l-0.2-4.3V563.7l-0.2-1.6
	c-0.9-5.2-5-9.4-9.7-11.4l-1.9-0.7l-5-1.3L99.8,306.5c-3.1-0.8-5.5-1.6-8.6-1.8c-2.2,0.3-4.2,0.7-5.9,2.2l-0.9,1.1"/>
<path class="st1" d="M1054.4,859.3c-0.2-0.7-0.2-1.3,0-1.9l0.3-1.1l0.4-0.9c0.6-1.1,1.4-0.9,1.4,0.4c0,1-0.3,2.2-0.8,3.1
	c-0.3,0.3-0.5,0.7-0.9,0.8C1054.6,859.6,1054.5,859.6,1054.4,859.3z M1066.9,853.6c-0.3,0.5-0.7,1.2-0.8,1.8l-0.2,1.1
	c-0.1,0.7,0.1,2.5,1,1.3l0.3-0.3c0.6-0.9,0.9-2.1,0.9-3.1c0-0.4-0.1-0.9-0.4-1.1C1067.2,853.2,1066.9,853.6,1066.9,853.6z
	 M1050.2,853.5c-0.4,0.4-0.7,0.9-0.9,1.6l-0.3,1.1l-0.2,1c0,1.2,0.8,1.5,1.3,0.4c0.6-0.9,0.9-2.1,0.9-3.1c0-0.4-0.1-0.9-0.4-1.1
	C1050.3,853.3,1050.5,853.3,1050.2,853.5z M1062.1,855.7c-0.1,1.6-0.6,3.5-0.9,5c-0.2,0.9-0.6,2.2-1.5,2.6c-0.9-0.2-0.5-1.8-0.4-2.4
	c0.3-1.5,0.6-4.3,1.6-5.9l0.3-0.3C1061.9,854.1,1062.1,855.2,1062.1,855.7L1062.1,855.7z M1105.3,425.4l-3.3,4.1L1007.9,546
	l-3.2,4.1v6.4"/>
<path class="st1" d="M167.4,660.6c1.2-10.1,2.3-20.1,3.2-30.2c1.6-20.7,2.2-41.5,1.3-62.3c-0.9-20.9-3.5-42-9.6-62
	c-3.7-12.2-8.8-24.3-17.1-34c-2.7-3.2-5.5-5.9-8.9-8.3c-2.5-1.8-1.4-1.3-3.1-1.9c-3.2,0.2-5.1,4-6.4,6.6c-2.2,4.5-3.5,9.6-3.9,14.6
	c-0.2,2.3-0.3,5.1,0.9,7.3c0.7,1.4,2.2,2.2,3.4,2.9c2.3,1.6,4.5,3.5,6.5,5.6c4.5,5,8,10.9,10.9,17c5.5,11.8,8.7,25,10.9,37.8
	c3.8,23.1,4.2,46.7,3.3,70.1c-0.6,13.5-1.8,26.8-3.3,40.1c-0.4,3.5-1.1,7.2-0.8,10.8c0.1,1.5,0.4,3.5,1.6,4.5
	c1.7,1.6,3.9-0.4,4.9-1.8l0.9-1.3C165.1,671.6,166.6,666,167.4,660.6z M130.8,462.9l0.9,0.7l2.2,2.1c3.2,2.9,5.9,6.2,8.3,9.8
	c6,8.7,10,18.6,13,28.7c5,16.3,7.5,33.4,8.8,50.3c1.7,23,1.3,45.9-0.3,68.8c-0.7,10.2-1.7,20.2-2.9,30.3c-0.9,7.3-1.9,15.2-6.4,21.3
	"/>
<path class="st1" d="M136.6,450.6c-0.3,0.8-0.4,1.6-0.3,2.3c0.2,1.3,1.1,0.3,1.4-0.3c0.8-1.3,1.2-3.6,1.6-4.7c0.3-0.7,0.8-2.5-0.2-3
	c-0.9,0.2-1.2,1.3-1.4,2.1C137.8,446.8,137.8,446.8,136.6,450.6L136.6,450.6z M144.5,459.5c0.4,0,0.8-0.3,0.9-0.8
	c0.5-0.9,0.9-2.1,0.9-3.1c0-0.4-0.1-0.9-0.4-1.1c-0.4,0.1-0.8,0.4-0.9,0.8c-0.5,0.9-0.9,2-0.9,3.1
	C144.1,458.8,144.2,459.4,144.5,459.5z M151.6,467.7c-0.3-0.3-0.3-0.7-0.3-1.1c0-0.9,0.3-1.8,0.6-2.7c0.2-0.3,0.7-1.4,1.2-1.2
	c0.3,0.1,0.3,0.9,0.3,1.1c0,1-0.3,2.2-0.8,3.1C152.3,467.4,152,467.7,151.6,467.7z M158.8,477.2l0.3-0.5l1.4-3.5
	c0.3-0.8,0.5-1.6,0.5-2.4c0-0.4,0-0.9-0.4-1.1c-0.7,0.1-0.9,0.9-1.2,1.4c-0.7,1.6-1.7,3.5-1.9,5.4c-0.1,0.4-0.1,1.1,0.3,1.5
	C158.1,478.4,158.7,477.5,158.8,477.2L158.8,477.2z M164.4,489.2c0.3-0.9,0.6-1.7,0.6-2.7c0-0.4,0-0.9-0.3-1.1
	c-0.5,0-0.8,0.3-0.9,0.7c-0.5,0.9-0.9,2.1-0.9,3.1l0.1,0.4l0.1,0.3C163.3,491.1,164.2,489.6,164.4,489.2z M169.5,501.8
	c-0.2,0.8-0.5,2.7-1.6,2.8c-0.4-0.3-0.4-0.7-0.4-1.1c0-1.1,0.3-2.2,0.8-3.1c0.6-1,1.4-0.8,1.4,0.4L169.5,501.8L169.5,501.8z
	 M174.7,514.5c0.1-0.6,0.2-1.3-0.3-1.6c-0.5,0-0.8,0.4-0.9,0.9c-0.9,1.6-2.2,3.4-2.3,5.4c-0.1,0.4-0.1,1.1,0.3,1.5
	c0.4,0.5,0.9-0.4,1.1-0.8l1.6-2.8C174.4,516.3,174.5,515.4,174.7,514.5L174.7,514.5z M152,572.1c-0.2-2.4-0.1-6.3-2.9-7l-0.9,0.2
	l-4.3,1l-4.1,0.1c-3.5-0.7-4.3-0.5-7.4-2.4c-4.8-2.9-7.9-7.6-10.3-12.5c-4.4-9.2-6.3-19.8-7.3-29.9c-0.4-4.3-0.6-8.6-0.7-12.9
	c-0.1-5.4-0.1-10.7,0.3-16.1c0.3-4.1,0.4-8,0.8-12.1c0.3-4,1.1-7.9,1.1-11.9c0-2.3-0.1-6.4-3.1-6.9c-3.2,0.7-5,4.4-6.3,7.1
	c-3.4,7.2-3.9,15-4.6,22.8c-1,11.2-1.5,22.5-1.3,33.8c0.3,11.6,1.1,23.1,3.6,34.4c1.5,6.6,3.4,13,6.3,19.1c1.2,2.4,2.5,5,4.1,7.3
	c2.1,2.7,3.9,4.7,6.6,6.7c2.3,1.6,4.9,2.9,7.7,3.5c2.8,0.6,5.7,0.7,8.5,0.2l4.6-1.1l0.9-0.4c2.2-1.4,3.5-4,4.6-6.3
	C150.6,583.3,151.8,577.7,152,572.1L152,572.1z M144.5,566.2c0.7,2.6,0.5,5.4,0.2,7.9c-0.5,4.2-1.7,8.5-3.5,12.3
	c-1.1,2.2-2.5,4.8-4.6,6.2c-2.8,1.8-6.7,1.7-9.8,1.9l-1.4-0.2"/>
<path class="st1" d="M113.7,602.3c1-0.5,1.4-2.2,1.6-3.3c0.1-0.6,0.1-1.4-0.3-1.7c-0.5,0.1-0.7,0.4-0.9,0.8
	c-0.5,0.9-0.9,2.1-0.9,3.1C113,601.6,113.1,602.3,113.7,602.3z M117.8,609.1l0.4-1.1c0.4-1.3,1.3-3.5,1.5-5.1
	c0.1-0.5,0.1-1.3-0.4-1.6c-0.8,0.1-1.2,1.3-1.4,1.9l-1.1,3.7l-0.3,0.9c-0.1,0.6-0.2,1.2,0,1.7c0.2,0.4,0.5,0.4,0.8,0.2l0.3-0.3
	C117.6,609.4,117.6,609.4,117.8,609.1L117.8,609.1z M129.8,607.9c-0.3,0.7-0.6,2.2-1.6,2.2c-0.3-0.3-0.4-0.7-0.4-1.1
	c0-1,0.3-2.2,0.9-3.1l0.3-0.3c0.9-1.1,1.1,0.6,1,1.3L129.8,607.9z M141.5,606.6c0.2-0.7,0.6-2.2-0.2-2.8c-0.4,0-0.8,0.3-0.9,0.8
	c-0.5,0.9-0.9,2-0.9,3.1v0.4c0.3,1.5,1.2,0.2,1.6-0.5C141.1,607.6,141.1,607.6,141.5,606.6z M135.6,607.6c0.1-0.7,0.4-2-0.3-2.4
	c-1,0.2-1.4,1.8-1.6,2.6c-0.3,1-1.2,3.9-0.9,5.5c0.2,0.9,0.7,0.8,1.1,0.2c0.4-0.6,0.7-1.3,0.9-2.1
	C134.7,611.3,134.7,611.3,135.6,607.6z M122.8,608.8c-0.3-0.7-0.3-1.4-0.1-2.1l0.3-1.1l0.4-0.9c0.7-1,1.3-0.8,1.3,0.4
	c0,1-0.3,2.2-0.8,3.1c-0.2,0.4-0.4,0.8-0.9,0.8L122.8,608.8z M110.2,596.4c0.5-0.9,0.9-2.1,0.9-3.1c0-0.4-0.1-0.9-0.4-1.1
	c-0.4,0-0.7,0.3-0.9,0.7c-0.5,0.9-0.8,2.1-0.8,3.1l0.1,0.4C109.1,597.6,109.9,597,110.2,596.4z M105.6,592.6
	c-0.3,0.6-0.5,1.3-1.2,1.4c-0.4-0.3-0.4-0.7-0.4-1.1c0-0.9,0.3-1.7,0.5-2.5l1.5-3.4l0.3-0.5l0.3-0.3l0.3-0.3
	c0.3-0.3,0.6-0.3,0.8,0.2c0.3,0.5,0.2,1.2,0,1.7c-0.1,0.6-0.3,1.1-0.4,1.6C107,589.2,107,589.2,105.6,592.6L105.6,592.6z
	 M104.4,580.1c0.1-0.6,0.3-1.8-0.3-2.2c-0.4,0-0.7,0.3-0.9,0.8c-0.5,0.9-0.9,2.1-0.9,3.1c0,1.3,0.7,1.5,1.3,0.4l0.4-0.9
	C104,581.3,104,581.3,104.4,580.1z M99,563.4c0.5-0.9,0.8-2,0.8-3c0-0.4,0-0.9-0.4-1.1c-0.4,0-0.7,0.3-0.9,0.8
	c-0.9,1.7-2.2,3.4-2.3,5.4c-0.1,0.4-0.1,1.1,0.3,1.6c0.4,0.5,0.9-0.4,1.1-0.7C97.5,566.2,97.5,566.2,99,563.4L99,563.4z M99.7,573.4
	c-0.1-0.7,0-1.4,0.3-2.1l0.3-1c0.3-0.6,1.3-1.9,1.6-0.4l0.1,0.4c0,1-0.3,2.2-0.9,3.1c-0.3,0.3-0.5,0.7-0.9,0.8
	C99.8,573.9,99.8,573.8,99.7,573.4L99.7,573.4z M97.3,552.9c0.7-1,1-2.2,1-3.5c0-0.4,0-0.9-0.4-1.1c-0.4,0.1-0.7,0.4-0.9,0.8
	c-0.5,0.9-0.9,2.1-0.9,3.1C96.2,553,96.5,553.6,97.3,552.9z M95.3,540.4c0.1,0.7,0.3,1.6,1.1,0.8l0.3-0.3c0.5-0.9,0.9-2.1,0.9-3.1
	c0-0.4,0-0.9-0.4-1.1c-0.4,0-0.7,0.3-0.9,0.8C95.6,538.2,95.4,539.3,95.3,540.4L95.3,540.4z M93.7,528.2l-0.3,1.1v0.9
	c0.1,0.4,0.3,0.9,0.8,0.6l0.3-0.3l1.6-2c0.8-0.9,1.1-2.3,1.1-3.5c0-0.4-0.1-0.9-0.4-1.1c-0.3,0-0.7,0.3-0.7,0.3
	C94.9,525.8,94.2,526.5,93.7,528.2L93.7,528.2z M136,565.6c-3.5-0.9-7.4-1.6-10.6-3.5c-6.6-4-10.1-11.1-12.5-18
	c-3.3-9.2-4.7-19-5.4-28.7c-0.7-9.6-0.6-19.2,0-28.7c0.3-4.1,0.7-8.2,1-12.3c0.3-3,0.9-6.5,0.6-9.6"/>
<path class="st1" d="M99,482.2l-1.6,1.1c-0.8,0.5-1.1,1.7-1.3,2.7l-0.1,0.5c0,0.4-0.1,2.2,0.8,1.6l1.6-1.1l0.3-0.3
	c0.7-0.8,0.9-1.9,1.1-2.9c0.1-0.4,0.2-1.6-0.6-1.7L99,482.2L99,482.2z M97.3,501.2c0,0-0.3,0.3-0.7,0.3c-0.3-0.3-0.4-0.7-0.4-1.1
	c0-1,0.3-2.2,0.9-3.1l0.3-0.3c0.9-1.1,1.1,0.6,1,1.3l-0.3,1C98,500,97.6,500.6,97.3,501.2L97.3,501.2z M95.3,514.4
	c0.1,0.8,0.3,1.6,1.1,0.8l0.3-0.3c0.5-0.9,0.9-2,0.9-3.1c0-0.4,0-0.9-0.4-1.2c-0.4,0.1-0.7,0.4-0.9,0.8
	C95.6,512.3,95.4,513.3,95.3,514.4z M1063,699.9c-0.3,0.8-0.3,1.6-0.3,2.3c0.2,1.3,1.1,0.4,1.4-0.3c0.8-1.4,1.2-3.6,1.6-4.7
	c0.3-0.8,0.8-2.5-0.2-3c-0.8,0.2-1.2,1.3-1.4,2L1063,699.9z M1070.6,708.6c-0.2-0.6-0.2-1.3,0-1.9l0.3-1.1l0.4-0.9
	c0.6-1,1.3-0.8,1.3,0.3c0,1-0.3,2.2-0.9,3.1c-0.3,0.3-0.4,0.8-0.9,0.8L1070.6,708.6L1070.6,708.6z M1077.7,717.1
	c-0.3-0.6-0.3-1.4-0.2-2.2l0.3-1l0.4-0.9c0.7-1,1.3-0.9,1.3,0.4c0,1-0.3,2.2-0.9,3.1C1078.5,716.8,1078.2,717.2,1077.7,717.1
	L1077.7,717.1z M1084.7,727.3c0.3-0.3,0.5-0.7,0.7-1.1l1.4-3.4c0.3-0.8,0.5-1.6,0.5-2.5c0-0.4,0-0.9-0.4-1.2c-0.7,0.2-1,0.9-1.2,1.4
	c-0.6,1.5-1.6,3.4-1.8,5.1C1083.7,726.1,1083.6,728,1084.7,727.3L1084.7,727.3z M1089.9,739.7c0.8-0.9,1.2-2.1,1.3-3.2
	c0.1-0.5,0.2-1.3-0.3-1.6c-0.4,0.1-0.7,0.3-0.9,0.8c-0.5,0.9-0.9,2.1-0.9,3.1C1089.2,739.2,1089.3,740,1089.9,739.7L1089.9,739.7z
	 M1095.6,751.8c0.2-0.7,0.6-2.2-0.2-2.8c-0.4,0-0.7,0.3-0.9,0.7c-0.5,0.9-0.8,2.1-0.8,3.1v0.4c0.3,1.5,1.3,0.2,1.6-0.5
	C1095.3,752.8,1095.3,752.8,1095.6,751.8L1095.6,751.8z M1101,763.9c0-0.5,0.2-1.3-0.4-1.6c-0.5,0.1-0.7,0.4-0.9,0.8
	c-0.9,1.7-2.2,3.5-2.3,5.5c-0.1,0.4-0.1,1.1,0.3,1.4c0.4,0.3,0.9-0.5,1.1-0.8l1.6-2.8C1100.7,765.6,1100.9,764.7,1101,763.9
	L1101,763.9z M1026.1,732.7c-0.2,2.2-0.9,4-3.2,4.9c-0.8,0-0.6-1.2-0.6-1.6c0.2-1,0.5-2.5,1.3-3.2c0.6-0.4,2.2-2.2,2.4-0.5
	C1026.1,732.2,1026.1,732.2,1026.1,732.7L1026.1,732.7z M1023.6,750.6c0,0-0.3,0.3-0.7,0.4c-0.3-0.3-0.3-0.7-0.3-1.2
	c0-1,0.3-2.2,0.8-3.1l0.3-0.3c0.9-1.2,1.1,0.6,1,1.3l-0.3,1.1C1024.2,749.4,1024,750,1023.6,750.6L1023.6,750.6z M1023.4,763.3
	c0.3-0.9,0.9-2.8,0-3.4c-0.4,0-0.8,0.3-0.9,0.8c-0.6,0.9-0.9,2.1-0.9,3.1c0,1.2,0.7,1.5,1.3,0.3
	C1022.9,764.2,1022.9,764.2,1023.4,763.3z M1023.5,775c0-0.5,0.2-1.3-0.3-1.6c-0.3,0-0.8,0.4-0.8,0.4l-1.6,2c-0.8,0.9-1,2.3-1,3.5
	c0,0.8,0.3,1.6,1,0.8l1.6-2.1l0.3-0.3C1023.1,776.7,1023.4,775.9,1023.5,775L1023.5,775z M1022.3,787.1c0.3-0.3,1-1.9,1.5-0.8
	l0.1,0.3v0.4c0,1-0.3,2.2-0.9,3c-0.3,0.3-0.5,0.8-0.9,0.8c-0.4-0.3-0.4-0.7-0.4-1.1C1021.7,788.9,1021.9,787.9,1022.3,787.1
	L1022.3,787.1z M1024.6,798c-0.2-0.3-0.3-0.3-0.3-0.3c-0.4,0-0.7,0.3-0.9,0.8c-0.5,0.9-0.8,2.1-0.8,3.1c0,1.3,0.7,1.5,1.3,0.4
	l0.4-0.9l0.3-1.1C1024.8,799.3,1024.8,798.7,1024.6,798z M1026.1,810.7c-0.4,1.8-1.3,3.1-2.3,4.8c-0.2,0.3-0.4,0.8-0.9,0.8
	c-0.5-0.3-0.4-1-0.4-1.6c0.2-2.1,1.4-3.7,2.3-5.4l0.3-0.4c0.3-0.3,0.8-0.6,0.9-0.1C1026.2,809.5,1026.1,810.2,1026.1,810.7
	L1026.1,810.7z M1027.3,818.7c-0.4,0.4-0.8,0.9-0.9,1.6l-0.3,1.1l-0.1,1c0,1.2,0.8,1.5,1.3,0.4c0.6-0.9,0.9-2.1,0.9-3.1
	c0-0.4,0-0.9-0.4-1.1C1027.5,818.5,1027.6,818.4,1027.3,818.7z M1093,690.4c2.9-4,4.5-9.2,5.4-13.9c0.5-2.6,0.9-5.4,0.5-8"/>
<path class="st1" d="M1102.3,665.5c-2.2,1-3.5,2.9-4.6,5c-2.6,4.8-4.2,10.5-4.6,16.1l-0.1,1.9l0.1,1.8c0.2,1.9,0.9,6,3.8,5
	c2.1-0.8,3.5-3.2,4.5-5c2.8-4.8,4.2-10.5,4.7-16.1l0.1-1.9c0-2.4-0.2-6.4-3-7C1103.1,665.3,1103.1,665.3,1102.3,665.5L1102.3,665.5z
	 M458.8,334.5c-1.2-0.5-1.6-0.7-2.7-1.4c-0.7-0.5-1.3-1.1-1.7-1.8c-1.7-2.7,0-5.4,2.3-7c2.9-1.7,6.6-2.2,9.8-2.1l1.8,0.3l1.6,0.3
	c3.3,0.9,8.4,3.8,6.4,7.9c-0.4,0.8-0.9,1.4-1.6,1.9c-0.8,0.7-1.6,1.1-2.5,1.6c-2.2,0.9-4.4,1.2-6.7,1.4
	C463.2,335.6,461.1,335.2,458.8,334.5L458.8,334.5z M475.4,332.1c-0.4-0.7-1.6-1.4-2.2-1.7c-2.6-1.4-5.4-1.7-8.3-1.8
	c-3.6,0.3-7.3,0.9-9.9,3.5"/>
<path class="st1" d="M727,406.5c-1-0.6-1.5-0.9-2.2-1.6c-2.2-2.2-1.8-5.2,0.5-7.1c2.4-2.2,6-2.8,9.2-2.9c3.3-0.1,6.9,0.6,9.5,2.5
	c0.7,0.5,1.3,1.1,1.8,1.8c1.7,2.7,0,5.5-2.5,6.9c-0.9,0.6-1.9,1-2.8,1.3c-1.7,0.6-3.5,0.8-5.2,0.9
	C732.3,408.2,729.7,407.7,727,406.5z M724.7,404.8c3.8-3.8,10.3-4.2,15.2-2.9c1.8,0.4,4.1,1.3,5.3,2.9 M166.7,441
	c2.9-4,4.5-9.2,5.4-14c0.4-2.6,0.9-5.4,0.5-8"/>
<path class="st1" d="M175.8,416.1c-2.1,1-3.5,2.9-4.5,5c-2.7,4.8-4.3,10.5-4.7,16.1l-0.1,1.9l0.1,1.7c0.2,1.9,0.9,6,3.8,5
	c2.2-0.8,3.5-3.2,4.6-5.1c2.7-4.8,4.2-10.5,4.6-16l0.1-2c0-2.3-0.2-6.4-3-6.9C176.7,415.9,175.8,416.1,175.8,416.1z"/>
<path class="st2" d="M82,1021l9.7-9.7"/>
<path class="st0" d="M82,1021"/>
</svg>
