<?xml version="1.0" encoding="utf-8"?>
<!-- Generator: Adobe Illustrator 21.1.0, SVG Export Plug-In . SVG Version: 6.00 Build 0)  -->
<svg version="1.1" id="Ebene_1" xmlns="http://www.w3.org/2000/svg" xmlns:xlink="http://www.w3.org/1999/xlink" x="0px" y="0px"
	 viewBox="0 0 1400 1400" style="enable-background:new 0 0 1400 1400;" xml:space="preserve">
<style type="text/css">
	.st0{fill:none;}
	.st1{fill:none;stroke:#000000;stroke-linecap:round;stroke-width:4;}
	.st2{fill:none;stroke:#FFFFFF;stroke-miterlimit:10;}
</style>
<path class="st0" d="M1300,145.8H100v1108.4h1200V145.8L1300,145.8z"/>
<path class="st1" d="M843.1,1078.7l-48.2-12.6 M871.2,977.7l-43.6-11.2 M1086.2,1215.8l-2,0.3 M1089.4,1216l-3.2-0.2 M1139,970.1
	l2.2,3.2 M1042.2,1042.7l-170-45.8 M1087.9,957.3l-169.8-45.9 M1021.8,1214.8L851.9,1169 M851.9,1076l169.9,45.8 M1060.9,1234
	l-4.7,5.7l-1.3,1.6"/>
<path class="st1" d="M1044.2,1229.8c0.4,2.1,0.4,3.2,1.3,5.1c1.5,3.9,4.8,5.3,8.4,2.7c3.9-2.7,7.8-8.7,10.7-11.9l5.2-5.4l5.2-4.8
	c3.2-2.7,6.6-5.2,10.1-7.3c4.4-2.7,9.3-4.8,14.4-5.4c3.5-0.5,6.9,0.8,10.3,0.3c2.7-0.4,5-2.9,6.7-4.9c10.6-13.1,12.3-31,14.8-47
	c1.9-12.3,4.3-24.6,7.2-36.8c5.8-24.7,13.5-48.7,22.3-72.4c3.4-9.3,5.8-19.1,5.8-29c0-3.7-0.2-7.9-2-11.2c-2.4-4.4-8.3-3.7-12.2-5.8
	c-4.4-2.3-8-6-10.9-10c-4.9-7-8-15.5-10.2-23.8c-1.1-4.4-1.3-15.1-8.1-15.1c-8.2,2.5-12.2,13.3-15,20.4
	c-5.6,14.4-11.3,28.7-18.2,42.5c-6,12.3-12.6,24.2-20.2,35.5c-7.5,11.1-16.2,19.9-20.8,32.8c-3.3,9-5.4,18.8-5,28.4
	c0.2,7.7,2.6,15.1,3.5,22.7c1.2,9.6,1.6,19.4,1.6,29.1c0,14.9-1,29.8-2.9,44.7C1045.1,1212.1,1043.5,1220.7,1044.2,1229.8
	L1044.2,1229.8z M1055.6,1240.5c-4,6.7-12.6,10.5-19.9,11.7c-2.5,0-5.6,0-7.8-1c-3.3-1.6-4.9-5.6-5.8-8.9
	c-2.4-8.9-1.4-18.5-0.3-27.5l1.5-10.9l1.2-10.6l1.3-20.4c0.3-12.1,0.2-24.2-1.3-36.1c-0.9-7.5-3.2-15-3.7-22.5
	c-0.5-8.8,0.6-17.7,2.2-26.3c2.7-13,7-26,13.7-37.5c4.6-7.9,11.1-14.8,16.2-22.4c8.8-13.1,16.2-27.1,22.8-41.4l8.3-19.3l3.8-10.1
	l3.9-9.3c2.9-6.2,6.4-12.4,11.2-17.4c2.4-2.4,5.6-5,9.1-4.9c2.5,0.1,4.8,1.4,6.9,2.6c1.5,0.9,2.4,1.4,3.7,2.6
	c2.4,2.2,5.7,9.5,7.3,12.2 M1135.9,964.3c-2.4-6.9-4.1-13.9-5.9-21.2 M1135.3,962.7c2.7,6,1.3,3,4.5,8.8 M1160.7,998.5l0.2-0.1
	 M1149.1,977.4c2.3,0.6,4.4,1.3,6.5,2.6c15.5,9.4,13.6,32.2,10.4,47.4l-2.1,8.3c-1.9,6.2-4.3,12.1-6.5,18.2
	c-3.8,10.5-7.2,21-10.4,31.8c-3.2,10.8-5.9,21.7-8.4,32.7l-4.3,21.8l-3.3,21.3c-0.6,3.9-1.3,7.7-2.2,11.5
	c-4.4,17.5-13.8,40.8-34.3,43.2c-2.4-0.1-4.3-0.2-6.7-0.4 M1084.2,1216.1c-5.3,1.9-0.4,0-5,2.2 M1059.7,1235.4
	c4.3-4.8,8.8-9.1,13.6-13.4 M1080.3,1217.6c-5.6,3.5-2.9,1.8-8.1,5.5 M1090.5,1216.1h0.7 M1108.2,1203.3l0.2-0.4 M1149.1,977.4
	l-6.7-2.9l-1.4-1.6 M1029.8,1251.7l-16.8-4.5l-136.3-36.7l-16.8-4.6c-1.9-0.5-2.4-0.4-3.8-1.8c-5-4.8-5.3-14-5.3-20.4
	c-0.1-8.7,1.6-17,2.5-25.6c1.3-10.2,2.1-20.6,2.5-30.9c0.4-12.1,0.1-24.2-1.3-36.2c-0.9-7.5-3.2-15-3.7-22.6
	c-0.5-8.8,0.6-17.9,2.4-26.5c2.6-13.1,7-26.3,13.9-37.7c2.9-4.9,6.5-9.1,10-13.6l9.6-14.2c7.1-11.1,13.2-22.7,18.6-34.6l8.5-19.9
	c3.5-8.6,6.3-17.3,10.9-25.4c3.3-5.8,7.9-13.8,14.7-16.2c1.5-0.5,2.8-0.5,4.3-0.2l16.8,4.5l136.7,36.8l16.8,4.5 M855.9,1115
	c-10.6-4.4-12.1-19.8-12.7-29.7l-0.2-6.7c0-18.4,3.3-36.8,8.4-54.5c4.3-15,10-30,17.9-43.5l3.4-5.6c5.6-8.6,14.4-21,26-19.8
	 M1169.1,623.3L101.9,336 M1298,435.1L230.9,147.7 M101.9,307.5l1067.2,287.3 M230.9,147.7L220,161.3L112.9,293.9l-11,13.6V336
	 M1169.1,623.3v-28.5l10.8-13.6l107.2-132.5l10.9-13.6 M1169.1,623.3l10.8-13.7l107.2-132.5l10.9-13.6v-28.4 M275.9,263.2
	c-9.6-6.5-20.7-8.3-32.1-8.4c-10.5,0.6-20,2.7-28.9,8.3"/>
<path class="st1" d="M211.8,260.5c16,13.5,43,14.8,61.1,4.7c2.1-1.3,4.2-2.6,5.9-4.2c1.6-1.5,2.9-3.1,4-5c0.9-1.6,1.6-3.4,1.8-5.4
	c1.5-12.3-12.8-19.6-22.7-22.1c-6-1.6-12.1-2.1-18.4-2.1c-4.1,0.2-5.2,0.2-9.2,0.9c-2.9,0.5-5.9,1.3-8.7,2.2
	c-10.5,3.6-24.3,13.5-17.7,26.1C209.2,257.9,209.9,258.5,211.8,260.5z M1116.9,500.2c-0.9-2.3-1.4-3-1.7-5.4
	c-0.9-10.9,10.6-17.8,19.4-20.8c15-5,33.9-4.4,47.8,3.7c2.1,1.2,4,2.6,5.8,4.3c1.5,1.4,2.9,3.1,3.8,5c6.7,12.7-7.2,22.6-17.7,26.2
	c-5.9,1.9-11.8,2.6-18,3.1C1142,516.1,1125.4,513.3,1116.9,500.2L1116.9,500.2z M1185,507.9c-9.7-6.5-20.7-8.2-32.2-8.3
	c-10.4,0.6-20,2.6-28.9,8.3 M853.9,973.3V538.4 M561.8,459.7v631.7c0,15.3-1.1,29.6,6.2,43.5c10.7,20.2,31.4,33.9,51.8,42.8
	c22.1,9.7,46.3,14.7,70.3,16.4c29.7,2.1,60.1-0.8,88.5-9.9c28.1-9,59.9-25.8,71.5-54.8c2.9-7.2,2.6-8.5,3.5-15.5 M794.9,1066.1
	c-2.6-4.3-3.2-10.5-3.5-15l-0.1-4.3c-0.1-11.9,2.1-24,5.4-35.5c2.9-9.8,6.6-19.4,11.7-28.2l2.2-3.8c3.7-5.5,9.4-13.5,17-12.7"/>
<path class="st2" d="M100,1254.2l19.3-19.4"/>
<path class="st0" d="M100,1254.2"/>
</svg>
