<svg xmlns="http://www.w3.org/2000/svg" xmlns:xlink="http://www.w3.org/1999/xlink"
    viewBox="0 0 1400 1400" enable-background="new 0 0 1400 1400">
    <style type="text/css">.st0{fill:none;} .st1{fill:none;stroke:#000000;stroke-linecap:round;stroke-linejoin:round;stroke-width:3;} .st2{clip-path:url(#SVGID_2_);} .st3{fill:none;stroke:#FFFFFF;stroke-miterlimit:10;}</style>
    <path class="st0" d="M1300 196.8h-1200v1006.4h1200v-1006.4z"/>
    <path class="st1"
        d="M764.4 843.2l-.6-4.2-3.8-25.6-.7-4.2c-.4-3-1.3-7.2-4.4-8.7l-.9-.3-4-1.1-20.2-5.5-4-1.1-.9-.1c-2.4.3-4.4 1.6-6 3.4-2.2 2.2-3.9 4.8-5.4 7.4-4.8 8.5-7.8 18.2-9.4 27.8-.5 2.9-.8 5.9-1.1 9l-4.5 41.1-.5 4.2"/>
    <path class="st1"
        d="M747 844.8c3.6-6.2 5.8-13.7 5.8-20.9v-1.4c-.2-2.2-.5-5.8-3.2-6.3-3 .2-4.9 3.5-6.1 5.8-3.2 5.9-5.1 13-5.1 19.7v1.4l.2 1.3.1 1.1c.4 1.7 1.3 4.4 3.6 3.9.5-.1.9-.3 1.3-.6.5-.3 1-.8 1.4-1.2.6-.8 1.3-1.7 2-2.8zM754.1 800.3l-.9-.1c-2.5.2-4.4 1.6-6.1 3.4-2.1 2.2-3.9 4.8-5.4 7.4-4.8 8.5-7.8 18.2-9.4 27.8-.5 3-.7 6-1.1 9l-4.1 38.1-.4 4.2M1146.1 331.2l26.1 7M1212.5 288.4l-.7-4.1-3.8-25.7-.6-4.1c-.5-3-1.4-7.2-4.5-8.7l-.8-.3-4-1.1-20.2-5.5-4-1.1-.9-.1c-2.5.2-4.3 1.6-6.1 3.3-2.2 2.2-3.8 4.8-5.4 7.5-4.8 8.5-7.8 18.1-9.4 27.8-.5 3-.8 6-1.1 9l-4.5 41.7-.4 4.1v.1M1174.7 335.1l.4-4.1 4.2-38c.3-3 .6-6 1.1-9 1.7-10.3 5-20.7 10.5-29.6l1-1.6c2.3-3.3 5.7-7.8 10.2-7.3"/>
    <path class="st1"
        d="M1194.3 263.3c-2.8 3.3-4.6 7.2-5.8 11.3-.9 2.6-1.5 5.3-1.8 8-.4 3-.6 6.2.2 9.1.2.6.4 1.1.7 1.6.2.4.5.7.9 1 1.5 1.1 3.4-.3 4.4-1.5.5-.5 1-1.1 1.4-1.7 1.7-2.4 2.9-5.2 3.9-7.9 1.3-3.6 2.2-7.4 2.5-11.2l.1-1.5.1-1.4-.1-1.3c-.1-2.3-.5-5.8-3.2-6.3-1.4.1-2.3.9-3.3 1.8zM1047.9 1045.7l2.3-2.8M1144 1055.7l-10.6 13.1M1145.3 1058.2c-1.4-2-1.6-4.1-2.3-6.5l-9.5-38.3-1-4.1-.6-2.2c-4.4-13.3-16.8-24-30.3-27.2-2.3-.5-4.6-.8-6.8-.9-5.6.1-11 1.2-15.5 4.8-2 1.7-3.7 3.9-5.3 6l-7.9 9.8c-1.6 2-3.5 4.1-4.7 6.4-1.2 2.4-1.9 5-2.6 7.6l-8.2 28.5-1.1 4"/>
    <path class="st1"
        d="M1075.9 1027c1.6 2.9 3.7 5.4 6.4 7.4 2.1 1.6 4.7 2.9 7.2 3.6 5.2 1.4 11.6.4 14.4-4.8.3-.7.7-1.6.9-2.3.3-1.4.3-2.7.2-4.1-.7-5.9-4.8-11-9.6-14.1-3.2-2-6.6-3.1-10.4-3.3-1.9.1-3.6.3-5.3 1.1-.8.3-1.5.8-2.1 1.4-.7.5-1.2 1.1-1.7 1.8-2.9 4.2-2 9.1 0 13.3zM1103.6 1022c-6.5-1.5-12.2-6-15-12.1M1129.8 1067.8l-1-4-8.5-34.1c-.9-3.7-1.8-7.2-3.4-10.6-4.7-9.8-13.7-17.6-23.9-21.4-3.8-1.4-7.5-2.1-11.5-2.3-4.9.1-9.7.9-13.9 3.7-1.7 1.1-2.9 2.4-4.3 3.9M200.9 817.7l2.3-2.8M297 827.6l-10.6 13.2M298.2 830.2c-1.4-2-1.7-4.1-2.3-6.5l-9.6-38.3-1-4.1-.6-2.2c-4.4-13.3-16.7-24-30.2-27.2-2.4-.5-4.6-.8-6.9-.9-5.5.1-11 1.2-15.4 4.8-2.1 1.7-3.6 3.8-5.3 5.9l-8 9.8c-1.6 2.1-3.5 4.1-4.7 6.5s-1.8 5-2.6 7.6l-8.2 28.5-1.2 4"/>
    <path class="st1"
        d="M228.8 799c1.7 2.9 3.7 5.4 6.4 7.4 2.2 1.6 4.7 2.9 7.3 3.6 5.2 1.4 11.6.4 14.3-4.8.4-.7.7-1.6.9-2.4.3-1.3.3-2.7.2-4.1-.6-5.9-4.7-11-9.5-14.1-3.1-2-6.6-3.1-10.4-3.3-1.9.1-3.6.4-5.4 1.2-.8.4-1.5.8-2.2 1.4-.6.5-1.2 1.1-1.7 1.8-2.7 4.1-1.8 9.1.1 13.3zM256.6 793.9c-6.5-1.5-12.2-6-15-12.1M282.8 839.8l-1-4-8.5-34.1c-.9-3.7-1.8-7.2-3.4-10.6-4.8-9.8-13.7-17.6-23.9-21.4-3.7-1.4-7.5-2.1-11.5-2.3-4.9 0-9.7.9-13.9 3.6-1.7 1.1-3 2.4-4.3 3.9M1010.5 646.3v2.7M1012.7 647.4l.9-.9M1006.1 648l-.3-.9M1007 648.9l.6.5M1011.7 672.2l3.4-23.8M1008.4 649.6l.6-.1M1007.9 649.5l.6.1M1008 649.5l-.6-.2M1009.6 649.4l-.7.1M1012.4 650.8v10.9M1010.5 651.7v15.2M1009.9 649.3v-3.1M1019.4 604.3l.5.2M1014.2 622l.3.3M1012.6 622.2l.2-.1M1010.5 628.6v-14.4M1014 621.9h-.4M1014.3 622l-.4-.1M1012.4 613.5v14.7M1014.1 621.9l.2.1M1012.7 622.2l.6-.3M1013.2 622l.5-.2M1012.4 622.4l.4-.3M1014.9 623.3l.2.8M1009.9 625.2v3.2M1010.8 623.8c-1.7 2.1-3 4.6-3.9 7.2-1.6 4.1-2.4 8.6-2.1 13 .2 2.5 1 6.3 3.8 7.1 2.9.9 5.8-1.8 7.4-3.9 2.9-3.3 4.8-7.5 6-11.7.6-1.8 1.1-3.9 1.2-5.8v-22.4l.1-.4M1009.9 624.9v-11.4l.1-1.1v-.1c.3-2 1-3.8 2-5.5 1.8-2.9 5.7-6.5 9.3-4.4l.9.8c.5.4.7 1.1.9 1.6.3.7.3 1.4.3 2.1M1012.4 619.5c.5-.1.9-.2 1.4-.2 2.9 0 3.8 3.7 3.9 6v1.5M1003.4 647.9c-2.1-6.1-.6-13.2 1.8-19.1 1.1-2.7 2.6-5.4 4.7-7.5M1018.5 604.4c.7-.1.4-.1 1.1-.1M1020.6 602.1l-.8-.2c-2.2.1-4 1.2-5.5 2.8-2.4 2.6-3.9 5.9-4 9.3M1023.4 607.1v22.3l-.1 1.2c-.5 4.1-1.9 8-3.8 11.6-.8 1.6-1.7 3.2-2.9 4.7-2 2.5-4.5 5-7.8 5.3-1.3 0-2.2-.3-3.2-1M1016.7 605.3c-2.3 1.9-3.7 4.5-4.2 7.4M1023.4 629.2c.1.6-.7.7-1.2.8-2.4-.1-1.3-3-1.3-5v-18.1M1012.4 612.7v.9c-.2.5-.9.6-1.3.6-.5 0-1-.1-1.2-.7M1012.4 622l.2-.2.8-.5.7-.3c2.5-.7 3.2 2.2 3.4 4.1v1.7000000000000002M1020.5 631.7c-.3 1.5-.7 3-1.2 4.4M1011.6 666.9h-.6c-2.3-.2-1.2-2.9-1.2-4.8v-10.3M1005 644c.2 1.1.4 2.1.8 3.2M1020.9 629.2c-.1.9-.2 1.7-.4 2.6M1012.8 647.2c-1.1 1-.6.6-1.7 1.4M1003.4 648.1c.5 1.1 1.1 2 2 2.8M1009.6 649.4c1-.4.5-.1 1.6-.7M1017.2 645.9l-.6 4.1-2.7 18.6c-.3 2.4.6 4.4-1.4 4.4h-.6c-2.3-.4-.8-2.3-.4-4.7l2.1-14.8.6-4.1M1013.3 672.8c-.1-.5-1.2-.6-1.6-.6l-.9.2M1015 623.4c-.3-.9-.1-.5-.5-1.1M1019.9 604.5c1 .8 1.3 1.8 1.4 3M1023.2 607.4c-.4.3-.8.3-1.2.3s-1.1-.2-1.1-.8M1018.6 604.4c-.8.2-1.3.5-2 1M1020.7 605.7c.2.9.1.4.2 1.4M1015.1 623.9c.1.7.2 1.4.2 2.2M1007.1 649.1c-.7-.7-.4-.3-.9-1.2M1011.9 641.9l-1.4.3-5.5-1.6M1005.2 644.9l3.6 1c1 .2 3.4 1.6 4.8.7 2.4-1.4 3.7-3.6 4.6-6.1.9-2.3 1.5-4.7 1.7-7.2.2-2 0-4.5-1.5-6-.7-.7-3-1.1-3.4-1.2l-2.5-.7M1010.3 628.5c.8.1 1.5 0 2.3-.4.9-.5.7-1.3-.2-1.7M1017.5 626.7c-1.6.1-2.6 1.6-3.4 2.9-2.1 3.4-3.2 7.5-3.5 11.4l-.1 1.3c0 1.5.1 4 1.9 4.6M1019.3 628.9c-.4-.5-.6-.7-1.2-.9-1.4.1-2.3 1.4-3.1 2.6-2 3.3-3.1 7.5-3.1 11.4v1c.1 1 .4 3 1.7 3.2.4.1.6-.1 1-.2M1009.9 626.4l-.4.2c-1 .8 0 1.7.8 2M981.1 768.7l4.6 1.2M976.9 799.5l6.4 1.7M980.7 804.5l-3.8-1M993 688.5v94.10000000000001c0 4.1-.1 8-.9 12-1 5.2-2.7 10.6-5.6 15.2-1.5 2.3-3.3 4.4-5 6.4-1.7 2.1-3.7 5.6-6.8 6.1-3.1-.3-3.6-4.5-3.7-7v-99.60000000000001"/>
    <path class="st1"
        d="M987.2 787.9c.2 4.1-.9 8.5-3 12.1-.7 1.1-1.5 2-2.2 2.9-.9 1.1-1.8 2.8-3.5 3.1-1.7-.3-1.8-2.8-1.8-4.2v-.9l.1-.9c.3-3.3 1.3-6.6 3-9.4.6-1.1 1.4-2 2.2-2.9l1.3-1.6c.9-1 2.4-2.2 3.3-.6.2.4.3.7.4 1.1 0-.1 0-.1.2 1.3zM979.8 771.6c-.6 1.5-1 3.2-1.3 4.9s-.5 3.8.2 5.5l.5.8c.9.9 2-.1 2.6-.7l.9-1.2c1.9-2.9 2.8-6.6 3-10l.1-.9c0-1.3-.1-3.9-1.9-3.9-2.3.5-3.4 3.6-4.1 5.5zM942.8 750.7v55.7c0 1.9.2 3.9.9 5.8.3.9.9 1.8 1.7 2.3l.6.2 4 1.1 20.2 5.5 4 1.1M1210.2 1057.6l-.5-.1c-1.3.1-2.1 1-3 1.9l-2.6 3.2-19.3 24c-1.3 1.6-2.8 3.3-3.9 5.1-2.6 4.4-3.9 9.6-4.1 14.7M627.2 1036.4l-9.3-2.5M617.9 958.6v75.3M663.8 905.3l37.1-46M702.1 848.3l-48.1 59.5M1287.4 212.6l-570.9 706.9M786.9 943.7l223.6-276.9M1298.8 307.2l-283.3 350.7M1009.9 664.8l-224.8 278.4M1197.7 244.3l37-45.9M693.1 1049.9l-9.4-2.5M683.7 980.5v66.9M698.8 879l-4.4 5.4M724.5 892.5l-30.1-8.1M1149 304.5l-399.4 494.5M1150.2 293.5l-407 503.8M1146.9 324.3l-4.8 5.9M1172.2 338.3l-30.1-8.1M1216.1 284l-43.9 54.3M1211.6 282.7l4.5 1.3M768.4 838.2l-43.9 54.3M763.4 836.9l5 1.3M726.4 927.4c-1.9-3.2-4.6-5.8-8.1-7.2l-1.8-.6-4-1.1-44.7-12c-2.7-.7-4.8-1.4-7.5-1.5l-1.7.2c-1.9.4-3.4 1.4-4.7 2.8M1191.3 242.6l2.6-3.2 28.2-34.9c2.2-2.7 3.9-5.7 7.5-6.3 3.2-.6 6.2.6 9.2 1.4l44.7 12 4 1.1 1.8.6c4.1 1.7 7.6 5.1 8.9 9.3.1.4.8 2.9.6 3.3l-2.6 3.2-562.4 696.4-2.6 3.2M1298.8 225.8v77.19999999999999c0 2.6.5 6.1-1.2 8.5l-2.6 3.2-277.3 343.3-2.7 3.2M1005.9 624.9c-3.3 4.1-4.9 9.9-4.9 15.1 0 1.2.1 2.5.6 3.6.2.4.6 1.1 1.1 1.2M1283.8 266c-3 3.7-4.6 8.7-4.9 13.4-.2 2-.2 4.1.9 5.9M1287 265.3c.6 1 .3.5.7 1.7M1007.9 623.7c-.9.2-1.3.6-2 1.2M1287 265.3c-.7-.6-.3-.3-1.1-.6-1 .2-1.4.6-2.1 1.3M1279.8 285.3l.6.4c1.4.7 2.9-1.2 3.5-2.1l.8-1.2c2.6-4.6 4-10.4 3.2-15.6M125.7 823.3l7.5 2.1M155.5 776.4l7.6 2M138.5 808.8l-7.6-2M166.5 776.7l-.5-.2c-1.3.1-2.2 1-3 1.9l-2.6 3.2-19.4 24c-1.3 1.6-2.8 3.3-3.8 5.1-2.6 4.4-3.9 9.6-4 14.7M125.7 823.3c.2-5.1 1.4-10.3 4-14.7 1.1-1.8 2.6-3.5 3.8-5.1l19.4-24 2.6-3.2.7-.7.6-.6c1.8-1.4 3.9-.1 5.9.5l3.6 1M1176.9 1106.4l7.6 1.9M1182.2 1089.8l7.5 2M1215.1 1086v-11.9M1214.3 1061.4l-7.5-2M1217.8 1059.7l-.6-.2c-1.3.1-2.2 1-3 1.9l-2.6 3.2-19.3 23.9c-1.3 1.7-2.8 3.3-3.9 5.1-2.6 4.4-3.8 9.6-4 14.6M1217.5 1059.6l-7.8-2.1c-1.3.1-2.1 1-3 1.9l-2.6 3.2-19.3 24c-1.3 1.6-2.8 3.3-3.9 5.1-2.6 4.4-3.9 9.6-4.1 14.7M108.7 872.8v-26.4M101.2 844.4l7.5 2M108.7 872.8l-7.5-2M108.7 900.7l-7.5-2.1M136.2 783.6l-.4.5M135.8 775.3v8.8M139.3 784.9l-1-.7M139.3 784.9v11.6M128.2 773.3l7.6 2M109.3 796.7l7.5 2M101.2 870.8v-26.400000000000002l.2-.3M109 900.4c-.5.6-.3.2-.2 1.4.1 1.3.5 4 2.3 4.1 1.2.1 2.2-1.1 2.9-1.9l1.5-1.9M101.4 898.4c-.5.6-.2 1.7 0 2.4l.2.9.3.8c.9 2 3 1.8 5 2.3l3.8 1M116.8 799v-.3l2.6-3.1 13.8-17.1 2.6-3.2M109.3 797v-.3l2.6-3.2 13.7-17 2.6-3.2M1243.8 1125.9h.2M1238.5 1076.8l1.1.3M1236.1 1071.3l-24.3-6.6M1142.6 1050.1l7.6 2M1136.1 1069.5l14.1-17.4M1206.6 1059.4l-66.1-17.8M1211.8 1073.2l11.2 3M1238.8 1068l-24.3-6.5M101.2 816.9l1107.7 298.3M1201.4 1167.4v-27.2M1208.9 1142.3l-7.5-2.1M101.2 898.3l1107.7 298.3M108.7 846.1v27.1M101.2 871.2l7.5 2M106.5 800.2l24.2 6.6M133.4 803.8v-.3M135.8 783.5l11.4 3.1M195 816.1l12.1-15M163.2 778.5l46.8 12.6M152.7 779.6l-24.3-6.6M131 769.8l24.3 6.5M195 816.1l94.1 25.4M303.2 824.1l-14.1 17.4M295.6 822l7.6 2.1M293.5 813.5l763.6 205.6M1042 1044.2l12.1-15M1057.8 1016.5l-765-205.9M1042 1044.2l94.1 25.3M1047.7 1045.7l2.7-3.4M200.7 817.7l2.6-3.4M1182 1089.8l-1043.3-280.9M109.1 797l24.3 6.5M1214.2 1098.5l-24.3-6.6M1216.8 1095.2l-24.2-6.6M108.7 846.1l-7.5-2.1M1201.4 1167.4l.2-.3M1213.1 1163.9l.2.1M1201.4 1167.4l7.5 2M627.2 1037.4l-10.2-2.8M627.2 1037.4v-76.3M617 958.4l10.2 2.7M617 958.4v76.2M617.9 1033.6l-.9 1M693.1 1050.9l-10.2-2.8M693.1 1050.9v-67.9M682.9 980.3l10.2 2.7M682.9 980.3v67.8M683.7 1047.2l-.8.9M1239.6 1158.5v-27.1l4.4-5.5M1239.6 1158.5l4.4-5.4v-27.2M1239.6 1104.3v-27.2c0-.4 0-.7-.3-.9l-.5.3-2.6 3.3M1211.8 1073.2v-8.4l1.3-1.6c.9-1.1 1.7-2.4 3-3.1.4-.3 1-.5 1.5-.4l4 1.1 16.3 4.4c.6.2 4.2.6 5.2 1.9.9 1.3 1 3.2 1 4.7v27.2l-4.4 5.5M1241.8 1066.1c-2 .2-3.2 2-4.4 3.6l-1.3 1.6v8.5M1209.8 1057.5h-.1l-4-1.1-62-16.7-3.9-1.1M1176.7 1106.5c.2-5.4 1.5-11 4.4-15.6l.8-1.2 2.6-3.2 19.3-24 2.6-3.3c.9-1.1 1.7-1.8 3.1-1.9M1216.8 1095.2v8.5l-1.3 1.6c-1 1.3-2 2.2-2.1 4l-.1.4v27.099999999999998l-4.4 5.4M1216.8 1095.2c-1.9 2.3-3.8 4.6-5 7.3-1.6 3.4-2.5 7.1-2.8 10.9l-.1 1.7v27.2M1213.3 1164l-4.4 5.4v27.2M1213.3 1164v27.1l-4.4 5.5M101.4 870.9l-.2.3v27.1M101.2 844v-27.2l.1-1.7c.3-3.8 1.3-7.5 2.8-10.9 1.2-2.8 3.1-5 5-7.3M125.5 823.5c.2-5 1.3-9.8 3.6-14.2 1.1-2.1 2.8-3.9 4.3-5.8M133.4 825.6c.2-5.4 1.5-11 4.4-15.6l.9-1.2 2.6-3.2 19.3-24c1-1.3 2.6-3.8 4.3-4.8.4-.3.9-.5 1.4-.4l4 1.1 36.4 9.8 4 1.1M128.4 773.3v-.3l1.3-1.6c.9-1.1 1.8-2.5 3-3.2.4-.3 1-.5 1.4-.4l4 1.1 16.3 4.4 4 1.1h.1M158.4 774.4c-2.1.1-3.2 2.1-4.4 3.5l-1.3 1.6v.3M1192.6 1088.6c-1.5 1.9-3.2 3.7-4.3 5.8-2.3 4.4-3.4 9.3-3.7 14.2M125.7 904.9v1.5l.2 1.3.3 1.1c.9 2.2 3.6 2.2 5.6 2.8l1050.7 282.9 4.1 1.1c.5.1 1.1-.1 1.5-.4 1.2-.8 2.2-2.2 3.1-3.4M1186.6 1195.5c-2.1-.9-2.1-3.6-2.2-5.5M1235.9 1071.5l-7.5-2M1239.5 1081.1v23.7M1243.8 1099.1h.2M1239.5 1104.8l4.5-5.7M1244 1153.4h-.2M1225.7 1161.3l4 1.1M1239.5 1159.1l4.5-5.7M1213.2 1136.9h.2M1201.4 1140.6l7.5 2M1213.4 1163.4l-4.5 5.7M1201.4 1167.1l7.5 2M1208.9 1196.9l-7.5-2.1M1213.2 1191.2l.2.1M1235.9 1080.3v-8.8M1235.9 1080.3l.9-1.1M1209.5 1093l7.5 2M1217 1103.8h-.3M1215.9 1104.8l.2.1M1208.9 1169.1v-26.5l4.5-5.7v-23.7l1.3-3.9.2-.5 1.2-3.9.9-1.1v-8.8l2.6-3.3 13.7-17 2.6-3.2M1236.6 1079.2h.2l2.7 1.9M1209.5 1093.2v-.2l2.5-3.3 13.8-17 2.6-3.2M1239.5 1159.1v-27.9l4.5-5.6v-26.5"/>
    <path class="st1"
        d="M1229.7 1162.4c-.1-1.2 0-2.9-1.3-3.4-1.4.1-2.3 1.7-2.9 2.9-1.4 2.7-2.3 6.1-2.1 9.2 0 .5.1.9.2 1.4.4 1.2 1.3 1.6 2.3.7 1-.8 1.6-2 2.1-3.2.4-.9.7-1.8 1-2.8.4-1.6.6-3.2.7-4.8zM1201.6 1194.5c-.4.6-.2.3-.2 1.4.2 1.1.4 2.3 1 3.3.9 1.4 3.5 1.5 4.6 1.8 2 .5 4.2 1.8 6 .5 1.4-1.1 2.9-3.3 3.9-4.5l19.3-24c1.3-1.6 2.8-3.2 3.9-5 2.5-4.4 3.8-9.5 4-14.6M1210.7 1202c-1.3-.9-1.6-2.5-1.7-4l-.1-1.1 4.6-5.6v-27.9M1201.4 1167.1v-26.5l.2-.3"/>
    <defs>
        <path id="SVGID_1_" d="M100 1203.2z"/>
    </defs>
    <clipPath id="SVGID_2_">
        <use xlink:href="#SVGID_1_" overflow="visible"/>
    </clipPath>
    <path class="st3" d="M100 1203.2l11.7-11.7"/>
    <path class="st0" d="M100 1203.2z"/>
</svg>
