<?xml version="1.0" encoding="utf-8"?>
<!-- Generator: Adobe Illustrator 22.0.0, SVG Export Plug-In . SVG Version: 6.00 Build 0)  -->
<svg version="1.1" id="Ebene_1" xmlns="http://www.w3.org/2000/svg" xmlns:xlink="http://www.w3.org/1999/xlink" x="0px" y="0px"
	 viewBox="0 0 1400 1400" style="enable-background:new 0 0 1400 1400;" xml:space="preserve">
<style type="text/css">
	.st0{fill:none;}.st1{fill:none;stroke:#000000;stroke-linecap:round;stroke-linejoin:round;stroke-width:2;} .st2{clip-path:url(#SVGID_2_);} .st3{fill:none;stroke:#FFFFFF;stroke-miterlimit:10;}} 
</style>
<path class="st0" d="M793,100H660.7v1200H793V100z"/>
<g>
	<path class="st0" d="M720.9,1248.7L720.9,1248.7c-1.2-0.6-2.3-0.8-3.4-0.8c-1,0-1.9,0.2-2.7,0.6c-1.6,0.8-2.7,2.4-3,4.4
		c-0.7,4.5,2.3,9.8,6.7,12c2.2,1,4.4,1,6.2,0.1c1.6-0.8,2.7-2.4,3-4.3C728.4,1256,725.4,1250.8,720.9,1248.7z"/>
	<path class="st0" d="M724.6,153.3c2.3,1,4.6,1.1,6.4,0.1c1.5-0.8,2.6-2.4,2.9-4.3c0.8-4.5-2.2-9.9-6.7-12c-1.2-0.6-2.4-0.8-3.5-0.8
		c-1,0-1.9,0.2-2.7,0.7c-1.6,0.8-2.7,2.4-3,4.4C717.2,145.8,720.1,151.2,724.6,153.3z"/>
	<path class="st0" d="M673.3,353.1l110.6,29.7V159.3c0.1-20.8-11.1-35.1-31.4-40.1c-5.5-1.4-41.7-11.1-58.4-15.9
		c-0.4-0.1-0.7-0.2-1.1-0.2c-0.3,0-0.5-0.1-0.8-0.1c-14.5-1.7-24,23.8-24.6,25.4v223.2l5.4,1.5l0,0L673.3,353.1z M734.9,253.1
		c-0.4,2.3-1.6,4.1-3.5,5.1c-1,0.5-2.1,0.8-3.3,0.8c-1.3,0-2.6-0.3-4-0.9c-4.9-2.3-8.1-8.1-7.2-12.9c0.4-2.3,1.6-4.2,3.5-5.1
		c2-1.1,4.6-1.1,7.1,0.1l0,0C732.5,242.3,735.8,248.2,734.9,253.1z M717,141.2c0.4-2.3,1.6-4.1,3.5-5.1c2.1-1.1,4.6-1,7.1,0.2
		c4.9,2.3,8.1,8.1,7.3,13c-0.4,2.3-1.6,4.1-3.4,5c-1,0.5-2.2,0.8-3.4,0.8c-1.3,0-2.6-0.3-3.9-0.9C719.3,151.9,716.1,146.1,717,141.2
		z"/>
	<path class="st0" d="M727.1,1290.3c-13.3-3.4-23-5.8-28.2-7.3c-7-2.1-30-11.4-30-44.2c0-30.3-0.1-814.4-0.1-870.6l-5.7-1.5
		c0,41.4,0.1,841.6,0.1,872.1c0,32.2,22.4,41.2,29.2,43.2c5.2,1.5,14.8,4,28.1,7.3c7.8,2,16.9,4.3,27.3,7c2.8,0.7,5.5,1.2,8,1.3
		c-0.5-0.1-1-0.2-1.5-0.3C743.9,1294.6,734.8,1292.3,727.1,1290.3z"/>
	<path class="st0" d="M778.4,1272.5V397.7l-108.6-29.3c0,58.5,0.1,840.1,0.1,870.3c0,32.1,22.4,41.2,29.2,43.2
		c5.2,1.5,14.8,4,28.1,7.3c7.7,2,16.9,4.3,27.3,7c2.2,0.6,4.4,1,6.4,1.2c3.5-0.4,6.5-1.6,9-3.6
		C777.6,1288.1,778.4,1277,778.4,1272.5z M710.8,1149.2c0.4-2.3,1.7-4.2,3.5-5.1c2-1,4.5-1,7,0.2c4.8,2.2,8.1,8,7.4,12.9
		c-0.4,2.3-1.7,4.2-3.6,5.1c-1,0.5-2.1,0.8-3.2,0.8c-1.3,0-2.6-0.3-3.9-0.9C713.3,1160,710,1154,710.8,1149.2z M728.7,1260.8
		c-0.4,2.3-1.6,4.1-3.5,5c-1,0.5-2.1,0.8-3.3,0.8c-1.2,0-2.5-0.3-3.8-0.9c-4.9-2.4-8.1-8.1-7.3-13c0.4-2.3,1.7-4.2,3.5-5.2
		c2-1,4.5-1,7,0.2C726.2,1250,729.5,1255.7,728.7,1260.8z"/>
	<path class="st0" d="M669.8,367.4L669.8,367.4l108.6,29.3l0-0.8l5.2-12.2l-110.1-29.6l0,0l-1-0.3l0,0l-5.3-1.4
		c-2.8,8.6-3.7,11.5-4.1,12.5h0c0,0,0,0.2,0,0.6l5.7,1.5v0L669.8,367.4z"/>
	<path class="st0" d="M718.5,1161.2c2.2,1,4.4,1.1,6.2,0.2c1.6-0.8,2.7-2.4,3-4.4c0.7-4.6-2.4-9.9-6.8-11.9l0,0
		c-1.2-0.6-2.3-0.8-3.4-0.8c-1,0-1.9,0.2-2.7,0.6c-1.6,0.8-2.7,2.4-3,4.4C711,1153.8,714.1,1159.2,718.5,1161.2z"/>
	<path class="st0" d="M727.2,241c-1.2-0.5-2.3-0.8-3.4-0.8c-1,0-2,0.2-2.8,0.7c-1.6,0.8-2.6,2.4-2.9,4.4c-0.8,4.4,2.1,9.7,6.6,11.9
		c2.3,1,4.5,1.1,6.3,0.2c1.6-0.8,2.6-2.4,3-4.4C734.7,248.4,731.7,243.1,727.2,241z"/>
	<path class="st0" d="M784.8,159.3v224.2l-5.4,12.7v0.8l0.2,0.1l-0.2,0.9v874.6c0,4.6-0.9,16.1-8.8,22.2c-1.7,1.3-3.6,2.3-5.7,3
		c4.8-0.1,8.8-1.3,11.9-3.8c7.6-5.9,8.4-16.9,8.4-21.4V396l5.3-12.7v-224c0.2-20.8-10.9-35-31.3-40.1c-5.6-1.4-42-11.2-58.4-15.9
		c-1.6-0.4-3.1-0.6-4.6-0.4c17.4,5,51.1,14,56.4,15.3C773.5,123.4,784.9,138,784.8,159.3z"/>
	<polygon points="673.5,354.2 673.5,354.2 672.5,353.9 672.5,353.9 	"/>
	<polygon points="672.8,353 672.8,353 673.3,353.1 	"/>
	<path class="st1" d="M759.4,118.2c-5.6-1.4-42-11.1-58.4-15.9c-2.5-0.7-4.9-0.7-7.1-0.1c0.1,0,0.2,0,0.3,0.1c0.6,0.2,1.3,0.4,2,0.6
		c1.5-0.2,3,0,4.6,0.4c16.4,4.8,52.8,14.5,58.4,15.9c20.4,5.1,31.5,19.3,31.3,40.1v224l-5.3,12.7v876.5c0,4.5-0.8,15.6-8.4,21.4
		c-3.2,2.4-7.2,3.7-11.9,3.8c-1.2,0.4-2.5,0.6-3.9,0.8c1.2,0.1,2.3,0.2,3.5,0.2c5.2,0,9.5-1.3,12.9-4c7.9-6.1,8.8-17.6,8.8-22.2
		V396.2l5.3-12.7V159.3C791.7,138,780.3,123.4,759.4,118.2z"/>
	<polygon points="669.8,367.4 668.8,367.2 668.8,367.2 669.8,367.4 	"/>
	<path class="st1" d="M692.1,102.9c0.3,0,0.5,0.1,0.8,0.1C692.6,103,692.3,102.9,692.1,102.9z"/>
	<path class="st1" d="M727.6,240L727.6,240c-2.6-1.1-5.1-1.2-7.1-0.1c-1.8,1-3.1,2.8-3.5,5.1c-0.9,4.8,2.3,10.6,7.2,12.9c1.3,0.6,2.7,0.9,4,0.9
		c1.2,0,2.3-0.3,3.3-0.8c1.9-1,3.1-2.8,3.5-5.1C735.8,248.2,732.5,242.3,727.6,240z M733.9,252.9c-0.3,2-1.4,3.6-3,4.4
		c-1.8,0.9-4,0.9-6.3-0.2c-4.5-2.1-7.5-7.5-6.6-11.9c0.3-2,1.4-3.6,2.9-4.4c0.8-0.5,1.8-0.7,2.8-0.7c1.1,0,2.3,0.3,3.4,0.8
		C731.7,243.1,734.7,248.4,733.9,252.9z"/>
	<path class="st1" d="M724.2,154.3c1.3,0.6,2.7,0.9,3.9,0.9c1.2,0,2.3-0.3,3.4-0.8c1.8-1,3-2.8,3.4-5c0.8-4.9-2.4-10.8-7.3-13
		c-2.5-1.2-5-1.2-7.1-0.2c-1.9,1-3.1,2.8-3.5,5.1C716.1,146.1,719.3,151.9,724.2,154.3z M718,141.4c0.3-2,1.4-3.6,3-4.4
		c0.8-0.4,1.8-0.7,2.7-0.7c1.1,0,2.3,0.3,3.5,0.8c4.5,2.1,7.5,7.5,6.7,12c-0.3,2-1.4,3.5-2.9,4.3c-1.8,1-4.1,0.9-6.4-0.1
		C720.1,151.2,717.2,145.8,718,141.4z"/>
	<path class="st1" d="M692.9,103c0.4,0.1,0.7,0.1,1.1,0.2C693.6,103.2,693.2,103.1,692.9,103z"/>
	<path class="st1" d="M718.1,1162.2c1.3,0.6,2.6,0.9,3.9,0.9c1.1,0,2.2-0.2,3.2-0.8c1.9-1,3.2-2.8,3.6-5.1c0.7-5-2.6-10.8-7.4-12.9
		c-2.4-1.2-5-1.2-7-0.2c-1.9,1-3.1,2.8-3.5,5.1C710,1154,713.3,1160,718.1,1162.2z M711.8,1149.4c0.3-2,1.4-3.6,3-4.4
		c0.8-0.4,1.7-0.6,2.7-0.6c1.1,0,2.2,0.3,3.4,0.8l0,0c4.4,2,7.5,7.3,6.8,11.9c-0.3,2-1.4,3.6-3,4.4c-1.8,0.9-4,0.8-6.2-0.2
		C714.1,1159.2,711,1153.8,711.8,1149.4z"/>
	<path class="st1" d="M721.3,1247.7c-2.4-1.2-5-1.2-7-0.2c-1.9,1-3.1,2.8-3.5,5.2c-0.8,5,2.4,10.7,7.3,13c1.3,0.6,2.5,0.9,3.8,0.9
		c1.2,0,2.3-0.3,3.3-0.8c1.9-1,3.1-2.8,3.5-5C729.5,1255.7,726.2,1250,721.3,1247.7z M727.7,1260.6c-0.3,1.9-1.4,3.5-3,4.3
		c-1.8,0.9-4,0.9-6.2-0.1c-4.5-2.1-7.5-7.5-6.7-12c0.3-2,1.4-3.6,3-4.4c0.8-0.4,1.7-0.6,2.7-0.6c1.1,0,2.2,0.3,3.4,0.8l0,0
		C725.4,1250.8,728.4,1256,727.7,1260.6z"/>
	<path class="st1" d="M694,103.3c16.7,4.8,52.9,14.5,58.4,15.9c20.4,5.1,31.5,19.3,31.4,40.1v223.4l-110.6-29.7l0.6,0.1c-0.1,0.3-0.2,0.6-0.3,1
		l110.1,29.6l-5.2,12.2l0,0.8l-108.6-29.3c0,0.3,0,0.7,0,1l108.6,29.3v874.8c0,4.5-0.8,15.6-8.4,21.4c-2.5,1.9-5.5,3.1-9,3.6
		c1.4,0.1,2.7,0.2,3.9,0.2c2.1-0.7,4-1.6,5.7-3c7.9-6.1,8.8-17.6,8.8-22.2V397.9l0.2-0.9l-0.2-0.1v-0.8l5.4-12.7V159.3
		c0.1-21.3-11.3-35.9-32.2-41.1c-5.3-1.3-39-10.4-56.4-15.3C695.5,103,694.8,103.1,694,103.3C694,103.3,694,103.3,694,103.3z"/>
	<path class="st1" d="M747.9,1296.3c-10.5-2.7-19.6-5-27.3-7c-13.3-3.4-22.9-5.8-28.1-7.3c-6.9-2-29.2-11.1-29.2-43.2
		c0-30.6-0.1-830.7-0.1-872.1l5.7,1.5c0-0.4,0-0.7,0-1l-5.7-1.5c0-0.4,0-0.6,0-0.6h0c0.4-1,1.4-3.9,4.1-12.5l5.3,1.4
		c0.1-0.3,0.2-0.6,0.3-1l-5.4-1.5V128.3c0.6-1.6,10.2-27.1,24.6-25.4c0,0,0,0,0,0c0.6-0.3,1.3-0.5,1.9-0.7
		c-16.7-4.4-27.1,24.5-27.5,25.8l0,0.1v223.7c-3,9.3-3.9,11.9-4.1,12.7h-0.2v0.5c0,0,0,0.4,0,1.3l0,0.1l0,0
		c0,38,0.1,841.8,0.1,872.4c0,32.9,22.9,42.1,30,44.2c5.2,1.5,14.9,4,28.2,7.3c7.8,2,16.9,4.3,27.3,7c3.7,0.9,7,1.4,10.1,1.4
		c1.1,0,2.2-0.1,3.3-0.2c-1.6-0.2-3.4-0.5-5.1-0.9C753.5,1297.5,750.8,1297,747.9,1296.3z"/>
	<path class="st1" d="M673.8,353.2l-0.6-0.1l-0.4-0.1c-0.1,0.3-0.2,0.6-0.3,1l1,0.3C673.6,353.9,673.7,353.6,673.8,353.2z"/>
	<path class="st1" d="M761,1297.5c-1.6,0.2-3.3,0.2-5.1,0.1c1.8,0.4,3.5,0.7,5.1,0.9c1.4-0.2,2.6-0.4,3.9-0.8
		C763.7,1297.7,762.4,1297.6,761,1297.5z"/>
	<path class="st1" d="M692.1,102.9c0.3,0,0.5,0.1,0.8,0.1c0.4,0.1,0.7,0.1,1.1,0.2c0,0,0.1,0,0.1,0c0.7-0.2,1.4-0.3,2.2-0.4
		c-0.7-0.2-1.3-0.4-2-0.6c-0.1,0-0.2,0-0.3-0.1C693.3,102.4,692.7,102.6,692.1,102.9C692.1,102.9,692.1,102.9,692.1,102.9z"/>
	<path class="st1" d="M669.8,367.4l-1-0.3c0,0.3,0,0.7,0,1l1,0.3C669.8,368.1,669.8,367.7,669.8,367.4z"/>
</g>
<path class="st0" d="M660.7,1300"/>
<path class="st1" d="M717,1149.2c-0.9,4.8,2.3,10.7,7.2,13c0.2,0.1,0.5,0.2,0.7,0.3c0.1,0,0.2-0.1,0.3-0.1c0.3-0.2,0.6-0.4,0.9-0.6
	c-0.5-0.1-0.9-0.3-1.4-0.5c-4.4-2-7.5-7.5-6.6-11.9c0.3-2,1.4-3.6,3-4.4c0.3-0.2,0.6-0.3,1-0.4c-0.2-0.1-0.4-0.2-0.6-0.3
	c-0.2-0.1-0.4-0.2-0.6-0.3c-0.1,0-0.1,0.1-0.2,0.1C718.7,1145,717.4,1146.9,717,1149.2z"/>
<path class="st1" d="M726,1265.3c-0.4-0.1-0.9-0.3-1.4-0.5c-4.5-2.2-7.5-7.5-6.6-12c0.3-2,1.4-3.6,3-4.4c0.3-0.2,0.6-0.3,1-0.4
	c-0.2-0.1-0.4-0.2-0.6-0.3c-0.2-0.1-0.4-0.2-0.6-0.3c-0.1,0-0.1,0.1-0.2,0.1c-1.9,1-3.1,2.8-3.5,5.1c-0.9,4.9,2.3,10.7,7.2,13.1
	c0.2,0.1,0.4,0.2,0.6,0.2c0.1-0.1,0.3-0.1,0.4-0.2C725.5,1265.7,725.7,1265.5,726,1265.3z"/>
<path class="st1" d="M732.3,257.6c-0.4-0.1-0.8-0.3-1.2-0.5c-4.4-2.1-7.5-7.4-6.8-11.9c0.4-2,1.5-3.6,3.1-4.5c0.3-0.2,0.7-0.3,1-0.4
	c-0.2-0.1-0.5-0.3-0.7-0.4l0,0c-0.2-0.1-0.3-0.1-0.5-0.2c-0.1,0-0.1,0.1-0.2,0.1c-1.9,1-3.1,2.8-3.6,5.2c-0.7,4.9,2.5,10.6,7.4,12.9
	c0.2,0.1,0.4,0.1,0.5,0.2c0.1,0,0.1,0,0.2-0.1C731.7,258,732,257.8,732.3,257.6z"/>
<path class="st1" d="M732.3,153.8c-0.4-0.1-0.8-0.3-1.2-0.4c-4.4-2.1-7.5-7.5-6.8-12c0.4-2.1,1.5-3.6,3.1-4.5c0.3-0.1,0.6-0.3,0.9-0.4
	c-0.2-0.1-0.4-0.2-0.6-0.3c-0.2-0.1-0.4-0.2-0.6-0.2c0,0-0.1,0-0.1,0c-1.9,1-3.2,2.8-3.6,5.2c-0.7,4.9,2.6,10.7,7.4,13
	c0.2,0.1,0.3,0.1,0.5,0.2c0.1,0,0.2-0.1,0.3-0.1C731.8,154.2,732.1,154,732.3,153.8z"/>
<path class="st1" d="M673.8,353.2l-1-0.3c-0.1,0.3-0.2,0.6-0.3,1l1,0.3C673.6,353.9,673.7,353.6,673.8,353.2z"/>
</svg>
