<svg xmlns="http://www.w3.org/2000/svg" xmlns:xlink="http://www.w3.org/1999/xlink"
    viewBox="0 0 1200 1200" enable-background="new 0 0 1200 1200">
    <style type="text/css">.st0{fill:none;} .st1{fill:none;stroke:#000000;stroke-linecap:round;stroke-width:3;} .st2{clip-path:url(#SVGID_2_);} .st3{fill:none;stroke:#FFFFFF;stroke-miterlimit:10;}</style>
    <path class="st0" d="M1086.4 0h-972.8v1200h972.8v-1200z"/>
    <path class="st1"
        d="M633.4 713.9l-55.5-14.9M654.6 701.7l-21.2 12.2M687.9 710.6l-33.3-8.9M687.9 711.8v-1.2M596.4 823.9l-33.2-9M521.5 785.7l44.3 11.9M233.5 762.1c-11.2-3-22.6-5.8-33.8-9.3-6.9-2.2-13.8-4.9-20.5-7.8-31.4-14.2-67.4-42.2-63.2-81 .8-7.3 3.1-14.4 6.4-20.9 5.1-9.9 12.5-18.5 20.8-25.7 9.9-8.6 21.1-15.5 32.9-21.1 42.7-20.1 92.6-25 139-19.3 19.6 2.5 38.6 7.7 57.7 12.9M115.7 671.1c0 12.3-1.2 25.2 2.2 37.2 8.2 28.8 35.5 48.1 61.4 59.7 6.7 3 13.6 5.6 20.5 7.8l20.8 5.8M317.1 658.7c-16.1-4.4-32.4-10.5-49.2-11.3-9.7.4-20.3 1.9-27.8 8.7-6.8 5.8-7 14.5-.4 20.5 8.2 7.5 22.1 9.3 31.8 11.9l17.7 4.9M241.5 677.9c17.9-13.5 41.1-5.4 60.2-.2M596.4 824.2l11.8-15 67.8-84 11.9-14.6M563.2 815.2l2.6-17.6M233.1 762.6l25.7 6.9M515.1 776.6l-304.1 376.6M654.8 701.7v-.3M565.5 799v-1.1c-13.9-3.8-27.9-7.5-41.9-11.3-3.5-.9-6.8-3.7-8-7.2l-.5-2.8 11.8-14.7 475.8-589 11.8-14.7v-80.2c0-16.4 1-33.6-3.7-49.5-1.8-6.3-4.7-13.2-10.4-17.1-4.1-2.9-12.8-4.3-16.2-5.2l-12.8-3.4-3.8-.8c-7.6.5-12.3 3.6-19.8 7l-23.5 11.6c-24.9 13-48.6 27.7-71.8 43.6-100 69.2-184.6 159-261 253-4.2 5.1-7.6 10.9-11.7 16.1l-11.9 14.7-322.9 399.9c-9.4 11.7-18.5 22.7-25.7 35.8-18.5 33.7-29.5 72.9-33 111-1.1 12.6-.9 25.3-.9 38v194.7c0 12.5-1.5 24.3 4.6 35.5 5.3 9.8 14.5 17.8 25 21.9l4.5 1.4 17.1 4.6 17 4.6 5.4 1.3c17.6 3.3 40.6 1.3 54.4-11.5l2.7-2.9 11.9-14.6 224.9-278.6 11.8-14.7v-23.1M704.1 679l18.1 4.9 121.5 32.6c30.9 8.4 61.9 17.4 86.3 39.1 7.6 6.7 14.4 14.6 19.3 23.7 3 5.4 5.1 11.2 6.4 17.1 5.5 26.5-9.8 50.6-29.6 66.7-36.3 29.2-84.4 37.8-129.7 39.7-15.2-.2-30.2-.8-45.2-2.9-16-2.4-31.3-6.6-46.9-10.9l-121.5-32.6-18.1-4.9M997.1 9.5l-3.7-.7c-7.7.6-12.5 3.6-19.9 7.1l-23.5 11.6c-24.9 13-48.8 27.7-71.8 43.7-89.1 61.6-166.3 139.8-235.9 222.4-8.2 9.7-17.1 20.7-25.2 30.6l-3.1 3.9-5.8 8.4-2.9 3.9-11.7 14.6-323 399.8c-11.6 14.3-22.1 27.9-30.1 44.3-15.6 31.8-25.4 67.4-28.6 102.6-1.1 12.6-.9 25.3-.9 38v213.6c0 1.4.4 2.9 1.1 4.1 4.3 7.8 18.1 8.7 24.5 10.4l17 4.6 5.4 1.3c16.7 3.2 37 1.4 51.2-8.7 7.1-5.1 12.8-14.1 17.9-20.3l224.9-278.5 11.8-14.7M1014.6 158.2c.5 4.9 3.8 8.8 8.4 10l17.1 4.5 17.1 4.7c12.4 3.4 31.8 13.7 26.3 29.8-.8 2.4-2 4.4-3.6 6.4l-11.8 14.6-352.3 436.1-11.8 14.7M1023 168.2l-11.7 14.7-407.8 504.8-11.8 15M583.1 692.4c1.3 12 18.8 12.7 26.7 14.8l5.6 1.5 18.2 4.9M719.4 683.1l11.8-14.7 337-417.2 11.8-14.7c5.7-7.4 4.4-15.4 4.4-24.3v-11.5M956.9 805.2c0 16.5 1.7 33.6-5.1 49.2-8.9 19.9-26.9 34.7-45.6 45-33.7 18.7-71.8 24.9-109.7 26.4-15.2-.1-30.2-.7-45.2-2.9-16-2.3-31.3-6.6-46.9-10.8l-121.5-32.6-18.1-4.9M831.1 822.7c-3.7-2.8-7.8-4.5-12.2-5.7l-18.1-4.9-15.4-4.2-18.2-4.9-3-2.1c-2.3-1.4-4.8-2.6-7.3-3.5-6-2.2-12.2-2.9-18.5-3.3-11 .2-25.3 1.6-33.5 10.1"/>
    <path class="st1"
        d="M716.6 811c4.4 1.4 8.7 2.6 13.4 3.1l9.5.3 18.1 5 15.4 4c17.4 4.7 34.9 10.6 52.3 2.8 7-3.2 14.9-9.9 12.2-18.5-.5-1.8-1.6-3.5-2.8-4.9-7.7-9.2-23.8-11.1-33.9-13.8l-15.4-4.2-18.2-4.9-3-2.1c-2.3-1.4-4.8-2.6-7.3-3.5-6-2.2-12.2-2.9-18.5-3.3-10.6.2-21.6 1.6-30.6 7.8-7 4.9-11.4 13.3-6.3 21.3 1.1 1.9 2.7 3.5 4.4 5 3.3 2.8 6.8 4.3 10.7 5.9zM336.3 720c1.9 17.2-2.3 35.5-7.8 51.6-3.3 9.8-7.5 19.8-13.6 28.1"/>
    <path class="st1"
        d="M316 807.3c-2.7-13.1-1.5-26.5 1.1-39.5 1.9-8.7 4.4-17.4 7.6-25.7 2.2-5.7 4.7-11.2 7.8-16.6l2.8-4.5 2.9-3.9c3.8-4.7 11.6-12.5 17.8-6.8l1.9 2.1 1.5 2.9c1 2.5 1.7 5.3 2.2 8 .4 3.3.7 6.9.7 10.2 0 22.9-6.6 47.5-18 67.1-4.3 7.3-10.1 16.4-19.3 17.2-5.7-1.2-7.3-5.4-9-10.5zM415.8 621.4c1.9 17.3-2.3 35.6-7.8 51.7-3.3 9.7-7.5 19.7-13.6 28.1"/>
    <path class="st1"
        d="M395.6 708.8c-2.7-13.1-1.5-26.4 1.1-39.5 1.9-8.8 4.3-17.4 7.5-25.7 2.2-5.7 4.8-11.3 7.8-16.5l2.9-4.5 2.7-4c3.8-4.7 11.7-12.4 17.9-6.8l1.9 2.2 1.5 2.8c1 2.5 1.7 5.4 2.2 7.9.4 3.3.7 7 .7 10.3-.1 22.8-6.6 47.4-18.1 67.1-4.2 7.3-10.1 16.4-19.2 17.2-5.6-1.2-7.2-5.4-8.9-10.5zM495.3 522.9c2 17.2-2.2 35.5-7.8 51.6-3.2 9.8-7.4 19.8-13.6 28.1"/>
    <path class="st1"
        d="M475.1 610.3c-2.7-13.1-1.5-26.4 1.1-39.5 1.9-8.7 4.4-17.4 7.6-25.7 2.1-5.7 4.7-11.2 7.8-16.6l2.8-4.5 2.9-4c3.8-4.6 11.6-12.4 17.8-6.8l1.9 2.2 1.5 2.9c1 2.5 1.7 5.3 2.1 8 .5 3.3.7 6.9.7 10.2 0 22.9-6.5 47.5-18 67.2-4.3 7.3-10.2 16.4-19.3 17.3-5.5-1.4-7.1-5.6-8.9-10.7zM553.4 504.1c6.2-8.3 10.4-18.4 13.7-28 5.6-16.2 9.7-34.6 7.8-51.7"/>
    <path class="st1"
        d="M582.6 415.9c-10.8 9.6-16.9 23.4-21.5 36.8-3.5 10.5-6.1 21.5-7.3 32.5-1.1 9.8-1.7 21 2.1 30.2l1.6 2.8c4.6 7.1 12 3.4 16.7-1.4 2.1-2.1 4.1-4.6 5.8-7.1 12.6-18.7 19.4-43.3 20.7-65.7l.3-5.9c0-8.3-.5-22.6-10.4-25.1-3.5.3-5.2 1.2-8 2.9zM654.5 325.9c1.8 17.1-2.3 35.5-7.8 51.7-3.3 9.7-7.5 19.7-13.6 28"/>
    <path class="st1"
        d="M634.3 413.3c.9 2.8 1.2 4.2 2.7 6.5l1.9 2.2c6.2 5.7 14.1-2.2 17.8-6.8l2.8-3.9 2.9-4.5c11.4-19.7 18-44.4 18-67.1 0-8.4-.3-22.6-10.5-25.2-10.8 1-17.5 13.6-21.9 22.2-5.9 11.7-10 24.4-12.5 37.2-2.8 13-4 26.4-1.2 39.4zM733.7 241.1c1.9 17.2-2.3 35.5-7.7 51.7-3.3 9.7-7.5 19.7-13.7 28"/>
    <path class="st1"
        d="M713.5 328.5c-2.7-13.1-1.5-26.4 1.2-39.5 1.7-8.7 4.3-17.4 7.5-25.7 2.2-5.7 4.7-11.3 7.8-16.5l2.8-4.5 2.8-3.9c3.8-4.7 11.7-12.5 17.9-6.8l1.7 2.2 1.6 2.9c1 2.5 1.7 5.2 2.1 7.8.4 3.3.7 6.9.7 10.2 0 22.9-6.6 47.4-18.1 67.1-4.2 7.2-10 16.4-19.2 17.2-5.5-1.2-7.1-5.4-8.8-10.5zM812.1 170.8c1.8 17.2-2.3 35.5-7.8 51.7-3.3 9.8-7.5 19.7-13.6 28"/>
    <path class="st1"
        d="M791.8 258.2c-2.7-13.1-1.5-26.4 1.2-39.5 1.8-8.7 4.3-17.4 7.5-25.7 2.2-5.7 4.7-11.2 7.7-16.5l2.9-4.5 2.8-3.9c3.8-4.6 11.7-12.5 17.8-6.8l1.8 2.2 1.5 2.9c1 2.4 1.7 5.3 2.1 7.9.5 3.3.7 7 .7 10.3 0 22.8-6.6 47.4-18 67.1-4.1 7.2-10.1 16.4-19.2 17.2-5.4-1.4-7.1-5.6-8.8-10.7zM889 115.4c1.7 17.2-2.4 35.5-7.8 51.7-3.3 9.8-7.5 19.8-13.6 28"/>
    <path class="st1"
        d="M868.7 202.9c-2.6-13-1.4-26.4 1.2-39.5 1.8-8.7 4.3-17.4 7.6-25.7 2.1-5.7 4.7-11.2 7.7-16.5l2.9-4.5 2.8-4c3.8-4.6 11.6-12.5 17.9-6.8l1.7 2.2 1.5 2.9c1 2.5 1.7 5.3 2.1 7.9.5 3.3.7 7 .7 10.3 0 22.8-6.6 47.4-18.1 67.1-4.2 7.2-10 16.4-19.1 17.2-5.6-1.4-7.3-5.6-8.9-10.6zM963.7 75.5c1.9 17.2-2.3 35.5-7.8 51.7-3.3 9.7-7.5 19.7-13.7 28"/>
    <path class="st1"
        d="M943.5 162.8c-2.7-13.1-1.5-26.4 1.2-39.5 1.7-8.7 4.2-17.3 7.5-25.7 2.2-5.6 4.7-11.2 7.8-16.5l2.8-4.5 2.8-3.9c3.8-4.7 11.7-12.5 17.8-6.8l1.8 2.1 1.5 2.9c1.1 2.5 1.7 5.3 2.1 7.9.6 3.3.8 6.9.8 10.2 0 22.8-6.6 47.4-18.1 67.1-4.3 7.2-10.1 16.4-19.2 17.2-5.5-1.2-7.2-5.4-8.8-10.5zM234.8 891.3c.5-13 2.5-25.6 6.1-38.1 2.4-8.2 5.3-16.3 9.3-23.9l2.7-5.1 2.8-4.5 2.8-3.9c3.8-4.7 11.7-12.5 17.9-6.8l1.7 2.1 1.6 2.9c.9 2.4 1.6 5.3 2 7.8.5 3.3.7 7 .7 10.3 0 22.8-6.6 47.4-18 67.1-4.2 7.3-10.1 16.4-19.3 17.2-10-2.5-10-16.6-10.3-25.1zM235.2 898.2c6.1-8.3 10.4-18.4 13.7-28.1 5.5-16.1 9.6-34.5 7.8-51.7"/>
    <defs>
        <path id="SVGID_1_" d="M113.6 1200z"/>
    </defs>
    <clipPath id="SVGID_2_">
        <use xlink:href="#SVGID_1_" overflow="visible"/>
    </clipPath>
    <path class="st3" d="M113.6 1200l19.2-19.3"/>
    <path class="st0" d="M113.6 1200z"/>
</svg>
