<svg xmlns="http://www.w3.org/2000/svg" xmlns:xlink="http://www.w3.org/1999/xlink"
    viewBox="0 0 1200 1200" enable-background="new 0 0 1200 1200">
    <style type="text/css">.st0{fill:none;} .st1{fill:none;stroke:#000000;stroke-linecap:round;stroke-width:2.5;} .st2{clip-path:url(#SVGID_2_);} .st3{fill:none;stroke:#FFFFFF;stroke-miterlimit:10;}</style>
    <path class="st0" d="M1200 292.3h-1200v615.4h1200v-615.4z"/>
    <path class="st1"
        d="M224 384.9l906.1 243.9M224.7 382.9l906.8 244.1M221.6 384.7l2.1.7M1197.6 645.1v-78.5M1170.3 579.1l-962.8-259.3M207.5 312.6l967.6 260.4M219 298.3l-8.1-2.2M223.7 295.8l-2.1-.6M1187.4 554.6l-963.4-259.3M1189.2 555.7l-2.2-.6M1186.7 558.8l8 2.2M1197.6 566.6l-.4-.1M1192.6 559.1v-.5M1189.2 558.2v-2.5M1191 558.7l.8-1M1192.3 559l.3-.4M1187.4 554.6v.6M1115.7 646.7l-908.2-244.6M207.5 409.4l903.4 243.3M221.9 323.7v58.7M223.9 324.2v57.8M224.7 382.2c-.6-.2-1-.3-1.6-.3-.5.1-1.5.3-1.6 1v2M224.7 382.2c0 1.3-.2 2.2-1 3.2M221.6 384.7l-3.8 4.7-6.5 8.1-3.8 4.6v7.3M207.5 409.4l-3.8 4.6-178 220.6c-2.8 3.4-5.9 8.7-10.8 9.1l-4-1.1-4-1-1.2-.4c-1.3-.7-2.2-2.1-2.8-3.4-1.2-2.9-1.4-6.3-1.5-9.4v-42.5c0-4 0-8.1.4-12.2 1-9.1 3.6-18.2 7.7-26.4 2.2-4.3 5.1-7.9 8.2-11.7l189.6-234.7 3.7-4.6c1.5-1.8 3.2-.4 5.3.1l3.7 1M223.7 295.8l1-1.2c2.2-2 5.2.1 7.6.7l951.9 256.3c3 .8 6.7.4 7.4 3.8l.1 1.1c.1.8.3 1.7-.2 2.4M1197.2 567.1c1.6-2 1.9-4.4-.2-6.2M1198.6 563.9v78.4l-.1 1c-.1.8-.4 1.1-.9 1.8l-.4.5v5.300000000000001c-.2 2.4-1 5.1-2.5 7l-3.7 4.6-189.6 234.7c-2.8 3.4-5.9 8.8-10.9 9.1l-4-1.1-4-1-1.1-.4c-1.4-.6-2.2-2-2.8-3.4-1.3-2.9-1.5-6.3-1.5-9.4v-42.5c0-4.1 0-8.1.4-12.2 1-9.1 3.6-18.3 7.7-26.4 2.2-4.4 5.1-8 8.1-11.8l189.6-234.7 3.7-4.6.9-.8.7-.1 4 1.1c2.7.7 4.6.2 4.9 2.9v5.2M1189.2 555.7l-3.8 4.6-6.6 8.2-3.7 4.6M221.6 295.2l-3.8 4.6-6.5 8.2-3.8 4.6v7.2M14.9 643.6l-1.2-.4c-2.7-1.3-3.5-4.9-3.9-7.5l-.2-2.5-.1-2.8v-42.5c0-4.1-.1-8.1.4-12.2 1.1-10 4.1-20.3 9.2-29 1.9-3.3 4.4-6.1 6.7-9.1l189.5-234.7 3.8-4.6c.4-.5.4-.5.9-.8M1196.3 560.1h-.4c-.6.1-.9.4-1.2.9l-3.7 4.6-189.6 234.7c-2.4 3-4.8 5.7-6.8 9-5.1 8.7-8 19-9.2 29.1-.4 4.1-.4 8.1-.4 12.2v42.5l.1 2.8.2 2.5c.4 2.6 1.3 6.3 3.9 7.5l1.2.4M1191.8 558.4c1.3.4 2.7.8 3.8 1.5M1190 553c-1.4.1-2.2 1-3 2.1"/>
    <path class="st1"
        d="M291.7 361.1c.3 2.4.8 4.5 2.2 6.6 1.5 2.2 3.4 4 5.7 5.3 4.6 2.5 12.1 3.1 14.5-2.7.4-1 .5-2.1.5-3 0-5-3.7-9.5-7.8-11.8-2.3-1.3-4.6-1.9-7.2-1.9-3.2.4-6.1 1.5-7.3 4.7-.5.9-.5 1.4-.6 2.8zM314.3 369.2c-1.2.6-2.4.8-3.8 1-5.9-.3-11.2-3.5-13.8-8.9-1-2.1-1.7-4.7-1-7"/>
    <path class="st1"
        d="M551.8 441.3c-4.9-1.7-9.2-4.9-10.9-10-.4-1.1-.6-2.2-.6-3.3 0-1 .2-2.1.6-3 1.4-3.7 5.3-5 9-4.6 5.1.6 9.7 4.2 12 8.7 1.8 3.7 1.8 8.9-2 11.4-1.5.9-2.9 1.1-4.6 1.3-2.3-.2-1.1 0-3.5-.5zM562.9 436.1c-1.3.6-2.4.8-3.8 1-5.8-.3-11.2-3.5-13.7-8.8-1-2.2-1.6-4.8-1-7"/>
    <path class="st1"
        d="M706.4 457.5c-3.2-.6-1.6-.5-4.8-.7-2.3.2-4.3.4-6.3 1.5-6.2 3.2-6.8 10.8-4.2 16.5 3.2 7 10.1 12.4 17.7 13.5 5.6.8 11.7-1.4 13.7-7.1.5-1.3.7-2.7.7-4 0-1.6-.2-3-.7-4.4-1.7-5.7-6.2-10.5-11.4-13.3-2-1.2-2.6-1.3-4.7-2zM722.3 481.7c-2.3 1.5-4.6 1.9-7.4 2.1-2.2-.1-2.7-.1-4.8-.6-6.7-1.8-12.5-6.8-15.4-13.1-1.4-3.4-2.2-7.7-.6-11.1"/>
    <path class="st1"
        d="M859.1 523.9c-4.5-2.2-8.6-5.8-9.5-11-.2-1-.2-2.1 0-3.2 1-5.3 6.6-7 11.3-5.7 4.3 1.1 8.2 4.3 10.1 8.4 1.9 3.8 1.9 8.8-2.1 11.4-1.4.9-2.9 1.1-4.5 1.3-1.8-.2-3.5-.5-5.3-1.2zM853.6 504.5c-.7 2.3-.1 4.9.9 7 2.8 5.9 11 11.2 17.5 7.9"/>
    <path class="st1"
        d="M1106 590c-3.7-2.4-6.9-5.7-7.7-10.2-.2-1.1-.2-2.1 0-3.2.2-1 .6-1.9 1.1-2.8 2.6-4 8.1-3.9 12.1-2.3 4 1.7 7.6 5.1 9 9.4 1.3 4 .2 8.7-4 10.3-1.3.5-1.9.5-3.2.6-2.9 0-4.9-.6-7.3-1.8zM1120.7 586.3c-1.3.6-2.4.8-3.8 1-5.9-.3-11.2-3.5-13.8-8.8-1-2.1-1.6-4.8-.9-7M1133.1 674.8c-.2 5.2-1.9 10.9-4.7 15.3l-.9 1.3-3.7 4.6-121.7 150.7-3.7 4.6"/>
    <path class="st1"
        d="M1004 856.5l3.7-4.6 124.2-153.7 3.7-4.7.9-1.2c2.8-4.3 4.3-9.7 4.7-14.8.1-2.4.5-6.6-2.3-7.8-1.5 0-2.4.9-3.3 2l-3.7 4.6-124.2 153.7-3.7 4.7-.9 1.2c-2.5 3.8-3.8 8.5-4.5 12.9l-.2 1.9v3.5c.2 1.5.8 4.8 3 4.2l.8-.4c.8-.4 1.2-.8 1.8-1.5zM22.6 589.9c0 1.2 0 1.9.3 3l.3 1.1.5.8c1.4 2 3.5.1 4.6-1.1l3.7-4.6 124.2-153.7 3.7-4.6.9-1.3c2.8-4.3 4.3-9.7 4.7-14.8.1-2.4.4-6.6-2.3-7.7-1.5 0-2.3.9-3.3 2l-3.7 4.6-124.2 153.7-3.7 4.6-.9 1.3c-3.2 4.9-4.5 11-4.8 16.7zM157.4 412.1c-.3 5.2-1.9 10.9-4.7 15.3l-.9 1.2-3.7 4.7-121.7 150.6-3.7 4.6"/>
    <defs>
        <path id="SVGID_1_" d="M0 907.7z"/>
    </defs>
    <clipPath id="SVGID_2_">
        <use xlink:href="#SVGID_1_" overflow="visible"/>
    </clipPath>
    <path class="st3" d="M0 907.7l14-13.9"/>
    <path class="st0" d="M0 907.7z"/>
</svg>
