<svg xmlns="http://www.w3.org/2000/svg" xmlns:xlink="http://www.w3.org/1999/xlink"
    viewBox="0 0 1400 1400" enable-background="new 0 0 1400 1400">
    <style type="text/css">.st0{fill:none;} .st1{fill:none;stroke:#000000;stroke-linecap:round;stroke-linejoin:round;stroke-width:3;} .st2{clip-path:url(#SVGID_2_);} .st3{fill:none;stroke:#FFFFFF;stroke-miterlimit:10;}</style>
    <path class="st0" d="M1300 330.8h-1200v738.4h1200v-738.4z"/>
    <path class="st1"
        d="M127.1 686l8 2.1M149.4 647.8l8 2.1M140.6 670.6l-7.9-2.1M161.1 648.1l-.6-.1c-1.4.1-2.2 1-3.1 2l-2.8 3.4-11.2 13.9c-1.4 1.7-3 3.4-4.1 5.4-2.8 4.6-4 10.1-4.3 15.5M127.1 686c.2-5.4 1.5-10.9 4.3-15.5 1.1-1.9 2.7-3.6 4-5.3l11.2-13.8 2.8-3.4.6-.8.7-.5c1.9-1.5 4.1-.1 6.2.5l3.9 1.1M1251.7 1057.8v-.1M1251.7 1057.8v-.8M1251.7 1057.8l.5-.7M1245.1 986.9l-7.9-2.1M1259.4 946.7l8 2M1242.7 967.3l8 2.2M1271.1 946.9h-.3l-3.8-1.1-3.8-1.1-.5-.1c-1.4.1-2.3 1-3.2 2.1l-2.7 3.4-11.2 13.8c-1.4 1.8-3 3.5-4.1 5.4-2.7 4.6-4 10.2-4.2 15.5M1245.1 986.9c.2-5.4 1.5-10.9 4.3-15.5 1.1-1.9 2.7-3.6 4.1-5.3l11.1-13.8 2.8-3.5c.8-1 2-2.2 3.4-1.9M1263 1039.9l8 2.2 3.8-4.8M1298.5 1028h.3M1294.9 984.5l3.9-4.8M1298.5 979.6l.3.1M1294.9 984.5v-17.9M1290.2 966.9l1.9-2.2M1290.2 959.4l-7.9-2.2M1271.5 970.6l8 2.2M1290.2 966.9v-7.5M1298.8 1028l-3.9 4.9M1263 1060.4l8 2.1M1274.8 1057.7l-.2-.1M1263 1012l8 2.1M1274.6 1009.2l.2.1M1277.4 982.5l.2.1M1279.5 980.3l-.2-.1M1288.3 1031.8l-4.2-1.2M1294.9 966.6l-2.8-1.9-.3-.1M1290.2 959.4l-2.7 3.4-5.3 6.5-2.7 3.5v7.5l-1.9 2.3-1.3 4.1-.1.5-1.4 4.2v17.9l-3.8 4.8v28M1298.8 1028c-.2 5.2-1.5 10.6-4.1 15.2-1.2 2-2.7 3.8-4.1 5.5l-11.2 13.8c-1.4 1.8-3 4.7-5.5 5.4-2.2 0-2.6-2.4-2.8-4.2v-1.3l3.9-4.8v-20.4M1294.9 1032.9v-20.5l3.9-4.8v-27.900000000000002M1271.5 970.9v-.3l2.8-3.4 5.3-6.5 2.7-3.5M1273.2 1068l-3.9-1.1c-2.6-.6-4.9-.5-5.7-3.2l-.3-.9-.1-1.2c-.1-1.4-.3-1 .1-1.6M1263.2 1011.7l-.2.3v27.900000000000002"/>
    <path class="st1"
        d="M1281.5 1040.2l.1.9c0 1 .4 3.1 1.9 2.6l.5-.2.4-.4s.7-.7 1-1.2c1.7-2.7 2.7-6 2.9-9.1.1-1.4.3-4.2-1.5-4.6-1.4.2-2.1 1.5-2.8 2.7-1.6 2.8-2.4 6-2.5 9.3zM128.5 646.6l-7.9-2.1M117.8 660l10.7-13.4M109.8 657.8l8 2.2M109.2 729.3l-7.9-2.1M109.2 701.4v27.9M101.3 699.3l7.9 2.1M101.3 747.6l7.9 2.1M109.8 658.1v-.3l2.7-3.4 5.3-6.5 2.8-3.4M101.5 698.9l-.2.4v27.9M101.5 747.3c-.5.6-.3.2-.2 1.5l.1 1.2.3 1c.9 2.6 3.2 2.4 5.7 3.2l4 1c1.3.3 2.6-1.1 3.3-2l1.6-1.9M109.5 749.4c-.5.6-.3.3-.2 1.6.2 1.6.5 3.5 2.2 4.2M1141.5 429.9l.8.3M1144.9 422.8l-.8-.2M1141.3 419.5l.7.2M1146.5 426l-4.2 4.2M1145.4 427.6l1 .3M1149.4 412.6l.7.2M1149.9 413.1l1 .2M1152.8 414.5l.9.2M1147.1 414.1l-.9-.3M1150.2 406.9l.7.2M1154.2 403.9l-1-.3M1144.5 413l-1-.3M1130.9 399.5l7.2 2M1154.7 385.3l-7.2-2M1171.2 368.9l-7.2-1.9M1187.8 352.6l-7.2-1.9M709.1 786.5l15.9 4.3M1169.1 334l15.9 4.3M993.2 593l12.5 3.4M751.5 798.3l-.5 8.6M750.5 801.1l-.3 5.5M750.5 801.1l-.9-.2M749.1 802.5l1.4-1.4M750.5 799.4l-.1 1.7M757.4 776l-7.2-1.8M773.9 759.8l-7.2-2M790.5 743.5l-7.2-1.9M807 727.2l-7.2-2M815.5 737.1l-.8-.2M813.2 751.3l-1 1M814.6 754.6l-.9-.3M815.5 743.3l-1-.2M814.7 742.8l-.7-.3M817.3 744.5l1 .3M818.8 733.9l-1-.3M823.6 710.9l-7.2-1.9M840.1 694.6l-7.2-1.9M856.7 678.4l-7.2-2M873.2 662.1l-7.2-2M894.6 659.4l-1.5 1.4M903.8 656.5l.8.3M899.1 662.1l-.7-.2M900.7 669.9l-.9-.3M894.4 675.8l-.9-.3M894.6 659.4l-1.1 17.2M894.4 659.3l.1-1.6M893.6 659.1l1 .3M906.4 629.5l-7.3-1.9M922.9 613.2l-7.2-2M939.5 596.9l-7.2-1.9M956 580.6l-7.2-1.9M977.1 578.2l-1.4 1.4M981.6 585.6l-.9.9M989.1 548.1l-7.1-1.9M1005.7 531.8l-7.2-1.9M1022.2 515.5l-7.1-1.9M1038.8 499.2l-7.2-1.9M1057.1 513l.7.2 4.3-4.1M1062 510.9l-1.1-.3M1060.4 505.8l-.6-.1M1064.9 507.2l.9.3M1057.7 502.8l-.8-.2M1067.1 489.2l-1-.3M1068.9 494.1l.8.2M1064.3 499.6l-.8-.2M1062.7 497.1l-.9-.2M1060.1 496.1l-1-.3M1055.3 482.9l-7.2-1.9M1071.9 466.7l-7.2-2M1088.5 450.4l-7.3-2M1105 434l-7.2-1.9M1121.6 417.8l-7.3-2M965.4 562.4l7.2 2M983.2 571.2l.8.1M976.1 595.4l1-17.2M984 577.6l-1-.3M977.1 578.2l-1-.3M977 578.1l.1-1.7M983.2 577l-.7-.2M977 594.5l-.9-.2M983.2 588.9l-1-.3M985.8 578.7l.9.3M986.2 567.9l1 .3M882.6 643.8l7.2 2M989.8 632.7l15.9 4.3M1148.6 421.3l-.9.9M1149.2 424.3l.9.3M1023.6 614.9l-4.9-1.3M694.5 892.5l-15-4M679.5 846.5v42M1149.3 413.9c.9-1.2 1.5-1.6 3-1.1l.4.6c.3.6.2 1.4.2 2.1-.1 1.9-.6 3.7-1.4 5.4-.4.9-.9 1.8-1.9 2.2-.9 0-1.5-.2-1.8-1M1141.2 420.6c.3-2.9 1-5.8 2.5-8.2.5-.8 2.2-3 3.1-1.4l.2.5c.4 1.6.1 3.4-.2 5.1-.7 3.4-2 6.6-3.2 9.9l-1.3 3.7M1147.7 422.2c.1 1 .3 3.9 2 2.8l.5-.4c.4-.3.7-.8 1-1.2 1.6-2.5 2.4-5.6 2.6-8.6.1-1.1.3-4-1.4-4-1 .5-1.5 1.2-2.1 2.1M1140.1 433.9l1.5-4.1 1.1-3 1.4-4.1c.8-2.2 1.6-4.4 2-6.7.2-.9.3-1.9 0-2.8l-.5-.5-1-.3-.3-.1-.9.5"/>
    <path class="st1"
        d="M1136.6 411c-1 2.9-2 5.7-3.8 8.2-.9 1.3-1.8 2.2-3.3 2.7h-.7c-1.7-.5-2-3-2.1-4.5l-.1-1.6.1-1.8c.4-5.5 2-11.5 5.2-16 .5-.6 1.1-1.3 1.8-1.9l.8-.5.8-.3c2.2-.3 2.7 3 2.9 4.5v3.4000000000000004l-.2 1.8c-.4 2.2-.9 4.1-1.4 6zM1145.6 412.6l-.3-.1c-1.9.7-2.6 3.5-3 5.3l-.3 1.9-.9.9M1152.2 412.8h-.3c-1.5.3-2.3 2.3-3 3.5M1150.4 422.6c-.6.9-1.2 1.8-2.2 2.3M1146.5 426l-.1 1.9-6.3 6M1140.8 432l4.6-4.4v-.5M1149.3 423.2c-.6-.4-.6-1.2-.7-1.9M1154.3 402.1l-4 3.9-.6 4.3-.2 1.7-.6 4.3M1152.1 410.8c.8.7.7 2.2.6 3.2M1150.1 412.8l.8-5.7 3.3-3.2.1-1.8"/>
    <path class="st1"
        d="M1152.5 396.7c-.9 2.1-1.8 4.3-3.1 6.3-.9 1.3-1.9 2.2-3.4 2.7h-.7c-1.7-.5-2-3-2.1-4.5v-3.3c.4-5.5 2-11.5 5.3-16 .5-.6 1-1.4 1.7-1.9l.9-.5.7-.2c2.2-.3 2.8 3 2.9 4.5l.1 1.7-.1 1.8-.2 1.9c-.4 2.3-1.2 4.9-2 7.5zM1153.2 403.1v.5l-3 2.9M1145.5 410.5c.6.8.6 2 .6 3"/>
    <path class="st1"
        d="M1160.7 388.4c.4.4.5.8 1.2 1 1.6.5 3.2-1.5 4-2.7l.9-1.3c2.9-4.8 4.5-10.8 4.5-16.5v-1.6c-.2-1.4-.5-4-2.2-4.5h-.7c-2.4.8-3.9 3.3-5 5.4-2 4.1-3.3 8.7-3.6 13.2-.3 2.5-.2 4.8.9 7zM1176.4 363.4c-.3 2.6-.6 5.3.4 7.8l.4 1 .6.6c1.3 1.1 2.9-.3 3.8-1.2.7-.7 1.3-1.6 1.8-2.4 2.5-4.4 4-9.7 4.4-14.7l.1-1.8-.1-1.6c-.1-1.4-.4-3.9-2.1-4.4h-.7c-1.9.6-3.2 2.3-4.1 4-2.6 3.7-3.7 8.2-4.5 12.7zM989.8 596.3v32c0 3.5-.1 6.9.4 10.3.4 2.2.9 4.5 2.1 6.3 1.6 2.4 3.6 2.4 6.5 3.2l8.7 2.3 4.3 1.1c.9.2 2.2-.2 3-.6 1.9-1 3.6-2.7 4.9-4.3 3.4-4.3 5.8-9.4 7.9-14.5 2.9-7.2 4.8-14.9 5.7-22.7.4-3.8.4-7.6.4-11.4v-24.5l.1-2.4c.3-5.5 1.6-11 3.5-16.2 1.4-3.8 3.1-7.6 5.6-10.7l1.2-1.4 3.1-3 132.3-130.2c2-2 4-3.8 5.5-6.1 1.9-2.8 3.3-5.9 4.5-9 1.9-5.2 3.2-10.7 3.5-16.2l.1-2.5v-25.4c0-3.4.3-7.1-.7-10.4-.3-1.2-.9-2.6-2-3.3l-.9-.4-4.3-1.2-7.4-2-4.3-1.1-1-.1c-2.8.8-4.6 3.1-6.6 5.1l-453.8 446.4-3.1 3.1-.5.6c-1.7 2.1-2.3 5-2.7 7.7M721.9 799.1c.3-2.7 1-5.5 2.7-7.7l.5-.5 3.1-3.1 453.8-446.4 3.1-3.1c1-.9 2.1-1.8 3.4-2l1 .1M1011.7 651.7l-1.3-.3c-3-1.4-3.8-5.5-4.3-8.4-.5-3.4-.4-6.9-.4-10.4v-36.2l-.1-2.3-.2-2c-.3-1.9-1-4.9-3.3-5.5l-1-.1c-2.8.8-4.5 3.1-6.6 5.1l-220.9 217.4-3.2 3.1"/>
    <path class="st1"
        d="M746 793.4c-.5-3.6-.1-7.1.8-10.6.5-1.9 1.1-3.8 1.9-5.6l.8-1.7.8-1.5.8-1.3c1-1.2 3-3.7 4.7-2.3l.5.6c1.3 1.9 1.2 4.8 1 6.9-.3 4.5-1.6 9.1-3.6 13.2-1.1 2.2-2.6 4.7-5 5.5h-.7c-1.3-.5-1.7-2.1-2-3.2zM749.1 802.5c.9-3.2 0-1.8 2.4-4.2"/>
    <path class="st1"
        d="M763.3 779.3c.5.4.6.8 1.2.9 1.7.5 3.3-1.5 4-2.7l.9-1.3c2.9-4.8 4.5-10.9 4.5-16.5v-1.6c-.2-1.4-.5-3.9-2.1-4.5h-.7c-2.5.8-3.9 3.3-5 5.5-2 4-3.3 8.6-3.6 13.1-.3 2.5-.2 4.9.8 7.1zM779.1 754.2c-.3 2.5-.6 5.4.3 7.9l.5.9.5.6c1.4 1.1 3-.3 3.8-1.2.7-.7 1.3-1.6 1.7-2.4 2.6-4.3 4-9.6 4.4-14.6l.1-1.8-.1-1.7c-.1-1.4-.5-3.9-2.1-4.4h-.7c-2 .6-3.2 2.2-4.1 4-2.4 3.8-3.5 8.2-4.3 12.7zM795.7 737.9c-.2 2.6-.5 5.4.4 7.9l.4 1 .6.6c1.3 1.1 2.9-.2 3.8-1.2.7-.7 1.3-1.5 1.8-2.4 2.6-4.4 4-9.6 4.4-14.7v-3.4000000000000004c-.2-1.4-.5-3.9-2.2-4.5h-.7c-2 .6-3.1 2.3-4.1 4-2.5 3.8-3.6 8.2-4.4 12.7zM812.3 721.6c-.3 2.5-.6 5.3.3 7.9l.5.9.5.6c1.4 1.1 3-.2 3.8-1.2.6-.7 1.2-1.6 1.7-2.4 2.6-4.4 4-9.7 4.4-14.7l.1-1.8-.1-1.6c-.1-1.4-.5-4-2.2-4.5h-.7c-2 .6-3.2 2.3-4.2 4-2.3 3.9-3.4 8.4-4.1 12.8zM817.8 733.2v.4l-3 2.9M814.7 742.8c.3-.5.6-1 1.1-1.4l.5-.4c1.7-1.1 2 1.8 2 2.7v1.1c-.2 2.9-1 6.1-2.7 8.7-.5.8-1.2 1.8-2.3 1.9-1.2-.5-1.1-2-1.1-3M812.3 752.2c.3.7 1 1.3 1.9 1.1.5-.1.9-.5 1.2-1 1.3-1.8 1.9-4.5 2-6.7.1-.8.2-1.8-.3-2.5-.3-.5-1-.4-1.5-.5-.8.1-1.3.8-1.7 1.4M816.7 740.7c.7.8.6 2.3.6 3.3M813.5 746.3c.6-1 1.2-2.1 2-3 .3-.3.7-.6 1.2-.4M814.7 742.8l.8-5.7 3.3-3.2.1-1.8-4 3.8-.6 4.4-.3 1.6-.5 4.4M813.2 751.3c.1.7 0 1.5.7 1.9M815 752.6c-.5 1-1.2 1.8-2.1 2.3"/>
    <path class="st1"
        d="M828.8 705.3c-.2 2.6-.6 5.4.4 7.9l.4 1 .6.6c1.3 1.1 2.9-.2 3.8-1.2.7-.7 1.3-1.5 1.7-2.4 2.6-4.4 4.1-9.6 4.4-14.6l.1-1.8-.1-1.6c-.1-1.4-.4-3.9-2.1-4.4l-.7-.1c-2 .6-3.2 2.3-4.2 4-2.4 3.8-3.6 8.2-4.3 12.6zM845.4 689.1c-.3 2.6-.6 5.3.3 7.9l.5.9.5.6c1.3 1.1 3-.2 3.8-1.2.6-.7 1.2-1.6 1.7-2.4 2.6-4.4 4-9.6 4.5-14.7l.1-1.8-.1-1.6c-.2-1.4-.5-4-2.2-4.5h-.7c-2 .6-3.2 2.3-4.2 4-2.3 3.9-3.5 8.3-4.2 12.8zM861.9 672.7c-.3 2.6-.6 5.4.3 7.9l.4.9.5.6c1.3 1.1 3-.3 3.8-1.3.7-.7 1.3-1.5 1.8-2.3 2.6-4.4 4-9.7 4.4-14.7l.1-1.8-.1-1.7c-.1-1.4-.4-3.9-2.1-4.4l-.7-.1c-1.9.6-3.1 2.3-4.2 4-2.3 4.1-3.4 8.5-4.2 12.9zM878.5 656.5c-.3 2.6-.6 5.3.3 7.8l.5 1 .5.6c1.4 1.1 3-.2 3.9-1.2.6-.7 1.2-1.6 1.7-2.4 2.6-4.4 4-9.6 4.4-14.6l.1-1.8-.1-1.6c-.1-1.4-.5-3.9-2.1-4.4l-.7-.1c-2 .6-3.2 2.3-4.2 4-2.4 3.8-3.6 8.2-4.3 12.7zM898.3 667.6c.1.6.1 1 .3 1.6.2.9.7 1.7 1.7 1.2l.5-.4c1-1 1.5-2.2 2-3.4 1.5-3.8 1.9-8.2 1.9-12.3v-1.1c-.1-1.2 0-3.7-1.6-3.9-1.6.6-2.4 2.5-3 4-1.7 4.4-2 9.5-1.8 14.3zM900.9 651.4c.6-.7 1.9-.5 2.3.1.3.4.4 1 .5 1.5.2 1.5.1 3.1 0 4.6-.2 2.4-.4 4.9-1.1 7.2-.4 1.2-1 3.3-2.4 3.7-1.3-.3-1.2-2.3-1.2-3.3 0-3.6.2-7.6 1.5-11.1.3-.9 1.1-3.3 2.5-2.9"/>
    <path class="st1"
        d="M901 647.3c3.4-5.2 5.3-11.6 5.3-17.8l-.1-1.6c-.1-1.4-.4-4-2.2-4.5l-.7-.1c-2.4.9-3.9 3.4-5 5.5-2.2 4.6-3.6 9.8-3.6 14.9v1.6c.2 1.5.7 4.8 2.9 4.5l.8-.2.9-.5c.8-.6 1-1 1.7-1.8zM903.7 653c-.1-1.3-.2-2.6-.9-3.7M893.5 676.6c1.9-1.9.9-.4 1.1-5.2l.7-10.4.3-4.4c-2.3 2.4-1.6 1-2.4 4.2M898.3 666.9c.1 1.1.5 1.3 1.6 1.5M899 670.2c.9-.3 1.4-1.3 1.8-1.9"/>
    <path class="st1"
        d="M911.6 623.9c-.3 2.6-.6 5.3.3 7.8l.4 1 .6.6c1.4 1 3-.3 3.8-1.3.6-.7 1.2-1.6 1.7-2.4 2.6-4.4 4-9.6 4.4-14.6v-3.4000000000000004c-.1-1.4-.5-3.9-2.1-4.4l-.7-.1c-2 .6-3.2 2.3-4.2 4-2.3 3.9-3.5 8.4-4.2 12.8zM928.1 607.6c-.2 2.5-.6 5.3.4 7.8l.4 1 .5.6c1.4 1.1 3-.2 3.8-1.2.7-.7 1.3-1.6 1.7-2.4 2.6-4.4 4-9.7 4.4-14.7l.1-1.8-.1-1.6c-.1-1.4-.4-4-2.1-4.5h-.7c-2 .6-3.2 2.3-4.1 4-2.3 3.9-3.5 8.4-4.3 12.8zM944.7 591.3c-.3 2.6-.6 5.4.3 7.9l.4.9.6.6c1.3 1.1 3-.3 3.8-1.2.7-.7 1.3-1.6 1.8-2.4 2.6-4.3 4-9.6 4.4-14.6v-3.4000000000000004c-.2-1.4-.5-4-2.1-4.5h-.7c-2 .6-3.2 2.3-4.2 4-2.4 3.8-3.6 8.3-4.3 12.7zM961.2 575c-.2 2.6-.6 5.4.3 7.9l.5.9.5.6c1.4 1.1 3-.3 3.8-1.2.7-.7 1.3-1.6 1.7-2.4 2.6-4.4 4-9.7 4.4-14.7l.1-1.8-.1-1.6c-.1-1.4-.4-4-2.1-4.5h-.7c-2 .6-3.2 2.3-4.1 4-2.4 4-3.5 8.4-4.3 12.8zM981.6 585.6c0 .4 0 .6.2 1.1l.1.4c.6 1.3 1.9-.5 2.3-1.1 1-1.8 1.6-4 1.7-6.1 0-.7.1-1.8-.4-2.5-.3-.5-1-.4-1.5-.6-.8.2-1.3.8-1.7 1.5M978.1 575.4c-2.4 2.4-1.6 1-2.5 4.2M982 580.5l.6-4.3.2-1.6.6-4.4 3.9-3.9"/>
    <path class="st1"
        d="M986.9 559.6c1.4-4.2 2.6-8.7 2.2-13.1-.2-1.4-.5-4-2.2-4.4l-.7-.1c-2.5.8-3.9 3.3-5 5.5-2.3 4.6-3.7 9.9-3.7 15l.1 1.6c.1 1.5.6 4.8 2.9 4.5l.8-.2.8-.5.8-.8c.7-.7 1.3-1.6 1.7-2.4 1-1.7 1.7-3.4 2.3-5.1zM994.3 542.5c-.2 2.6-.6 5.4.3 7.9l.5.9.5.6c1.3 1.1 2.9-.3 3.8-1.3.6-.7 1.2-1.6 1.7-2.4 2.6-4.4 4.1-9.7 4.5-14.7l.1-1.8-.1-1.6c-.1-1.4-.5-3.9-2.2-4.4l-.7-.1c-2 .6-3.2 2.3-4.2 4-2.3 4-3.4 8.4-4.2 12.9zM1010.9 526.2c-.3 2.6-.6 5.3.3 7.9l.4.9.5.6c1.3 1.1 3-.3 3.8-1.3.6-.7 1.2-1.6 1.7-2.3 2.6-4.4 4.1-9.7 4.4-14.7l.1-1.8-.1-1.6c-.1-1.5-.4-4-2.1-4.5l-.7-.1c-2 .6-3.2 2.3-4.2 4-2.2 4-3.4 8.4-4.1 12.9zM1027.5 509.9c-.3 2.5-.6 5.3.3 7.9l.5.9.5.6c1.4 1.1 3-.3 3.8-1.3.7-.7 1.2-1.5 1.7-2.3 2.6-4.4 4-9.7 4.5-14.7l.1-1.8-.1-1.6c-.1-1.5-.4-4-2.2-4.5l-.7-.1c-2 .6-3.2 2.3-4.1 4-2.4 4-3.6 8.5-4.3 12.9zM1044 493.6c-.3 2.5-.6 5.3.3 7.9l.4.9.6.6c1.3 1.1 2.9-.2 3.8-1.3.7-.7 1.3-1.5 1.8-2.3 2.6-4.4 4-9.7 4.4-14.7l.1-1.8-.1-1.6c-.1-1.4-.4-4-2.1-4.5h-.8c-1.9.6-3.1 2.3-4.1 4-2.4 3.9-3.5 8.4-4.3 12.8zM1056.8 503.7c.2-2.9.9-5.8 2.5-8.3.5-.8 2.2-2.9 3-1.3l.2.5c.5 1.6.2 3.5-.1 5.1-.7 3.3-2.1 6.6-3.2 9.8l-1.3 3.7"/>
    <path class="st1"
        d="M1063.8 507.3l.6.7c.5.2 1.1-.2 1.4-.5.7-.6 1.2-1.5 1.6-2.3l.4-1c1.7-4.1 2.1-9 1.9-13.5-.1-1.2 0-3.7-1.6-3.9-2 .8-2.9 3.3-3.4 5.1-1 3.2-1.3 6.6-1.5 9.9.1 1.9 0 3.8.6 5.5zM1056.8 503.7l.9-.9.2-1.9c.2-1.1.6-2.2 1.1-3.3.3-.7 1-2 1.9-2.1.4 0 .6.4.7.7.4.8.2 1.9.1 2.8l-.2 1c-.4 1.9-1.1 3.8-1.7 5.6-1.4 3.8-2.7 7.6-4 11.4M1062.1 509.1l-.1 1.8-6.3 6.1M1061 510.1l-.1.5-4.5 4.5M1063.3 504.5c.2 1.1.6 1.3 1.7 1.5h.6c.7-.3 1.2-1.3 1.5-2 1.6-3.4 1.8-7.5 1.8-11.2 0-.9 0-1.9-.2-2.8-.1-.5-.3-1.1-.9-1.2-1.5.4-2.1 2.5-2.4 3.8-.9 3-1.1 6.3-1.1 9.4 0 1.3-.2 3 .8 3.9M1065.9 505.8c-.5.8-.9 1.6-1.8 2M1061.7 496.5c.1-1 .1-2.2-.5-3M1066 489c.6-.7 1.3-.3 2.1-.1"/>
    <path class="st1"
        d="M1061.4 486.1c-1.6-3.3-1.2-7.2-.5-10.7.5-2.6 1.3-5.2 2.3-7.6l.7-1.7.9-1.5.8-1.3c.9-1.2 3-3.7 4.7-2.3l.5.6c1.3 2 1.1 4.8 1 6.9-.3 4.5-1.6 9.1-3.6 13.1-1.2 2.2-2.6 4.7-5 5.5-1-.1-1.2-.2-1.8-1zM1068.8 490.5c0-1.3-.1-2.6-.8-3.7M1059 495.9c.7-.8 1.3-.5 2.1-.2"/>
    <path class="st1"
        d="M1077.9 469.8c.4.5.6.7 1.2 1 1.7.4 3.3-1.5 4-2.7l.9-1.3c2.9-4.8 4.5-10.9 4.5-16.5l-.1-1.6c-.1-1.4-.4-4-2.1-4.5l-.7-.1c-2.4.8-3.9 3.4-5 5.5-2 4-3.3 8.7-3.6 13.1-.2 2.6-.1 4.9.9 7.1zM1093.7 444.8c-.3 2.6-.6 5.3.3 7.8l.5 1 .5.6c1.4 1 3-.3 3.8-1.3.6-.7 1.2-1.6 1.7-2.4 2.7-4.4 4.1-9.6 4.5-14.7v-3.4000000000000004c-.2-1.4-.5-3.9-2.2-4.4h-.7c-2 .6-3.2 2.2-4.1 4-2.4 3.8-3.6 8.3-4.3 12.8zM1110.2 428.5c-.2 2.6-.5 5.3.3 7.9l.4.9.6.6c1.3 1.1 2.9-.3 3.8-1.3.7-.7 1.3-1.6 1.7-2.4 2.6-4.3 4.1-9.6 4.4-14.7l.1-1.8-.1-1.6c-.1-1.4-.4-3.9-2.1-4.4h-.7c-2 .6-3.2 2.3-4.2 4-2.2 3.9-3.4 8.3-4.2 12.8zM986.2 567.4v.5l-2.9 2.9M983.2 577c.4-.5.6-.9 1.1-1.4l.6-.4c1.7-1.1 1.9 1.8 2 2.8l-.1 1.1c-.2 3-1 6.2-2.6 8.6-.6.9-1.3 1.8-2.3 1.9-1.1-.5-1.1-2-1.1-3.1M982 580.5c.6-1 1.2-2.1 2-2.9.4-.4.7-.6 1.3-.5M987.3 566.3l-.1 1.9-3.2 3.1-.8 5.7M976.1 595.4c1.9-2 .9-.5 1.2-5.3l.6-10.4.2-4.4M983.4 586.9c-.6.9-1.2 1.8-2.1 2.3M980.8 586.4c.3.8.6.8 1.5 1.1M985.8 578.2c.1-.9.2-2.4-.6-3.2"/>
    <path class="st1"
        d="M1017 617.5c.5-1.3 1-2.7 1.7-3.8l.6-1s2.3-2.8 3.4-1.4l.4.6.3.8c.1.7.2 1.5.2 2.3 0 3.7-1.1 7.8-3 11-.7 1.2-1.7 2.6-3.2 2.9-1.3-.3-1.6-1.7-1.7-2.9-.2-3 .5-5.8 1.3-8.5zM694.5 850.5l-16.9-4.5M677.6 890.8v-44.8M694.5 895.4l-16.9-4.6M679.5 888.5l-1.9 2.3M694.5 850.5v44.9M149.2 647.7l-25.6-6.8M128.7 646.4l-11.1 13.8M109.6 658.1l8 2.1M106.8 661.5l25.7 6.9M157.5 650l1101.7 296.6M1295.1 964.2l-2.4-.6M1290.4 959.2l-7.9-2.2M1271.4 970.8l11.1-13.8M1282.5 957.3v-.3M1276.5 976.4l-25.6-6.9M1271.4 970.8l7.9 2.2M1263 1011.6l8 2.2M1263 1040.3v-28.7M1271 1042.5l-8-2.2M1263.2 1040l-.2.3M1274.4 1037.8h.2M101.3 747.2l1169.7 315M101.3 727.5l7.9 2.2v-28.7M101.3 698.8l7.9 2.2M101.3 679.1l1169.7 314.9M1293.2 955.8l-25.6-7M140.8 670.7l1101.7 296.5M120.7 644.3l8 2.1M1298.5 1007.9l.3.1M120.7 644.6v-.3l1.4-1.7c.9-1.1 1.9-2.6 3.1-3.3.4-.2 1.1-.5 1.6-.4l4.2 1.2 17.2 4.6 4.2 1.2h.1M126.9 686.1c.2-5.2 1.4-10.4 3.8-15 1.2-2.2 2.9-4.1 4.5-6.1l11.2-13.8 2.8-3.4c.9-1.1 1.8-1.9 3.3-2M135.3 688.3c.2-5.1 1.4-10.3 3.8-14.9 1.2-2.3 2.9-4.1 4.5-6.1l11.2-13.8c1-1.3 2.8-4 4.5-5 .4-.2 1.1-.5 1.6-.3l4.2 1.1 1093.2 294.3 4.3 1.2h.1M1237 984.9c.2-5.2 1.4-10.4 3.8-15 1.2-2.3 2.9-4.1 4.5-6.1l11.2-13.8 2.8-3.4c.9-1.1 1.8-1.9 3.2-2M1245.3 987.1c.2-5.2 1.4-10.4 3.9-15 1.2-2.2 2.9-4.1 4.5-6.1l11.1-13.8 2.8-3.4c.6-.9 1.5-1.7 2.5-2l.7-.1 4.3 1.2 17.2 4.7 4.3 1.2.6.2c1.6 1.1 1.7 3.9 1.7 5.6v19.700000000000003l-3.7 4.6M1290.4 966.4l1.4-1.7 1.4-1.8c.5-.7 1.4-1 1.7.1.4 1.5.2 5 .2 5.6v15.3M1296.5 953.8c-2.2.1-3.4 2.1-4.7 3.7l-1.4 1.8v7.1"/>
    <path class="st1"
        d="M1271 1013.8l3.7-4.6v-15.3c0-2.2-.2-4.6.4-6.7.5-2.2 1.5-3.5 2.9-5.2l1.4-1.7v-7.2c-1.6 2-3.3 3.8-4.5 6.1-2.2 4-3.4 8.6-3.8 13.2v17.1c-.1-.1-.1-.1-.1 4.3zM1271 1062.2v-19.7l3.6-4.7M1271 1062.2l3.6-4.6v-19.8M101.5 727.3l-.2.2v19.7M109.6 658.1c-1.6 2-3.3 3.8-4.5 6.1-2.1 4-3.4 8.6-3.7 13.2l-.1 1.7v19.8M127.1 754.2l.1 1.7.2 1.3.3 1.2c.9 2.4 3.8 2.3 5.9 2.9l1109.4 298.7c2.8.8 4.6 2.1 6.6.2l.9-1c1.1-1.3.9-.7.9-2.1M1247.4 1061.1c-2.2-.9-2.2-3.8-2.3-5.8M1295.1 1032.3v-19.700000000000003l3.7-4.6M1295.1 1032.3l3.7-4.6v-19.700000000000003"/>
    <defs>
        <path id="SVGID_1_" d="M100 1069.2z"/>
    </defs>
    <clipPath id="SVGID_2_">
        <use xlink:href="#SVGID_1_" overflow="visible"/>
    </clipPath>
    <path class="st3" d="M100 1069.2l12-12"/>
    <path class="st0" d="M100 1069.2z"/>
</svg>
