<svg xmlns="http://www.w3.org/2000/svg" xmlns:xlink="http://www.w3.org/1999/xlink"
    viewBox="0 0 1400 1400" enable-background="new 0 0 1400 1400">
    <style type="text/css">.st0{fill:none;} .st1{fill:none;stroke:#000000;stroke-linecap:round;stroke-width:3;} .st2{clip-path:url(#SVGID_2_);} .st3{fill:none;stroke:#FFFFFF;stroke-miterlimit:10;}</style>
    <path class="st0" d="M1300 356.9h-1200v686.2h1200v-686.2z"/>
    <path class="st1"
        d="M127.7 630l-9-2.5M118 642.1l9.7-12.1M108.9 639.6l9.1 2.5M110.2 679.7l-9.1-2.4M110.2 705.2l-9.1-2.5M110.2 679.7v25.5M110.2 723.7l-9.1-2.4M108.9 639.9v-.3l2.5-3.1 4.8-5.9 2.5-3.1M101.1 702.7v-25.4l.3-.3M101.4 721c-.4.5-.2 1.2-.1 1.8l.3 1.3c.1.4.2.7.4 1 .9 1.7 3.4 1.7 5 2.2l1.3.3c2.4.7 4.3 1.9 6.2.2l.9-.9 1.4-1.7M110.4 723.5c-.4.5-.2 1.2-.1 1.8.2 1.3.5 2.8 1.7 3.4M137.3 668.6l-9-2.5M148.5 631.5l9.1 2.4M133.3 650.3l9.1 2.4M160.9 632.3c-.1-.1-.1-.1-4-1.1-1.8-.5-3.7-1.1-5.5-1.5-1.3.1-2.1.9-2.9 1.8l-2.6 3.1-10.1 12.6c-1.3 1.6-2.8 3.2-3.8 5-2.4 4.2-3.6 9.2-3.7 13.9M137.3 668.6c.1-4.8 1.3-9.8 3.8-14 1-1.8 2.5-3.3 3.8-5l10.2-12.6 2.5-3.1c.8-.9 1.8-2.1 3.2-1.7M1291.1 950v-6.8M1282.1 940.8l9 2.4M1264.6 1015.9l9 2.5M1277.1 1014l-3.5 4.4M1298.6 1005.5l.3.1M1295.4 1010l3.5-4.4M1295.4 966l3.5-4.4M1298.6 961.6h.3M1295.4 949.7v16.3M1291.1 950l1.7-2.1M1264.6 1034.5l9 2.5M1276.9 1032.5l.2.1M1264.6 990.5l9 2.4M1276.9 988.5h.2M1279.5 964.1l.2.1M1281.3 962.1l-.2-.1M1272.3 952.9l9 2.4"/>
    <path class="st1"
        d="M1285.7 1006.8c.3-.4.6-.9 1-1.3l.7-.5c1.8-1 2.3 1.7 2.4 2.9v.6c0 3.4-.9 7-2.7 9.9-.6 1-1.5 2.5-2.9 2.5-1.4-.4-1.5-2.5-1.5-3.7 0-3.7 1.1-7.4 3-10.4zM1295.4 949.7l-2.6-1.8h-.2M1273.6 1018.4v-25.5l3.5-4.4v-16.2l1.2-3.8.1-.5 1.3-3.8 1.6-2.1v-6.8l2.6-3.1 4.7-5.9 2.5-3.1M1298.9 1005.6c-.2 4.8-1.4 9.7-3.8 13.9-1 1.8-2.5 3.4-3.8 5l-10.2 12.6-2.5 3.1c-.7.9-1.6 1.8-2.8 1.8-1.5-.3-1.9-2.1-2.1-3.4l-.1-1.5 1.8-2.2 1.7-2.2v-18.5M1298.9 961.6v25.4l-3.5 4.4v18.6M1264.8 1034.3c-.4.5-.2 1.2-.1 1.8l.2 1.3.4 1c.9 1.8 3.3 1.7 5 2.2l1.4.3 3.8 1.1M1264.8 990.3l-.2.2v25.4M1272.3 953.1v-.2l2.5-3.2 4.8-5.9 2.5-3M695.1 867.7l-13.7-3.7M681.4 825.8v38.2M986.3 576.1l-222.2 218.5"/>
    <path class="st1"
        d="M1139.5 372c.6-.4.9-.6 1.5-.7 2-.3 2.5 2.7 2.7 4.1v1.5c0 4.6-1.3 9.5-3.3 13.6-1 2-2.3 4.3-4.5 5l-.7-.1c-1.5-.4-1.8-2.7-2-4l-.1-1.5.1-1.6c.2-3 .9-6 1.9-8.8s2.3-5.5 4.4-7.5zM1108.6 402.3c.6-.5.8-.9 1.5-1.2l.7-.2c2-.3 2.5 2.7 2.6 4.1l.1 1.5c0 4.6-1.2 9.5-3.3 13.6-1 2-2.3 4.3-4.5 5l-.6-.1c-1.5-.4-1.9-2.7-2-4v-1.5c0-2.3.3-4.7.9-6.9.8-3.7 2.2-7.3 4.6-10.3zM1078.5 432c.6-.5.9-.9 1.5-1.3l.7-.2c2-.3 2.5 2.7 2.6 4.1l.1 1.5c0 4.6-1.3 9.5-3.3 13.6-1 2-2.3 4.3-4.6 5h-.7c-1.5-.4-1.8-2.7-1.9-4l-.1-1.4c0-2.3.4-4.7.9-7 1-3.8 2.4-7.4 4.8-10.3zM1048.4 461.6c.5-.5.9-.9 1.5-1.3l.7-.3c2-.3 2.5 2.7 2.6 4.1l.1 1.5c0 4.6-1.3 9.5-3.4 13.6-.9 2-2.2 4.3-4.5 5l-.6-.1c-1.6-.4-1.8-2.7-2-4l-.1-1.4c0-2.3.3-4.7.9-7 1-3.6 2.4-7.2 4.8-10.1zM1018.3 491.2c.5-.5.8-.9 1.5-1.2l.7-.3c2-.3 2.5 2.7 2.7 4.1l.1 1.5c0 4.6-1.3 9.5-3.4 13.6-1 2-2.3 4.3-4.5 5l-.7-.1c-1.5-.4-1.8-2.7-1.9-4l-.1-1.5c0-2.3.4-4.6 1-6.9.8-3.7 2.2-7.2 4.6-10.2zM958.1 550.4c.5-.5.8-.9 1.5-1.3l.7-.2c2-.3 2.5 2.7 2.6 4l.1 1.5c0 4.6-1.3 9.5-3.4 13.6-.9 2-2.3 4.3-4.5 5l-.7-.1c-1.5-.4-1.8-2.7-1.9-4l-.1-1.5c0-2.3.4-4.6.9-6.9 1-3.5 2.4-7.1 4.8-10.1zM928.7 579.3c.5-.3.8-.6 1.4-.7 2.1-.3 2.5 2.7 2.6 4l.1 1.5c0 4.6-1.3 9.5-3.4 13.6-1 2-2.3 4.3-4.5 5l-.7-.1c-1.5-.4-1.8-2.7-2-4l-.1-1.5.1-1.7c.3-3 .9-5.9 1.9-8.8 1.2-2.6 2.5-5.3 4.6-7.3zM898.6 608.9c.6-.3.9-.6 1.5-.7 2-.3 2.5 2.7 2.6 4.1v1.5c0 4.6-1.3 9.5-3.3 13.6-1 2-2.3 4.3-4.5 5h-.7c-1.5-.4-1.9-2.7-1.9-4l-.1-1.5.1-1.7c.2-3 .9-6 1.9-8.8 1-2.8 2.3-5.4 4.4-7.5zM868.5 638.6c.5-.4.8-.7 1.5-.8 2-.3 2.5 2.7 2.6 4.1l.1 1.5c0 4.6-1.3 9.5-3.3 13.6-1 2-2.3 4.3-4.6 5h-.6c-1.5-.4-1.8-2.7-1.9-4l-.1-1.5.1-1.6c.2-3 .9-6 1.9-8.8.8-2.8 2.2-5.5 4.3-7.5zM838.4 668.2c.5-.3.8-.6 1.5-.7 2-.3 2.5 2.7 2.6 4.1l.1 1.5c0 4.6-1.3 9.5-3.4 13.6-1 2-2.3 4.3-4.5 5h-.7c-1.5-.4-1.8-2.8-2-4.1v-3.1c.3-3 .9-6 1.9-8.8 1-2.8 2.3-5.5 4.5-7.5zM808.3 697.9c.5-.4.8-.7 1.4-.8 2-.3 2.5 2.7 2.6 4.1v1.5c0 4.6-1.2 9.5-3.3 13.6-1 2-2.3 4.3-4.6 5h-.6c-1.5-.4-1.8-2.7-2-4l-.1-1.5.1-1.6c.3-3 .9-6 1.9-8.8 1.1-2.9 2.4-5.6 4.6-7.5zM778.1 727.4c.6-.3.8-.6 1.5-.7 2-.3 2.5 2.7 2.6 4.1l.1 1.5c0 4.6-1.3 9.5-3.3 13.6-1 2-2.3 4.3-4.6 5h-.6c-1.5-.5-1.8-2.7-1.9-4l-.1-1.5.1-1.6c.2-3 .9-6 1.9-8.8.9-2.8 2.2-5.5 4.3-7.6zM748.1 757c.5-.3.8-.6 1.5-.7 2-.3 2.5 2.7 2.6 4.1l.1 1.5c0 4.7-1.3 9.5-3.4 13.6-.9 2-2.3 4.3-4.5 5h-.7c-1.5-.4-1.9-2.8-2-4v-3.1c.3-3 .9-6 1.9-8.8 1-2.8 2.3-5.5 4.5-7.6zM1067.5 543.1l.5-.2c1.4 0 1.7 2 1.8 3l.1 1.3-.1 1.4c-.3 3.4-1.2 6.9-2.9 9.9-.8 1.3-1.7 2.6-3.2 2.9-1.7-.4-1.8-2.7-1.8-4.2v-1.4c.3-3 1.1-6 2.4-8.6.7-1.7 1.6-3.3 3.2-4.1zM763.1 742.3c.6-.4.9-.6 1.5-.7 2-.3 2.5 2.7 2.6 4.1l.1 1.5c0 4.6-1.3 9.5-3.3 13.6-1 2-2.3 4.3-4.6 5l-.6-.1c-1.6-.4-1.9-2.7-2-4l-.1-1.5.1-1.7c.2-3 .9-6 2-8.7.9-2.8 2.2-5.5 4.3-7.5zM793.2 712.7c.5-.4.8-.6 1.5-.7 2-.3 2.5 2.7 2.6 4.1v1.5c0 4.6-1.3 9.4-3.3 13.6-1 2-2.3 4.3-4.6 5l-.6-.1c-1.5-.4-1.9-2.7-2-4l-.1-1.5.1-1.7c.2-3 .9-6 1.9-8.8 1.1-2.8 2.4-5.4 4.5-7.4zM823.4 683c.5-.4.8-.6 1.5-.7 2-.3 2.4 2.7 2.6 4.1v1.5c0 4.6-1.2 9.4-3.3 13.6-1 2.1-2.3 4.3-4.6 5l-.6-.1c-1.5-.4-1.8-2.7-2-4v-3.2c.3-3 .9-5.9 1.9-8.8 1-2.7 2.3-5.4 4.5-7.4zM853.5 653.4c.5-.4.8-.6 1.5-.7 2-.3 2.5 2.7 2.6 4.1l.1 1.5c0 4.6-1.3 9.5-3.4 13.6-1 2-2.3 4.3-4.5 5l-.7-.1c-1.5-.4-1.8-2.7-1.9-4l-.1-1.5.1-1.6c.2-3 .9-6 1.9-8.8.9-2.8 2.2-5.5 4.4-7.5zM883.5 623.8c.6-.4.9-.6 1.5-.7 2-.3 2.5 2.7 2.6 4.1l.1 1.5c0 4.6-1.3 9.5-3.3 13.6-1 2-2.3 4.3-4.6 5l-.6-.1c-1.5-.4-1.8-2.7-1.9-4l-.1-1.5.1-1.6c.2-3 .9-6 1.9-8.8.9-2.9 2.2-5.5 4.3-7.5zM913.7 594.1c.5-.3.8-.6 1.4-.7 2-.3 2.5 2.7 2.6 4.1v1.5c0 4.6-1.2 9.4-3.3 13.6-1 2-2.3 4.3-4.6 5l-.6-.1c-1.5-.4-1.9-2.7-2-4l-.1-1.5.1-1.6c.3-3 .9-6 1.9-8.8 1-2.8 2.4-5.4 4.6-7.5zM943.8 564.5c.5-.3.8-.6 1.5-.7 2-.3 2.5 2.7 2.6 4.1l.1 1.4c0 4.7-1.3 9.5-3.4 13.7-1 2-2.3 4.2-4.5 5h-.6c-1.6-.5-1.9-2.8-2-4.1l-.1-1.5.1-1.7c.2-2.9.9-6 1.9-8.7.9-2.8 2.3-5.5 4.4-7.5zM977.1 535.1c-.4-.8-1-.9-1.8-1-1.8.6-2.9 2.1-3.8 3.7-2.3 4-3.7 8.7-4 13.3l-.1 1.6.1 1.5c.1 1.4.6 4.3 2.6 4l.5-.2M998.8 515c.6-1.9 1.2-3.7 2.1-5.5.8-1.5 1.7-3.2 3.1-4.3l.8-.5c1.4-.7 2.4.3 2.8 1.5l.3 1c.2.9.3 1.9.3 2.8 0 4.7-1.3 9.5-3.4 13.6-.6 1.3-1.4 2.5-2.3 3.6-.5.5-1.1 1.1-1.8 1.3"/>
    <path class="st1"
        d="M1033.3 476.4c.5-.6.9-.9 1.5-1.3l.7-.2c2-.3 2.5 2.7 2.6 4.1l.1 1.5c0 4.7-1.3 9.5-3.4 13.6-.9 2-2.3 4.3-4.5 5l-.6-.1c-1.5-.4-1.8-2.7-2-4v-1.5c0-2.4.4-4.7.9-6.9 1-3.7 2.3-7.2 4.7-10.2zM1063.5 446.8c.6-.6.9-.9 1.5-1.3l.8-.2c2-.3 2.5 2.7 2.6 4.1l.1 1.5c0 4.7-1.3 9.5-3.3 13.6-1 2-2.3 4.3-4.6 5h-.6c-1.6-.5-1.9-2.8-2-4l-.1-1.5c0-2.3.3-4.7.9-6.9.9-3.8 2.2-7.3 4.7-10.3zM1093.6 417.2c.6-.5.8-.9 1.5-1.3l.7-.2c2-.3 2.5 2.7 2.7 4.1v1.5c0 4.6-1.3 9.4-3.3 13.6-1 2-2.3 4.3-4.6 5l-.6-.1c-1.5-.4-1.9-2.7-2-4l-.1-1.5c0-2.3.3-4.6.9-6.9 1-3.7 2.4-7.3 4.8-10.2zM1123.7 387.5c.5-.5.8-.9 1.5-1.2l.8-.3c2-.3 2.5 2.7 2.6 4v1.5c0 4.6-1.3 9.5-3.3 13.6-1 2-2.3 4.3-4.6 5h-.6c-1.5-.4-1.8-2.8-2-4l-.1-1.5c0-2.4.4-4.7.9-6.9 1-3.7 2.4-7.2 4.8-10.2zM978.9 505.2l-2.8 2.8-265 260.6-2.8 2.8-.5.5c-1.5 1.9-2.1 4.5-2.3 6.8M978.9 523.3l-2.8 2.8-250.5 246.4-2.9 2.8-.4.5c-1.5 1.9-2.1 4.5-2.4 6.9M1038.7 524.6v35.4c0 3.1-.1 6.3.4 9.4.3 2 .8 4 1.9 5.7 1.5 2.3 3.4 2.3 5.9 2.9l7.9 2.1 3.8 1.1c.8.1 2-.3 2.7-.6 2.6-1.3 4.4-3.7 6-6 3-4.4 5.2-9.4 6.9-14.4 2.7-7.7 4.2-15.7 4.3-23.8v-28.4c0-2.8 0-5.7.3-8.6.8-6.5 2.7-13.2 6-18.9 1.6-2.9 3.8-5 6.1-7.3l45.3-44.6 2.8-2.8 1.1-1.2c2.8-3.5 4.6-7.9 6-12.2 1.3-3.9 2.1-8.1 2.4-12.3v-25.3c0-3.1.3-6.4-.6-9.4-.3-1.1-.9-2.3-1.8-3l-.9-.4-3.8-1-6.8-1.8-3.8-1h-.9c-2.5.7-4.1 2.8-6 4.6l-125.6 123.6-2.8 2.8M998.8 503.7l2.8-2.8 136.7-134.4 2.8-2.8c.9-.8 1.9-1.7 3.2-1.8l.9.1M1058.6 581.1l-1.2-.3c-2.7-1.3-3.5-5-3.9-7.6l-.3-2.6-.1-2.8v-45.300000000000004l-.3-1.8c-.3-1.7-.9-4.4-3-5l-.9-.1c-2.6.7-4.1 2.8-6 4.6l-38.3 37.7-2.9 2.8M695.1 829.5l-15.5-4.1M679.6 866.2v-40.8M695.1 870.3l-15.5-4.1M681.4 864l-1.8 2.2M695.1 829.5v40.8M1273.6 974.7l-1172.5-315.7M117.8 642.3l-9.1-2.4M117.8 642.3l10.1-12.6M118.8 627.3l9.1 2.4M106.2 643l26.9 7.2M121.4 624.2l26.9 7.3M110.2 679.4l-9.1-2.4M110.2 679.4v26.1M101.1 703.1l9.1 2.4M1273.6 1036.6l-1172.5-315.6M1276.8 1014.4l.2.1M1264.6 1016.2l9 2.5M1264.8 1016l-.2.2v-26M1273.6 992.6l-9-2.4M1272.1 953.1l9.1 2.4M1282.3 940.6l-10.2 12.5M1291.3 943l-9-2.4M1282.3 940.8v-.2M1295.6 947.5l-2.3-.6M1278.6 958.6l-26.9-7.2M1293.8 939.8l-26.9-7.2M1242.3 948.8l-1099.7-296M1257.5 930l-1099.8-296M1298.6 987.3l.3.1M101.1 677v-18l.1-1.6c.3-4.1 1.5-8.4 3.4-12 1.1-2.1 2.7-3.8 4.1-5.6M151.4 629.6c-.1 0-.1 0-3.9-1l-19.2-5.2-3.8-1c-2 .1-3.1 2-4.3 3.4l-1.3 1.5v.3M151.3 629.6c-1.3.1-2.1.8-2.9 1.8l-2.6 3.1-10.2 12.6c-1.4 1.8-3 3.5-4.1 5.6-2.2 4.2-3.3 8.9-3.5 13.6M101.1 721v-17.9l.3-.4M1277 1014.5v17.9l-3.4 4.2M1277 1014.5l-3.4 4.2v17.9M1281.2 955.5v6.5l-1.3 1.6c-1.3 1.5-2.2 2.8-2.7 4.8s-.3 4.1-.3 6.2v13.9l-3.4 4.2M1281.2 955.5c-1.5 1.8-3.1 3.5-4.1 5.5-1.9 3.7-3.1 7.9-3.4 12l-.1 1.6v17.9M1295.6 965.4l3.3-4.1v-17.9c0-1.9-.1-4.5-2.1-5.3-2 .1-3.1 2-4.2 3.4l-1.2 1.6v6.5M1295.6 965.4v-17.8l-.1-.6c0-.5-.2-1-.7-1.1-.9.2-1.7 1.6-2.2 2.1l-1.2 1.5M1246.6 967.4c.2-4.7 1.3-9.5 3.5-13.7 1.1-2 2.6-3.7 4.1-5.5l10.2-12.6 2.5-3.1c.6-.7 1.4-1.5 2.3-1.8l.7-.1 3.8 1.1 19.2 5.2 3.8 1M1246.5 1029.3c0 1.5 0 4.1 1.5 5.1 1.3.9 2.8-.7 3.5-1.6l.9-1.1v-.9M1248.5 1034.7l-3.8-1.1-1110.5-299c-2-.5-4.5-.4-5.4-2.6l-.3-1.1-.2-1.2-.1-1.5M1237.2 964.9c.2-4.7 1.2-9.4 3.5-13.6 1.1-2.1 2.6-3.8 4-5.5l10.2-12.6 2.5-3.1c.7-.8 1.7-2 3-1.8l.6.3M137.5 668.9c.3-4.7 1.3-9.5 3.5-13.7 1.1-2 2.7-3.7 4.1-5.6l10.2-12.6c.9-1.2 2.5-3.6 4.1-4.6.4-.2 1-.4 1.4-.3l3.8 1 1092.1 294 3.8 1M1295.6 1009.4v-17.8l3.3-4.2M1295.6 1009.4l3.3-4.1v-17.9M1252.4 1031.7v-.1M1252.4 1031.7v-.8M1252.4 1031.7l.5-.6M1237.4 964.8l9.1 2.4M1242.4 948.9l9.1 2.4M1266.7 932.5l-9-2.4M1246.5 967.2c.1-4.8 1.4-9.8 3.8-14 1-1.8 2.4-3.4 3.8-5l10.2-12.6 2.5-3.1c.7-.9 2.1-2.3 3.4-1.7M1269.9 930.7c-3.1-.8-6.3-1.8-9.4-2.5-1.3 0-2.1.9-2.9 1.8l-2.5 3.1-10.2 12.6c-1.3 1.6-2.7 3.2-3.8 5-2.4 4.2-3.7 9.2-3.8 13.9M931.7 522.1l.2-.2M924.6 533.6l.2-1.4M924.6 533.6l.2-1.4M924.3 536.3l.2-1.3M924.1 538.7l.1-1.2M924.5 535l-.2 1.3M924.1 538.7l.1-1.2M924.9 546.6l.2.2M912.2 522.1l.6-.2M972.2 558.6l-3.6-1M978.4 535.5l-3.8-1M927 556.2c-1.7-3.4-2-7.2-1.9-11 .2-8.1 2.7-16.3 6.8-23.3M931.9 521.9c.5 0 1.2.4 1.6.6 1.3.4 2.7.9 4.1 1.2 2.3.7 4.8 1.2 7.2 1.7 1.9.5 3.8.9 5.5 1.7M946 537.6c1.2-3.8 2.8-8 5.6-11 1-1.1 2.9-2.4 4.3-1.1l.4.5.4.7.1.3M951.8 514.4c3.9 2.4 5.7 6.6 6.5 11.1M998.4 538.6c.6-2.7.5-5.1.5-7.9v-23.5c0-3.9-.1-7.7-1-11.6-3.2-12.7-13.9-23.4-26-28-4.1-1.6-8.3-2.3-12.7-2.5-3.6 0-7.1.4-10.5 1.6-7.4 2.6-13.4 8.6-15.7 16.3-1.2 4-1.1 8-1.1 12.1v22.9c0 4.4.6 2.8-.6 5.1M1001.3 560.3c-1 2.2-2.1 4.4-3.7 6.3-.9 1.1-2 1.9-3.4 2-2.5-.6-2.8-3.7-2.9-5.8l-.1-1.4.1-1.4c.2-3.8 1-7.5 2.2-11.1.9-2.8 2.1-5.6 3.8-8 .4-.6.9-1.2 1.4-1.8 1-1.1 2.9-2.4 4.3-1.1l.4.5c.3.5.5 1 .7 1.5.9 2.7.7 5.6.4 8.4M978.7 501.5c.3 2.1.2 4 .2 6.2v26.9l-1.4 2.5c-.9 1.9-1.8 3.8-2.5 5.8-.6 1.6-1 3.2-1.4 4.9-.4 1.6-.8 3.2-1 4.9-1.1 7.2-1 16.3 5.4 21.2.8.6 1.8 1.1 2.7 1.5.9.4 1.9.7 2.9.8 6.2.9 11.5-3.5 14.7-8.6 1.5-2.3 2.7-4.8 3.7-7.4.8-2.1 1.5-4.3 2-6.4.4-1.7.8-3.3 1-5 1.2-7.5 1-17.3-6.2-21.7M997.6 543.7c-3 4.5-4.8 10.3-4.8 15.7v1.1l.1 1c.3 1.5 1 3.9 2.9 3.1.5-.3.8-.4 1.1-.8M978.9 534.6c.5 0 1.1.4 1.6.6 1.3.4 2.7.9 4.1 1.2 2.3.7 4.8 1.2 7.2 1.8 1.9.5 3.8.9 5.5 1.7M977.3 497.3c.7 1.5 1.2 3 1.5 4.7M961.9 485.3c6.7 1.8 12.2 6.1 15.5 12.2M958.5 485c1.4 0 2.6.2 3.8.4M955.6 485.3c1-.2 1.9-.3 2.9-.3M954.4 485.9l1.7-.7M953.4 486.6l.8-.6.5-.3M952.2 488.1c.3-.5.7-1 1.1-1.4M952.3 488.2l-.5 1.6M952 489.2l.1-.1M952.6 487.5l-.1.2-.4.9M951.3 526c.6-2.7.5-5.2.5-8v-28.2M925.1 547.1c-1.6.6-3.4.7-5.1.7-1.5-.1-2.8-.3-4.2-.7-.7-.1-1.3-.4-1.8-.8-3.7-2.3-3.8-6.7-3.9-10.6-.2-2.8-.2-5.7.2-8.5l.4-2.6.1-.5c.2-.8.7-1.6 1.1-2.3.7-1.3 1.5-2.4 2.6-3.5 1.3-1.3 2.9-2.5 4.9-2.4M931.2 521.7l.6.1M931.6 521.8c-1.7-.4-2.8-1.5-4.3-2.5-2.2-1.5-4.8-2.7-7.4-3.2M915.7 522.9c.1-.9.5-1.7 1-2.5.7-1.1 1.4-2.1 2.3-3 .2-.2 1.2-1.3 1.6-1.2M924.1 528c-.5-1.2-1-1.5-2.2-2.3-1.9-1.3-4-2.1-6.2-2.8M925.3 529.7c.1-.8.2-1.6-.1-2.3-.4-1.3-1.8-2.1-2.8-2.7-2-1.4-4.2-2.3-6.5-2.9M925.2 529.7l-.7.2M925.1 547.1c-1.2-.5-1.1-2.4-1.2-3.5v-1.7000000000000002c0-2.6.1-5.3.3-7.9.1-1.8.5-3.8 0-5.6M930.1 521.4c-2.5 1.1-3.8 3.7-4.9 6.1M921.4 537c.1-.6.1-1 .1-1.6M921 533.9c-1.2-2-3-3.2-5.3-3.4h-.6M913.4 531.2c.5-.4.2-.3.7-.5M914.2 530.7c.6-.2.3-.2.9-.3M921.5 535.5c-.1-.6-.3-1.1-.6-1.7M921.4 536.9c-.3.6-.1.3-.5.9M924.1 546.5c-1 .9-2.4.8-3.7.9-1.6-.1-3.2-.3-4.7-.6l.2.4M910.7 524.7c-.1.3.2.5.6.7M910.6 530.7l.6-5.3M910.5 533.4l.3 5.6M910.7 541.4l.6.3M954.6 529c-.9-.2-.4-.2-1.2-.2-2.7.8-4.2 4.1-5.1 6.5M997.6 543.7c.7-.9 1.6-2 2.8-2.2 1.5-.2 2.1 1.8 2.6 2.8.8 1.8 1.4 2.9 1.4 4.9 0 2.8-.7 5.8-1.8 8.4-.6 1.4-1.3 2.8-2.3 3.9-1 1.1-2.9 2.1-3.9 2.8M1004 546.2c-.3-.6-.6-.9-1.3-1.1-1.5.3-2.5 1.9-3.2 3.2-1.5 2.8-2.5 6.1-2.7 9.2v1.9c.1 1 .3 3.2 1.7 3.2 1.3 0 2.2-1.5 2.7-2.4 2-3.2 3.1-7.3 3.1-11 0-1.4-.1-3.7-1.8-4-1.5.3-2.5 1.9-3.2 3.2-1.7 3.1-2.7 6.8-2.7 10.3v.9c.1 1 .3 3.2 1.7 3.2.4 0 .5-.2.9-.3"/>
    <defs>
        <path id="SVGID_1_" d="M100 1043.1z"/>
    </defs>
    <clipPath id="SVGID_2_">
        <use xlink:href="#SVGID_1_" overflow="visible"/>
    </clipPath>
    <path class="st3" d="M100 1043.1l11.1-11.2"/>
    <path class="st0" d="M100 1043.1z"/>
</svg>
