<svg xmlns="http://www.w3.org/2000/svg" xmlns:xlink="http://www.w3.org/1999/xlink"
    viewBox="0 0 1200 1200" enable-background="new 0 0 1200 1200">
    <style type="text/css">.st0{fill:none;} .st1{fill:none;stroke:#000000;stroke-linecap:round;stroke-linejoin:round;stroke-width:3;} .st2{clip-path:url(#SVGID_2_);} .st3{fill:none;stroke:#FFFFFF;stroke-miterlimit:10;}</style>
    <path class="st0" d="M680.1 0h-160.2v1200h160.2v-1200z"/>
    <path class="st1"
        d="M554.1 99.8l.1-3 .4-5.8.7-6 1.2-5.8 1.5-5.9 1.9-5.7 2.2-5.5 2.5-5.3 2.9-5.1 3-4.7 3.2-4.3 3.5-4 3.6-3.4 3.7-3 3.7-2.5 3.7-2.1 3.7-1.5 3.7-1.1 3.6-.5 3.5-.1 3.5.5 3.5 1 3.3 1.5 3.2 2.2 2.9 2.6 2.6 3.1 2.4 3.6 2.2 3.9 1.8 4.3 1.5 4.7 1.2 5.1.8 5.2.5 5.6v3.9M659.1 71.7l-.1-3.7-.5-6.8-.9-6.7-1.3-6.5-1.8-6.2-2.3-5.9-2.6-5.6-3.1-5.2-3.4-4.8-3.8-4.3-4.1-3.7-4.4-3.3-4.6-2.7-4.8-2.1-5-1.5-5.1-1-5.2-.4-5.3.2-5.3.7-5.3 1.3-5.2 1.9-5.2 2.5-5.1 3-5 3.5-4.8 4-4.6 4.5-4.3 4.9-4.1 5.3-3.7 5.7-3.5 6-3.1 6.3-2.7 6.5-2.4 6.7-1.9 6.9-1.6 6.9-1.1 6.9-.7 7.1-.3 6.6v90.39999999999999M554.1 189.1v-89.3M530.9 189.1l.1 3.8.4 6.8 1 6.7 1.3 6.4 1.8 6.3 2.2 5.9 2.7 5.6 3 5.1 3.5 4.8 3.8 4.3 4.1 3.8 4.3 3.2 4.6 2.7 4.9 2.2 5 1.5 5.1.9 5.2.4 5.2-.2 5.3-.7 5.3-1.3 1.7-.6M619.8 246.8l.4-.3 4.8-4 4.6-4.5 4.4-4.9 4-5.4 3.8-5.7 3.4-6 3.2-6.2 2.7-6.6 2.4-6.7 1.9-6.8 1.5-6.9 1.2-7 .7-7.1.3-6.6v-1.1M635.8 161v3l-.4 5.8-.8 6-1.1 5.9-1.5 5.8-2 5.7-2.2 5.6-2.5 5.3-2.8 5-3 4.7-3.3 4.4-3.5 3.9-2.4 2.4M594 234.7l-3.3 1-3.6.5-3.5.1-3.5-.4-3.5-1-3.4-1.6-3.1-2.2-2.9-2.6-2.7-3.1-2.4-3.5-2.2-4-1.8-4.3-1.5-4.7-1.1-5-.9-5.3-.4-5.6-.1-3.9M659.1 161v-89.3M635.8 71.7v89.3M620 890.6l-.1-2.3-.5-4.3-.9-4.3-1.4-4.1-1.7-3.9-2.3-3.7-2.5-3.4-3-2.9-3.1-2.4-3.5-2-3.7-1.3-3.5-.6h-3.6l-1.7.2M571 873.8c-.7 2.7-1 5.6-1 8.4M591.5 873.9l.5-.1.6.1.9.4 1.2.8 1.4 1.3 1.4 1.7 1.3 2 1.1 2.5.8 2.6.6 2.6.1 2.5v19.8M620 926.4v-35.8M601.5 952.9l1.7-.2 3.1-1.2 2.9-1.7 2.7-2.1 2.3-2.6 2-3 1.5-3.4 1.2-3.8.8-3.9.3-4v-.6M588.5 903.4v-11.3M569.9 882.2v16.2M620 250.8l-.1-2.5-.5-4.3-.9-4.2-1.4-4.1-1.7-3.9-2.3-3.7-2.5-3.3-3-3-3.1-2.5-3.5-1.9-3.7-1.3-3.5-.6h-3.6l-3.4.5-3.2 1.2-2.9 1.7-2.6 2.1-2.4 2.6-2 3-1.6 3.4-.6 2.1M589.9 235.8l.1-.2.6-.9.6-.5.3-.2h.5l.6.1.9.3 1.2.8 1.4 1.3 1.4 1.7 1.2 2 1.2 2.5.8 2.5.6 2.8.1 2.4v36.1M620 286.5v-35.8M620 305.8c.1-3.2-.4-6.5-1.4-9.6M601.4 279.3l-1.4-.3h-3.4l-3.4.4-3.3 1.1-3.1 1.5-3.1 2.2-3 2.5-2.6 3.1-2.3 3.4-2.1 3.8-1.5 4-1.2 4.1-.8 4.3-.3 4.1v.7M588.5 278c0 1.1.1 2.1.3 3.1M599 294.3c1.8-2.2 2.6-5 2.4-7.8M569.9 278c0 6.3 1.5 12.5 4.3 18.2M588.9 311.3l.1.1 3.6 1.3 3.6.6h3.5l3.5-.6 3.1-1.1 2.9-1.7 2.7-2.1 2.3-2.7 2-2.9 1.6-3.4 1.2-3.7.7-4 .3-4v-.6M593.6 301.1c-3.3 3.9-5.1 8.8-5.1 13.9M588.5 350v-35M569.9 314.2v36.6l.1 2.4.6 4.2.9 4 1.6 3.8 2 3.4 2.4 3 2.8 2.4 3.1 1.8 3.2 1.2 3.3.6 3.4.1 3.3-.5 3.4-1.1 1.1-.5M615.5 360.9c2.9-5.7 4.5-12 4.5-18.4M620 379.4l-.1-2.4-.5-4.2-.9-4.3-1.4-4.1-1.7-3.9-2.3-3.7-2.5-3.4-3-2.9-3.1-2.5-3.5-1.9-3.7-1.3-3.5-.6h-3.6l-1.7.2M571.5 361c-1 3.2-1.5 6.6-1.5 10M601.4 379.4c0-4.9-1.7-9.7-4.7-13.6M588.5 278v-18.6M569.9 257.1v20.9M588.5 350c-.2 2.8.7 5.6 2.4 7.8M600.9 346.1c.4-1.5.6-3 .5-4.6M601.4 379.4v35.8M620 415.2v-35.8M620 435.3c.1-3.4-.5-6.8-1.5-10.1M601.4 408.8l-1.4-.3h-3.4l-3.4.5-3.3 1-3.1 1.6-3.1 2.1-3 2.6-2.6 3.1-2.3 3.4-2.1 3.8-1.5 3.9-1.2 4.2-.8 4.3-.3 4.1v.7M593.6 429.8c-3.3 3.9-5.1 8.8-5.1 14M588.5 406.8c0 1.3.1 2.5.4 3.8M599 423c1.8-2.2 2.6-5 2.4-7.9M569.9 406.8c.1 6.4 1.6 12.8 4.5 18.5M588.9 440l.1.1 3.6 1.2 3.6.7h3.5l3.5-.6 3.1-1.1 2.9-1.7 2.7-2.1 2.3-2.6 2-3 1.6-3.4 1.2-3.7.7-4 .3-4v-.6M601.4 313.1v28.4M620 342.4v-36.6M588.5 479.6v-35.8M569.9 443.8v35.8M620 508.1l-.1-2.4-.5-4.3-.9-4.2-1.4-4.1-1.7-3.9-2.3-3.7-2.5-3.3-3-3-3.1-2.5-3.5-1.9-3.7-1.3-3.5-.6h-3.6l-1.7.3M571.5 489.7c-1 3.2-1.5 6.6-1.5 10M601.4 508.1c0-5.1-1.8-10.1-5-13.9M588.5 479.6c-.2 2.8.7 5.6 2.4 7.8M601.4 471.1v1.3l-.3 2.4M569.9 479.6l.1 2.3.6 4.2.9 4.1 1.6 3.7 2 3.4 2.4 2.9 2.8 2.5 3.1 1.8 3.2 1.2 3.3.7h3.4l3.3-.5 3.4-1.1 1.1-.5M615.5 489.6c2.9-5.7 4.5-12 4.5-18.5M588.5 406.8v-29.4M569.9 371v35.8M601.4 508.1v35.8M620 543.9v-35.8M620 564c.1-3.4-.5-6.8-1.5-10.2M601.4 537.5l-1.4-.3-3.4-.1-3.4.5-3.3 1.1-3.1 1.6-3.1 2.1-3 2.6-2.6 3-2.3 3.5-2.1 3.7-1.5 4-1.2 4.2-.8 4.3-.3 4v.7M593.6 558.5c-3.3 3.9-5.1 8.9-5.1 14M588.5 535.4c0 1.3.1 2.6.4 3.9M599 551.7c1.8-2.1 2.6-5 2.4-7.8M569.9 535.4c.1 6.5 1.6 12.8 4.5 18.6M588.9 568.7l.1.1 3.6 1.3 3.6.6h3.5l3.5-.5 3.1-1.2 2.9-1.7 2.7-2.1 2.3-2.7 2-2.9 1.6-3.4 1.2-3.7.7-4 .3-4v-.6M601.4 441.7v29.4M620 471.1v-35.8M588.5 608.2v-35.8M569.9 572.4v35.8M620 636.8l-.1-2.4-.5-4.3-.9-4.2-1.4-4.1-1.7-3.9-2.3-3.7-2.5-3.4-3-2.9-3.1-2.5-3.5-1.9-3.7-1.3-3.5-.7h-3.6l-1.7.4M571.5 618.4c-1 3.3-1.5 6.6-1.5 10.1M601.4 636.8c0-5.1-1.8-10.1-5-14M588.5 608.2c-.2 2.9.7 5.7 2.4 7.9M601.4 599.8v1.2l-.3 2.6M569.9 608.2l.1 2.4.6 4.2.9 4 1.6 3.8 2 3.4 2.4 3 2.8 2.4 3.1 1.8 3.2 1.2 3.3.6 3.4.1 3.3-.5 3.4-1.1 1.1-.5M615.5 618.2c2.9-5.7 4.5-12 4.5-18.4M588.5 535.4v-29.3M569.9 499.7v35.7M601.4 636.8v35.8M620 672.6v-35.8M620 692.7c.1-3.4-.5-6.8-1.5-10.1M601.4 666.2l-1.4-.3-3.4-.1-3.4.6-3.3 1-3.1 1.6-3.1 2.1-3 2.6-2.6 3-2.3 3.5-2.1 3.7-1.5 4.1-1.2 4.1-.8 4.3-.3 4.1v.7M593.6 687.2c-3.3 3.9-5.1 8.8-5.1 14M588.5 664.2c0 1.3.1 2.5.4 3.8M599 680.4c1.8-2.2 2.6-5 2.4-7.8M569.9 664.2c.1 6.4 1.6 12.8 4.5 18.5M588.9 697.4l.1.1 3.6 1.3 3.6.6h3.5l3.5-.6 3.1-1.1 2.9-1.7 2.7-2.1 2.3-2.6 2-3 1.6-3.4 1.2-3.7.7-4 .3-4v-.6M601.4 570.4v29.4M620 599.8v-35.8M588.5 736.9v-35.7M569.9 701.2v35.7M620 765.5l-.1-2.3-.5-4.3-.9-4.3-1.4-4.1-1.7-3.9-2.3-3.7-2.5-3.4-3-2.9-3.1-2.5-3.5-1.9-3.7-1.3-3.5-.6h-3.6l-1.7.3M571.5 747.1c-1 3.2-1.5 6.6-1.5 10.1M601.4 765.5c0-5-1.8-10.1-5-13.9M588.5 736.9c-.2 2.8.7 5.7 2.4 7.8M601.4 728.5v1.3l-.3 2.4M569.9 736.9l.1 2.4.6 4.2.9 4 1.6 3.8 2 3.4 2.4 3 2.8 2.4 3.1 1.8 3.2 1.2 3.3.6 3.4.1 3.3-.5 3.4-1.1 1.1-.5M615.5 747c2.9-5.8 4.5-12.1 4.5-18.5M588.5 664.2v-29.5M569.9 628.4v35.8M601.4 765.5v35.8M620 801.3v-35.8M620 821.4c.1-3.4-.5-6.8-1.5-10.1M601.4 794.9l-1.4-.3h-3.4l-3.4.4-3.3 1.1-3.1 1.6-3.1 2.1-3 2.6-2.6 3-2.3 3.4-2.1 3.9-1.5 4-1.2 4.1-.8 4.3-.3 4.1v.6M593.6 815.9c-3.3 3.9-5.1 8.9-5.1 13.9M588.5 792.9c0 1.3.1 2.5.4 3.8M599 809.1c1.8-2.1 2.6-5 2.4-7.8M569.9 792.9c.1 6.4 1.6 12.8 4.5 18.6M588.9 826.1l.1.1 3.6 1.3 3.6.6h3.5l3.5-.5 3.1-1.2 2.9-1.7 2.7-2.2 2.3-2.5 2-3 1.6-3.4 1.2-3.7.7-4 .3-4v-.6M601.4 699.1v29.4M620 728.5v-35.8M588.5 865.6v-35.8M569.9 829.8v35.8M591.5 873.9l-.5-.3-.5-.6-.7-1-.6-1.6-.5-1.9-.2-2.3v-.6M569.9 865.6l.1 2.4.6 4.2.9 4.1 1.6 3.7 2 3.4 2.4 2.9 2.8 2.5 3.1 1.8 3.2 1.2 3.3.6 3.4.1 3.3-.5 3.4-1 1.4-.8M616.3 873.9c2.4-5.3 3.6-10.9 3.6-16.8M588.5 792.9v-29.4M569.9 757.1v35.8M601.4 827.8v29.4M620 857.2v-35.8M581 985.9l-3.3-.9M564.1 922l-2.6.7M567.5 945.1l2.6-.7M560.9 1085.4l-1.2-1.4-2-1.8M557.7 1082.1l-23.6-6.2M554.6 903.6v70.2M605.4 1169.7l7.1-3 5.9-3.5 5.6-4 4-3.6 2.6-2.7 1.8-1.9 2.2-2.7 3.3-4.3 4-6 4.3-8.1 3.1-7.3 2.9-8.5 2.2-9.8 1.3-10.7M575.7 1117.7c-.9-6.2-2.7-12.2-5.2-17.9M591.9 1141.4l-1.4-.3-2.8-1.4-2.2-1.7-2.4-2.3-2.1-2.8-1.7-3.1-1.5-3.6-1.2-4-.8-3.9-.1-.6M531.9 1121.5c-.4-4.8-1.8-9.3-4.2-13.5M533.2 1126.8c0-5-1-9.9-2.8-14.5M533.3 1126.8l.8 8.3.3 4.8M634.2 969.7v-71.2M534.4 1140c1.7 8.1 4.5 16.1 8.1 23.7M531.9 1121.6l1.5 6.8M580.8 1197.1l3 .7 5.4.8 5.5.1 5.5-.5 5.6-1 5.6-1.5 5.6-2.2 5.5-2.7 5.3-3.2 5.3-3.8 5.2-4.3 4.9-4.7 4.7-5.2 4.4-5.5 4.2-6 3.2-5.3M602.4 1056.5l1 1.1 2.1 2.8 1.8 3.1 1.5 3.5 1.2 4 .9 4.2.6 4.5.1 4.7-.2 4.9-.6 4.9-1 4.9-1.3 4.8-1.8 4.7-1.9 4.5-2.3 4.3-2.6 4-2.7 3.5-2.9 3.1-3 2.7-3 2.1-3.1 1.7-2.2 1M542.5 1163.7l1.1 2.3 3.2 5.5 3.5 5 3.9 4.6 4.1 4.1 4.6 3.6 4.6 3 5 2.5 5.1 2 1.9.5M634.2 969.7c-.3 5.9 1.4 11.7 4.9 16.5M644.9 998.8c-3.2 18.9-1.5 38.2 5 56.2M641.2 988.8l-2.1-2.6M644.8 998.8c.3-3.7-1-7.4-3.6-10M644.7 1003.7l-.5-.7M655.7 1093.6c1.2-13.2-.9-26.5-6-38.8M659.9 1022.2l-15.2-18.5M601.8 1056l.6.5M678.8 1082.4v-3.9l-.5-7.3-.8-7.2-1.4-7-1.7-6.7-2.1-6.3-2.6-6.1-3-5.8-3.3-5.3-3.5-4.6M659.7 1152.8c12.5-21.4 19-45.7 19.1-70.4M585.8 316l.9-7.1 2.6-7 3.9-5.7 5-4.1 2.5-.8M616.3 301.8l.9 4 .1 1.7M599.1 294.4c-2.1 2.1-3.9 4.3-5.6 6.7M585.8 316v.8M617.3 308.4v-.9M585.8 351.8v.8l.9 6.6 2.6 5.6 3.9 3.7 4.9 1.4 1-.2M613.7 357.8c2.3-4.2 3.5-8.9 3.6-13.6M596.8 365.8c-1.9-2.7-3.9-5.4-6-7.9M617.3 344.2v-.9M599.1 423c-2.1 2.1-3.9 4.4-5.6 6.7M596.5 494.1c-1.8-2.4-3.6-4.6-5.6-6.7M599.1 551.8c-2.1 2.1-3.9 4.4-5.6 6.7M596.5 622.8c-1.8-2.4-3.6-4.6-5.6-6.7M599.1 680.4c-2.1 2.1-3.9 4.4-5.6 6.7M596.5 751.5c-1.8-2.3-3.6-4.5-5.6-6.7M599.1 809.1c-2.1 2.1-3.9 4.4-5.6 6.7"/>
    <path class="st1"
        d="M579.9 1000l-.3-1.5-.5-1.1-1-.6h-1.1l-1.2.6-.9 1.1-.7 1.5-.1 1.6.1 1.4.7 1.2.9.5h1.2l1.1-.5 1-1.2.5-1.4zM587.2 1003.5l.5-3.2.2-3.2-.3-3-.9-2.7-1.3-2.3-1.6-1.8-2-1.1-2.1-.6-2.3.2-2.3.8-2.2 1.4-2.1 2.1-1.7 2.5-1.4 2.9-1.1 3.1-.5 3.1M563.7 1091.3l23.5-87.8M566.1 1001.7l-7.6 81.4M566.1 1001.7l-19.6-5.2-7.5 80.7M561.3 980.6l-1.3-.2-2.3.1-2.3.8-2.2 1.5-2 2-1.8 2.5-1.4 2.9-1 3.1-.5 3.2M554 986.3l2-2.2 2.2-1.7 2.4-.9.6-.2M554 986.3l13.1 3.5M577.7 985l-1.7-.3-2.3.3-2.3 1-2.3 1.6-2 2.2M576.6 999.1l-.2-1.5-.3-.4M574.5 1003.5l.3-.2.9-1.2.7-1.4.2-1.6M590.1 907.9v75.8M597.6 905.8l-7.5 2.1M601.5 910.2l-3.9-4.4M601.5 960v-49.8M608.1 967.1l-1.3.2-1.2-.2-1.1-.5-1-.8-.8-1.1-.6-1.4-.4-1.6-.2-1.7M611.3 966.3l-3.2.8M617.9 955.6l-.1 1.8-.4 1.7-.6 1.7-.8 1.6-1 1.3-1.2 1.2-1.1.9-1.4.5M617.9 938.2v17.4M621.9 899.3l-1.9 3.1M632.1 896.6l-10.2 2.7M632.1 971.1v-74.5M638.6 992.3l-1.5-2.1-1.3-2.2-1.1-2.4-1-2.6-.7-2.8-.5-2.9-.4-3.1v-3.1M640.7 994.9l-2.1-2.6M646.5 1065.8l-2.5-6.8-2.1-7.2-1.7-7.6-1.1-7.8-.6-8.1-.2-8.2.3-8.3.8-8.5 1.3-8.4M646.5 1065.8l1.2 3.5 1.2 3.6.8 3.7.6 3.9.5 4 .2 4.1-.1 4.2-.2 4.2M569.3 1122.9l2.1 9 3.2 8 4.3 6.8 5.3 5.4 6 3.7 6.7 2.2 7.1.3 7.3-1.5 7.2-3.1 6.9-4.8 6.4-6.3 5.8-7.6 4.9-8.6 3.9-9.4 2.8-10 1.5-10M569.3 1122.9c-1.1-11-6.5-21.2-14.9-28.3M555.7 1089l-.1.7-.2.7-.2.7-.1.7-.2.7-.1.7-.2.7-.1.7M564 1097.3l-.9-1.2-1-1.2-1-1.1-1-1.1-1-1-1.1-.9-1.2-.9-1.1-.9M564 1097.3l-.3 3.2h.8999999999999999l.3.1h1.3M573.1 1120.9l-.5-2.8-.6-2.7-.8-2.7-.7-2.6-.9-2.5-1.1-2.4-1.1-2.4-1.2-2.2M635.2 1057l2.9 3.4 2.6 3.9 2.2 4.4 1.7 4.8 1.3 5.2.9 5.5.3 5.7-.2 5.8-.5 6-1.2 5.9-1.5 5.8-2.1 5.6-2.4 5.5-2.8 5.1-3.1 4.8-3.5 4.3-3.7 3.9-3.9 3.3-4.2 2.7-4.2 2.1-4.2 1.4-4.3.8-4.2.1-4-.6-3.9-1.2-3.8-1.9-3.5-2.5-3.1-3.1-2.8-3.7-2.3-4.1-2-4.6-1.5-5.1-1.1-5.3M635.1 1056.9h.1v-.2h.1l.1-.1v-.1l.1-.1v-.1h.1l-43.6-70.4-.2-.3-.3-.3-.2-.3-.2-.3-.3-.2-.2-.3-.2-.2-.3-.3M577 980.5v-67.3c3.9.1 7.7-1.6 10-4.8h.4l.4-.1h.4l.4-.1h.4l.4-.1.4-.1.4-.1M590.1 983.7l-2.1-1.1-2.7-.8-2.8-.4-2.8-.4-2.5-.4-.2-.1M577 913.2l-19.7-5.2M555.2 899.9l-.4 2-.2 1.8.2 1.6.5 1.2.9.9 1.1.6M586.9 908.4l-31.7-8.5M597.6 905.8l-32.8-8.8M557.3 899.1l-.4.1-.2.1-.3.1-.3.1-.3.1-.2.1-.2.1-.2.1M564.8 897l-7.5 2.1M573 979.5l4 1M573 979.5v5.7M561.2 988.2v-11.9l-3.9-1M570.1 944.4l1.7-.7 1.4-1.4 1.2-1.9.7-2.4.2-2.6-.2-2.7-.7-2.7-1.2-2.6-1.4-2.1-1.8-1.8-1.9-1.1-2-.5-1.9.1h-.1"/>
    <path class="st1"
        d="M572.7 936.1l-.3-2.7-.6-2.8-1.1-2.5-1.6-2.1-1.7-1.8-1.9-1.1-2-.6-1.9.2-1.8.8-1.4 1.4-1.2 1.9-.6 2.3-.3 2.6.3 2.8.6 2.7 1.2 2.5 1.4 2.2 1.8 1.7 1.9 1.1 2 .5 1.9-.1 1.7-.8 1.6-1.4 1.1-1.9.6-2.3zM554.5 1094.6l-1.8 5.7M551.3 1128.6c6.4-.2 12.7-2.1 18-5.7M551.3 1128.6c-.4-4.8-1.8-9.5-4-13.8M548.8 1109.9c-1 1.4-1.5 3.2-1.5 4.9M552.7 1100.3l-2.4 7.1-1.5 2.5M523.5 1078.6l-.6 1.7M556 1087.3l-32.5-8.7M555.7 1089l.3-1.7M552.7 1100.3l-31.5-8.5.5-6M522.9 1080.3l-.1.6-.2.7-.2.7-.1.7-.2.7-.2.7-.1.7-.1.7M556 1087.3c.7-1.6 1.2-3.4 1.5-5M564 1097.3c.7-4.2-.4-8.5-3.1-11.9M534.1 1076c-3.8-1.6-8.1-.5-10.7 2.7M581.5 983.1l10.5 2.8M581.5 983.1l-.8-1.1-.9-.9-.4-.3M535.3 1127.5l.3 3.2 1 10.4M525.1 1103.6l2.2 1 2.3 2.3 2.4 4 1.8 5.5 1 5.6.5 5.5M521.2 1091.8c.7 4.1 2.1 8 3.9 11.8M538.6 1128.4l.5-5.3 1-5 1.8-4.5 2.4-2.8 2.3-1 2.2.1M537.3 1141.3l.9-9.9.4-3M537.3 1141.3l-.7-.2M554.7 973.8c.6.8 1.6 1.4 2.6 1.5M649.6 1046l2 4.7 1.6 5 1.4 5.2 1 5.4.8 5.6.4 5.7.1 5.9-.2 5.9M649.6 1046l-1.3-4.1-1.2-4.2-1-4.4-.8-4.5-.6-4.6-.3-4.8-.2-4.7.1-4.9M659.4 1028.3l-15.1-18.5M676.7 1083.8l-.3-8.1-.9-8-1.3-7.6-2-7.3-2.5-6.9-2.9-6.4-3.4-5.9-4-5.3M658.7 1150.5l3.6-6.7 3.2-7 2.9-7.2 2.5-7.5 2.1-7.6 1.6-7.6 1.2-7.7.7-7.8.2-7.6M554.5 1161.9l2.9 5.5 3.4 5.1 3.7 4.5 4.1 4.1 4.3 3.4 4.7 2.9 4.8 2.3 5.1 1.6 5.2 1 5.4.4 5.4-.3 5.6-.9 5.5-1.6 5.5-2.2 5.4-2.8 5.3-3.3 5.2-4 5-4.5 4.8-4.9 4.6-5.5 4.3-5.9 4-6.3M554.5 1161.9l4.6 5.2 5.1 4.4 8.7 4.9 9.6 2.4h10.1l10.3-2.5 10.2-5 9.7-7.2 8.9-9.3 7.9-11.1 6.6-12.5 5.2-13.5 3.6-14 1.7-14.3M547.2 1114.8l-.8 2-.5 3.6-.2 4.5v4.8M538.6 1128.4c2.3.9 4.7 1.4 7.3 1.3M625.1 1053.4l10.5 2.9M625.1 1053.4l-38.2-61.6M584.5 987.9l-3-4.8M619.7 1061.3l.7-.9.7-1 .6-1 .7-.9.7-1 .7-1 .6-1 .7-1.1M581.8 1023.6l37.9 37.7M579.5 1196.9l.3.1M580.7 1197.2l-.3-.1-.5-.1M551.3 1128.6c-1.9.1-3.8.4-5.5 1.1M564.2 1097.6l4 1.1M566.2 1100.6h2.4l1.6-.2.3-.5-.6-.6-1.6-.6h-.1M621.9 899.3l-1.9-.4M601.4 893.9l-6.1-1.7M601.4 901.3l-12.9-3.4M546.4 1141.5c1.6 7.2 4.3 14 8.1 20.4M545.8 1129.7l.1 3 .5 8.8M624.1 1062.9l1.4.2 1.5-.1 1.5-.4 1.5-.7 1.6-.9 1.4-1.2 1.2-1.4 1-1.4M632.1 896.6h.2l.1-.1h.1l.2-.1h.30000000000000004l.1-.1.1-.1-13.2-3.6M525.1 1103.6c1.3 2.1 2.5 4.3 3.9 6.4M537.4 1141.4c2.9.8 6.1.8 9 .1M607.8 1058.2l-27.9-27.8M623.6 1062.4l-3.9-1.1M624.1 1062.9l-.5-.5M624.1 1062.9l-19.6-5.2M603.9 1057.1l.6.6M603.9 1057.1l3.9 1.1M535.3 1127.5l-1.1-.1-.8-.3-.2-.3M530.9 1114l-.5-1.5-.1-.1M559.1 977.1l-.1-.3-.2-.3-.3-.3-.2-.3-.3-.2-.2-.3M544.7 1165.4c3.6.5 7.3-.8 9.8-3.4M537.4 1141.4c1.3 8.2 3.7 16.4 7.3 24M536.5 1141.1l3.4 12.5 4.7 11.6M536.5 1141.1l-1.4-.5-.7-.6v-.1M634.2 898.5c0-.8-.4-1.6-1-2.3M561.2 980.4l-2.1-3.3M649.9 1055v.5l.3 1.5-.1 1.7-.5 1.8-.7 1.8-1.1 1.7-1.3 1.8M623.6 1062.4c4.5.5 9.1-1.5 11.5-5.5M649.6 1046l-.7.9-.5.9-.4 1-.2.8M601 1051.4c-.9 2.2.1 4.6 2.3 5.6l.6.2M655.6 73.9l-2.1.4-2.6.4-2.7.1-2.9-.1-2.6-.2-2.4-.4-2-.5-1.4-.6-.9-.8-.2-.5M659.1 71.7l-.1.2-.5.7-1.1.7-1.8.6M550.7 102l1.7-.6 1.2-.7.5-.7v-.2M530.9 99.8l.2.6.9.7 1.4.6 2 .5 2.3.4 2.7.3h2.8l2.8-.2 2.5-.3 2.2-.4M550.7 191.3l1.7-.5 1.2-.7.5-.8v-.2M530.9 189.1l.2.6.9.8 1.4.6 2 .5 2.3.4 2.7.2 2.8.1 2.8-.1 2.5-.4 2.2-.5M655.6 163.2l-2.1.5-2.6.3-2.7.1h-2.9l-2.6-.3-2.4-.3-2-.5-1.4-.7-.9-.7-.2-.6M659.1 161l-.1.2-.5.8-1.1.7-1.8.5M572.6 884l-1.5-.6-.9-.6-.3-.6M575.9 884.5l-1.2-.1-2.1-.4M604.2 892.4l1.9.4 2.4.3h5l2.3-.4 1.9-.5 1.4-.5.8-.6.1-.5M601.4 890.6l.3.6 1 .7 1.5.5M604.2 928.1l1.9.5 2.4.2 2.5.1 2.5-.2 2.3-.3 1.9-.4 1.4-.6.8-.6.1-.4M601.5 926.7l.2.3 1 .6 1.5.5M604.2 252.5l1.9.4 2.4.3h2.5l2.5-.1 2.3-.3 1.9-.4 1.4-.6.8-.6.1-.5M601.4 250.8l.3.6 1 .6 1.5.5M604.2 288.2l1.9.4 2.4.3 2.5.1 2.5-.1 2.3-.3 1.9-.5 1.4-.5.8-.7.1-.4M601.4 286.5l.3.5 1 .7 1.5.5M569.9 314.2l.1.2.5.7 1.3.6 1.9.5 2.3.4 2.5.1 2.7-.1 2.5-.2 2.1-.4M620 305.8l-.2.5-1 .7-1.5.5M572.6 279.8l-1.5-.5-.9-.7-.3-.6M588.5 278l-.1.5-.8.6-1.4.6-1.9.4-2.2.3-2.5.2-2.6-.1-2.3-.3-2.1-.4M585.8 316.8l1.6-.6.9-.6.2-.6M617.3 308.4l-2.1.4-2.5.2-2.5.1M569.9 350.8l.1.1.5.8 1.3.6 1.9.5 2.3.4 2.5.1h2.7l2.5-.3 2.1-.4M585.8 351.8l1.6-.6.9-.7.2-.5M620 342.4l-.2.5-1 .7-1.5.6M572.6 372.8l-1.5-.6-.9-.6-.3-.6M579.7 373.5h-.1l-2.6-.1-2.3-.3-2.1-.3M604.2 381.2l1.9.4 2.4.2 2.5.1 2.5-.1 2.3-.3 1.9-.4 1.4-.6.8-.7.1-.4M601.4 379.4l.3.6 1 .7 1.5.5M617.3 343.3l-2.1.4-2.5.3h-2.7l-2.5-.2-2.4-.3-1.8-.5-1.3-.6-.5-.7-.1-.2M604.2 416.9l1.9.5 2.4.2 2.5.1 2.5-.2 2.3-.2 1.9-.5 1.4-.6.8-.6.1-.4M601.4 415.2l.3.5 1 .7 1.5.5M620 435.3v.3l-.6.7-1.3.5-1.8.5-2.2.4-2.5.1h-1.4M569.9 443.8l.5.7 1.1.6 1.7.6 2.1.3 2.4.2 2.5.1 2.5-.2 2.2-.4 1.7-.5 1.3-.6.6-.6v-.2M572.6 408.5l-1.5-.6-.9-.5-.3-.6M588.5 406.8l-.1.4-.8.6-1.4.6-1.9.4-2.2.3-2.5.1h-2.6l-2.3-.3-2.1-.4M569.9 479.6l.5.7 1.1.6 1.7.5 2.1.4 2.4.1 2.5.1 2.5-.2 2.2-.3 1.7-.5 1.3-.6.6-.6v-.2M572.6 501.4l-1.5-.5-.9-.6-.3-.6M579.7 502.2h-.1l-2.6-.1-2.3-.2-2.1-.5M604.2 509.9l1.9.4 2.4.3h2.5l2.5-.1 2.3-.3 1.9-.4 1.4-.6.8-.6.1-.5M601.4 508.1l.3.6 1 .7 1.5.5M620 471.1v.2l-.6.7-1.3.6-1.8.5-2.2.3-2.5.1h-2.5l-2.4-.2-2.1-.3-1.6-.5-1.2-.6-.3-.7-.1-.1M604.2 545.6l1.9.4 2.4.3h2.5l2.5-.1 2.3-.2 1.9-.5 1.4-.6.8-.6.1-.4M601.4 543.9l.3.6 1 .6 1.5.5M620 564v.3l-.6.7-1.3.6-1.8.4-2.2.3-2.5.2h-1.4M569.9 572.4v.2l.5.7 1.1.5 1.7.5 2.1.4 2.4.2h2.5l2.5-.1 2.2-.4 1.7-.4 1.3-.6.6-.7v-.3M572.6 537.2l-1.5-.5-.9-.7-.3-.6M588.5 535.4l-.1.4-.8.7-1.4.6-1.9.4-2.2.3-2.5.1h-2.6l-2.3-.3-2.1-.4M569.9 608.2v.1l.5.7 1.1.6 1.7.5 2.1.3 2.4.3h2.5l2.5-.2 2.2-.3 1.7-.5 1.3-.6.6-.6v-.3M572.6 630.1l-1.5-.4-.9-.7-.3-.6M579.7 630.9h-.1l-2.6-.1-2.3-.3-2.1-.4M604.2 638.6l1.9.4 2.4.2 2.5.1 2.5-.1 2.3-.3 1.9-.4 1.4-.6.8-.6.1-.5M601.4 636.8l.3.7 1 .6 1.5.5M620 599.8v.2l-.6.7-1.3.6-1.8.4-2.2.4-2.5.2h-2.5l-2.4-.3-2.1-.4-1.6-.5-1.2-.6-.3-.7h-.1M604.2 674.3l1.9.5 2.4.2 2.5.1 2.5-.2 2.3-.3 1.9-.4 1.4-.5.8-.7.1-.4M601.4 672.6l.3.5 1 .7 1.5.5M620 692.7v.3l-.6.6-1.3.6-1.8.5-2.2.4-2.5.1h-1.4M569.9 701.2v.1l.5.6 1.1.7 1.7.5 2.1.3 2.4.2h2.5l2.5-.1 2.2-.3 1.7-.5 1.3-.6.6-.7v-.2M572.6 665.9l-1.5-.6-.9-.5-.3-.6M588.5 664.2l-.1.4-.8.6-1.4.6-1.9.5-2.2.2-2.5.1h-2.6l-2.3-.3-2.1-.4M569.9 736.9v.1l.5.7 1.1.6 1.7.5 2.1.4 2.4.2h2.5l2.5-.1 2.2-.4 1.7-.5 1.3-.5.6-.7v-.3M572.6 758.9l-1.5-.6-.9-.6-.3-.6M579.7 759.6h-.1l-2.6-.1-2.3-.2-2.1-.4M604.2 767.3l1.9.4 2.4.3 2.5.1 2.5-.2 2.3-.3 1.9-.5 1.4-.5.8-.7.1-.4M601.4 765.5l.3.6 1 .7 1.5.5M620 728.5v.3l-.6.6-1.3.6-1.8.5-2.2.3-2.5.1h-2.5l-2.4-.2-2.1-.4-1.6-.4-1.2-.7-.3-.6-.1-.1M604.2 803.1l1.9.3 2.4.3 2.5.1 2.5-.2 2.3-.2 1.9-.5 1.4-.6.8-.6.1-.4M601.4 801.3l.3.6 1 .6 1.5.6M620 821.4v.3l-.6.6-1.3.6-1.8.5-2.2.3-2.5.2h-1.4M569.9 829.8v.1l.5.7 1.1.6 1.7.5 2.1.4 2.4.2 2.5.1 2.5-.2 2.2-.3 1.7-.6 1.3-.5.6-.7v-.3M572.6 794.6l-1.5-.5-.9-.7-.3-.5M588.5 792.9l-.1.3-.8.7-1.4.6-1.9.4-2.2.3-2.5.1h-2.6l-2.3-.3-2.1-.4M569.9 865.6v.1l.5.7 1.1.6 1.7.5 2.1.3 2.4.3h2.5l2.5-.2 2.2-.3 1.7-.4 1.3-.7.6-.6v-.3M620 857.2v.2l-.6.7-1.3.6-1.8.4-2.2.4-2.5.2h-2.5l-2.4-.3-2.1-.4-1.6-.4-1.2-.6-.3-.7-.1-.1M557.3 908v18.7M557.3 937.3v38M544.6 1165.2l3.1 5.8 3.4 5.3 3.8 4.7 4.2 4.2 4.4 3.8 4.7 3.1 5 2.5 5.1 1.9 1.2.4M579.9 1197l-5-1.7-5.3-2.4-5-3.1-4.7-3.8-4.3-4.3-4-5-3.7-5.4-3.2-5.9M655.6 1093.6l-.2 1-1.8 1.3-2.9 1.1M551.3 1128.6l2.8 11.3 4.4 10 5.7 8.4 6.9 6.5 7.8 4.5 8.6 2.4 9 .1 9-2.2M608.1 967.1l-4.5-1.2M656.7 1089.4l-.8.3M575.7 1117.7v.2l-.1.8-.6.7-.8.8-1.1.7M617.9 955.6l-13.1-3.5M591.9 1141.5h.1l3.7.6 3.9-.1 3.8-.7 3.9-1.4 3.7-2 3.8-2.7 3.4-3.2 3.2-3.8 3-4.1 2.7-4.6 2.2-4.9 1.9-5.1 1.3-5.3 1-5.4.4-5.4v-5.2l-.5-5.1-1-4.9-1.4-4.4-1.9-4.1-2.3-3.6-2.7-3.2M532.8 1122.2c-.5-4.3-1.8-8.5-3.8-12.2M530.3 1112.4l-1.3-2.4M611.3 966.3l-9.1-2.5M561.2 977.7l-2.1-.6M634.2 969.7l-.1.4-.4.4-.7.3-.9.3M544.6 1165.2l-1.7-.8-.3-.8M604.5 1057.7l2.6 3.1 2.3 3.6 1.9 4.1 1.4 4.5 1 4.8.5 5.2.1 5.2-.5 5.3-1 5.4-1.3 5.3-1.9 5.2-2.2 4.8-2.6 4.6-3 4.2-3.2 3.7-3.6 3.2-3.6 2.7-3.8 2-3.9 1.4-.3.2M659.7 1152.8h.1l.1-.4-.2-.5-.4-.7-.6-.7M602.4 1056.5l.9.7 1.2.5M639.1 986.2l.4.6.3.9v1.1l-.1 1.2-.5 1.1-.6 1.2M644.7 998.8v-.4l-.6-.8-1.2-1.1-1.7-1.3-.5-.3M641.2 988.8l.4.5.3 1v1.1l-.1 1.1-.5 1.2-.6 1.2M644.7 1003.7l.5.6.3.9v1.1l-.2 1.1-.3 1.2-.7 1.2-.5-1.4M659.9 1022.2l.4.6.3 1 .1 1-.2 1.1-.4 1.2-.7 1.2M678.8 1082.4l-.1.4-.4.4-.7.3-.9.3"/>
    <defs>
        <path id="SVGID_1_" d="M519.9 1200z"/>
    </defs>
    <clipPath id="SVGID_2_">
        <use xlink:href="#SVGID_1_" overflow="visible"/>
    </clipPath>
    <path class="st3" d="M519.9 1200l13-13"/>
    <path class="st0" d="M519.9 1200z"/>
</svg>
